<?xml version="1.0" encoding="utf-8"?>
<!-- Generator: Adobe Illustrator 16.0.4, SVG Export Plug-In . SVG Version: 6.00 Build 0)  -->
<!DOCTYPE svg PUBLIC "-//W3C//DTD SVG 1.1//EN" "http://www.w3.org/Graphics/SVG/1.1/DTD/svg11.dtd">
<svg version="1.1" id="Layer_1" xmlns="http://www.w3.org/2000/svg" xmlns:xlink="http://www.w3.org/1999/xlink" x="0px" y="0px"
	 width="900px" height="600px" viewBox="154.378 20.849 900 600" enable-background="new 154.378 20.849 900 600"
	 xml:space="preserve">
<title>Flag of Uruguay</title>
<g>
	<rect x="154.378" y="20.849" fill="#FFFFFF" width="900.001" height="600"/>
	<g>
		<rect x="487.711" y="87.516" fill="#0038A8" width="566.668" height="66.667"/>
		<rect x="487.711" y="220.849" fill="#0038A8" width="566.668" height="66.667"/>
		<rect x="154.378" y="354.184" fill="#0038A8" width="900.001" height="66.666"/>
		<rect x="154.378" y="487.516" fill="#0038A8" width="900.001" height="66.666"/>
	</g>
	<g>
		<g>
			<g id="t">
				<g id="s">
					<g transform="rotate(22.5)">
						<path fill="#FCD116" stroke="#000000" stroke-width="0.6" stroke-linecap="square" stroke-miterlimit="20" d="
							M3398.779,758.032l149.998,100.002c-266.663,433.333,33.337,500.001-200,700c100-233.333-99.998-166.669-99.998-566.666"/>
						<path fill="none" stroke="#000000" stroke-width="0.6" stroke-miterlimit="20" d="M3348.779,824.699
							c-66.669,433.334,150,566.667-0.003,733.335"/>
					</g>
					<path fill="#FCD116" stroke="#000000" stroke-width="0.6" stroke-miterlimit="20" d="M2918.585,1704.688h200l-200,1100
						l-200-1100H2918.585v1100"/>
				</g>
				<g transform="rotate(45)">
					<g id="s_1_">
						<g transform="rotate(22.5)">
							<path fill="#FCD116" stroke="#000000" stroke-width="0.6" stroke-linecap="square" stroke-miterlimit="20" d="
								M3171.999,705.521l35.358,176.776c-494.976,117.85-329.983,377.123-636.396,353.551
								c235.701-94.282,47.14-188.559,329.983-471.404"/>
							<path fill="none" stroke="#000000" stroke-width="0.6" stroke-miterlimit="20" d="M3089.504,717.307
								c-353.552,259.269-294.627,506.756-518.542,518.542"/>
						</g>
						<path fill="#FCD116" stroke="#000000" stroke-width="0.6" stroke-miterlimit="20" d="M2918.585,1704.688l141.424,141.424
							l-919.238,636.395l636.395-919.238L2918.585,1704.688l-777.814,777.819"/>
					</g>
				</g>
			</g>
			<g id="u">
				<g id="t_1_">
					<g id="s_2_">
						<g transform="rotate(22.5)">
							<path fill="#FCD116" stroke="#000000" stroke-width="0.6" stroke-linecap="square" stroke-miterlimit="20" d="
								M3048.776,508.032l-99.996,150c-433.334-266.667-500.001,33.336-700-200c233.333,100,166.665-99.996,566.666-99.998"/>
							<path fill="none" stroke="#000000" stroke-width="0.6" stroke-miterlimit="20" d="M2982.11,458.036
								c-433.33-66.67-566.663,149.999-733.331-0.004"/>
						</g>
						<path fill="#FCD116" stroke="#000000" stroke-width="0.6" stroke-miterlimit="20" d="M2918.585,1704.688v200l-1100-200
							l1100-200V1704.688h-1100"/>
					</g>
					<g transform="rotate(90)">
						<g id="s_3_">
							<g transform="rotate(22.5)">
								<path fill="#FCD116" stroke="#000000" stroke-width="0.6" stroke-linecap="square" stroke-miterlimit="20" d="
									M3101.292,281.255l-176.777,35.358c-117.854-494.974-377.123-329.983-353.557-636.398
									c94.283,235.706,188.564,47.142,471.406,329.987"/>
								<path fill="none" stroke="#000000" stroke-width="0.6" stroke-miterlimit="20" d="M3089.506,198.759
									c-259.272-353.55-506.76-294.625-518.547-518.545"/>
							</g>
							<path fill="#FCD116" stroke="#000000" stroke-width="0.6" stroke-miterlimit="20" d="M2918.585,1704.688l-141.419,141.424
								l-636.395-919.243l919.238,636.399L2918.585,1704.688l-777.814-777.818"/>
						</g>
					</g>
				</g>
			</g>
			<g>
				<g transform="scale(0.11)">
					<g id="t_2_">
						<g id="s_4_">
							<g transform="rotate(22.5)">
								<path fill="#FCD116" stroke="#000000" stroke-width="0.6" stroke-linecap="square" stroke-miterlimit="20" d="
									M3298.778,158.033l-150.002-100c266.669-433.33-33.331-499.999,200-700C3248.778-408.63,3448.778-475.3,3448.78-75.299"/>
								<path fill="none" stroke="#000000" stroke-width="0.6" stroke-miterlimit="20" d="M3348.778,91.366
									c66.669-433.334-149.999-566.663-0.001-733.333"/>
							</g>
							<path fill="#FCD116" stroke="#000000" stroke-width="0.6" stroke-miterlimit="20" d="M2918.585,1704.688h-200l200-1100
								l200,1100H2918.585v-1100"/>
						</g>
						<g transform="rotate(45)">
							<g id="s_5_">
								<g transform="rotate(22.5)">
									<path fill="#FCD116" stroke="#000000" stroke-width="0.6" stroke-linecap="square" stroke-miterlimit="20" d="
										M3525.553,210.545l-35.352-176.774c494.974-117.854,329.981-377.126,636.394-353.555
										c-235.701,94.282-47.138,188.562-329.982,471.404"/>
									<path fill="none" stroke="#000000" stroke-width="0.6" stroke-miterlimit="20" d="M3608.05,198.764
										c353.554-259.274,294.629-506.762,518.544-518.547"/>
								</g>
								<path fill="#FCD116" stroke="#000000" stroke-width="0.6" stroke-miterlimit="20" d="M2918.585,1704.688l-141.419-141.419
									l919.238-636.399l-636.395,919.243L2918.585,1704.688l777.819-777.818"/>
							</g>
						</g>
					</g>
					<g id="u_1_">
						<g id="t_3_">
							<g id="s_6_">
								<g transform="rotate(22.5)">
									<path fill="#FCD116" stroke="#000000" stroke-width="0.6" stroke-linecap="square" stroke-miterlimit="20" d="
										M3648.776,408.035l100-150.002c433.334,266.667,500.002-33.333,700,200c-233.333-100-166.667,100.001-566.664,100.002"/>
									<path fill="none" stroke="#000000" stroke-width="0.6" stroke-miterlimit="20" d="M3715.444,458.035
										c433.333,66.665,566.667-150,733.333-0.001"/>
								</g>
								<path fill="#FCD116" stroke="#000000" stroke-width="0.6" stroke-miterlimit="20" d="M2918.585,1704.688v-200l1100,200
									l-1100,200V1704.688h1100"/>
							</g>
							<g transform="rotate(180)">
								<g id="s_7_">
									<g transform="rotate(22.5)">
										<path fill="#FCD116" stroke="#000000" stroke-width="0.6" stroke-linecap="square" stroke-miterlimit="20" d="
											M3596.264,634.81l176.778-35.354c117.85,494.976,377.123,329.983,353.551,636.396
											c-94.277-235.703-188.56-47.144-471.404-329.983"/>
										<path fill="none" stroke="#000000" stroke-width="0.6" stroke-miterlimit="20" d="M3608.05,717.306
											c259.274,353.554,506.762,294.629,518.543,518.547"/>
									</g>
									<path fill="#FCD116" stroke="#000000" stroke-width="0.6" stroke-miterlimit="20" d="M2918.585,1704.688l141.424-141.419
										l636.395,919.238l-919.238-636.395L2918.585,1704.688l777.819,777.819"/>
								</g>
							</g>
						</g>
					</g>
					<circle fill="#FCD116" stroke="#000000" stroke-width="0.6" stroke-miterlimit="20" cx="2918.585" cy="1704.69" r="366.666"/>
				</g>
				<g transform="scale(0.011)">
					<g id="right">
						<path d="M289871.594,141638.312c-2121.406,2424.469-3333.219-1817.938-10909.25-1817.938
							c-7575.625,0-8787.844,4545.469-9999.688,3636.281c-1212.219-909.156,6363.406-6363.781,8787.844-6666.844
							C280174.562,136486.75,287144.5,138911.219,289871.594,141638.312 M281083.75,144365.844
							c2121,1817.938,303.062,5757.281-1818.375,5757.281c-2120.969,0-6060.312-3636.281-4242.375-6060.344"/>
						<path d="M271083.656,147092.938c303.062-3636.281,3333.219-4242.375,8181.719-4242.375
							c4848.531,0,6969.938,3636.281,8787.875,4545.438c-2121,0-3939.344-3030.156-8787.875-3030.156
							c-4848.5,0-4848.5,0-8181.719,3030.156 M271992.812,148002.125c1212.25-1818.344,2727.125,1817.938,6060.75,1817.938
							c3333.25,0,5151.188-908.781,7272.562-2424.062c2121.406-1515.281-3030.156,3636.281-6363.781,3636.281
							C275629.125,151032.281,271083.656,149214.344,271992.812,148002.125"/>
						<path d="M282295.969,149820.062c3939.344-2121,1514.906-5151.156,0-5757.281
							C282902.062,144668.906,285326.125,147699.062,282295.969,149820.062 M265325.969,168001.875
							c1818.344,0,2424.469-605.719,4848.531-605.719c2424.438,0,8182.125,3333.25,11515.375,2121
							c-6969.938,2727.125-4242.438,909.188-16363.906,909.188h-1514.875 M282902.062,172244.281
							c-1212.188-2121-909.156-1514.875-3333.625-4848.125C281992.906,169214.094,282599.031,170123.281,282902.062,172244.281
							 M265325.969,175274.844c7576.031,0,6363.812-1515.281,16363.906-5757.688
							c-7273,909.188-8787.875,3333.219-16363.906,3333.219h-1514.875 M265325.969,164062.531
							c2121.406,0,2727.531-1514.875,5151.594-1514.875c2424.438,0,5757.688,908.75,7272.938,2121
							c303.062,303.062-909.156-2424.062-3333.625-2727.125c-2424.062-303.062-1514.875-4242.375-4242.375-4848.5
							c0,1212.219,909.156,909.156,1212.219,2727.094c0,1515.312-2727.094,1515.312-3333.219,0
							c606.125,2424.469-1212.25,2424.469-2727.531,2424.469"/>
					</g>
					<g transform="scale(-1,1)">
						<g id="right_1_">
							<path d="M240780.766,141638.312c2120.984,2424.469,3333.234-1817.938,10908.844-1817.938
								c7576.031,0,8787.859,4545.469,10000.078,3636.281c1212.25-909.156-6363.391-6363.781-8787.844-6666.844
								C250477.781,136486.75,243507.875,138911.219,240780.766,141638.312 M249568.625,144365.844
								c-2121.406,1817.938-303.062,5757.281,1817.938,5757.281c2121.391,0,6060.734-3636.281,4242.797-6060.344"/>
							<path d="M259568.703,147092.938c-303.062-3636.281-3333.641-4242.375-8182.141-4242.375
								c-4848.125,0-6969.516,3636.281-8787.859,4545.438c2121.391,0,3939.734-3030.156,8787.859-3030.156
								c4848.5,0,4848.5,0,8182.141,3030.156 M258659.531,148002.125c-1212.234-1818.344-2727.516,1817.938-6060.75,1817.938
								c-3333.219,0-5151.562-908.781-7272.562-2424.062c-2121.406-1515.281,3030.172,3636.281,6363.391,3636.281
								C255023.234,151032.281,259568.703,149214.344,258659.531,148002.125"/>
							<path d="M248356.391,149820.062c-3939.344-2121-1515.297-5151.156,0-5757.281
								C247750.281,144668.906,245326.219,147699.062,248356.391,149820.062 M265325.969,168001.875
								c-1817.938,0-2424.031-605.719-4848.5-605.719c-2424.062,0-8181.734,3333.25-11514.969,2121
								c6969.516,2727.125,4242.406,909.188,16363.469,909.188h1515.281 M247750.281,172244.281
								c1212.219-2121,909.156-1514.875,3333.625-4848.125C248659.438,169214.094,248053.328,170123.281,247750.281,172244.281
								 M265325.969,175274.844c-7575.609,0-6363.391-1515.281-16363.469-5757.688
								c7272.562,909.188,8787.859,3333.219,16363.469,3333.219h1515.281 M265325.969,164062.531
								c-2120.969,0-2727.094-1514.875-5151.156-1514.875c-2424.453,0-5757.688,908.75-7272.969,2121
								c-303.062,303.062,909.172-2424.062,3333.219-2727.125c2424.469-303.062,1515.297-4242.375,4242.406-4848.5
								c0,1212.219-908.766,909.156-1211.828,2727.094c0,1515.312,2727.109,1515.312,3333.234,0
								c-606.125,2424.469,1212.219,2424.469,2727.094,2424.469"/>
						</g>
					</g>
					<path d="M265325.969,178001.969c-1514.875,0-5454.219,909.156,0,909.156
						C270780.625,178911.125,266841.25,178001.969,265325.969,178001.969"/>
				</g>
			</g>
		</g>
	</g>
</g>
</svg>
