<?xml version="1.0" encoding="utf-8"?>
<!-- Generator: Adobe Illustrator 16.0.4, SVG Export Plug-In . SVG Version: 6.00 Build 0)  -->
<!DOCTYPE svg PUBLIC "-//W3C//DTD SVG 1.1//EN" "http://www.w3.org/Graphics/SVG/1.1/DTD/svg11.dtd">
<svg version="1.1" id="svg2434" xmlns:svg="http://www.w3.org/2000/svg"
	 xmlns="http://www.w3.org/2000/svg" xmlns:xlink="http://www.w3.org/1999/xlink" x="0px" y="0px" viewBox="0 0 219.69 207.48" enable-background="new 0 0 219.69 207.48" xml:space="preserve">
<g id="layer1" transform="translate(-15.869222,-165.76504)">
	<g id="g8" transform="matrix(1.25,0,0,1.25,15.869222,165.76504)">
		<path id="path10" fill="#DCE0E5" d="M163.149,66.457c0,0,10.395-1.575,12.285-11.339c1.889-9.763-4.757-17.566-16.694-22.992
			c-17.323-7.874-38.11-15.432-81.889-25.196C53.21,1.656,46.614,0,46.614,0L0,49.764l40-1.26c0,0-13.229,20.157-11.023,53.228
			c2.204,33.071,16.28,49.593,27.401,57.008c7.56,5.039,17.954,7.244,17.954,7.244s-5.355-7.559-3.78-17.008
			c1.575-9.449,5.355-14.488,8.189-19.528c2.835-5.039,21.103-40.944,21.103-40.944s6.614,0,9.448,0.314
			c2.835,0.316,4.725,1.575,4.725,3.151c0,1.574-1.89,3.779-1.89,3.779s9.449,0.63,21.732-4.095
			c12.284-4.723,16.378-12.598,16.378-12.598s-5.354-6.613-11.653-11.653c-6.3-5.039-11.339-8.189-11.339-8.189h27.717
			c0,0,5.354,0,7.244,1.574C164.095,62.362,163.149,66.457,163.149,66.457z"/>
	</g>
	<g id="g12" transform="matrix(1.25,0,0,1.25,35.15996,174.42716)">
		<path id="path14" fill="#FFFFFF" d="M150.709,55.59c0,0,5.985-1.89,6.773-8.031c0.787-6.141-2.678-10.551-4.567-12.441
			c-1.89-1.89-10.237-7.874-24.883-13.07c-12.062-4.28-30.393-9.134-63.307-16.535C43.36,0.707,34.331,0,34.331,0L0,37.008
			l35.434-0.158c0,0-14.649,17.97-15.905,53.543c-1.889,53.544,34.331,64.882,34.331,64.882s-3.465-6.299-2.521-13.543
			c0.945-7.244,4.095-12.913,7.56-19.213C62.363,116.219,81.26,78.74,81.26,78.74s10.866,0,13.228,0s5.67,1.26,6.929,2.991
			c1.261,1.732,0.63,3.149,0.63,3.149s9.141,0.645,15.276-2.046c8.976-3.937,13.702-9.921,13.702-9.921s-6.3-7.559-15.591-13.386
			c-9.291-5.827-17.165-9.764-17.165-9.764h43.938c0,0,5.353,0,6.929,1.417C150.709,52.598,150.709,55.59,150.709,55.59z"/>
	</g>
	<g id="g16" transform="matrix(1.25,0,0,1.25,54.45196,181.11904)">
		<path id="path18" fill="#161413" d="M137.165,46.3c0,0,2.835-1.572,2.835-6.3c0-3.622-3.465-7.874-6.299-9.921
			c-2.835-2.047-8.976-5.827-19.055-9.134c-10.078-3.307-31.339-8.504-49.607-12.283C46.771,4.882,17.008,0,17.008,0l2.678,3.938
			L0,25.04l69.921,5.512l-0.63,0.787H22.519l3.465,3.464l-7.56,13.386L57.795,40l-1.101,1.102L10.709,56.693l3.937,2.52
			c0,0-1.417,2.677-2.363,8.347c-0.944,5.669-1.574,11.023-1.574,11.023l39.37-24.095l-0.158,0.945L6.457,90.079l4.094,1.102
			c0,0,0.158,7.402,0.945,11.811c0.787,4.409,2.047,9.449,2.047,9.449l35.591-41.889v1.417l-35.118,51.653h3.465
			c0,0,1.889,5.512,6.298,11.181c4.411,5.67,10.866,10.236,10.866,10.236s-2.392-4.946-1.417-13.227
			c0.63-5.355,5.984-14.174,8.504-19.213c2.52-5.04,34.646-68.504,34.646-68.504l-6.142-3.307h59.686c0,0,3.622,0.473,5.354,1.891
			C137.008,44.095,137.165,46.3,137.165,46.3z"/>
	</g>
	<g id="g20" transform="matrix(1.25,0,0,1.25,199.53184,221.86729)">
		<path id="path22" fill="#FFFFFF" d="M21.574,9.764c0,0,0.788-2.993-0.63-5.512C19.527,1.732,16.377,0,16.377,0l0.63,3.149
			L0.629,5.197L0,6.142h15.905c0,0,1.653,0.079,3.465,1.182C20.903,8.257,21.574,9.764,21.574,9.764z"/>
	</g>
	<g id="g24" transform="matrix(1.25,0,0,1.25,201.30309,213.40291)">
		<path id="path26" fill="#FFFFFF" d="M12.441,8.19c0,0-1.732-2.362-4.567-4.095C5.039,2.362,0,0,0,0s3.464,2.913,5.196,4.961
			c1.732,2.047,2.205,3.07,2.205,3.07L12.441,8.19z"/>
	</g>
	<g id="g28" transform="matrix(1.25,0,0,1.25,76.893335,194.70179)">
		<path id="path30" fill="#B01742" d="M93.229,17.953c0,0-21.002-5.68-45.355-10.393C23.464,2.835,5.512,0,5.512,0L0,6.457
			l93.071,12.599L93.229,17.953z"/>
	</g>
	<g id="g32" transform="matrix(1.25,0,0,1.25,87.227835,226.00066)">
		<path id="path34" fill="#B01742" d="M28.425,0L3.228,0.472L0,6.142L28.11,0.788L28.425,0z"/>
	</g>
	<g id="g36" transform="matrix(1.25,0,0,1.25,75.612835,244.40641)">
		<path id="path38" fill="#B01742" d="M29.135,0L1.812,9.843L0,17.087L28.662,1.102L29.135,0z"/>
	</g>
	<g id="g40" transform="matrix(1.25,0,0,1.25,74.03821,267.43866)">
		<path id="path42" fill="#B01742" d="M26.536,0L0,22.44c0,0,0.079,2.913,0.316,4.331c0.236,1.417,0.63,3.15,0.63,3.15L26.614,1.26
			L26.536,0z"/>
	</g>
	<g id="g44" transform="matrix(1.25,0,0,1.25,84.27496,289.97641)">
		<path id="path46" fill="#B01742" d="M23.149,0c0,0-7.638,11.261-12.834,19.214C5.118,27.166,0,34.804,0,34.804
			s1.181,2.362,1.969,3.622c0.787,1.26,2.047,2.835,2.047,2.835L23.701,0.709L23.149,0z"/>
	</g>
	<g id="g48" transform="matrix(1.25,0,0,1.25,139.58934,237.81216)">
		<path id="path50" fill="#161413" d="M10.473,0c0,0,13.937,6.851,21.417,11.891c7.481,5.039,12.599,10.472,12.599,10.472
			s-1.575,2.362-5.355,4.803c-3.779,2.441-7.717,3.071-7.717,3.071s2.993-2.677,3.229-4.016c0.236-1.339-0.314-1.654-1.103-1.654
			c-0.787,0-8.661,0-8.661,0s-1.417,1.023-1.339,3.15c0.08,2.125,1.103,3.463,1.103,3.463s-2.756-0.393-4.725-2.677
			c-1.968-2.283-1.968-3.936-1.968-3.936H0L11.26,2.441L10.473,0z"/>
	</g>
	<g id="g52" transform="matrix(1.25,0,0,1.25,147.56184,259.76153)">
		<path id="path54" fill="#B01742" d="M2.205,0l20.079,3.07l-0.473,0.945H0L2.205,0z"/>
	</g>
</g>
</svg>
