<?xml version="1.0" encoding="utf-8"?>
<!-- Generator: Adobe Illustrator 16.0.0, SVG Export Plug-In . SVG Version: 6.00 Build 0)  -->
<!DOCTYPE svg PUBLIC "-//W3C//DTD SVG 1.1//EN" "http://www.w3.org/Graphics/SVG/1.1/DTD/svg11.dtd">
<svg version="1.1" id="Layer_1" xmlns:sketch="http://www.bohemiancoding.com/sketch/ns"
	 xmlns="http://www.w3.org/2000/svg" xmlns:xlink="http://www.w3.org/1999/xlink" x="0px" y="0px" width="512px" height="512px"
	 viewBox="0 0 512 512" enable-background="new 0 0 512 512" xml:space="preserve">
<title>indianapolis-colts</title>
<desc>Created with Sketch.</desc>
<g sketch:type="MSLayerGroup">
	<g>
		<path sketch:type="MSShapeGroup" fill="#023A79" d="M345.359,155.277c-4.98-6.975-2.995-10.675,0.477-11.166
			c2.409-0.342,5.287,0.02,6.785,0.02c2.644,0,7.698,0.323,7.272-4.847c-0.487-5.813-1.694-11.389-3.153-18.173
			c-1.45-6.784-1.938-6.3-11.144-6.3c0,0-1.69-0.241-15.743,0.726c-14.05,0.971-25.19,2.907-25.682,21.806
			c-0.48,18.903,3.883,25.203,11.634,37.319c7.745,12.119,31.007,49.433,31.007,83.361c0,62.355-54.75,89.172-91.568,89.172
			c-36.824,0-91.575-26.816-91.575-89.172c0-33.929,23.258-71.242,31.013-83.361c7.752-12.116,12.111-18.416,11.632-37.319
			c-0.491-18.9-11.634-20.837-25.682-21.807c-14.054-0.968-15.75-0.727-15.75-0.727c-9.209,0-9.688-0.484-11.147,6.3
			c-1.451,6.784-2.661,12.36-3.145,18.173c-0.429,5.171,4.632,4.847,7.269,4.847c1.498,0,4.38-0.361,6.785-0.02
			c3.468,0.493,5.454,4.192,0.475,11.166c-20.019,28.046-41.177,62.748-41.177,104.198c0,68.336,58.623,136.185,131.298,136.185
			c72.678,0,131.293-67.847,131.293-136.185C386.533,218.023,365.383,183.32,345.359,155.277L345.359,155.277z M325.733,160.189
			c-2.178,0-3.941-1.765-3.941-3.944c0-2.174,1.764-3.94,3.941-3.94c2.171,0,3.94,1.764,3.94,3.94
			C329.674,158.424,327.905,160.189,325.733,160.189z M184.745,152.306c2.174,0,3.939,1.764,3.939,3.94
			c0,2.177-1.765,3.944-3.939,3.944c-2.172,0-3.939-1.765-3.939-3.944C180.806,154.07,182.573,152.306,184.745,152.306z
			 M145.499,252.756c-2.169,0-3.938-1.765-3.938-3.941c0-2.178,1.769-3.943,3.938-3.943c2.182,0,3.94,1.765,3.94,3.943
			C149.439,250.989,147.681,252.756,145.499,252.756z M164.882,330.783c-2.173,0-3.941-1.77-3.941-3.943
			c0-2.173,1.765-3.939,3.941-3.939c2.177,0,3.937,1.767,3.937,3.939C168.819,329.014,167.059,330.783,164.882,330.783z
			 M255.24,375.369c-2.177,0-3.937-1.764-3.937-3.942c0-2.174,1.761-3.94,3.937-3.94c2.174,0,3.935,1.764,3.935,3.94
			C259.177,373.604,257.413,375.369,255.24,375.369z M345.595,330.783c-2.177,0-3.938-1.77-3.938-3.943
			c0-2.173,1.761-3.939,3.938-3.939c2.174,0,3.939,1.767,3.939,3.939C349.534,329.014,347.772,330.783,345.595,330.783z
			 M364.981,252.756c-2.182,0-3.946-1.765-3.946-3.941c0-2.178,1.765-3.943,3.946-3.943c2.165,0,3.938,1.765,3.938,3.943
			C368.92,250.989,367.146,252.756,364.981,252.756z"/>
		<path sketch:type="MSShapeGroup" fill="#FFFFFF" d="M325.734,152.306c2.175,0,3.938,1.763,3.938,3.94
			c0,2.177-1.764,3.941-3.938,3.941c-2.178,0-3.94-1.764-3.94-3.941C321.794,154.069,323.557,152.306,325.734,152.306
			 M184.744,152.304c2.177,0,3.941,1.764,3.941,3.942c0,2.177-1.764,3.943-3.941,3.943c-2.176,0-3.941-1.765-3.941-3.943
			C180.803,154.069,182.568,152.304,184.744,152.304 M141.56,248.812c0-2.174,1.769-3.939,3.938-3.939
			c2.182,0,3.94,1.764,3.94,3.939c0,2.179-1.758,3.944-3.94,3.944C143.329,252.756,141.56,250.989,141.56,248.812 M164.881,322.902
			c2.177,0,3.939,1.765,3.939,3.939c0,2.178-1.762,3.94-3.939,3.94c-2.176,0-3.937-1.765-3.937-3.94
			S162.706,322.902,164.881,322.902 M255.239,367.489c2.177,0,3.941,1.764,3.941,3.94c0,2.176-1.765,3.938-3.941,3.938
			c-2.174,0-3.939-1.763-3.939-3.938C251.3,369.252,253.065,367.489,255.239,367.489 M345.594,322.9
			c2.178,0,3.939,1.764,3.939,3.939s-1.762,3.938-3.939,3.938c-2.175,0-3.938-1.762-3.938-3.938
			C341.656,324.663,343.419,322.9,345.594,322.9 M361.035,248.812c0-2.174,1.765-3.939,3.947-3.939c2.171,0,3.938,1.764,3.938,3.939
			c0,2.179-1.767,3.944-3.938,3.944C362.8,252.756,361.035,250.989,361.035,248.812"/>
	</g>
	<g>
		<path sketch:type="MSShapeGroup" fill="none" stroke="#FFFFFF" stroke-width="5" d="M345.359,155.277
			c-4.98-6.975-2.995-10.675,0.477-11.166c2.409-0.342,5.287,0.02,6.785,0.02c2.644,0,7.698,0.323,7.272-4.847
			c-0.487-5.813-1.694-11.389-3.153-18.173c-1.45-6.784-1.938-6.3-11.144-6.3c0,0-1.69-0.241-15.743,0.726
			c-14.05,0.971-25.19,2.907-25.682,21.806c-0.48,18.903,3.883,25.203,11.634,37.319c7.745,12.119,31.007,49.433,31.007,83.361
			c0,62.355-54.75,89.172-91.568,89.172c-36.824,0-91.575-26.816-91.575-89.172c0-33.929,23.258-71.242,31.013-83.361
			c7.752-12.116,12.111-18.416,11.632-37.319c-0.491-18.9-11.634-20.837-25.682-21.807c-14.054-0.968-15.75-0.727-15.75-0.727
			c-9.209,0-9.688-0.484-11.147,6.3c-1.451,6.784-2.661,12.36-3.145,18.173c-0.429,5.171,4.632,4.847,7.269,4.847
			c1.498,0,4.38-0.361,6.785-0.02c3.468,0.493,5.454,4.192,0.475,11.166c-20.019,28.046-41.177,62.748-41.177,104.198
			c0,68.336,58.623,136.185,131.298,136.185c72.678,0,131.293-67.847,131.293-136.185
			C386.533,218.023,365.383,183.32,345.359,155.277L345.359,155.277z M325.733,160.189c-2.178,0-3.941-1.765-3.941-3.944
			c0-2.174,1.764-3.94,3.941-3.94c2.171,0,3.94,1.764,3.94,3.94C329.674,158.424,327.905,160.189,325.733,160.189z M184.745,152.306
			c2.174,0,3.939,1.764,3.939,3.94c0,2.177-1.765,3.944-3.939,3.944c-2.172,0-3.939-1.765-3.939-3.944
			C180.806,154.07,182.573,152.306,184.745,152.306z M145.499,252.756c-2.169,0-3.938-1.765-3.938-3.941
			c0-2.178,1.769-3.943,3.938-3.943c2.182,0,3.94,1.765,3.94,3.943C149.439,250.989,147.681,252.756,145.499,252.756z
			 M164.882,330.783c-2.173,0-3.941-1.77-3.941-3.943c0-2.173,1.765-3.939,3.941-3.939c2.177,0,3.937,1.767,3.937,3.939
			C168.819,329.014,167.059,330.783,164.882,330.783z M255.24,375.369c-2.177,0-3.937-1.764-3.937-3.942
			c0-2.174,1.761-3.94,3.937-3.94c2.174,0,3.935,1.764,3.935,3.94C259.177,373.604,257.413,375.369,255.24,375.369z
			 M345.595,330.783c-2.177,0-3.938-1.77-3.938-3.943c0-2.173,1.761-3.939,3.938-3.939c2.174,0,3.939,1.767,3.939,3.939
			C349.534,329.014,347.772,330.783,345.595,330.783z M364.981,252.756c-2.182,0-3.946-1.765-3.946-3.941
			c0-2.178,1.765-3.943,3.946-3.943c2.165,0,3.938,1.765,3.938,3.943C368.92,250.989,367.146,252.756,364.981,252.756z"/>
		<path sketch:type="MSShapeGroup" fill="none" stroke="#FFFFFF" stroke-width="5" d="M325.734,152.306
			c2.175,0,3.938,1.763,3.938,3.94c0,2.177-1.764,3.941-3.938,3.941c-2.178,0-3.94-1.764-3.94-3.941
			C321.794,154.069,323.557,152.306,325.734,152.306 M184.744,152.304c2.177,0,3.941,1.764,3.941,3.942
			c0,2.177-1.764,3.943-3.941,3.943c-2.176,0-3.941-1.765-3.941-3.943C180.803,154.069,182.568,152.304,184.744,152.304
			 M141.56,248.812c0-2.174,1.769-3.939,3.938-3.939c2.182,0,3.94,1.764,3.94,3.939c0,2.179-1.758,3.944-3.94,3.944
			C143.329,252.756,141.56,250.989,141.56,248.812 M164.881,322.902c2.177,0,3.939,1.765,3.939,3.939c0,2.178-1.762,3.94-3.939,3.94
			c-2.176,0-3.937-1.765-3.937-3.94S162.706,322.902,164.881,322.902 M255.239,367.489c2.177,0,3.941,1.764,3.941,3.94
			c0,2.176-1.765,3.938-3.941,3.938c-2.174,0-3.939-1.763-3.939-3.938C251.3,369.252,253.065,367.489,255.239,367.489
			 M345.594,322.9c2.178,0,3.939,1.764,3.939,3.939s-1.762,3.938-3.939,3.938c-2.175,0-3.938-1.762-3.938-3.938
			C341.656,324.663,343.419,322.9,345.594,322.9 M361.035,248.812c0-2.174,1.765-3.939,3.947-3.939c2.171,0,3.938,1.764,3.938,3.939
			c0,2.179-1.767,3.944-3.938,3.944C362.8,252.756,361.035,250.989,361.035,248.812"/>
	</g>
</g>
</svg>
