<?xml version="1.0" encoding="utf-8"?>
<!-- Generator: Adobe Illustrator 16.0.0, SVG Export Plug-In . SVG Version: 6.00 Build 0)  -->
<!DOCTYPE svg PUBLIC "-//W3C//DTD SVG 1.1//EN" "http://www.w3.org/Graphics/SVG/1.1/DTD/svg11.dtd">
<svg version="1.1" id="Layer_1" xmlns:sketch="http://www.bohemiancoding.com/sketch/ns"
	 xmlns="http://www.w3.org/2000/svg" xmlns:xlink="http://www.w3.org/1999/xlink" x="0px" y="0px" width="512px" height="512px"
	 viewBox="0 0 512 512" enable-background="new 0 0 512 512" xml:space="preserve">
<title>new-york-giants</title>
<desc>Created with Sketch.</desc>
<g sketch:type="MSLayerGroup">
	<path sketch:type="MSShapeGroup" fill="#B21E35" stroke="#C82127" stroke-width="5" stroke-miterlimit="10" d="M402.014,138.286
		H355.96l0.085,109.053c-0.026,2.618-0.719,15.899-11.686,15.904c-4.056,0.005-5.907-1.401-6.947-2.457
		c-3.439-3.501-4.093-10.233-4.056-12.531l-0.079-109.967h-74.717l0.025,44.438l8.482-0.003c7.754-0.002,10.303,1.986,11.041,2.841
		c0.726,0.845,0.847,1.922,0.847,2.56c0,0.312-0.031,0.52-0.033,0.544l-0.112,0.583l-0.033,0.991l0.043,73.183
		c0.011,14.224,4.707,26.427,13.574,35.294c9.229,9.231,22.512,14.305,37.396,14.291c10.964-0.007,19.758-2.67,26.388-5.82
		c0.006,1.058,0.021,2.143,0.021,3.164c0,7.478-0.229,13.865-1.378,15.258c-0.298,0.231-1.952,1.139-9.721,1.146h-221.17v51.146
		h237.912c17.419-0.01,30.593-5.072,39.149-14.863c8.538-9.771,9.612-21.607,9.612-27.729c0-1.548,0.063-2.678,0-3.371
		c-0.003-0.783,0-193.651,0-193.651h-8.591v-0.001L402.014,138.286z M123.931,309.855l52.917-0.041l-0.08-113.688l-0.065-0.585
		c-0.005-0.046-0.469-4.606,2.093-7.474c2.363-2.641,6.934-3.198,10.354-3.201c3.694-0.001,6.33,0.848,8.058,2.6
		c2.472,2.505,2.97,6.763,2.951,8.193l-0.001,0.214l0.073,85.735l0.005-0.306c-0.045,1.316-0.224,13.083,7.661,21.263
		c4.556,4.726,10.855,7.223,18.213,7.222l45.369-0.041l-0.026-44.838l-9.683,1.266c-1.113,0.146-4.717,0.192-6.583-1.446
		c-1.514-1.332-1.997-4.084-1.998-6.156v-80.856v0.345c0.028-0.728,0.671-17.969-11.374-30.517
		c-7.936-8.272-19.113-12.459-33.213-12.448c-14.535,0.016-25.055,4.057-32.561,9.04l-0.004-5.849h-74.018l0.027,46.54l10.308-2.189
		c2.064-0.438,7.073-0.67,9.383,1.415c1.68,1.511,2.196,4.531,2.196,7.207v118.596H123.931L123.931,309.855z"/>
	<path sketch:type="MSShapeGroup" fill="#25316A" d="M283.503,263.423c0.009,12.953,4.215,24.013,12.185,31.985
		c8.351,8.35,20.459,12.939,34.101,12.928c14.528-0.01,24.873-4.953,31.004-9.077l0.022,3.435c0.025,2.904,0.053,5.576,0.053,8.019
		c0,9.765-0.41,15.838-2.725,18.181c-1.719,1.741-5.499,2.453-13.039,2.461l-216.506,0.154v41.807l233.24-0.176
		c16.021-0.013,28.011-4.447,35.64-13.177c7.547-8.638,8.661-19.097,8.661-24.51c0-1.664-0.103-2.819-0.16-3.33
		c0-0.429-0.141-189.162-0.141-189.162h-45.208l0.083,104.374c-0.003,0.831-0.267,20.573-16.349,20.582
		c-4.376,0.006-7.749-1.266-10.309-3.886c-5.537-5.677-5.364-15.772-5.364-15.873c0.004-0.102-0.076-105.197-0.076-105.197h-65.39
		l0.025,35.088l3.814-0.001c7.127-0.004,12.205,1.586,14.683,4.594c2.474,2.998,1.784,6.67,1.754,6.826v73.958L283.503,263.423z
		 M128.599,305.177l43.578-0.032l-0.075-108.792l-0.034-0.261c-0.007-0.064-0.777-6.557,3.188-11.069
		c2.813-3.201,7.483-4.826,13.889-4.831c4.971-0.003,8.82,1.359,11.435,4.046c4.37,4.488,4.244,11.441,4.243,11.509
		c-0.001,0.12,0.074,85.855,0.074,85.855c-0.015,0.304-0.304,10.804,6.355,17.713c3.708,3.846,8.707,5.795,14.856,5.795
		l40.701-0.035l-0.022-34.909l-4.38,0.638c-0.064,0.008-6.33,0.873-10.253-2.527c-2.301-1.992-3.471-5.258-3.471-9.705
		l-0.056-80.855c0.023-0.493,0.506-15.809-10.174-26.936c-7.026-7.312-17.068-11.018-29.852-11.008
		c-19.146,0.019-30.692,7.455-37.222,14.171l-0.007-10.981h-64.689l0.024,36.145l4.655-1.036c0.085-0.021,8.609-1.855,13.461,2.475
		c2.452,2.191,3.774,5.769,3.774,10.668v113.965L128.599,305.177z"/>
</g>
</svg>
