<?xml version="1.0" encoding="utf-8"?>
<!-- Generator: Adobe Illustrator 16.0.4, SVG Export Plug-In . SVG Version: 6.00 Build 0)  -->
<!DOCTYPE svg PUBLIC "-//W3C//DTD SVG 1.1//EN" "http://www.w3.org/Graphics/SVG/1.1/DTD/svg11.dtd">
<svg version="1.1" id="Layer_1" xmlns="http://www.w3.org/2000/svg" xmlns:xlink="http://www.w3.org/1999/xlink" x="0px" y="0px" viewBox="13.862 39.495 584.276 713.013"
	 enable-background="new 13.862 39.495 584.276 713.013" xml:space="preserve">
<g>
	<g>
		<path d="M537.134,321.889c-52.489-30.505-104.105-23.405-143.273-5.969c-1.747-12.885-5.095-27.008-10.701-43.535
			c-8.3-24.604-17.4-48.119-25.409-68.868c-10.556-27.264-18.583-50.597-22.986-66.212l-28.553-97.81l-29.631,97.881
			c-4.548,15.541-12.338,39.02-22.84,66.322c-7.971,20.713-16.999,44.263-25.244,68.871c-5.552,16.562-8.9,30.686-10.612,43.57
			c-39.186-17.361-90.837-24.278-143.252,6.298c-42.79,25.08-65.74,68.577-59.86,113.606c5.407,40.912,33.399,73.164,73.093,84.085
			l29.557,8.084l7.243-29.774c1.037-4.005,11.703-41.28,45.282-40.624c23.259,0.435,42.644,21.04,52.291,34.361
			c-3.131,9.392-4.807,20.675-3.206,32.834l-13.123-17.546l-23.806,17.763c-21.405,15.942-52.525,55.33-33.289,101.848
			c8.39,20.312,26.39,34.142,50.725,38.948c14.869,2.983,31.797,2.329,47.448-1.167c6.15,19.801,17.418,43.755,37.837,65.157
			l21.547,22.495l21.494-22.569c20.419-21.402,31.557-45.356,37.745-65.229c15.653,3.419,32.543,4.075,47.431,1.09
			c24.28-4.878,42.264-18.782,50.632-39.094c19.112-46.592-12.121-85.902-33.523-101.848l-23.841-17.617l-13.104,17.543
			c1.565-12.156-0.146-23.443-3.277-32.834c9.611-13.396,28.904-33.995,52.198-34.507c33.634-0.728,44.335,36.474,45.464,40.77
			l7.243,29.774c0-0.217,29.485-8.443,29.485-8.443c39.751-10.921,67.632-43.247,72.947-84.233
			C603.02,390.32,580.013,346.823,537.134,321.889"/>
	</g>
	<path fill="#FFFFFF" d="M296.383,141.56c-3.622,17.035-12.941,41.316-23.752,69.382c-7.9,20.564-16.89,43.862-24.97,68.03
		c-7.754,23.224-10.921,40.55-10.921,56.675c0,5.169,0.564,10.193,1.146,15.324c-29.884-20.528-88.778-48.63-153.044-11.028
		c-35.671,20.82-54.819,56.637-50.012,93.476c4.313,32.686,26.681,58.458,58.404,67.192l9.391,2.549l2.35-9.465
		c0.601-2.329,14.724-57.147,65.375-56.132c40.749,0.873,67.394,40.479,74.602,52.635c-3.44,6.334-6.281,15.068-6.281,25.045
		c0,10.775,3.657,23.006,12.977,35.234c-3.696,5.023-9.792,11.209-16.928,11.794c-10.137,0.874-20.383-9.827-27.21-18.927
		l-5.695-7.645l-7.608,5.755c-15.579,11.574-41.224,42.804-26.717,77.896c5.805,14.049,18.256,23.368,36.001,26.862
		c18.345,3.643,41.497,0.365,57.932-7.133c3.167,18.564,12.178,49.943,38.057,76.948l6.863,7.21l6.881-7.281
		c25.808-27.008,34.741-58.458,37.872-77.022c16.491,7.498,39.641,10.704,57.988,6.99c17.728-3.568,30.14-12.813,35.892-26.862
		c14.415-35.164-11.286-66.396-26.901-77.899l-7.611-5.678l-5.678,7.573c-6.768,9.171-17.034,19.872-27.189,19.072
		c-7.1-0.582-13.211-6.771-16.963-11.794c9.245-12.231,12.923-24.388,12.923-35.092c0-10.048-2.908-18.856-6.334-25.19
		c7.172-12.231,33.708-51.907,74.474-52.78c50.633-1.168,64.905,53.579,65.448,55.908l2.404,9.537l9.391-2.62
		c31.741-8.809,54.02-34.581,58.241-67.38c4.732-36.8-14.486-72.546-50.231-93.366c-64.395-37.418-123.25-9.171-153.062,11.468
		c0.547-4.914,1.129-9.866,1.129-14.887c0-16.307-3.203-33.924-10.992-57.112c-8.152-24.135-17.181-47.395-25.099-67.923
		c-10.899-28.062-20.291-52.305-23.933-69.343l-9.355-43.681L296.383,141.56"/>
	<path d="M306.41,709.406c36.455-38.295,36.856-86.562,36.856-86.562c16.158,16.091,78.841,26.866,92.894-7.424
		c15.397-37.638-23.731-66.613-23.731-66.613c-37.965,50.814-63.41,1.02-63.41,1.02c28.903-31.233,7.207-59.332,7.207-59.332
		c1.896-5.68,33.928-61.663,85.249-62.792c59.114-1.311,74.914,63.227,74.914,63.227c62.025-17.181,74.037-103.63,5.751-143.31
		c-86.56-50.377-162.017,26.355-162.017,26.355c7.023-28.72,8.99-50.196-5.134-92.094c-19.221-56.859-42.735-107.635-49.286-138.359
		c-6.536,30.722-29.941,81.61-49.014,138.466c-14.049,41.969-11.976,63.41-4.932,92.13c0,0-75.624-76.551-162.091-25.989
		c-68.143,39.86-55.965,126.271,6.061,143.309c0,0,15.671-64.575,74.821-63.41c51.325,1.055,83.484,56.931,85.395,62.536
		c0,0-21.622,28.247,7.335,59.403c0,0-25.354,49.869-63.41-0.945c0,0-39.094,29.195-23.586,66.759
		c14.159,34.219,76.785,23.298,92.893,7.136c0,0,0.547,48.34,37.074,86.485"/>
	<path fill="#C6A876" d="M461.495,344.931c-70.437,0.071-128.258,80.08-128.258,80.08c2.495-13.066,32.67-72,5.403-142.433
		c-27.281-70.434-32.866-98.791-32.866-98.791l-0.11,0.837v-0.802c0,0-5.514,28.357-32.614,98.865
		c-27.1,70.472,3.167,129.328,5.695,142.432c0,0-57.968-79.898-128.437-79.824c-70.452,0.071-129.129,80.265-64.011,127.655
		c0,0,19.055-59.186,84.724-59.334c48.321-0.071,96.696,51.765,98.734,77.46c0,0-22.094,31.232,8.663,57.293
		c0,0-33.214,69.89-79.281,19.584c0,0-35.416,44.263,10.885,54.967c36.747,8.515,72.926-28.758,72.926-28.758
		s-3.949,58.895,23.262,91.072v-0.291l0.163,0.291c27.137-32.249,23.061-91.146,23.061-91.146s36.253,37.198,72.982,28.609
		c46.301-10.847,10.772-55.035,10.772-55.035c-45.9,50.377-79.281-19.367-79.281-19.367c30.647-26.135,8.464-57.367,8.464-57.367
		c1.985-25.627,50.253-77.605,98.592-77.605c65.668,0,84.887,59.114,84.887,59.114C590.862,424.903,531.968,344.821,461.495,344.931
		"/>
</g>
</svg>
