<?xml version="1.0" encoding="utf-8"?>
<!-- Generator: Adobe Illustrator 13.0.0, SVG Export Plug-In . SVG Version: 6.00 Build 14948)  -->
<!DOCTYPE svg PUBLIC "-//W3C//DTD SVG 1.0//EN" "http://www.w3.org/TR/2001/REC-SVG-20010904/DTD/svg10.dtd">
<svg version="1.0" xmlns="http://www.w3.org/2000/svg" xmlns:xlink="http://www.w3.org/1999/xlink" x="0px" y="0px" viewBox="0 0 547.077 232.5" enable-background="new 0 0 547.077 232.5" xml:space="preserve">
<g id="Ebene_3">
	<path fill="#FFFFFF" d="M77.077,0c0,0-31.203,53.596-61.244,113.846C-31.923,196,43.577,190.5,43.577,190.5s269.447,0,362,0
		s58,42,58,42s77.5-19.5,83.5-109.5c-2.5-61-80.5-71-128.5-77.5c-23.5-29-72-27-72-27s-202.5-0.5-229.5-0.5S77.077,0,77.077,0z"/>
</g>
<g id="Ebene_2">
	<path fill="#3C5179" d="M26.577,112c-48.5,76.5,20,70,20,70h163c-9.5-18-2.501-14.003,8.5-40.5c0,0-24.5-29.5-54-29.5
		S26.577,112,26.577,112z"/>
	<path fill="#03182F" d="M78.577,14l-44,83c0,0,67.035,0,122,0c54,0,50.5-46.562,130.497-46.562
		C330.545,53.968,367.577,89,400.577,79.5c-33.5,21.5-66.5-20-120.5-20c-37.5,0-79.5,43.5-79.5,43.5l38.5,31.5c-43,53,0,48.5,0,48.5
		s33.84,0,156.5,0s75.5,43.5,75.5,43.5s56-30.5,64.5-100.5c0-63.5-120-70.5-120-70.5s-19-29-82-29s-192.5,0-222,0
		S78.577,14,78.577,14z"/>
	<path fill="#FFFFFF" d="M245.077,173c0,0,21-42,54-42s23,0,60.5,0c44,0,28.025-49.888,72.5-59c-33.653,27.609,122-3,59,106.5
		c0,0-69.5-39-163-39c-50,0-65,33.5-65,33.5H245.077z"/>
	<path fill="#FFFFFF" d="M282.577,173c0,0,8.5-25,54.5-25c91.489,5.999,148,38,148,38s-56-25.5-148-29.5
		c-32.5,0-40.5,16.5-40.5,16.5H282.577z"/>
	<path fill="#FFFFFF" d="M246.077,96c25.75,25.75,45,24,45,24s27,0,56.5,0s37.5-21.5,37.5-21.5h-16c0,0-10,14.5-29.5,14.5
		s-19.5,0-19.5,0s-33.5,0-33.5-15.5c2.599-12.901,9.5-22,9.5-22S274.577,72,246.077,96z"/>
	<path fill="#4EAE17" d="M315.077,79.5c0,0-20.25,23.5,18.75,23.5c0,0,5.25,0,10.75,0s10.5-7,10.5-7l-4.75-4.75c0,0-4.75,8-8,8
		s6.25,0-5.25,0c-16.25,0-11-15.75-11-15.75L315.077,79.5z"/>
</g>
</svg>
