<?xml version="1.0" encoding="utf-8"?>
<!-- Generator: Adobe Illustrator 16.0.4, SVG Export Plug-In . SVG Version: 6.00 Build 0)  -->
<!DOCTYPE svg PUBLIC "-//W3C//DTD SVG 1.1//EN" "http://www.w3.org/Graphics/SVG/1.1/DTD/svg11.dtd">
<svg version="1.1" id="Layer_1" xmlns="http://www.w3.org/2000/svg" xmlns:xlink="http://www.w3.org/1999/xlink" x="0px" y="0px" viewBox="43.25 60.251 553.901 557.918"
	 enable-background="new 43.25 60.251 553.901 557.918" xml:space="preserve">
<g>
	<path fill="#8A8D8F" d="M413.621,447.113l62.055,158.993h121.476L428.238,183.834L320.229,382.189l-90.398-167.615l-11.664-21.641
		l-5.628-10.47l-7.543,18.887l-11.737,29.333c-13.488,10.166-24.951,19.959-35.146,29.726
		c-46.393,44.493-50.583,77.562-38.207,100.807c1.882,3.173,4.102,6.218,6.584,9.133c9.154,10.716,21.856,19.508,33.913,25.258
		c0.305,0.137,0.585,0.277,0.898,0.399c0.64,0.313,1.3,0.612,1.949,0.898c0.819,0.356,2.381,1.032,3.462,1.495
		c0.509,0.217,0.941,0.39,1.09,0.457c0.018,0,0.049,0,0.104,0.021c-1.206-0.518-2.851-1.328-4.026-1.934l-0.009,0.003v0.003
		c-0.892-0.451-1.745-0.947-2.643-1.425c-0.433-0.253-0.893-0.502-1.34-0.761c-0.082-0.055-0.17-0.107-0.274-0.149
		c-0.776-0.472-1.559-0.953-2.33-1.425c-0.566-0.362-1.13-0.728-1.687-1.099c-0.268-0.167-0.542-0.354-0.819-0.548
		c-0.356-0.247-0.749-0.484-1.09-0.725c-3.347-2.324-5.932-4.596-7.503-6.021c-0.457-0.408-1.026-0.971-1.535-1.458l59.089-150.872
		l5.107-13.034l3.676-9.376l0.027,0.012l2.692,4.991l3.658,6.773l101.492,187.812l107.854-199.579l149.9,382.926h-93.388
		l-69.114-176.897l-95.249,176.313l-95.273-176.313l-0.088,0.192l-0.819,2.129v-0.034l-68.307,174.614H62.557l76.615-195.706
		c0.237,0.058,0.497,0.088,0.743,0.128c-3.648-0.651-7.071-1.386-10.041-2.089c-0.027,0-0.055,0-0.088,0
		c0.037,0,0.064,0.018,0.073,0.033c-0.11-0.033-0.932-0.128-2.269-0.335c0,0,0,0-0.03,0L43.25,606.104h121.387l62.231-158.994
		l93.328,171.061L413.621,447.113z M135.907,374.217c-3.846-4.729-6.654-9.142-8.597-12.608c-2.455-4.407-3.524-7.291-3.524-7.291
		c-0.871-2.899-1.623-6.246-2.156-10.095c-4.477-32.612,25.979-68.008,66.099-99.665L135.907,374.217z"/>
	<path fill="#8A8D8F" d="M304.165,133.169c88.434-41.916,148.506-72.914,148.519-72.917l-22.119,8.457
		c-2.18,1.011-48.862,22.304-57.06,25.9c-48.396,21.253-113.339,50.004-140.299,63.767c-5.384,2.741-14.106,7.503-23.769,13.146
		C117.462,229.304,50.026,294.018,84.292,368.403c-39.267-45.567-4.839-112.471,36.669-158.705
		c27.725-30.935,40.841-43.722,54.98-66.689c11.091-17.986,18.214-36.873,17.59-55.879c0.722,0.335-14.8-7.501-14.8-7.501
		c1.879,6.1-2.147,43.165-26.038,75.817c-26.147,35.664-116.35,114.493-88.994,188.735c15.163,41.103,54.088,49.301,63.888,50.848
		c0.752,0.052,1.486,0.253,2.196,0.302C44.891,351.578,67.116,243.133,304.165,133.169z"/>
	<path fill="#8A8D8F" d="M229.834,214.574c42.474-27.63,86.098-49.636,107.71-60.033l-8.526-4.023
		c-37.632,18.856-67.741,35.49-92.518,50.82c-3.533,2.189-6.965,4.355-10.293,6.499L229.834,214.574z"/>
	<path fill="#2177BD" d="M236.504,201.339c24.777-15.33,54.883-31.967,92.502-50.82l-12.928-6.063l-6.114-2.89
		c-25.173,12.586-60.575,31.909-91.79,51.372l8.04,14.904C229.539,205.691,232.971,203.528,236.504,201.339z"/>
	<path fill="#2177BD" d="M166.711,398.402c-1.081-0.459-2.644-1.139-3.462-1.495c-0.646-0.286-1.307-0.584-1.949-0.898
		c-0.313-0.122-0.594-0.262-0.896-0.398c-12.056-5.753-24.755-14.545-33.913-25.258c-2.479-2.914-4.702-5.959-6.584-9.133
		c-12.374-23.245-8.186-56.314,38.207-100.807c10.196-9.77,21.659-19.561,35.146-29.726l11.737-29.333
		c-4.172,2.713-8.241,5.433-12.111,8.097C74.927,290.598,83.911,345.289,117.294,373.303c5.844,4.997,12.547,9.632,19.292,12.891
		c9.282,4.489,18.086,8.667,27.478,11.593c1.081,0.326,2.147,0.588,3.216,0.957c0.098,0.003,0.369,0.094,0.554,0.161l0.015-0.006
		C167.728,398.832,167.274,398.634,166.711,398.402z"/>
	<path fill="#F26822" d="M120.961,209.698c-41.508,46.237-75.936,113.138-36.669,158.705
		c-34.263-74.386,33.17-139.099,125.145-196.881c9.663-5.643,18.388-10.406,23.769-13.146
		c26.96-13.762,91.902-42.513,140.299-63.767c8.197-3.596,54.88-24.889,57.061-25.9c0.052-0.021,0.097-0.045,0.097-0.045
		s-98.438,37.399-118.021,45.062c-0.266,0.091,0,0-0.089,0.027c-9.303,2.281-22.453,4.623-31.842,4.261
		c-7.458-0.22-20.111-1.785-34.467-7.812c-4.306-1.818-29.424-12.178-50.58-22.079c-0.707-0.332-1.413-0.658-2.132-0.993
		c0.624,19.006-6.499,37.893-17.59,55.879C161.799,165.974,148.686,178.764,120.961,209.698z"/>
	<polygon fill="#FFD107" points="213.484,225.564 215.726,262.708 216.119,268.915 216.119,268.896 316.621,453.347 
		320.543,460.692 324.523,453.347 424.392,269.253 424.401,269.302 428.238,210.076 320.385,409.655 218.89,221.84 215.232,215.067 
		212.54,210.076 212.933,216.621 	"/>
	<polygon fill="#2177BD" points="99.656,566.521 99.646,566.529 136.818,566.521 	"/>
	<polygon fill="#2177BD" points="324.535,525 320.366,532.696 316.225,525.016 320.366,532.705 	"/>
	<polygon fill="#2177BD" points="543.571,572.985 543.775,573.477 498.025,573.477 418.475,370.044 320.385,551.525 
		222.294,370.044 142.644,573.662 96.875,573.662 97.813,571.244 96.866,573.662 62.557,593.003 155.906,593.003 224.213,418.39 
		225.032,416.297 225.117,416.103 320.394,592.415 415.64,416.103 484.754,593.003 578.136,593.003 543.775,573.477 	"/>
	<polygon fill="#2177BD" points="475.2,398.893 539.192,562.15 540.688,565.984 543.571,572.985 	"/>
	<polygon fill="#8A8D8F" points="142.644,573.662 222.294,370.044 320.385,551.525 418.475,370.044 498.025,573.477 
		543.775,573.477 543.571,572.985 540.688,565.984 540.688,565.984 503.979,565.984 419.547,349.318 324.535,525 320.366,532.705 
		316.225,525.016 221.5,349.812 136.818,566.521 99.646,566.529 97.813,571.244 96.875,573.662 	"/>
	<path fill="#F26822" d="M215.726,262.708l-2.272-37.132l-0.539-8.944l-0.399-6.572l-3.679,9.376l-5.104,13.034l-59.088,150.872
		c0.508,0.487,1.078,1.05,1.535,1.458c1.574,1.425,4.16,3.697,7.504,6.021c0.323,0.234,0.697,0.469,1.05,0.697
		c0.061,0.046,0.14,0.098,0.216,0.134c0.198,0.146,0.417,0.292,0.643,0.438c0.557,0.372,1.121,0.737,1.69,1.099
		c0.767,0.472,1.553,0.954,2.33,1.425c0.101,0.043,0.188,0.098,0.271,0.149c0.365,0.21,0.734,0.411,1.099,0.615
		c0.244,0.143,0.494,0.262,0.734,0.399c0.713,0.396,1.417,0.789,2.15,1.167l52.246-128.035L215.726,262.708z"/>
	<path fill="#F26822" d="M62.557,593.003l34.309-19.341l0.947-2.418l1.833-4.715l0.009-0.006h-0.009l0.049-0.066l63.227-167.171
		c0.019,0,0.031-0.019,0.031-0.019c-0.573,0.027-1.151,0.055-1.724,0.061c-0.457,0.013-0.893,0.013-1.349,0.013
		c-6.935-0.033-13.799-0.95-19.965-1.922c-0.247-0.039-0.506-0.07-0.743-0.128L62.557,593.003z"/>
	<polygon fill="#F26822" points="475.2,398.893 543.571,572.985 543.775,573.477 578.136,593.003 428.238,210.076 424.401,269.302 	
		"/>
	<path fill="#010101" d="M99.695,566.45l-0.049,0.07h0.009h37.165l84.682-216.712l94.725,175.208l4.142,7.678l4.169-7.696
		l95.009-175.682l84.432,216.667h36.712l0,0l-1.495-3.834l-63.992-163.255l-50.799-129.591l-0.009-0.049l-99.869,184.094
		l-3.98,7.346l-3.922-7.346l-100.505-184.45v0.019L163.873,396.95l0.009-0.003c1.175,0.605,2.82,1.416,4.026,1.934
		c-0.055-0.021-0.085-0.027-0.104-0.021c-0.149-0.063-0.579-0.24-1.09-0.457c0.563,0.234,1.014,0.433,1.139,0.494l-0.012,0.006
		h-0.003c-0.323,0-3.204,0.298-4.882,0.365c0,0-0.012,0.019-0.031,0.019L99.695,566.45z"/>
</g>
</svg>
