<?xml version="1.0" encoding="utf-8"?>
<!-- Generator: Adobe Illustrator 16.0.4, SVG Export Plug-In . SVG Version: 6.00 Build 0)  -->
<!DOCTYPE svg PUBLIC "-//W3C//DTD SVG 1.1//EN" "http://www.w3.org/Graphics/SVG/1.1/DTD/svg11.dtd">
<svg version="1.1" id="Layer_1" xmlns="http://www.w3.org/2000/svg" xmlns:xlink="http://www.w3.org/1999/xlink" x="0px" y="0px" viewBox="0 0 151.848 154.854" enable-background="new 0 0 151.848 154.854"
	 xml:space="preserve">
<g>
	<path fill-rule="evenodd" clip-rule="evenodd" fill="#165C80" d="M76.01,145.484c36.677,0,66.637-30.458,66.637-68.144
		c0-37.685-29.96-68.144-66.637-68.144c-36.848,0-66.809,30.458-66.809,68.144C9.201,115.026,39.162,145.484,76.01,145.484
		L76.01,145.484z"/>
	<polygon fill-rule="evenodd" clip-rule="evenodd" fill="#FFFFFF" points="101.666,115.887 102.699,117.607 100.289,119.156 
		102.183,122.426 104.594,121.05 105.626,122.771 103.043,124.147 105.799,128.794 108.209,127.416 109.243,129.138 104.594,131.89 
		97.018,118.641 101.666,115.887 	"/>
	<path fill-rule="evenodd" clip-rule="evenodd" fill="#FFFFFF" d="M45.877,112.274l-9.298,12.217l-1.722-1.894l1.895-2.581
		l-1.55-1.549l-2.41,2.065l-1.722-1.893l11.709-9.465L45.877,112.274L45.877,112.274z M36.751,117.092l1.377,1.376l4.305-5.506
		l-0.344-0.172L36.751,117.092L36.751,117.092z"/>
	<path fill-rule="evenodd" clip-rule="evenodd" fill="#FFFFFF" d="M123.879,92.657l-0.861,2.408l-2.066-0.861
		c-0.345-0.171-0.517-0.171-0.688,0c0,0-0.518,1.378-0.518,1.55s0.171,0.345,0.518,0.516l2.065,0.86
		c0.517,0.172,0.688,0.172,1.205-0.171l1.723-2.065c0.86-0.689,1.721-1.032,2.582-0.689l2.927,1.205
		c2.238,1.033,2.583,1.377,1.723,3.786c0,0-0.517,1.377-0.517,1.55c-1.034,2.408-1.55,2.58-3.788,1.547l-2.239-0.86l1.033-2.408
		l2.411,1.032c0.345,0.172,0.688,0.172,0.688-0.172c0.173,0,0.517-1.377,0.517-1.55c0-0.171-0.172-0.171-0.517-0.344l-2.927-1.204
		c-0.345-0.172-1.033,1.032-1.55,1.548l-1.378,1.206c-0.861,0.688-1.723,0.516-2.583,0.172l-2.066-0.861
		c-2.237-1.032-2.583-1.549-1.549-3.957c0,0,0.517-1.377,0.517-1.549c0.86-2.237,1.549-2.237,3.788-1.377L123.879,92.657
		L123.879,92.657z"/>
	<polygon fill-rule="evenodd" clip-rule="evenodd" fill="#FFFFFF" points="71.877,123.803 70.156,138.946 67.572,138.602 
		69.294,123.458 71.877,123.803 	"/>
	<polygon fill-rule="evenodd" clip-rule="evenodd" fill="#FFFFFF" points="33.997,95.238 28.314,100.056 28.314,100.228 
		35.374,98.507 36.751,101.604 23.32,107.972 22.288,105.906 30.38,102.121 30.208,101.776 21.599,104.014 20.91,102.809 
		28.142,97.302 28.142,97.13 20.221,100.916 19.188,98.851 32.619,92.484 33.997,95.238 	"/>
	<path fill-rule="evenodd" clip-rule="evenodd" fill="#FFFFFF" d="M57.93,120.189c2.238,1.033,2.238,1.894,1.378,4.13l-0.861,1.72
		c-0.517,1.205-1.033,1.894-2.065,1.894c0.688,0.688,0.516,1.549,0,2.581l-2.066,4.818l-2.411-1.205l2.411-4.989
		c0.172-0.344,0.172-0.517,0-0.688c0-0.172-1.55-0.86-1.722-1.033l-2.583,5.851l-2.411-1.204l6.371-13.768L57.93,120.189
		L57.93,120.189z M53.454,125.352c0.172,0.171,1.55,0.86,1.722,0.86c0.344,0,0.516-0.173,0.688-0.516l1.206-2.755
		c0.172-0.516,0.345-0.688,0-0.858c-0.172-0.174-1.55-0.86-1.722-0.86L53.454,125.352L53.454,125.352z"/>
	<polygon fill-rule="evenodd" clip-rule="evenodd" fill="#FFFFFF" points="83.758,123.114 87.547,130.169 86.169,122.598 
		88.236,122.254 91.163,137.226 88.925,137.569 85.136,130.514 86.686,138.086 84.447,138.602 81.521,123.631 83.758,123.114 	"/>
	<path fill-rule="evenodd" clip-rule="evenodd" fill="#FFFFFF" d="M110.619,107.455c1.551-1.894,2.584-2.064,4.306-0.344
		l1.378,1.204c1.033,0.86,1.549,1.549,1.204,2.581c1.034-0.517,1.55-0.172,2.583,0.688l3.789,3.441l-1.723,1.894l-4.132-3.614
		c-0.173-0.344-0.345-0.344-0.518-0.344c-0.171,0.172-1.204,1.204-1.377,1.376l4.649,4.13l-1.55,2.065l-11.364-9.98L110.619,107.455
		L110.619,107.455z M114.409,112.962c0.171-0.172,1.205-1.377,1.205-1.377c0.171-0.344,0-0.517-0.346-0.86l-2.065-1.893
		c-0.517-0.344-0.689-0.517-1.033-0.344c0,0.171-1.034,1.204-1.205,1.376L114.409,112.962L114.409,112.962z"/>
	<polygon fill-rule="evenodd" clip-rule="evenodd" fill="#FFFFFF" points="79.627,15.909 79.627,17.973 77.56,17.973 77.56,31.224 
		74.978,31.224 75.149,17.973 73.083,17.973 73.083,15.909 79.627,15.909 	"/>
	<path fill-rule="evenodd" clip-rule="evenodd" fill="#FFFFFF" d="M26.937,50.497l-1.034,2.41l-2.066-0.861
		c-0.344-0.172-0.517-0.172-0.688-0.172c0,0.172-0.517,1.376-0.517,1.376c-0.172,0.344,0,0.516,0.345,0.688l2.238,1.033
		c0.344,0.172,0.688-0.172,1.205-0.517l1.722-2.064c1.034-0.688,1.722-0.516,2.584-0.172l2.927,1.376
		c2.238,1.033,2.583,1.549,1.549,3.786c0,0-0.516,1.377-0.688,1.377c-1.033,2.41-1.55,2.581-3.787,1.549l-2.584-1.033l1.206-2.408
		l2.754,1.204c0.344,0.172,0.517,0.172,0.689-0.172l0.516-1.376c0-0.172-0.171-0.344-0.516-0.344l-2.755-1.377
		c-0.516-0.172-1.033,0.688-1.55,1.033l-1.549,1.033c-0.862,0.688-1.722,0.859-2.756,0.515l-1.893-0.86
		c-2.239-1.033-2.583-1.721-1.55-4.13c0.172,0,0.688-1.377,0.688-1.377c1.034-2.236,1.55-2.236,3.789-1.204L26.937,50.497
		L26.937,50.497z"/>
	<polygon fill-rule="evenodd" clip-rule="evenodd" fill="#FFFFFF" points="36.751,30.708 38.128,32.084 36.063,34.149 
		38.646,36.902 40.712,35.01 42.089,36.386 40.022,38.451 43.639,42.237 45.705,40.172 47.083,41.721 43.123,45.506 32.791,34.493 
		36.751,30.708 	"/>
	<path fill-rule="evenodd" clip-rule="evenodd" fill="#FFFFFF" d="M56.381,19.178l7.232,13.422l-2.239,1.032l-1.55-2.925
		l-2.066,0.86l0.861,3.097l-2.411,1.033l-3.788-14.971L56.381,19.178L56.381,19.178z M57.242,29.675l1.55-0.688l-3.101-6.195
		l-0.344,0.172L57.242,29.675L57.242,29.675z"/>
	<polygon fill-rule="evenodd" clip-rule="evenodd" fill="#FFFFFF" points="101.149,21.415 100.462,23.308 98.739,22.62 
		93.918,34.837 91.508,33.977 96.328,21.588 94.435,20.898 95.123,19.006 101.149,21.415 	"/>
	<polygon fill-rule="evenodd" clip-rule="evenodd" fill="#FFFFFF" points="117.336,32.429 108.553,42.409 110.619,44.302 
		109.415,45.85 105.455,42.064 115.441,30.708 117.336,32.429 	"/>
	<polygon fill-rule="evenodd" clip-rule="evenodd" fill="#FFFFFF" points="131.627,53.077 129.905,53.938 128.527,51.357 
		125.084,53.077 126.461,55.659 124.739,56.692 123.361,54.11 118.713,56.52 120.09,59.101 118.196,59.961 115.785,54.971 
		129.216,48.26 131.627,53.077 	"/>
	<path fill-rule="evenodd" clip-rule="evenodd" fill="#FFFFFF" d="M76.01,117.952c21.869,0,39.604-18.068,39.604-40.611
		c0-22.37-17.735-40.61-39.604-40.61c-22.04,0-39.775,18.24-39.775,40.61C36.235,99.884,53.97,117.952,76.01,117.952L76.01,117.952z
		"/>
	<path fill="none" stroke="#178370" stroke-width="2.6436" stroke-miterlimit="2.6131" d="M76.01,117.952
		c21.869,0,39.604-18.068,39.604-40.611c0-22.37-17.735-40.61-39.604-40.61c-22.04,0-39.775,18.24-39.775,40.61
		C36.235,99.884,53.97,117.952,76.01,117.952L76.01,117.952z"/>
	<path fill-rule="evenodd" clip-rule="evenodd" fill="#C5D5D9" d="M57.069,64.436c-1.55-3.614-6.715-16.692-6.543-16.864
		c0,0,13.087,7.055,15.669,8.776C63.096,57.208,57.758,62.542,57.069,64.436L57.069,64.436z"/>
	<path fill-rule="evenodd" clip-rule="evenodd" fill="#178370" d="M60.858,59.789c-1.722,1.893-3.444,3.786-3.789,4.646
		c-1.55-3.614-6.715-16.692-6.543-16.864L60.858,59.789L60.858,59.789z"/>
	<path fill-rule="evenodd" clip-rule="evenodd" fill="#C5D5D9" d="M94.778,64.607c1.55-3.786,6.715-16.864,6.544-16.864
		c0,0-13.086,7.055-15.67,8.776C88.752,57.208,94.091,62.542,94.778,64.607L94.778,64.607z"/>
	<path fill-rule="evenodd" clip-rule="evenodd" fill="#178370" d="M90.817,59.617c-1.893-1.549-3.959-2.925-4.992-3.098
		c3.271-2.065,15.497-8.948,15.497-8.948L90.817,59.617L90.817,59.617z"/>
	<path fill-rule="evenodd" clip-rule="evenodd" fill="#C5D5D9" d="M57.069,90.075c-1.55,3.613-6.715,16.863-6.543,17.036
		c0,0,13.087-7.228,15.669-8.948C63.096,97.302,57.758,91.968,57.069,90.075L57.069,90.075z"/>
	<path fill-rule="evenodd" clip-rule="evenodd" fill="#178370" d="M61.03,94.894c2.065,1.721,4.132,3.097,5.166,3.27
		c-3.444,2.064-15.669,8.948-15.841,8.775L61.03,94.894L61.03,94.894z"/>
	<path fill-rule="evenodd" clip-rule="evenodd" fill="#C5D5D9" d="M94.951,90.075c1.55,3.613,6.371,17.036,6.198,17.208
		c0,0-12.568-7.399-15.152-9.12C88.925,97.302,94.262,91.968,94.951,90.075L94.951,90.075z"/>
	<path fill-rule="evenodd" clip-rule="evenodd" fill="#178370" d="M91.163,94.721c1.894-1.72,3.443-3.613,3.788-4.646
		c1.55,3.613,6.371,17.036,6.198,17.208L91.163,94.721L91.163,94.721z"/>
	<polygon fill-rule="evenodd" clip-rule="evenodd" fill="#EB2D40" points="61.03,61.337 60.685,61.166 58.964,61.682 59.308,62.026 
		61.03,61.337 	"/>
	<polygon fill="none" stroke="#EB2D40" stroke-width="0.265" stroke-miterlimit="2.6131" points="61.03,61.337 60.685,61.166 
		58.964,61.682 59.308,62.026 61.03,61.337 	"/>
	<polygon fill-rule="evenodd" clip-rule="evenodd" fill="#EB2D40" points="61.546,59.961 61.891,60.133 61.375,61.682 61.03,61.337 
		61.546,59.961 	"/>
	<polygon fill="none" stroke="#EB2D40" stroke-width="0.265" stroke-miterlimit="2.6131" points="61.546,59.961 61.891,60.133 
		61.375,61.682 61.03,61.337 61.546,59.961 	"/>
	<polygon fill-rule="evenodd" clip-rule="evenodd" fill="#EB2D40" points="62.579,62.542 62.063,62.198 60.341,62.714 
		60.685,63.059 62.579,62.542 	"/>
	<polygon fill="none" stroke="#EB2D40" stroke-width="0.265" stroke-miterlimit="2.6131" points="62.579,62.542 62.063,62.198 
		60.341,62.714 60.685,63.059 62.579,62.542 	"/>
	<polygon fill-rule="evenodd" clip-rule="evenodd" fill="#EB2D40" points="62.924,60.993 63.441,61.166 62.924,62.714 
		62.579,62.542 62.924,60.993 	"/>
	<polygon fill="none" stroke="#EB2D40" stroke-width="0.265" stroke-miterlimit="2.6131" points="62.924,60.993 63.441,61.166 
		62.924,62.714 62.579,62.542 62.924,60.993 	"/>
	<polygon fill-rule="evenodd" clip-rule="evenodd" fill="#EB2D40" points="64.301,63.575 63.785,63.23 62.063,63.919 62.579,64.091 
		64.301,63.575 	"/>
	<polygon fill="none" stroke="#EB2D40" stroke-width="0.265" stroke-miterlimit="2.6131" points="64.301,63.575 63.785,63.23 
		62.063,63.919 62.579,64.091 64.301,63.575 	"/>
	<polygon fill-rule="evenodd" clip-rule="evenodd" fill="#EB2D40" points="64.646,62.026 65.162,62.198 64.818,63.747 
		64.301,63.575 64.646,62.026 	"/>
	<polygon fill="none" stroke="#EB2D40" stroke-width="0.265" stroke-miterlimit="2.6131" points="64.646,62.026 65.162,62.198 
		64.818,63.747 64.301,63.575 64.646,62.026 	"/>
	<polygon fill-rule="evenodd" clip-rule="evenodd" fill="#EB2D40" points="66.368,64.436 65.851,64.263 64.129,64.952 
		64.646,65.295 66.368,64.436 	"/>
	<polygon fill="none" stroke="#EB2D40" stroke-width="0.265" stroke-miterlimit="2.6131" points="66.368,64.436 65.851,64.263 
		64.129,64.952 64.646,65.295 66.368,64.436 	"/>
	<polygon fill-rule="evenodd" clip-rule="evenodd" fill="#EB2D40" points="66.54,62.886 67.056,63.059 66.884,64.78 66.368,64.436 
		66.54,62.886 	"/>
	<polygon fill="none" stroke="#EB2D40" stroke-width="0.265" stroke-miterlimit="2.6131" points="66.54,62.886 67.056,63.059 
		66.884,64.78 66.368,64.436 66.54,62.886 	"/>
	<polygon fill-rule="evenodd" clip-rule="evenodd" fill="#EB2D40" points="68.434,65.295 67.746,65.123 66.196,65.984 
		66.884,66.156 68.434,65.295 	"/>
	<polygon fill="none" stroke="#EB2D40" stroke-width="0.265" stroke-miterlimit="2.6131" points="68.434,65.295 67.746,65.123 
		66.196,65.984 66.884,66.156 68.434,65.295 	"/>
	<polygon fill-rule="evenodd" clip-rule="evenodd" fill="#EB2D40" points="68.262,63.575 68.778,63.747 68.95,65.467 68.434,65.295 
		68.262,63.575 	"/>
	<polygon fill="none" stroke="#EB2D40" stroke-width="0.265" stroke-miterlimit="2.6131" points="68.262,63.575 68.778,63.747 
		68.95,65.467 68.434,65.295 68.262,63.575 	"/>
	<polygon fill-rule="evenodd" clip-rule="evenodd" fill="#EB2D40" points="70.845,65.812 70.328,65.812 68.778,66.672 
		69.467,66.844 70.845,65.812 	"/>
	<polygon fill="none" stroke="#EB2D40" stroke-width="0.265" stroke-miterlimit="2.6131" points="70.845,65.812 70.328,65.812 
		68.778,66.672 69.467,66.844 70.845,65.812 	"/>
	<polygon fill-rule="evenodd" clip-rule="evenodd" fill="#EB2D40" points="70.5,64.263 71.189,64.436 71.533,65.984 71.017,65.812 
		70.5,64.263 	"/>
	<polygon fill="none" stroke="#EB2D40" stroke-width="0.265" stroke-miterlimit="2.6131" points="70.5,64.263 71.189,64.436 
		71.533,65.984 71.017,65.812 70.5,64.263 	"/>
	<polygon fill-rule="evenodd" clip-rule="evenodd" fill="#EB2D40" points="73.255,66.156 72.567,66.156 71.361,67.36 72.05,67.36 
		73.255,66.156 	"/>
	<polygon fill="none" stroke="#EB2D40" stroke-width="0.265" stroke-miterlimit="2.6131" points="73.255,66.156 72.567,66.156 
		71.361,67.36 72.05,67.36 73.255,66.156 	"/>
	<polygon fill-rule="evenodd" clip-rule="evenodd" fill="#EB2D40" points="72.394,64.607 73.083,64.78 73.771,66.156 73.255,66.156 
		72.394,64.607 	"/>
	<polygon fill="none" stroke="#EB2D40" stroke-width="0.265" stroke-miterlimit="2.6131" points="72.394,64.607 73.083,64.78 
		73.771,66.156 73.255,66.156 72.394,64.607 	"/>
	<polygon fill-rule="evenodd" clip-rule="evenodd" fill="#EB2D40" points="75.494,66.328 74.805,66.328 73.771,67.533 
		74.461,67.533 75.494,66.328 	"/>
	<polygon fill="none" stroke="#EB2D40" stroke-width="0.265" stroke-miterlimit="2.6131" points="75.494,66.328 74.805,66.328 
		73.771,67.533 74.461,67.533 75.494,66.328 	"/>
	<polygon fill-rule="evenodd" clip-rule="evenodd" fill="#EB2D40" points="74.632,64.952 75.322,64.952 76.183,66.328 
		75.494,66.328 74.632,64.952 	"/>
	<polygon fill="none" stroke="#EB2D40" stroke-width="0.265" stroke-miterlimit="2.6131" points="74.632,64.952 75.322,64.952 
		76.183,66.328 75.494,66.328 74.632,64.952 	"/>
	<polygon fill-rule="evenodd" clip-rule="evenodd" fill="#EB2D40" points="77.904,66.328 77.216,66.328 76.526,67.705 
		77.216,67.533 77.904,66.328 	"/>
	<polygon fill="none" stroke="#EB2D40" stroke-width="0.265" stroke-miterlimit="2.6131" points="77.904,66.328 77.216,66.328 
		76.526,67.705 77.216,67.533 77.904,66.328 	"/>
	<polygon fill-rule="evenodd" clip-rule="evenodd" fill="#EB2D40" points="76.871,64.952 77.388,64.952 78.593,66.328 
		77.904,66.328 76.871,64.952 	"/>
	<polygon fill="none" stroke="#EB2D40" stroke-width="0.265" stroke-miterlimit="2.6131" points="76.871,64.952 77.388,64.952 
		78.593,66.328 77.904,66.328 76.871,64.952 	"/>
	<polygon fill-rule="evenodd" clip-rule="evenodd" fill="#EB2D40" points="80.658,65.984 79.971,65.984 79.454,67.36 79.971,67.36 
		80.658,65.984 	"/>
	<polygon fill="none" stroke="#EB2D40" stroke-width="0.265" stroke-miterlimit="2.6131" points="80.658,65.984 79.971,65.984 
		79.454,67.36 79.971,67.36 80.658,65.984 	"/>
	<polygon fill-rule="evenodd" clip-rule="evenodd" fill="#EB2D40" points="79.454,64.607 79.971,64.607 81.175,65.812 
		80.658,65.984 79.454,64.607 	"/>
	<polygon fill="none" stroke="#EB2D40" stroke-width="0.265" stroke-miterlimit="2.6131" points="79.454,64.607 79.971,64.607 
		81.175,65.812 80.658,65.984 79.454,64.607 	"/>
	<polygon fill-rule="evenodd" clip-rule="evenodd" fill="#EB2D40" points="82.897,65.467 82.209,65.639 82.037,67.017 
		82.726,66.844 82.897,65.467 	"/>
	<polygon fill="none" stroke="#EB2D40" stroke-width="0.265" stroke-miterlimit="2.6131" points="82.897,65.467 82.209,65.639 
		82.037,67.017 82.726,66.844 82.897,65.467 	"/>
	<polygon fill-rule="evenodd" clip-rule="evenodd" fill="#EB2D40" points="81.521,64.263 82.037,64.091 83.587,65.295 
		82.897,65.467 81.521,64.263 	"/>
	<polygon fill="none" stroke="#EB2D40" stroke-width="0.265" stroke-miterlimit="2.6131" points="81.521,64.263 82.037,64.091 
		83.587,65.295 82.897,65.467 81.521,64.263 	"/>
	<polygon fill-rule="evenodd" clip-rule="evenodd" fill="#EB2D40" points="85.308,64.607 84.792,64.78 84.447,66.156 85.136,65.984 
		85.308,64.607 	"/>
	<polygon fill="none" stroke="#EB2D40" stroke-width="0.265" stroke-miterlimit="2.6131" points="85.308,64.607 84.792,64.78 
		84.447,66.156 85.136,65.984 85.308,64.607 	"/>
	<polygon fill-rule="evenodd" clip-rule="evenodd" fill="#EB2D40" points="83.758,63.575 84.275,63.403 85.825,64.436 
		85.308,64.607 83.758,63.575 	"/>
	<polygon fill="none" stroke="#EB2D40" stroke-width="0.265" stroke-miterlimit="2.6131" points="83.758,63.575 84.275,63.403 
		85.825,64.436 85.308,64.607 83.758,63.575 	"/>
	<polygon fill-rule="evenodd" clip-rule="evenodd" fill="#EB2D40" points="87.03,63.747 86.515,64.091 86.515,65.467 87.03,65.123 
		87.03,63.747 	"/>
	<polygon fill="none" stroke="#EB2D40" stroke-width="0.265" stroke-miterlimit="2.6131" points="87.03,63.747 86.515,64.091 
		86.515,65.467 87.03,65.123 87.03,63.747 	"/>
	<polygon fill-rule="evenodd" clip-rule="evenodd" fill="#EB2D40" points="85.48,62.886 85.825,62.542 87.547,63.575 87.03,63.747 
		85.48,62.886 	"/>
	<polygon fill="none" stroke="#EB2D40" stroke-width="0.265" stroke-miterlimit="2.6131" points="85.48,62.886 85.825,62.542 
		87.547,63.575 87.03,63.747 85.48,62.886 	"/>
	<polygon fill-rule="evenodd" clip-rule="evenodd" fill="#EB2D40" points="88.752,62.886 88.236,63.23 88.407,64.607 88.752,64.263 
		88.752,62.886 	"/>
	<polygon fill="none" stroke="#EB2D40" stroke-width="0.265" stroke-miterlimit="2.6131" points="88.752,62.886 88.236,63.23 
		88.407,64.607 88.752,64.263 88.752,62.886 	"/>
	<polygon fill-rule="evenodd" clip-rule="evenodd" fill="#EB2D40" points="87.03,62.026 87.547,61.854 89.097,62.714 88.752,62.886 
		87.03,62.026 	"/>
	<polygon fill="none" stroke="#EB2D40" stroke-width="0.265" stroke-miterlimit="2.6131" points="87.03,62.026 87.547,61.854 
		89.097,62.714 88.752,62.886 87.03,62.026 	"/>
	<polygon fill-rule="evenodd" clip-rule="evenodd" fill="#EB2D40" points="90.129,61.854 89.785,62.198 90.302,63.403 
		90.646,63.059 90.129,61.854 	"/>
	<polygon fill="none" stroke="#EB2D40" stroke-width="0.265" stroke-miterlimit="2.6131" points="90.129,61.854 89.785,62.198 
		90.302,63.403 90.646,63.059 90.129,61.854 	"/>
	<polygon fill-rule="evenodd" clip-rule="evenodd" fill="#EB2D40" points="88.581,61.166 88.925,60.822 90.646,61.51 90.302,61.854 
		88.581,61.166 	"/>
	<polygon fill="none" stroke="#EB2D40" stroke-width="0.265" stroke-miterlimit="2.6131" points="88.581,61.166 88.925,60.822 
		90.646,61.509 90.302,61.854 88.581,61.166 	"/>
	<polygon fill-rule="evenodd" clip-rule="evenodd" fill="#EB2D40" points="91.679,60.65 91.163,60.993 91.679,62.198 92.023,61.854 
		91.679,60.65 	"/>
	<polygon fill="none" stroke="#EB2D40" stroke-width="0.265" stroke-miterlimit="2.6131" points="91.679,60.65 91.163,60.993 
		91.679,62.198 92.023,61.854 91.679,60.65 	"/>
	<polygon fill-rule="evenodd" clip-rule="evenodd" fill="#EB2D40" points="89.957,59.961 90.302,59.617 90.991,59.961 
		91.508,60.478 91.679,60.65 89.957,59.961 	"/>
	<polygon fill="none" stroke="#EB2D40" stroke-width="0.265" stroke-miterlimit="2.6131" points="89.957,59.961 90.302,59.617 
		90.991,59.961 91.508,60.478 91.679,60.65 89.957,59.961 	"/>
	<polygon fill-rule="evenodd" clip-rule="evenodd" fill="#EB2D40" points="90.991,93.345 91.335,93.688 93.057,93.173 
		92.712,92.828 90.991,93.345 	"/>
	<polygon fill="none" stroke="#EB2D40" stroke-width="0.265" stroke-miterlimit="2.6131" points="90.991,93.345 91.335,93.688 
		93.057,93.173 92.712,92.828 90.991,93.345 	"/>
	<polygon fill-rule="evenodd" clip-rule="evenodd" fill="#EB2D40" points="90.474,94.894 90.129,94.549 90.646,93.001 
		90.991,93.345 90.474,94.894 	"/>
	<polygon fill="none" stroke="#EB2D40" stroke-width="0.265" stroke-miterlimit="2.6131" points="90.474,94.894 90.129,94.549 
		90.646,93.001 90.991,93.345 90.474,94.894 	"/>
	<polygon fill-rule="evenodd" clip-rule="evenodd" fill="#EB2D40" points="89.441,92.312 89.957,92.484 91.679,91.968 
		91.335,91.796 89.441,92.312 	"/>
	<polygon fill="none" stroke="#EB2D40" stroke-width="0.265" stroke-miterlimit="2.6131" points="89.441,92.312 89.957,92.484 
		91.679,91.968 91.335,91.796 89.441,92.312 	"/>
	<polygon fill-rule="evenodd" clip-rule="evenodd" fill="#EB2D40" points="89.097,93.861 88.581,93.517 89.097,91.968 
		89.441,92.312 89.097,93.861 	"/>
	<polygon fill="none" stroke="#EB2D40" stroke-width="0.265" stroke-miterlimit="2.6131" points="89.097,93.861 88.581,93.517 
		89.097,91.968 89.441,92.312 89.097,93.861 	"/>
	<polygon fill-rule="evenodd" clip-rule="evenodd" fill="#EB2D40" points="87.719,91.279 88.236,91.452 89.957,90.763 
		89.441,90.592 87.719,91.279 	"/>
	<polygon fill="none" stroke="#EB2D40" stroke-width="0.265" stroke-miterlimit="2.6131" points="87.719,91.279 88.236,91.452 
		89.957,90.763 89.441,90.592 87.719,91.279 	"/>
	<polygon fill-rule="evenodd" clip-rule="evenodd" fill="#EB2D40" points="87.375,92.828 86.858,92.657 87.202,90.936 
		87.719,91.279 87.375,92.828 	"/>
	<polygon fill="none" stroke="#EB2D40" stroke-width="0.265" stroke-miterlimit="2.6131" points="87.375,92.828 86.858,92.657 
		87.202,90.936 87.719,91.279 87.375,92.828 	"/>
	<polygon fill-rule="evenodd" clip-rule="evenodd" fill="#EB2D40" points="85.652,90.246 86.169,90.419 87.891,89.73 87.375,89.559 
		85.652,90.246 	"/>
	<polygon fill="none" stroke="#EB2D40" stroke-width="0.265" stroke-miterlimit="2.6131" points="85.652,90.246 86.169,90.419 
		87.891,89.73 87.375,89.559 85.652,90.246 	"/>
	<polygon fill-rule="evenodd" clip-rule="evenodd" fill="#EB2D40" points="85.48,91.796 84.964,91.624 85.136,90.075 85.652,90.246 
		85.48,91.796 	"/>
	<polygon fill="none" stroke="#EB2D40" stroke-width="0.265" stroke-miterlimit="2.6131" points="85.48,91.796 84.964,91.624 
		85.136,90.075 85.652,90.246 85.48,91.796 	"/>
	<polygon fill-rule="evenodd" clip-rule="evenodd" fill="#EB2D40" points="83.587,89.559 84.275,89.73 85.825,88.698 85.136,88.527 
		83.587,89.559 	"/>
	<polygon fill="none" stroke="#EB2D40" stroke-width="0.265" stroke-miterlimit="2.6131" points="83.587,89.559 84.275,89.73 
		85.825,88.698 85.136,88.527 83.587,89.559 	"/>
	<polygon fill-rule="evenodd" clip-rule="evenodd" fill="#EB2D40" points="83.758,91.107 83.241,90.936 83.069,89.388 
		83.587,89.559 83.758,91.107 	"/>
	<polygon fill="none" stroke="#EB2D40" stroke-width="0.265" stroke-miterlimit="2.6131" points="83.758,91.107 83.241,90.936 
		83.069,89.388 83.587,89.559 83.758,91.107 	"/>
	<polygon fill-rule="evenodd" clip-rule="evenodd" fill="#EB2D40" points="81.175,88.871 81.691,89.042 83.241,88.011 
		82.554,87.838 81.175,88.871 	"/>
	<polygon fill="none" stroke="#EB2D40" stroke-width="0.265" stroke-miterlimit="2.6131" points="81.175,88.871 81.691,89.042 
		83.241,88.011 82.554,87.838 81.175,88.871 	"/>
	<polygon fill-rule="evenodd" clip-rule="evenodd" fill="#EB2D40" points="81.521,90.419 80.831,90.419 80.487,88.698 
		81.004,88.871 81.521,90.419 	"/>
	<polygon fill="none" stroke="#EB2D40" stroke-width="0.265" stroke-miterlimit="2.6131" points="81.521,90.419 80.831,90.419 
		80.487,88.698 81.004,88.871 81.521,90.419 	"/>
	<polygon fill-rule="evenodd" clip-rule="evenodd" fill="#EB2D40" points="78.765,88.527 79.454,88.527 80.487,87.321 
		79.971,87.321 78.765,88.527 	"/>
	<polygon fill="none" stroke="#EB2D40" stroke-width="0.265" stroke-miterlimit="2.6131" points="78.765,88.527 79.454,88.527 
		80.487,87.321 79.971,87.321 78.765,88.527 	"/>
	<polygon fill-rule="evenodd" clip-rule="evenodd" fill="#EB2D40" points="79.627,90.075 78.938,90.075 78.249,88.527 
		78.765,88.527 79.627,90.075 	"/>
	<polygon fill="none" stroke="#EB2D40" stroke-width="0.265" stroke-miterlimit="2.6131" points="79.627,90.075 78.938,90.075 
		78.249,88.527 78.765,88.527 79.627,90.075 	"/>
	<polygon fill-rule="evenodd" clip-rule="evenodd" fill="#EB2D40" points="76.526,88.354 77.216,88.354 78.249,87.15 77.56,87.15 
		76.526,88.354 	"/>
	<polygon fill="none" stroke="#EB2D40" stroke-width="0.265" stroke-miterlimit="2.6131" points="76.526,88.354 77.216,88.354 
		78.249,87.15 77.56,87.15 76.526,88.354 	"/>
	<polygon fill-rule="evenodd" clip-rule="evenodd" fill="#EB2D40" points="77.388,89.902 76.699,89.902 75.838,88.354 
		76.526,88.354 77.388,89.902 	"/>
	<polygon fill="none" stroke="#EB2D40" stroke-width="0.265" stroke-miterlimit="2.6131" points="77.388,89.902 76.699,89.902 
		75.838,88.354 76.526,88.354 77.388,89.902 	"/>
	<polygon fill-rule="evenodd" clip-rule="evenodd" fill="#EB2D40" points="74.116,88.527 74.805,88.354 75.494,87.15 74.805,87.15 
		74.116,88.527 	"/>
	<polygon fill="none" stroke="#EB2D40" stroke-width="0.265" stroke-miterlimit="2.6131" points="74.116,88.527 74.805,88.354 
		75.494,87.15 74.805,87.15 74.116,88.527 	"/>
	<polygon fill-rule="evenodd" clip-rule="evenodd" fill="#EB2D40" points="75.149,89.73 74.632,89.902 73.427,88.527 74.116,88.354 
		75.149,89.73 	"/>
	<polygon fill="none" stroke="#EB2D40" stroke-width="0.265" stroke-miterlimit="2.6131" points="75.149,89.73 74.632,89.902 
		73.427,88.527 74.116,88.354 75.149,89.73 	"/>
	<polygon fill-rule="evenodd" clip-rule="evenodd" fill="#EB2D40" points="71.361,88.871 72.05,88.698 72.567,87.321 72.05,87.494 
		71.361,88.871 	"/>
	<polygon fill="none" stroke="#EB2D40" stroke-width="0.265" stroke-miterlimit="2.6131" points="71.361,88.871 72.05,88.698 
		72.567,87.321 72.05,87.494 71.361,88.871 	"/>
	<polygon fill-rule="evenodd" clip-rule="evenodd" fill="#EB2D40" points="72.567,90.075 72.05,90.246 70.845,88.871 71.361,88.871 
		72.567,90.075 	"/>
	<polygon fill="none" stroke="#EB2D40" stroke-width="0.265" stroke-miterlimit="2.6131" points="72.567,90.075 72.05,90.246 
		70.845,88.871 71.361,88.871 72.567,90.075 	"/>
	<polygon fill-rule="evenodd" clip-rule="evenodd" fill="#EB2D40" points="69.123,89.388 69.811,89.216 69.983,87.838 
		69.294,88.011 69.123,89.388 	"/>
	<polygon fill="none" stroke="#EB2D40" stroke-width="0.265" stroke-miterlimit="2.6131" points="69.123,89.388 69.811,89.216 
		69.983,87.838 69.294,88.011 69.123,89.388 	"/>
	<polygon fill-rule="evenodd" clip-rule="evenodd" fill="#EB2D40" points="70.5,90.419 69.983,90.592 68.434,89.559 69.123,89.388 
		70.5,90.419 	"/>
	<polygon fill="none" stroke="#EB2D40" stroke-width="0.265" stroke-miterlimit="2.6131" points="70.5,90.419 69.983,90.592 
		68.434,89.559 69.123,89.388 70.5,90.419 	"/>
	<polygon fill-rule="evenodd" clip-rule="evenodd" fill="#EB2D40" points="66.712,90.075 67.229,89.902 67.572,88.527 
		66.884,88.698 66.712,90.075 	"/>
	<polygon fill="none" stroke="#EB2D40" stroke-width="0.265" stroke-miterlimit="2.6131" points="66.712,90.075 67.229,89.902 
		67.572,88.527 66.884,88.698 66.712,90.075 	"/>
	<polygon fill-rule="evenodd" clip-rule="evenodd" fill="#EB2D40" points="68.262,91.107 67.746,91.452 66.196,90.419 
		66.712,90.075 68.262,91.107 	"/>
	<polygon fill="none" stroke="#EB2D40" stroke-width="0.265" stroke-miterlimit="2.6131" points="68.262,91.107 67.746,91.452 
		66.196,90.419 66.712,90.075 68.262,91.107 	"/>
	<polygon fill-rule="evenodd" clip-rule="evenodd" fill="#EB2D40" points="64.99,90.936 65.507,90.592 65.507,89.388 64.99,89.559 
		64.99,90.936 	"/>
	<polygon fill="none" stroke="#EB2D40" stroke-width="0.265" stroke-miterlimit="2.6131" points="64.99,90.936 65.507,90.592 
		65.507,89.388 64.99,89.559 64.99,90.936 	"/>
	<polygon fill-rule="evenodd" clip-rule="evenodd" fill="#EB2D40" points="66.54,91.968 66.196,92.14 64.473,91.107 64.99,90.936 
		66.54,91.968 	"/>
	<polygon fill="none" stroke="#EB2D40" stroke-width="0.265" stroke-miterlimit="2.6131" points="66.54,91.968 66.196,92.14 
		64.473,91.107 64.99,90.936 66.54,91.968 	"/>
	<polygon fill-rule="evenodd" clip-rule="evenodd" fill="#EB2D40" points="63.269,91.796 63.785,91.624 63.613,90.246 
		63.269,90.419 63.269,91.796 	"/>
	<polygon fill="none" stroke="#EB2D40" stroke-width="0.265" stroke-miterlimit="2.6131" points="63.269,91.796 63.785,91.624 
		63.613,90.246 63.269,90.419 63.269,91.796 	"/>
	<polygon fill-rule="evenodd" clip-rule="evenodd" fill="#EB2D40" points="64.99,92.657 64.473,93.001 62.924,92.14 63.269,91.796 
		64.99,92.657 	"/>
	<polygon fill="none" stroke="#EB2D40" stroke-width="0.265" stroke-miterlimit="2.6131" points="64.99,92.657 64.473,93.001 
		62.924,92.14 63.269,91.796 64.99,92.657 	"/>
	<polygon fill-rule="evenodd" clip-rule="evenodd" fill="#EB2D40" points="61.891,92.828 62.235,92.657 61.719,91.279 
		61.375,91.624 61.891,92.828 	"/>
	<polygon fill="none" stroke="#EB2D40" stroke-width="0.265" stroke-miterlimit="2.6131" points="61.891,92.828 62.235,92.657 
		61.719,91.279 61.375,91.624 61.891,92.828 	"/>
	<polygon fill-rule="evenodd" clip-rule="evenodd" fill="#EB2D40" points="63.441,93.517 63.096,93.861 61.375,93.173 
		61.719,93.001 63.441,93.517 	"/>
	<polygon fill="none" stroke="#EB2D40" stroke-width="0.265" stroke-miterlimit="2.6131" points="63.441,93.517 63.096,93.861 
		61.375,93.173 61.719,93.001 63.441,93.517 	"/>
	<polygon fill-rule="evenodd" clip-rule="evenodd" fill="#EB2D40" points="60.341,94.033 60.858,93.688 60.341,92.484 
		59.997,92.828 60.341,94.033 	"/>
	<polygon fill="none" stroke="#EB2D40" stroke-width="0.265" stroke-miterlimit="2.6131" points="60.341,94.033 60.858,93.688 
		60.341,92.484 59.997,92.828 60.341,94.033 	"/>
	<polygon fill-rule="evenodd" clip-rule="evenodd" fill="#EB2D40" points="62.063,94.721 61.719,95.065 61.03,94.721 60.513,94.377 
		60.341,94.033 62.063,94.721 	"/>
	<polygon fill="none" stroke="#EB2D40" stroke-width="0.265" stroke-miterlimit="2.6131" points="62.063,94.721 61.719,95.065 
		61.03,94.721 60.513,94.377 60.341,94.033 62.063,94.721 	"/>
	<path fill="none" stroke="#178370" stroke-width="1.0301" stroke-miterlimit="2.6131" d="M76.01,54.11
		c-12.569,0-22.729,10.497-22.729,23.23c0,12.905,10.16,23.231,22.729,23.231c12.571,0,22.729-10.326,22.729-23.231
		C98.739,64.607,88.581,54.11,76.01,54.11L76.01,54.11z"/>
	<path fill-rule="evenodd" clip-rule="evenodd" fill="#C5D5D9" d="M76.01,77.341c-0.86-0.517-5.854-5.678-7.748-7.571
		c0.345-3.958,7.404-38.029,7.748-38.029c0.173,0,7.231,34.071,7.577,38.029C81.865,71.663,76.699,76.824,76.01,77.341L76.01,77.341
		z"/>
	<path fill-rule="evenodd" clip-rule="evenodd" fill="#178370" d="M76.01,77.341c-0.86-0.517-5.854-5.678-7.748-7.571
		c0.345-3.958,7.404-38.029,7.748-38.029V77.341L76.01,77.341z"/>
	<path fill-rule="evenodd" clip-rule="evenodd" fill="#C5D5D9" d="M76.01,77.341c-0.86,0.688-5.854,5.68-7.748,7.571
		c0.345,3.959,7.404,38.029,7.748,38.029c0.173,0.173,7.231-34.07,7.577-38.029C81.865,83.021,76.699,78.029,76.01,77.341
		L76.01,77.341z"/>
	<path fill-rule="evenodd" clip-rule="evenodd" fill="#178370" d="M76.01,77.341c0.689,0.688,5.855,5.68,7.577,7.571
		c-0.346,3.959-7.404,38.029-7.577,38.029V77.341L76.01,77.341z"/>
	<path fill-rule="evenodd" clip-rule="evenodd" fill="#C5D5D9" d="M76.01,77.341c-0.688,0.688-5.682,6.023-7.576,7.745
		c-3.789-0.346-58.2-7.572-58.2-7.745c-0.172-0.343,54.412-7.399,58.2-7.744C70.328,71.318,75.322,76.653,76.01,77.341L76.01,77.341
		z"/>
	<path fill-rule="evenodd" clip-rule="evenodd" fill="#178370" d="M76.01,77.341c-0.688,0.688-5.682,6.023-7.576,7.745
		c-3.789-0.346-58.2-7.572-58.2-7.745H76.01L76.01,77.341z"/>
	<path fill-rule="evenodd" clip-rule="evenodd" fill="#C5D5D9" d="M76.01,77.341c0.517,0.688,5.511,6.023,7.404,7.745
		c3.788-0.346,58.544-7.572,58.544-7.745c0.173-0.343-54.756-7.399-58.544-7.744C81.521,71.318,76.526,76.653,76.01,77.341
		L76.01,77.341z"/>
	<path fill-rule="evenodd" clip-rule="evenodd" fill="#178370" d="M76.01,77.341c0.517-0.688,5.511-6.022,7.404-7.744
		c3.788,0.344,58.544,7.4,58.544,7.572L76.01,77.341L76.01,77.341z"/>
	<path fill-rule="evenodd" clip-rule="evenodd" fill="#FFFFFF" d="M76.01,152.54c40.465,0,73.524-33.729,73.524-75.199
		S116.475,2.314,76.01,2.314c-40.636,0-73.696,33.556-73.696,75.027S35.374,152.54,76.01,152.54L76.01,152.54z M76.01,145.483
		c36.677,0,66.638-30.457,66.638-68.143c0-37.685-29.961-68.144-66.638-68.144c-36.848,0-66.809,30.458-66.809,68.144
		C9.201,115.026,39.162,145.483,76.01,145.483L76.01,145.483z"/>
	<path fill="none" stroke="#C5D5D9" stroke-width="4.6278" stroke-miterlimit="2.6131" d="M76.01,152.54
		c40.465,0,73.524-33.729,73.524-75.199S116.475,2.314,76.01,2.314c-40.636,0-73.696,33.556-73.696,75.027
		S35.374,152.54,76.01,152.54L76.01,152.54z M76.01,145.483c36.677,0,66.638-30.457,66.638-68.143
		c0-37.685-29.961-68.144-66.638-68.144c-36.848,0-66.809,30.458-66.809,68.144C9.201,115.026,39.162,145.483,76.01,145.483
		L76.01,145.483z"/>
</g>
</svg>
