<?xml version="1.0" encoding="utf-8"?>
<!-- Generator: Adobe Illustrator 13.0.0, SVG Export Plug-In . SVG Version: 6.00 Build 14948)  -->
<!DOCTYPE svg PUBLIC "-//W3C//DTD SVG 1.1//EN" "http://www.w3.org/Graphics/SVG/1.1/DTD/svg11.dtd">
<svg version="1.1" id="Ebene_1" xmlns="http://www.w3.org/2000/svg" xmlns:xlink="http://www.w3.org/1999/xlink" x="0px" y="0px"
	 width="569.869px" height="588.5px" viewBox="0 0 569.869 588.5" enable-background="new 0 0 569.869 588.5" xml:space="preserve">
<path d="M566.509,132.636l3.36-16.041l-6.06-5.094c-0.28-0.257-30.761-26.132-46.374-53.693l-3.8-6.718H498.06h-0.758l-0.732,0.085
	c-0.146,0.017-2.863,0.316-7.91,0.798l36.937-29.618l-30.59-3.298c-0.574-0.074-57.199-6.243-86.774-13.401L384.812,0l8.235,21.692
	c-26.097-3.319-61.575-6.201-106.139-6.201c-45.034,0-80.796,2.943-106.964,6.307L188.209,0l-23.418,5.657
	c-29.577,7.159-86.214,13.328-86.787,13.401l-30.579,3.298L84.82,52.341c-7.209-0.688-11.082-1.133-11.252-1.154l-0.769-0.097
	H56.991l-3.934,6.01C35.196,84.514,5.95,111.794,5.632,112.076l-5.584,5.204l3.641,15.931c0.684,2.883,16.59,71.271,56.441,159.634
	c15.914,35.315,37.128,76.793,64.251,119.21H0c0,0,22.857,25.313,22.943,25.374c1,1.222,3.493,6.23,5.143,10.971
	c0,3.104,0,108.142,0,108.142l96.718-20.304c0,0,0-2.42,0-4.618c17.941-2.459,52.456-6.844,85.209-9.121
	c16.839,17.736,34.941,34.766,54.379,50.621l18.863,15.381l19.142-15.015c20.699-16.233,39.852-33.671,57.574-51.816
	c38.582,3.425,73.45,9.779,84.506,11.917c2.992,2.064,6.255,3.885,9.834,5.217c0,0-0.428-0.306-0.646-0.428
	c2.297,1.002,7.061,2.712,18.74,6.854c0.012,0,4.385,1.637,4.385,1.637c16.469,6.011,27.952,0.61,33.339-3.151
	c6.659-4.643,14.624-13.928,14.795-31.678v0.623l0.452-8.638l0.025-0.635c0.012-1.283,0.023-2.7,0.023-4.191
	c0-6.828-0.501-15.624-3.738-24.006c1.43-0.707,2.932-1.453,2.932-1.453s0.502-25.765,0.563-28.624
	c0.452-1.232,2.309-4.556,4.851-7.549l12.767-15.003l-3.58-5.729c-2.7-4.398-5.191-4.387-14.343-4.362l-6.486,0.013l-58.567,0.062
	l-1.711,0.415c0.063-0.012-0.928,0.22-0.928,0.22c-3.128,0.732-8.747,2.688-14.428,7c-0.217,0-0.606,0-1.123,0
	c30.306-45.404,53.355-90.076,70.184-127.724C551.349,204.054,565.923,135.506,566.509,132.636z"/>
<path fill="#BBBDD6" d="M550.995,129.387l1.466-7.025l-5.095-5.912l-0.489-0.355c-0.232-0.195-25.324-18.618-39.912-46.301
	l-1.636-3.14l-3.52,0.342c-0.493,0.045-23.342,2.104-58.955,4.297l2.334-11.995c9.058,2.436,13.098,3.956,13.167,3.984l2.712,1.025
	l2.31-1.82l43.052-34.524l-12.242-1.32c-0.574-0.073-57.675-6.303-87.764-13.56l-9.37-2.272l3.433,9.003l4.225,11.163
	c-26.395-3.933-65.787-7.864-117.802-7.864c-52.705,0-92.462,4.039-118.859,8.023c0.075-0.011,0.146-0.023,0.221-0.034l7.686-20.292
	l-9.37,2.272c-30.078,7.256-87.19,13.487-87.764,13.56l-12.229,1.32l45.335,36.344l2.725-1.025c0.072-0.029,4.341-1.638,13.96-4.198
	l2.446,12.552c-37.92-2.317-62.285-4.593-62.78-4.64l-3.225-0.306l-1.734,2.736c-16.761,26.438-43.308,50.296-43.577,50.516
	l-2.333,2.089l1.748,7.623c0.647,2.811,16.272,69.83,55.427,156.679c19.001,42.143,45.66,93.206,81.034,143.948
	c-16.809,0-29.649,0-32.058,0c0.11-0.184,4.068-8.136,4.068-8.136h-4.275H22.723c0,0,7.367,8.123,7.611,8.393
	c1.002,1.552,5.937,9.773,7.842,16.138c0,0.831,0,97.44,0,97.44l76.538-16.09c0,0,0-4.74,0-5.168
	c14.771-2.143,64.18-8.939,106.896-11.18c-1.59-1.674-3.153-3.363-4.72-5.051c-44.327,2.617-94.171,9.691-105.205,11.32
	l-2.261,0.317c0,0,0,5.253,0,5.484c-1.331,0.281-63.917,13.415-65.969,13.854c0-0.403,0-91.734,0-91.734l-0.11-0.343
	c-2.113-7.391-7.733-16.651-8.758-18.105c0.598,0,83.977,0,84.49,0c-0.306,0.624-4.056,8.149-4.056,8.149h44.324
	c-0.041-0.058-0.081-0.113-0.121-0.171h8.92c-38.365-53.319-66.928-107.675-86.927-152.061
	C42.342,197.104,26.4,128.702,26.254,128.042l-0.978-4.325l3.36-2.87c27.047-22.943,36.759-42.332,36.833-42.515l2.272-4.569
	l5.058,0.501c0.405,0.049,21.769,2.25,59.627,4.392l4.057,20.822l5.242-1.404c0.574-0.159,58.419-15.223,145.183-15.223
	c86.773,0,144.62,15.063,145.194,15.223l5.265,1.404l4.117-21.147c35.259-2.034,55.435-4.02,55.842-4.066l4.826-0.477l2.297,4.276
	c12.155,22.527,36.638,42.489,36.882,42.684l3.444,2.797l-0.903,4.35c-0.146,0.685-14.647,68.913-53.155,155.103
	c-19.868,44.439-48.601,98.906-87.991,152.402h8.99c-0.041,0.058-0.082,0.113-0.123,0.171h36.879l0.795-0.807
	c4.398-4.594,9.443-6.158,11.386-6.598c0,0,0.965-0.231,1.002-0.231c0.269,0,52.946-0.086,56.441-0.086
	c-1.125,1.369-8.271,10.165-8.271,16.433c0-0.05-0.392,19.252-0.403,19.79c-0.464,0.244-10.726,5.29-10.726,5.29l2.871,2.626
	c7.61,6.915,8.49,18.313,8.49,27.269c0,1.417-0.024,2.772-0.062,4.043c0,0.049,0,0.135,0,0.135c0,0.061-0.428,8.308-0.428,8.308
	c-0.097,9.138-2.883,15.6-8.246,19.362c-5.216,3.642-11.69,4.081-19.253,1.309l-2.004-0.771l-0.257-0.099l-16.834-5.997
	c-2.163-0.782-3.042-1.088-3.53-1.223c0.036,0,0.183,0.024,0.183,0.024c-3.176-1.148-5.975-2.761-8.355-4.765l-0.526-0.439
	l-0.659-0.146c-5.883-1.169-49.604-9.674-96.714-13.332c-0.05,0.052-0.1,0.103-0.149,0.154c-3.149-0.242-6.313-0.463-9.486-0.658
	c-17.134,17.563-35.64,34.426-55.631,50.106l-4.569,3.605l-4.507-3.678c-18.595-15.169-35.938-31.469-52.09-48.463
	c-3.186,0.066-6.413,0.168-9.67,0.3c1.441,1.553,2.879,3.106,4.341,4.646c16.368,17.231,33.951,33.763,52.812,49.149l9.016,7.366
	l9.174-7.195c20.107-15.771,38.729-32.722,55.972-50.371c47.452,3.354,92.563,12.012,99.949,13.478
	c2.713,2.162,5.778,3.921,9.272,5.204c0.025,0.024,20.243,7.22,20.243,7.22l-0.281-0.11l2.493,0.965
	c9.26,3.397,17.383,2.749,24.078-1.93c6.866-4.825,10.396-12.718,10.506-23.518c0,0-0.146,0.147-0.158,0.147
	c0.171-1.002,0.281-2.261,0.367-4.154l0.231-4.227l0.012-0.354c0.038-1.331,0.038-2.749,0.038-4.251
	c0-8.857-0.844-20.011-7.661-28.245c2.052-1.026,6.977-3.445,6.977-3.445l0.464-23.077c0-3.311,4.313-9.883,7.231-13.292l7.233-8.49
	l-11.154,0.025l-57.394,0.061l-1.576,0.379c-2.272,0.524-7.916,2.369-13.06,7.269c-0.518,0-29.337,0-30.991,0
	c36.258-50.921,63.065-102.107,81.935-144.303C536.249,198.935,550.407,132.171,550.995,129.387z M460.176,58.529
	c0,0-4.229-1.629-14.01-4.247l2.759-14.175l-0.537-0.153l0.06-0.104l-34.881-19.975c31.756,6.583,80.083,11.814,80.083,11.814
	L460.176,58.529z M432.468,35.942c-5.477-1.177-12.799-2.603-21.982-4.073l-4.113-10.856L432.468,35.942z M162.582,31.992
	c-8.434,1.363-15.251,2.681-20.489,3.794l24.084-13.53l-3.699,9.751C162.511,32.003,162.547,31.998,162.582,31.992z M127.636,54.073
	c-10.343,2.741-14.792,4.457-14.792,4.457L79.371,31.69c0,0,51.08-5.531,82.725-12.374l-36.83,20.691l-0.351,0.1l3.2,16.422
	L127.636,54.073z M433.409,93.164c0,0-57.931-15.406-146.501-15.406c-88.547,0-146.478,15.406-146.478,15.406l-9.627-49.453
	c0,0,53.851-15.503,156.104-15.503c102.276,0,156.141,15.503,156.141,15.503L433.409,93.164z"/>
<path fill="#FFFFFF" d="M183.933,73.421c0.893-1.124,1.173-2.736,0.905-4.935l-0.416-3.385c-0.464-3.641-1.307-5.107-3.408-5.864
	l-8.722-3.042c-1.247-0.415-2.15-0.732-2.31-2.113l0.331-1.491l1.002-0.549l0.842,0.256c0.685,0.55,1.075,1.809,1.198,2.748
	c0.696-0.244,8.954-3.065,9.418-3.236c-0.061-0.574-0.244-1.992-0.244-1.992c-0.453-3.567-2.688-5.131-6.684-4.617l-10.519,1.295
	c-3.995,0.476-5.79,2.553-5.351,6.096l0.391,3.274c0.428,3.383,1.845,4.423,4.691,5.375l7.477,2.467
	c1.637,0.538,2.077,0.977,2.371,3.177c0.133,1.271,0.133,2.736-1.296,2.908c-1.014,0.122-1.746-0.941-2.002-2.981
	c0,0-0.135-1.172-0.208-1.722c-0.709,0.256-9.005,3.25-9.469,3.408c0.061,0.452,0.452,3.567,0.452,3.567
	c0.428,3.58,2.675,5.155,6.682,4.655l10.519-1.295C181.661,75.168,183.079,74.522,183.933,73.421z"/>
<path fill="#FFFFFF" d="M221.169,66.348c0,0-5.484-24.201-5.619-24.775c-0.55,0.048-15.259,1.295-16.859,1.441
	c0.586,0.476,1.282,1.197,1.282,2.052c0,0.024,0,0.061,0,0.11c0,0-1.784,27.255-1.845,28.025c0.734-0.062,9.31-0.783,9.871-0.831
	c0.013-0.55,0.123-7.27,0.123-7.27l3.554,1.417c0,0,1.369,7.77,1.54,8.71c0.757-0.538,9.236-6.536,10.299-7.269
	C222.746,67.741,221.658,67.313,221.169,66.348z M207.842,58.004l0.22-9.297l0.66-0.049l2.088,11.043L207.842,58.004z"/>
<path fill="#FFFFFF" d="M244.173,55.867c0,0,4.655,16.676,4.899,17.519c0.696-0.439,9.542-6.328,10.58-7.024
	c-0.696-0.245-1.673-0.721-1.698-1.65c0,0-0.734-24.433-0.746-25.081c-0.61,0.024-8.075,0.232-8.674,0.245
	c0.013,0.646,0.354,12.35,0.354,12.35l-0.646,0.11c0,0-4.178-11.863-4.337-12.314c-0.452,0.012-9.064,0.268-10.591,0.317
	c0.513,0.464,1.099,1.148,1.099,1.991c0,0,0.818,27.353,0.831,28.012c0.624-0.012,8.075-0.244,8.674-0.256
	c-0.013-0.647-0.416-14.109-0.416-14.109L244.173,55.867z"/>
<path fill="#FFFFFF" d="M298.673,40.853l-0.146,19.534c-0.038,1.099-0.209,1.734-0.612,2.137l-1.086,0.379
	c-1.405-0.012-1.626-1.295-1.626-2.443c0-0.037,0.037-2.956,0.037-3.628c-0.746,0.16-8.833,2.053-9.309,2.175
	c0,0.646-0.024,3.238-0.024,3.311c0,2.736,0.488,4.483,1.466,5.521c0.903,0.905,2.297,1.332,4.385,1.356l10.08,0.085
	c4.679,0.049,6.193-1.662,6.242-6.988c0,0,0.195-22.564,0.195-23.236c-0.599-0.012-9.334-0.085-10.653-0.085
	C298.11,39.508,298.673,40.29,298.673,40.853z"/>
<path fill="#FFFFFF" d="M412.958,47.535c-0.83-0.135-16.957-2.675-18.459-2.907c0.293,0.464,0.587,1.05,0.587,1.698
	c0,0.122,0,0.208-0.024,0.293c0,0-4.24,27.195-4.35,27.841c0.636,0.086,15.088,2.358,15.711,2.468
	c0.098-0.586,0.879-5.668,0.978-6.254c-0.587-0.099-6.256-0.978-6.256-0.978l1.088-6.951c0,0,5.656,0.88,6.255,0.977
	c0.086-0.586,0.893-5.681,0.978-6.243c-0.599-0.085-6.23-0.977-6.23-0.977l0.61-3.995c0,0,5.814,0.904,6.292,0.964
	C410.319,53.093,412.616,48.231,412.958,47.535z"/>
<path fill="#FFFFFF" d="M373.804,42.563l-10.518-1.221c-2.102-0.232-3.738,0.097-4.875,0.989c-0.978,0.794-1.588,2.04-1.771,3.689
	l-0.38,3.274c-0.391,3.385,0.733,4.74,3.287,6.328l6.67,4.154c1.479,0.928,1.784,1.453,1.539,3.653
	c-0.135,1.197-0.403,1.869-0.867,2.248l-1.074,0.269l-0.795-0.439c-0.379-0.5-0.477-1.271-0.477-1.966
	c0-0.355,0.037-0.697,0.062-0.978c0,0,0.122-1.161,0.183-1.711c-0.745,0.085-9.505,1.027-10.005,1.087
	c-0.036,0.464-0.392,3.567-0.392,3.567c-0.048,0.342-0.061,0.647-0.061,0.953c0,1.246,0.317,2.297,0.952,3.103
	c0.892,1.112,2.407,1.82,4.509,2.052l10.507,1.222c2.088,0.232,3.64-0.061,4.716-0.928c1.123-0.88,1.783-2.395,2.052-4.582
	l0.39-3.383c0.392-3.641-0.084-5.29-1.93-6.512l-7.77-5.009c-1.112-0.709-1.918-1.209-1.747-2.603
	c0.123-1.1,0.844-1.771,1.771-1.674l0.757,0.464c0.416,0.526,0.574,1.405,0.574,2.224c0,0.257-0.024,0.5-0.061,0.708
	c0.758-0.061,9.432-0.879,9.933-0.917c0.036-0.427,0.244-1.978,0.244-1.978c0.013-0.342,0.061-0.635,0.061-0.953
	C379.289,44.713,377.433,42.99,373.804,42.563z"/>
<path fill="#FFFFFF" d="M330.142,39.264c-10.762-0.428-12.998,4.838-13.401,14.66c-0.415,11.411,2.993,15.991,12.204,16.358
	c12.303,0.464,13.121-5.216,13.512-15.295C342.859,44.456,341.174,39.691,330.142,39.264z M332.438,55.304
	c-0.207,5.51-0.623,7.758-1.551,8.625l-1.441,0.464l-1.345-0.574c-0.867-0.939-1.112-3.225-0.903-8.722
	c0.28-7.318,0.672-9.296,2.919-9.188C332.329,45.971,332.731,47.657,332.438,55.304z"/>
<path fill="#004385" d="M405.8,280.677c20.402,20.72,34.354,45.373,42.013,71.48c0,0,0,0,0.046-0.063
	c66.42-118.141,88.904-225.677,88.904-225.677s-25.704-20.743-38.703-44.907c0,0-17.859,1.785-49.771,3.715l-5.46,23.576
	l-12.669-3.348c-0.562-0.122-57.638-14.978-143.251-14.978c-85.59,0-142.667,14.856-143.228,14.978l-13.158,3.47l-4.516-23.342
	C91.242,83.52,72.029,81.51,72.029,81.51s-9.908,20.475-38.69,44.896c0,0,24.232,105.401,88.455,221.958
	c8.149-25.538,22.367-49.537,42.751-69.591C231.603,212.789,339.818,213.656,405.8,280.677z"/>
<path fill="#FFFFFF" d="M133.915,369.642c0.025,0.046,0.045,0.082,0.068,0.124c0.082,0.14,0.167,0.279,0.249,0.42
	C134.125,370.004,134.021,369.824,133.915,369.642z"/>
<polygon fill="#FFFFFF" points="424.271,338.767 424.246,338.788 424.248,338.799 "/>
<path fill="#FFFFFF" d="M226.796,256.258c0.283,0.023,0.541,0.047,0.779,0.073c0.001-0.003,0.002-0.008,0.003-0.011
	C227.342,256.298,227.076,256.277,226.796,256.258z"/>
<path fill="#FFFFFF" d="M272.054,388.435c-0.953,0.225-62.245,14.625-63.191,14.848c-4.17,11.88-7.086,22.893-9.112,32.118h57.496
	c5.913-3.458,13.633-5.18,23.358-5.18c10.604,0,18.216,1.612,24.091,5.18h13.365c0.041-0.313,0.086-0.626,0.126-0.938
	C317.564,433.842,272.747,389.126,272.054,388.435z"/>
<path fill="#FFFFFF" d="M142.292,349.129c20.596-4.864,31.557-6.026,35.691-6.3c3.453-6.052,16.083-25.453,46.182-47.102
	c-0.274-2.613-0.69-7.546-0.69-13.654c0-7.482,0.676-16.585,2.981-24.93c-4.67-0.293-15.141-0.076-29.327,5.52l-0.049-0.087
	c-9.619,6.095-18.748,13.282-27.194,21.594c-13.317,13.111-23.87,27.953-31.712,43.811l0.005,0.193
	C138.181,328.294,138.573,339.923,142.292,349.129z"/>
<path fill="#FFFFFF" d="M177.717,347.71c-4.326,0.334-15.351,1.596-35.455,6.383c-1.494,3.117-4.24,9.105-7.074,16.608l-0.25,0.669
	c12.632,21.365,26.596,42.896,42.032,64.03h17.83c2.11-9.786,5.216-21.63,9.779-34.497
	C200.255,394.97,186.861,375.272,177.717,347.71z"/>
<path fill="#FFFFFF" d="M392.096,352.333c-25.518-31.023-45.312-42.667-51.082-45.629c-7.635,0.419-27.679,2.767-54.237,15.259
	c-0.164,0.904-11.274,62.023-11.439,62.933c0.655,0.653,45.861,45.756,46.464,46.358c6.793-0.764,29.229-4.065,58.329-16.347
	c2.323-4.557,11.989-25.584,11.989-59.861C392.119,354.152,392.109,353.246,392.096,352.333z"/>
<path fill="#FFFFFF" d="M285.075,317.458c25.664-12.042,44.923-14.918,54.502-15.533c3.265-11.037,4.134-20.099,4.134-26.547
	c0-3.935-0.318-6.864-0.601-8.722c-20.725-18.141-49.704-23.61-65.227-25.251c-10.271,0.538-26.573,3.572-46.144,14.83
	c-2.687,8.314-3.398,18.032-3.398,25.889c0,5.485,0.335,9.962,0.577,12.509C235.491,295.421,255.935,299.255,285.075,317.458z"/>
<path fill="#FFFFFF" d="M423.123,342.753c-0.907,0.377-25.147,10.471-26.197,10.908c0.004,0.48,0.007,0.962,0.007,1.438
	c0,33.775-8.961,54.881-12.135,61.291c2.12,2.816,5.979,8.472,10.273,17.325c17.746-23.886,33.505-48.242,47.427-72.274
	c-0.126-0.516-0.268-1.027-0.402-1.541C436.851,353.421,426.722,345.488,423.123,342.753z"/>
<path fill="#FFFFFF" d="M400.662,286.29l-0.896,1.89c18.49,19.703,23.936,42.521,25.276,49.966c0.003,0.003,0.022,0.016,0.022,0.016
	c2.933,2.203,8.843,6.779,14.134,11.722C431.696,326.712,418.869,304.869,400.662,286.29z"/>
<path fill="#FFFFFF" d="M284.306,237.36c16.971,2.449,43.372,8.959,62.68,26.264c22.048,3.596,43.905,17.65,49.059,21.131
	l0.976-2.071C365.579,252.51,324.96,237.383,284.306,237.36z"/>
<path fill="#CECECE" d="M500.039,203.711c20.267-40.559,9.687-56.428,9.687-56.428s-0.207,16.786-14.537,34.378
	c-36.601,44.968-40.999,15.868-81.985,58.187c-19.53,20.167-21.034,19.601-21.148,19.424l-0.011-0.024
	c2.174-2.517,5.889-7.978,12.303-19.437c12.888-23.114,14.012-62.488,23.761-80.85c9.822-18.532,25.288-28.782,25.288-28.782
	s-18.056-0.928-35.391,19.938c-14.881,17.897-21.551,40.669-46.388,64.32c-12.233,11.656-17.103,17.109-18.813,19.164
	c-0.139,0.032-0.246,0.09-0.293,0.2c0.098-3.946,0.195-11.399-0.122-23.04c-0.904-30.86,16.468-47.376,17.604-60.839
	c2.492-29.784-5.29-39.765-5.29-39.765s0,16.847-8.796,34.487c-8.833,17.628-29.589,29.37-39.68,55.524
	c-2.064,5.388-6.34,15.601-11.325,27.341l0.306-4.594c-0.306-3.201-1.063-9.346-2.664-20.976
	c-3.688-26.841-22.038-46.717-23.015-63.612c-1.087-19.229,2.736-37.274,2.736-37.274s-14.757,16.163-16.737,38.299
	c-1.563,17.41,6.78,36.968,5.278,62.586c-0.77,12.864-5.4,21.159-6.684,23.272c-0.036-1.552-1.307-6.927-8.294-25.044
	c-10.116-26.155-30.859-37.896-39.68-55.524c-8.821-17.64-8.821-34.487-8.821-34.487s-7.77,9.981-5.29,39.765
	c1.148,13.463,18.533,29.979,17.641,60.839c-0.33,11.641-0.245,19.094-0.135,23.04c-1.355-3.067-4.642-8.784-12.217-19.51
	c-15.246-21.635-50.234-39.68-62.598-56.428c-12.436-16.883-14.978-35.257-14.978-35.257s-6.718,15.075,2.651,40.547
	c15.858,43.198,29.968,33.498,42.294,65.237c8.308,21.293,5.314,30.859,5.314,30.859s0.464,1.637-21.159-19.4
	c-31.739-30.847-59.947-36.137-81.997-58.187c-16.054-16.029-19.132-38.263-19.132-38.263s-9.26,13.755,6.792,44.444
	c19.389,37.028,36.15,31.738,62.598,79.347c14.6,26.265,11.46,30.847,11.46,30.847s0-11.459-19.412-22.039
	c-7.195-3.933-29.919-3.946-40.584-16.883c11.748,27.75,26.06,58.098,43.219,89.242c8.151-25.536,22.367-49.532,42.75-69.584
	c67.057-65.982,175.273-65.115,241.254,1.905c20.402,20.72,34.354,45.373,42.013,71.48c0.048-0.076,0.048-0.076,0.048-0.076
	c18.156-32.286,33.039-63.781,45.068-92.502c0,0-7.77,8.259-16.725,11.998c-7.514,3.188-15.771,1.563-22.015,5.301
	c-13.219,7.929-20.72,21.159-20.72,21.159s-3.151-4.582,11.46-30.847C471.391,219.581,481.348,241.096,500.039,203.711z"/>
<path fill="#CECECE" d="M223.504,306.858c0,0-21.355,13.353-38.043,38.029c0,0,2.003,9.028,7.66,21.013
	c0,0-2.333-11.336-1.673-20.34C192.131,336.543,223.504,306.858,223.504,306.858"/>
<path fill="#CECECE" d="M351.607,271.514c0.329,16.004-3.995,29.345-3.995,29.345s11.349,5.326,22.026,15.686
	c0,0-12.352-14.684-15.015-16.688C351.937,297.841,356.958,277.831,351.607,271.514"/>
<path fill="#CECECE" d="M366.743,329.373c0,0,23.248,23.248,23.749,25.276c0.514,2.016-2.016,41.45-11.618,56.122
	c0,0-22.76,12.645-54.621,16.689L299.479,404.7c0,0,23.772,18.203,28.844,18.203c5.045,0,24.75-4.545,36.894-13.134
	c0,0,21.746-24.299,21.232-52.091C386.448,357.678,382.931,347.038,366.743,329.373"/>
<path fill="#CECECE" d="M233.753,291.452c0,0,24.274,2.993,52.079,20.682c0,0,18.716-11.593,49.551-14.122
	c0,0,6.071-12.645,4.044-29.82c0,0-3.543,19.718-7.563,24.787c0,0-23.271,2.505-46.032,12.07
	C285.832,305.049,275.717,294.995,233.753,291.452"/>
<path fill="#CECECE" d="M220.107,270.721c0,0-2.028,10.116-0.513,21.745c0,0-23.774,14.647-44.005,44.981
	c0,0-11.618,0.502-31.335,6.573c0,0,13.157-8.075,29.332-11.117c0,0,13.328-23.358,41.158-42.061
	C214.744,290.842,214.548,279.064,220.107,270.721"/>
<path fill="#CECECE" d="M438.027,361.221c0,0-7.574-9.114-14.66-13.157l-21.759,8.1c0,0,1.016,32.851-11.617,59.654
	c0,0,4.08,3.933,8.638,13.084c15.063-20.586,28.623-41.488,40.815-62.195C439.017,364.912,438.54,363.066,438.027,361.221"/>
<path fill="#CECECE" d="M415.769,307.626c0,0,9.101,14.146,11.654,27.805l6.561,7.074
	C433.983,342.505,427.911,323.289,415.769,307.626"/>
<path fill="#CECECE" d="M334.626,251.76c0,0,8.588,3.788,14.158,8.588c0,0,11.618,1.014,33.89,13.658c0,0-7.342-7.843-30.603-16.174
	C352.071,257.833,343.214,253.018,334.626,251.76"/>
<path fill="#CECECE" d="M203.419,431.992c0,0-0.451,1.254-1.081,3.409h0.771C203.291,433.321,203.419,431.992,203.419,431.992z"/>
<path fill="#CECECE" d="M289.876,411.26c0,0,12.222,15.293,16.634,24.141h6.551L289.876,411.26z"/>
<path fill="#CECECE" d="M200.878,403.686c0,0-15.906-23.017-24.263-45.006c0,0,4.556,21.244,17.703,45.006
	c0,0-6.782,15.732-10.014,31.715h6.075C192.242,426.552,195.413,415.619,200.878,403.686z"/>
<polyline points="365.815,543.212 363.286,543.212 363.286,532.839 359.571,532.839 359.571,530.727 369.504,530.727 
	369.504,532.839 365.815,532.839 365.815,543.212 "/>
<polyline points="373.438,543.212 371.104,543.212 371.104,530.727 374.866,530.727 377.139,539.253 379.363,530.727 
	383.162,530.727 383.162,543.212 380.816,543.212 380.816,533.39 378.35,543.212 375.906,543.212 373.438,533.39 373.438,543.212 
	"/>
<path fill="#FFFFFF" d="M186.5,503.654l24.299-15.941l-3.727-1.613c-0.122-0.012-1.356-0.88-1.759-2.382l0.232-23.565
	c1.686-0.037,3.86-0.063,5.913-0.063h1.491v34.721l19.729-1.809l0.061,7.27l22.918-13.719c0.782,1.063,1.624,2.04,2.59,2.895
	c2.479,2.333,5.168,3.616,7.477,4.325l-5.205,5.741l14.832-1.124l18.421,12.205l15.491-19.266c1.784,1.209,4.13,1.783,7.208,1.905
	c-0.024-0.012,15.039,0.586,15.039,0.586c2.858,0.159,6.071,0.013,8.49-1.917l-0.293,2.101l19.095,1.441c0,0,1.002-8.49,1.124-9.822
	l0.146-0.072l2.346,15.196l16.589-9.724v5.839l19.486,2.468v-9.969l4.679,16.114c0-0.013,15.479-9.944,15.479-9.944v6.682
	l28.221,5.205l3.213-7.439c0.794,5.778,3.384,10.958,11.007,13.768l22.454,8.833c4.766,1.759,8.43,1.686,11.179-0.233
	c3.018-2.112,4.495-6.193,4.495-12.46l-0.012,0.122l0.451-12.094c0.148-8.699,0.331-20.61-6.682-25.594l0.195,0.133
	c-4.093-3.493-8.405-7.207-11.887-10.31l18.044-8.895l0.146-10.53c0-4.129,4.557-9.15,4.557-9.15l-42.941,0.061
	c-2.871,0.696-7.159,3.396-9.553,8.076h-50.76c0,0-1.394,5.668-2.285,8.661v-8.661h-98.099c-4.533-3.567-11.229-5.168-21.355-5.168
	c-15.063,0-22.589,4.397-26.094,12.155v-6.987H102.949l4.044-8.137H46.887c0,0,3.36,5.045,3.813,8.906v81.937l48.39-10.164v-5.411
	c0.403-0.086,18.313-3.983,18.313-3.983l0.903-14.172l1.808,0.673l2.089,18.716l16.199-9.261v1.026l19.852-2.725v-10.481
	l6.414,16.334l19.792-13.537c0,0-4.605-1.478-5.962-3.848l-6.108-13.316c0.696-0.329,1.356-0.708,1.894-1.282
	c1.612-1.649,3.286-6.108,3.628-12.29l8.589-0.134V503.654 M98.734,489.032l-18.483,3.702v-8.711h17.311l-0.013-22.442H80.251
	v-6.585h16.064l4.179-8.393c1.588,0.782,2.676,2.37,2.809,2.956C103.292,449.78,100.652,472.466,98.734,489.032 M138.402,480.492
	l-4.374-34.878c0.77,0.439,1.319,0.732,1.319,0.732c1.221,0.733,3.042,2.31,3.054,3.312
	C138.402,449.621,138.402,466.48,138.402,480.492 M279.626,479.991c-1.588,0-2.113-0.317-2.443-0.647
	c-1.832-1.819-1.832-9.627-1.832-12.18c0-5.656,0.183-11.068,1.576-12.412c0.255-0.293,0.806-0.611,2.565-0.611
	c1.93,0,2.529,0.33,2.847,0.648c1.453,1.454,1.637,7.366,1.637,12.375C283.976,479.991,282.253,479.991,279.626,479.991
	 M300.089,493.613c-0.354-0.158-0.867-0.501-1.526-0.893c2.504-1.514,5.021-4.178,6.841-8.856c0.439,3.237,1.503,5.546,3.336,7.049
	C308.739,490.913,300.517,493.551,300.089,493.613 M343.58,466.503v-20.878l1.405,0.758c0.452,0.257,1.283,0.953,1.197,1.478
	C346.183,447.861,344.937,456.754,343.58,466.503 M379.008,480.395l-5.29-36.112l3.495,2.052c0.721,0.452,1.563,1.173,1.795,1.563
	V480.395 M418.651,489.507l-5.876-19.766c0.879-2.736,3.896-12.29,5.876-18.998V489.507 M453.298,488.799l-2.554,0.293l-2.297,0.244
	l-9.882-1.893v-6.268l9.186,0.354v-18.655l-9.186-0.086v-2.748l7.77,0.048l3.42-6.449v3.53c0,8.906,2.908,12.767,8.612,17.165
	c-0.023-0.025,5.804,4.861,10.69,8.954L453.298,488.799 M475.826,491.903c-0.038,0.989-0.074,3.957-0.074,4.02
	c-0.061-0.038-0.366-0.123-0.366-0.123c-0.439-0.11-1.002-0.281-1.174-0.403c-0.048-0.086-0.183-0.476-0.183-1.563v-6.377
	c0.672,0.563,1.16,0.952,1.356,1.137C475.91,489.178,475.91,489.336,475.826,491.903 M476.448,457.794
	c-1.259-1.187-2.126-2.029-2.455-2.407c-0.024-0.159-0.049-0.392-0.049-0.636c0.109,0,0.22,0,0.317,0c0.135,0,0.293,0,0.464,0h0.44
	c0.354,0,0.953,0,1.271,0.037c0.012,0.073,0.012,0.158,0.012,0.256V457.794"/>
<path fill="#004385" d="M53.179,442.132c0,1.747,0,79.213,0,79.213l43.431-9.114V492l-18.826,3.764v-14.232h17.298l-0.037-17.458
	H77.783v-11.568h17.005l8.186-16.457H50.54C50.54,436.047,53.179,440.41,53.179,442.132"/>
<path fill="#004385" d="M484.389,520.257c8.075,2.943,12.352,0.036,12.352-10.372l0.415-8.857c0-8.087,1.148-21.88-5.607-26.692
	c0,0-18.667-15.919-19.717-17.678c-0.428-0.734-0.367-1.796-0.367-2.59c0-2.077,1.919-1.809,3.262-1.809
	c1.601,0,4.202-0.306,4.202,2.785c0,0.269,0,5.119,0,5.498l17.971-8.882v-9.432c0,0,0.844-3.286,3.69-6.193H461.69
	c-3.652,0.867-9.455,4.984-9.455,13.56v7.575c0,8.075,2.479,11.202,7.659,15.186l17.214,14.439c1.747,1.894,1.148,2.565,1.148,8.956
	c0,3.469-1.393,3.054-3.396,2.479c-2.028-0.563-3.311-0.844-3.311-4.398v-8.771l-19.314,6.756v2.786
	c0,8.746,2.004,13.976,9.699,16.797L484.389,520.257"/>
<path fill="#004385" d="M137.84,495.922l-6.486-51.738h-30.09c2.737,1.173,4.679,4.142,4.521,5.497
	c-0.392,3.751-6.537,56.576-6.537,56.576l15.845-3.457l1.723-16.347l5.388,1.905l1.723,18.607l16.334-10.251
	C138.769,496.619,137.84,495.922,137.84,495.922 M117.17,474.042c0,0,1.466-8.32,1.746-11.643c0.209,3.322,1.797,9.821,2.285,13.156
	L117.17,474.042"/>
<path fill="#004385" d="M177.361,491.011l-8.467-18.387c0,0,2.529-0.244,3.616-1.356c1.063-1.124,2.945-5.607,2.945-12.717
	c0-5.644-0.965-10.763-2.932-12.645c-1.894-1.809-4.202-1.698-6.695-1.723c-8.075-0.036-21.196,0-29.259,0
	c0,0,4.265,2.432,4.325,5.411v49.393l14.868-2.04v-21.416l10.103,25.729l14.795-9.407
	C180.66,491.853,179.181,491.903,177.361,491.011 M157.46,463.78c-0.574-0.22-1.124-0.416-1.698-0.587c0-2.504,0-5.021,0-7.587
	c0.574,0.221,1.124,0.44,1.698,0.587c1.6,0.611,2.077,1.856,2.077,4.545C159.537,463.376,159.06,464.269,157.46,463.78"/>
<path fill="#004385" d="M188.991,499.134l16.786-10.592c0,0-1.771-0.024-2.968-1.087l0.268-29.724
	c2.346-0.072,5.571-0.134,8.381-0.134c0-3.665,0-13.414,0-13.414h-36.932c0,0,3.445,2.199,3.445,4.142l-0.122,9.895
	c0,0,8.783-0.133,11.141-0.183V499.134"/>
<path fill="#004385" d="M377.42,486.759l-6.218-42.575h-25.044c0,0,2.847,1.526,2.504,4.031c-1.526,10.935-5.656,40.23-6.096,43.479
	c5.094,0.294,7.916,0.66,14,1.088c0.343-3.481,1.063-8.576,1.307-11.851l4.301,1.895l1.723,15.074l15.577-10.114
	C379.474,487.786,378.044,487.883,377.42,486.759 M359.425,469.485c0,0,0.502-8.355,0.783-11.166
	c0.194,2.811,1.331,12.217,1.331,12.217L359.425,469.485"/>
<path fill="#004385" d="M421.144,500.136l24.238,4.483l5.632-13.048l-2.675,0.281l-12.267-2.357v-10.897l9.199,0.354l-0.024-13.609
	l-9.175-0.098c0,0,0-5.559,0-7.708l8.771,0.048l7.135-13.401h-32.325c0,0,1.49,1.344,1.49,3.628
	C421.144,459.589,421.144,496.227,421.144,500.136"/>
<path fill="#004385" d="M292.979,491.988c7.073-0.672,12.632-7.989,12.632-26.021c0-18.569-3.946-26.962-26.571-26.962
	c-22.625,0-26.364,10.03-26.364,26.827c0,27.647,18.826,26.29,18.826,26.29l-6.328,5.351l10.751-1.697l17.323,11.496l9.468-11.753
	c0,0-2.199,0.709-3.115,0.587C298.709,495.97,292.979,491.988,292.979,491.988 M286.468,467.164c0,13.255-1.931,15.308-6.842,15.308
	c-4.91,0-6.743-2.48-6.743-15.308c0-12.853,1.075-15.503,6.609-15.503C285.015,451.661,286.468,453.896,286.468,467.164"/>
<path fill="#004385" d="M252.908,485.293c0,0-1.673-0.024-2.443-0.843c0,0,0-36.382,0-40.267c-4.911,0-9.834,0-15.393,0v16.603
	c-0.135-0.159-4.373-1.747-4.386-1.796v-14.807c-5.57,0-12.13,0-17.017,0c0,0,1.771,1.601,1.771,3.188v44.726l15.246-1.418
	c0-4.581,0-13.56,0-16.7c0.013,0.049,4.362,1.955,4.386,1.906l0.122,20.036L252.908,485.293"/>
<path fill="#004385" d="M341.075,444.184h-14.818c0,0,0,27.841,0,30.591c0,2.382-0.013,3.249-2.004,4.409
	c-1.173,0.697-1.869-1.099-1.869-3.493c0-2.736,0-31.507,0-31.507h-17.529c0,0,2.797,1.344,2.797,3.506c0,8.528,0,29.81,0,32.191
	c0,8.319,2.443,10.665,8.882,10.849c5.069,0.183,10.042,0.378,15.087,0.623c6.805,0.354,9.455-1.564,9.455-10.372
	C341.075,477.914,341.075,447.324,341.075,444.184"/>
<path fill="#004385" d="M404.285,502.616l15.173-10.677c0,0-1.625,0.306-2.736-0.245l-6.549-21.978c0,0,6.78-21.171,7.697-25.532
	c-4.973,0-15.088,0-15.088,0l-4.936,20.231l-1.846-0.855c0-2.565,0-6.585,0-8.662c0-3.542,0-7.098,0-10.714
	c-4.837,0-17.543,0-17.543,0s3.018,1.796,3.018,3.506c0,11.313,0,43.283,0,46.961c0,0,9.688,1.161,14.525,1.821
	c0-4.033,0-7.429,0-11.447c0-2.211,0-4.361,0-7.771l1.576,0.855L404.285,502.616"/>
<polyline points="93.469,480.064 93.457,465.368 92.235,465.368 92.235,479.124 75.169,479.124 75.169,499.55 76.378,499.318 
	76.378,480.064 93.469,480.064 "/>
<polyline points="98.833,437.783 91.991,449.951 75.169,449.951 75.169,466.321 76.378,466.321 76.378,450.916 93.212,450.916 
	100.542,437.783 98.833,437.783 "/>
<path d="M93.615,510.337l-38.86,7.892c0,0.781,0,1.233,0,1.233l40.071-8.172v-17.238l-1.211,0.244V510.337"/>
<polyline fill="#BBBDD6" points="75.169,499.55 93.506,495.542 94.826,494.052 76.5,498.035 75.169,499.55 "/>
<polyline fill="#BBBDD6" points="93.457,465.368 76.342,465.368 75.169,466.321 92.126,466.321 93.457,465.368 "/>
<path fill="#BBBDD6" d="M100.542,437.783H53.191c0,0,1.563,2.162,1.563,3.714c0,0.646,0,14.243,0,29.905l-1.601,0.001
	c0,0.244,0,0.514,0,0.757l1.601-0.001c0,21.831,0,47.304,0,47.304l1.221-1.563c0-6.916,0-27.725,0-45.741l39.033-0.023v-0.757
	l-39.033,0.023c0-15.241,0-28.299,0-28.928c0-1.576-1.563-3.738-1.563-3.738h43.81L100.542,437.783z"/>
<polyline points="114.946,476.143 116.193,475.068 118.893,459.272 118.526,455.644 114.946,476.143 "/>
<g>
	<path d="M136.839,496.948l-6.243-51.884h-1.1l6.17,51.334C135.666,496.398,136.094,496.715,136.839,496.948z"/>
	<path d="M135.567,496.52l-10.579,6.866l0.158,1.637l12.314-7.965C136.569,497.008,135.91,496.715,135.567,496.52z"/>
</g>
<path d="M124.28,486.257l-9.456-3.249l-2.211,17.678l-11.521,2.456c-0.097,0.807-0.146,1.246-0.146,1.246l12.89-2.736l1.978-16.848
	l8.625,2.883L124.28,486.257"/>
<path fill="#BBBDD6" d="M129.533,446.042l1.063-0.978H103.67c0.587,0.257,1.112,0.586,1.576,0.978H129.533"/>
<polyline fill="#BBBDD6" points="126.039,502.616 124.28,486.257 123.204,487.333 125.147,505.023 126.039,502.616 "/>
<path fill="#BBBDD6" d="M117.573,471.342h-11.467c1.216-10.521,2.278-19.747,2.426-21.087c0.11-1.063-0.782-2.529-2.748-3.75
	c1.257,1.185,1.612,1.955,1.514,2.797c-0.152,1.392-1.273,11.129-2.533,22.04h-1.523c-0.012,0.269-0.061,0.513-0.072,0.757
	l1.508-0.001c-1.752,15.178-3.732,32.29-3.732,32.29l1.528-1.723c0.638-5.445,2.176-18.72,3.545-30.568l11.444-0.01
	C117.488,471.855,117.536,471.611,117.573,471.342z"/>
<path fill="#BBBDD6" d="M134.799,472.087l-0.086-0.758l-12.68,0.012l-3.507-15.697c-0.074,0.916,0.367,3.628,0.367,3.628
	l2.328,12.069l-0.813,0.001c0.037,0.243,0.099,0.513,0.135,0.745h0.822l1.011,5.24l-6.182-2.26l-1.247,1.075l8.833,3.005
	l-1.578-7.061H134.799z"/>
<path d="M154.882,454.018c0.501,0.185,1.002,0.392,1.515,0.538c0.158,0.049,2.81,1.393,2.957,1.478
	c-0.245-1.099-3.226-2.968-4.19-3.358c-0.5-0.135-1.014-0.33-1.502-0.526c0,2.31,0,12.106,0,12.106l1.111-0.428
	C154.772,462.069,154.882,455.827,154.882,454.018"/>
<polyline points="153.404,470.89 153.416,494.81 142.336,496.386 142.336,497.522 154.625,495.775 154.625,473.406 156.08,474.335 
	156.593,473.113 153.404,470.89 "/>
<path d="M177.022,492.146l-9.667-20.205c0,0,3.274-0.623,4.227-1.637c0.978-1.002,2.675-5.01,2.675-11.387
	c0-5.033-0.892-10.494-2.65-12.168c-0.331-0.305-0.66-0.55-1.014-0.721c1.612,1.82,2.443,7.098,2.443,11.936
	c0,6.365-1.723,10.372-2.677,11.374c-0.953,1.002-4.227,1.648-4.227,1.648l10.005,20.916l-10.127,6.413l0.538,1.405l11.704-7.429
	C178.253,492.292,177.767,492.306,177.022,492.146z"/>
<path fill="#BBBDD6" d="M166.488,446.042c1.82,0,3.518-0.05,4.997,0.806c-0.062-0.098-0.135-0.171-0.208-0.244
	c-1.698-1.625-3.775-1.539-6.011-1.539c-7.207-0.036-18.935,0-26.168,0c0,0,0.635,0.354,1.38,0.978
	C147.711,446.042,159.316,445.992,166.488,446.042"/>
<polyline fill="#BBBDD6" points="166.696,497.986 156.593,473.113 156.08,474.335 166.549,499.721 166.696,497.986 "/>
<path fill="#BBBDD6" d="M153.661,464.255c0,0,5.754,2.383,6.254,2.248c0.501-0.134,1.967,1.101,1.673-5.961
	c-0.122-2.834-2.358-4.594-2.358-4.594s1.479,1.967,1.357,4.972c-0.123,3.03-0.794,3.751-1.295,4.142
	c-0.488,0.379-4.521-1.234-4.521-1.234L153.661,464.255"/>
<path fill="#BBBDD6" d="M171.937,462.105l-4.324,10.336l-2.554-5.949l-2.957,6.842l-2.333-3.36l-2.358,1.698l-2.126-0.317
	l-0.097-0.036h-0.11l-11.486,0.009l0.039-20.473c-0.049-1.954-1.564-3.652-2.639-4.409c0.953,0.892,1.369,2.112,1.393,3.457
	l-0.022,21.426l-1.518,0.002v0.733h1.517l-0.026,25.459l1.209-1.356l0.046-24.103h11.413l2.285,0.378l0.232,0.122l0.183-0.171
	l1.992-1.344l2.552,3.848l2.81-6.584l2.493,6.01L171.937,464l2.053,4.179c0.122-0.343,0.244-0.685,0.354-1.063L171.937,462.105z"/>
<path d="M191.533,456.132c-1.601,0.048-10.08,0.036-12.4,0.061v0.978c0,0,9.432,0.036,12.4-0.024V456.132"/>
<path d="M210.297,456.414c0-3.287,0-11.35,0-11.35h-1.234c0,2.369,0,7.77,0,10.384c-2.504,0-6.4,0.062-8.502,0.122l-0.232,33.241
	c0.005,0.005,0.011,0.007,0.015,0.012l-10.033,6.341v1.748l12.791-8.101c0,0-0.738-0.002-1.556-0.311l0.236-31.978
	C203.883,456.461,207.792,456.414,210.297,456.414z"/>
<path fill="#BBBDD6" d="M209.063,446.042l1.234-0.978h-33.413c0,0,0.612,0.391,1.295,0.978H209.063"/>
<path fill="#BBBDD6" d="M180.379,456.132l0.085-6.414c0-1.454-1.38-3.03-2.114-3.53c0.783,0.721,0.88,1.661,0.88,2.565l-0.098,8.417
	L180.379,456.132"/>
<path fill="#BBBDD6" d="M198.325,459.162l-5.412,16.627l-1.38-2.472v-17.185c-0.318,0.024-1.222,1.014-1.222,1.014v13.984
	l-1.356-2.428v1.539l1.356,2.475v24.195l1.222-2.615v-19.349l1.478,2.698l5.314-15.906l4.569,10.641l0.024-1.809L198.325,459.162z"
	/>
<path d="M228.341,460.81c0.024,0.014,0.561,0.221,1.221,0.478l0.037-16.224c-0.391,0-0.806,0-1.222,0L228.341,460.81"/>
<path d="M249.33,485.408c0-4.791,0-37.162,0-40.344c-0.403,0-0.819,0-1.222,0c0,6.153,0,37.671,0,40.218l-11.814,6.963v1.686
	l14.16-8.344C250.453,485.586,249.908,485.577,249.33,485.408z"/>
<path d="M237.418,474.445c0,0-9.028-4.289-9.041-4.301c0,2.786,0,14.354,0,18.46l-11.643,1.137v1.086l12.865-1.257
	c0-4.105,0-14.551,0-17.349c0.012,0.013,6.621,2.993,6.621,2.993L237.418,474.445"/>
<path fill="#BBBDD6" d="M228.341,460.81c0,0,8.93,3.605,9.064,3.752v-18.521c4.044,0,10.677,0,10.677,0l1.247-0.978h-13.158v17.421
	c-0.061-0.085-6.536-2.749-6.536-2.749L228.341,460.81"/>
<polyline fill="#BBBDD6" points="237.504,491.425 237.418,474.445 236.221,475.214 236.293,493.93 237.504,491.425 "/>
<path fill="#BBBDD6" d="M248.193,473.492l-4.178-11.936l-2.761,15.101l-2.664-9.591l-2.345,3.164l-2.517-4.923l-2.065,3.86
	l-1.832-4.68l-3.104,6.756l-3.677-12.449l-3.921,14.782l-1.173-2.563V448.85c0-1.392-1.576-2.809-1.576-2.809
	c3.678,0,7.709,0,11.947,0l1.271-0.978c-4.997,0-10.055,0-14.453,0c0,0,1.588,1.441,1.588,2.834v20.443l-1.343-2.938v1.857
	l1.343,3.126v20.439l1.222-1.257v-16.338l1.356,3.155l3.824-14.587l3.262,12.107l3.335-7.184l1.821,4.02l2.174-3.604l2.346,4.764
	l2.26-2.92l2.993,11.435l2.92-15.686l3.946,11.508l2.224-8.051c0-0.941,0-1.869,0-2.786L248.193,473.492z"/>
<path d="M273.811,481.005c-1.453-1.723-2.052-5.29-2.052-12.229c0-11.495,0.684-18.227,6.243-18.165c1.27,0,4.422-0.209,5.253,0.183
	c-0.954-1.173-4.484-1.136-6.488-1.16c-5.448-0.086-6.23,6.694-6.23,18.178C270.537,476.448,271.466,479.844,273.811,481.005"/>
<polyline points="300.37,496.984 293.09,505.939 276.035,494.957 267.875,496.326 276.035,494.015 292.687,504.595 297.914,497.668 
	300.37,496.984 "/>
<path d="M272.773,491.316l1.405-1.025h-2.357c0,0-7.367-0.905-11.997-4.716C263.916,490.192,272.773,491.316,272.773,491.316"/>
<path d="M298.954,445.503c2.932,3.678,4.69,9.92,4.69,20.022c0,17.776-5.118,23.335-11.435,24.434l-3.262,0.587l1.807,0.696
	l3.152-0.342c6.097-1.491,10.666-7.99,10.666-24.349C304.573,455.448,302.447,448.973,298.954,445.503"/>
<path fill="#BBBDD6" d="M254.777,466.417c0-19.131,7.965-25.251,24.898-25.251c10.568,0,16.737,1.821,19.279,4.337
	c-2.64-3.311-7.477-5.375-20.366-5.375c-12.864,0-24.763,3.213-24.763,25.251c0,10.507,2.382,16.579,5.999,20.195
	C256.77,481.798,254.777,476.008,254.777,466.417"/>
<path fill="#BBBDD6" d="M300.517,497.046c0,0-1.233,0.133-2.321-0.27c-0.843-0.318-7.524-5.461-7.524-5.461l-1.723-0.732
	l8.844,6.999L300.517,497.046"/>
<polyline fill="#BBBDD6" points="272.786,492.318 274.275,492.049 267.629,496.52 272.786,492.318 "/>
<path fill="#BBBDD6" d="M263.477,480.248l4.605-23.37l5.021,17.055c-0.11-1.026-0.148-2.2-0.209-3.481l-5.045-18.021l-4.508,23.921
	l-3.811-15.431l-3.141,11.839l-3.726-8.504c0,0.502-0.038,1.002-0.038,1.527c0,0.27,0.038,0.514,0.038,0.77l3.921,8.589
	l2.859-10.958L263.477,480.248"/>
<path fill="#BBBDD6" d="M304.708,475.886l-5.571-17.03l-3.335,15.345l-2.883-8.466l-3.056,15.478l-1.462-5.826
	c0.121-1.335,0.191-2.838,0.191-4.582c0-8.796-0.599-17.25-2.979-18.386c1.417,1.722,1.759,10.371,1.759,17.433
	c0,0.475-0.013,0.907-0.022,1.351l-0.931-3.708c0,1.282-0.013,2.431-0.073,3.506l0.831,3.447c-0.715,7.734-3.406,9.063-7.135,9.063
	c-1.076,0-2.004-0.146-2.774-0.513c0.954,1.124,2.249,1.478,3.995,1.478c3.278,0,5.74-1.004,6.782-6.428l1.818,7.54l3.323-16.577
	l2.822,8.44l3.238-15.014l5.265,15.307l0.012-0.024c0.146-0.646,0.27-1.367,0.379-2.088L304.708,475.886z"/>
<path d="M320.112,446.042c0,4.679,0,28.623,0,30.798c0,2.04,0.574,3.579,1.539,3.2c-0.184-0.599-0.293-1.367-0.293-2.223
	c0-2.479,0-32.753,0-32.753L320.112,446.042"/>
<path d="M338.828,446.005c0,5.644,0,29.503,0,32.031c0,7.892-2.358,11.752-8.454,11.459c-4.52-0.244-8.979-0.403-13.499-0.574
	c-2.016-0.061-3.604-0.354-4.825-1.05c1.27,1.392,3.237,1.954,6.06,2.027c4.507,0.159,8.954,0.317,13.499,0.538
	c6.071,0.342,8.441-3.531,8.441-11.436c0-2.736,0-33.95,0-33.95L338.828,446.005"/>
<path fill="#BBBDD6" d="M319.099,473.577l-3.995-6.022l-3.714,6.891l-1.259-2.895c0-6.711,0-15.552,0-20.183
	c0-1.454-0.721-4.704-1.405-5.131c0.489,0.513,0.16,3.384,0.16,4.178c0,4.204,0,11.876,0,18.271l-1.283-2.95
	c0,0.793,0,1.552,0,2.309l1.283,2.974c0,4.129,0,7.374,0,8.18c0,4.838,0.952,7.416,3.164,8.675
	c-1.332-1.466-1.919-3.873-1.919-7.697c0-0.68,0-3.077,0-6.271l1.161,2.691l3.885-7.477l3.812,5.901l3.371-4.374
	c0-0.537,0-1.111,0-1.686L319.099,473.577z"/>
<path fill="#BBBDD6" d="M337.483,473.394l-3.945-14.782l-3.836,15.649l-0.94-2.213c0-8.926,0-26.007,0-26.007l10.055-0.036
	l1.233-0.954l-12.522,0.013c0,0,0.032,14.905,0.026,24.146l-1.333-3.134c0,0.892,0,1.759,0,2.577l1.33,3.018
	c-0.003,2.327-0.011,4.014-0.023,4.533c-0.158,5.668-5.876,3.835-5.876,3.835c-0.049,0.024-0.098,0.024-0.146,0.074
	c0.28,0.831,1.906,1.319,2.627,1.392c1.881,0.122,4.63-1.38,4.63-4.324c0-0.375,0-1.363,0-2.764l1.148,2.604l3.763-14.586
	l3.628,13.829l3.75-8.418c0-0.659,0-1.319,0-2.002L337.483,473.394z"/>
<path d="M363.908,480.931l-7.977-3.506c-0.232,2.907-1.271,10.055-1.588,13.17c-4.875-0.343-6.549-0.514-10.312-0.77
	c-0.061,0.379-0.11,0.672-0.146,0.854c4.594,0.281,6.242,0.489,11.691,0.892c0.293-3.126,1.356-9.161,1.575-12.057l6.927,3.029
	L363.908,480.931"/>
<path d="M376.206,488.166l-6.066-43.102h-1.1l5.986,42.477l-10.434,6.597l0.184,1.638l11.923-7.574
	C376.699,488.201,376.488,488.211,376.206,488.166z"/>
<path d="M356.566,471.048l1.393,0.525c0.245-2.247,2.224-15.441,2.224-15.441l-0.378-3.604L356.566,471.048"/>
<path fill="#BBBDD6" d="M349.615,446.042h19.547l0.978-0.978h-21.771C348.369,445.064,349.005,445.406,349.615,446.042"/>
<polyline fill="#BBBDD6" points="365.631,493.32 363.908,480.931 363.029,482.129 364.776,495.775 365.631,493.32 "/>
<path fill="#BBBDD6" d="M359.805,452.528c-0.074,0.94,0.378,3.604,0.378,3.604l2.871,16.296l-4.875-2.234l-1.478,0.989l7.563,3.335
	C363.872,471.183,359.805,452.528,359.805,452.528"/>
<path fill="#BBBDD6" d="M375.258,472.197l-2.565,4.838l-4.215-6.646l-3.934,7.513l-2.248-3.262l-1.381,2.199l-2.369-3.763
	l-1.747,2.247l-1.271-2.357l-1.516,2.785l-2.932-10.055l-3.005,6.513l-0.212-0.379c1.2-8.66,2.503-18.054,3.083-22.21
	c0.293-2.102-1.039-3.421-1.332-3.567c0.599,0.623,0.257,1.502,0.11,2.603c-0.596,4.295-1.793,12.916-2.95,21.239l-0.972-1.729
	c-0.061,0.416-0.109,0.794-0.159,1.197l0.944,1.87c-1.408,10.135-2.703,19.447-2.703,19.447l1.49-0.892c0,0,1.06-7.65,2.278-16.446
	l0.495,0.979l2.749-6.083l2.883,10.03l1.808-3.494l1.21,2.004l1.601-2.065l2.577,3.556l1.38-2.249l2.249,3.69l3.872-7.647
	l4.264,6.706l2.737-5.094L375.258,472.197z"/>
<path d="M393.853,453.689c0,1.832,0.061,9.271,0.061,11.557l1.173-0.83c0-1.723,0-8.357,0-9.773c0-3.164,0-6.316,0-9.578
	c-0.354,0-0.782,0-1.233,0C393.853,447.971,393.853,450.805,393.853,453.689"/>
<path d="M415.797,492.515l-6.589-23.006c0,0,6.5-20.561,7.33-24.445c-0.488,0-0.99,0-1.466,0c-1.38,5.362-7.244,23.09-7.244,23.09
	l6.914,24.03l-10.14,7.256c0.22,1.002,0.379,1.552,0.379,1.552l11.74-8.368C416.722,492.624,416.33,492.624,415.797,492.515z"/>
<path d="M398.726,475.935l-4.873-2.492c0,3.043,0,5.205,0,7.195c0,3.604,0,10.092,0,13.72c-3.349-0.464-8.639-1.173-11.179-1.491
	c0,0.355,0,0.624,0,0.819c0,0,8.075,1.025,12.412,1.649c0-3.629,0-10.116,0-13.744c0-1.955,0-2.883,0-5.937l3.286,1.538
	L398.726,475.935"/>
<polyline fill="#BBBDD6" points="393.913,465.246 399.251,467.64 404.798,446.042 414.791,446.042 416.538,445.064 403.588,445.064 
	398.665,465.845 395.086,464.255 393.913,465.246 "/>
<polyline fill="#BBBDD6" points="405.409,498.755 398.726,475.935 398.372,477.193 404.981,500.992 405.409,498.755 "/>
<path fill="#BBBDD6" d="M393.853,446.042l1.233-0.978h-14.489c0,0,0.672,0.403,1.332,0.978
	C382.869,446.042,393.853,446.042,393.853,446.042"/>
<path fill="#BBBDD6" d="M410.625,471.342l-10.433-0.013l-3.189-0.94l-1.954,1.001l-2.761-1.82l-1.991,2.688l-3.079-3.323
	l-2.492,4.704l-0.843-1.356c0-9.197,0-18.899,0-23.127c0-1.173-0.952-2.394-1.711-2.896c0.612,0.563,0.502,1.259,0.502,1.943
	c0,4.337,0,13.302,0,22.134l-1.223-1.965c0,0.452,0,0.916,0,1.369l1.223,2.084c0,11.255,0,21.86,0,21.86l1.209-0.758
	c0,0,0-9.005,0-19.041l0.843,1.437l2.688-4.825l2.748,3.141l2.261-2.884l2.443,1.686l2.309-1.173l2.564,0.795l11.106,0.024
	L410.625,471.342z"/>
<path d="M448.533,445.064l-5.705,10.115l-8.882-0.049c0,1.918,0,12.033,0,12.033h1.246c0-1.527,0-9.688,0-11.068l8.87,0.037
	l6.206-11.068H448.533"/>
<polyline points="435.07,477.609 444.281,477.914 444.258,466.285 443.049,466.285 443.049,476.95 433.825,476.644 433.825,491.267 
	435.07,491.524 435.07,477.609 "/>
<path d="M443.354,502.335l-20.671-3.775c0,0.317,0,0.574,0,0.758l21.918,3.982l4.482-10.543l-1.722,0.195L443.354,502.335"/>
<polyline fill="#BBBDD6" points="435.106,490.791 433.825,491.267 446.872,493.808 449.083,492.757 446.688,493.027 
	435.106,490.791 "/>
<polyline fill="#BBBDD6" points="444.258,466.285 435.106,466.223 433.946,467.164 443.061,467.237 444.258,466.285 "/>
<path fill="#BBBDD6" d="M450.269,445.064h-28.917c0,0,1.331,1.196,1.331,3.262c0,4.449,0,13.635,0,23.017h-1.575
	c0,0.243,0,0.5,0,0.745h1.575c0,12.558,0,25.254,0,27.23l1.223-0.587c0-4.198,0-15.577,0-26.644h21.317v-0.745h-21.317
	c0-9.05,0-17.776,0-22.064c0-2.052-1.32-3.236-1.32-3.236h25.276L450.269,445.064z"/>
<path d="M494.358,441.693l-0.086,8.709l-14.086,6.902c0,0.795,0,1.454,0,1.564l15.332-7.501l0.061-9.053
	c0-3.543,0.673-3.079,2.591-4.984C495.433,438.491,494.358,438.087,494.358,441.693"/>
<path d="M490.632,474.958c0,0-19.339-15.625-20.291-17.213c-0.379-0.635-0.331-1.576-0.331-2.285c0-0.231,0.038-3.506,0.074-3.688
	c0.366-1.21,5.668-1.002,6.706-1.002c0.66,0,1.503-0.062,2.236,0.146c-0.648-1.295-2.346-1.136-3.494-1.136
	c-1.014,0-6.304-0.185-6.658,1.025c-0.061,0.159-0.061,3.445-0.061,3.677c0,0.697-0.074,1.65,0.305,2.297
	c0.953,1.602,20.292,17.201,20.292,17.201c6.06,4.313,5.021,19.437,5.021,26.658l-0.366,8.013c0,9.321-3.849,11.924-11.057,9.285
	l-22.088-8.601c-1.331-0.514-2.504-1.074-3.493-1.759c1.221,1.074,2.748,1.991,4.702,2.712l22.101,8.613
	c7.207,2.662,11.031,0.036,11.031-9.273l0.403-8.014C495.665,494.371,496.704,479.247,490.632,474.958"/>
<path d="M470.572,497.472c-0.342-0.524-0.524-1.318-0.524-2.576v-7.855l-1.223,0.439v6.45
	C468.825,496.3,469.497,497.046,470.572,497.472"/>
<path fill="#BBBDD6" d="M479.882,452.588c0.183,0.355,0.305,0.795,0.305,1.405c0,0.209,0,4.558,0,4.875l1.223-2.211
	c0,0,0-1.625,0-1.711C481.409,453.468,480.725,452.833,479.882,452.588"/>
<path fill="#BBBDD6" d="M454.703,496.227v-2.505l14.11-4.861l1.234-1.82l-16.567,5.717v2.48c0,6.304,1.161,10.555,5.168,13.303
	C455.606,505.792,454.703,501.81,454.703,496.227"/>
<path fill="#BBBDD6" d="M463.328,438.308h32.984c0,0,0.685-0.416,1.857-0.978h-36.064c-3.249,0.782-8.44,4.495-8.44,12.168v8.271
	c0,7.207,2.174,9.999,6.795,13.573h-1.823c0.305,0.243,0.599,0.5,0.917,0.745h1.842l17.032,13.584
	c1.552,1.698,1.014,6.854,1.014,12.56c0,3.128-3.75,1.355-5.534,0.855c-0.464-0.123-0.867-0.257-1.258-0.403
	c0.524,0.83,1.38,1.062,2.468,1.367c1.795,0.502,5.546,2.261,5.546-0.855c0-5.704,0.537-10.859-1.002-12.558l-17.921-14.293
	c-0.112-0.087-0.218-0.171-0.327-0.257h27.509c-0.281-0.232-0.574-0.477-0.88-0.745h-27.556c-3.8-3.151-5.588-6.074-5.588-12.608
	v-8.283C454.898,442.803,460.065,439.078,463.328,438.308z"/>
<path fill="#BBBDD6" d="M320.039,446.042l1.319-0.978h-14.245c0,0,0.733,0.354,1.418,0.978H320.039"/>
<path fill="#004385" d="M296.876,523.985l-22.673-15.017l-32.491,2.454c13.188,13.313,27.138,26.1,41.909,38.143
	c18.306-14.364,35.329-29.753,51.185-45.821c-7.134-0.329-14.253-0.516-21.24-0.516L296.876,523.985z"/>
</svg>
