<?xml version="1.0" encoding="utf-8"?>
<!-- Generator: Adobe Illustrator 16.0.4, SVG Export Plug-In . SVG Version: 6.00 Build 0)  -->
<!DOCTYPE svg PUBLIC "-//W3C//DTD SVG 1.1//EN" "http://www.w3.org/Graphics/SVG/1.1/DTD/svg11.dtd">
<svg version="1.1"
	 id="svg2" xmlns:svg="http://www.w3.org/2000/svg" xmlns:dc="http://purl.org/dc/elements/1.1/" xmlns:cc="http://creativecommons.org/ns#" xmlns:rdf="http://www.w3.org/1999/02/22-rdf-syntax-ns#"
	 xmlns="http://www.w3.org/2000/svg" xmlns:xlink="http://www.w3.org/1999/xlink" x="0px" y="0px" viewBox="30 30.626 960 433.748" enable-background="new 30 30.626 960 433.748" xml:space="preserve">
<g id="g3031" transform="translate(0,160)">
	<path id="path3016" fill="#0085C7" d="M233.167,159.695c56.043-21.565,95.911-75.972,95.911-139.525
		c0-82.405-67.026-149.431-149.431-149.431S30-62.235,30,20.17c0,82.404,67.242,149.431,149.646,149.431
		c3.152,0,6.281-0.099,9.385-0.292c-1.228-8.998-0.82-23.635,0.272-29.456c-3.185,0.252-6.405,0.38-9.657,0.38
		c-66.462,0-120.062-53.601-120.062-120.062c0-66.462,53.6-120.063,120.062-120.063v0c66.462,0,119.847,53.601,119.847,120.062
		c0,45.652-25.188,85.235-62.5,105.549C235.176,133.624,232.891,150.58,233.167,159.695L233.167,159.695z"/>
	<path id="path3790" fill="#F4C300" d="M464.503,170.982c-7.776,58.839-57.773,104.023-118.796,104.023
		c-66.462,0-120.062-53.6-120.062-120.062c0-45.545,25.171-85.05,62.403-105.405c2.608-10.236,4.191-21.305,3.781-33.994
		c-55.929,21.652-95.769,75.969-95.769,139.399c0,82.405,67.242,149.431,149.646,149.431c75.108,0,137.44-55.682,147.89-127.938
		C485.938,176.234,469.859,172.957,464.503,170.982L464.503,170.982z M493.256,131.215C481.856,60.049,420.039,5.513,345.707,5.513
		c-3.267,0-6.51,0.105-9.726,0.312c1.797,6.934,1.772,22.866-0.096,29.448v0c3.238-0.261,6.514-0.394,9.821-0.394
		c55.043,0,101.116,36.764,115.323,87.15C470.735,125.727,481.153,128.985,493.256,131.215L493.256,131.215z"/>
	<path id="path3842" fill="#DF0024" d="M692.868,43.129c9.247,59.333,54.009,109.789,116.13,123.208
		c80.547,17.399,160.214-33.963,177.613-114.51c17.399-80.547-33.918-160.424-114.465-177.824S711.887-91.823,694.488-11.276
		c-0.666,3.081-1.23,6.16-1.697,9.235c9.056,0.701,23.275,4.189,28.735,6.486c0.426-3.166,0.98-6.341,1.667-9.52
		c14.033-64.964,77.743-106.038,142.707-92.005c64.964,14.033,106.038,77.743,92.005,142.707l0,0
		c-14.033,64.964-77.697,105.827-142.661,91.794c-44.622-9.639-77.995-42.616-89.972-83.376
		C717.928,50.598,701.837,44.784,692.868,43.129z"/>
	<path id="path3850" d="M391.184,4.131c7.775-58.838,57.773-104.023,118.796-104.023c66.462,0,120.062,53.6,120.062,120.062
		c0,45.545-25.171,85.051-62.403,105.405c-2.608,10.236-4.191,21.306-3.781,33.993c55.929-21.651,95.769-75.969,95.769-139.398
		c0-82.405-67.242-149.431-149.646-149.431c-75.108,0-137.44,55.682-147.89,127.939C369.748-1.121,385.827,2.156,391.184,4.131
		L391.184,4.131z M362.431,43.898c11.399,71.166,73.217,125.702,147.549,125.702c3.267,0,6.51-0.106,9.726-0.312
		c-1.798-6.935-1.772-22.866,0.096-29.448l0,0c-3.238,0.26-6.514,0.393-9.821,0.393c-55.043,0-101.116-36.764-115.323-87.15
		C384.951,49.387,374.532,46.128,362.431,43.898L362.431,43.898z"/>
	<path id="path3852" fill="#0DA447" d="M794.988,170.982c-7.776,58.839-57.774,104.024-118.796,104.024
		c-66.463,0-120.063-53.601-120.063-120.063c0-45.545,25.172-85.05,62.404-105.405c2.608-10.236,4.19-21.305,3.78-33.994
		c-55.929,21.652-95.768,75.969-95.768,139.399c0,82.405,67.241,149.431,149.646,149.431c75.108,0,137.44-55.682,147.89-127.938
		C816.423,176.234,800.344,172.957,794.988,170.982L794.988,170.982z M823.741,131.215C812.342,60.049,750.523,5.513,676.192,5.513
		c-3.268,0-6.511,0.105-9.727,0.312c1.798,6.934,1.772,22.866-0.096,29.448v0c3.239-0.261,6.515-0.394,9.822-0.394
		c55.042,0,101.115,36.764,115.323,87.15C801.22,125.727,811.639,128.985,823.741,131.215z"/>
</g>
</svg>
