<?xml version="1.0" encoding="utf-8"?>
<!-- Generator: Adobe Illustrator 16.0.4, SVG Export Plug-In . SVG Version: 6.00 Build 0)  -->
<!DOCTYPE svg PUBLIC "-//W3C//DTD SVG 1.1//EN" "http://www.w3.org/Graphics/SVG/1.1/DTD/svg11.dtd">
<svg version="1.1"
	 id="svg3166" xmlns:sodipodi="http://sodipodi.sourceforge.net/DTD/sodipodi-0.dtd" xmlns:svg="http://www.w3.org/2000/svg" xmlns:dc="http://purl.org/dc/elements/1.1/" xmlns:cc="http://creativecommons.org/ns#" xmlns:rdf="http://www.w3.org/1999/02/22-rdf-syntax-ns#" xmlns:inkscape="http://www.inkscape.org/namespaces/inkscape" sodipodi:version="0.32" inkscape:output_extension="org.inkscape.output.svg.inkscape" inkscape:version="0.48.2 r9819" sodipodi:docname="AJAX.svg"
	 xmlns="http://www.w3.org/2000/svg" xmlns:xlink="http://www.w3.org/1999/xlink" x="0px" y="0px" viewBox="-7.88 0 523.146 454.669" enable-background="new -7.88 0 523.146 454.669" xml:space="preserve">
<defs>
	
	
		<inkscape:perspective  id="perspective3174" inkscape:persp3d-origin="320 : 160 : 1" inkscape:vp_z="640 : 240 : 1" sodipodi:type="inkscape:persp3d" inkscape:vp_x="0 : 240 : 1" inkscape:vp_y="0 : 1000 : 0">
		</inkscape:perspective>
	
		<inkscape:perspective  id="perspective2450" inkscape:persp3d-origin="372.04724 : 350.78739 : 1" inkscape:vp_z="744.09448 : 526.18109 : 1" sodipodi:type="inkscape:persp3d" inkscape:vp_x="0 : 526.18109 : 1" inkscape:vp_y="0 : 1000 : 0">
		</inkscape:perspective>
</defs>
<sodipodi:namedview  showgrid="false" fit-margin-left="0" inkscape:zoom="2.191254" inkscape:cy="216.74342" bordercolor="#666666" pagecolor="#ffffff" inkscape:cx="432.04417" fit-margin-top="0" borderopacity="1.0" id="base" inkscape:window-maximized="0" inkscape:current-layer="g2452" fit-margin-bottom="0" fit-margin-right="0" inkscape:window-y="-8" inkscape:window-x="-8" inkscape:pageopacity="0.0" inkscape:window-width="1280" inkscape:pageshadow="2" inkscape:window-height="1000" inkscape:document-units="px">
	</sodipodi:namedview>
<g>
	<polygon fill="none" points="-7.88,454.669 515.266,454.669 515.266,0 -7.88,0 -7.88,454.669 	"/>
	<g id="g3202">
		<g id="g3208" transform="translate(472.4966,659.60361)">
			<path id="path3210" inkscape:connector-curvature="0" fill="#FFFFFF" d="M-368.507-485.902c4.887-1.68,4.887-1.119,0.544-3.359
				c-4.347-2.241-21.104-7.756-21.104-7.756s-1.085,4.953-0.544,6.637c0.544,1.68,0.544,5.711,0,7.948
				C-389.61-482.432-373.395-484.218-368.507-485.902"/>
		</g>
		<g id="g3212" transform="translate(476.114,652.8625)">
			<path id="path3214" inkscape:connector-curvature="0" fill="#FFFFFF" d="M-357.751-451.542
				c-6.461,4.101-12.628,5.24-24.087,5.944c1.033,2.278,3.688,4.232,7.625,3.966c-3.981,3.667-5.9,6.555-6.333,8.718
				c9.167-4.31,15.846-6.391,28.232-5.703c20.098,1.123,20.476-8.059,15.584-15.9C-341.618-462.355-352.513-454.865-357.751-451.542
				"/>
		</g>
		<g id="g3216" transform="translate(518.44099,656.093)">
			<path id="path3218" inkscape:connector-curvature="0" fill="#FFFFFF" d="M-231.889-468.009l-17.977,8.575
				c-1.271,2.048-2.511,4.113-3.739,6.183l19.638-9.575c-4.093,10.403-8.051,21.391-11.555,31.683
				c-6.294,4.302-19.979,9.464-25.077,11.32c-0.576,1.397-1.132,2.79-1.669,4.183c5.309-1.782,18.934-6.576,25.168-10.82
				c-5.65,16.884-9.89,31.203-11.233,36.726c-0.218,0.897,0.314,1.811,1.188,2.037c0.874,0.225,1.756-0.32,1.975-1.221
				c1.292-5.318,5.305-18.261,10.479-33.539c2.507,7.039,7.804,15.901,12.814,21.375c1.041-1.02,1.788-1.712,2.321-2.147
				c0.012-0.09,0.028-0.192,0.04-0.283c-5.333-5.826-10.741-17.31-13.029-25.234c3.21-9.3,6.747-19.162,10.295-28.52
				c1.975,4.961,7.462,13.946,9.739,17.597c0.409-1.803,0.827-3.642,1.256-5.506c-2.301-3.438-7.856-12.054-9.104-17.032
				c5.857-15.118,11.591-28.335,15.767-34.788c1.251-1.942,3.131-7.108,1.605-7.768C-218.701-497.897-225.4-483.958-231.889-468.009
				"/>
		</g>
		<g id="g3220" transform="translate(568.79739,630.5822)">
			<path id="path3222" inkscape:connector-curvature="0" fill="#FFFFFF" d="M-82.152-337.978c-0.913-0.217-1.812-0.455-2.766-0.664
				c-8.388-1.856-18.19-4.056-32.146-22.186l7.327-22.669c5.332,9.317,9.25,16.434,10.752,19.748c0.378,0.84,1.348,1.2,2.166,0.811
				c0.814-0.393,1.168-1.397,0.787-2.233c-1.582-3.499-5.679-10.935-11.222-20.596l20.635,3.872
				C-82.66-367.829-80.864-353.137-82.152-337.978 M-144.584-408.366l7.653-21.354c9.036,15.122,17.988,30.261,24.994,42.4
				l-7.522,23.276C-126.651-373.996-134.913-388.131-144.584-408.366 M-164.881-454.987l2.917-16.302
				c6.664,10.984,14.734,24.353,22.864,37.935l-7.463,20.809C-152.181-424.549-158.261-438.578-164.881-454.987 M-187.745-515.562
				c-0.19-0.979,0.271-1.766,1.406-0.783c2.854,2.807,6.115,5.924,9.795,9.432c9.664,9.202,21.589,20.555,33.684,33.698l-19.45-4.9
				c-6.962-11.456-11.829-19.371-12.608-20.584c-0.5-0.774-1.51-0.983-2.261-0.467c-0.747,0.516-0.953,1.557-0.453,2.327
				c1.275,1.975,6.243,10.046,13.105,21.337l-2.643,14.787C-173.532-476.738-180.374-494.917-187.745-515.562 M-106.684-426.397
				l-29.894-9.096c-8.316-13.881-16.55-27.503-23.253-38.537l21.036,5.301C-127.454-456.048-116.181-441.839-106.684-426.397
				 M-104.173-422.194c6.795,11.607,12.518,23.874,16.482,36.681l-21.763-4.081c-6.95-12.025-15.716-26.82-24.561-41.61
				l29.523,8.985C-104.383-422.19-104.276-422.202-104.173-422.194 M-174.33-509.383c-7.033-6.694-12.7-12.094-16.499-16.306
				c-0.747,1.34-1.652,2.585-2.689,3.683c62.317,176.543,87.593,182.164,107.922,186.655c1.565,0.344,3.043,0.672,4.506,1.077
				l1.844,0.521l0.198-1.967C-71.347-411.353-138.341-475.124-174.33-509.383"/>
		</g>
		<g id="g3224" transform="translate(461.58971,623.103)">
			<path id="path3226" inkscape:connector-curvature="0" fill="#FFFFFF" d="M-400.939-299.856c-0.862-0.385-2.034-0.156-1.72,1.135
				c0,0,1.879,9.165,1.879,13.09c0,1.721-0.143,3.233-0.394,4.564c7.073,23.968,29.305,10.73,13.141-8.03
				C-393.445-291.515-397.709-298.406-400.939-299.856"/>
		</g>
		<g id="g3228" transform="translate(545.46609,627.2133)">
			<path id="path3230" inkscape:connector-curvature="0" fill="#FEE011" d="M-151.529-320.807
				c-1.982-4.499-4.562-16.589-7.458-32.904l-11.162,14.271c3.322,10.673,7.315,20.989,12.144,30.654L-151.529-320.807z"/>
		</g>
		<g id="g3232" transform="translate(542.92059,644.0497)">
			<path id="path3234" inkscape:connector-curvature="0" fill="#FEE011" d="M-159.097-406.623
				c1.792,11.402,3.548,22.227,5.209,31.785l22.375,12.5c-0.302-8.743-1.22-18.584-2.976-29.646L-159.097-406.623z"/>
		</g>
		<g id="g3236" transform="translate(537.5025,648.66991)">
			<path id="path3238" inkscape:connector-curvature="0" fill="#FEE011" d="M-175.209-430.173c0.886,9.702,2.11,19.576,3.743,29.425
				l13.888-14.315c-1.406-9.038-2.845-18.437-4.283-27.922L-175.209-430.173z"/>
		</g>
		<g id="g3240" transform="translate(539.81821,674.7614)">
			<path id="path3242" inkscape:connector-curvature="0" fill="#FEE011" d="M-168.322-563.163c-1.519,0.905-3.171,1.59-4.932,2
				c5.726,12.717,10.816,24.746,15.342,36.14C-161.432-536.847-164.909-549.524-168.322-563.163"/>
		</g>
		<g id="g3244" transform="translate(539.0657,668.399)">
			<path id="path3246" inkscape:connector-curvature="0" fill="#FEE011" d="M-170.56-530.733
				c2.495,15.438,5.288,33.936,8.165,52.996c0.572,3.802,1.156,7.645,1.74,11.5l21.954,12.676
				c-6.035-22.448-14.944-48.583-27.767-79.057C-168.18-536.731-171.418-534.842-170.56-530.733"/>
		</g>
		<g id="g3248" transform="translate(541.7191,651.62711)">
			<path id="path3250" inkscape:connector-curvature="0" fill="#FEE011" d="M-162.67-445.246c1.363,8.997,2.742,18.019,4.104,26.766
				l24.568,14.61c-1.51-8.707-3.536-18.146-6.167-28.376L-162.67-445.246z"/>
		</g>
		<g id="g3252" transform="translate(540.70911,652.7756)">
			<path id="path3254" inkscape:connector-curvature="0" fill="#FEE011" d="M-165.673-451.099
				c-0.529-3.499-1.058-7.002-1.586-10.501c-2.877-19.063-5.67-37.549-8.161-52.955c-0.568-3.523-4.196-3.741-4.482,1.254
				c-0.839,20.006-1.2,46.539,1.124,74.78L-165.673-451.099z"/>
		</g>
		<g id="g3256" transform="translate(543.3951,636.31149)">
			<path id="path3258" inkscape:connector-curvature="0" fill="#FEE011" d="M-157.686-367.181
				c-1.642-9.448-3.37-20.108-5.146-31.433l-13.827,14.266c1.919,10.792,4.343,21.53,7.406,31.958L-157.686-367.181z"/>
		</g>
		<g id="g3260" transform="translate(553.3694,637.9032)">
			<path id="path3262" inkscape:connector-curvature="0" fill="#FEE011" d="M-128.028-375.294
				c-6.135-9.395-13.359-23.509-18.48-35.559c16.228,69.335,3.572,100.464-2.364,115.058l-1.229,3.052c0,0-1.045,2.61-1.053,2.63
				l-1.725-2.2c-51.843-66.061-44.21-188.797-41.702-229.125c0.06-0.983,0.119-1.909,0.171-2.807
				c-0.397-0.086-0.787-0.192-1.177-0.307l-3.286,0.979c-1.629,8.399-1.629,91.856,0.541,117.062
				c2.173,25.206,8.153,57.691,8.694,71.129c1.088,2.807,14.511,24.91,19.554,34.731c4.887,9.518,11.952,21.28,13.581,32.486
				C-128.226-295.061-123.013-338.453-128.028-375.294"/>
		</g>
		<g id="g3264" transform="translate(549.8862,632.29559)">
			<path id="path3266" inkscape:connector-curvature="0" fill="#FEE011" d="M-138.384-346.712l-21.728-12.135
				c2.925,16.462,5.487,28.458,7.315,31.949l11.952,10.841C-139.267-324.268-138.206-334.338-138.384-346.712"/>
		</g>
		<g id="g3268" transform="translate(547.3669,618.8177)">
			<path id="path3270" inkscape:connector-curvature="0" fill="#FEE011" d="M-145.876-278.013c1.959-4.814,4.656-11.48,6.763-20.805
				l-12.032-10.915l-6.957,12.914c3.592,6.777,7.589,13.213,12.071,19.191L-145.876-278.013z"/>
		</g>
		<g id="g3272" transform="translate(533.8441,618.66879)">
			<path id="path3274" inkscape:connector-curvature="0" fill="#FEE011" d="M-186.087-277.255
				c-6.945-3.322-14.312-8.05-18.918-12.815c-0.918-9.247-1.319-23.587-1.196-40.479c5.909,5.445,17.135,12.57,21.128,15.041
				C-184.367-301.096-184.879-288.37-186.087-277.255 M-189.62-255.749c-3.938,4.208-11.996-5.072-15.259-11.316l-1.084,3.36
				c-5.011,10.329-8.738,8.874-11.429,5.617c-1.529-6.596-2.812-13.336-3.857-20.219c3.294-1.844,11.03-6.269,14.443-9.03
				c4.379,4.802,17.138,12.066,20.285,13.819C-187.351-266.995-188.419-261.079-189.62-255.749 M-224.595-322.548l14.512-10.234
				c-0.067,16.798,0.477,31.429,1.642,41.7c-3.589,3.482-10.288,7.337-13.359,9.018
				C-223.597-295.073-224.519-308.573-224.595-322.548 M-222.024-367.734c2.813-1.991,10.224-7.375,13.398-11.062
				c-0.822,14.455-1.303,28.708-1.43,41.794c-3.307,3.028-10.657,8.292-14.567,11.042
				C-224.559-339.448-223.677-353.39-222.024-367.734 M-219.834-384.282c3.096-20.121,7.112-37.296,12.592-55.266
				c1.141-4.699,4.916-5.269,4.344-0.279c-2.404,17.257-4.216,36.645-5.42,55.893c-1.947,3.04-10.058,9.472-13.229,11.922
				C-221.038-376.068-220.47-380.157-219.834-384.282 M-194.55-438.302c0.934,23.39,2.654,50.021,4.191,69.199
				c-3.826-2.339-10.152-7.039-14.284-11.09c1.12-20.842,2.833-41.901,5.142-59.928
				C-198.366-445.996-195.119-444.178-194.55-438.302 M-188.022-345.012c1.339,9.022,2.197,17.511,2.706,25.542
				c-5.523-3.257-15.505-10.316-20.842-15.889c0.155-12.647,0.588-26.5,1.292-40.565c4.343,4.084,11.038,8.923,14.881,11.34
				C-189.214-355.373-188.515-348.351-188.022-345.012 M-191.26-494.94c-14.464,36.984-26.19,73.702-31.797,110.129
				c-9.858,64.062-4.641,120.446,15.485,167.624c0.048,0.93,1.648,2.467,3.238,2.986c1.899,0.615,2.261-1.118,3.505-2.958
				c2.948-4.339,28.415-44.789,16.033-128.365C-187.247-362.023-194.495-480.473-191.26-494.94"/>
		</g>
		<g id="g3276" transform="translate(510.9424,617.80479)">
			<path id="path3278" inkscape:connector-curvature="0" fill="#FEE011" d="M-254.187-272.851c-0.131-3.208,0.596-4.404,0.886-4.757
				c3.584-1.2,6.318,3.249,8.369,9.477c0.711,4.437,0.949,8.354,0.874,11.808C-249.1-260.539-253.92-266.238-254.187-272.851
				 M-200.786-510.456v0.516c1.797-0.074,3.199-1.635,3.132-3.487c-0.071-1.856-1.586-3.302-3.382-3.232
				c-31.423-0.828-78.708,3.552-106.773,9.78c-1.395-14.16-5.738-22.714-10.677-32.412c-2.94-5.765-5.98-11.73-8.718-19.641
				c-3.366-9.714-3.291-16.696,0.21-19.658c4.319-3.646,13.844-1.999,20.031,1.828c1.073,0.664,2.273,1.45,3.544,2.286
				c11.781,7.735,31.502,20.682,52.82,3.646c5.988-4.786,10.852-6.621,14.444-5.458c6.628,2.135,10.327,14.295,13.912,26.045
				l0.222,0.729c2.317,7.612,6.62,13.078,12.775,16.237c8.28,4.249,19.637,1.524,25.089-1.667c1.565-0.918,2.11-2.454,1.224-4.064
				c-0.89-1.614-2.881-2.18-4.446-1.262c-3.489,2.048-12.067,5.031-18.962,1.491c-4.514-2.311-7.693-6.949-9.461-12.75l-0.219-0.721
				c-4.088-13.406-8.309-26.746-18.183-29.938c-5.837-1.884-12.501,0.262-20.389,6.563c-17.686,14.135-34.319,3.22-45.326-4.007
				c-1.307-0.86-2.539-1.667-3.695-2.376c-6.473-4.011-19.665-8.411-27.509-1.778c-5.964,5.035-6.711,14.16-2.221,27.114
				c2.896,8.358,6.187,14.815,9.083,20.506c8.118,15.925,14.527,28.503,7.069,73.01c-10.641,63.534-12.386,88.669,9.783,121.241
				c4.661,6.858,8.663,12.25,12.195,17.007c12.544,16.9,17.738,23.907,19.264,53.5c1.057,20.457,7.295,35.345,16.693,39.823
				c4.454,2.126,9.23,1.594,13.108-1.455c3.254-2.556,5.575-6.625,7.001-11.709c0.433,0.258,0.862,0.512,1.264,0.738
				c3.723,2.13,10.224-0.25,14.198-5.199c4.009-4.986,10.939-19.551-11.198-46.936c-5.336-6.601-11.206-12.722-16.888-18.634
				c-6.429-6.69-12.5-13.012-17.825-19.948c-10.057-13.103-22.582-29.409-18.866-72.674l2.193-26.168
				c1.514-18.461,1.605-19.563,3.155-25.963c2.078-8.551,4.995-12.693,6.405-12.898c0.664-0.102,2.468,0.922,5.007,5.384
				c5.154,9.067,9.998,13.139,14.404,12.107c5.233-1.229,6.425-8.628,6.866-14.086c1.578-19.563,4.578-20.555,4.705-20.587
				c0.016-0.004,1.732-0.049,5.726,5.502c5.134,7.154,8.491,11.492,12.628,10.677c4.391-0.86,5.694-5.9,9.179-19.363l0.799-3.081
				c0.461-1.794-0.564-3.638-2.305-4.118c-1.736-0.483-3.524,1.098-3.99,2.889l-0.807,3.093c-1.573,6.096-3.075,11.881-4.184,14.028
				c-1.701-1.508-4.808-5.826-6.087-7.608c-2.98-4.15-7.546-9.493-12.743-7.965c-5.293,1.553-8.022,9.227-9.421,26.488
				c-0.469,5.847-1.51,7.588-1.852,8.018c-0.965-0.312-3.803-2.729-7.295-8.874c-1.343-2.364-5.424-10.067-11.559-9.157
				c-6.39,0.942-9.942,10.267-11.797,17.925c-1.677,6.92-1.8,8.44-3.326,27.024l-2.193,26.143
				c-3.946,45.928,10.037,64.144,20.25,77.439c5.551,7.227,12.032,13.979,18.302,20.506c5.586,5.81,11.356,11.824,16.514,18.203
				c12.553,15.532,16.947,29.052,12.06,37.099c-2.408,3.958-6.12,4.986-7.013,4.79c-0.839-0.479-1.848-1.09-2.953-1.794
				c0.537-5.228,0.314-11.165-0.719-17.593c-1.232-7.596-8.539-15.614-15.862-14.827c-2.857,0.303-6.691,2.565-6.322,11.603
				c0.425,10.48,8.408,18.633,15.794,24.021c-1.108,5.146-3.107,8.522-5.193,10.165c-1.979,1.553-4.136,1.791-6.421,0.701
				c-5.281-2.52-11.83-12.951-12.922-34.083c-1.633-31.675-7.573-39.68-20.595-57.228c-3.493-4.704-7.451-10.042-12.04-16.782
				c-20.746-30.486-18.989-54.729-8.69-116.238c2.762-16.499,3.671-28.794,3.342-38.623
				C-279.228-507.453-236.56-511.546-200.786-510.456"/>
		</g>
		<g id="g3280" transform="translate(494.50639,616.0168)">
			<path id="path3282" inkscape:connector-curvature="0" fill="#E7A908" d="M-303.06-263.737
				c-7.737-2.18-11.293-14.184-7.947-26.815c3.35-12.627,12.33-21.1,20.066-18.92c7.737,2.184,11.293,14.184,7.947,26.82
				C-286.339-270.03-295.327-261.557-303.06-263.737 M-333.938-330.298c-38.567-11.759-14.047-60.915,3.803-56.003
				C-353.496-364.455-341.718-339.082-333.938-330.298 M-379.026-394.704c13.76-6.547,17.928,7.281,4.891,11.202
				c-37.185,11.185-40.2-8.399-31.506-16.806c-22.816-14,6.517-25.763,19.01-29.684c12.497-3.921,11.952,8.403,4.891,10.083
				c-7.065,1.68-9.779,3.36-15.755,5.04c-3.087,0.869-3.838,3.679-2.734,6.117c11.46-0.7,17.623-1.844,24.088-5.945
				c5.237-3.318,16.128-10.812,21.016-2.97c4.895,7.842,4.518,17.019-15.584,15.896c-12.381-0.688-19.065,1.393-28.228,5.703
				C-400.158-389.976-389.453-389.742-379.026-394.704 M-422.739-420.495c-4.172,0.799-1.279-9.28-1.708-11.935
				c-4.725,0.975-13.403-0.389-14.265-2.335c-1.065-2.405,4.319-3.782,15.004-4.269c-0.862-5.318-2.623-14.897,0.616-20.08
				c-8.118-2.909-17.257-4.752-9.938-10.374c6.262-4.806,4.852-7.772,4.852-7.772c-4.001-3.307-8.917-10.341,1.482-14.758
				c10.391-4.425,24.576-2.044,31.912,3.982c8.567,7.039,20.607,15.016,29.984,13.684c15.068-2.147,11.678,5.285,2.646,9.022
				c-10.562,4.375-26.265-3.761-29.79-5.99c-3.517-2.229-14.142-7.989-15.822-3.282c-1.685,4.704-4.689,8.083-0.922,10.648
				c7.855,5.343,20.599,13.197,27.799,16.79c5.265,2.63,4.752,6.42-4.923,8.825c-11.074,2.753-27.827,5.449-27.827,5.449
				C-414.855-426.583-418.432-421.323-422.739-420.495 M-380.326-528.314c8.69-6.158,13.578-10.079,13.578-10.079
				c5.977-3.921,5.667-1.831,9.779,1.119c4.804,3.446,13.506,11.988,16.506,15.082c5.432,5.601,0.739,9.919-3.346,4.306
				c-7.514-10.337-17.964-16.368-17.964-16.368l-5.015,3.446c8.146,7.28,26.591,23.357,33.847,35.329
				c2.09,3.445-2.09,6.031-5.015,2.155c-10.037-13.303-33.847-33.608-33.847-33.608l-5.015,3.445
				c5.976,6.162,14.627,12.496,17.968,18.097c3.223,5.396,0.787,9.882-3.878,3.704c-5.734-7.584-13.256-13.185-13.256-13.185
				C-381.414-519.349-389.016-522.152-380.326-528.314 M-419.02-281.346c-0.66-0.147-1.303-0.377-1.931-0.664
				c16.168,18.756-6.067,31.998-13.141,8.03c-2.396,12.685-14.94,8.243-13.24-0.528c0.958-4.945,1.256-14.065,1.256-18.581
				c0-1.778-2.503-5.715,0.941-6.953c3.6-1.291,5.797-1.61,8.146-3.393c3.449-2.257,5.07,1.151,6.27,1.942
				c4.578,3.015,9.704,4.785,15.04,6.785C-401.89-289.532-410.87-279.572-419.02-281.346 M-282.604-270.923
				c15.227-37.964-9.671-47.17-17.11-41.712c-39.116-63.013-24.227-111.867-21.187-134.72
				c11.408-85.694-26.154-97.285-39.191-107.368c-15.481,7.563-52.963,38.983-74.15,58.305
				c-21.183,19.322-14.667,27.049-13.033,37.972c1.629,10.923-4.888,21.174-8.964,27.053c-4.073,5.883-5.543,9.829-21.834,35.878
				c-16.3,26.045-0.981,32.51,7.983,32.51s25.872-3.208,41.042-4.515c5.015-0.426,10.256-5.454,6.183-11.546
				c-4.073-6.092-9.23-9.628-15.25-9.268c-5.313,0.328-7.248,7.117,0.56,8.977c6.728-1.458,7.641,7.899-4.101,4.167
				c-8.162-2.606-11.042-20.334,5.527-18.183c15.219,1.966,22.542,15.085,20.452,24.992c2.444,0.84,13.752,7.776,16.609,15.512
				c5.019,13.569-2.138,12.578-5.329,4.31c-7.518-19.498-32.364-12.258-47.77-10.915c-9.08,0.795-6.938,1.987-8.472,7.055
				c-4.073,13.442-6.6,26.635,2.364,29.155c7.248,2.036,24.112-1.426,30.632-3.11c6.517-1.68,5.702-6.719-0.814-5.879
				c-6.521,0.84-9.779-5.884,0-7.563c9.775-1.68,15.481,3.364,14.667,7.563c-0.815,4.199,1.629,7.563,4.077,8.399
				c2.44,0.84,4.391,6.764,4.888,10.087c1.629,10.923-7.335,9.235-6.521,1.68c0.362-3.343-4.887-8.403-9.779-5.883
				c-4.887,2.524-28.677,5.043-39.271,3.364c-7.331,7.555-2.881,15.184-0.437,18.543c2.443,3.363,3.62,15.02,0.437,22.284
				c-10.594,24.197,13.816,33.125,23.71,33.772c34.948,2.282,62.477-3.827,87.422-13.242c12.695-5.576,21.068-16.048,28.363-26.078
				c-2.305,10.497-7.589,20.088-16.152,26.598c-11.997,8.485-32.798,14.602-45.386,17.752c0,0,1.892,15.282,5.312,25.853
				c2.957,9.137,8.412,16.126,10.705,22.383c3.067,8.342,5.062,17.416,15.048,14.536c40.506-11.697,75.859-29.999,94.602-41.758
				C-258.401-216.478-277.716-259.996-282.604-270.923"/>
		</g>
		<g id="g3284" transform="translate(497.0006,625.1422)">
			<path id="path3286" inkscape:connector-curvature="0" fill="#E7A908" d="M-295.643-310.25
				c-4.911-1.376-9.671,3.573-11.797,11.591c-2.125,8.014-0.811,16.068,4.097,17.445c4.912,1.385,9.243-4.691,11.365-12.709
				C-289.854-301.937-290.735-308.865-295.643-310.25"/>
		</g>
		<g id="g3288" transform="translate(466.6418,668.4057)">
			<path id="path3290" inkscape:connector-curvature="0" fill="#E7A908" d="M-385.916-530.767
				c-5.158,0.889-11.277,2.847-12.354,4.396c-0.89,1.291,6.751,4.961,9.282,6.101c2.531,1.143,2.797-1.512,3.902-4.122
				C-383.981-527.002-380.759-531.656-385.916-530.767"/>
		</g>
		<g id="g3292" transform="translate(540.05659,688.5518)">
			<path id="path3294" inkscape:connector-curvature="0" fill="#F57215" d="M-167.614-633.453h-28.331l18.088,20.203h10.243
				V-633.453z"/>
		</g>
		<g id="g3296" transform="translate(561.3011,642.6256)">
			<path id="path3298" inkscape:connector-curvature="0" fill="#F57215" d="M-104.442-399.364
				c-7.006-12.14-15.958-27.274-24.994-42.401l-7.653,21.358c9.672,20.231,17.937,34.366,25.125,44.318L-104.442-399.364z"/>
		</g>
		<g id="g3300" transform="translate(547.9776,659.1409)">
			<path id="path3302" inkscape:connector-curvature="0" fill="#F57215" d="M-144.061-483.544
				c6.616,16.409,12.7,30.433,18.318,42.442l7.463-20.809c-8.135-13.586-16.2-26.955-22.868-37.935L-144.061-483.544z"/>
		</g>
		<g id="g3304" transform="translate(563.17571,651.1433)">
			<path id="path3306" inkscape:connector-curvature="0" fill="#F57215" d="M-98.868-442.78l-29.523-8.985
				c8.842,14.791,17.607,29.585,24.557,41.614l21.768,4.081c-3.97-12.812-9.691-25.079-16.482-36.681
				C-98.653-442.763-98.761-442.751-98.868-442.78"/>
		</g>
		<g id="g3308" transform="translate(572.17841,638.2766)">
			<path id="path3310" inkscape:connector-curvature="0" fill="#F57215" d="M-72.097-377.197
				c-13.042-86.256-108.101-152.35-119.509-164.112l-0.338,0.512c-0.234,2.684-1.029,5.191-2.265,7.416
				c3.799,4.208,9.465,9.608,16.498,16.302c35.988,34.26,102.982,98.031,95.281,173.663l-0.198,1.967l-1.844-0.516
				c-1.462-0.41-2.94-0.738-4.506-1.078c-20.329-4.495-45.604-10.116-107.922-186.659c-1.116,1.176-2.393,2.192-3.783,3.023
				c3.414,13.639,6.891,26.315,10.411,38.144c8.213,20.69,14.551,39.279,19.363,55.962c44.368,109.265,89.834,104,100.443,103.541
				C-73.731-336.869-69.304-358.727-72.097-377.197"/>
		</g>
		<g id="g3312" transform="translate(545.04269,671.8156)">
			<path id="path3314" inkscape:connector-curvature="0" fill="#F57215" d="M-152.788-548.148c-3.679-3.507-6.941-6.621-9.794-9.432
				c-1.137-0.979-1.602-0.192-1.407,0.782c7.367,20.649,14.214,38.828,20.575,54.848l2.643-14.786
				c-6.862-11.292-11.829-19.363-13.105-21.333c-0.5-0.771-0.294-1.815,0.453-2.332c0.747-0.512,1.757-0.307,2.262,0.467
				c0.778,1.213,5.642,9.128,12.607,20.583l19.447,4.9C-131.199-527.589-143.124-538.946-152.788-548.148"/>
		</g>
		<g id="g3316" transform="translate(549.2486,663.7896)">
			<path id="path3318" inkscape:connector-curvature="0" fill="#F57215" d="M-140.281-507.239
				c6.703,11.038,14.937,24.66,23.249,38.541l29.897,9.096c-9.501-15.446-20.773-29.65-32.11-42.335L-140.281-507.239z"/>
		</g>
		<g id="g3320" transform="translate(568.10159,630.744)">
			<path id="path3322" inkscape:connector-curvature="0" fill="#F57215" d="M-84.221-338.803c0.954,0.208,1.852,0.446,2.766,0.664
				c1.288-15.159-0.513-29.855-4.466-43.917l-20.635-3.872c5.539,9.661,9.64,17.093,11.222,20.596
				c0.377,0.836,0.027,1.835-0.787,2.233c-0.818,0.389-1.788,0.024-2.17-0.815c-1.498-3.314-5.416-10.431-10.748-19.744
				l-7.327,22.669C-102.411-342.863-92.612-340.659-84.221-338.803"/>
		</g>
		<g id="g3324" transform="translate(528.79269,632.8503)">
			<path id="path3326" inkscape:connector-curvature="0" fill="#007F55" d="M-201.108-349.539
				c5.337,5.572,15.322,12.631,20.842,15.884c-0.509-8.026-1.363-16.52-2.702-25.537c-0.497-3.343-1.196-10.361-1.967-19.576
				c-3.843-2.413-10.534-7.256-14.877-11.336C-200.519-376.043-200.949-362.186-201.108-349.539"/>
		</g>
		<g id="g3328" transform="translate(528.7821,631.6763)">
			<path id="path3330" inkscape:connector-curvature="0" fill="#007F55" d="M-201.139-343.555
				c-0.124,16.892,0.277,31.232,1.195,40.479c4.605,4.761,11.973,9.493,18.919,12.816c1.207-11.116,1.72-23.841,1.013-38.254
				C-184.005-330.989-195.23-338.114-201.139-343.555"/>
		</g>
		<g id="g3332" transform="translate(530.134,604.00121)">
			<path id="path3334" inkscape:connector-curvature="0" fill="#007F55" d="M-197.119-202.493c-1.243,1.84-1.605,3.573-3.505,2.959
				c-1.589-0.517-3.19-2.057-3.238-2.983c-20.122-47.178-25.343-103.565-15.484-167.623c5.606-36.427,17.332-73.146,31.8-110.134
				c-3.238,14.467,4.014,132.917,6.461,149.42C-168.704-247.282-194.171-206.827-197.119-202.493 M-181.07-488.551
				c0.802-2.675,1.41-4.597,1.883-5.978c-1.264-1.151-2.364-2.491-3.271-3.974c-20.562,28.909-80.194,204.775-22.212,302.786
				c2.189,4.257,6.584,4.793,8.591,2.216c10.53-10.345,30.652-63.701,23.158-106.855
				C-180.875-346.124-185.417-473.986-181.07-488.551"/>
		</g>
		<g id="g3336" transform="translate(532.76891,641.0865)">
			<path id="path3338" inkscape:connector-curvature="0" fill="#007F55" d="M-189.284-391.519c-1.538-19.179-3.259-45.81-4.192-69.2
				c-0.568-5.875-3.811-7.694-4.951-1.819c-2.309,18.023-4.018,39.086-5.142,59.928
				C-199.436-398.558-193.107-393.859-189.284-391.519"/>
		</g>
		<g id="g3340" transform="translate(527.8054,632.22211)">
			<path id="path3342" inkscape:connector-curvature="0" fill="#007F55" d="M-204.044-346.337l-14.511,10.234
				c0.071,13.979,0.997,27.475,2.793,40.483c3.067-1.68,9.771-5.535,13.359-9.014C-203.57-314.908-204.111-329.539-204.044-346.337"
				/>
		</g>
		<g id="g3344" transform="translate(524.99541,618.92619)">
			<path id="path3346" inkscape:connector-curvature="0" fill="#007F55" d="M-212.399-278.567
				c1.041,6.883,2.328,13.623,3.858,20.224c2.689,3.257,6.417,4.711,11.424-5.622l1.089-3.359
				c3.262,6.244,11.32,15.524,15.258,11.316c1.196-5.326,2.27-11.242,3.1-17.765c-3.146-1.754-15.906-9.022-20.289-13.824
				C-201.368-284.835-209.109-280.41-212.399-278.567"/>
		</g>
		<g id="g3348" transform="translate(528.2495,644.7063)">
			<path id="path3350" inkscape:connector-curvature="0" fill="#007F55" d="M-202.723-409.97c1.204-19.248,3.013-38.639,5.42-55.896
				c0.572-4.99-3.206-4.417-4.343,0.283c-5.479,17.97-9.497,35.145-12.596,55.265c-0.632,4.122-1.2,8.215-1.709,12.267
				C-212.78-400.501-204.673-406.934-202.723-409.97"/>
		</g>
		<g id="g3352" transform="translate(528.1721,643.45261)">
			<path id="path3354" inkscape:connector-curvature="0" fill="#007F55" d="M-202.952-403.58
				c-3.175,3.688-10.586,9.071-13.399,11.062c-1.652,14.344-2.535,28.286-2.599,41.774c3.91-2.749,11.261-8.014,14.567-11.042
				C-204.256-374.872-203.776-389.125-202.952-403.58"/>
		</g>
		<g id="g3356" transform="translate(537.5912,676.4427)">
			<path id="path3358" inkscape:connector-curvature="0" fill="#007F55" d="M-174.945-571.733c-4.744,0-8.595-3.966-8.595-8.862
				s3.851-8.862,8.595-8.862s8.595,3.966,8.595,8.862S-170.201-571.733-174.945-571.733 M-174.945-594.443
				c-7.415,0-13.431,6.203-13.431,13.848s6.016,13.844,13.431,13.844c7.414,0,13.427-6.199,13.427-13.844
				S-167.531-594.443-174.945-594.443"/>
		</g>
		<g id="g3360" transform="translate(546.66479,685.4415)">
			<path id="path3362" inkscape:connector-curvature="0" fill="#007F55" d="M-147.964-617.6c-6.278,2.716-13.244,7.78-17.428,13.553
				l4.184,12.213l19.037-4.593L-147.964-617.6z"/>
		</g>
		<g id="g3364" transform="translate(520.8015,649.17599)">
			<path id="path3366" inkscape:connector-curvature="0" fill="#007F55" d="M-224.87-432.752
				c-3.536,15.811-5.996,29.016-7.005,36.157c-0.012,0.09-0.028,0.193-0.04,0.283c-0.537,0.435-1.284,1.127-2.325,2.147
				c-1.264,1.233-2.964,2.962-5.356,5.404c-6.6,6.731-15.405,15.691-21.214,20.042c-3.159-6.035-14.043-27.188-15.692-34.944
				c0.588-1.68,1.216-3.368,1.872-5.06c0.537-1.393,1.093-2.786,1.673-4.183c4.589-11.107,10.458-22.382,16.991-33.428
				c1.228-2.069,2.471-4.134,3.739-6.183c18.91-30.564,42.208-58.695,56.949-75.419c-11.32,23.386-21.508,60.121-28.335,89.677
				C-224.043-436.394-224.465-434.555-224.87-432.752 M-279.744-404.347l-0.147,0.43l0.083,0.447
				c1.657,9.124,16.383,36.849,17.011,38.029l0.842,1.582l1.47-0.979c5.988-3.999,15.926-14.135,23.178-21.534
				c3.405-3.47,6.918-7.059,7.665-7.518l0.671-0.417c0.076-0.041,0.179-0.844,0.179-0.844c2.869-21.87,23.98-119.803,44.639-148.749
				C-199.149-528.439-260.345-460.341-279.744-404.347"/>
		</g>
		<g id="g3368" transform="translate(497.9229,621.1568)">
			<path id="path3370" inkscape:connector-curvature="0" fill="#E32739" d="M-292.9-289.936c-2.126,8.018-6.453,14.09-11.364,12.709
				c-4.912-1.38-6.223-9.436-4.097-17.445c2.125-8.022,6.882-12.971,11.797-11.59C-291.657-304.878-290.778-297.954-292.9-289.936
				 M-294.355-314.613c-7.737-2.18-16.721,6.293-20.067,18.92c-3.346,12.631,0.211,24.636,7.947,26.815
				c7.732,2.18,16.717-6.293,20.066-18.917C-283.062-300.424-286.618-312.429-294.355-314.613"/>
		</g>
		<g id="g3372" transform="translate(475.3889,647.9832)">
			<path id="path3374" inkscape:connector-curvature="0" fill="#E32739" d="M-359.906-426.673
				c-10.427,4.962-21.135,4.732-19.916-1.364c0.433-2.159,2.352-5.047,6.334-8.714c-3.938,0.266-6.592-1.692-7.625-3.97
				c-1.101-2.438-0.35-5.244,2.738-6.117c5.972-1.68,8.69-3.36,15.755-5.04c7.057-1.68,7.601-14.004-4.892-10.083
				c-12.493,3.925-41.83,15.684-19.014,29.688c-8.69,8.403-5.674,27.987,31.506,16.802
				C-341.982-419.392-346.15-433.22-359.906-426.673"/>
		</g>
		<g id="g3376" transform="translate(517.9183,654.8282)">
			<path id="path3378" inkscape:connector-curvature="0" fill="#E32739" d="M-233.443-461.562l-19.637,9.579
				c-6.537,11.042-12.402,22.321-16.995,33.424c5.098-1.852,18.783-7.019,25.077-11.32
				C-241.493-440.171-237.536-451.159-233.443-461.562"/>
		</g>
		<g id="g3380" transform="translate(523.1981,665.0643)">
			<path id="path3382" inkscape:connector-curvature="0" fill="#E32739" d="M-217.743-513.736c1.525,0.66-0.354,5.826-1.605,7.768
				c-4.176,6.453-9.91,19.67-15.767,34.792c1.248,4.974,6.803,13.59,9.104,17.031c6.831-29.56,17.019-66.291,28.339-89.677
				c-14.742,16.72-38.043,44.851-56.949,75.415l17.977-8.575C-230.157-492.93-223.457-506.869-217.743-513.736"/>
		</g>
		<g id="g3384" transform="translate(519.8149,639.9991)">
			<path id="path3386" inkscape:connector-curvature="0" fill="#E32739" d="M-227.804-385.977c0,0-0.103,0.803-0.179,0.844
				l-0.675,0.418c-0.743,0.459-4.26,4.048-7.661,7.519c-7.256,7.399-17.189,17.54-23.178,21.534l-1.47,0.979l-0.842-1.582
				c-0.628-1.176-15.354-28.905-17.015-38.025l-0.079-0.451l0.147-0.426c19.395-55.999,80.596-124.096,95.592-139.559
				C-203.827-505.775-224.935-407.843-227.804-385.977 M-174.816-544.595c-0.958-0.131-2.393,0.373-4.626,2.163
				c-4.887,3.925-64.733,51.832-102.124,139.989c-4.001,9.436-4.347,5.601-0.544,16.245c3.807,10.64,14.126,29.122,16.84,33.604
				c2.718,4.478,2.3,6.207,6.103,3.401c13.578-11.759,24.434-23.653,28.781-27.016c4.732-3.655,8.344-9.231,8.698-15.462
				c0.704-12.324,24.318-122.232,47.679-146.319c0.063-0.065,0.107-0.123,0.167-0.185c-0.636-1.872-0.998-3.875-0.998-5.974
				C-174.84-544.3-174.82-544.447-174.816-544.595"/>
		</g>
		<g id="g3388" transform="translate(515.759,646.5099)">
			<path id="path3390" inkscape:connector-curvature="0" fill="#E32739" d="M-239.864-419.163
				c2.289,7.924,7.697,19.408,13.029,25.234c1.009-7.141,3.469-20.346,7.005-36.157c-2.277-3.65-7.76-12.635-9.739-17.597
				C-233.117-438.325-236.654-428.463-239.864-419.163"/>
		</g>
		<g id="g3392" transform="translate(517.09509,638.4393)">
			<path id="path3394" inkscape:connector-curvature="0" fill="#E32739" d="M-235.891-378.026c2.392-2.442,4.093-4.167,5.36-5.404
				c-5.011-5.474-10.307-14.335-12.814-21.374c-5.174,15.278-9.187,28.225-10.479,33.542c-0.218,0.897-1.101,1.442-1.975,1.217
				c-0.875-0.221-1.407-1.135-1.188-2.032c1.343-5.527,5.583-19.847,11.233-36.727c-6.234,4.245-19.86,9.034-25.168,10.816
				c-0.656,1.696-1.283,3.384-1.875,5.064c1.653,7.751,12.537,28.905,15.691,34.94
				C-251.296-362.334-242.487-371.295-235.891-378.026"/>
		</g>
		<g id="g3396" transform="translate(537.5912,680.7686)">
			<path id="path3398" inkscape:connector-curvature="0" fill="#E32739" d="M-174.945-593.782c-4.744,0-8.595,3.966-8.595,8.862
				s3.851,8.862,8.595,8.862s8.595-3.966,8.595-8.862S-170.201-593.782-174.945-593.782"/>
		</g>
		<g id="g3400" transform="translate(466.1642,623.57539)">
			<path id="path3402" inkscape:connector-curvature="0" fill="#E32739" d="M-387.337-302.264c-5.336-2.003-10.462-3.77-15.04-6.789
				c-1.2-0.787-2.821-4.199-6.266-1.942c-2.353,1.787-4.55,2.106-8.15,3.396c-3.441,1.237-0.942,5.17-0.942,6.953
				c0,4.515-0.298,13.635-1.255,18.576c-1.701,8.776,10.844,13.213,13.24,0.529c0.254-1.328,0.394-2.843,0.394-4.564
				c0-3.921-1.875-13.086-1.875-13.086c-0.318-1.294,0.858-1.52,1.716-1.139c3.234,1.451,7.498,8.346,12.906,10.763
				c0.632,0.283,1.271,0.516,1.931,0.66C-382.528-287.133-373.548-297.089-387.337-302.264"/>
		</g>
		<g id="g3404" transform="translate(546.25909,627.4594)">
			<path id="path3406" inkscape:connector-curvature="0" fill="#1C418C" d="M-149.17-322.061
				c-1.828-3.491-4.391-15.491-7.315-31.949l21.728,12.136c0.179,12.373-0.882,22.444-2.46,30.654L-149.17-322.061z
				 M-144.767-286.654l-0.155,0.381c-4.486-5.978-8.479-12.41-12.072-19.187l6.958-12.914l12.028,10.915
				C-140.111-298.134-142.809-291.472-144.767-286.654 M-170.941-339.683l11.161-14.274c2.896,16.314,5.476,28.405,7.458,32.903
				l-6.477,12.021C-163.626-318.697-167.619-329.014-170.941-339.683 M-179.524-375.499l13.827-14.262
				c1.776,11.324,3.505,21.981,5.146,31.433l-11.567,14.79C-175.181-353.969-177.605-364.704-179.524-375.499 M-183.966-408.964
				l13.347-12.812c1.438,9.485,2.877,18.884,4.287,27.922l-13.891,14.319C-181.853-389.388-183.076-399.262-183.966-408.964
				 M-185.452-487.984c0.286-4.994,3.914-4.781,4.482-1.258c2.491,15.405,5.284,33.895,8.161,52.959
				c0.528,3.495,1.057,7.002,1.586,10.5l-13.105,12.578C-186.649-441.446-186.291-467.982-185.452-487.984 M-173.663-491.68
				c12.827,30.474,21.735,56.609,27.768,79.061l-21.95-12.681c-0.584-3.855-1.172-7.698-1.744-11.5
				c-2.877-19.06-5.67-37.558-8.162-52.996C-178.611-493.905-175.371-495.793-173.663-491.68 M-144.703-408.079
				c2.63,10.23,4.656,19.67,6.167,28.376l-24.569-14.61c-1.362-8.747-2.741-17.769-4.104-26.766L-144.703-408.079z
				 M-134.849-345.746l-22.38-12.5c-1.66-9.562-3.413-20.383-5.209-31.785l24.612,14.635
				C-136.07-364.334-135.152-354.489-134.849-345.746 M-139.399-400.409c-1.578-6.748-3.434-13.853-5.587-21.346
				c-4.812-16.683-11.154-35.271-19.367-55.966c-4.526-11.394-9.616-23.423-15.342-36.14c-1.26,0.295-2.571,0.467-3.918,0.467
				c-1.264,0-2.5-0.143-3.688-0.401c-0.052,0.893-0.111,1.819-0.171,2.802c-2.508,40.328-10.141,163.063,41.702,229.129l1.729,2.196
				c0.004-0.017,1.049-2.63,1.049-2.63l1.229-3.052C-135.826-299.945-123.167-331.075-139.399-400.409"/>
		</g>
	</g>
	<g id="g3412" transform="matrix(3.9713672,0,0,3.9383213,-1710.9148,-2138.9472)">
		<g>
			<defs>
				<rect id="SVGID_1_" x="241.001" y="373.501" width="507.384" height="454.669"/>
			</defs>
			<clipPath id="SVGID_2_">
				<use xlink:href="#SVGID_1_"  overflow="visible"/>
			</clipPath>
			<g id="g3414" clip-path="url(#SVGID_2_)">
				<g id="g3424" transform="translate(547.3116,651.79269)">
					<path id="path3426" inkscape:connector-curvature="0" d="M-15.458-56.45c0.543,1.903,1.009,3.708,1.407,5.421
						c1.29,3.06,3.11,6.643,4.654,9.028c1.263,9.355-0.05,20.373-7.171,27.203c-0.41-2.845-2.188-5.832-3.419-8.249
						c-1.27-2.495-4.651-8.107-4.924-8.819c-0.137-3.412-1.642-11.662-2.189-18.062c-0.547-6.4-0.547-27.59-0.136-29.724
						l0.827-0.249c0.098,0.029,0.196,0.057,0.296,0.079c0.298,0.067,0.609,0.103,0.929,0.103c0.339,0,0.668-0.044,0.986-0.12
						c0.444-0.104,0.86-0.277,1.243-0.508c0.35-0.211,0.671-0.469,0.952-0.768c0.262-0.279,0.49-0.594,0.678-0.934
						c0.31-0.565,0.511-1.202,0.57-1.883l0.085-0.13c2.873,2.987,26.81,19.769,30.093,41.671c0.704,4.691-0.411,10.24,0.41,12.23
						C7.163-30.043-4.286-28.706-15.458-56.45 M-32.383-4.449c-0.504,0.655-1.612,0.519-2.163-0.563
						c-14.599-24.886,0.415-69.542,5.594-76.881c0.227,0.377,0.504,0.716,0.823,1.009c-0.119,0.35-0.272,0.839-0.473,1.518
						c-1.095,3.698,0.049,36.163,2.051,47.786C-24.664-20.623-29.731-7.075-32.383-4.449 M-43.62-41.7
						c-1.095,0.853-3.827,3.873-7.247,6.859c-0.958,0.714-0.852,0.275-1.536-0.862c-0.684-1.139-3.283-5.831-4.24-8.533
						c-0.958-2.704-0.87-1.73,0.136-4.126c9.415-22.383,24.485-34.548,25.715-35.544c0.562-0.455,0.924-0.583,1.165-0.55
						c-0.001,0.037-0.006,0.075-0.006,0.113c0,0.533,0.091,1.041,0.251,1.518c-0.015,0.015-0.026,0.03-0.041,0.047
						c-5.882,6.116-11.829,34.022-12.007,37.152C-41.519-44.045-42.429-42.629-43.62-41.7 M-44.167-15.089
						c-1.001,1.257-2.638,1.861-3.575,1.32c-0.101-0.057-0.209-0.123-0.318-0.188c-0.359,1.292-0.944,2.325-1.763,2.974
						c-0.977,0.774-2.179,0.909-3.301,0.369c-2.366-1.137-3.938-4.917-4.203-10.112c-0.385-7.515-1.692-9.293-4.851-13.584
						c-0.89-1.208-1.897-2.578-3.071-4.318c-5.582-8.27-5.143-14.654-2.463-30.786c1.877-11.3,0.264-14.494-1.78-18.538
						c-0.73-1.445-1.558-3.083-2.288-5.206c-1.13-3.289-0.942-5.606,0.559-6.885c1.975-1.684,5.298-0.567,6.928,0.452
						c0.291,0.18,0.601,0.385,0.93,0.603c2.771,1.834,6.959,4.607,11.412,1.018c1.986-1.6,3.665-2.145,5.134-1.667
						c2.486,0.81,3.55,4.198,4.579,7.602l0.056,0.183c0.444,1.473,1.246,2.65,2.382,3.237c1.736,0.899,3.895,0.141,4.775-0.379
						c0.394-0.234,0.896-0.09,1.12,0.319c0.223,0.41,0.086,0.8-0.308,1.033c-1.373,0.81-4.232,1.502-6.318,0.423
						c-1.551-0.802-2.633-2.19-3.218-4.123l-0.055-0.185c-0.902-2.985-1.834-6.071-3.503-6.613
						c-0.906-0.295-2.129,0.171-3.637,1.386c-5.368,4.326-10.334,1.038-13.3-0.926c-0.32-0.212-0.622-0.412-0.893-0.58
						c-1.557-0.972-3.955-1.391-5.043-0.464c-0.883,0.752-0.9,2.525-0.054,4.991c0.69,2.009,1.456,3.522,2.195,4.987
						c1.244,2.462,2.337,4.635,2.688,8.23c7.068-1.582,18.973-2.694,26.886-2.483c0.453-0.018,0.834,0.35,0.852,0.821
						c0.018,0.47-0.335,0.867-0.789,0.885v-0.131c-9.007-0.278-19.751,0.762-26.852,2.494c0.084,2.496-0.145,5.618-0.841,9.807
						c-2.593,15.618-3.035,21.774,2.188,29.515c1.156,1.711,2.153,3.067,3.033,4.261c3.279,4.455,4.775,6.488,5.186,14.531
						c0.274,5.366,1.924,8.013,3.253,8.654c0.575,0.277,1.119,0.216,1.617-0.179c0.526-0.416,1.03-1.274,1.308-2.58
						c-1.86-1.369-3.87-3.438-3.976-6.099c-0.093-2.295,0.871-2.869,1.592-2.946c1.844-0.2,3.684,1.836,3.994,3.765
						c0.26,1.632,0.316,3.14,0.18,4.467c0.279,0.179,0.533,0.333,0.744,0.455c0.225,0.051,1.16-0.21,1.765-1.216
						c1.231-2.042,0.125-5.475-3.037-9.419c-1.299-1.62-2.752-3.147-4.158-4.622c-1.578-1.657-3.21-3.372-4.608-5.207
						c-2.571-3.376-6.092-8.001-5.099-19.663l0.552-6.638c0.383-4.719,0.414-5.105,0.837-6.862c0.467-1.944,1.362-4.312,2.971-4.551
						c1.544-0.231,2.572,1.725,2.91,2.324c0.88,1.562,1.595,2.175,1.838,2.254c0.086-0.109,0.348-0.552,0.466-2.036
						c0.351-4.383,1.039-6.331,2.372-6.727c1.309-0.387,2.458,0.97,3.209,2.024c0.322,0.453,1.104,1.549,1.533,1.932
						c0.279-0.545,0.657-2.014,1.054-3.562l0.202-0.785c0.117-0.455,0.568-0.856,1.005-0.734c0.437,0.123,0.696,0.591,0.58,1.047
						l-0.202,0.782c-0.877,3.418-1.205,4.697-2.311,4.917c-1.041,0.207-1.887-0.896-3.179-2.711
						c-1.005-1.41-1.439-1.398-1.442-1.397c-0.032,0.007-0.787,0.26-1.186,5.228c-0.11,1.386-0.41,3.264-1.728,3.577
						c-1.11,0.262-2.33-0.772-3.628-3.074c-0.638-1.133-1.093-1.393-1.261-1.368c-0.354,0.053-1.09,1.105-1.612,3.276
						c-0.39,1.625-0.413,1.905-0.795,6.592l-0.552,6.644c-0.937,10.986,2.217,15.126,4.751,18.453
						c1.341,1.761,2.87,3.366,4.488,5.065c1.431,1.501,2.909,3.055,4.252,4.731C-41.413-20.054-43.158-16.355-44.167-15.089
						 M-80.458,4.01c-2.514,0.731-3.017-1.573-3.789-3.692c-0.578-1.587-1.951-3.362-2.696-5.682
						c-0.861-2.685-1.338-6.564-1.338-6.564c3.17-0.8,8.407-2.353,11.427-4.508c2.157-1.653,3.487-4.088,4.068-6.754
						c-1.838,2.547-3.945,5.206-7.142,6.622c-6.281,2.391-13.213,3.942-22.013,3.362c-2.491-0.164-8.638-2.431-5.97-8.575
						c0.8-1.844,0.505-4.804-0.111-5.658c-0.615-0.853-1.735-2.79,0.111-4.709c2.667,0.427,8.658-0.212,9.888-0.853
						c1.232-0.64,2.553,0.645,2.462,1.494c-0.205,1.918,2.052,2.347,1.641-0.428c-0.125-0.843-0.615-2.347-1.23-2.56
						c-0.616-0.212-1.233-1.066-1.027-2.134c0.204-1.065-1.232-2.346-3.693-1.919c-2.463,0.426-1.642,2.134,0,1.919
						c1.641-0.213,1.846,1.067,0.205,1.494c-1.642,0.428-5.889,1.307-7.713,0.79c-2.258-0.64-1.621-3.99-0.596-7.403
						c0.387-1.288-0.152-1.59,2.134-1.791c3.879-0.341,10.135-2.179,12.029,2.771c0.803,2.099,2.604,2.351,1.342-1.095
						c-0.719-1.963-3.567-3.725-4.182-3.938c0.526-2.516-1.318-5.846-5.15-6.346c-4.172-0.546-3.447,3.955-1.392,4.617
						c2.956,0.948,2.727-1.428,1.033-1.058c-1.966-0.472-1.479-2.196-0.141-2.279c1.516-0.093,2.815,0.806,3.84,2.353
						c1.026,1.547-0.294,2.822-1.558,2.932c-3.819,0.332-8.077,1.146-10.334,1.146c-2.258,0-6.114-1.643-2.011-8.255
						c4.103-6.614,4.474-7.616,5.499-9.11c1.027-1.493,2.666-4.096,2.256-6.87c-0.41-2.772-2.052-4.734,3.283-9.641
						c5.335-4.906,14.772-12.885,18.671-14.805c3.283,2.56,12.741,5.503,9.868,27.262c-0.766,5.803-4.514,18.208,5.334,34.206
						c1.873-1.385,8.143,0.953,4.309,10.592c1.231,2.775,6.094,13.825,6.505,14.464C-61.357-3.607-70.258,1.04-80.458,4.01
						 M-21.803-84.344c0,1.941-1.513,3.515-3.38,3.515c-1.868,0-3.383-1.574-3.383-3.515c0-1.941,1.515-3.516,3.383-3.516
						C-23.316-87.86-21.803-86.285-21.803-84.344 M-22.717-94.691v5.13h-2.579l-4.555-5.13H-22.717z M-16.105-91.455l1.459,5.377
						l-4.794,1.166l-1.053-3.102C-19.44-89.48-17.685-90.766-16.105-91.455 M10.617-33.823
						c2.605-24.381-20.089-41.744-28.659-49.472l5.579-1.29l-2.873-9.856c0,0-3.692,2.56-5.539,3.84v-5.972H-31.75
						c0,0-3.898-3.628-10.669-8.96c-6.772-5.334-18.773-2.298-21.298-2.189c-1.474,0.11-4.455-0.863-9.995-0.437
						c-9.433,0.726-11.321,8.85-9.68,12.69c-6.36,4.48-24.998,18.505-23.972,23.199c0.688,3.147,1.137,5.776-0.505,7.695
						c-0.609,0.714-1.436,3.413-6.36,10.881c-5.863,8.891,1.163,11.678,3.993,11.634c0,0,0.119,0.853-0.094,1.379
						c-0.684,1.677-1.027,6.186-0.206,7.252c0.186,0.241,0.316,0.369,0.406,0.437c-0.056,0.026-0.125,0.085-0.2,0.204
						c-0.411,0.64-1.947,2.199-0.206,4.906c2.072,3.221-0.015,4.808-0.221,6.729c-1.551,14.517,16.701,9.256,20.185,9.677
						c0.187,1.654,0.599,4.408,1.528,7.007c1.107,3.099,2.68,4.578,3.144,6.651c0.56,2.511,1.825,5.104,4.295,4.498
						C-71.963,4.31-59.858-1.43-54.114-5.271c2.052,1.068,10.054,1.921,14.158,1.495c4.103-0.426,5.07,2.062,7.182,1.706
						c0.711-0.494,1.153-1.733,1.755-2.497c4.509-5.705,6.484-19.174,5.877-25.49c2.391,4.736,7.416,12.23,7.836,16.88
						c8.012-3.572,10.859-20.012,9.066-27.038c6.772,9.791,12.937,11.812,19.502,11.15C11.157-29.334,10.456-32.342,10.617-33.823"
						/>
				</g>
			</g>
		</g>
	</g>
	<g id="g3428" transform="matrix(3.9713672,0,0,3.9383213,-1710.9148,-2138.9472)">
		<g>
			<defs>
				<polygon id="SVGID_3_" points="428.828,658.559 560.558,658.559 560.558,543.112 428.828,543.112 428.828,658.559 				"/>
			</defs>
			<clipPath id="SVGID_4_">
				<use xlink:href="#SVGID_3_"  overflow="visible"/>
			</clipPath>
			<g id="g3430" clip-path="url(#SVGID_4_)">
				<g id="g3436" transform="translate(511.16541,618.9659)">
					<path id="path3438" inkscape:connector-curvature="0" fill="#231F20" d="M-15.478,10.527c-0.073,0.091-0.256,0.393-0.223,1.208
						c0.067,1.679,1.281,3.126,2.55,4.197c0.019-0.877-0.041-1.872-0.22-2.998C-13.887,11.352-14.575,10.222-15.478,10.527"/>
				</g>
				<g id="g3440" transform="translate(486.7356,632.2623)">
					<path id="path3442" inkscape:connector-curvature="0" d="M-15.491-16.602c-1.959-2.23-4.925-8.674,0.958-14.221
						C-19.028-32.07-25.204-19.588-15.491-16.602"/>
				</g>
				<g id="g3444" transform="translate(476.15421,677.3123)">
					<path id="path3446" inkscape:connector-curvature="0" d="M-15.497-108.518c0,0,1.894,1.422,3.338,3.348
						c1.175,1.568,1.788,0.43,0.976-0.942c-0.841-1.422-3.02-3.029-4.524-4.594l1.263-0.875c0,0,5.995,5.155,8.523,8.533
						c0.736,0.984,1.789,0.328,1.263-0.547c-1.827-3.039-6.472-7.122-8.523-8.971l1.263-0.875c0,0,2.631,1.531,4.524,4.157
						c1.028,1.424,2.209,0.329,0.841-1.094c-0.755-0.785-2.947-2.953-4.156-3.828c-1.035-0.749-0.958-1.28-2.462-0.285
						c0,0-1.231,0.996-3.419,2.56C-18.779-110.366-16.865-109.656-15.497-108.518"/>
				</g>
				<g id="g3448" transform="translate(472.6335,660.42329)">
					<path id="path3450" inkscape:connector-curvature="0" d="M-15.499-74.059c1.095,0.569,1.095,0.427-0.137,0.853
						c-1.231,0.426-5.314,0.881-5.314,0.881c0.137-0.569,0.137-1.592,0-2.019c-0.136-0.426,0.137-1.684,0.137-1.684
						S-16.594-74.628-15.499-74.059 M-22.268-79.698c-0.636-0.289-2.561-1.221-2.337-1.549c0.271-0.394,1.812-0.89,3.111-1.116
						s0.488,0.956,0.209,1.618C-21.563-80.082-21.63-79.408-22.268-79.698 M-9.161-81.341c-2.361,0.339-5.393-1.686-7.55-3.474
						c-1.847-1.53-5.419-2.135-8.036-1.012c-2.617,1.122-1.38,2.909-0.372,3.748c0,0,0.355,0.752-1.222,1.973
						c-1.843,1.426,0.458,1.894,2.502,2.633c-0.815,1.317-0.372,3.748-0.155,5.099c-2.69,0.124-4.046,0.474-3.778,1.084
						c0.216,0.494,2.402,0.841,3.592,0.593c0.108,0.675-0.62,3.233,0.43,3.031c1.085-0.21,1.984-1.547,2.291-3.148
						c0,0,4.217-0.684,7.007-1.384c2.436-0.61,2.565-1.573,1.24-2.24c-1.813-0.912-5.022-2.907-7-4.264
						c-0.949-0.65-0.192-1.508,0.231-2.704c0.424-1.194,3.1,0.267,3.985,0.834c0.888,0.566,4.842,2.631,7.501,1.52
						C-6.22-79.999-5.366-81.885-9.161-81.341"/>
				</g>
			</g>
		</g>
	</g>
</g>
</svg>
