<?xml version="1.0" encoding="utf-8"?>
<!-- Generator: Adobe Illustrator 16.0.4, SVG Export Plug-In . SVG Version: 6.00 Build 0)  -->
<!DOCTYPE svg PUBLIC "-//W3C//DTD SVG 1.1//EN" "http://www.w3.org/Graphics/SVG/1.1/DTD/svg11.dtd">
<svg version="1.1"
	 id="svg3075" xmlns:sodipodi="http://sodipodi.sourceforge.net/DTD/sodipodi-0.dtd" xmlns:svg="http://www.w3.org/2000/svg" xmlns:dc="http://purl.org/dc/elements/1.1/" xmlns:cc="http://creativecommons.org/ns#" xmlns:rdf="http://www.w3.org/1999/02/22-rdf-syntax-ns#" xmlns:inkscape="http://www.inkscape.org/namespaces/inkscape" inkscape:version="0.48.2 r9819" sodipodi:docname="Dallas Stars 2013 crest.svg"
	 xmlns="http://www.w3.org/2000/svg" xmlns:xlink="http://www.w3.org/1999/xlink" x="0px" y="0px" viewBox="0.866 145.489 611.134 502.097" enable-background="new 0.866 145.489 611.134 502.097"
	 xml:space="preserve">
<sodipodi:namedview  guidetolerance="10" showgrid="false" inkscape:zoom="3.374452" inkscape:cy="137.30269" bordercolor="#666666" pagecolor="#ffffff" inkscape:cx="365.17562" objecttolerance="10" gridtolerance="10" borderopacity="1" id="namedview3109" inkscape:window-maximized="0" inkscape:current-layer="svg3075" inkscape:window-y="0" inkscape:window-x="0" inkscape:pageopacity="0" inkscape:window-width="1186" inkscape:pageshadow="2" inkscape:window-height="768">
	</sodipodi:namedview>
<g>
	<g id="_x23_0b714cff">
		<path id="path3091" fill="#0B714C" d="M328.475,145.489c1.019,6.296,1.348,12.689,2.086,19.034
			c4.764,46.818,9.353,93.661,14.229,140.471c23.63,2.27,47.645,10.884,64.24,28.458c60.694-0.048,121.397,0.008,182.1-0.032
			c6.946-0.417,13.909-0.217,20.871-0.176v0.225c-64.328,34.37-128.601,68.884-192.912,103.277
			c-12.328,26.076-30.681,49.603-54.431,66.174c4.556,44.829,9.023,89.658,13.563,134.479
			c-42.23-33.849-84.292-67.914-126.482-101.818c-6.24,0.577-12.585,0.08-18.769,0.882
			c-69.253,36.969-138.378,74.21-207.663,111.123c22.338-37.178,44.877-74.242,67.216-111.42
			c-16.644-0.016-33.295,0.032-49.938-0.023c22.683-38.084,45.438-76.119,68.186-114.171
			c-36.64-29.501-73.264-59.034-109.903-88.535c54.254-0.008,108.516,0.008,162.778-0.008c5.863-9.745,11.67-19.515,17.494-29.276
			c17.189,0.024,34.378,0,51.567,0.008C264.596,251.253,296.615,198.419,328.475,145.489 M319.708,180.364
			c-26.871,44.733-54.045,89.281-80.835,134.062c-17.261,0.465-34.562-0.12-51.832,0.289c-5.302,9.08-10.796,18.047-16.13,27.111
			c-0.593,0.875-1.107,2.326-2.462,2.029c-45.952-0.048-91.904,0.064-137.856-0.056c30.953,25.098,62.042,50.027,93.06,75.044
			c1.235,0.746-0.121,1.997-0.458,2.863c-20.742,34.547-41.3,69.213-62.066,103.743c16.651,0.241,33.311-0.032,49.962,0.129
			c-1.476,3.08-3.513,5.839-5.182,8.807c-15.681,26.036-31.442,52.024-47.115,78.061c-1.476,2.519-3.225,4.885-4.315,7.611
			c58.882-31.37,117.579-63.101,176.493-94.391c7.468-0.2,14.967-0.2,22.443-0.689c2.238-0.514,3.682,1.483,5.27,2.654
			c24.841,20.061,49.738,40.057,74.571,60.117c10.66,8.391,21.007,17.197,31.804,25.402c-0.032-0.642-0.089-1.917-0.12-2.559
			c-3.794-37.683-7.645-75.356-11.342-113.039c25.395-15.946,44.685-40.41,56.973-67.545c0.738-1.46,2.526-1.86,3.826-2.679
			c51.422-27.521,102.829-55.072,154.243-82.6c0.209-0.225,0.634-0.674,0.842-0.898c-55.071,0-110.136,0.08-165.199-0.04
			c-6.497-7.436-14.366-13.684-23.237-18.063c-14.165-7.251-30.11-10.066-45.863-11.013c-4.732-45.495-9.168-91.022-13.828-136.525
			C320.759,178.88,320.173,179.586,319.708,180.364z"/>
	</g>
	<g id="_x23_231f1fff">
		<path id="path3094" fill="#231F1F" d="M319.708,180.364c0.465-0.778,1.051-1.484,1.645-2.174
			c4.66,45.503,9.096,91.03,13.828,136.525c15.753,0.947,31.698,3.762,45.863,11.013c8.871,4.379,16.74,10.627,23.237,18.063
			c55.063,0.12,110.128,0.04,165.199,0.04c-0.208,0.225-0.633,0.674-0.842,0.898c-51.414,27.528-102.821,55.08-154.243,82.6
			c-1.3,0.818-3.088,1.219-3.826,2.679c-12.288,27.135-31.578,51.599-56.973,67.545c3.697,37.683,7.548,75.356,11.342,113.039
			c0.031,0.642,0.088,1.917,0.12,2.559c-10.797-8.205-21.144-17.012-31.804-25.402c-24.833-20.061-49.729-40.057-74.571-60.117
			c-1.588-1.171-3.032-3.168-5.27-2.654c-7.476,0.489-14.975,0.489-22.443,0.689c-58.914,31.29-117.611,63.021-176.493,94.391
			c1.091-2.727,2.839-5.093,4.315-7.611c15.673-26.036,31.434-52.024,47.115-78.061c1.668-2.968,3.706-5.727,5.182-8.807
			c-16.651-0.161-33.311,0.112-49.962-0.129c20.766-34.53,41.324-69.196,62.066-103.743c0.337-0.866,1.693-2.117,0.458-2.863
			c-31.017-25.018-62.106-49.947-93.06-75.044c45.952,0.121,91.904,0.008,137.856,0.056c1.355,0.297,1.869-1.155,2.462-2.029
			c5.334-9.063,10.829-18.031,16.13-27.111c17.269-0.409,34.57,0.177,51.832-0.289C265.663,269.646,292.837,225.097,319.708,180.364
			 M301.244,251.719c-16.924,27.977-33.76,56.002-50.741,83.947c-17.133-0.04-34.266-0.032-51.398-0.008
			c-5.815,9.746-11.67,19.467-17.454,29.245c-29.83,0.112-59.668-0.137-89.498,0.12c-0.361-0.088-1.083-0.257-1.444-0.337
			c0.794,1.685,2.591,2.535,3.922,3.746c19.122,15.424,38.3,30.785,57.374,46.273c-11.75,19.186-23.108,38.629-34.731,57.911
			c-6.184,10.556-12.729,20.911-18.681,31.587l-0.441,0.24c26.902,0.088,53.804,0.017,80.707,0.04
			c1.821,0.08,3.762-0.369,5.471,0.466c-3.305,0.722-6.505,1.836-9.818,2.502l-0.152,0.185c-11.029,2.84-21.994,5.943-33.014,8.831
			c-4.981,8.246-9.97,16.483-14.927,24.745c-4.692,7.956-9.833,15.681-14.165,23.838c0.875-0.514,1.741-1.051,2.679-1.428
			c2.302-0.851,4.371-2.182,6.545-3.288c28.37-15.225,56.765-30.392,85.135-45.615c6.529-3.313,12.825-7.195,19.483-10.195
			c12.007,0.024,24.039-0.145,36.014-1.227c25.001,20.301,50.123,40.449,75.204,60.646l-0.04,0.265
			c0.634,0.44,1.3,0.882,1.941,1.331c-2.294-21.705-4.323-43.449-6.866-65.122c-8.927,1.139-17.942,1.083-26.926,1.091
			c-7.235-0.057-14.47-0.409-21.688-0.858c19.595-3.36,39.046-9.104,56.187-19.387c14.959-8.823,27.688-21.191,37.53-35.461
			c9.191-13.37,17.004-28.073,20.221-44.106c1.837-8.487,1.548-17.213,0.136-25.732c2.343,2.944,4.38,6.12,6.192,9.417
			c3.337,6.441,5.27,13.523,6.16,20.71c24.256-13.059,48.463-26.213,72.702-39.295c0.312-0.289,0.938-0.858,1.251-1.147
			c0.297-0.032,0.891-0.112,1.188-0.144c-0.128-0.145-0.377-0.417-0.497-0.554c-30.488-0.04-60.983-0.08-91.479,0.016l-0.08-0.168
			c-6.016-10.949-16.619-18.737-28.17-23.06c-15.561-6.016-32.509-6.369-48.968-6.016c-3.2-30.047-5.831-60.174-9.288-90.188
			c-0.072-0.786-0.145-1.58-0.209-2.366C304.58,245.863,303.081,248.896,301.244,251.719z"/>
		<path id="path3096" fill="#231F1F" d="M214.922,381.266c26.75-0.241,53.508-0.032,80.266-0.104
			c8.959,0.385,18.44,1.019,26.325,5.727c4.106,2.366,6.89,6.593,7.876,11.189c1.5,7.901-1.106,15.946-4.812,22.868
			c-8.485,15.216-23.252,26.838-40.056,31.458c-9.305,2.615-19.002,3.441-28.635,3.738c-19.547,0.08-39.094-0.089-58.633,0.088
			c0.674-1.772,1.797-3.312,2.792-4.909c11.157-18.352,22.475-36.607,33.6-54.976C227.442,391.26,221.178,386.271,214.922,381.266z"
			/>
	</g>
	<g id="_x23_a7aaacff">
		<path id="path3099" fill="#A7AAAC" d="M305.799,246.216c0.257-0.168,0.762-0.505,1.019-0.682
			c3.457,30.014,6.088,60.141,9.288,90.188c-10.459,0.289-20.935,0.016-31.394,0.144c0.441-3.441,1.476-6.77,2.214-10.154
			C293.23,299.219,299.439,272.686,305.799,246.216z"/>
		<path id="path3101" fill="#A7AAAC" d="M216.286,364.831c1.315-2.246,2.583-4.532,4.146-6.609
			c31.057,0.176,62.106,0.024,93.164,0.072c11.599,0.201,23.678,1.564,33.913,7.452c5.927,3.353,10.587,8.654,13.507,14.782
			c10.78-5.181,21.521-10.427,32.229-15.729l0.08,0.168c1.757,3.553,2.952,7.339,4.483,10.997
			c1.412,8.519,1.701,17.245-0.136,25.732c-3.217,16.033-11.029,30.736-20.221,44.106c-9.842,14.27-22.571,26.638-37.53,35.461
			c-17.141,10.283-36.592,16.026-56.187,19.387c-7.203,0.946-14.422,1.757-21.625,2.647c-11.976,1.082-24.007,1.251-36.014,1.227
			c-6.658,3-12.954,6.882-19.483,10.195c-28.37,15.224-56.765,30.391-85.135,45.615c-2.174,1.106-4.243,2.438-6.545,3.288
			c-0.257-0.962,0.369-1.668,1.059-2.229c17.502-15.946,34.947-31.947,52.425-47.926c2.037-1.885,4.235-3.625,5.943-5.831
			l0.152-0.185c3.312-0.666,6.513-1.78,9.818-2.502c-1.708-0.835-3.65-0.386-5.471-0.466c-26.902-0.023-53.804,0.048-80.707-0.04
			l0.441-0.24c16.218-7.981,32.533-15.834,48.679-23.943c8.166-13.033,15.793-26.421,23.774-39.575
			C186.119,415.395,201.214,390.121,216.286,364.831 M214.922,381.266c6.256,5.005,12.521,9.994,18.721,15.079
			c-11.125,18.368-22.443,36.624-33.6,54.976c-0.995,1.597-2.118,3.137-2.792,4.909c-16.25,8.069-32.685,15.777-48.839,24.007
			c32.316-0.048,64.633-0.008,96.949-0.024c20.967,0.289,42.279-2.679,61.642-11.013c22.876-9.665,42.166-28.218,51.27-51.479
			c4.58-11.526,6.81-24.729,2.559-36.696c-10.571,5.029-21.039,10.283-31.603,15.344c0.04,0.425,0.12,1.283,0.16,1.708
			c-0.986-4.596-3.77-8.823-7.876-11.189c-7.885-4.708-17.366-5.342-26.325-5.727C268.43,381.233,241.672,381.025,214.922,381.266z"
			/>
		<path id="path3103" fill="#A7AAAC" d="M90.709,364.686c0.361,0.08,1.083,0.249,1.444,0.337c0.625,0.281,1.885,0.834,2.519,1.107
			c24.295,7.652,48.664,15.071,72.935,22.795c-5.246,8.567-10.13,17.358-15.601,25.78c-19.074-15.488-38.252-30.849-57.374-46.273
			C93.3,367.221,91.503,366.371,90.709,364.686z"/>
		<path id="path3105" fill="#A7AAAC" d="M473.542,367.951c3.514-0.802,6.954-1.997,10.571-2.302
			c-0.312,0.289-0.938,0.858-1.251,1.147c-24.239,13.083-48.446,26.237-72.702,39.295c-0.891-7.188-2.823-14.27-6.16-20.71
			C427.156,379.485,450.361,373.774,473.542,367.951z"/>
		<path id="path3107" fill="#A7AAAC" d="M305.422,501.508c8.984-0.008,18,0.048,26.926-1.091
			c2.543,21.673,4.572,43.417,6.866,65.122c-0.642-0.449-1.308-0.891-1.941-1.331l0.04-0.265c0.265-0.843,0.169-1.629-0.272-2.366
			C326.493,541.557,315.777,521.624,305.422,501.508z"/>
	</g>
	
		<path id="path3000" inkscape:connector-curvature="0" fill="#FFFFFF" fill-opacity="0" stroke="#000000" stroke-width="5.9269" stroke-opacity="0" d="
		M100.063,502.108c0.415-0.68,3.057-5.173,5.872-9.983c4.72-8.066,40.824-68.259,55.543-92.603
		c3.477-5.749,6.199-10.567,6.05-10.706c-0.149-0.139-16.529-5.32-36.4-11.515c-19.872-6.194-36.473-11.419-36.891-11.611
		c-0.477-0.219,6.048-0.379,17.494-0.429c10.041-0.044,29.96-0.184,44.267-0.311l26.012-0.231l8.588-14.357l8.588-14.357h25.686
		h25.687l26.018-43.07c30.285-50.135,29.821-49.386,30.009-48.411c0.077,0.399-0.107,0.909-0.409,1.132
		c-0.558,0.413-21.573,87.873-21.588,89.848c-0.002,0.34,6.779,0.488,27.855,0.609c29.583,0.17,30.157,0.202,39.893,2.185
		c17.541,3.572,31.676,12.369,39.376,24.504c0.665,1.049,1.179,1.932,1.141,1.962c-0.168,0.137-31.546,15.357-31.66,15.357
		c-0.07,0-0.735-1.036-1.477-2.302c-6.963-11.881-19.629-18.08-39.579-19.372c-3.164-0.205-26.614-0.372-52.743-0.376l-47.046-0.008
		l-1.107,1.616c-0.609,0.889-15.142,25.148-32.296,53.91c-17.154,28.762-33.137,55.494-35.517,59.407l-4.327,7.114l-17.875,8.831
		c-19.238,9.506-29.332,14.401-29.691,14.401C99.411,503.344,99.648,502.788,100.063,502.108L100.063,502.108z"/>
	
		<path id="path3002" inkscape:connector-curvature="0" fill="#FFFFFF" fill-opacity="0" stroke="#000000" stroke-width="5.9269" stroke-opacity="0" d="
		M403.032,383.26c-0.574-0.994-1.939-3.09-3.034-4.659c-1.643-2.355-3.552-6.378-5.912-12.455l-0.332-0.855l45.153,0.057
		c24.834,0.031,44.64,0.128,44.012,0.216c-0.627,0.087-18.548,4.512-39.823,9.831c-21.275,5.32-38.758,9.673-38.851,9.673
		S403.606,384.253,403.032,383.26L403.032,383.26z"/>
	
		<path id="path3004" inkscape:connector-curvature="0" fill="#FFFFFF" fill-opacity="0" stroke="#000000" stroke-width="5.9269" stroke-opacity="0" d="
		M157.37,476.085c4.393-2.223,15.156-7.54,23.919-11.814l15.933-7.772l31.417-0.168c36.285-0.194,41.816-0.497,52.144-2.851
		c22.55-5.14,41.017-21.18,47.792-41.512c0.958-2.874,1.048-3.645,1.085-9.362l0.041-6.23l15.495-7.532
		c9.668-4.7,15.551-7.362,15.644-7.081c2.585,7.829,2.649,16.891,0.188,26.634c-5.907,23.389-23.604,44.963-46.822,57.082
		c-13.634,7.116-29.347,11.577-48.504,13.771c-5.011,0.573-11.867,0.659-60.982,0.762l-55.336,0.116L157.37,476.085L157.37,476.085z
		"/>
	
		<path id="path3006" inkscape:connector-curvature="0" fill="#FFFFFF" fill-opacity="0" stroke="#000000" stroke-width="5.9269" stroke-opacity="0" d="
		M299.851,533.435c-20.365-16.43-36.857-29.929-36.65-29.998c0.208-0.069,4.976-0.682,10.596-1.361
		c8.683-1.05,10.875-1.195,14.591-0.966c2.405,0.148,6.446,0.284,8.979,0.302s5.374,0.137,6.312,0.266l1.707,0.233l6.192,11.842
		c3.405,6.512,10.548,20.089,15.872,30.171s9.624,18.567,9.554,18.857C336.928,563.102,322.428,551.648,299.851,533.435
		L299.851,533.435z"/>
	
		<path id="path3008" inkscape:connector-curvature="0" fill="#FFFFFF" fill-opacity="0" stroke="#000000" stroke-width="5.9269" stroke-opacity="0" d="
		M114.428,561.628c0.787-1.412,5.732-9.67,10.99-18.351c5.258-8.681,10.989-18.179,12.735-21.107c1.746-2.929,3.204-5.367,3.24-5.42
		c0.168-0.242,31.51-8.481,31.843-8.37c0.208,0.069-0.367,0.793-1.279,1.609c-15.017,13.436-57.037,52.227-57.224,52.827
		c-0.252,0.81-0.823,1.361-1.418,1.372C113.14,564.192,113.641,563.039,114.428,561.628L114.428,561.628z"/>
	
		<path id="path3005" inkscape:connector-curvature="0" fill="#FFFFFF" stroke="#000000" stroke-width="4.1909" stroke-opacity="0" d="
		M323.813,552.915c-7.321-5.913-24.051-19.423-37.178-30.021s-23.867-19.333-23.867-19.41c0-0.078,4.811-0.721,10.689-1.428
		l10.689-1.286l5.244,0.287c2.884,0.157,7.659,0.373,10.61,0.479l5.366,0.192l6.819,13.043c3.751,7.174,10.875,20.704,15.831,30.067
		c7.59,14.338,9.873,19.011,9.21,18.853C337.172,563.678,331.136,558.828,323.813,552.915L323.813,552.915z"/>
	
		<path id="path3775" inkscape:connector-curvature="0" fill="#FFFFFF" stroke="#000000" stroke-width="8.3819" stroke-opacity="0" d="
		M306.85,539.025c-16.409-13.241-33.015-26.658-36.902-29.816l-7.067-5.741l9.866-1.214c8.74-1.075,11.159-1.168,21.192-0.819
		l11.326,0.395l3.434,6.521c22.733,43.162,28.282,53.862,28.146,54.271C336.757,562.885,323.259,552.267,306.85,539.025
		L306.85,539.025z"/>
	
		<path id="path3777" inkscape:connector-curvature="0" fill="#FFFFFF" stroke="#000000" stroke-width="8.3819" stroke-opacity="0" d="
		M114.854,561.634c0-0.229,0.639-1.525,1.419-2.883c1.399-2.432,24.964-41.571,25.228-41.899c0.348-0.435,31.458-8.491,31.325-8.112
		c-0.084,0.238-10.802,10.161-23.818,22.053c-13.016,11.891-26.025,23.788-28.909,26.438S114.854,561.862,114.854,561.634
		L114.854,561.634z"/>
	
		<path id="path3779" inkscape:connector-curvature="0" fill="#FFFFFF" stroke="#000000" stroke-width="8.3819" stroke-opacity="0" d="
		M99.794,502.963c0-0.487,15.094-25.863,38.187-64.199c29.693-49.293,29.803-49.481,29.253-49.996
		c-0.263-0.246-16.573-5.463-36.245-11.592c-19.671-6.13-36.13-11.352-36.573-11.604c-0.451-0.257,18.672-0.466,43.373-0.476
		l44.18-0.017l8.552-14.387l8.552-14.388l25.8-0.139l25.799-0.14l27.15-44.922c14.933-24.707,27.222-44.705,27.311-44.439
		c0.088,0.266-4.343,19.454-9.847,42.641s-10.202,43.187-10.439,44.444l-0.432,2.286l24.268,0.008
		c25.814,0.009,33.894,0.415,42.644,2.143c5.887,1.163,14.858,4.095,19.246,6.29c7.782,3.894,16.768,11.517,20.449,17.349
		c1.535,2.431,1.653,3.02,0.689,3.414c-0.37,0.151-7.369,3.543-15.555,7.539l-14.882,7.263l-2.197-3.397
		c-5.979-9.246-15.253-14.63-29.86-17.337c-4.3-0.796-10.998-0.923-57.042-1.08c-49.612-0.169-52.2-0.13-52.763,0.783
		c-0.325,0.528-15.247,25.526-33.159,55.552c-43.659,73.186-38.438,64.984-42.77,67.183
		C132.38,487.377,99.794,503.204,99.794,502.963L99.794,502.963z"/>
	
		<path id="path3781" inkscape:connector-curvature="0" fill="#FFFFFF" stroke="#000000" stroke-width="8.3819" stroke-opacity="0" d="
		M99.794,502.973c0-0.485,7.051-12.344,37.799-63.567c16.807-27.999,29.912-50.375,29.644-50.616
		c-0.264-0.237-16.576-5.457-36.248-11.598c-19.671-6.142-36.13-11.372-36.573-11.624c-0.447-0.253,18.879-0.464,43.371-0.473
		l44.178-0.017l8.547-14.387l8.546-14.387l25.801-0.14l25.801-0.141l27.156-44.92c14.936-24.706,27.228-44.705,27.315-44.443
		c0.087,0.262-4.21,18.908-9.551,41.435s-10.039,42.529-10.442,44.449l-0.731,3.491l24.271,0.008
		c32.919,0.012,41.161,0.802,53.645,5.148c10.312,3.589,17.596,8.138,23.965,14.967c3.946,4.23,6.603,8.055,6.007,8.649
		c-0.381,0.381-30.021,14.803-30.711,14.943c-0.321,0.065-1.19-0.971-1.932-2.302c-2.137-3.84-8.943-10.252-13.255-12.487
		c-4.931-2.556-10.729-4.473-16.987-5.614c-4.506-0.822-10.797-0.946-56.99-1.124c-49.559-0.191-51.963-0.156-52.77,0.772
		c-0.465,0.535-15.489,25.539-33.387,55.564c-17.898,30.025-34.033,57.012-35.855,59.97l-3.313,5.379l-4.691,2.372
		C130.2,488.451,99.794,503.217,99.794,502.973L99.794,502.973z"/>
	
		<path id="path3783" inkscape:connector-curvature="0" fill="#FFFFFF" stroke="#000000" stroke-width="8.3819" stroke-opacity="0" d="
		M401.169,380.277c-2.501-3.703-7.173-13.427-7.173-14.933c0-0.146,20.392-0.242,45.314-0.214
		c39.006,0.043,44.826,0.149,41.817,0.76c-2.947,0.598-73.317,18.08-75.897,18.855C404.612,384.93,403.448,383.649,401.169,380.277
		L401.169,380.277z"/>
	
		<path id="path3785" inkscape:connector-curvature="0" fill="#FFFFFF" stroke="#000000" stroke-width="8.3819" stroke-opacity="0" d="
		M173.21,468.337l23.665-11.745l29.907-0.04c37.125-0.049,46.536-0.716,58.569-4.152c24.655-7.04,45.564-31.015,44.519-51.043
		l-0.254-4.867l15.319-7.404c8.427-4.072,15.512-7.207,15.744-6.965c0.233,0.242,0.807,2.305,1.273,4.585
		c4.466,21.822-10.318,51.979-34.381,70.129c-14.464,10.91-33.035,18.158-54.909,21.432c-10.315,1.543-24.321,1.896-73.636,1.857
		l-49.481-0.04L173.21,468.337L173.21,468.337L173.21,468.337z"/>
	
		<path id="path3787" inkscape:connector-curvature="0" fill="#FFFFFF" stroke="#000000" stroke-width="8.3819" stroke-opacity="0" d="
		M309.539,541.189c-14.93-12.049-31.539-25.441-36.909-29.762c-5.37-4.319-9.726-7.893-9.681-7.94
		c0.045-0.048,4.438-0.617,9.763-1.265c8.481-1.032,11.098-1.131,21.113-0.795l11.432,0.384l2.9,5.453
		c13.193,24.811,28.819,54.959,28.688,55.352C336.758,562.881,324.47,553.239,309.539,541.189z"/>
	
		<path id="path3789" inkscape:connector-curvature="0" fill="#FFFFFF" stroke="#000000" stroke-width="8.3819" stroke-opacity="0" d="
		M114.854,561.633c0-0.228,0.64-1.524,1.421-2.882c1.529-2.653,24.98-41.618,25.218-41.899c0.375-0.443,31.464-8.487,31.332-8.107
		c-0.126,0.361-15.742,14.728-53.265,49.004C116.972,560.112,114.854,561.86,114.854,561.633L114.854,561.633z"/>
</g>
</svg>
