<?xml version="1.0" encoding="utf-8"?>
<!-- Generator: Adobe Illustrator 16.0.0, SVG Export Plug-In . SVG Version: 6.00 Build 0)  -->
<!DOCTYPE svg PUBLIC "-//W3C//DTD SVG 1.1//EN" "http://www.w3.org/Graphics/SVG/1.1/DTD/svg11.dtd">
<svg version="1.1" id="Layer_1" xmlns="http://www.w3.org/2000/svg" xmlns:xlink="http://www.w3.org/1999/xlink" x="0px" y="0px"
	 width="425px" height="425px" viewBox="0 0 425 425" enable-background="new 0 0 425 425" xml:space="preserve">
<path fill="#EB2627" stroke="#FFFFFF" stroke-width="5" stroke-miterlimit="10" d="M55.318,151.31
	c-2.924-0.228-5.823-0.189-8.623-0.152c-0.563,0.013-1.133,0.013-1.688,0.013c16.807-14.666,34.711-37.312,35.008-67.441
	c0.017-1.639-1.106-3.174-2.719-3.727c-1.523-0.518-3.172-0.021-4.129,1.248c-11.871,15.682-26.482,31.975-46.375,38.15
	c21.084-15.985,34.197-35.722,39.002-58.81c0.322-1.615-0.512-3.293-2.035-4.107c-1.518-0.802-3.311-0.518-4.469,0.688
	C43.127,74.065,23.713,85.93,1.594,92.427c-32.063,9.419-65.416,8.819-97.664,8.251c-8.504-0.152-17.297-0.308-25.957-0.284
	c-15.249,0.058-33.079,1.155-49.676,8.938c-20.058,9.41-35.705,24.285-44.301,42.009c-5.301-0.788-10.688-1.204-16.076-1.204
	c-60.194,0-109.165,49.077-109.165,109.412c0,60.332,48.972,109.42,109.165,109.42c22.375,0,43.889-6.744,62.202-19.504
	c17.274-12.018,30.562-28.539,38.594-47.877c4.989,0.193,11.007,0.295,16.528-1.939c0.295-0.119,2.795-1.191,3.693-3.621
	c0.453-1.236,0.365-2.566-0.238-3.746c-0.403-0.766-0.996-1.652-1.692-2.676l-0.478-0.707h1.113
	c11.494,0.025,23.369,0.062,34.062-4.174c0.906-0.359,1.611-1.111,1.936-2.039c0.309-0.934,0.203-1.969-0.312-2.807
	c-1.905-3.168-4.948-5.695-7.899-8.148c-0.785-0.662-1.562-1.309-2.31-1.949c16.439-0.121,32.062-0.816,47.091-8.49
	c1.207-0.619,2.032-1.717,2.25-3.035c0.223-1.295-0.187-2.625-1.093-3.562c-1.881-1.969-4.084-3.98-6.571-6.014
	c17.994-4.672,36.541-13.238,42.805-18.887c1.535-1.381,2.201-3.848,0.209-6.211c-0.969-1.16-2.485-2.443-3.983-3.604
	c16.213-6.421,32.666-14.332,45.012-29.042c0.979-1.154,1.248-2.688,0.744-4.126c-0.554-1.56-1.957-2.774-3.58-3.097
	c-2.291-0.442-4.613-0.752-7.088-0.959c9.989-6.225,20.106-13.681,29.051-24.166c1.059-1.243,1.365-3.272,0.738-4.819
	C58.115,152.37,56.832,151.432,55.318,151.31L55.318,151.31z"/>
</svg>
