<?xml version="1.0" encoding="utf-8"?>
<!-- Generator: Adobe Illustrator 16.0.0, SVG Export Plug-In . SVG Version: 6.00 Build 0)  -->
<!DOCTYPE svg PUBLIC "-//W3C//DTD SVG 1.1//EN" "http://www.w3.org/Graphics/SVG/1.1/DTD/svg11.dtd">
<svg version="1.1" id="Layer_1" xmlns="http://www.w3.org/2000/svg" xmlns:xlink="http://www.w3.org/1999/xlink" x="0px" y="0px"
	 width="430px" height="430px" viewBox="0 0 430 430" enable-background="new 0 0 430 430" xml:space="preserve">
<g sketch:type="MSLayerGroup">
	<path sketch:type="MSShapeGroup" fill="#FFFFFF" d="M392.239,164.824c-14.066,12.326-30.046,20.274-47.448,26.058
		c-16.566,5.507-33.655,8.05-50.823,7.35c-2.165-0.089-3.567-3.823-5.776-5.142c-1.813-1.084-4.469-0.707-6.829-1.059
		c-0.9-0.139-1.033-1.887-0.441-2.075c3.652-1.192,7.565-0.739,11.499-1.381c1.766-0.297,1.893-2.587,3.161-3.154
		c5.154-2.303,10.919-1.488,16.508-2.03c1.397-0.126,0.687-2.631,1.636-3.06c2.063-0.915,4.218,0.713,6.479,1.242
		c1.957,0.485,1.968-2.536,2.988-2.239c3.996,1.122,5.67,0.195,8.515-2.119c0.516-0.435,1.768-0.038,2.644,0.195
		c0.906,0.234,2.361,0.775,2.838-0.398c3.027-7.507,11.059-0.282,15.707-1.748c1.217-0.371-0.716-2.44,0.209-3.058
		c3.235-2.096,7.087,0.68,10.392-0.864c1.259-0.599,0.052-2.473,0.748-3.249c1.071-1.211,2.953,0.417,4.316-0.24
		c1.027-0.492,2.733-1.047,3.521-1.085c3.789-0.108,6.42-1.886,10.125-2.496c0.599-0.089,0.969-1.099,1.573-1.236
		c2.889-0.688,8.11,0.259,8.459,0.46c0.421,0.257,0.861,0.572,0,1.33L392.239,164.824z M367.435,196.024
		c1.819,0.429,5.223,1.136,4.658,1.602c-28.72,23.604-65.839,28.13-100.349,28.476c-3.375-4.523-9.062-6.475-14.021-9.272
		c-0.298-0.158-0.283-1.528,0-1.674c4.045-1.999,8.56-1.21,12.988-1.897c1.636-0.245,2.104-2.675,3.625-3.135
		c5.141-1.578,10.147-3.558,15.584-3.338c4.562,0.197,9.018,0.581,13.594,0.367c1.372-0.068,0.788-2.82,2.078-3.066
		c5.105-0.927,9.914,1.099,15.055,0.052c1.031-0.203,1.278-2.258,1.706-2.442c5.589-2.258,12.103-0.346,18.019-2.39
		c-0.611-0.543-1.521-1.356-0.891-1.855c0.992-0.775,2.748-0.379,3.866-0.259c2.344,0.245,5.024,0.541,7.309-1.142
		c1.536-1.136,3.983,0.555,5.757-0.038c1.895-0.618,3.665-1.742,5.598-1.111C364.175,195.614,365.646,195.614,367.435,196.024
		L367.435,196.024z M292.444,244.861c-19.58,3.677-38.011,3.179-56.874-1.639c-0.961-0.26,1.625-2.172,2.998-2.664
		c4.494-1.588,9.408-1.91,13.926-3.539c0.945-0.35,1.693-1.797,2.41-2.522c1.847-1.886,5.029-2.479,7.443-3.205
		c7.389-2.208,15.158,0.294,23.021,1.449c3.115,0.463,6.066,0.802,9.164,1.717c0.384,0.118,1.698-0.399,1.83-1.293
		c0.152-1.022,0.177-2.297,1.121-2.322c2.485-0.056,5.206,0.941,7.466,0.064c2.9-1.136,6.092-0.349,9.175-0.79l1.02-1.488
		c3.142-0.73,6.434,0.727,9.264-0.593c2.152-1.003,6.95,1.948,7.881,3.129C319.954,238.117,306.795,242.172,292.444,244.861
		L292.444,244.861z M292.407,261.419c-12.487,3.866-25.106,3.812-37.821,3.821c-12.964,0.033-25.082-3.811-37.818-7.322
		c-0.758-0.203-0.644-1.199-0.438-1.33c1.79-1.004,4.05-0.436,5.941-1.238c1.021-0.416,1.234-1.785,2.127-2.328
		c1.172-0.725,3.791-0.629,4.908-1.306c1.637-0.978,2.116-2.157,3.729-3.122c1.496-0.894,3.333,0.582,5.485,0.114
		c4.349-0.914,7.492,2.946,11.549,4.13c1.625,0.467,3.06-0.964,4.488-0.73c1.637,0.259,2.901,1.766,4.588,2.257
		c1.315,0.386,2.272,0.43,3.625-0.232c1.905-0.927,3.788,1.652,5.915,1.149c0.718-0.164,0.707-1.68,1.563-1.756
		c3.436-0.271,5.696,3.367,9.057,3.317c0.352-0.013,0.637-0.68,1.043-0.852c1.794-0.683,3.456,0.892,5.608,0.26
		c2.657-0.788,5.08,1.293,6.832,3.343c0.817,0.932,0.611,1.527-0.384,1.822L292.407,261.419z M253.049,279.624
		c1.192,0.901,1.809,2.405,1.411,2.532c-7.81,2.312-20.637,0.994-30.133,0.143c-8.447-0.763-16.415-3.115-24.169-6.262
		c-5.186-2.109-10.196-4.113-15.087-7.109c-1.315-0.803-3.31-1.098-3.506-2.897c-0.025-0.2,0.378-0.8,0.454-0.837
		c2.851-1.42,6.061,0.611,8.956-0.321c1.02-0.336,1.744-2.082,2.581-2.07c2.114,0.025,4.419,0.802,6.37-0.643
		c1.428-1.084,3.531-0.321,5.023,0.373c2.001,0.933,5.222,5.376,7.747,4.876c0.699-0.146,4.897-0.983,5.607-0.574
		c3.936,2.365,10.299,7.059,14.711,7.309c0.862,0.06,1.428-2.541,2.524-1.973c2.669,1.408,4.399,3.4,6.59,3.796
		c0.705,0.134,1.995-0.978,2.817-0.85c1.613,0.231,2.555,1.432,4.32,2.686c0.76,0.531,2.566,0.878,3.785,1.823L253.049,279.624z
		 M220.775,296.195c-28.251,0.664-53.993-15.832-72.528-37.81c-0.271-0.321-0.295-1.356,0.403-1.319
		c3.248,0.234,5.797,2.354,8.685,3.697c3.159,1.445,6.728,5.799,9.975,3.256c0.674-0.531,0.271-1.565,0.983-1.369
		c4.255,1.121,7.206,4.699,10.298,7.777c2.656,2.662,4.034,6.389,7.476,8.074c1.498,0.719,2.631-2.675,3.801-1.652
		c2.582,2.256,4.368,4.494,7.131,6.56c1.145,0.866,1.831-1.745,2.291-1.96c1.214-0.555,4.009,2.244,5.412,3.369
		c1.768,1.404,3.674,3.304,5.89,4.636c1.095,0.649,2.064-0.927,3.084-0.511c1.65,0.68,3.225,1.677,5.018,2.182
		c1.117,0.309,2.106,2.688,2.976,3.771C222.777,296.254,221.436,296.184,220.775,296.195L220.775,296.195z M160.657,348.818
		c-12.859,7.468-26.239,11.379-40.764,12.724c-6.786,0.624-13.407,0.17-20.122-0.827c-46.467-6.881-83.513-49.152-82.832-95.662
		c0-0.095,0.698,1.616,1.573,1.924c1.056,0.359,1.484-0.502,2.163-1.269c0.971-1.095,2.054,1.244,3.344,0.791
		c0.397-0.151,0.742-0.878,0.989-0.815c2.492,0.592,2.531-2.416,4.525-1.925c1.201,0.296,0.86,2.158,1.561,3.306
		c0.711,1.18,1.958,1.342,2.978,0.883c3.738-1.646,2.411-6.1,4.601-8.971c0.981,5.18,0.037,10.365,1.201,15.633
		c1.75,7.854,3.594,15.102,6.985,22.234c6.017,12.674,15.452,22.635,27.662,30.35c34.093,21.572,79.491,10.11,100.871-22.201
		c3.084,0.639,6.948,1.914,10.61,2.431c2.008,0.282,4.009,0.282,6.017,0c0.391-0.063,1.563-0.423,1.447-0.581
		c-3.059-4.342-9.479-9.456-10.007-16.003c6.306,2.382,13.985,4.959,21.695,7.582C194.971,318.727,180.91,337.059,160.657,348.818
		L160.657,348.818z M23.176,222.65c6.28-12.044,14.532-22.143,24.634-31.353c13.022-11.859,27.585-19.688,44.906-23.554
		c20.808-4.623,40.142-3.64,60.439,5.287c0.882,0.371-1.65,5.695-2.278,5.45c-34.232-13.033-74.449-7.659-100.399,19.006
		c-9.913,10.169-20.826,20.797-22.902,35.187c-1.687-2.258,0.151-5.564-2.128-7.464c-1.006-0.813-1.933,1.628-2.77,0.751
		C21.865,225.117,22.678,223.62,23.176,222.65L23.176,222.65z M223.061,114.441c39.52-0.839,88.408,1.111,115.479-6.327
		c23.2-6.359,39.516-12.496,57.45-29.767c2.793-2.7,3.726-2.208,1.968,0.7c-11.056,18.369-30.157,31.818-56.454,39.18
		c-29.581,8.295-86.066,5.065-118.441,6.333c-36.135,1.406-63.059,15.164-74.413,39.609l-8.409-3.375
		C150.424,130.589,184.353,115.267,223.061,114.441L223.061,114.441z M138.22,275.014c-2.423-2.701-2.511-6.693-0.931-9.847
		c0.969-1.925,4.129-4.209,5.387-2.776c1.253,1.406,1.856,3.762,2.889,5.152c0.825,1.111,2.089,1.256,2.938,2.518
		c0.862,1.278,1.688,3.594,2.814,4.498c0.812,0.674,1.931,0.971,2.681,1.811c0.58,0.631,0.692,1.6,1.234,2.131l2.103,1.122
		c1.056,0.927,1.794,3.168,3.084,3.515c0.717,0.182,1.895-0.582,2.498-0.234c1.108,0.675,2.033,1.565,2.914,2.562
		c0.925,1.054,1.8,2.206,2.744,3.254c0.862,0.952,1.687,2.335,2.77,2.984c0.773,0.448,2.272-0.711,2.889-0.195
		c0.812,0.661,1.197,2.366,2.027,2.856c1.12,0.671,2.756,0.051,3.386,1.211c0.8,1.439,2.19,4.769,3.506,6.656
		c-17.649-2.908-33.062-13.929-44.933-27.22V275.014z M114.052,200.092c-34.66,0-62.761,28.165-62.761,62.917
		c0,34.737,28.101,62.902,62.761,62.902c20.87,0,39.361-10.206,50.771-25.911l8.39,2.993
		c-12.827,19.012-34.527,31.521-59.161,31.521c-39.405,0-71.346-32.013-71.346-71.508s31.941-71.521,71.346-71.521
		c10.402,0,21.758,2.663,31.721,7.304v9.904C136.464,203.233,125.626,200.092,114.052,200.092z M140.076,236.812
		c-2.681-2.703-5.707-4.91-8.987-6.619l15.161-12.959c0.089,6.619-1.66,14.769-4.474,21.229L140.076,236.812L140.076,236.812z
		 M114.164,299.482c5.595,0,10.984-1.281,15.866-3.647l1.573,22.091c-5.487,1.745-11.354,2.697-17.441,2.697
		c-1.083,0-2.176-0.035-3.248-0.087l-3.298-21.67c2.142,0.393,4.332,0.614,6.547,0.614L114.164,299.482z M106.575,292.113
		l-1.366-9.027c2.336,1.047,4.896,1.704,7.578,1.862L106.575,292.113z M104.295,300.025l3.078,20.192
		c-5.853-0.702-11.435-2.252-16.616-4.573L104.295,300.025L104.295,300.025z M84.766,284.596c1.07,1.438,2.216,2.846,3.504,4.139
		c3.947,3.949,8.636,6.843,13.752,8.641l-14.488,16.719c-5.607-2.934-10.662-6.77-14.991-11.306L84.766,284.596z M82.367,281.977
		l-12.21,18.16c-4.148-4.906-7.502-10.516-9.843-16.64L82.367,281.977z M77.988,257.042c-0.283,1.86-0.441,3.771-0.441,5.722
		c0,5.58,1.266,10.944,3.594,15.824l-22.016,1.528c-1.698-5.456-2.623-11.267-2.623-17.291c0-0.554,0.025-1.108,0.05-1.664
		L77.988,257.042L77.988,257.042z M77.88,253.527l-21.122,4.082c0.58-6.496,2.216-12.674,4.764-18.368L77.88,253.527z
		 M93.476,232.497c-6.314,4.339-11.215,10.629-13.827,17.998l-16.566-14.484c3.248-6.188,7.578-11.708,12.732-16.321L93.476,232.497
		z M97.56,230.057c-0.295,0.152-0.603,0.295-0.9,0.461L78.552,217.41c5.645-4.46,12.129-7.899,19.202-9.985l-0.195,22.634
		L97.56,230.057z M92.304,266.152l0.139,0.785l-7.37,10.983c-2.398-4.63-3.689-9.782-3.689-15.157c0-1.937,0.195-3.836,0.516-5.709
		L92.304,266.152z M97.421,248.352c-0.465,0.525-0.888,1.096-1.303,1.676l-13.097,2.503c1.573-4.843,4.267-9.284,7.968-13.009
		c1.779-1.781,3.751-3.301,5.84-4.607l0.693,0.491L97.421,248.352L97.421,248.352z M92.097,261.383l-6.628-5.783l8.434-1.629
		C92.908,256.27,92.28,258.758,92.097,261.383z M97.548,277.454l-8.39,0.583l4.564-6.782
		C94.652,273.527,95.937,275.619,97.548,277.454z M101.052,280.686l0.328,0.219l1.958,12.861c-4.587-1.615-8.804-4.205-12.349-7.758
		c-1.355-1.355-2.569-2.832-3.65-4.383L101.052,280.686L101.052,280.686z M106.61,241.99c-2.064,0.751-3.996,1.798-5.721,3.103
		l0.062-7.21L106.61,241.99z M124.515,243.232c-1.895-1.01-3.946-1.772-6.123-2.193l5.386-4.605L124.515,243.232L124.515,243.232z
		 M123.948,205.883c7.564,1.306,14.639,4.057,20.895,7.999l-17.239,14.735c-0.409-0.163-0.823-0.309-1.245-0.448L123.948,205.883
		L123.948,205.883z M121.702,283.655c2.656-0.96,5.079-2.416,7.156-4.253l0.673,9.332L121.702,283.655L121.702,283.655z
		 M114.161,274.691c-6.557,0-11.882-5.336-11.882-11.926c0-6.574,5.324-11.925,11.882-11.925c6.578,0,11.902,5.349,11.902,11.925
		C126.064,269.355,120.739,274.691,114.161,274.691L114.161,274.691z M117.358,284.948l11.217,7.288
		c-4.342,2.158-9.226,3.393-14.414,3.393c-1.895,0-3.776-0.189-5.62-0.504L117.358,284.948L117.358,284.948z M101.027,228.502
		l0.183-22.001c4.18-0.952,8.509-1.482,12.952-1.482c2.128,0,4.217,0.151,6.27,0.371l2.34,21.719c-2.781-0.674-5.657-1.06-8.61-1.06
		C109.535,226.05,105.117,226.927,101.027,228.502z M114.161,229.898c3.109,0,6.149,0.453,9.051,1.293l0.114,1.097l-9.793,8.369
		c-0.862,0.028-1.698,0.122-2.542,0.235l-10.001-7.236v-0.983C105.093,230.87,109.55,229.898,114.161,229.898L114.161,229.898z
		 M130.274,247.624c-0.63-0.688-1.316-1.321-2.02-1.912l-1.303-11.991l0.925-0.789c3.481,1.603,6.69,3.805,9.477,6.59l2.883,2.885
		l-2.24,4.624L130.274,247.624L130.274,247.624z M131.772,249.729l5.243-0.17l-2.215,5.09
		C134.12,252.662,132.956,251.42,131.772,249.729L131.772,249.729z M133.05,289.598l-0.983-13.731
		c1.856,2.612,4.242,6.352,6.483,8.258C136.655,286.443,135.499,287.85,133.05,289.598L133.05,289.598z M151.302,306.989
		c-4.832,4.079-10.315,7.425-16.321,9.739l-1.523-21.314L151.302,306.989z M135.473,292.594c1.623-1.16,3.165-2.43,4.601-3.859
		l2.266-2.096l16.963,12.08c-1.403,1.692-3.053,3.697-5.331,5.893L135.473,292.594z M367.487,133.574
		c17.44-4.277,32.028-13.41,43.668-26.305c0.848-1.122,3.751-4.623,4.316-5.745c0.556-1.124,1.127-1.124,0.699,0.145
		c-0.418,1.25-3.286,5.88-3.997,7.286c-7.257,11.909-18.806,19.271-30.599,25.321c-17.246,8.799-35.756,14.017-54.859,15.076
		c-34.03,1.912-67.903,0.631-101.896,0.763c-12.449,0.05-24.192,3.912-35.228,10.901c-11.713,7.431-20.013,17.637-25.546,29.819
		c-4.688,10.308-4.341,21.794-5.3,33.25c-1.257,15.172-8.843,28.57-19.768,34.675c4.834-8.851,9.899-19.051,11.561-29.49
		c1.673-10.49,0.038-18.785,0.46-28.044c0.968-21.348,14.5-39.754,33.068-50.27c13.147-7.456,26.961-12.079,41.771-12.634
		c11.624-0.429,23.163,0.543,34.806,1.331c14.192,0.964,28.277,0.914,42.369,0.516c1.676-0.037,3.892,0.013,5.576-0.037
		C328.402,139.467,347.752,138.42,367.487,133.574L367.487,133.574z M247.636,158.138c2.517-0.972,6.007,2.643,8.853,0.152
		c1.637-1.433,4.824,0.837,7.23,1.923c2.507,1.136,4.242-0.568,6.309-1.899c1.353-0.877,3.454,1.735,5.833,1.161
		c0.812-0.189,0.624-2.001,1.436-2.1c2.783-0.328,5.231,2.297,7.776,1.173c0.91-0.41,1.906-1.999,2.898-2.598
		c1.221-0.744,2.882,0.985,3.777,0.183c2.623-2.378,5.268-1.383,7.704-1.022c0.516,0.081,1.02,2.107,0.403,2.498
		c-10.292,6.402-20.512,8.123-32.274,9.429c-5.679,0.645-16.969-0.417-23.873-4.447
		C239.801,160.334,245.521,158.977,247.636,158.138L247.636,158.138z M252.576,211.441c-10.87,2.517-21.118,1.818-31.723-0.738
		c-2.207-0.529-3.453-2.687-5.209-4.213c-0.385-0.334-2.215-0.139-2.277-0.359c-0.738-2.17-1.291-3.052-3.045-4.46
		c-0.271-0.222-0.485-1.64,0.39-1.717c2.706-0.22,5.362-0.541,8.045-0.877c1.375-0.17,1.44-2.598,2.63-3.103
		c2.78-1.149,5.928-1.294,9.006-1.615c7.955-0.827,15.715-2.106,23.691-1.514c8.018,0.612,15.459,3.217,23.18,5.584
		c0.987,0.296,2.742,0.921,1.881,2.289c-1.059,1.665-3.304,1.679-5.055,2.865c-2.324,1.565-5.645,0.972-7.734,2.958
		c-2.953,2.834-6.926,3.052-10.728,3.539C254.583,210.225,253.732,211.164,252.576,211.441L252.576,211.441z M208.89,237.02
		c-3.593-0.906-8.956-2.066-9.793-4.277c0.484,0.14,1.415-1.202,1.453-1.588c0.114-1.68-3.197-2.032-4.342-3.168
		c-0.297-0.281-0.528-1.728,0.384-1.741c1.769-0.044,5.507,1.497,8.07,0.177c0.698-0.346,0.736-1.357,1.794-1.794
		c1.058-0.44,2.473,0.152,3.159-0.207c0.654-0.379,1.712-0.492,2.201-1.167c0.36-0.498-0.22-1.9,0.308-2.418
		c0.875-0.875,2.089-0.46,3.417-1.324c0.85-0.541,1.636-1.945,2.316-2.341c1.291-0.751,2.994-0.839,4.463-0.946
		c4.164-0.297,8.35-0.113,12.578,0.43c3.598,0.455,7.078,0.803,10.619,1.835c5.803,1.681,11.498,2.946,16.64,6.094
		c-3.128,4.253-8.269,4.472-12.552,6.692c-3.455,1.798-7.166,1.981-10.764,3.065C228.982,237.328,218.8,239.511,208.89,237.02
		L208.89,237.02z M160.208,249.497c1.529,0.26,2.743-0.604,3.996-0.294c1.687,0.41,2.386,0.568,3.681,1.234
		c0.837-0.528,2.103-0.717,2.531-0.85c2.361-0.75,5.079,0.727,7.553,0.543c1.208-0.09,1.133-2.663,2.052-3.085
		c3.411-1.553,7.9,0.718,11.505-0.183c0.416-0.114,0.108-2,1.694-3.166c0.654-0.487,3.493-0.531,4.404-0.893
		c0.1-0.371,0.208-1.209,1.045-1.639c2.731-1.357,6.601,0.902,10.454,1.525c2.706,0.447,5.375,1.42,8.07,2.31
		c2.086,0.688,5.24,2.625,4.561,3.326c-10.869,11.069-27.868,12.401-42.823,11.327c-8.799-0.639-18.364-0.75-25.49-6.553
		c-1.642-1.32,0.447-4.058,2.353-5.072C157.16,247.303,158.772,249.252,160.208,249.497L160.208,249.497z M180.43,230.156
		c4.267,2.019,8.766,3.746,12.102,7.076c-7.44,4.5-15.708,5.867-24.255,7.274c-3.122,0.519-6.395,1.062-9.542-0.19
		c1.831-6.541,4.229-12.866,6.565-19.226C170.624,225.943,175.533,227.842,180.43,230.156L180.43,230.156z M194.647,170.248
		c2.436-0.852,5.507-1.534,5.13-4.843c-0.089-0.771,1.189-1.225,1.869-1.313c1.856-0.247,3.674-0.315,5.493-0.788
		c1.467-0.379,2.072-1.911,3.205-2.726c3.957-2.869,8.911-0.058,12.764-1.71c1.768-0.775,3.567-1.186,5.117-0.282
		c3.862,2.277,9.553,3.154,10.726,7.853c-13.804,8.088-30.173,10.314-45.914,10.118C193.11,174.229,192.273,171.094,194.647,170.248
		L194.647,170.248z M202.678,181.906c5.054,1.097,8.945,3.734,13.469,5.513c1.756,0.688,5.508,2.712,3.801,3.709
		c-14.317,8.231-30.932,9.28-47.083,9.184c0.17-2.452,1.39-4.169,1.945-6.458c0.71-2.922,5.223-3.653,5.154-7.696
		c-0.025-2.227,4.35-1.798,5.727-3.747c0.553-0.776,1.108-1.968,1.844-2.096c5.119-0.85,9.977,0.481,15.145,1.591H202.678z
		 M168.98,210.027c1.045-1.545,1.756-3.651,2.644-4.157c6.514-3.747,15.068-2.069,22.431-0.012
		c6.351,1.766,12.902,3.267,17.566,8.187c0.258,0.271,0.22,1.217,0.025,1.306c-14.085,6.473-29.543,9.185-44.762,7.52
		c-0.44-0.053,0.114-3.295-0.17-5.413c-0.208-1.477,1.216-2.329,2.361-3.709C169.69,212.998,168.212,211.194,168.98,210.027
		L168.98,210.027z M293.448,182.115c-20.75,8.055-43.208,8.055-65.079,6.819c-0.903-0.05-1.113-1.76-1.743-2.612
		c-0.798-1.124-2.606-1.42-3.567-2.133c-0.775-0.581-0.699-1.565-1.537-2.245c-0.785-0.657-2.901-0.492-4.172-1.06
		c-0.479-0.195-1.082-1.754-0.479-2.107c2.718-1.59,6.923,1.179,8.648-1.072c2.862-3.709,6.543-0.954,9.873-2.235
		c1.02-0.39,0.785-1.715,1.248-2.289c2.862-3.489,8.147-3.937,12.711-4.043c3.752-0.089,8.219,0.037,11.512,0.454
		c9.165,1.433,17.259,2.845,25.364,6.755c2.253,1.099,4.832,1.642,6.815,3.622C293.855,180.771,293.149,181.464,293.448,182.115
		L293.448,182.115z M418.41,103.346c-0.553,2.246-1.222,4.314-2.061,6.705c-6.175,17.542-19.673,28.783-34.287,39.483
		c-13.702,10.024-27.492,16.325-43.8,20.11c-12.396,2.87-24.287,5.438-36.734,4.549c-2.864-0.209-5.068-2.096-7.736-3.413
		c-1.145-0.555-3.091-0.385-4.254-1.041c-1.284-0.738-0.68-2.39,0.893-2.675c1.858-0.34,3.94,0.423,5.375-0.39
		c3.632-2.063,7.615-1.225,11.21-2.378c2.128-0.668,0.059-3.678,1.643-4.169c2.047-0.663,4.292-0.89,6.433-1.464
		c1.025-0.272,1.206-2.763,1.724-2.915c2.938-0.858,8.006,0.398,11.933,0.321c1.241-0.012,0.403-2.276,1.937-2.303
		c4.923-0.05,4.481,0.556,7.801-1.664c3.04-2.038,10.407,0.827,10.319-3.861c6.212-1.034,12.867,0.813,18.462-3.311
		c0.912-0.658,2.585,0,3.842-0.802c0.722-0.46,0.671-1.64,1.56-1.899c2.334-0.705,4.809-0.68,6.985-1.69
		c1.278-0.593,1.059-2.788,1.725-3.085c13.563-6.176,24.792-14.483,32.625-27.39c1.536-2.517,3.249-6.025,3.677-7.147
		C418.091,101.796,418.764,101.966,418.41,103.346L418.41,103.346z M400.882,158.498c-5.546-0.442-11.072,0.139-16.617-0.296
		c-0.887-0.064-0.665-1.489-0.385-1.711c21.979-17.529,38.361-41.052,38.632-68.933c0-0.348-0.584-0.775-0.843-0.436
		c-15.207,20.086-33.292,38.511-58.645,41.608c-1.198,0.158-1.278-1.948-0.348-2.554c23.123-15.089,40.037-35.268,45.682-62.4
		c0.062-0.309-0.528-0.751-0.837-0.429c-16.539,17.303-36.366,29.446-59.155,36.139c-41.048,12.074-82.939,7.98-124.548,8.112
		c-16.478,0.052-33.081,1.483-48.273,8.617c-18.769,8.807-34.88,23.03-43.541,42.138l-0.27,0.506
		c-5.84-1.022-11.844-1.528-17.982-1.528c-58.443,0-105.836,47.481-105.836,106.071c0,58.582,47.392,106.078,105.836,106.078
		c44.831,0,83.135-27.934,98.568-67.39l1.492-0.024c5.186,0.209,10.907,0.404,16.024-1.652c0.617-0.26,2.411-1.434,1.746-2.727
		c-0.831-1.576-3.369-4.758-4.154-6.889c-0.184-0.461-0.298-1.383,0.44-1.393c12.837-0.092,26.642,0.736,38.448-3.936
		c-2.988-4.941-9.836-8.592-13.601-13.449c-0.85-1.105,0.813-1.709,1.378-1.709c17.932-0.064,34.646-0.076,50.439-8.138
		c0.593-0.309,0.603-0.957,0.258-1.319c-3.493-3.653-7.811-7.104-11.856-9.974c19.975-4.003,41.954-14.03,48.272-19.712
		c0.667-0.605,0.233-1.191-0.12-1.59c-1.675-1.999-6.149-5.016-6.985-5.854c-0.281-0.283-0.2-1.225-0.036-1.307
		c17.762-6.818,35.308-14.608,48.064-29.773c0.58-0.711-0.218-1.653-0.925-1.797c-5.141-0.985-10.045-1.219-15.111-1.149
		c0-0.674-0.204-1.665,0.094-1.849c13.286-7.74,25.054-15.865,35.08-27.599C401.568,159.903,401.767,158.56,400.882,158.498
		L400.882,158.498z"/>
	<path sketch:type="MSShapeGroup" fill="#EB2627" d="M401.269,160.25c-10.025,11.733-21.795,19.858-35.08,27.599
		c-0.298,0.183-0.094,1.173-0.094,1.849c5.067-0.07,9.971,0.164,15.111,1.149c0.707,0.145,1.505,1.085,0.925,1.797
		c-12.757,15.164-30.303,22.955-48.064,29.773c-0.162,0.083-0.245,1.022,0.036,1.308c0.835,0.838,5.312,3.854,6.985,5.853
		c0.354,0.399,0.786,0.983,0.12,1.59c-6.318,5.683-28.298,15.709-48.272,19.712c4.045,2.869,8.363,6.319,11.856,9.975
		c0.345,0.36,0.336,1.01-0.258,1.318c-15.793,8.061-32.507,8.073-50.439,8.139c-0.565,0-2.228,0.603-1.378,1.707
		c3.764,4.858,10.61,8.51,13.601,13.45c-11.807,4.673-25.609,3.845-38.448,3.935c-0.738,0.013-0.624,0.934-0.441,1.394
		c0.786,2.13,3.324,5.312,4.155,6.89c0.665,1.293-1.129,2.467-1.746,2.726c-5.119,2.058-10.839,1.86-16.024,1.651l-1.492,0.025
		c-15.433,39.458-53.736,67.389-98.568,67.389c-58.443,0-105.836-47.494-105.836-106.078c0-58.588,47.392-106.07,105.836-106.07
		c6.138,0,12.142,0.506,17.982,1.528l0.27-0.506c8.661-19.107,24.773-33.332,43.541-42.138c15.193-7.134,31.796-8.566,48.272-8.617
		c41.608-0.132,83.501,3.962,124.549-8.112c22.789-6.692,42.616-18.836,59.154-36.139c0.309-0.322,0.9,0.12,0.838,0.429
		c-5.645,27.131-22.559,47.311-45.682,62.4c-0.931,0.606-0.85,2.712,0.348,2.554c25.352-3.097,43.438-21.524,58.645-41.608
		c0.258-0.339,0.843,0.089,0.843,0.436c-0.271,27.881-16.652,51.404-38.632,68.933c-0.28,0.222-0.502,1.646,0.385,1.711
		c5.545,0.435,11.071-0.146,16.617,0.296C401.773,158.56,401.574,159.903,401.269,160.25L401.269,160.25z M401.155,155.16
		c-2.924-0.228-5.825-0.189-8.623-0.152c-0.565,0.013-1.133,0.013-1.688,0.013c16.807-14.666,34.71-37.312,35.007-67.441
		c0.016-1.639-1.106-3.174-2.718-3.727c-1.523-0.518-3.172-0.021-4.129,1.248c-11.871,15.682-26.483,31.975-46.376,38.15
		c21.085-15.985,34.197-35.722,39.003-58.81c0.322-1.615-0.513-3.293-2.036-4.107c-1.517-0.802-3.311-0.518-4.469,0.688
		c-16.163,16.893-35.578,28.758-57.696,35.255c-32.065,9.419-65.417,8.819-97.665,8.251c-8.503-0.152-17.297-0.308-25.957-0.284
		c-15.248,0.058-33.078,1.155-49.676,8.938c-20.058,9.41-35.705,24.285-44.301,42.009c-5.3-0.788-10.687-1.204-16.076-1.204
		c-60.193,0-109.165,49.078-109.165,109.413c0,60.332,48.971,109.419,109.165,109.419c22.375,0,43.888-6.744,62.202-19.503
		c17.275-12.018,30.561-28.539,38.594-47.877c4.99,0.193,11.007,0.295,16.529-1.939c0.295-0.12,2.795-1.191,3.692-3.622
		c0.453-1.235,0.365-2.565-0.238-3.746c-0.403-0.765-0.995-1.651-1.692-2.675l-0.478-0.707h1.113
		c11.494,0.025,23.369,0.062,34.062-4.175c0.906-0.359,1.611-1.111,1.937-2.039c0.308-0.933,0.202-1.968-0.313-2.806
		c-1.906-3.168-4.949-5.696-7.9-8.149c-0.785-0.661-1.561-1.308-2.308-1.949c16.438-0.12,32.06-0.815,47.09-8.489
		c1.207-0.619,2.032-1.718,2.25-3.035c0.223-1.295-0.186-2.625-1.093-3.564c-1.881-1.967-4.084-3.98-6.571-6.012
		c17.994-4.672,36.541-13.24,42.805-18.887c1.535-1.381,2.201-3.849,0.208-6.211c-0.968-1.16-2.485-2.443-3.983-3.604
		c16.212-6.421,32.665-14.332,45.012-29.042c0.978-1.154,1.248-2.687,0.744-4.126c-0.553-1.559-1.958-2.774-3.581-3.097
		c-2.291-0.442-4.612-0.751-7.087-0.958c9.989-6.225,20.106-13.681,29.05-24.166c1.06-1.244,1.366-3.273,0.738-4.82
		C403.951,156.221,402.668,155.282,401.155,155.16L401.155,155.16z M381.382,137.453c-0.665,0.297-0.446,2.492-1.725,3.085
		c-2.179,1.009-4.651,0.985-6.985,1.69c-0.888,0.259-0.837,1.439-1.56,1.899c-1.256,0.802-2.928,0.145-3.841,0.802
		c-5.596,4.125-12.25,2.277-18.463,3.311c0.09,4.687-7.281,1.822-10.319,3.861c-3.318,2.22-2.877,1.613-7.8,1.664
		c-1.535,0.027-0.698,2.291-1.938,2.303c-3.926,0.075-8.993-1.179-11.933-0.321c-0.519,0.152-0.698,2.643-1.724,2.915
		c-2.141,0.574-4.388,0.802-6.433,1.464c-1.585,0.492,0.485,3.5-1.643,4.169c-3.594,1.155-7.577,0.315-11.21,2.378
		c-1.436,0.813-3.518,0.05-5.375,0.39c-1.572,0.284-2.178,1.937-0.893,2.675c1.163,0.657,3.107,0.487,4.254,1.041
		c2.669,1.319,4.872,3.205,7.736,3.413c12.449,0.89,24.337-1.679,36.734-4.549c16.308-3.784,30.097-10.086,43.8-20.11
		c14.614-10.7,28.114-21.939,34.287-39.483c0.838-2.391,1.508-4.459,2.061-6.705c0.351-1.383-0.322-1.551-0.73-0.43
		c-0.428,1.122-2.141,4.63-3.677,7.147C406.173,122.97,394.944,131.278,381.382,137.453 M293.049,179.97
		c-1.982-1.98-4.563-2.524-6.814-3.622c-8.107-3.91-16.2-5.324-25.364-6.755c-3.292-0.416-7.761-0.541-11.513-0.454
		c-4.563,0.108-9.849,0.555-12.711,4.043c-0.463,0.574-0.228,1.899-1.248,2.289c-3.33,1.281-7.011-1.476-9.873,2.235
		c-1.726,2.251-5.933-0.518-8.648,1.072c-0.604,0.353,0,1.911,0.479,2.106c1.27,0.568,3.385,0.404,4.172,1.061
		c0.838,0.68,0.762,1.664,1.537,2.245c0.961,0.713,2.77,1.009,3.567,2.133c0.63,0.852,0.838,2.561,1.743,2.612
		c21.872,1.236,44.329,1.236,65.079-6.819C293.154,181.464,293.86,180.77,293.049,179.97 M166.719,217.458
		c0.283,2.119-0.27,5.36,0.17,5.413c15.219,1.665,30.676-1.047,44.762-7.52c0.195-0.089,0.233-1.035-0.025-1.306
		c-4.664-4.92-11.217-6.421-17.566-8.187c-7.363-2.057-15.916-3.734-22.431,0.012c-0.887,0.504-1.598,2.612-2.644,4.157
		c-0.769,1.167,0.711,2.971,0.094,3.722c-1.144,1.381-2.567,2.233-2.359,3.709 M238.954,166.439
		c-1.172-4.698-6.861-5.577-10.726-7.853c-1.55-0.902-3.35-0.492-5.117,0.282c-3.854,1.652-8.806-1.159-12.763,1.71
		c-1.133,0.813-1.738,2.345-3.205,2.726c-1.819,0.473-3.637,0.541-5.493,0.788c-0.68,0.089-1.958,0.543-1.869,1.313
		c0.378,3.311-2.694,3.993-5.13,4.843c-2.373,0.846-1.536,3.981-1.611,6.309C208.782,176.752,225.152,174.527,238.954,166.439
		 M187.539,180.316c-0.736,0.126-1.291,1.319-1.844,2.096c-1.378,1.949-5.752,1.52-5.727,3.747c0.069,4.042-4.444,4.774-5.154,7.696
		c-0.553,2.289-1.775,4.006-1.945,6.458c16.15,0.095,32.765-0.952,47.084-9.184c1.706-0.997-2.045-3.021-3.801-3.709
		c-4.525-1.779-8.416-4.416-13.469-5.513C197.514,180.795,192.655,179.464,187.539,180.316 M158.74,244.318
		c3.146,1.253,6.42,0.707,9.542,0.191c8.546-1.406,16.817-2.775,24.255-7.275c-3.336-3.33-7.835-5.059-12.102-7.076
		c-4.897-2.314-9.806-4.213-15.13-5.064C162.969,231.451,160.572,237.777,158.74,244.318 M155.799,248.028
		c-1.906,1.015-3.996,3.752-2.353,5.073c7.125,5.802,16.691,5.914,25.49,6.553c14.954,1.074,31.954-0.26,42.823-11.328
		c0.681-0.701-2.474-2.639-4.562-3.326c-2.695-0.891-5.363-1.861-8.069-2.311c-3.853-0.623-7.723-2.881-10.454-1.524
		c-0.838,0.429-0.944,1.267-1.045,1.64c-0.912,0.358-3.751,0.403-4.404,0.892c-1.586,1.167-1.278,3.051-1.694,3.166
		c-3.605,0.901-8.093-1.369-11.505,0.183c-0.919,0.422-0.844,2.995-2.052,3.085c-2.473,0.183-5.192-1.293-7.553-0.543
		c-0.428,0.134-1.692,0.321-2.531,0.851c-1.296-0.668-1.995-0.825-3.681-1.235c-1.253-0.312-2.467,0.556-3.996,0.294
		C158.777,249.251,157.166,247.301,155.799,248.028 M249.613,231.278c4.281-2.22,9.425-2.439,12.552-6.692
		c-5.142-3.146-10.838-4.412-16.64-6.094c-3.543-1.032-7.022-1.38-10.619-1.834c-4.229-0.543-8.412-0.726-12.578-0.43
		c-1.469,0.107-3.172,0.195-4.463,0.945c-0.68,0.396-1.467,1.801-2.316,2.342c-1.328,0.863-2.544,0.447-3.417,1.324
		c-0.528,0.518,0.05,1.92-0.308,2.418c-0.491,0.674-1.548,0.787-2.201,1.166c-0.686,0.358-2.101-0.233-3.159,0.207
		c-1.058,0.437-1.096,1.448-1.794,1.795c-2.562,1.318-6.3-0.223-8.07-0.178c-0.912,0.014-0.679,1.458-0.384,1.741
		c1.145,1.136,4.456,1.489,4.342,3.168c-0.037,0.386-0.969,1.729-1.453,1.588c0.837,2.209,6.2,3.37,9.793,4.278
		c9.911,2.492,20.095,0.309,29.956-2.676c3.594-1.086,7.306-1.27,10.762-3.068 M274.092,203.581
		c1.751-1.186,3.996-1.199,5.055-2.865c0.86-1.368-0.894-1.994-1.881-2.289c-7.721-2.368-15.164-4.972-23.18-5.584
		c-7.975-0.592-15.736,0.688-23.691,1.514c-3.078,0.321-6.225,0.466-9.007,1.615c-1.19,0.504-1.256,2.933-2.629,3.103
		c-2.683,0.336-5.338,0.657-8.045,0.877c-0.875,0.075-0.661,1.495-0.39,1.717c1.754,1.406,2.309,2.289,3.045,4.46
		c0.062,0.22,1.893,0.025,2.277,0.359c1.756,1.526,3.002,3.684,5.209,4.213c10.606,2.555,20.853,3.255,31.723,0.738
		c1.156-0.278,2.007-1.217,3.05-1.362c3.801-0.487,7.774-0.707,10.727-3.539C268.446,204.552,271.767,205.145,274.092,203.581
		 M267.585,167.038c11.763-1.306,21.981-3.027,32.273-9.429c0.617-0.392,0.112-2.416-0.402-2.498
		c-2.436-0.361-5.079-1.356-7.704,1.022c-0.895,0.802-2.557-0.927-3.777-0.183c-0.993,0.599-1.989,2.189-2.898,2.598
		c-2.545,1.122-4.993-1.501-7.776-1.173c-0.812,0.101-0.623,1.911-1.436,2.1c-2.38,0.574-4.48-2.038-5.833-1.161
		c-2.066,1.331-3.802,3.035-6.309,1.899c-2.408-1.084-5.594-3.356-7.23-1.923c-2.846,2.49-6.336-1.124-8.853-0.152
		c-2.116,0.839-7.837,2.196-3.928,4.453C250.615,166.621,261.904,167.683,267.585,167.038 M303.017,140.165
		c-14.091,0.398-28.177,0.448-42.37-0.516c-11.642-0.788-23.18-1.76-34.805-1.331c-14.81,0.555-28.624,5.179-41.771,12.634
		c-18.567,10.516-32.099,28.922-33.068,50.27c-0.422,9.261,1.213,17.554-0.46,28.045c-1.661,10.44-6.728,20.639-11.561,29.49
		c10.925-6.105,18.51-19.504,19.768-34.676c0.958-11.455,0.612-22.943,5.3-33.25c5.533-12.181,13.835-22.387,25.546-29.819
		c11.034-6.989,22.778-10.85,35.229-10.901c33.992-0.132,67.864,1.149,101.895-0.763c19.101-1.059,37.611-6.276,54.859-15.076
		c11.794-6.05,23.343-13.412,30.599-25.321c0.711-1.408,3.58-6.038,3.997-7.286c0.428-1.267-0.145-1.267-0.699-0.145
		c-0.566,1.122-3.469,4.623-4.316,5.745c-11.64,12.894-26.227,22.028-43.668,26.305c-19.735,4.845-39.084,5.892-58.897,6.554
		c-1.685,0.052-3.901,0.001-5.576,0.038 M159.305,298.719l-16.963-12.08l-2.266,2.096c-1.436,1.432-2.978,2.699-4.601,3.859
		l18.497,12.018C156.253,302.416,157.901,300.41,159.305,298.719 M134.985,316.729c6.004-2.314,11.487-5.66,16.321-9.74
		l-17.842-11.575L134.985,316.729 M132.073,275.866l0.983,13.731c2.448-1.748,3.606-3.154,5.501-5.474
		C136.314,282.219,133.93,278.477,132.073,275.866 M131.776,249.729c1.183,1.692,2.348,2.934,3.028,4.92l2.215-5.089
		L131.776,249.729 M140.241,242.407l-2.883-2.884c-2.789-2.786-5.997-4.988-9.477-6.592l-0.925,0.791l1.303,11.99
		c0.705,0.592,1.39,1.226,2.02,1.912l7.723-0.593L140.241,242.407 M100.994,233.658l10.001,7.236
		c0.843-0.112,1.679-0.209,2.542-0.235l9.793-8.369l-0.114-1.096c-2.901-0.84-5.94-1.294-9.051-1.294
		c-4.612,0-9.069,0.972-13.172,2.775L100.994,233.658 M122.777,227.109l-2.34-21.719c-2.052-0.22-4.142-0.371-6.27-0.371
		c-4.443,0-8.772,0.529-12.952,1.482l-0.183,22c4.09-1.574,8.508-2.451,13.134-2.451
		C117.119,226.051,119.994,226.436,122.777,227.109 M114.166,295.629c5.186,0,10.07-1.234,14.414-3.393l-11.217-7.288l-8.818,10.176
		C110.389,295.439,112.271,295.629,114.166,295.629 M126.069,262.764c0-6.573-5.325-11.924-11.902-11.924
		c-6.557,0-11.882,5.35-11.882,11.924c0,6.592,5.324,11.928,11.882,11.928C120.743,274.692,126.069,269.355,126.069,262.764
		 M128.863,279.402c-2.076,1.837-4.5,3.293-7.156,4.253l7.829,5.078L128.863,279.402 M144.849,213.881
		c-6.256-3.943-13.331-6.692-20.895-7.999l2.411,22.288c0.422,0.139,0.837,0.283,1.245,0.447L144.849,213.881 M118.396,241.039
		c2.178,0.422,4.229,1.186,6.123,2.193l-0.738-6.801L118.396,241.039 M100.893,245.094c1.725-1.305,3.656-2.352,5.721-3.104
		l-5.657-4.107l-0.063,7.211 M90.994,286.01c3.543,3.552,7.76,6.143,12.349,7.758l-1.958-12.862l-0.328-0.219l-13.714,0.94
		C88.425,283.178,89.639,284.653,90.994,286.01 M97.551,277.453c-1.611-1.835-2.895-3.928-3.826-6.199l-4.564,6.782L97.551,277.453
		 M92.101,261.383c0.183-2.625,0.812-5.115,1.806-7.412l-8.434,1.627L92.101,261.383 M90.994,239.522
		c-3.701,3.724-6.395,8.165-7.968,13.008l13.097-2.502c0.415-0.581,0.837-1.149,1.303-1.677l0.1-12.946l-0.693-0.491
		C94.745,236.221,92.774,237.74,90.994,239.522 M81.388,262.764c0,5.375,1.29,10.527,3.689,15.158l7.37-10.984l-0.139-0.785
		l-10.402-9.098C81.584,258.928,81.388,260.828,81.388,262.764 M96.663,230.518c0.297-0.164,0.605-0.309,0.9-0.461l0.195-22.633
		c-7.074,2.088-13.557,5.525-19.202,9.985l18.108,13.109 M63.086,236.012l16.566,14.483c2.612-7.368,7.513-13.659,13.827-17.998
		L75.818,219.69C70.664,224.303,66.333,229.823,63.086,236.012 M56.76,257.61l21.122-4.082l-16.358-14.287
		C58.976,244.936,57.338,251.113,56.76,257.61 M56.504,262.824c0,6.025,0.925,11.835,2.623,17.291l22.016-1.527
		c-2.328-4.881-3.594-10.244-3.594-15.824c0-1.951,0.156-3.861,0.441-5.723l-21.436,4.119
		C56.529,261.717,56.504,262.271,56.504,262.824 M82.37,281.977l-22.053,1.521c2.34,6.124,5.696,11.733,9.843,16.64L82.37,281.977
		 M102.026,297.375c-5.117-1.798-9.806-4.691-13.752-8.641c-1.29-1.293-2.435-2.7-3.504-4.139l-12.223,18.192
		c4.331,4.534,9.384,8.37,14.991,11.306L102.026,297.375 M104.297,300.025l-13.538,15.619c5.181,2.32,10.762,3.873,16.616,4.574
		L104.297,300.025 M105.211,283.086l1.366,9.027l6.212-7.165C110.106,284.791,107.545,284.133,105.211,283.086 M114.166,320.626
		c6.087,0,11.953-0.954,17.441-2.696l-1.573-22.092c-4.884,2.366-10.271,3.647-15.866,3.647c-2.215,0-4.404-0.222-6.545-0.614
		l3.298,21.67C111.991,320.592,113.084,320.627,114.166,320.626 M146.251,217.236l-15.161,12.958
		c3.28,1.708,6.306,3.916,8.987,6.619l1.7,1.651C144.591,232.004,146.339,223.854,146.251,217.236 M114.053,191.488
		c-39.405,0-71.346,32.025-71.346,71.521c0,39.492,31.941,71.508,71.346,71.508c24.634,0,46.334-12.508,59.161-31.521l-8.39-2.992
		c-11.41,15.703-29.902,25.91-50.771,25.91c-34.66,0-62.761-28.165-62.761-62.902c0-34.752,28.101-62.917,62.761-62.917
		c11.574,0,22.412,3.141,31.721,8.604v-9.904C135.811,194.151,124.456,191.488,114.053,191.488 M179.648,295.577
		c-0.63-1.159-2.266-0.54-3.386-1.21c-0.831-0.491-1.214-2.195-2.027-2.857c-0.617-0.518-2.116,0.644-2.889,0.195
		c-1.083-0.648-1.906-2.031-2.77-2.984c-0.944-1.047-1.819-2.201-2.744-3.254c-0.881-0.998-1.806-1.887-2.914-2.561
		c-0.603-0.348-1.781,0.416-2.498,0.234c-1.29-0.349-2.027-2.588-3.084-3.516l-2.103-1.121c-0.542-0.531-0.654-1.502-1.234-2.132
		c-0.75-0.839-1.869-1.136-2.681-1.81c-1.127-0.904-1.952-3.221-2.814-4.5c-0.85-1.262-2.114-1.404-2.938-2.516
		c-1.033-1.393-1.638-3.746-2.889-5.152c-1.259-1.434-4.418,0.85-5.387,2.775c-1.58,3.154-1.492,7.146,0.931,9.846
		c11.871,13.289,27.284,24.311,44.933,27.22c-1.318-1.89-2.706-5.22-3.506-6.656 M223.062,124.56
		c32.373-1.267,88.861,1.962,118.441-6.333c26.295-7.362,45.396-20.811,56.454-39.18c1.757-2.907,0.825-3.4-1.968-0.7
		c-17.933,17.27-34.25,23.409-57.45,29.767c-27.071,7.439-75.959,5.488-115.479,6.327c-38.707,0.827-72.637,16.148-82.821,46.352
		l8.409,3.375C160.005,139.724,186.929,125.966,223.062,124.56 M25.45,225.211c2.278,1.899,0.441,5.206,2.128,7.465
		c2.076-14.389,12.991-25.019,22.902-35.188c25.95-26.664,66.167-32.038,100.399-19.006c0.629,0.245,3.161-5.078,2.278-5.45
		c-20.297-8.926-39.631-9.91-60.439-5.287c-17.321,3.867-31.885,11.695-44.906,23.554c-10.101,9.21-18.353,19.31-24.634,31.352
		c-0.497,0.97-1.31,2.467-0.497,3.31C23.518,226.838,24.443,224.398,25.45,225.211 M193.468,306.844
		c0.114,0.157-1.058,0.519-1.447,0.582c-2.007,0.281-4.009,0.281-6.017,0c-3.662-0.519-7.527-1.793-10.61-2.432
		c-21.38,32.312-66.778,43.773-100.871,22.201c-12.208-7.717-21.643-17.676-27.662-30.35c-3.392-7.133-5.235-14.381-6.985-22.234
		c-1.164-5.268-0.22-10.453-1.201-15.633c-2.19,2.871-0.863,7.326-4.601,8.972c-1.02,0.46-2.266,0.296-2.978-0.884
		c-0.699-1.148-0.359-3.01-1.561-3.305c-1.995-0.492-2.033,2.517-4.525,1.924c-0.246-0.063-0.592,0.664-0.989,0.815
		c-1.29,0.453-2.373-1.886-3.344-0.79c-0.679,0.768-1.107,1.629-2.163,1.269c-0.875-0.308-1.573-2.019-1.573-1.925
		c-0.68,46.509,36.366,88.781,82.832,95.662c6.715,0.997,13.337,1.449,20.122,0.827c14.525-1.343,27.905-5.256,40.764-12.723
		c20.253-11.759,34.313-30.091,44.497-50.396c-7.71-2.625-15.388-5.201-21.695-7.582
		C183.989,297.389,190.409,302.502,193.468,306.844 M218.695,291.124c-1.795-0.506-3.37-1.503-5.018-2.181
		c-1.02-0.417-1.989,1.158-3.084,0.51c-2.216-1.331-4.123-3.23-5.89-4.636c-1.403-1.125-4.199-3.923-5.412-3.369
		c-0.46,0.216-1.145,2.826-2.291,1.96c-2.764-2.064-4.549-4.302-7.131-6.559c-1.17-1.022-2.303,2.371-3.801,1.652
		c-3.442-1.687-4.822-5.412-7.476-8.076c-3.09-3.078-6.042-6.654-10.298-7.776c-0.711-0.195-0.308,0.837-0.983,1.368
		c-3.246,2.543-6.815-1.812-9.975-3.256c-2.889-1.342-5.439-3.461-8.685-3.695c-0.699-0.037-0.674,0.998-0.403,1.318
		c18.536,21.979,44.278,38.475,72.528,37.811c0.66-0.012,2.002,0.059,0.894-1.301C220.802,293.811,219.812,291.434,218.695,291.124
		 M244.943,275.115c-0.824-0.127-2.113,0.982-2.817,0.85c-2.19-0.396-3.92-2.388-6.591-3.795c-1.096-0.568-1.66,2.031-2.524,1.973
		c-4.409-0.25-10.774-4.945-14.71-7.31c-0.71-0.409-4.909,0.427-5.607,0.574c-2.525,0.5-5.746-3.942-7.747-4.876
		c-1.492-0.693-3.594-1.457-5.023-0.373c-1.951,1.445-4.255,0.667-6.37,0.643c-0.837-0.012-1.561,1.736-2.581,2.07
		c-2.895,0.934-6.106-1.099-8.956,0.321c-0.077,0.038-0.478,0.639-0.454,0.837c0.196,1.8,2.191,2.096,3.506,2.896
		c4.89,2.996,9.901,5.002,15.087,7.11c7.754,3.147,15.722,5.5,24.168,6.263c9.496,0.852,22.324,2.17,30.134-0.144
		c0.397-0.127-0.218-1.63-1.411-2.532c-1.219-0.945-3.025-1.293-3.786-1.822c-1.765-1.256-2.706-2.455-4.319-2.687 M285.961,256.254
		c-2.153,0.631-3.814-0.941-5.608-0.26c-0.406,0.172-0.691,0.839-1.043,0.852c-3.359,0.051-5.62-3.588-9.057-3.316
		c-0.856,0.075-0.844,1.59-1.563,1.755c-2.126,0.503-4.01-2.075-5.914-1.149c-1.354,0.664-2.312,0.619-3.625,0.232
		c-1.688-0.49-2.951-1.999-4.59-2.257c-1.428-0.233-2.863,1.198-4.486,0.731c-4.059-1.186-7.201-5.045-11.549-4.131
		c-2.153,0.467-3.99-1.01-5.486-0.115c-1.614,0.967-2.092,2.146-3.729,3.123c-1.119,0.677-3.738,0.582-4.91,1.307
		c-0.893,0.543-1.106,1.912-2.125,2.328c-1.893,0.802-4.152,0.234-5.942,1.238c-0.207,0.131-0.32,1.127,0.437,1.33
		c12.737,3.512,24.855,7.355,37.819,7.321c12.715-0.01,25.333,0.044,37.821-3.821c0.995-0.295,1.201-0.89,0.385-1.822
		c-1.753-2.051-4.176-4.131-6.833-3.342 M324.409,228.037c-2.83,1.321-6.122-0.138-9.264,0.594l-1.02,1.487
		c-3.082,0.442-6.274-0.345-9.175,0.79c-2.259,0.877-4.98-0.12-7.466-0.064c-0.944,0.027-0.969,1.301-1.121,2.322
		c-0.132,0.893-1.446,1.411-1.83,1.293c-3.098-0.915-6.05-1.254-9.164-1.717c-7.862-1.154-15.633-3.659-23.021-1.449
		c-2.414,0.727-5.598,1.319-7.443,3.205c-0.717,0.725-1.465,2.172-2.411,2.523c-4.519,1.628-9.433,1.949-13.927,3.539
		c-1.373,0.492-3.959,2.404-2.996,2.662c18.863,4.82,37.292,5.318,56.873,1.641c14.351-2.688,27.51-6.744,39.845-13.696
		C331.359,229.987,326.562,227.035,324.409,228.037 M356.413,196.012c-1.774,0.593-4.221-1.097-5.757,0.038
		c-2.284,1.683-4.965,1.387-7.309,1.142c-1.118-0.121-2.874-0.518-3.867,0.259c-0.63,0.498,0.28,1.312,0.892,1.855
		c-5.915,2.042-12.43,0.132-18.019,2.39c-0.428,0.185-0.674,2.24-1.706,2.442c-5.141,1.047-9.948-0.979-15.055-0.052
		c-1.29,0.245-0.707,2.998-2.078,3.066c-4.576,0.214-9.032-0.17-13.594-0.367c-5.437-0.22-10.442,1.76-15.584,3.338
		c-1.523,0.46-1.989,2.89-3.625,3.135c-4.43,0.688-8.942-0.101-12.989,1.897c-0.283,0.146-0.297,1.516,0,1.674
		c4.959,2.798,10.647,4.749,14.022,9.272c34.51-0.346,71.629-4.87,100.349-28.476c0.564-0.467-2.839-1.173-4.658-1.602
		c-1.787-0.41-3.259-0.41-5.424-1.122C360.079,194.271,358.308,195.394,356.413,196.012 M392.239,163.493
		c-0.349-0.201-5.57-1.148-8.459-0.46c-0.604,0.139-0.975,1.148-1.573,1.236c-3.707,0.612-6.336,2.39-10.125,2.496
		c-0.788,0.038-2.492,0.593-3.521,1.085c-1.364,0.657-3.246-0.972-4.316,0.24c-0.696,0.775,0.511,2.65-0.748,3.249
		c-3.305,1.544-7.156-1.23-10.393,0.864c-0.924,0.618,1.01,2.687-0.208,3.058c-4.648,1.464-12.682-5.759-15.708,1.748
		c-0.477,1.173-1.931,0.631-2.837,0.398c-0.876-0.235-2.128-0.631-2.644-0.195c-2.846,2.314-4.521,3.242-8.516,2.119
		c-1.02-0.297-1.03,2.724-2.987,2.239c-2.259-0.529-4.413-2.158-6.479-1.242c-0.952,0.429-0.238,2.933-1.636,3.06
		c-5.588,0.543-11.353-0.272-16.508,2.03c-1.266,0.568-1.394,2.859-3.161,3.154c-3.934,0.643-7.847,0.189-11.499,1.381
		c-0.592,0.188-0.46,1.937,0.441,2.075c2.36,0.353,5.015-0.025,6.829,1.059c2.209,1.318,3.611,5.053,5.776,5.142
		c17.169,0.701,34.259-1.843,50.823-7.35c17.402-5.784,33.382-13.73,47.448-26.058c0.861-0.756,0.421-1.071,0-1.33"/>
	<path sketch:type="MSShapeGroup" fill="#EB2627" d="M226.592,331.18c-4.292,0-7.773-3.469-7.773-7.771s3.479-7.791,7.773-7.791
		c4.295,0,7.76,3.487,7.76,7.791S230.887,331.18,226.592,331.18z M226.592,313.501c-5.462,0-9.886,4.438-9.886,9.908
		c0,5.475,4.424,9.903,9.886,9.903c5.449,0,9.874-4.429,9.874-9.903C236.467,317.939,232.042,313.501,226.592,313.501z
		 M227.291,322.348h-2.643v-2.472h2.643c0.68,0,1.232,0.556,1.232,1.229C228.523,321.792,227.971,322.348,227.291,322.348z
		 M230.639,321.105c0-1.849-1.498-3.362-3.348-3.362h-4.757v11.321h2.114v-4.598h1.517l2.138,4.598h2.348l-2.227-4.795
		C229.727,323.807,230.639,322.562,230.639,321.105L230.639,321.105z"/>
</g>
</svg>
