<?xml version="1.0" encoding="utf-8"?>
<!-- Generator: Adobe Illustrator 16.0.0, SVG Export Plug-In . SVG Version: 6.00 Build 0)  -->
<!DOCTYPE svg PUBLIC "-//W3C//DTD SVG 1.1//EN" "http://www.w3.org/Graphics/SVG/1.1/DTD/svg11.dtd">
<svg version="1.1" id="Layer_1" xmlns:sketch="http://www.bohemiancoding.com/sketch/ns"
	 xmlns="http://www.w3.org/2000/svg" xmlns:xlink="http://www.w3.org/1999/xlink" x="0px" y="0px" width="512px" height="512px"
	 viewBox="0 0 512 512" enable-background="new 0 0 512 512" xml:space="preserve">
<title>detroit-red-wings</title>
<desc>Created with Sketch.</desc>
<path fill="#EC2024" d="M443.539,183.604c-2.896-0.224-5.771-0.186-8.541-0.15c-0.561,0.014-1.122,0.014-1.672,0.014
	c16.647-14.432,34.379-36.716,34.674-66.363c0.016-1.613-1.096-3.123-2.691-3.668c-1.509-0.51-3.142-0.021-4.09,1.229
	c-11.758,15.432-26.232,31.465-45.936,37.54c20.885-15.729,33.872-35.151,38.633-57.87c0.319-1.589-0.509-3.24-2.018-4.041
	c-1.502-0.789-3.279-0.511-4.426,0.678c-16.01,16.622-35.24,28.298-57.148,34.689c-31.762,9.27-64.797,8.68-96.738,8.121
	c-8.421-0.15-17.133-0.305-25.711-0.28c-15.102,0.058-32.763,1.138-49.203,8.796c-19.867,9.259-35.366,23.896-43.88,41.336
	c-5.25-0.773-10.586-1.184-15.924-1.184c-59.621,0-108.128,48.294-108.128,107.665c0,59.368,48.506,107.671,108.128,107.671
	c22.163,0,43.472-6.637,61.612-19.191c17.111-11.825,30.271-28.083,38.227-47.112c4.943,0.19,10.902,0.29,16.373-1.908
	c0.292-0.118,2.768-1.172,3.656-3.564c0.449-1.215,0.361-2.524-0.236-3.686c-0.398-0.753-0.984-1.625-1.676-2.633l-0.473-0.695
	h1.102c11.385,0.025,23.147,0.062,33.739-4.108c0.897-0.354,1.597-1.094,1.919-2.006c0.305-0.918,0.199-1.937-0.311-2.761
	c-1.889-3.118-4.902-5.605-7.826-8.02c-0.777-0.65-1.545-1.287-2.285-1.918c16.282-0.118,31.755-0.803,46.644-8.354
	c1.195-0.609,2.012-1.69,2.229-2.987c0.221-1.273-0.185-2.583-1.083-3.507c-1.863-1.936-4.045-3.917-6.508-5.916
	c17.822-4.598,36.193-13.028,42.397-18.585c1.521-1.358,2.181-3.787,0.205-6.111c-0.958-1.142-2.46-2.404-3.944-3.547
	c16.057-6.318,32.354-14.104,44.584-28.578c0.967-1.136,1.236-2.644,0.737-4.061c-0.548-1.533-1.94-2.729-3.548-3.048
	c-2.27-0.435-4.568-0.738-7.02-0.941c9.895-6.126,19.915-13.464,28.773-23.78c1.051-1.225,1.354-3.221,0.731-4.743
	C446.308,184.648,445.036,183.724,443.539,183.604L443.539,183.604z"/>
<g sketch:type="MSShapeGroup">
	<path fill="#FFFFFF" d="M444.516,186.783c-5.547-0.442-11.072,0.14-16.617-0.296c-0.887-0.064-0.666-1.489-0.385-1.711
		c21.979-17.529,38.361-41.053,38.631-68.934c0-0.348-0.584-0.774-0.842-0.436c-15.207,20.086-33.293,38.511-58.645,41.607
		c-1.199,0.158-1.279-1.947-0.348-2.554c23.123-15.089,40.037-35.268,45.682-62.399c0.062-0.31-0.529-0.752-0.838-0.43
		c-16.539,17.303-36.365,29.446-59.154,36.139c-41.049,12.074-82.939,7.98-124.549,8.113c-16.476,0.051-33.08,1.482-48.273,8.616
		c-18.77,8.808-34.88,23.03-43.541,42.138l-0.27,0.506c-5.84-1.021-11.844-1.527-17.982-1.527
		c-58.443,0-105.836,47.48-105.836,106.071c0,58.582,47.393,106.078,105.836,106.078c44.831,0,83.135-27.934,98.568-67.39
		l1.492-0.024c5.186,0.209,10.906,0.404,16.023-1.652c0.617-0.26,2.412-1.434,1.746-2.727c-0.83-1.576-3.369-4.758-4.154-6.889
		c-0.184-0.461-0.297-1.383,0.441-1.393c12.836-0.092,26.641,0.736,38.447-3.936c-2.988-4.941-9.836-8.592-13.6-13.449
		c-0.85-1.105,0.812-1.709,1.377-1.709c17.932-0.064,34.646-0.076,50.439-8.138c0.594-0.309,0.604-0.957,0.258-1.319
		c-3.492-3.653-7.811-7.104-11.855-9.974c19.975-4.003,41.953-14.03,48.271-19.712c0.668-0.605,0.234-1.191-0.119-1.59
		c-1.676-1.999-6.15-5.016-6.986-5.854c-0.281-0.283-0.199-1.225-0.035-1.307c17.762-6.817,35.307-14.608,48.064-29.772
		c0.58-0.711-0.219-1.653-0.926-1.797c-5.141-0.985-10.045-1.22-15.111-1.149c0-0.675-0.203-1.665,0.094-1.849
		c13.287-7.74,25.055-15.865,35.08-27.6c0.301-0.35,0.5-1.693-0.387-1.755H444.516z"/>
	<path fill="none" stroke="#FFFFFF" stroke-width="14" stroke-miterlimit="10" d="M444.516,186.783
		c-5.547-0.442-11.072,0.14-16.617-0.296c-0.887-0.064-0.666-1.489-0.385-1.711c21.979-17.529,38.361-41.053,38.631-68.934
		c0-0.348-0.584-0.774-0.842-0.436c-15.207,20.086-33.293,38.511-58.645,41.607c-1.199,0.158-1.279-1.947-0.348-2.554
		c23.123-15.089,40.037-35.268,45.682-62.399c0.062-0.31-0.529-0.752-0.838-0.43c-16.539,17.303-36.365,29.446-59.154,36.139
		c-41.049,12.074-82.939,7.98-124.549,8.113c-16.476,0.051-33.08,1.482-48.273,8.616c-18.77,8.808-34.88,23.03-43.541,42.138
		l-0.27,0.506c-5.84-1.021-11.844-1.527-17.982-1.527c-58.443,0-105.836,47.48-105.836,106.071
		c0,58.582,47.393,106.078,105.836,106.078c44.831,0,83.135-27.934,98.568-67.39l1.492-0.024c5.186,0.209,10.906,0.404,16.023-1.652
		c0.617-0.26,2.412-1.434,1.746-2.727c-0.83-1.576-3.369-4.758-4.154-6.889c-0.184-0.461-0.297-1.383,0.441-1.393
		c12.836-0.092,26.641,0.736,38.447-3.936c-2.988-4.941-9.836-8.592-13.6-13.449c-0.85-1.105,0.812-1.709,1.377-1.709
		c17.932-0.064,34.646-0.076,50.439-8.138c0.594-0.309,0.604-0.957,0.258-1.319c-3.492-3.653-7.811-7.104-11.855-9.974
		c19.975-4.003,41.953-14.03,48.271-19.712c0.668-0.605,0.234-1.191-0.119-1.59c-1.676-1.999-6.15-5.016-6.986-5.854
		c-0.281-0.283-0.199-1.225-0.035-1.307c17.762-6.817,35.307-14.608,48.064-29.772c0.58-0.711-0.219-1.653-0.926-1.797
		c-5.141-0.985-10.045-1.22-15.111-1.149c0-0.675-0.203-1.665,0.094-1.849c13.287-7.74,25.055-15.865,35.08-27.6
		c0.301-0.35,0.5-1.693-0.387-1.755H444.516z"/>
	<path fill="none" stroke="#E51E26" stroke-width="5" stroke-miterlimit="10" d="M444.516,186.783
		c-5.547-0.442-11.072,0.14-16.617-0.296c-0.887-0.064-0.666-1.489-0.385-1.711c21.979-17.529,38.361-41.053,38.631-68.934
		c0-0.348-0.584-0.774-0.842-0.436c-15.207,20.086-33.293,38.511-58.645,41.607c-1.199,0.158-1.279-1.947-0.348-2.554
		c23.123-15.089,40.037-35.268,45.682-62.399c0.062-0.31-0.529-0.752-0.838-0.43c-16.539,17.303-36.365,29.446-59.154,36.139
		c-41.049,12.074-82.939,7.98-124.549,8.113c-16.476,0.051-33.08,1.482-48.273,8.616c-18.77,8.808-34.88,23.03-43.541,42.138
		l-0.27,0.506c-5.84-1.021-11.844-1.527-17.982-1.527c-58.443,0-105.836,47.48-105.836,106.071
		c0,58.582,47.393,106.078,105.836,106.078c44.831,0,83.135-27.934,98.568-67.39l1.492-0.024c5.186,0.209,10.906,0.404,16.023-1.652
		c0.617-0.26,2.412-1.434,1.746-2.727c-0.83-1.576-3.369-4.758-4.154-6.889c-0.184-0.461-0.297-1.383,0.441-1.393
		c12.836-0.092,26.641,0.736,38.447-3.936c-2.988-4.941-9.836-8.592-13.6-13.449c-0.85-1.105,0.812-1.709,1.377-1.709
		c17.932-0.064,34.646-0.076,50.439-8.138c0.594-0.309,0.604-0.957,0.258-1.319c-3.492-3.653-7.811-7.104-11.855-9.974
		c19.975-4.003,41.953-14.03,48.271-19.712c0.668-0.605,0.234-1.191-0.119-1.59c-1.676-1.999-6.15-5.016-6.986-5.854
		c-0.281-0.283-0.199-1.225-0.035-1.307c17.762-6.817,35.307-14.608,48.064-29.772c0.58-0.711-0.219-1.653-0.926-1.797
		c-5.141-0.985-10.045-1.22-15.111-1.149c0-0.675-0.203-1.665,0.094-1.849c13.287-7.74,25.055-15.865,35.08-27.6
		c0.301-0.35,0.5-1.693-0.387-1.755H444.516z"/>
</g>
<path fill="#EC2024" d="M209.284,246.16c0.281,2.085-0.267,5.273,0.169,5.325c15.074,1.64,30.384-1.029,44.337-7.399
	c0.193-0.086,0.231-1.019-0.024-1.285c-4.62-4.842-11.111-6.317-17.399-8.055c-7.293-2.026-15.765-3.675-22.218,0.012
	c-0.878,0.495-1.583,2.569-2.619,4.09c-0.762,1.148,0.705,2.923,0.094,3.663c-1.133,1.358-2.543,2.196-2.337,3.649"/>
<path fill="#EC2024" d="M280.834,195.956c-1.161-4.622-6.797-5.487-10.625-7.728c-1.534-0.887-3.318-0.482-5.068,0.277
	c-3.816,1.627-8.722-1.141-12.642,1.682c-1.123,0.803-1.722,2.309-3.175,2.684c-1.802,0.465-3.603,0.532-5.441,0.774
	c-0.674,0.089-1.939,0.534-1.852,1.294c0.375,3.258-2.668,3.928-5.081,4.764c-2.351,0.834-1.521,3.92-1.595,6.21
	C250.947,206.104,267.162,203.914,280.834,195.956"/>
<path fill="#EC2024" d="M229.906,209.611c-0.729,0.125-1.278,1.299-1.827,2.062c-1.365,1.919-5.697,1.498-5.672,3.688
	c0.068,3.977-4.402,4.697-5.105,7.572c-0.548,2.253-1.758,3.942-1.926,6.356c15.997,0.092,32.454-0.938,46.636-9.039
	c1.691-0.98-2.025-2.972-3.764-3.649c-4.483-1.749-8.335-4.346-13.341-5.424C239.787,210.082,234.974,208.773,229.906,209.611"/>
<path fill="#EC2024" d="M201.381,272.591c3.116,1.233,6.359,0.695,9.451,0.188c8.465-1.384,16.658-2.73,24.025-7.159
	c-3.304-3.276-7.76-4.978-11.987-6.963c-4.851-2.277-9.713-4.146-14.986-4.983C205.569,259.929,203.195,266.154,201.381,272.591"/>
<path fill="#EC2024" d="M201.439,275.258c-1.887,0.998-3.958,3.692-2.331,4.991c7.058,5.71,16.533,5.819,25.248,6.448
	c14.812,1.057,31.651-0.256,42.417-11.147c0.673-0.689-2.451-2.597-4.52-3.272c-2.67-0.877-5.312-1.832-7.992-2.273
	c-3.817-0.613-7.65-2.835-10.355-1.5c-0.83,0.422-0.935,1.246-1.035,1.613c-0.903,0.354-3.715,0.397-4.362,0.878
	c-1.571,1.147-1.267,3.002-1.678,3.115c-3.571,0.887-8.016-1.347-11.396,0.179c-0.91,0.415-0.835,2.948-2.032,3.037
	c-2.45,0.179-5.143-1.272-7.481-0.534c-0.424,0.13-1.676,0.314-2.507,0.836c-1.284-0.657-1.976-0.812-3.646-1.215
	c-1.241-0.308-2.443,0.546-3.958,0.288c-1.422-0.24-3.018-2.16-4.372-1.445"/>
<path fill="#EC2024" d="M291.391,259.76c4.24-2.186,9.336-2.4,12.434-6.587c-5.094-3.096-10.734-4.341-16.482-5.996
	c-3.51-1.015-6.955-1.356-10.519-1.805c-4.188-0.534-8.332-0.713-12.458-0.423c-1.455,0.105-3.143,0.192-4.421,0.931
	c-0.673,0.39-1.453,1.771-2.294,2.304c-1.316,0.85-2.52,0.44-3.384,1.304c-0.523,0.509,0.049,1.889-0.306,2.379
	c-0.485,0.663-1.533,0.774-2.18,1.147c-0.679,0.354-2.081-0.229-3.128,0.204c-1.048,0.431-1.085,1.426-1.778,1.766
	c-2.537,1.298-6.239-0.219-7.993-0.175c-0.903,0.014-0.672,1.436-0.38,1.715c1.134,1.116,4.414,1.464,4.301,3.117
	c-0.037,0.379-0.96,1.701-1.439,1.562c0.829,2.174,6.14,3.315,9.7,4.209c9.816,2.452,19.904,0.304,29.671-2.633
	c3.56-1.069,7.237-1.25,10.659-3.02"/>
<path fill="#EC2024" d="M346.27,169.135c-13.959,0.392-27.91,0.439-41.969-0.508c-11.531-0.777-22.96-1.732-34.475-1.311
	c-14.669,0.545-28.352,5.097-41.374,12.433c-18.391,10.348-31.794,28.46-32.754,49.466c-0.418,9.114,1.202,17.274-0.456,27.598
	c-1.646,10.274-6.664,20.309-11.451,29.019c10.821-6.008,18.334-19.192,19.581-34.122c0.949-11.27,0.606-22.574,5.249-32.719
	c5.481-11.984,13.704-22.029,25.304-29.342c10.929-6.877,22.562-10.676,34.894-10.727c33.669-0.13,67.221,1.131,100.927-0.751
	c18.92-1.042,37.254-6.175,54.339-14.835c11.682-5.952,23.121-13.198,30.309-24.916c0.704-1.386,3.546-5.942,3.958-7.17
	c0.424-1.246-0.144-1.246-0.692-0.143c-0.561,1.105-3.436,4.549-4.275,5.654c-11.528,12.686-25.978,21.675-43.254,25.885
	c-19.547,4.766-38.713,5.798-58.337,6.447c-1.669,0.052-3.865,0.002-5.522,0.039"/>
<path fill="#EC2024" d="M177.645,276.932c1.172,1.665,2.326,2.887,2.999,4.842l2.194-5.009L177.645,276.932"/>
<path fill="#EC2024" d="M183.057,270.711l-2.855-2.839c-2.762-2.74-5.94-4.908-9.387-6.486l-0.917,0.778l1.291,11.799
	c0.699,0.582,1.377,1.207,2.001,1.881l7.65-0.582L183.057,270.711"/>
<path fill="#EC2024" d="M144.183,262.101l9.906,7.121c0.835-0.11,1.663-0.206,2.518-0.231l9.7-8.235l-0.112-1.078
	c-2.874-0.826-5.884-1.274-8.965-1.274c-4.569,0-8.983,0.958-13.047,2.731L144.183,262.101"/>
<path fill="#EC2024" d="M165.759,255.656l-2.318-21.372c-2.033-0.215-4.103-0.364-6.21-0.364c-4.401,0-8.688,0.521-12.829,1.458
	l-0.181,21.648c4.051-1.549,8.427-2.412,13.01-2.412C160.155,254.614,163.002,254.993,165.759,255.656"/>
<path fill="#EC2024" d="M171.992,289.757c0-6.467-5.275-11.733-11.789-11.733c-6.495,0-11.77,5.265-11.77,11.733
	c0,6.486,5.274,11.737,11.77,11.737C166.716,301.496,171.992,296.243,171.992,289.757"/>
<path fill="#EC2024" d="M187.622,242.642c-6.197-3.881-13.204-6.587-20.697-7.873l2.388,21.932c0.418,0.136,0.829,0.278,1.233,0.439
	L187.622,242.642"/>
<path fill="#EC2024" d="M161.42,269.363c2.157,0.415,4.189,1.167,6.065,2.158l-0.731-6.691L161.42,269.363"/>
<path fill="#EC2024" d="M143.153,273.085c1.708-1.283,3.622-2.313,5.667-3.054l-5.603-4.042l-0.062,7.096"/>
<path fill="#EC2024" d="M137.416,288.13c0.181-2.583,0.804-5.033,1.789-7.294l-8.354,1.602L137.416,288.13"/>
<path fill="#EC2024" d="M136.319,266.619c-3.666,3.664-6.334,8.034-7.892,12.8l12.973-2.462c0.411-0.572,0.829-1.131,1.291-1.65
	l0.099-12.739l-0.686-0.483C140.035,263.37,138.083,264.865,136.319,266.619"/>
<path fill="#EC2024" d="M126.805,289.489c0,5.289,1.278,10.358,3.654,14.916l7.3-10.81l-0.138-0.772l-10.303-8.952
	C126.999,285.714,126.805,287.584,126.805,289.489"/>
<path fill="#EC2024" d="M138.963,258.742c0.294-0.162,0.599-0.304,0.892-0.454l0.193-22.271c-7.007,2.055-13.429,5.437-19.02,9.825
	l17.937,12.9"/>
<path fill="#EC2024" d="M105.705,264.148l16.409,14.252c2.587-7.25,7.442-13.441,13.696-17.711l-17.493-12.602
	C113.211,252.627,108.921,258.059,105.705,264.148"/>
<path fill="#EC2024" d="M102.411,284.418l20.921-4.017l-16.203-14.06C104.605,271.945,102.983,278.024,102.411,284.418"/>
<path fill="#EC2024" d="M102.157,289.549c0,5.929,0.916,11.646,2.598,17.015l21.807-1.503c-2.306-4.803-3.56-10.081-3.56-15.571
	c0-1.921,0.154-3.8,0.437-5.632l-21.232,4.054C102.182,288.459,102.157,289.005,102.157,289.549"/>
<path fill="#EC2024" d="M189.011,245.941l-15.018,12.752c3.249,1.68,6.247,3.854,8.902,6.513l1.684,1.624
	C187.366,260.473,189.098,252.454,189.011,245.941"/>
<path fill="#EC2024" d="M159.163,219.352c-39.031,0-70.668,31.514-70.668,70.379c0,38.86,31.638,70.365,70.668,70.365
	c24.4,0,45.894-12.309,58.599-31.019l-8.311-2.944c-11.301,15.452-29.618,25.496-50.289,25.496
	c-34.331,0-62.165-27.715-62.165-61.896c0-34.197,27.834-61.912,62.165-61.912c11.464,0,22.199,3.092,31.42,8.467v-9.745
	C180.714,221.972,169.467,219.352,159.163,219.352"/>
<path fill="#EC2024" d="M225.062,322.047c-0.624-1.142-2.245-0.532-3.354-1.191c-0.823-0.482-1.202-2.16-2.007-2.812
	c-0.611-0.51-2.096,0.634-2.862,0.192c-1.073-0.639-1.888-1.999-2.744-2.938c-0.935-1.029-1.802-2.166-2.718-3.201
	c-0.873-0.982-1.789-1.856-2.886-2.52c-0.597-0.343-1.764,0.409-2.474,0.23c-1.278-0.343-2.008-2.547-3.055-3.46l-2.083-1.103
	c-0.537-0.523-0.648-1.479-1.222-2.098c-0.743-0.826-1.851-1.118-2.655-1.781c-1.116-0.89-1.934-3.169-2.788-4.428
	c-0.842-1.242-2.094-1.382-2.91-2.476c-1.023-1.37-1.623-3.687-2.861-5.07c-1.247-1.41-4.376,0.836-5.336,2.731
	c-1.565,3.104-1.478,7.032,0.922,9.688c11.758,13.076,27.025,23.922,44.506,26.785c-1.305-1.86-2.68-5.137-3.472-6.55"/>
<path fill="#EC2024" d="M265.827,156.582c32.065-1.248,88.018,1.932,117.317-6.231c26.045-7.245,44.965-20.479,55.918-38.554
	c1.74-2.861,0.816-3.346-1.949-0.689c-17.762,16.993-33.926,23.035-56.904,29.291c-26.814,7.321-75.237,5.401-114.384,6.226
	c-38.338,0.815-71.946,15.891-82.034,45.61l8.329,3.322C203.369,171.504,230.037,157.965,265.827,156.582"/>
<path fill="#EC2024" d="M69.356,254.772c2.257,1.87,0.437,5.124,2.107,7.346c2.057-14.159,12.868-24.618,22.685-34.626
	c25.703-26.238,65.539-31.525,99.446-18.701c0.623,0.242,3.131-4.998,2.256-5.363c-20.104-8.783-39.254-9.752-59.865-5.202
	c-17.157,3.806-31.582,11.509-44.479,23.179c-10.005,9.062-18.179,19-24.4,30.851c-0.492,0.953-1.297,2.427-0.492,3.256
	C67.443,256.373,68.359,253.973,69.356,254.772"/>
<path fill="#EC2024" d="M237.823,332.863c0.113,0.155-1.048,0.511-1.433,0.573c-1.988,0.276-3.971,0.276-5.96,0
	c-3.627-0.511-7.455-1.765-10.509-2.393c-21.178,31.796-66.145,43.073-99.914,21.846c-12.092-7.593-21.438-17.393-27.399-29.864
	c-3.36-7.019-5.185-14.151-6.918-21.879c-1.153-5.184-0.218-10.286-1.19-15.383c-2.169,2.825-0.854,7.209-4.557,8.828
	c-1.01,0.452-2.245,0.291-2.95-0.87c-0.692-1.13-0.355-2.962-1.546-3.252c-1.976-0.484-2.013,2.477-4.482,1.894
	c-0.244-0.062-0.586,0.653-0.979,0.802c-1.277,0.446-2.35-1.855-3.312-0.777c-0.672,0.756-1.097,1.604-2.143,1.249
	c-0.867-0.303-1.558-1.986-1.558-1.895c-0.674,45.766,36.021,87.362,82.045,94.134c6.651,0.981,13.21,1.426,19.931,0.813
	c14.387-1.321,27.64-5.172,40.376-12.519c20.061-11.571,33.987-29.61,44.075-49.591c-7.637-2.583-15.242-5.118-21.489-7.461
	C228.434,323.56,234.793,328.591,237.823,332.863"/>
<path fill="#EC2024" d="M263.738,317.665c-1.778-0.498-3.338-1.479-4.971-2.146c-1.01-0.409-1.969,1.14-3.054,0.501
	c-2.194-1.309-4.084-3.179-5.833-4.561c-1.39-1.106-4.16-3.861-5.361-3.315c-0.456,0.212-1.134,2.781-2.27,1.928
	c-2.738-2.031-4.506-4.231-7.063-6.453c-1.159-1.006-2.281,2.333-3.765,1.626c-3.409-1.659-4.776-5.326-7.405-7.947
	c-3.061-3.029-5.984-6.548-10.2-7.651c-0.704-0.192-0.305,0.822-0.973,1.346c-3.215,2.502-6.75-1.782-9.88-3.204
	c-2.862-1.32-5.388-3.406-8.603-3.637c-0.692-0.036-0.667,0.982-0.399,1.298c18.36,21.627,43.857,37.859,71.84,37.206
	c0.653-0.012,1.982,0.058,0.885-1.28C265.825,320.308,264.845,317.969,263.738,317.665"/>
<path fill="#EC2024" d="M289.736,301.911c-0.816-0.125-2.093,0.967-2.789,0.836c-2.171-0.388-3.883-2.349-6.529-3.734
	c-1.086-0.56-1.645,1.999-2.5,1.941c-4.367-0.246-10.673-4.866-14.57-7.192c-0.703-0.403-4.862,0.42-5.554,0.565
	c-2.5,0.492-5.691-3.88-7.673-4.799c-1.478-0.683-3.56-1.434-4.976-0.367c-1.933,1.422-4.214,0.657-6.31,0.632
	c-0.829-0.011-1.546,1.709-2.557,2.038c-2.867,0.918-6.048-1.08-8.87,0.316c-0.077,0.037-0.474,0.629-0.45,0.823
	c0.194,1.771,2.17,2.062,3.473,2.85c4.844,2.948,9.807,4.922,14.944,6.998c7.68,3.096,15.573,5.412,23.938,6.161
	c9.405,0.839,22.112,2.136,29.849-0.14c0.393-0.125-0.217-1.605-1.398-2.493c-1.207-0.93-2.997-1.272-3.75-1.793
	c-1.748-1.235-2.682-2.416-4.279-2.643"/>
<path fill="#EC2024" d="M420.643,167.045c-0.658,0.291-0.441,2.451-1.708,3.036c-2.158,0.991-4.607,0.969-6.919,1.663
	c-0.879,0.255-0.829,1.416-1.545,1.867c-1.244,0.79-2.9,0.145-3.805,0.79c-5.542,4.06-12.133,2.241-18.287,3.258
	c0.089,4.612-7.212,1.793-10.221,3.8c-3.287,2.186-2.85,1.588-7.727,1.637c-1.521,0.027-0.691,2.255-1.919,2.267
	c-3.889,0.075-8.907-1.159-11.819-0.315c-0.514,0.15-0.691,2.601-1.707,2.867c-2.121,0.565-4.346,0.791-6.371,1.441
	c-1.57,0.484,0.48,3.444-1.627,4.102c-3.561,1.139-7.506,0.312-11.104,2.342c-1.422,0.799-3.484,0.049-5.324,0.384
	c-1.558,0.278-2.157,1.905-0.885,2.632c1.152,0.646,3.078,0.48,4.214,1.023c2.644,1.299,4.825,3.154,7.663,3.359
	c12.33,0.875,24.105-1.652,36.385-4.476c16.153-3.726,29.812-9.925,43.385-19.79c14.475-10.528,27.847-21.589,33.961-38.852
	c0.83-2.353,1.494-4.388,2.041-6.598c0.348-1.361-0.319-1.526-0.724-0.424c-0.423,1.104-2.12,4.556-3.642,7.033
	C445.198,152.793,434.076,160.969,420.643,167.045"/>
<path fill="#EC2024" d="M336.12,207.898c-1.964-1.949-4.521-2.482-6.749-3.562c-8.031-3.848-16.047-5.24-25.124-6.648
	c-3.261-0.409-7.687-0.532-11.403-0.445c-4.521,0.105-9.756,0.545-12.59,3.978c-0.459,0.563-0.227,1.868-1.236,2.253
	c-3.299,1.259-6.944-1.453-9.779,2.198c-1.709,2.214-5.877-0.509-8.566,1.056c-0.598,0.346,0,1.879,0.474,2.071
	c1.257,0.56,3.353,0.397,4.132,1.044c0.83,0.669,0.755,1.638,1.523,2.21c0.951,0.702,2.742,0.992,3.533,2.099
	c0.623,0.838,0.83,2.52,1.727,2.57c21.664,1.216,43.908,1.216,64.461-6.71C336.225,209.369,336.924,208.687,336.12,207.898"/>
<path fill="#EC2024" d="M317.344,231.133c1.734-1.167,3.957-1.18,5.006-2.819c0.853-1.346-0.885-1.963-1.863-2.253
	c-7.646-2.329-15.02-4.893-22.959-5.494c-7.898-0.583-15.587,0.676-23.467,1.489c-3.049,0.317-6.165,0.459-8.921,1.589
	c-1.179,0.496-1.244,2.887-2.604,3.055c-2.656,0.33-5.287,0.646-7.968,0.862c-0.867,0.073-0.655,1.471-0.386,1.689
	c1.737,1.384,2.287,2.253,3.016,4.39c0.061,0.216,1.875,0.023,2.256,0.352c1.738,1.503,2.973,3.627,5.159,4.146
	c10.506,2.517,20.654,3.204,31.421,0.727c1.146-0.272,1.988-1.197,3.021-1.339c3.765-0.479,7.701-0.696,10.625-3.482
	c2.071-1.955,5.36-1.371,7.662-2.912"/>
<path fill="#EC2024" d="M308.229,193.761c11.65-1.286,21.772-2.979,31.967-9.279c0.611-0.384,0.111-2.378-0.398-2.458
	c-2.412-0.355-5.031-1.334-7.631,1.007c-0.887,0.788-2.533-0.913-3.742-0.181c-0.983,0.59-1.97,2.154-2.87,2.557
	c-2.521,1.105-4.946-1.477-7.702-1.155c-0.805,0.1-0.617,1.882-1.422,2.067c-2.357,0.565-4.438-2.006-5.778-1.143
	c-2.047,1.311-3.766,2.986-6.249,1.869c-2.385-1.066-5.54-3.303-7.162-1.893c-2.818,2.45-6.275-1.107-8.768-0.15
	c-2.096,0.826-7.763,2.16-3.891,4.383C291.42,193.35,302.602,194.395,308.229,193.761"/>
<path fill="#EC2024" d="M204.912,325.138L188.11,313.25l-2.245,2.062c-1.422,1.409-2.95,2.656-4.557,3.798l18.321,11.825
	C201.889,328.775,203.521,326.802,204.912,325.138"/>
<path fill="#EC2024" d="M181.813,342.859c5.947-2.277,11.377-5.569,16.166-9.584l-17.672-11.39L181.813,342.859"/>
<path fill="#EC2024" d="M177.938,302.651l0.974,13.511c2.425-1.72,3.572-3.104,5.449-5.385
	C182.139,308.901,179.778,305.219,177.938,302.651"/>
<path fill="#EC2024" d="M160.202,322.097c5.137,0,9.974-1.214,14.277-3.338l-11.111-7.171l-8.734,10.014
	C156.46,321.91,158.325,322.097,160.202,322.097"/>
<path fill="#EC2024" d="M174.759,306.13c-2.056,1.809-4.457,3.24-7.088,4.186l7.754,4.997L174.759,306.13"/>
<path fill="#EC2024" d="M136.319,312.363c3.509,3.495,7.687,6.045,12.232,7.634l-1.939-12.656l-0.325-0.216l-13.583,0.926
	C133.775,309.577,134.977,311.028,136.319,312.363"/>
<path fill="#EC2024" d="M142.814,303.943c-1.596-1.806-2.868-3.865-3.79-6.1l-4.521,6.674L142.814,303.943"/>
<path fill="#EC2024" d="M127.777,308.395l-21.843,1.496c2.317,6.026,5.642,11.546,9.749,16.374L127.777,308.395"/>
<path fill="#EC2024" d="M147.247,323.547c-5.069-1.769-9.713-4.616-13.622-8.502c-1.278-1.272-2.412-2.657-3.471-4.073
	l-12.107,17.902c4.29,4.462,9.294,8.236,14.849,11.125L147.247,323.547"/>
<path fill="#EC2024" d="M150.487,326.155l-13.41,15.369c5.132,2.283,10.66,3.812,16.458,4.501L150.487,326.155"/>
<path fill="#EC2024" d="M150.402,309.486l1.353,8.883l6.153-7.05C155.25,311.164,152.713,310.517,150.402,309.486"/>
<path fill="#EC2024" d="M161.192,346.695c6.029,0,11.839-0.939,17.275-2.654l-1.559-21.738c-4.837,2.329-10.173,3.59-15.715,3.59
	c-2.194,0-4.363-0.219-6.483-0.605l3.267,21.324C159.038,346.661,160.121,346.695,161.192,346.695"/>
<path fill="#EC2024" d="M332.071,281.979c-2.134,0.621-3.778-0.926-5.556-0.255c-0.402,0.169-0.685,0.826-1.033,0.838
	c-3.327,0.05-5.566-3.531-8.971-3.264c-0.848,0.075-0.836,1.564-1.549,1.728c-2.105,0.494-3.971-2.043-5.857-1.132
	c-1.34,0.653-2.289,0.609-3.59,0.229c-1.673-0.482-2.924-1.966-4.547-2.22c-1.414-0.23-2.836,1.179-4.443,0.719
	c-4.021-1.166-7.133-4.964-11.439-4.064c-2.133,0.459-3.952-0.994-5.434-0.113c-1.6,0.951-2.072,2.112-3.693,3.073
	c-1.109,0.667-3.703,0.572-4.863,1.285c-0.885,0.534-1.097,1.882-2.105,2.291c-1.875,0.79-4.113,0.23-5.886,1.219
	c-0.205,0.129-0.317,1.108,0.433,1.309c12.615,3.456,24.619,7.238,37.46,7.205c12.594-0.009,25.093,0.043,37.462-3.761
	c0.986-0.29,1.189-0.875,0.381-1.793c-1.736-2.019-4.136-4.065-6.768-3.289"/>
<path fill="#EC2024" d="M367.183,255.197c-2.804,1.301-6.063-0.135-9.176,0.584l-1.01,1.465c-3.053,0.434-6.215-0.341-9.087,0.776
	c-2.238,0.862-4.934-0.117-7.396-0.063c-0.936,0.026-0.96,1.28-1.11,2.285c-0.131,0.878-1.433,1.39-1.812,1.272
	c-3.068-0.899-5.992-1.234-9.078-1.689c-7.787-1.136-15.484-3.6-22.801-1.427c-2.392,0.716-5.545,1.3-7.373,3.154
	c-0.71,0.713-1.451,2.137-2.389,2.483c-4.475,1.603-9.343,1.918-13.794,3.482c-1.36,0.484-3.921,2.366-2.968,2.619
	c18.684,4.743,36.938,5.233,56.333,1.614c14.214-2.645,27.249-6.636,39.466-13.476c-0.922-1.161-5.674-4.067-7.806-3.079"/>
<path fill="#EC2024" d="M398.883,223.686c-1.758,0.582-4.181-1.08-5.702,0.036c-2.263,1.657-4.918,1.364-7.239,1.124
	c-1.107-0.119-2.847-0.509-3.83,0.254c-0.625,0.49,0.277,1.292,0.883,1.826c-5.859,2.01-12.312,0.131-17.848,2.353
	c-0.424,0.183-0.668,2.204-1.689,2.402c-5.092,1.03-9.854-0.963-14.912-0.052c-1.277,0.242-0.7,2.95-2.059,3.017
	c-4.533,0.212-8.946-0.167-13.465-0.361c-5.385-0.215-10.343,1.732-15.436,3.285c-1.509,0.453-1.971,2.845-3.591,3.087
	c-4.388,0.676-8.857-0.101-12.866,1.865c-0.279,0.145-0.293,1.492,0,1.647c4.912,2.752,10.547,4.672,13.89,9.123
	c34.183-0.34,70.948-4.791,99.396-28.02c0.56-0.459-2.812-1.154-4.613-1.575c-1.771-0.404-3.229-0.404-5.373-1.105
	C402.514,221.971,400.76,223.076,398.883,223.686"/>
<path fill="#EC2024" d="M434.369,191.686c-0.346-0.198-5.518-1.131-8.379-0.453c-0.598,0.138-0.966,1.129-1.559,1.216
	c-3.672,0.604-6.275,2.353-10.029,2.456c-0.78,0.039-2.469,0.584-3.488,1.068c-1.351,0.646-3.215-0.957-4.275,0.236
	c-0.689,0.762,0.506,2.606-0.74,3.197c-3.273,1.52-7.088-1.211-10.294,0.85c-0.915,0.608,1,2.645-0.206,3.009
	c-4.604,1.442-12.561-5.667-15.559,1.72c-0.473,1.156-1.912,0.621-2.811,0.393c-0.867-0.23-2.107-0.621-2.618-0.191
	c-2.818,2.277-4.478,3.189-8.435,2.084c-1.01-0.291-1.021,2.682-2.959,2.203c-2.237-0.521-4.371-2.123-6.417-1.223
	c-0.943,0.424-0.235,2.887-1.62,3.012c-5.535,0.534-11.245-0.267-16.352,1.997c-1.254,0.56-1.38,2.813-3.131,3.104
	c-3.896,0.635-7.771,0.187-11.39,1.359c-0.587,0.187-0.456,1.906,0.437,2.043c2.338,0.348,4.968-0.025,6.765,1.042
	c2.188,1.297,3.577,4.972,5.722,5.06c17.006,0.69,33.934-1.813,50.341-7.233c17.237-5.691,33.064-13.512,46.997-25.641
	c0.854-0.744,0.418-1.055,0-1.309"/>
<path sketch:type="MSShapeGroup" fill="#EC2024" d="M274.256,355.708c-4.251,0-7.699-3.414-7.699-7.646
	c0-4.234,3.446-7.667,7.699-7.667c4.254,0,7.687,3.431,7.687,7.667C281.942,352.296,278.51,355.708,274.256,355.708z
	 M274.256,338.312c-5.41,0-9.791,4.366-9.791,9.75c0,5.387,4.381,9.744,9.791,9.744c5.398,0,9.781-4.357,9.781-9.744
	C284.037,342.679,279.654,338.312,274.256,338.312z M274.949,347.017h-2.618v-2.432h2.618c0.673,0,1.221,0.546,1.221,1.209
	C276.17,346.471,275.622,347.017,274.949,347.017z M278.265,345.794c0-1.817-1.483-3.308-3.315-3.308h-4.712v11.14h2.094v-4.524
	h1.503l2.117,4.524h2.325l-2.206-4.718C277.361,348.452,278.265,347.229,278.265,345.794L278.265,345.794z"/>
</svg>
