<?xml version="1.0" encoding="utf-8"?>
<!-- Generator: Adobe Illustrator 16.0.4, SVG Export Plug-In . SVG Version: 6.00 Build 0)  -->
<!DOCTYPE svg PUBLIC "-//W3C//DTD SVG 1.1//EN" "http://www.w3.org/Graphics/SVG/1.1/DTD/svg11.dtd">
<svg version="1.1" id="Layer_2" xmlns="http://www.w3.org/2000/svg" xmlns:xlink="http://www.w3.org/1999/xlink" x="0px" y="0px" viewBox="-0.531 93.575 613.027 604.364"
	 enable-background="new -0.531 93.575 613.027 604.364" xml:space="preserve">
<g>
	<path fill="#0F004E" stroke="#FFFFFF" stroke-miterlimit="10" d="M604.572,383.317c-1.781-1.189-13.37-5.348-13.37-5.348
		l5.943-9.803c-2.377-7.426-11.881-26.441-11.881-26.441c-3.864-2.375-20.796-6.536-20.796-6.536l3.863-8.022
		c-2.969-7.131-21.393-26.142-21.393-26.142H526.44l2.08-8.319c-4.158-6.833-24.956-21.689-24.956-21.689
		c-11.29-1.188-33.572,3.862-33.572,3.862l-7.427,23.767c-9.209-13.667-25.847-13.366-25.847-13.366
		c-1.668-5.121-4.909-9.747-8.197-13.472l12.722-2.545l1.638-5.592l-18.827,3.562c-3.076-2.849-5.457-4.532-5.457-4.532l6.535-6.535
		c-1.312-1.508-2.453-3.237-3.453-5.01l26.113-6.996l1.364-5.73l-29.801,7.98c-1.927-4.542-2.84-8.367-2.84-8.367l15.745,2.083
		c-4.23-0.557-5.789-7.204-6.088-15.298l27.895-10.75l0.682-6.343l-28.603,11.615c0.273-12.333,2.548-25.57,2.548-25.57
		l-4.158-2.377l30.302-65.659l-47.236,2.081l-32.682-5.348c-18.125-11.29-57.043-17.528-57.043-17.528L306.59,94.252l-12.478,10.993
		c-36.838,5.051-56.15,17.825-56.15,17.825l-31.492,2.971h-49.614l31.795,64.159l-4.457,4.161c0,0,1.419,14.597,2.08,25.535
		l-26.895-11.617v5.322l27.125,10.692c0.028,0.648,0.05,1.272,0.067,1.857c0.297,10.399-5.348,13.368-5.348,13.368
		c4.754,2.081,14.854-0.891,14.854-0.891c-0.225,1.688-1.388,4.613-2.746,7.594l-28.357-7.926v5.184l26.275,7.094
		c-1.561,3.135-2.894,5.582-2.894,5.582l6.535,6.535c-2.899,1.683-5.368,3.458-7.489,5.283l-16.014-4.713v4.82l12.462,3.337
		c-11.335,12.46-8.271,25.734-8.271,25.734c-7.428-2.375-23.468,9.803-23.468,9.803s-9.506-31.492-10.993-32.977
		s-32.68-2.674-32.68-2.674l-24.361,19.015l1.188,10.1l-21.39,1.484l-20.5,23.767l4.161,9.209l-20.499,6.239l-12.774,25.847
		l6.833,10.993l-15.151,5.645L0,407.667c0,0,19.905,37.435,24.658,41.595c4.752,4.16,16.338,4.457,16.338,4.457
		c19.013,19.016,38.325,20.5,38.325,20.5c-7.426-6.833-18.122-27.332-18.122-27.332s4.752-0.594,10.694-0.594
		s14.558-2.08,26.441,1.188s26.441-1.781,29.709-2.674c3.268-0.893,9.803,0.891,9.803,0.891
		c2.674,5.941,19.008,14.856,19.008,14.856s4.761,0.891,13.97,3.861c12.183,2.377,36.838,14.558,36.838,14.558l0.297-4.455h4.158
		l0.893,1.781c18.419,23.173,24.361,35.354,26.738,40.998c-2.674,54.963,17.825,67.736,19.013,68.63
		c1.188,0.893,1.486,5.941-0.891,11.586c-2.377,5.646-1.486,8.319-5.645,16.044c-4.158,7.726-1.783,15.151,0.297,16.639
		c2.081,1.486,3.864,6.535,3.864,6.535s1.486-2.971,4.458-2.677c2.971,0.295,4.458,5.646,4.458,5.646s0.594-2.377,2.674-3.564
		s4.754-2.377,4.754-2.377l3.861,4.455c1.188-5.052,5.942-5.346,5.942-5.346l2.08,3.564l2.377-4.158
		c3.565-2.972,5.348-4.159,3.864-9.804s-0.297-8.022-0.297-8.022l1.781,1.781l0.893-3.863c-5.645-7.726-10.103-27.035-10.103-27.035
		l4.458-4.158c3.564,18.125,14.555,36.841,14.555,36.841s-1.486,9.506-4.458,21.39c-2.971,11.883-8.913,16.341-11.586,19.608
		s-3.268,9.21-3.268,9.21l3.564-1.188c-4.458,8.32,0.594,14.26,0.594,14.26l1.188,7.724c1.781-4.755,4.754-3.564,6.536-1.781
		s3.863,7.131,3.863,7.131c1.188-3.863,3.268-4.457,6.239-4.457s3.861,4.457,3.861,4.457c0.297-3.564,3.567-5.348,3.567-5.348
		l3.564-0.297l2.08,3.863l0.594-3.863c0,0,4.754,1.188,6.535-5.349c1.781-6.535,3.564-32.083,3.564-32.083
		c17.528,11.587,35.06,6.832,40.702,4.455c40.998-14.56,36.244-76.056,36.244-76.056l-2.377,0.891l2.377-12.477h-2.971l-0.891-9.804
		l-3.564,1.486l-1.189-7.428l-1.487,1.189l-8.021-12.776l-2.969,3.268l-3.864-5.941l-0.891,10.1l-3.863-1.781v9.804l-3.268-2.078
		l0.594,10.397l-3.268-1.781l4.455,12.775l-3.564,0.891c4.754,2.969,6.236,10.399,8.021,20.797
		c4.161,27.628-5.051,34.166-10.398,38.918c-19.606,14.854-38.327-5.941-39.218-7.723s0.297-12.479,1.783-17.234
		c21.986-30.602,22.577-40.994,23.765-44.857c13.368-27.332,9.507-57.043,9.507-57.043c0.594-0.891,24.063-32.38,24.063-32.38
		l8.913-0.297l-0.594,3.564c0,0,8.615-5.645,36.244-14.261c27.628-8.616,35.949-16.933,38.326-19.903
		c2.378-2.971,6.833-3.268,9.21-2.377c16.339,7.426,36.244,2.971,38.918,1.781s31.488,1.188,31.488,1.188
		c-6.236,16.339-18.719,27.928-18.719,27.928c27.926-5.942,39.218-21.094,39.218-21.094c14.558-0.893,18.122-7.129,18.122-7.129
		s22.874-36.84,22.579-41.595C611.699,399.953,606.353,384.505,604.572,383.317z"/>
	<path fill="#FFFFFF" d="M192.806,187.225l-22.556-46.569c0,0,29.104,20.918,41.839,25.468l-1.456,2.729l-19.464-8.913l-4.185,4.001
		l9.642,9.823l-0.727,1.273l-7.64-2.729l6.367,13.461L192.806,187.225z"/>
	<polygon fill="#D59F0F" points="214.999,153.026 221.183,156.119 233.553,136.473 	"/>
	<path fill="#EF3E42" d="M286.306,251.798l4.73,6.73c0,0,9.823-3.82,10.55,10.004c2.364,2.547,2.364,2.547,2.364,2.547l2.548-10.55
		l3.639,10.55l1.637-2.001c0,0-1.271-13.097,10.825-10.915l5.547-6.367l-18.555,7.275h-5.457L286.306,251.798z"/>
	<path fill="#FFFFFF" d="M301.949,277.722l-38.717-42.38l-1.954,1.635l7.791,9.231l-4.434,3.685l4.434,0.956
		c0,0,3.547-2.185,4.093,0.954c0.545,3.139-1.364,6.822-2.864,6.822c-1.5,0-2.633,0-3.567-3.001l-4.892-2.456
		c0,0-3.41,4.639-3.685,8.867c0,0,8.179,3,9.958,2.729c1.666-0.253,2.23-2.506,3.883-1.401c1.539,1.03,1.74,3.61,1.534,5.221
		c-0.504,3.955-2.687,4.501-3.641,3.41c-0.954-1.091-1.092-2.864-3.274-3.139c-2.183-0.275-8.458-2.593-8.458-2.593
		s1.091,8.867,3.139,11.46c0,0,7.64,0.818,8.867,0c1.227-0.819,3.139-1.864,4.366,0.364c1.227,2.229,1.91,3.456,1.502,5.366
		c-0.408,1.91-3.274,1.364-4.912,0c-1.637-1.365-6.275-0.681-6.275-0.681c6.23,4.219,12.529,4.767,19.774,4.041
		c3.261-0.328,6.52-0.877,9.655-1.847c2.17-0.67,7.241-2.135,8.363-4.375C303.45,278.948,301.949,277.722,301.949,277.722z"/>
	<path fill="#D59F0F" d="M277.029,216.146l-26.375-8.913l-6.914-15.461c0,0-13.643-6.913-17.644-6.184
		c-4.001,0.729-19.1,19.1-19.1,19.1l9.642,19.281l0.727-0.727l-4.185-16.19l16.19-16.188l10.733,7.457l8.367,21.283l10.188,2.91
		v3.456l-14.916,16.007l8.731,2.364l8.808-7.365l1.954-1.635l10.34-8.646l-4.366-3.274L277.029,216.146z"/>
	<path fill="#FFFFFF" d="M334.557,253.846c-6.549,8.321-25.514,25.238-25.514,25.238c-1.237,4.071,10.266,6.221,12.575,6.732
		c6.538,1.447,13.202,1.982,19.705-0.07c1.665-0.524,3.338-1.218,4.761-2.251c0.189-0.137,1.096-1.137,1.297-1.137
		c0,0-4.501,0-5.457,0.819c-0.957,0.818-3.002,2.183-4.639,1.091c-1.638-1.091,0.135-5.182,1.635-6.684
		c1.755-1.757,3.651,0.67,5.411,0.954c1.947,0.312,4.693-0.472,6.323-1.502c2.594-1.637,4.912-10.096,4.912-10.096
		s-4.23,0.411-7.913,1.364c-3.683,0.954-3.409,2.864-4.911,4.23c-1.502,1.367-3.685-1.364-3.82-3.547
		c-0.136-2.183,0.136-6.139,2.048-6.139s3.139,2.594,3.139,2.594s10.504-4.001,10.504-4.004c0.735-0.279-2.493-7.513-3.412-7.777
		c-1.316-0.377-5.146,1.31-5.592,2.642c-0.273,0.825-0.548,4.636-3.41,2.729c-2.864-1.91-2.183-7.913-0.818-8.459
		c1.364-0.545,1.502,0.681,2.593,1.227c1.092,0.545,3.686-2.045,3.686-2.045c-1.228-0.41-3.14-3.82-3.14-3.82l7.309-9.249
		l-1.786-1.493C346.973,238.767,339.629,247.399,334.557,253.846z"/>
	<path fill="#D59F0F" d="M410.184,187.406l4.911-6.913l-11.824,0.727l10.368-11.642l-13.643,5.822l-30.925-50.024
		c0,0-23.358-11.183-52.751-15.099l-9.642-9.096l-5.457,4.911l4.73-0.181l8.367,8.186c0,0,21.28,3.093,25.283,8.004
		c0,0-30.743-2.91-32.742,1.091c-2.002,4.001,0,11.825,0,11.825l3.819,5.638l-5.821,11.642l4.911,6.184l-1.635,41.11l5.093,5.093
		l-6.913,11.096l-7.275-11.279l4.911-4.912l-3.456-37.835l-8.731-7.64l7.821-12.37l-6.184-11.641l-11.46,12.187l3.274,5.457
		l-6.184,21.283l11.096,17.463l-3.82,4.185l-8.367-10.004l-46.205-3.001l-1.637-6.095l8.913-7.64l-2.183-4.001l-14.37,9.458
		l2.91,10.915l56.573,12.37l3.456,10.55l8.913,1.637l-11.46,7.64l15.461,10.188v3.093l-13.461-4.911l-2.91,4.185l13.278,10.004
		l-1.818,2.183l-9.458-4.912l-9.458,8.731l31.47,13.097c0,0,30.015-9.46,34.38-15.645l-7.094-6.913l-13.644,5.457l-1.818-2.183
		l16.007-11.46l-4.001-3.455l-14.188,5.457l-1.818-1.637l15.826-11.279l-11.098-8.186l8.004-0.727l4.185-10.733l51.298-11.279v3.82
		l-12.371,6.367l-7.82,15.28l-26.56,8.731l8.005,8.55l-3.82,2.001l10.613,8.858l1.786,1.493l9.608,8.02l58.938-23.647l2.366-24.557
		L410.184,187.406z"/>
	<path fill="#EF3E42" d="M299.085,290c0,0,4.411-1.441,7.229-5.458c0,0,2.864,4.23,6.959,5.458c0,0-5.73-1.91-7.095,0.818
		C306.179,290.819,305.223,288.363,299.085,290z"/>
	<polygon fill="#FFFFFF" points="356.521,224.515 356.521,222.513 364.89,219.965 374.528,204.504 379.44,209.961 367.98,224.515 	
		"/>
	<polygon fill="#0F004E" points="386.534,191.953 393.629,187.041 407.091,204.504 396.813,227.243 391.629,229.607 
		398.178,207.414 	"/>
	<polygon fill="#FFFFFF" points="382.35,175.4 382.35,171.942 363.434,156.119 366.524,152.48 389.99,169.033 389.99,175.4 	"/>
	<path fill="#D59F0F" d="M237.554,256.347c0,0,1.36-7.101,4.458-10.55l6.275,2.91l-5.365,10.004L237.554,256.347z"/>
	<path fill="#D59F0F" d="M237.554,273.264c0,0-0.546-9.642,0-11.095l5.366,0.727c0,0-0.819,7.459,1.364,11.096L237.554,273.264z"/>
	<path fill="#D59F0F" d="M369.255,263.26c0,0,0,7.642-0.546,10.915l35.653-4.366l14.007-14.188l-2.912-3.82L369.255,263.26z"/>
	<path fill="#D59F0F" d="M364.342,249.072c0,0,3.641,4.547,4.913,9.823l44.93-11.279c0,0-5.095-12.551-4.73-16.19L364.342,249.072z"
		/>
	<polygon fill="#D59F0F" points="421.825,233.519 420.369,226.878 409.454,231.428 	"/>
	<path fill="#FFFFFF" d="M350.155,329.837l-4.73,9.642l-2.002,0.911l-0.181-3.82l-4.366,2.91c0,0-0.203,12.196-0.668,16.075
		c-2.017,13.652-25.441,13.497-28.698,11.788c-3.257-1.705-5.896-0.31-5.896-0.31c-12.1,3.102-23.114-0.31-27.458-7.136
		c-4.344-6.826-2.041-19.51-2.041-19.51l-5.638-5.458l-1.938,5.458l-6.98-10.895l-0.155,5.274l-3.876-4.189
		c4.034,20.478,14.273,40.49,14.273,40.49l3.259-4.809h2.172c0.31,6.204,7.601,15.821,7.601,15.821l6.206-6.204l5.583,9.46
		l5.586-6.049l5.564,9.153l5.293-9.153l5.74,6.516l6.206-9.928l5.274,5.894c7.29-6.67,7.758-15.206,7.758-15.206l2.172-0.31
		l3.102,4.501c11.015-13.032,15.572-42.011,15.572-42.011l-4.911,5.095L350.155,329.837z"/>
	<path fill="#FFFFFF" d="M400.542,165.577l1.999,3.093l20.194-8.913l3.271,4.185l-9.276,10.368l8.004-0.727l-6.913,12.732
		l2.729,0.727l22.558-47.659C443.107,139.383,418.734,159.21,400.542,165.577z"/>
	<path fill="#EF3E42" d="M320.139,327.29c0,0-1.271,0.181,0.729-2.82c2-3.001,2.184-12.643,1.818-24.103
		c0,0-2.181,7.094-6.729,10.55l-2.683-6.549l-4.322,3.456l-2.373-5.276l-3.702,5.276l-3.792-4.73l-3.501,7.64l-5.276-9.277
		c0,0-2.545,18.371,2.547,24.649c0.576,0.711-0.956,1.213-1.456,1.013c-0.972-0.391-1.747-1.087-2.539-1.75
		c-0.721-0.603-1.46-1.183-2.22-1.738c-1.532-1.126-2.901-2.46-4.106-3.927c-1.866-2.272-3.364-4.833-4.625-7.483
		c-1.91-4.012-3.307-8.26-4.438-12.552c-0.035-0.133-0.164-0.986-0.267-1.028l-0.181-0.072v2.526l6.73,40.564l6.184-15.461
		c0,0,5.821,22.556,8.004,25.468l2.364-2.729h1.637l2.183,2.729l1.637-2.729h2.001l2.438,2.729l1.928-2.729h2.001l2.548,2.729
		l1.818-2.91h1.637l2.91,2.91c0,0,4.73-10.55,6.913-25.468c0,0,4.591,7.821,6.298,15.826l7.869-41.612l0,0
		c-0.445,0.063-0.869,0.114-1.251,0.138C338.876,300.55,337.42,320.379,320.139,327.29z"/>
	<path fill="#D59F0F" d="M365.98,280.177c-6.184,15.461-27.104,15.826-27.104,15.826v4.547c0.382-0.024,0.806-0.074,1.251-0.137
		c6.134-0.873,17.668-5.139,17.668-5.139l-0.546,4.001l-5.457,4.547l-12.916,35.652l4.366-2.91l0.181,3.82l2.002-0.911l4.73-9.642
		l1.818,4.003l4.911-5.095l2.002-8.55l40.745-44.93L365.98,280.177z"/>
	<path fill="#D59F0F" d="M261.385,304.553l-5.549-5.276v-3.82l17.19,5.638v-2.525v-2.569c-22.375-0.727-26.194-15.826-26.194-15.826
		l-8.186-1.273l12.733,20.737l8.186,6.913l8.913,28.377l5.638,5.457L261.385,304.553z"/>
	<path fill="#FFFFFF" d="M284.885,317.12c-1.836-2.752-3.366-5.758-4.691-8.784c-1.188-2.711-2.192-5.516-2.84-8.406
		c-0.445-1.984-1.164-4.405-0.352-6.389c0.609-1.491,2.975-2.021,4.444-2.233c2.562-0.369,6.129,1.513,6.07,4.34
		c-0.052,2.53-1.041,5.153-1.458,7.66c-0.441,2.646-0.792,5.311-1.052,7.982c-0.17,1.747-0.539,3.785-0.201,5.534
		C284.826,316.924,284.846,317.026,284.885,317.12z"/>
	<path fill="#FFFFFF" d="M327.651,317.12c1.839-2.752,3.368-5.758,4.693-8.784c1.186-2.711,2.191-5.516,2.84-8.406
		c0.445-1.984,1.164-4.405,0.352-6.389c-0.606-1.491-2.976-2.021-4.444-2.233c-2.562-0.369-6.129,1.513-6.07,4.34
		c0.05,2.53,1.041,5.153,1.458,7.66c0.438,2.646,0.792,5.311,1.052,7.982c0.169,1.747,0.537,3.785,0.201,5.534
		C327.711,316.924,327.693,317.026,327.651,317.12z"/>
	<path fill="#FFFFFF" d="M295.184,303.322c0,0-2.574-4.224-2.059-10.296c0.823-1.751,2.63-0.103,4.014,0
		c2.035,0.15,1.545,1.235,1.03,2.986C297.655,297.763,295.184,303.322,295.184,303.322z"/>
	<path fill="#FFFFFF" d="M316.709,303.322c0,0,2.576-4.224,2.059-10.296c-0.823-1.751-2.628-0.103-4.015,0
		c-2.034,0.15-1.545,1.235-1.03,2.986C314.238,297.763,316.709,303.322,316.709,303.322z"/>
	<path fill="#FFFFFF" d="M302.865,301.779c0,0-2.534-5.044-2.329-8.031c0.31-0.823,4.324-0.925,4.634,0
		C305.48,294.674,304.701,298.913,302.865,301.779z"/>
	<path fill="#FFFFFF" d="M309.732,301.779c0,0,2.534-5.044,2.327-8.031c-0.308-0.823-4.322-0.925-4.632,0
		C307.117,294.674,307.895,298.913,309.732,301.779z"/>
	<polygon fill="#0F004E" points="303.996,323.97 299.493,309.646 306.576,317.12 314.092,309.646 310.135,323.97 306.792,345.936 	
		"/>
	<path fill="#FFFFFF" d="M284.759,337.613c0,0-0.681,15.553-0.681,17.463s1.501,6.003,9.55,4.776
		C293.627,359.852,287.897,349.346,284.759,337.613z"/>
	<path fill="#FFFFFF" d="M328.091,337.613c0,0,0.681,15.553,0.681,17.463s-1.502,6.003-9.55,4.776
		C319.222,359.852,324.951,349.346,328.091,337.613z"/>
	<path fill="#FFFFFF" d="M295.127,360.077c0,0,0.219-3.73,2.048-6.775c0,0,2.183,2.499,2.318,6.775H295.127z"/>
	<path fill="#FFFFFF" d="M301.403,360.769c0,0,0.218-3.73,2.047-6.775c0,0,2.183,2.499,2.318,6.775H301.403z"/>
	<path fill="#FFFFFF" d="M307.369,360.769c0,0,0.218-3.73,2.047-6.775c0,0,2.183,2.499,2.318,6.775H307.369z"/>
	<path fill="#FFFFFF" d="M313.129,360.769c0,0,0.219-3.73,2.048-6.775c0,0,2.183,2.499,2.318,6.775H313.129z"/>
	<polygon fill="#FFFFFF" points="192.26,226.151 192.26,221.604 242.922,241.978 242.012,245.797 	"/>
	<polygon fill="#FFFFFF" points="197.171,251.798 198.263,247.616 237.312,257.076 237.554,262.169 	"/>
	<polygon fill="#FFFFFF" points="211.973,274.447 208.45,269.082 237.554,273.264 237.554,277.995 	"/>
	<path fill="#FFFFFF" d="M361.183,402.86l12.324-31.352l-20.865,16.736c0.647-2.403,2.27-19.764,2.27-19.764
		c-5.729,10.596-18.488,23.354-18.488,23.354l0.647-5.948l-10.379,12.973l-3.569-5.837l-7.677,9.511l-3.137-5.188l-6.542,8.758
		l-5.999-7.892l-2.272,4.322l-8-9.188l-2.593,5.837l-11.028-12.541l-1.945,5.621l-15.568-22.702l1.838,19.569l-19.351-17.84
		l12.541,32.109l-35.563-36.098l32.007,60.763l3.547-12.279l15.553,32.471l4.093-7.913l17.735,27.013l2.864-7.913l12.58,21.011
		l14.57-21.283l3.223,8.186l16.131-27.013l4.66,8.458l15.554-32.47l4.365,11.188l32.655-60.686l0.088-0.36L361.183,402.86z"/>
	<path fill="#D59F0F" d="M440.287,298.572l-57.3,43.544l2.729-9.277l42.839-42.02c0,0-6.455-13.914-10.186-16.645
		c-3.73-2.73-10.006-1.364-10.552,0c-0.546,1.365-43.476,48.569-43.476,48.569s-8.184,46.113-25.466,59.483l-1.377-4.165
		c0,0-6.996,11.818-11.154,13.898l-2.703-6.902l-8.548,11.438l-3.025-7.469l-6.3,9.641l-6.463-9.454l-3.215,6.656l-7.845-10.718
		l-3.781,7.09c0,0-8.791-10.498-10.02-14.088l-1.89,3.971c0,0-16.989-12.722-23.538-59.38l-45.84-48.568l41.11,53.615l5.549,14.599
		l-46.661-34.561l-3.82,5.366l37.958,52.661l-42.324-33.834l-3.82,4.366l17.282,23.693h-6.368l10.915,14.507h-4.547l14.553,25.648
		l-5.366-33.288l0.19,0.358l35.563,36.098l-12.541-32.11l19.351,17.841l-1.838-19.569l15.568,22.702l1.945-5.621l11.028,12.541
		l2.593-5.837l8,9.188l2.272-4.321l5.999,7.891l6.542-8.758l3.137,5.188l7.677-9.51l3.569,5.836l10.38-12.972l-0.648,5.948
		c0,0,12.759-12.759,18.488-23.354c0,0-1.621,17.36-2.27,19.764l20.866-16.736l-12.325,31.353l36.267-36.386l-0.088,0.36
		l0.088-0.162l-4.093,34.108l14.461-26.195l-4.639-0.273l7.913-13.544l-5.729-3.39l23.192-19.766l17.736,5.867l9.822-32.47
		L440.287,298.572z"/>
	<polygon fill="#D59F0F" points="287.397,525.568 304.677,546.67 320.687,527.024 316.502,527.569 333.419,507.378 322.505,509.744 
		366.708,449.897 343.969,471.361 341.24,463.358 320.685,488.824 316.864,481.729 305.952,496.464 294.854,481.549 292.49,489.188 
		271.026,464.45 282.486,485.914 264.478,473.362 282.849,496.102 268.843,489.37 286.487,509.016 277.392,507.562 294.673,527.024 
			"/>
	<polygon fill="#FFFFFF" points="303.95,585.234 296.311,563.951 303.224,552.673 	"/>
	<path fill="#D59F0F" d="M273.571,564.679l5.639,4.276l-3.547-13.008l3.912,1.456l-2.637-9.642l3.912,0.729l-8.367-18.919
		l0.91,12.552l-6.368-2.548l6.003,11.279l-8.55-2.002l7.459,11.096l-6.184-1.638l9.642,26.924c0.528-0.078,1.043-0.262,1.545-0.535
		v-0.737L273.571,564.679z"/>
	<path fill="#FFFFFF" d="M289.397,555.582l-16.917-26.011l8.367,18.919l-3.912-0.729l2.637,9.643l-3.912-1.456l3.547,13.008
		l-5.638-4.276l3.366,19.283v0.737C284.593,580.565,289.397,555.582,289.397,555.582z"/>
	<polygon fill="#FFFFFF" points="323.231,602.879 323.231,595.965 326.87,593.056 325.596,587.053 330.507,584.699 328.688,578.686 
		331.599,575.957 329.78,568.955 334.327,568.955 330.69,560.312 336.693,560.312 332.689,551.035 339.784,551.035 333.691,539.395 
		339.784,540.485 349.228,513.598 322.323,544.67 329.418,556.128 321.049,555.401 326.689,566.135 319.595,566.135 
		329.418,584.699 325.052,585.234 316.866,613.065 321.595,614.339 321.413,605.607 	"/>
	<path fill="#D59F0F" d="M339.784,540.485l-6.093-1.091l6.093,11.641h-7.095l4.004,9.277h-6.003l3.637,8.643h-4.547l1.818,7.002
		l-2.91,2.729l1.818,6.014l-4.911,2.354l1.274,6.003l-3.639,2.909v6.914l-1.818,2.729l0.182,8.731c0,0,16.189-29.288,22.738-41.656
		c4.912-12.732,6.185-60.574,6.185-60.574l-1.29,1.491L339.784,540.485z"/>
	<polygon fill="#D59F0F" points="275.573,601.605 279.758,596.876 287.033,621.614 282.667,623.98 280.849,621.433 278.121,621.614 
		277.937,626.89 272.664,627.436 271.389,622.889 268.479,628.527 263.749,628.527 263.749,623.07 261.749,623.07 259.929,626.89 
		253.745,624.343 278.121,612.701 	"/>
	<polygon fill="#D59F0F" points="290.489,674.731 293.946,677.825 295.946,674.731 297.583,674.731 297.583,680.554 
		301.768,680.554 305.406,675.823 306.314,680.554 311.955,680.554 313.408,675.642 316.866,679.824 321.413,677.642 
		321.413,639.441 314.864,648.719 315.046,665.454 	"/>
	<path fill="#D59F0F" d="M153.606,434.071l23.284-24.648l-0.818,21.19c0,0,15.734-12.37,16.553-31.74l5.911-7.732l7.186,9.093
		l-4.274-0.727l23.012,27.65c0,0-8.094,22.734-21.464,27.465l-21.92-9.186c0,0,5.822-5.822,6.184-8.551l-17.827,2.82l4.911-7.186
		L153.606,434.071z"/>
	<path fill="#D59F0F" d="M394.357,457.443c0,0-9.55-10.548-12.824-23.828l28.742-34.745h-4.366l7.641-7.64
		c0,0,4.271,7.005,5.819,7.64c0,0,3.822,25.282,17.192,30.649l-1.456-19.372l7.003-0.273c0,0,3.276,9.371,17.009,17.919
		c0,0-8.731-0.729-13.098-3.457c0,0,1.91,5.729,4.274,7.094h-11.642l5.819,4.73l-13.187,5.003l-21.92-6.913l8.186,10.733
		l-19.373-1.91l7.821,8.186C405.999,451.259,395.903,457.262,394.357,457.443z"/>
	<path fill="#EF3E42" d="M460.206,398.416l25.832,11.825l4.359,7.629c7.775-10.689,10.6-22.278,11.586-30.353l0,0l-17.262-11.081
		l-0.013-0.006C473.458,393.11,460.206,398.416,460.206,398.416z"/>
	<path fill="#D59F0F" d="M501.983,387.518L501.983,387.518c0.763-6.239,0.426-10.384,0.426-10.384
		c-6.548-4.547-10.006-15.099-10.006-15.099c-2.294,5.553-4.936,10.305-7.694,14.396l0.013,0.006L501.983,387.518z"/>
	<path fill="#EF3E42" d="M491.506,419.811l4.72,8.256l25.468,4.365h5.092c0,0,1.659-4.149,3.373-8.808l-13.418-21.317
		C507.177,412.051,496.908,417.427,491.506,419.811z"/>
	<path fill="#EF3E42" d="M460.206,398.416c5.265-8.624,7.079-20.896,7.696-29.058l-6.967-2.884L460.206,398.416z"/>
	<path fill="#D59F0F" d="M526.24,398.052l1.272-9.609c-3.237,5.378-6.95,9.967-10.774,13.866l13.418,21.317
		c1.783-4.853,3.628-10.253,3.722-12.11C534.063,407.875,526.24,398.052,526.24,398.052z"/>
	<path fill="#D59F0F" d="M491.506,419.811c-2.386,1.053-3.831,1.526-3.831,1.526c0.972-1.14,1.873-2.299,2.723-3.467l-4.359-7.629
		l-25.832-11.825l0.729-31.941l6.967,2.884c0.387-5.095,0.309-8.592,0.309-8.592l-12.098-11.923l-6.275,14.463l-17.099-7.64
		l-12.414,10.805l-5.595,17.389l3.093,3.458c-1.091-22.922,29.886-18.43,29.886-18.43c-9.589,15.409-11.877,35.71-11.877,35.71
		l9.459-0.365c0,0,3.273,5.458,3.273,6.187c0,0.729,24.014,22.374,24.014,22.374s9.823,10.005,27.832,10.005
		s21.283-10.369,21.283-10.369l-25.468-4.365L491.506,419.811z"/>
	<polygon fill="#EF3E42" points="461.118,413.696 459.117,406.032 480.399,413.696 484.709,425.156 483.674,428.066 477.49,426.612 
			"/>
	<path fill="#FFFFFF" d="M430.557,417.87c0,0,0.362-23.276,10.368-44.559c0,0-15.097-2.836-18.917,9.135
		C418.188,394.417,427.463,416.77,430.557,417.87z"/>
	<path fill="#D59F0F" d="M428.735,412.06c0,0-8.912-22.377-2.363-31.654C426.372,380.406,426.369,404.057,428.735,412.06z"/>
	<path fill="#FFFFFF" d="M467.905,387.518c0,0,9.218-20.209,2.488-42.946c-0.182-1.818,6.369-13.256,22.012-19.454
		C492.403,325.118,497.977,368.431,467.905,387.518z"/>
	<path fill="#D59F0F" d="M472.938,343.664l3.82-2.183c0,0,6.136,22.737-4.846,41.655
		C471.913,383.136,478.761,364.218,472.938,343.664z"/>
	<path fill="#FFFFFF" d="M499.133,412.06c0,0,10.186-20.918,6.549-42.202c0,0,1.456-6.367,23.284-16.19
		C528.966,353.668,535.515,387.683,499.133,412.06z"/>
	<path fill="#D59F0F" d="M509.32,370.404l2.91-3.929c0,0,1.421,30.015-11.113,40.8C501.117,407.274,511.685,390.23,509.32,370.404z"
		/>
	<path fill="#FFFFFF" d="M528.239,438.8c0,0,11.644-19.447,10.914-41.649c0,0,6.911-11.104,24.193-12.925
		C563.347,384.226,563.711,421.882,528.239,438.8z"/>
	<path fill="#D59F0F" d="M541.518,397.15l3.455-2.735c0,0,1.65,30.556-14.814,41.473C530.158,435.888,543.52,420.623,541.518,397.15
		z"/>
	<path fill="#FFFFFF" d="M543.52,466.812c0,0,13.097-13.827,14.369-34.381c0,0,13.462-10.373,22.739-8.096
		C580.628,424.336,572.442,461.172,543.52,466.812z"/>
	<path fill="#D59F0F" d="M561.163,434.069l3.456-1.638c0,0-4.091,25.943-19.601,32.616
		C545.021,465.048,557.889,454.441,561.163,434.069z"/>
	<path fill="#D59F0F" d="M552.613,432.432c0,0,14.369-13.824,31.287-12.006c0,0,0.766,15.503-8.367,26.74h6.729l24.558-41.134
		l-4.547-14.802l-12.552-2.788l-10.004,14.885l0.91,4.728l12.914,4.004l-6.549,16.007l-0.727-11.017c0,0-17.101-3.355-33.653,14.472
		"/>
	<path fill="#D59F0F" d="M533.882,398.416c0.814-1.366,0.666-4.141,1.445-5.821c0.969-2.083,2.499-3.632,4.006-5.313
		c1.787-1.993,3.789-3.665,6.022-5.202c7.304-5.042,15.989-8.042,24.901-8.042l1.456,12.835l4.366-17.201l-15.099-4.182
		l-1.092-3.185l7.277-15.553l15.643,2.091l8.186,18.646l-23.646,41.293l-5.274,0.727c0,0,6.001-14.918,5.82-30.015
		C567.894,379.498,544.619,380.408,533.882,398.416z"/>
	<path fill="#D59F0F" d="M503.863,365.492c0,0,6.558-18.735,30.2-20.92c0,0,1.997,6.392,1.633,11.746c0,0,2.545-0.648,2.909-16.293
		l-15.461-2.91l-1.451-2.547l10.363-23.831l15.28-2.183l15.102,18.373l-27.288,52.024h-4.992c0,0,5.176-11.281,2.082-30.106
		C532.24,348.846,517.297,350.88,503.863,365.492z"/>
	<path fill="#D59F0F" d="M468.213,352.757c0,0-4.492-4.911-3.975-10.004c0.517-5.093,11.432-22.92,30.894-26.74
		c0,0,3.091,5.457,2.91,12.37c0,0,3.093-2.183,1.091-17.644l-15.461-1.273l-2.578-5.821l7.852-23.285l14.918-2.364l19.1,16.19
		l-23.83,61.118l-5.538,1.015c0,0,5.903-18.294,1.537-35.393c0,0-15.823,0.91-28.013,20.556
		C466.39,342.572,466.216,350.212,468.213,352.757z"/>
	<path fill="#D59F0F" d="M127.748,376.66l0.013-0.006c-2.569-3.824-4.942-8.116-6.826-12.931l-2.842-0.518c0,0,0,6.461-8.526,13.436
		c0,0-0.404,4.224,0.395,10.735l0,0L127.748,376.66z"/>
	<path fill="#D59F0F" d="M85.027,388.441v11.705l-6.974,5.957c0,0,1.766,11.462,3.975,19.255l13.525-23.241
		C91.6,398.098,87.91,393.531,85.027,388.441z"/>
	<path fill="#D59F0F" d="M195.6,381.032c-0.775-4.137-3.359-15.76-3.359-15.76l-12.401-9.301l-17.828,5.942l-5.424-12.401
		l-12.916,11.366c0,0,0.105,3.495,0.572,8.521l6.145-2.927l0.775,32.64l-23.767,10.594l-5.73,8.968
		c0.897,1.318,1.855,2.637,2.888,3.948c0,0-1.559-0.709-4.084-2.076l-4.959,7.763l-25.834,3.872c0,0,6.199,9.042,12.659,9.559
		c6.459,0.518,20.667,0.258,24.801-1.55c6.446-2.82,12.395-9.028,17.817-13.376c3.558-2.855,7.099-5.732,10.628-8.622
		c5.2-4.259,8.063-8.328,10.308-14.687l11.108,1.032c0,0-6.716-25.314-11.883-35.648c0,0,26.869-4.394,29.451,17.05
		C194.565,385.939,196.375,385.164,195.6,381.032z"/>
	<path fill="#EF3E42" d="M150.388,366.475l-6.145,2.927c0.801,8.655,2.671,21.87,6.919,29.713L150.388,366.475z"/>
	<path fill="#EF3E42" d="M127.396,409.708l23.767-10.593c0,0-13.293-7.416-23.4-22.462l-0.013,0.006l-17.784,10.716l0,0
		c0.993,8.109,3.855,19.768,11.7,31.3L127.396,409.708z"/>
	<path fill="#EF3E42" d="M120.47,420.546c-5.586-3.022-15.941-9.301-24.917-18.428l-13.525,23.241c0.954,3.359,1.989,6.045,3,6.821
		h4.649l25.834-3.872L120.47,420.546z"/>
	<polygon fill="#EF3E42" points="127.763,427.533 132.303,412.808 153.606,406.104 151.163,414.098 134.628,427.533 	"/>
	<path fill="#FFFFFF" d="M180.874,420.648c0,0,2.471-27.619-10.593-48.66c0,0,18.86,1.46,19.635,10.805
		C190.69,392.139,190.339,404.482,180.874,420.648z"/>
	<path fill="#D59F0F" d="M185.781,380.515l3.248,2.281c0,0-0.889,18.109-5.944,30.261
		C183.087,413.057,187.49,385.38,185.781,380.515z"/>
	<path fill="#FFFFFF" d="M142.735,388.441c0,0-28.674-25.751-22.266-62.954c0,0,20.584,10.851,20.213,19.375
		C140.312,353.386,136.344,369.369,142.735,388.441z"/>
	<path fill="#D59F0F" d="M122.513,328.587l3.078,2.584c0,0-2.842,31.516,12.916,49.343
		C138.507,380.515,118.403,364.754,122.513,328.587z"/>
	<path fill="#FFFFFF" d="M113.963,411.258c0,0-34.618-16.02-30.226-56.708c0,0,20.15,8.397,21.442,15.631
		C106.471,377.415,102.594,393.688,113.963,411.258z"/>
	<path fill="#D59F0F" d="M84.769,356.966l3.359,2.106c0,0,2.325,28.705,19.893,47.034
		C108.021,406.104,84.512,386.376,84.769,356.966z"/>
	<path fill="#FFFFFF" d="M84.767,439.417c0,0-38.748-21.571-36.425-56.514c0,0,23.509,6.23,24.026,13.416
		C72.888,403.507,74.689,427.533,84.767,439.417z"/>
	<path fill="#D59F0F" d="M50.668,385.939l3.875,1.436c0,0,2.063,23.363,23.507,46.615C78.05,433.993,50.926,409.708,50.668,385.939z
		"/>
	<path fill="#FFFFFF" d="M32.068,422.882c0,0,21.185,6.719,22.477,11.111c1.292,4.392-2.325,10.075,14.208,33.327
		C68.753,467.318,34.136,459.308,32.068,422.882z"/>
	<path fill="#D59F0F" d="M33.361,425.361l3.617,2.172c0,0,5.422,23.77,27.384,37.461C64.359,464.994,37.752,451.863,33.361,425.361z
		"/>
	<path fill="#D59F0F" d="M34.911,446.911c0,0-10.334-8.254-9.301-30.091c0,0,10.908-2.534,22.375,4.348
		c0,0-7.392-9.912-25.734-12.234l-8.526-13.187l2.067-4.604l10.851-3.765l13.434,23.88l13.693,4.135l5.425,9.969
		c0,0,1.55,9.924,0,12.766l-1.81-5.943c0,0-3.617-9.116-29.708-11.532C27.676,420.648,27.419,435.287,34.911,446.911z"/>
	<path fill="#D59F0F" d="M48.244,404.282c0,0-10.491-10.077-5.067-30.746c0,0,15.398,3.335,23.071,8.775
		c0,0-9.895-14.117-26.945-15.837l-7.234-11.925l2.584-3.491l18.085-5.422l18.86,35.897l6.457,2.853l2.587,13.276l-2.587,3.002
		v-5.944c0,0-14.723-16.273-33.066-15.5C44.984,379.223,41.941,386.714,48.244,404.282z"/>
	<path fill="#D59F0F" d="M80.637,376.653c0,0-4.907-18.613,0-27.142c0,0,23.778,5.422,29.327,18.86l3.999-7.232l-6.974-4.174
		l-17.312-44.395H70.043l-3.538,4.909l8.448,17.825c0,0,18.733,6.845,25.642,16.598c0,0-13.505-7.022-22.545-7.289
		C78.05,344.611,71.855,362.716,80.637,376.653z"/>
	<path fill="#D59F0F" d="M117.062,352.611c0,0-2.816-20.235,1.061-32.117c0,0,22.966,7.06,28.132,22.558
		c-0.257,4.136-2.015,11.497-2.015,11.497s12.349-14.21,11.831-17.116c-0.517-2.905-15.391-50.958-15.391-50.958l-28.526-2.583
		l-2.687,2.067l7.336,20.927c0,0,14.086,2.683,21.7,20.15c0,0-8.784-8.526-21.7-11.109
		C116.805,315.928,105.484,335.308,117.062,352.611z"/>
	<path fill="#FFFFFF" d="M346.867,655.151c12.445,1.749,22.062-1.096,29.465-5.952l-1.908-2.304
		C361.798,656.526,346.867,655.151,346.867,655.151z"/>
	<path fill="#FFFFFF" d="M394.329,614.607c-0.006-0.09-0.004-0.199-0.017-0.269C394.225,613.848,394.244,614.042,394.329,614.607z"
		/>
	<path fill="#D59F0F" d="M398.985,614.339l-3.593,7.026c0,0-0.81-5.062-1.061-6.758c0.015,0.271,0.009,0.594-0.04,1.004
		c-0.354,3.147-2.315,9.707-2.315,9.707c-0.179-3.414-2.336-8.269-2.336-8.269c0.36,7.009-1.078,14.378-1.078,14.378
		c-0.182-1.796-2.515-5.57-2.515-5.57v6.47c-3.11,6.545-7.228,11.221-11.622,14.571l1.908,2.303
		C394.053,637.577,398.985,614.339,398.985,614.339z"/>
	<polygon fill="#EF3E42" points="385.146,602.499 385.866,591.176 388.562,596.876 390.719,595.671 390.719,602.499 
		393.415,600.702 392.155,608.79 390.54,605.194 388.562,607.532 389.28,599.984 	"/>
	<polygon fill="#EF3E42" points="398.985,609.689 397.907,591.896 393.415,594.053 396.471,570.69 393.415,573.025 392.337,567.093 
		389.28,570.15 390.18,555.594 391.258,561.882 393.415,559.544 393.596,565.656 397.907,563.969 397.907,576.259 401.145,574.283 
		398.985,587.223 401.145,586.145 	"/>
	<polygon fill="#EF3E42" points="384.249,584.699 384.249,565.656 380.296,568.955 386.048,555.594 386.048,577.699 
		390.001,574.462 389.28,585.234 387.665,580.035 	"/>
	<path fill="#FFFFFF" d="M278.86,202.784c-0.408-0.443-1.1-0.469-1.541-0.062c-1.971,1.845-5.509,3.041-8.708,2.912
		c-1.654-0.057-3.207-0.454-4.418-1.194c-1.456-0.891-2.421-2.091-3.041-3.512c-0.616-1.417-0.865-3.058-0.804-4.732
		c0.033-0.969,0.17-1.949,0.391-2.897c0.135-0.587-0.227-1.174-0.816-1.312c-0.587-0.135-1.174,0.229-1.312,0.816
		c-0.251,1.076-0.408,2.191-0.447,3.313c-0.068,1.936,0.209,3.894,0.982,5.68c0.769,1.781,2.05,3.381,3.91,4.508
		c1.62,0.982,3.53,1.44,5.477,1.51c3.761,0.118,7.712-1.155,10.264-3.492C279.245,203.917,279.271,203.225,278.86,202.784z"/>
	<path fill="#EF3E42" d="M264.074,194.622c-0.22,3.464,0.585,8.171,4.722,8.668c3.588,0.43,7.699-2.279,8.234-5.988
		C277.046,197.172,265.32,194.88,264.074,194.622z"/>
	<path fill="#FFFFFF" d="M334.864,202.784c0.408-0.443,1.1-0.469,1.541-0.062c1.971,1.845,5.507,3.041,8.705,2.912
		c1.657-0.057,3.207-0.454,4.42-1.194c1.456-0.891,2.421-2.091,3.041-3.512c0.613-1.417,0.862-3.058,0.801-4.732
		c-0.034-0.969-0.17-1.949-0.393-2.897c-0.135-0.587,0.229-1.174,0.816-1.312c0.587-0.135,1.175,0.229,1.312,0.816
		c0.252,1.076,0.408,2.191,0.448,3.313c0.067,1.936-0.212,3.894-0.982,5.68c-0.769,1.781-2.05,3.381-3.907,4.508
		c-1.62,0.982-3.53,1.44-5.479,1.51c-3.761,0.118-7.71-1.155-10.262-3.492C334.482,203.917,334.456,203.225,334.864,202.784z"/>
	<path fill="#EF3E42" d="M349.653,194.622c0.22,3.464-0.586,8.171-4.72,8.668c-3.591,0.43-7.699-2.279-8.233-5.988
		C336.678,197.172,348.406,194.88,349.653,194.622z"/>
	<path fill="#0F004E" d="M322.597,186.314l4.09,4.547c0,0,4.729-7.275,8.731-10.004l23.104-5.093c0,0-13.824-9.096-27.285-32.924
		l-3.458,4.547l5.821,21.829L322.597,186.314z"/>
	<g>
		<circle fill="#FFFFFF" cx="347.162" cy="199.58" r="1.537"/>
		<circle fill="#FFFFFF" cx="272.661" cy="200.497" r="1.611"/>
	</g>
</g>
</svg>
