<?xml version="1.0" encoding="utf-8"?>
<!-- Generator: Adobe Illustrator 16.0.4, SVG Export Plug-In . SVG Version: 6.00 Build 0)  -->
<!DOCTYPE svg PUBLIC "-//W3C//DTD SVG 1.1//EN" "http://www.w3.org/Graphics/SVG/1.1/DTD/svg11.dtd">
<svg version="1.1"
	 id="svg2403" xmlns:sodipodi="http://sodipodi.sourceforge.net/DTD/sodipodi-0.dtd" xmlns:svg="http://www.w3.org/2000/svg" xmlns:dc="http://purl.org/dc/elements/1.1/" xmlns:cc="http://creativecommons.org/ns#" xmlns:rdf="http://www.w3.org/1999/02/22-rdf-syntax-ns#" xmlns:inkscape="http://www.inkscape.org/namespaces/inkscape" sodipodi:version="0.32" inkscape:output_extension="org.inkscape.output.svg.inkscape" inkscape:version="0.46" sodipodi:docname="Minnesota Wild.svg"
	 xmlns="http://www.w3.org/2000/svg" xmlns:xlink="http://www.w3.org/1999/xlink" x="0px" y="0px" viewBox="-0.487 -0.839 227.974 148.678" enable-background="new -0.487 -0.839 227.974 148.678"
	 xml:space="preserve">
<defs>
	
	
		<inkscape:perspective  id="perspective2410" inkscape:persp3d-origin="372.04724 : 350.78739 : 1" inkscape:vp_z="744.09448 : 526.18109 : 1" sodipodi:type="inkscape:persp3d" inkscape:vp_x="0 : 526.18109 : 1" inkscape:vp_y="0 : 1000 : 0">
		</inkscape:perspective>
</defs>
<sodipodi:namedview  guidetolerance="10.0" showgrid="false" inkscape:zoom="1.8921739" inkscape:cy="9.1911765" bordercolor="#666666" pagecolor="#ffffff" inkscape:cx="143.75" objecttolerance="10.0" gridtolerance="10.0" borderopacity="1.0" id="base" inkscape:current-layer="g2412" inkscape:window-y="-4" inkscape:window-x="-4" inkscape:pageopacity="0.0" inkscape:window-width="1280" inkscape:pageshadow="2" inkscape:window-height="904">
	</sodipodi:namedview>
<g id="g2412" transform="matrix(1.25,0,0,-1.25,-1.8748749,147.38625)" inkscape:groupmode="layer" inkscape:label="Minnesota Wild">
	<g id="g2414" transform="matrix(0.7929515,0,0,0.7929515,1.1105567,-0.3624418)">
		<g>
			<defs>
				<rect id="SVGID_1_" x="1.013" y="0.661" width="227.974" height="148.678"/>
			</defs>
			<clipPath id="SVGID_2_">
				<use xlink:href="#SVGID_1_"  overflow="visible"/>
			</clipPath>
			<g id="g2416" clip-path="url(#SVGID_2_)">
				<g id="g2422" transform="translate(130.8809,1.7646)">
					<path id="path2424" fill="#EEE3C6" d="M0,0l61.963,60.896L48.83,60.939l48.789,51.988c0,0-11.355,3.387-15.056,4.015
						l7.799,6.191c-12.966,3.346-39.817,7.611-68.31,5.729c0,0-6.087,17.609-29.56,17.609c-26.81,0-33.23-20.661-33.23-20.661
						s-32.184-6.693-61.629-25.786l6.357-4.81c0,0-13.258-6.796-33.371-22.737c2.18-9.018,10.953-20.676,11.842-21.723
						c3.466-2.367,15.423-8.721,24.656-11.889c1.694,0.408,5.019,1.805,5.019,1.805c1.066-0.435,6.064-1.783,7.445-1.961
						c-0.983-5.929,3.393-9.277,3.393-9.277l-3.028-1.661c0,0,4.12-9.285,24.301-14.074C-10.102,23.84,0,0,0,0"/>
				</g>
				<g id="g2426" transform="translate(6.1792,72.7002)">
					<path id="path2428" fill="#015836" d="M0,0c2.133-5.689,6.064-12.088,9.829-17.232c1.16-1.036,12.882-7.153,22.104-10.645
						c0.983,0.137,4.026,1.516,4.559,1.861c0.533,0,7.299-3.011,16.04-3.011c3.095,0,5.479,0.314,5.479,0.963
						c0,0.531-1.289,1.199-1.882,1.462c-1.783,0.793-4.141,1.469-4.141,3.394c0,1.924,3.514,4.485,19.449,4.485
						c10.038,0,16.646-0.558,16.646-0.558v-1.13c-5.137,0-10.461-0.758-14.016-1.632c-2.258-0.555-5.788-1.594-5.788-2.718
						c0-2.065,9.181-2.08,9.181-6.19c0-3.338-3.413-6.985-16.082-6.985c-6.849,0-12.37,2.227-12.84,2.227
						c-0.471,0-0.565-0.156-0.565-0.313c0-0.232,0.39-1.009,1.098-1.968c0.992-1.344,2.71-3.045,5.756-4.133l-4.093-2.322
						c4.642-4.743,15.893-8.004,18.225-8.658c0,0,38.615,10.107,56.527-11.778l49.029,50.91l-11.606,0.064l46.55,52.928
						c0,0-8.908,3.221-17.9,4.978l6.127,4.769c0,0-30.951,6.461-56.108,4.422c0,0-4.705,17.703-26.685,17.703
						c-21.289,0-28.148-19.575-28.148-19.575s-25.283-4.12-57.258-22.585l6.817-5.228C36.304,23.505,21.608,16.661,0,0"/>
				</g>
				<g id="g2430" transform="translate(30.7095,58.96)">
					<path id="path2432" fill="#BF2B37" d="M0,0c0,0,4.245-1.317,15.554-0.59l12.971,7.973l9.933-3.221l3.022,4.234h-3.262
						l6.618,10.697l5.616-10.697h-2.541l1.693-3.701l7.09,1.285l2.949,3.766h-2.636l3.953,6.053h-3.074l6.242,10.666l5.427-10.916
						h-2.478l3.827-6.463h-2.98L73.8-1.526l5.688,8.155h-3.889l5.939,8.992h-3.765l8.617,14.974l7.486-14.974h-3.094L95.8,6.629
						h-3.513l4.935-10.874l8.449,13.636h-4.642l6.817,11.25h-4.266l9.285,18.57l9.578-19.574h-3.388l6.149-10.289h-4.225
						l4.852-10.037l7.654,11.752h-4.1l8.993,13.007h-4.851l14.429,19.826l7.738-13.719l16.018,19.803
						c0,0-27.938,11.733-69.178,11.733c-54.749,0-85.783-19.239-85.783-19.239S52.679,55.01,92.14,55.01
						c28.797,0,45.903-6.556,45.903-6.556s-36.858,0.174-96.113-15.851c9.619,0,15.391-2.782,15.391-2.782
						S33.272,25.534-0.397,11.125l4.308-6.377L0,0z"/>
				</g>
				<g id="g2434" transform="translate(107.0884,99.71)">
					<path id="path2436" fill="#EFB410" d="M0,0c3.671-3.168,8.454-5.084,13.683-5.084c7.713,0,14.451,4.167,18.09,10.371
						C22.913,4.147,12.247,2.47,0,0"/>
				</g>
				<g id="g2438" transform="translate(99.9761,118.1895)">
					<path id="path2440" fill="#EFB410" d="M0,0c-0.106-0.854-0.161-1.724-0.161-2.606c0-0.985,0.069-1.953,0.201-2.9
						C7.343-4.714,15.039-4.22,22.874-4.22c6.947,0,13.211-0.382,18.721-0.961c0.104,0.844,0.157,1.703,0.157,2.575
						c0,1.704-0.204,3.36-0.587,4.946c-2.574,0.093-5.207,0.143-7.898,0.143C20.95,2.483,9.833,1.509,0,0"/>
				</g>
				<g id="g2442" transform="translate(139.125,125.7051)">
					<path id="path2444" fill="#EFB410" d="M0,0c-3.57,6.46-10.45,10.835-18.354,10.835c-10.691,0-19.512-8.007-20.795-18.351
						C-29.823-4.065-14.301-1.113,0,0"/>
				</g>
				<g id="g2446" transform="translate(122.7559,107.8613)">
					<path id="path2448" fill="#FFFFFF" d="M0,0c-8.878-0.284-25.189-1.074-51.623-7.642c-0.006-0.002-0.013-0.002-0.019-0.003
						c-0.311,2.05-0.587,3.653-0.587,3.653s-1.07-1.75-2.421-4.195c-6.688-2.406-14.988-5.914-20.489-8.86
						c3.377,1.175,10.075,3.389,18.895,5.876c-0.912-1.772-1.818-3.663-2.52-5.41l4.601,4.141c0,0,3.168-1.831,3.335-1.768
						c-0.078,1.1-0.243,2.504-0.433,3.917C-37.042-6.465-18.766-2.193,0,0"/>
				</g>
			</g>
		</g>
	</g>
</g>
</svg>
