<?xml version="1.0" encoding="utf-8"?>
<!-- Generator: Adobe Illustrator 16.0.4, SVG Export Plug-In . SVG Version: 6.00 Build 0)  -->
<!DOCTYPE svg PUBLIC "-//W3C//DTD SVG 1.1//EN" "http://www.w3.org/Graphics/SVG/1.1/DTD/svg11.dtd">
<svg version="1.1"
	 id="svg2" xmlns:sodipodi="http://sodipodi.sourceforge.net/DTD/sodipodi-0.dtd" xmlns:svg="http://www.w3.org/2000/svg" xmlns:dc="http://purl.org/dc/elements/1.1/" xmlns:cc="http://creativecommons.org/ns#" xmlns:rdf="http://www.w3.org/1999/02/22-rdf-syntax-ns#" xmlns:inkscape="http://www.inkscape.org/namespaces/inkscape" sodipodi:version="0.32" inkscape:output_extension="org.inkscape.output.svg.inkscape" inkscape:version="0.48.2 r9819" sodipodi:docname="AJAX.svg"
	 xmlns="http://www.w3.org/2000/svg" xmlns:xlink="http://www.w3.org/1999/xlink" x="0px" y="0px" viewBox="3 0 227 227" enable-background="new 3 0 227 227" xml:space="preserve">
<defs>
	
	
		<inkscape:perspective  id="perspective9" inkscape:persp3d-origin="372.04724 : 350.78739 : 1" inkscape:vp_z="744.09448 : 526.18109 : 1" sodipodi:type="inkscape:persp3d" inkscape:vp_x="0 : 526.18109 : 1" inkscape:vp_y="0 : 1000 : 0">
		</inkscape:perspective>
</defs>
<sodipodi:namedview  guidetolerance="10.0" showgrid="false" fit-margin-left="0" inkscape:zoom="3.2563876" inkscape:cy="112.59086" bordercolor="#666666" pagecolor="#ffffff" inkscape:cx="120.77126" fit-margin-top="0" objecttolerance="10.0" gridtolerance="10.0" borderopacity="1.0" id="base" inkscape:window-maximized="1" inkscape:current-layer="g15" fit-margin-bottom="0" fit-margin-right="0" inkscape:window-y="-8" inkscape:window-x="-8" inkscape:pageopacity="0.0" inkscape:window-width="1280" inkscape:pageshadow="2" inkscape:window-height="1004">
	</sodipodi:namedview>
<g>
	<defs>
		<rect id="SVGID_1_" x="3" width="227" height="227"/>
	</defs>
	<clipPath id="SVGID_2_">
		<use xlink:href="#SVGID_1_"  overflow="visible"/>
	</clipPath>
	<g id="g15" clip-path="url(#SVGID_2_)">
		<g id="g21" transform="translate(212.2168,221.2012)">
			
				<path id="path23" inkscape:connector-curvature="0" sodipodi:nodetypes="cccccccccccccccccccccccccccscccccccscccccccccccc" fill="#0161AB" d="
				M3-215.402h-39.842h-3.252l-2.336,2.264l-5.47,5.301l-6.305-5.897l-2.316-2.166h-0.687h-2.482h-35.956h-35.957h-3.17
				l-2.315,2.166l-6.305,5.897l-5.47-5.301l-2.336-2.264h-3.252h-39.842h-13.924l17.019,30.052l0.07,145.799
				c0,1.401,0.166,3.6,0.797,6.17c0.945,3.844,2.949,8.542,7.099,12.303c4.145,3.768,10.403,6.467,19.387,6.455h18.502h25.732
				c4.559,0.001,8.267,1.183,11.227,2.724c2.956,1.541,5.148,3.449,6.585,4.886c1.455,1.455,2.611,2.835,3.396,3.841
				c0.392,0.504,0.692,0.915,0.891,1.196c0.099,0.139,0.173,0.248,0.222,0.318c0.023,0.035,0.041,0.061,0.052,0.077
				c0.01,0.017,0.012,0.019,0.012,0.019l1.349,2.06l1.494-1.958c0.001,0,0.203-0.265,0.533-0.691
				c0.495-0.639,1.272-1.631,2.046-2.583c0.768-0.946,1.561-1.877,1.98-2.292c0.593-0.597,2.7-2.534,5.864-4.28
				c3.17-1.753,7.383-3.319,12.276-3.317h44.236c4.499-0.001,8.449-0.58,11.863-1.672c5.115-1.631,9.027-4.451,11.607-8.107
				c2.584-3.653,3.816-8.088,3.813-12.847v-148.264l10.148-17.899l6.799-11.99H3z"/>
		</g>
		<g id="g25" transform="translate(152.0088,219.9561)">
			<path id="path27" inkscape:connector-curvature="0" fill="#FFFFFF" d="M3-212.912H0.519h-35.957h-35.957h-2.481l-1.813,1.695
				l-7.517,7.032l-6.662-6.456l-1.829-1.773h-2.546h-39.842h-10.934l15.771,27.849l0.07,146.258c0,5.056,2.476,23.186,25.541,23.186
				h44.235c9.731,0,16.007,5.084,19.044,8.12c3.037,3.037,4.799,5.729,4.799,5.729s3.327-4.357,4.711-5.742
				c1.385-1.384,8.833-8.107,19.373-8.107h44.236c17.4,0,25.541-8.974,25.541-20.883v-148.723l10.375-18.3L74-212.414H63.208H23.367
				H20.82l-1.829,1.773l-6.661,6.456l-7.517-7.032L3-212.912z M0.519-206.625l11.887,11.121l10.961-10.623h39.841l-11.193,19.741
				v150.382c0,9.804-7.428,14.596-19.254,14.596h-44.236c-16.39,0-23.963,11.089-23.963,11.089s-7.573-11.089-23.964-11.089h-44.235
				c-11.826,0-19.254-4.792-19.254-14.596v-150.382l-11.194-19.741h39.842l10.96,10.623l11.888-11.121h35.957H0.519"/>
		</g>
		<g id="g29" transform="translate(30.8276,121.5957)">
			<path id="path31" inkscape:connector-curvature="0" fill="#FFFFFF" d="M3-16.191V60.77c0,6.585,4.783,11.432,15.444,11.432
				h42.088c17.452,0,25.208,10.01,25.208,10.01s7.998-10.009,23.593-10.009h16.449L3-16.191z"/>
		</g>
		<path id="path33" inkscape:connector-curvature="0" fill="#FFFFFF" d="M199.21,68.084H33.828v3.935H199.21V68.084z"/>
		<g id="g35" transform="translate(196.21,66.3232)">
			<path id="path37" inkscape:connector-curvature="0" fill="#FFFFFF" d="M3,94.354v-4.048l-110.24-78.587h-5.62L3,94.354z"/>
		</g>
		<g id="g39" transform="translate(30.8276,133.7617)">
			<path id="path41" inkscape:connector-curvature="0" fill="#FFFFFF" d="M3-40.523v4.037l133.825,96.523h5.7L3-40.523z"/>
		</g>
		<g id="g43" transform="translate(196.21,78.5137)">
			<path id="path45" inkscape:connector-curvature="0" fill="#E3393F" d="M3,69.973V-0.472h-98.818L3,69.973z"/>
		</g>
		<g id="g47" transform="translate(50.1064,163.8105)">
			<path id="path49" inkscape:connector-curvature="0" fill="#FFFFFF" d="M3-100.621h-4.61l-8.237-19.23v19.23h-4.629v-29.824h4.753
				l8.094,18.764v-18.764H3V-100.621z"/>
		</g>
		<g id="g51" transform="translate(68.6123,188.8472)">
			<path id="path53" inkscape:connector-curvature="0" fill="#FFFFFF" d="M3-150.694h-7.223v7.541h7.19v4.683h-7.19v7.963H3v4.725
				H-9v-29.679H3V-150.694z"/>
		</g>
		<g id="g55" transform="translate(89.3267,163.8105)">
			<path id="path57" inkscape:connector-curvature="0" fill="#FFFFFF" d="M3-100.621l-2.77-15.801l-2.739,15.801h-5.602
				l-4.838-29.866h4.538l3.163,18.733l3.066-18.717H2.58l3.19,18.531l2.956-18.526h4.783l-4.992,29.845H3z"/>
		</g>
		<g id="g59" transform="translate(123.3467,163.8936)">
			<path id="path61" inkscape:connector-curvature="0" fill="#FFFFFF" d="M3-100.787h-4.899v-12.326l-6.41-17.431h4.814
				l4.079,10.974l3.979-10.968H9.47L3-112.988V-100.787z"/>
		</g>
		<g id="g63" transform="translate(137.3008,173.8286)">
			<path id="path65" inkscape:connector-curvature="0" fill="#FFFFFF" d="M3-120.657c0,2.171-0.013,2.973,0.343,3.833
				c0.426,0.902,1.432,1.37,2.462,1.37c1.029,0,1.998-0.483,2.424-1.385c0.39-0.86,0.38-1.606,0.38-3.818v-9.792
				c0-2.212,0.049-2.919-0.341-3.779c-0.426-0.902-1.434-1.424-2.463-1.424c-1.03,0-2.013,0.515-2.439,1.416
				C3.011-133.417,3-132.62,3-130.449V-120.657z M13.311-120.324c0,4.082-0.017,4.945-1.135,6.592
				c-0.982,1.439-3.68,3.03-6.403,3.03c-2.649,0-5.063-1.064-6.305-2.885c-1.118-1.647-1.232-3.487-1.232-6.737v-10.531
				c0-3.424,0.079-5.102,1.372-7.007c1.372-2.01,3.36-2.614,6.165-2.614c2.651,0,5.057,0.836,6.299,2.656
				c1.492,2.197,1.239,3.176,1.239,6.965V-120.324z"/>
		</g>
		<g id="g67" transform="translate(159.4258,182.9526)">
			<path id="path69" inkscape:connector-curvature="0" fill="#FFFFFF" d="M3-138.905c2.269,0,3.644,0.127,4.469-0.342
				c0.877-0.498,0.944-1.563,0.944-2.647c0-1.055,0.025-2.042-0.85-2.54c-0.826-0.469-2.294-0.42-4.563-0.42H1.041v5.949H3z
				 M1.08-119.841h-4.788v-29.772h7.715c4.232,0,5.321,0.164,6.854,1.414c1.78,1.409,2.296,2.948,2.299,4.621l0.004,3.517
				c0,1.499-0.788,3.221-1.742,4.061c-1.193,1.051-2.612,1.402-2.708,1.448l5.26,14.711H9.126l-5.101-14.678H1.08V-119.841z"/>
		</g>
		<g id="g71" transform="translate(180.4814,183.5083)">
			<path id="path73" inkscape:connector-curvature="0" fill="#FFFFFF" d="M3-140.017l6.288-10.137h4.824l-5.851,9.552l9.056,20.2
				h-4.823l-7.097-15.781L3-132.479v12.077h-4.724v-29.752H3V-140.017z"/>
		</g>
		<g id="g75" transform="translate(160.0283,69.8789)">
			<path id="path77" inkscape:connector-curvature="0" fill="#FFFFFF" d="M3,87.242c1.827,1.341,2.846,2.276,3.842,2.312
				c1.058,0.038,1.866-0.95,2.634-1.995c0.746-1.017,1.464-1.954,1.111-2.952c-0.333-0.939-1.551-1.761-3.379-3.101L5.63,80.347
				l-4.208,5.737L3,87.242z M-9.067,100.504l-3.861-2.832L4.684,73.668l6.219,4.562c3.413,2.504,4.194,3.281,4.691,5.196
				c0.601,2.188,0.107,3.735-0.88,5.085l-2.92,3.835c-0.887,1.209-2.541,2.131-3.808,2.245c-1.583,0.141-2.934-0.415-3.039-0.435
				l-3.619,13.975l-3.908-2.868l3.698-13.69l-2.375-1.742L-9.067,100.504z"/>
		</g>
		<g id="g79" transform="translate(91.6294,124.3076)">
			<path id="path81" inkscape:connector-curvature="0" fill="#FFFFFF" d="M3-21.615l-9.326,7.884l4.71,3.341L3-21.615z
				 M-9.652-11.165l-5.16,3.949l-3.812-2.783l24.27-19.396l3.672,2.925L-1.435,2.535l-3.854-2.821l2.117-6.058L-9.652-11.165z"/>
		</g>
		<g id="g83" transform="translate(104.749,87.5439)">
			<path id="path85" inkscape:connector-curvature="0" fill="#FFFFFF" d="M3,51.912l-3.778-2.704l4.469-20.514L-7.53,44.376
				l-3.795-2.715L6.08,17.341l3.896,2.788L5.66,40.178l10.95-15.302l3.794,2.716L3,51.912z"/>
		</g>
		<g id="g87" transform="translate(113.1973,85.2188)">
			<path id="path89" inkscape:connector-curvature="0" fill="#FFFFFF" d="M3,56.562c0-2.606,2.341-5.39,3.48-6.893l4.736-6.551
				 M22.384,54.905l-9.238,12.488l-2.162-1.556l0.108-1.266c-1.681-0.072-2.38-0.202-4.793-1.94C3.973,60.957,2.87,58.036,3,56.562
				c0.315-3.027,2.341-5.39,3.48-6.893l4.736-6.551c3.288-4.567,3.95-5.6,6.707-6.286c2.231-0.606,3.908,0.169,6.395,1.959
				c3.058,2.203,3.766,4.203,3.766,6.131c0,2.657-1.307,3.819-3.781,7.243l-3.833-2.802c1.743-2.406,3.776-4.44,1.265-6.452
				c-1.058-0.849-1.452-1.142-2.178-1.142c-1.157,0-1.587,0.238-3.03,2.241l-5.871,8.05c-1.271,1.766-2.78,3.752-2.78,4.44
				c0,1.349,0.75,1.833,2.095,2.801c2.202,1.585,3.188,0.215,5.599-3.135l0.708-0.983l-3.817-2.708l2.116-3.092L22.384,54.905z"/>
		</g>
		<g id="g91" transform="translate(153.0645,83.582)">
			<path id="path93" inkscape:connector-curvature="0" fill="#FFFFFF" d="M3,59.836l-5.787-4.321l-4.512,6.042l5.761,4.301
				l-2.802,3.753l-5.761-4.301l-4.764,6.38l5.788,4.322l-2.827,3.785l-9.616-7.18l17.756-23.78l9.617,7.18L3,59.836z"/>
		</g>
		<g id="g95" transform="translate(69.4424,135.0186)">
			<path id="path97" inkscape:connector-curvature="0" fill="#FFFFFF" d="M3-43.037c1.827,1.34,2.846,2.276,3.842,2.312
				c1.058,0.038,1.866-0.95,2.634-1.995c0.746-1.017,1.464-1.953,1.111-2.951c-0.333-0.94-1.551-1.762-3.379-3.102L5.63-49.931
				l-4.208,5.736L3-43.037z M-9.068-29.775l-3.86-2.832L4.684-56.611l6.219,4.563c3.413,2.504,4.194,3.28,4.691,5.194
				c0.601,2.189,0.107,3.735-0.881,5.086l-2.919,3.836c-0.886,1.208-2.541,2.131-3.807,2.244c-1.584,0.141-2.935-0.415-3.04-0.435
				L1.328-22.148l-3.908-2.867l3.698-13.691l-2.374-1.742L-9.068-29.775z"/>
		</g>
		<g id="g99" transform="translate(183.4082,57.3018)">
			<path id="path101" inkscape:connector-curvature="0" fill="#FFFFFF" d="M3,112.396c2.739-2.583,2.292-5.165,0.498-6.349
				c-1.645-1.087-3.699-1.505-5.322,0.56c-0.631,0.805-0.891,1.961-0.644,3.133c0.204,1.144-0.064,1.441,1.485,5.333
				c1.183,3.117,1.276,4.709,1.276,6.286c0,0.373-0.098,3.65-1.463,5.073c-3.704,3.86-7.424,4.475-12.542,0.342
				c-7.75-6.255-0.114-12.677,0.218-13.32l3.142,2.272c-1.586,2.428-4.444,5.674,0.296,8.308c1.292,0.717,3.602,1.46,5.089-0.434
				c0.941-1.199,1.108-2.948-0.56-7.314c-1.967-5.175-1.882-5.535-2.071-7.359c-0.173-1.76,0.342-3.491,1.468-4.926
				c3.021-3.846,8.386-5.124,13.052-1.035c5.788,5.073,1.961,9.118-0.063,12.325L3,112.396z"/>
		</g>
	</g>
</g>
</svg>
