<?xml version="1.0" encoding="utf-8"?>
<!-- Generator: Adobe Illustrator 16.0.4, SVG Export Plug-In . SVG Version: 6.00 Build 0)  -->
<!DOCTYPE svg PUBLIC "-//W3C//DTD SVG 1.1//EN" "http://www.w3.org/Graphics/SVG/1.1/DTD/svg11.dtd">
<svg version="1.1"
	 id="Layer_1" xmlns:sodipodi="http://sodipodi.sourceforge.net/DTD/sodipodi-0.dtd" xmlns:svg="http://www.w3.org/2000/svg" xmlns:dc="http://purl.org/dc/elements/1.1/" xmlns:cc="http://creativecommons.org/ns#" xmlns:rdf="http://www.w3.org/1999/02/22-rdf-syntax-ns#" xmlns:inkscape="http://www.inkscape.org/namespaces/inkscape" inkscape:version="0.48.2 r9819" sodipodi:docname="AJAX.svg"
	 xmlns="http://www.w3.org/2000/svg" xmlns:xlink="http://www.w3.org/1999/xlink" x="0px" y="0px" viewBox="-23.445 78.163 658.904 635.648" enable-background="new -23.445 78.163 658.904 635.648"
	 xml:space="preserve">
<sodipodi:namedview  guidetolerance="10" showgrid="false" fit-margin-left="0" inkscape:zoom="2.9420856" inkscape:cy="159.80321" bordercolor="#666666" pagecolor="#ffffff" inkscape:cx="106.90863" fit-margin-top="0" objecttolerance="10" gridtolerance="10" borderopacity="1" id="namedview558" inkscape:window-maximized="1" inkscape:current-layer="g236" fit-margin-bottom="0" fit-margin-right="0" inkscape:window-y="-8" inkscape:window-x="-8" inkscape:pageopacity="0" inkscape:window-width="1280" inkscape:pageshadow="2" inkscape:window-height="1004">
	</sodipodi:namedview>
<g id="g236" transform="translate(-10.264,-10.255007)">
	<g id="g238">
		<g>
			<defs>
				<rect id="SVGID_1_" x="-13.181" y="88.418" width="658.904" height="635.648"/>
			</defs>
			<clipPath id="SVGID_2_">
				<use xlink:href="#SVGID_1_"  overflow="visible"/>
			</clipPath>
			<path id="path246" inkscape:connector-curvature="0" clip-path="url(#SVGID_2_)" fill="#FFFFFF" d="M316.264,88.425
				c-181.949,0-329.445,142.297-329.445,317.826c0,175.526,147.496,317.833,329.445,317.833
				c181.958,0,329.459-142.307,329.459-317.833C645.723,230.722,498.22,88.425,316.264,88.425 M316.264,700.667
				c-169.009,0-306-131.817-306-294.417c0-162.6,136.991-294.417,306-294.417c169.002,0,306,131.815,306,294.417
				C622.262,568.855,485.266,700.667,316.264,700.667"/>
		</g>
	</g>
	<g id="g248">
		<g>
			<defs>
				<rect id="SVGID_3_" x="-13.181" y="88.418" width="658.904" height="635.648"/>
			</defs>
			<clipPath id="SVGID_4_">
				<use xlink:href="#SVGID_3_"  overflow="visible"/>
			</clipPath>
			<path id="path256" inkscape:connector-curvature="0" clip-path="url(#SVGID_4_)" fill="#FFFFFF" d="M325.499,498.283
				c-1.714,3.509-5.066,5.928-8.952,6.467L184.67,522.899c-1.167,0.166-2.241,0.797-2.944,1.747
				c-0.708,0.921-1.002,2.134-0.817,3.285l8.038,52.776c0.187,1.208,0.873,2.31,1.905,2.997c1.026,0.686,2.284,0.906,3.493,0.633
				l13.08-3.139l7.803-30.414c0.267-1.047,1.307-1.68,2.364-1.431l25.624,6.282c0.777,0.166,1.355,0.815,1.467,1.585l2.295,14.571
				l16.458-3.932v-6.602c0-0.701,0.297-1.375,0.817-1.841c0.523-0.471,1.222-0.689,1.912-0.607l20.432,2.419
				c0.578,0.055,1.033,0.37,1.425,0.77l39.238-9.352c3.492-0.824,6.378-3.19,7.919-6.437l24.339-51.812l-25.658-13.087
				L325.499,498.283L325.499,498.283z"/>
		</g>
	</g>
	<g id="g258">
		<g>
			<defs>
				<rect id="SVGID_5_" x="-13.181" y="88.418" width="658.904" height="635.648"/>
			</defs>
			<clipPath id="SVGID_6_">
				<use xlink:href="#SVGID_5_"  overflow="visible"/>
			</clipPath>
			<polygon id="polygon266" clip-path="url(#SVGID_6_)" fill="#FFFFFF" points="339.109,470.645 337.007,474.935 362.542,487.959 
				364.577,483.628 			"/>
		</g>
	</g>
	<g id="g268">
		<g>
			<defs>
				<rect id="SVGID_7_" x="-13.181" y="88.418" width="658.904" height="635.648"/>
			</defs>
			<clipPath id="SVGID_8_">
				<use xlink:href="#SVGID_7_"  overflow="visible"/>
			</clipPath>
			<polygon id="polygon276" clip-path="url(#SVGID_8_)" fill="#FFFFFF" points="348.35,451.875 347.498,453.595 372.661,466.409 
				374.699,462.095 349.616,449.303 			"/>
		</g>
	</g>
	<g id="g278">
		<g>
			<defs>
				<rect id="SVGID_9_" x="-13.181" y="88.418" width="658.904" height="635.648"/>
			</defs>
			<clipPath id="SVGID_10_">
				<use xlink:href="#SVGID_9_"  overflow="visible"/>
			</clipPath>
			<polygon id="polygon286" clip-path="url(#SVGID_10_)" fill="#FFFFFF" points="344.36,459.975 342.261,464.265 367.602,477.192 
				369.637,472.86 			"/>
		</g>
	</g>
	<g id="g288">
		<g>
			<defs>
				<rect id="SVGID_11_" x="-13.181" y="88.418" width="658.904" height="635.648"/>
			</defs>
			<clipPath id="SVGID_12_">
				<use xlink:href="#SVGID_11_"  overflow="visible"/>
			</clipPath>
			<path id="path296" inkscape:connector-curvature="0" clip-path="url(#SVGID_12_)" fill="#FFFFFF" d="M430.799,284.379
				l-61.053-131.545c-0.715-1.562-2.282-2.559-4-2.559H259.768c-2.446,0-4.422,1.98-4.422,4.422v86.14l-46.651-90.09
				c-27.796,10.789-53.435,25.593-76.117,43.723v160.283c0,2.433,1.967,4.422,4.406,4.422h60.18c2.421,0,4.406-1.987,4.406-4.422
				v-71.649l44.311,73.927c0.804,1.327,2.241,2.145,3.79,2.145h67.487c2.435,0,4.422-1.987,4.422-4.422V215.749l69.418,149.504
				l-8.304,16.844l-29.948,60.812l24.971,12.737l3.328-7.081l15.154-32.29l7.479-15.9l15.399-32.783l81.202-172.854
				c-5.994-4.799-12.196-9.337-18.603-13.655L430.799,284.379L430.799,284.379z"/>
		</g>
	</g>
	<g id="g298">
		<g>
			<defs>
				<rect id="SVGID_13_" x="-13.181" y="88.418" width="658.904" height="635.648"/>
			</defs>
			<clipPath id="SVGID_14_">
				<use xlink:href="#SVGID_13_"  overflow="visible"/>
			</clipPath>
			<path id="path306" inkscape:connector-curvature="0" clip-path="url(#SVGID_14_)" fill="#FFFFFF" d="M412.76,470.218
				c-22.303,0-40.373,6.119-40.373,13.654c0,7.509,18.072,13.614,40.373,13.614c22.276,0,40.369-6.105,40.369-13.614
				C453.129,476.337,435.036,470.218,412.76,470.218"/>
		</g>
	</g>
	<g id="g308">
		<g>
			<defs>
				<rect id="SVGID_15_" x="-13.181" y="88.418" width="658.904" height="635.648"/>
			</defs>
			<clipPath id="SVGID_16_">
				<use xlink:href="#SVGID_15_"  overflow="visible"/>
			</clipPath>
			<polygon id="polygon316" clip-path="url(#SVGID_16_)" fill="#F47D30" points="359.518,494.407 362.542,487.959 337.007,474.935 
				333.857,481.317 			"/>
		</g>
	</g>
	<g id="g318">
		<g>
			<defs>
				<rect id="SVGID_17_" x="-13.181" y="88.418" width="658.904" height="635.648"/>
			</defs>
			<clipPath id="SVGID_18_">
				<use xlink:href="#SVGID_17_"  overflow="visible"/>
			</clipPath>
			<path id="path326" inkscape:connector-curvature="0" clip-path="url(#SVGID_18_)" fill="#F47D30" d="M204.1,468.36
				c10.601-11.99,25.638,2.199,38.24-5.389c9.744-4.979,18.054,3.739,28.5,2.145c6.567-0.109,16.48-7.368,22.152,1.349
				c4.785,2.322,11.517,1.459,15.587-1.565c2.536-9.187,13.084-5.626,20.053-7.743c4.591-1.03,13.586-5.648,19.72-5.279l1.266-2.571
				l25.08,12.789l3.022-6.435l-24.955-12.751l29.948-60.817c-17.726-2.812-39.725,8.917-55.196,0.694
				c-17.814-0.55-38.557,0.619-54.343-7.734c-10.251-1.642-21.232-1.491-30.556-5.233c-4.998,9.365-10.628-3.056-16.622-1.243
				c-3.611,1.154-6.62,5.101-5.893,9.335c-1.844,9.704-13.642,4.029-19.713,8.111c-11.138,6.32-17.319-9.632-27.961-9.486
				c-7.255-1.974-15.91-1.087-19.939,6.318c-6.263,1.587-9.461-6.572-16.556-3.911c-4.932-3.061,2.19-5.171,0.379-8.87
				c-4.057-4.44-11.618-7.666-17.333-3.934c-1.046,7.604,7.095,14.162,2.798,22.136c-4.249,0.875-4.009-5.306-7.588-6.756
				c-4.086-1.972-4.251,3.013-6.437,4.936c-7.954-0.363-6.291-9.233-8.781-14.032c-9.239-1.437-16.631,4.221-24.249,7.57
				c-5.336,4.057-1.843,12.748-6.437,16.997c-3.561-2.677-3.195-7.812-6.715-11.005c-2.986-1.959-6.561-3.383-10.251-2.097
				c-3.411,0.825-4.395,3.657-5.11,6.643c0.084,1.786,1.882,3.195,3.831,2.686c2.295,0.537,4.057,3.226,2.985,5.48
				c-1.186,1.61-1.919,4.847-4.747,4.258c-3.031-2.876-7.266-6.905-11.535-5.158c-1.802,1.59-0.014,3.734-0.014,5.496
				c-1.939,6.529,2.848,10.279,6.38,14.898c1.197,5.103,1.706,12.554-2.205,16.266c-5.27,1.044-6.581,6.861-7.104,11.305
				c1.259,4.456,6.154,4.109,7.942,7.81c0.962,3.038-2.353,5.334-5.055,7.042c1.046,5.032,2.257,10.01,3.589,14.962
				c3.225-1.268,6.903-2.479,9.013-2.134c1.775,0.894,3.034,2.504,3.034,4.29c1.711,3.342,5.295,6.695,9.358,4.771
				c4.07-1.761,7.775-7.382,12.168-5.087v-37.103l18.996,16.668v19.225c7.054-0.167,15.092,0.55,21.595-2.074
				c12.911,0.959,28.32,4.509,39.526-2.86c9.927-1.779,19.105-5.13,29.763-5.105C191.002,465.667,197.341,468.859,204.1,468.36"/>
		</g>
	</g>
	<g id="g328">
		<g>
			<defs>
				<rect id="SVGID_19_" x="-13.181" y="88.418" width="658.904" height="635.648"/>
			</defs>
			<clipPath id="SVGID_20_">
				<use xlink:href="#SVGID_19_"  overflow="visible"/>
			</clipPath>
			<path id="path336" inkscape:connector-curvature="0" clip-path="url(#SVGID_20_)" fill="#F47D30" d="M425.274,388.196
				c7.122-9.406,25.354,1.857,27.691-12.684c2.835-7.575,11.332-4.751,16.641-8.491c1.607-2.807-1.211-4.758-1.762-7.238
				c6.958-7.593,16.339-12.858,23.79-20.626c5.336-5.281,13.667-4.084,20.569-4.214c3.191-1.926,7.84-4.772,8.514-8.47l-0.896-1.272
				c-9.751-1.423-20.311,0.322-29.373,3.292c-10.146,9.171-21.339,15.704-33.495,19.409c-8.278,10.526-25.535,15.455-37.872,19.699
				l-15.4,32.774C411.479,398.304,421.808,392.762,425.274,388.196"/>
		</g>
	</g>
	<g id="g338">
		<g>
			<defs>
				<rect id="SVGID_21_" x="-13.181" y="88.418" width="658.904" height="635.648"/>
			</defs>
			<clipPath id="SVGID_22_">
				<use xlink:href="#SVGID_21_"  overflow="visible"/>
			</clipPath>
			<polygon id="polygon346" clip-path="url(#SVGID_22_)" fill="#F47D30" points="369.637,472.844 372.661,466.409 347.498,453.595 
				344.375,459.975 			"/>
		</g>
	</g>
	<g id="g348">
		<g>
			<defs>
				<rect id="SVGID_23_" x="-13.181" y="88.418" width="658.904" height="635.648"/>
			</defs>
			<clipPath id="SVGID_24_">
				<use xlink:href="#SVGID_23_"  overflow="visible"/>
			</clipPath>
			<polygon id="polygon356" clip-path="url(#SVGID_24_)" fill="#F47D30" points="342.261,464.251 339.109,470.645 364.577,483.628 
				367.602,477.192 			"/>
		</g>
	</g>
	<g id="g358">
		<g>
			<defs>
				<rect id="SVGID_25_" x="-13.181" y="88.418" width="658.904" height="635.648"/>
			</defs>
			<clipPath id="SVGID_26_">
				<use xlink:href="#SVGID_25_"  overflow="visible"/>
			</clipPath>
			<path id="path366" inkscape:connector-curvature="0" clip-path="url(#SVGID_26_)" fill="#F47D30" d="M316.264,111.843
				c-169.009,0-306,131.806-306,294.417c0,162.592,136.991,294.407,306,294.407c169.002,0,306-131.817,306-294.407
				C622.266,243.649,485.266,111.843,316.264,111.843 M316.264,681.802c-158.613,0-287.167-123.359-287.167-275.542
				c0-85.151,40.252-161.241,103.472-211.788c22.689-18.137,48.341-32.927,76.138-43.72c33.229-12.883,69.518-20.056,107.557-20.056
				c61.626,0,118.646,18.689,165.414,50.383c6.409,4.326,12.597,8.856,18.591,13.662c55.045,44.14,92.542,107.646,101.192,179.624
				l-6.121,2.056c-3.63,13.627-19.307,4.591-25.946,14.278c-8.445,0.475-17.655,1.208-22.098,9.715
				c-2.695,0.832-6.571,0.832-7.618-2.508c1.816-7.812-10.945-10.508-5.06-18.827c-0.354-3.534-4.635-3.883-7.313-2.846
				c-5.61,2.085-6.051,8.141-6.709,13.057c-7.688,1.409-8.333-12.026-16.668-8.856c-8.522,8.118-19.306,11.839-31.557,9.688
				c-21.743-1.677-28.918,26.633-47.507,32.591c-7.977,1.237-19.969-3.355-28.657-6.439l-15.165,32.287l8.842-2.199
				c5.87-1.4,10.519-5.309,15.83-8.084c8.608,6.556,10.048-6.051,17.008-6.738c4.425-1.017,8.125,2.887,10.946,6.078
				c10.45,4.454,23.062,1.484,31.602-5.558c9.13-3.903,20.803-2.282,30.069-6.298c6.202-4.1,12.212-9.009,20.972-7.593
				c25.987-8.931,59.538-19.959,86.506-29.404c0.383,5.788,0.616,11.606,0.616,17.49
				C603.424,558.443,474.873,681.802,316.264,681.802"/>
		</g>
	</g>
	<g id="g368">
		<g>
			<defs>
				<rect id="SVGID_27_" x="-13.181" y="88.418" width="658.904" height="635.648"/>
			</defs>
			<clipPath id="SVGID_28_">
				<use xlink:href="#SVGID_27_"  overflow="visible"/>
			</clipPath>
			<path id="path376" inkscape:connector-curvature="0" clip-path="url(#SVGID_28_)" fill="#F47D30" d="M144.285,510.714
				l-27.417-24.694c-10.617-9.546-18.022-1.158-18.022,4.964v25.508c0,4.906,1.645,7.793,3.856,10.683l24.82,32.409
				c1.394,1.802,1.933,3.615,1.933,5.829v3.591c0,2.89-2.552,2.624-4.53,0.838l-5.37-4.577c-1.912-1.474-1.718-4.512-1.718-7.139
				v-3.271c0-1.775-1.871-4.897-3.755-6.435l-12.41-11.332c-1.871-1.813-2.826-0.3-2.826,4.538v14.795
				c0,3.852,2.545,11.634,8.333,16.857l28.402,25.563c6.896,6.145,12.858,0.183,12.858-14.039v-16.308
				c0-8.086-3.609-16.254-7.833-21.779l-20.892-27.189c0,0-1.877-2.487-1.877-5.662v-2.821c0,0,0.735-4.096,4-1.126l5.322,4.785
				c1.382,1.279,2.296,3.203,2.296,5.498v3.852c0,2.227,0.578,3.903,2.686,5.829l9.998,8.993c4.228,3.796,6.297,1.046,6.297-2.269
				v-15.329C148.436,515.637,145.996,512.251,144.285,510.714"/>
		</g>
	</g>
	<g id="g378">
		<g>
			<defs>
				<rect id="SVGID_29_" x="-13.181" y="88.418" width="658.904" height="635.648"/>
			</defs>
			<clipPath id="SVGID_30_">
				<use xlink:href="#SVGID_29_"  overflow="visible"/>
			</clipPath>
			<path id="path386" inkscape:connector-curvature="0" clip-path="url(#SVGID_30_)" fill="#F47D30" d="M190.618,616.416
				l-15.037-8.913v-74.981c0-0.852-0.454-1.663-1.21-2.09l-14.08-8.36c-0.763-0.44-1.693-0.469-2.467-0.014
				c-0.758,0.427-1.224,1.238-1.224,2.104v88.708c0,0.865,0.434,1.674,1.197,2.104l30.314,17.999
				c0.763,0.441,1.704,0.453,2.467,0.014c0.77-0.44,1.238-1.251,1.238-2.117v-12.351
				C191.816,617.654,191.347,616.868,190.618,616.416"/>
		</g>
	</g>
	<g id="g388">
		<g>
			<defs>
				<rect id="SVGID_31_" x="-13.181" y="88.418" width="658.904" height="635.648"/>
			</defs>
			<clipPath id="SVGID_32_">
				<use xlink:href="#SVGID_31_"  overflow="visible"/>
			</clipPath>
			<path id="path396" inkscape:connector-curvature="0" clip-path="url(#SVGID_32_)" fill="#F47D30" d="M246.989,571.794
				l-2.31-14.575c-0.109-0.768-0.688-1.405-1.464-1.597l-25.626-6.269c-1.058-0.249-2.097,0.37-2.364,1.417l-7.805,30.43
				l-13.502,52.69c-0.27,1.003,0.295,2.037,1.3,2.366l15.092,4.895c0.523,0.151,1.087,0.11,1.562-0.137
				c0.466-0.273,0.804-0.715,0.95-1.238l3.897-15.413l20.654,6.722l2.985,18.729c0.103,0.715,0.626,1.318,1.327,1.542l15.786,5.144
				c0.646,0.22,1.359,0.078,1.882-0.362c0.523-0.467,0.763-1.122,0.667-1.784L246.989,571.794L246.989,571.794z M220.91,607.752
				l7.844-30.924l5.603,35.314L220.91,607.752L220.91,607.752z"/>
		</g>
	</g>
	<g id="g398">
		<g>
			<defs>
				<rect id="SVGID_33_" x="-13.181" y="88.418" width="658.904" height="635.648"/>
			</defs>
			<clipPath id="SVGID_34_">
				<use xlink:href="#SVGID_33_"  overflow="visible"/>
			</clipPath>
			<path id="path406" inkscape:connector-curvature="0" clip-path="url(#SVGID_34_)" fill="#F47D30" d="M331.299,566.516
				l-14.08-1.666c-0.701-0.082-1.382,0.148-1.91,0.592c-0.537,0.469-0.832,1.143-0.832,1.841v49.214l-25.953-53.903
				c-0.126-0.232-0.325-0.397-0.503-0.591c-0.384-0.387-0.847-0.716-1.425-0.766l-20.418-2.41c-0.701-0.096-1.409,0.124-1.923,0.594
				c-0.523,0.467-0.818,1.141-0.818,1.842v6.602v87.359c0,1.22,0.902,2.282,2.108,2.431l14.096,1.925
				c0.701,0.11,1.407-0.111,1.932-0.577c0.53-0.453,0.838-1.127,0.838-1.842v-57.055l30.725,59.885
				c0.441,0.882,1.354,1.403,2.312,1.353l15.716-0.952c1.295-0.066,2.309-1.156,2.309-2.431V568.95
				C333.473,567.698,332.536,566.651,331.299,566.516"/>
		</g>
	</g>
	<g id="g408">
		<g>
			<defs>
				<rect id="SVGID_35_" x="-13.181" y="88.418" width="658.904" height="635.648"/>
			</defs>
			<clipPath id="SVGID_36_">
				<use xlink:href="#SVGID_35_"  overflow="visible"/>
			</clipPath>
			<path id="path416" inkscape:connector-curvature="0" clip-path="url(#SVGID_36_)" fill="#F47D30" d="M385.587,557.7
				l-39.396,7.851c-1.153,0.235-1.98,1.238-1.98,2.422v88.552c0,0.718,0.345,1.389,0.896,1.873c0.553,0.469,1.293,0.66,1.982,0.523
				l38.498-6.864c18.978-3.392,18.978-14.809,18.978-17.257v-69.493C404.565,565.305,404.565,553.922,385.587,557.7
				 M385.587,627.444c0,0,0,8.349-7.398,9.664l-14.989,2.698v-59.57l14.121-2.835c8.265-1.633,8.265,6.049,8.265,6.049v43.994
				H385.587z"/>
		</g>
	</g>
	<g id="g418">
		<g>
			<defs>
				<rect id="SVGID_37_" x="-13.181" y="88.418" width="658.904" height="635.648"/>
			</defs>
			<clipPath id="SVGID_38_">
				<use xlink:href="#SVGID_37_"  overflow="visible"/>
			</clipPath>
			<path id="path426" inkscape:connector-curvature="0" clip-path="url(#SVGID_38_)" fill="#F47D30" d="M453.378,531.203
				c-0.564-0.358-1.281-0.397-1.9-0.109l-35.503,17.395c-0.672,0.317-1.1,1.019-1.1,1.747v89.201c0,0.674,0.346,1.307,0.896,1.649
				c0.566,0.374,1.266,0.395,1.869,0.137l35.52-15.979c0.701-0.314,1.151-1.019,1.151-1.788v-12.611c0-0.66-0.343-1.263-0.907-1.617
				c-0.562-0.386-1.25-0.44-1.857-0.167l-14.92,6.726c-0.605,0.262-1.293,0.217-1.873-0.153c-0.549-0.356-0.892-0.978-0.892-1.634
				v-16.873c0-0.797,0.453-1.48,1.141-1.789l18.15-8.18c0.701-0.314,1.155-1.002,1.155-1.779v-12.675
				c0-0.686-0.345-1.307-0.935-1.675c-0.563-0.345-1.281-0.388-1.9-0.084l-14.797,7.245c-0.603,0.293-1.318,0.247-1.896-0.096
				c-0.578-0.372-0.921-0.989-0.921-1.665v-18.043c0-0.738,0.43-1.441,1.087-1.757l18.263-8.927
				c0.672-0.345,1.097-1.019,1.097-1.761v-13.089C454.313,532.191,453.97,531.56,453.378,531.203"/>
		</g>
	</g>
	<g id="g428">
		<g>
			<defs>
				<rect id="SVGID_39_" x="-13.181" y="88.418" width="658.904" height="635.648"/>
			</defs>
			<clipPath id="SVGID_40_">
				<use xlink:href="#SVGID_39_"  overflow="visible"/>
			</clipPath>
			<path id="path436" inkscape:connector-curvature="0" clip-path="url(#SVGID_40_)" fill="#F47D30" d="M496.25,560.23
				c0,0,11.111-8.29,11.111-23.377v-23.36c0-12.403-7.936-13.56-16.97-7.316l-29.619,20.435c-0.535,0.356-0.853,0.959-0.853,1.621
				v88.18c0,0.72,0.4,1.376,1.049,1.729c0.657,0.35,1.428,0.32,2.03-0.121l15.073-10.217c0.523-0.37,0.853-0.976,0.853-1.608
				v-34.021l3.108-2.143l16.529,21.613c0.633,0.827,1.788,1.02,2.668,0.441l11.025-7.506c0.441-0.304,0.745-0.771,0.825-1.293
				c0.082-0.553-0.056-1.102-0.384-1.517L496.25,560.23L496.25,560.23z M490.392,539.975c0,3.207-1.868,6.933-4.152,8.5
				l-4.247,2.944c-0.605,0.413-1.375,0.468-2.021,0.137c-0.662-0.356-1.046-1.014-1.046-1.761V534.12
				c0-0.633,0.302-1.237,0.854-1.597l6.174-4.262c2.463-1.704,4.438-0.055,4.438,2.581V539.975L490.392,539.975L490.392,539.975z"/>
		</g>
	</g>
	<g id="g438">
		<g>
			<defs>
				<rect id="SVGID_41_" x="-13.181" y="88.418" width="658.904" height="635.648"/>
			</defs>
			<clipPath id="SVGID_42_">
				<use xlink:href="#SVGID_41_"  overflow="visible"/>
			</clipPath>
			<path id="path446" inkscape:connector-curvature="0" clip-path="url(#SVGID_42_)" fill="#F47D30" d="M537.723,458.282
				l-19.114,21.108c-4.897,5.501-6.021,11.357-6.021,18.098v8.979c0,6.295,1.279,11.921,9.432,13.625l10.453,2.364
				c3.38,0.745,5.251,1.679,5.251,4.128v2.282c0,3.684-0.852,4.606-2.419,6.176c-1.542,1.526-5.116,5.213-5.116,0.605v-3.922
				c0-3.271-1.376-3.271-3.454-1.184l-12.059,12.406c-1.428,1.315-2.09,2.855-2.09,5.386v7.922c0,14.222,7.353,16.997,14.852,7.124
				l18.091-23.872c7.424-9.804,7.424-19.635,7.424-25.271c0-6.766-5.771-9.543-9.954-10.271l-8.826-1.526
				c-3.15-0.577-3.986-2.752-3.986-5.774v-4.843c0-1.457,0-5.292,2.57-7.974l1.774-1.816c1.857-1.896,3.191-1.896,3.191,1.538v6.946
				c0,1.416,0.799,2.271,2.074,0.95l11.055-11.442c1.885-1.937,2.104-4.949,2.104-6.996v-11.593
				C552.961,449.415,544.71,450.571,537.723,458.282"/>
		</g>
	</g>
	<g id="g448">
		<g>
			<defs>
				<rect id="SVGID_43_" x="-13.181" y="88.418" width="658.904" height="635.648"/>
			</defs>
			<clipPath id="SVGID_44_">
				<use xlink:href="#SVGID_43_"  overflow="visible"/>
			</clipPath>
			<path id="path456" inkscape:connector-curvature="0" clip-path="url(#SVGID_44_)" fill="#F47D30" d="M73.854,477.397v50.794
				l13.461,19.348c3.367,4.843,5.535,3.673,5.535-0.507v-70.832C86.781,477.835,79.645,475.844,73.854,477.397"/>
		</g>
	</g>
	<g id="g458">
		<g>
			<defs>
				<rect id="SVGID_45_" x="-13.181" y="88.418" width="658.904" height="635.648"/>
			</defs>
			<clipPath id="SVGID_46_">
				<use xlink:href="#SVGID_45_"  overflow="visible"/>
			</clipPath>
			<path id="path466" inkscape:connector-curvature="0" clip-path="url(#SVGID_46_)" fill="#F47D30" d="M453.129,506.246v-22.388
				c0,7.536-18.093,13.628-40.369,13.628c-22.303,0-40.373-6.092-40.373-13.628v22.388c0,7.536,18.072,13.628,40.373,13.628
				C435.036,519.874,453.129,513.782,453.129,506.246"/>
		</g>
	</g>
	<g id="g488">
		<g>
			<defs>
				<rect id="SVGID_47_" x="-13.181" y="88.418" width="658.904" height="635.648"/>
			</defs>
			<clipPath id="SVGID_48_">
				<use xlink:href="#SVGID_47_"  overflow="visible"/>
			</clipPath>
			<path id="path496" inkscape:connector-curvature="0" clip-path="url(#SVGID_48_)" fill="#00539B" d="M92.843,476.202v-19.224
				l-18.989-16.668v37.086C79.649,475.844,86.794,477.835,92.843,476.202"/>
		</g>
	</g>
	<g id="g498">
		<g>
			<defs>
				<rect id="SVGID_49_" x="-13.181" y="88.418" width="658.904" height="635.648"/>
			</defs>
			<clipPath id="SVGID_50_">
				<use xlink:href="#SVGID_49_"  overflow="visible"/>
			</clipPath>
			<path id="path506" inkscape:connector-curvature="0" clip-path="url(#SVGID_50_)" fill="#00539B" d="M602.793,388.767
				c-26.949,9.461-60.502,20.487-86.491,29.405c-8.761-1.417-14.77,3.492-20.97,7.59c-9.267,4.016-20.943,2.395-30.074,6.3
				c-8.54,7.04-21.149,10.01-31.597,5.556c-2.819-3.205-6.52-7.093-10.948-6.078c-6.958,0.689-8.399,13.296-16.992,6.738
				c-5.325,2.777-9.957,6.684-15.844,8.086l-8.842,2.2l-3.312,7.095l-3.024,6.435l-2.035,4.333l-3.024,6.435l-2.035,4.331
				l-3.04,6.438l-2.021,4.315l-3.026,6.464l-24.339,51.811c-1.542,3.248-4.454,5.612-7.919,6.438l-39.252,9.352
				c0.198,0.189,0.397,0.356,0.509,0.575l25.967,53.931v-49.228c0-0.689,0.294-1.377,0.825-1.841
				c0.523-0.459,1.218-0.689,1.902-0.607l14.087,1.677c1.238,0.135,2.173,1.183,2.173,2.419v89.009c0,1.307-1.017,2.378-2.326,2.464
				l-15.694,0.921c-0.969,0.066-1.878-0.466-2.323-1.336l-30.713-59.896v57.063c0,0.701-0.311,1.375-0.848,1.842
				c-0.53,0.466-1.236,0.688-1.937,0.591l-14.082-1.925c-1.21-0.179-2.125-1.227-2.125-2.433v-87.371l-16.453,3.931l13.041,82.549
				c0.096,0.66-0.144,1.359-0.66,1.784c-0.537,0.452-1.245,0.578-1.891,0.386l-15.786-5.142c-0.701-0.232-1.225-0.841-1.332-1.553
				l-2.969-18.729l-20.661-6.723l-3.897,15.398c-0.137,0.522-0.479,0.978-0.955,1.251c-0.466,0.245-1.03,0.3-1.554,0.138
				l-15.103-4.909c-0.982-0.315-1.546-1.336-1.293-2.354l13.516-52.69l-13.098,3.139c-1.194,0.274-2.462,0.053-3.477-0.633
				c-1.025-0.688-1.718-1.788-1.898-2.997l-8.042-52.776c-0.181-1.153,0.116-2.364,0.817-3.285c0.702-0.95,1.773-1.578,2.942-1.747
				l131.884-18.148c3.883-0.536,7.218-2.958,8.942-6.466l8.376-16.968l3.134-6.382l2.118-4.29l3.136-6.394l2.102-4.275l3.147-6.38
				l0.841-1.706c-6.136-0.384-15.155,4.234-19.717,5.267c-6.975,2.102-17.521-1.443-20.056,7.741
				c-4.08,3.022-10.795,3.891-15.588,1.567c-5.671-8.719-15.587-1.46-22.145-1.348c-10.451,1.58-18.756-7.125-28.5-2.145
				c-12.602,7.588-27.646-6.602-38.247,5.374c-6.757,0.523-13.104-2.679-20.371-2.186c-10.642-0.03-19.83,3.325-29.756,5.101
				c-11.209,7.383-26.609,3.81-39.535,2.859c-6.492,2.627-14.548,1.898-21.588,2.077v70.828c0,4.196-2.166,5.35-5.535,0.496
				l-13.461-19.331v-50.778c-4.395-2.282-8.093,3.326-12.163,5.071c-4.071,1.938-7.646-1.414-9.377-4.756
				c0-1.786-1.238-3.369-3.011-4.306c-2.12-0.315-5.804,0.895-9.013,2.149c-1.354-4.952-2.552-9.93-3.591-14.962
				c2.705-1.692,5.996-3.99,5.053-7.042c-1.802-3.712-6.69-3.354-7.954-7.81c0.537-4.443,1.83-10.261,7.108-11.305
				c3.913-3.698,3.41-11.139,2.193-16.28c-3.534-4.611-8.306-8.353-6.375-14.891c0-1.747-1.789-3.885,0.027-5.486
				c4.263-1.748,8.504,2.291,11.517,5.148c2.846,0.592,3.575-2.647,4.758-4.235c1.073-2.268-0.701-4.943-2.986-5.494
				c-1.939,0.507-3.76-0.902-3.831-2.675c0.704-2.985,1.707-5.829,5.11-6.661c3.678-1.282,7.266,0.144,10.251,2.108
				c3.52,3.182,3.157,8.326,6.718,11c4.593-4.244,1.099-12.94,6.435-16.995c7.604-3.349,15.009-9.016,24.249-7.577
				c2.49,4.82,0.818,13.689,8.788,14.039c2.179-1.933,2.35-6.917,6.437-4.943c3.575,1.451,3.333,7.634,7.588,6.759
				c4.278-7.954-3.856-14.528-2.805-22.132c5.708-3.732,13.276-0.507,17.333,3.927c1.814,3.705-5.308,5.815-0.379,8.867
				c7.095-2.661,10.279,5.521,16.542,3.919c4.032-7.412,12.707-8.298,19.939-6.325c10.665-0.137,16.846,15.83,27.97,9.493
				c6.079-4.068,17.87,1.59,19.713-8.111c-0.722-4.242,2.295-8.168,5.898-9.322c5.982-1.828,11.62,10.587,16.631,1.222
				c9.303,3.748,20.304,3.591,30.554,5.238c15.772,8.353,36.522,7.186,54.32,7.727c15.485,8.223,37.484-3.506,55.198-0.688
				l8.289-16.839l-69.414-149.511v139.02c0,2.433-1.972,4.406-4.406,4.406h-67.503c-1.553,0-2.992-0.818-3.773-2.138l-44.316-73.911
				v71.64c0,2.435-1.974,4.408-4.406,4.408h-60.167c-2.453,0-4.427-1.974-4.427-4.408V194.463
				C69.352,245.017,29.099,321.107,29.099,406.251c0,152.178,128.553,275.551,287.176,275.551
				c158.586,0,287.152-123.373,287.152-275.551C603.424,400.38,603.177,394.555,602.793,388.767 M148.443,536.622
				c0,3.298-2.076,6.062-6.311,2.243l-9.996-8.982c-2.108-1.923-2.687-3.618-2.687-5.843v-3.837c0-2.31-0.914-4.222-2.284-5.515
				l-5.322-4.787c-3.278-2.944-4.013,1.142-4.013,1.142v2.805c0,3.203,1.875,5.692,1.875,5.692l20.894,27.173
				c4.235,5.526,7.846,13.696,7.846,21.78v16.308c0,14.205-5.976,20.196-12.872,14.055l-28.388-25.591
				c-5.804-5.226-8.34-12.992-8.34-16.857v-14.785c0-4.838,0.951-6.337,2.835-4.534l12.387,11.327
				c1.892,1.525,3.76,4.674,3.76,6.437v3.271c0,2.638-0.18,5.679,1.731,7.136l5.363,4.58c1.971,1.786,4.523,2.064,4.523-0.853
				v-3.577c0-2.197-0.523-4.011-1.933-5.829l-24.807-32.422c-2.213-2.862-3.865-5.749-3.865-10.658v-25.51
				c0-6.145,7.398-14.521,18.013-4.959l27.427,24.679c1.706,1.541,4.16,4.925,4.16,10.564v15.348H148.443z M191.806,630.857
				c0,0.894-0.461,1.688-1.238,2.129c-0.756,0.441-1.704,0.441-2.46-0.024l-30.321-17.97c-0.742-0.457-1.197-1.257-1.197-2.108
				V524.18c0-0.896,0.468-1.692,1.231-2.134c0.77-0.427,1.697-0.427,2.474,0.025l14.082,8.347c0.75,0.454,1.197,1.249,1.197,2.104
				v74.979l15.035,8.929c0.749,0.427,1.194,1.238,1.194,2.104L191.806,630.857L191.806,630.857z M404.565,634.802
				c0,2.433,0,13.86-18.988,17.243l-38.489,6.892c-0.704,0.107-1.43-0.07-1.996-0.536c-0.551-0.484-0.866-1.17-0.866-1.885v-88.555
				c0-1.183,0.813-2.186,1.969-2.407l39.383-7.84c18.988-3.78,18.988,7.593,18.988,7.593V634.802z M372.385,506.263v-22.391
				c0-7.535,18.072-13.654,40.373-13.654c22.275,0,40.357,6.119,40.357,13.654v22.391c0,7.533-18.082,13.623-40.357,13.623
				C390.457,519.886,372.385,513.793,372.385,506.263 M454.313,545.943c0,0.742-0.441,1.428-1.112,1.762l-18.246,8.938
				c-0.672,0.315-1.071,0.989-1.071,1.759v18.012c0,0.689,0.328,1.322,0.904,1.679c0.578,0.358,1.293,0.399,1.896,0.082
				l14.797-7.234c0.608-0.299,1.32-0.273,1.901,0.101c0.573,0.368,0.934,0.989,0.934,1.663v12.675c0,0.771-0.44,1.476-1.169,1.791
				l-18.121,8.164c-0.703,0.306-1.142,1.007-1.142,1.788v16.89c0,0.628,0.328,1.264,0.874,1.622
				c0.566,0.356,1.269,0.427,1.873,0.137l14.907-6.711c0.604-0.274,1.32-0.22,1.868,0.155c0.551,0.37,0.907,0.973,0.907,1.645
				v12.584c0,0.786-0.441,1.484-1.167,1.788l-35.492,15.977c-0.605,0.287-1.318,0.237-1.871-0.11
				c-0.578-0.37-0.907-0.986-0.907-1.674v-89.185c0-0.743,0.411-1.419,1.1-1.764l35.503-17.365c0.604-0.292,1.32-0.263,1.896,0.097
				c0.577,0.356,0.934,0.989,0.934,1.665v13.077h0.005V545.943z M512.261,584.581l-11.03,7.494c-0.878,0.595-2.035,0.4-2.668-0.436
				l-16.529-21.606l-3.104,2.163v33.991c0,0.648-0.334,1.252-0.854,1.638l-15.085,10.218c-0.592,0.411-1.389,0.452-2.021,0.123
				c-0.633-0.356-1.046-1.019-1.046-1.733v-88.21c0-0.645,0.314-1.233,0.852-1.608l29.619-20.432c9.034-6.231,16.97-5.076,16.97,7.3
				v23.375c0,15.085-11.11,23.362-11.11,23.362l16.446,21.559c0.329,0.427,0.466,0.962,0.382,1.512
				C513.001,583.814,512.7,584.282,512.261,584.581 M552.948,473.025c0,2.045-0.192,5.046-2.076,6.997l-11.067,11.439
				c-1.281,1.32-2.079,0.468-2.079-0.948v-6.946c0-3.436-1.317-3.436-3.188-1.54l-1.774,1.816c-2.57,2.677-2.57,6.517-2.57,7.975
				v4.842c0,3.022,0.839,5.211,4.014,5.761l8.801,1.54c4.183,0.727,9.945,3.509,9.945,10.258c0,5.663,0,15.469-7.414,25.287
				l-18.082,23.886c-7.506,9.858-14.863,7.095-14.863-7.136v-7.922c0-2.526,0.662-4.068,2.09-5.389l12.074-12.405
				c2.062-2.09,3.434-2.09,3.434,1.186v3.934c0,4.591,3.575,0.906,5.116-0.633c1.579-1.54,2.422-2.446,2.422-6.158v-2.282
				c0-2.451-1.885-3.381-5.252-4.125l-10.452-2.364c-8.171-1.706-9.432-7.33-9.432-13.628v-8.966c0-6.768,1.126-12.61,6.021-18.111
				l19.114-21.108c6.982-7.714,15.224-8.865,15.224,3.15v11.592H552.948L552.948,473.025z"/>
		</g>
	</g>
	<g id="g508">
		<g>
			<defs>
				<rect id="SVGID_51_" x="-13.181" y="88.418" width="658.904" height="635.648"/>
			</defs>
			<clipPath id="SVGID_52_">
				<use xlink:href="#SVGID_51_"  overflow="visible"/>
			</clipPath>
			<polygon id="polygon516" clip-path="url(#SVGID_52_)" fill="#00539B" points="234.35,612.143 228.749,576.828 220.903,607.752 
							"/>
		</g>
	</g>
	<g id="g518">
		<g>
			<defs>
				<rect id="SVGID_53_" x="-13.181" y="88.418" width="658.904" height="635.648"/>
			</defs>
			<clipPath id="SVGID_54_">
				<use xlink:href="#SVGID_53_"  overflow="visible"/>
			</clipPath>
			<path id="path526" inkscape:connector-curvature="0" clip-path="url(#SVGID_54_)" fill="#00539B" d="M255.348,154.697
				c0-2.435,1.974-4.422,4.422-4.422h105.962c1.734,0,3.301,0.996,4.016,2.565l61.053,131.539l50.877-103.308
				c-46.752-31.693-103.802-50.383-165.405-50.383c-38.041,0-74.344,7.17-107.572,20.069l46.65,90.087L255.348,154.697
				L255.348,154.697L255.348,154.697z"/>
		</g>
	</g>
	<g id="g528">
		<g>
			<defs>
				<rect id="SVGID_55_" x="-13.181" y="88.418" width="658.904" height="635.648"/>
			</defs>
			<clipPath id="SVGID_56_">
				<use xlink:href="#SVGID_55_"  overflow="visible"/>
			</clipPath>
			<path id="path536" inkscape:connector-curvature="0" clip-path="url(#SVGID_56_)" fill="#00539B" d="M456.953,347.9
				c12.17-3.707,23.335-10.251,33.498-19.402c9.072-2.983,19.621-4.717,29.37-3.308l0.907,1.279c-0.69,3.698-5.336,6.53-8.525,8.463
				c-6.902,0.137-15.235-1.06-20.569,4.208c-7.453,7.775-16.832,13.054-23.79,20.64c0.549,2.467,3.355,4.44,1.775,7.225
				c-5.32,3.762-13.817,0.914-16.652,8.506c-2.337,14.548-20.574,3.28-27.696,12.684c-3.465,4.566-13.806,10.115-21.588,12.168
				l-7.48,15.91c8.689,3.067,20.679,7.687,28.655,6.437c18.591-5.955,25.771-34.274,47.523-32.582
				c12.236,2.138,23.02-1.562,31.545-9.704c8.332-3.168,8.995,10.279,16.668,8.856c0.66-4.902,1.099-10.966,6.722-13.038
				c2.652-1.058,6.944-0.694,7.299,2.825c-5.887,8.326,6.877,11.012,5.062,18.824c1.032,3.356,4.922,3.356,7.606,2.511
				c4.456-8.491,13.655-9.226,22.125-9.701c6.612-9.704,22.303-0.646,25.935-14.281l6.133-2.07
				c-8.661-71.964-46.161-135.486-101.187-179.61l-81.199,172.84C431.405,363.351,448.66,358.433,456.953,347.9"/>
		</g>
	</g>
	<g id="g538">
		<g>
			<defs>
				<rect id="SVGID_57_" x="-13.181" y="88.418" width="658.904" height="635.648"/>
			</defs>
			<clipPath id="SVGID_58_">
				<use xlink:href="#SVGID_57_"  overflow="visible"/>
			</clipPath>
			<path id="path546" inkscape:connector-curvature="0" clip-path="url(#SVGID_58_)" fill="#00539B" d="M485.94,528.262
				l-6.174,4.262c-0.539,0.359-0.841,0.962-0.841,1.624v15.661c0,0.73,0.413,1.389,1.046,1.731s1.428,0.29,2.021-0.126l4.263-2.941
				c2.282-1.581,4.128-5.295,4.128-8.5v-9.13C490.383,528.207,488.416,526.558,485.94,528.262"/>
		</g>
	</g>
	<g id="g548">
		<g>
			<defs>
				<rect id="SVGID_59_" x="-13.181" y="88.418" width="658.904" height="635.648"/>
			</defs>
			<clipPath id="SVGID_60_">
				<use xlink:href="#SVGID_59_"  overflow="visible"/>
			</clipPath>
			<path id="path556" inkscape:connector-curvature="0" clip-path="url(#SVGID_60_)" fill="#00539B" d="M377.324,577.418
				l-14.107,2.818v59.57l14.976-2.698c7.382-1.317,7.382-9.666,7.382-9.666v-44.001
				C385.577,583.439,385.577,575.769,377.324,577.418"/>
		</g>
	</g>
</g>
</svg>
