<?xml version="1.0" encoding="utf-8"?>
<!-- Generator: Adobe Illustrator 16.0.4, SVG Export Plug-In . SVG Version: 6.00 Build 0)  -->
<!DOCTYPE svg PUBLIC "-//W3C//DTD SVG 1.1//EN" "http://www.w3.org/Graphics/SVG/1.1/DTD/svg11.dtd">
<svg version="1.1" id="Layer_2" xmlns="http://www.w3.org/2000/svg" xmlns:xlink="http://www.w3.org/1999/xlink" x="0px" y="0px" viewBox="23.082 54.741 565.832 682.513"
	 enable-background="new 23.082 54.741 565.832 682.513" xml:space="preserve">
<g>
	<path stroke="#FFFFFF" stroke-width="2" stroke-miterlimit="10" d="M434.197,303.141l-67.771-92.834l-22.123,10.374
		c0,0-8.139-4.597-40.224-9.134l15.935-16.009v-36.699h-11.357c7.222-9.65,8.404-24.485,8.404-37.091
		c0-12.603-0.266-41.486,36.76-66.006H208.024c-85.667,28.852-90.252,157.528-82.647,244.564l21.105-8.188
		c0,0-14.013,31.557-7.386,48.593c-9.783,23.009-6.524,44.933,2.953,61.542l-10.636,14.965l2.362,67.55c0,0-1.335,1.868-2.561,3.544
		c-2.855,3.905-9.967,9.959-35.549,14.671c-28.307,5.218-34.755,11.049-37.613,22.945c-2.87,11.939-28.676,20.688-31.28,21.497
		c0,0-2.691,7.848-2.691,16.903c0,36.114,45.383,59.281,98.175,79.66c55.771,21.531,123.972,39.093,147.197,69.894
		c28.523,14.328,61.253,22.372,97.05,22.372c126.101,0,221.409-104.442,221.409-222.635
		C587.916,415.196,523.662,332.984,434.197,303.141z"/>
	<path fill="#E4173E" d="M140.604,270.369c0,0-10.931-159.143,66.531-191.438l11.193,71.57l2.362-75.359l95.582,0.13
		c-10.451,6.633-13.984,14.734-16.018,23.764c-4.3,19.072-0.854,43.852-8.73,57.245l-72.867-0.066L140.604,270.369z"/>
	<path fill="#E4173E" d="M69.185,546.081l6.694,12.54l-6.007,6.305l97.581,44.705c-66.237-42.277-94.858-59.345-94.858-76.808
		c0-16.444,39.026-10.636,60.786-26.192c5.777,34.727-43.719,35.776-43.719,35.776l81.401,44.901
		c39.52,37.879,85.208,50.087,85.208,50.087c9.846,11.423,11.816,21.664,11.816,21.664s-48.841-30.132-73.655-33.48
		c0,0,15.504,7.585,33.677,17.333c29.215,15.672,65.983,38.995,61.248,60.855c-41.331-58.522-245.381-76.842-245.381-136.48
		C43.976,551.2,66.162,551.2,69.185,546.081z"/>
	<path fill="#E4173E" d="M361.569,694.312c11.487-35.31,36.546-55.054,67.878-78.051c28.67-21.047,55.079-40.857,55.079-80.089
		c-1.183-4.139-32.791-16.84-36.336-17.823c0,0,20.088,16.641,20.088,23.533c0,6.894-44.408,32.789-44.408,32.789
		s4.421-5.575,10.042-12.31c7.761-9.304,17.428-21.197,17.428-27.081c0-8.173-15.262-10.733-20.021-27.735
		c0,0-4.142,6.359-8.171,15.167c-4.254,9.287-8.403,21.187-8.403,26.914l7.746,54.026l-21.463-2.495
		C399.076,602.749,361.267,638.439,361.569,694.312z"/>
	<polygon fill="#D69F0F" points="392.423,585.996 400.299,565.514 404.763,587.833 	"/>
	<path fill="#D69F0F" d="M234.087,403.239l124.729-43.064l63.277,37.024l0.528,5.774c0,0-2.379-2.068-6.483-4.314
		c-6.599-3.617-17.541-8.093-29.359-8.093c-7.155,0.032-14.221,4.032-19.366,8.799c-6.14,5.685-9.814,12.078-9.814,12.078
		s-7.977-20.153-44.016-20.153C279.709,391.291,234.087,403.239,234.087,403.239z"/>
	<path fill="#D69F0F" d="M199.032,383.019l6.105,18.971l164.966-66.304l65.121,56.916l-1.518-25.232
		c-0.799,0.32-1.71,0.548-2.685,0.548c-6.957,0-20.218-8.796-20.218-8.796l2.492-2.1c0,0,9.062,3.149,12.736,3.149
		c1.94,0,4.839-0.805,7.146-1.563l-1.5-24.956l-71.388-99.738l-15.923,5.733c0,0-36.172-14.573-68.862-14.573
		c-54.202,0-116.915,52.91-116.915,108.053l34.66,2.362l94.925-71.29l-95.712,94.53c0,0-7.484-16.543-21.27-16.543
		c-5.958,0.15-20.185,9.887-20.185,32.69c0,19.825,9.419,30.59,9.419,30.59l-10.962,15.23c4.626,92.93,3.23,136.579-28.817,127.088
		l46.609,22.714c0,0-0.917-59.869-0.917-76.674c0-30.767,2.515-33.988,6.302-33.873c10.284,0,13.064,53.815,14.261,88.378
		c0.692,20.015,1.428,35.496,1.428,35.496s37.354,41.031,103.787,46.805c-57.605-40.618-51.044-89.797-46.741-123.018
		c1.979-15.279,4.084-31.214,7.876-48.711c-52.91-0.525-53.306-29.934-53.306-37.55c0-7.617,1.134-11.521,1.134-11.521
		c-2.313,1.609-13.079,10.013-26.798,5.943C199.095,407.703,199.032,383.019,199.032,383.019z M227.716,297.776l-39.188,26.095
		l-21.76-0.689c0-5.059,2.463-48.547,61.836-76.412c-4.935,3.302-9.208,7.175-13.586,10.731
		c-10.737,8.724-26.882,24.419-26.882,32.592C188.133,300.141,201.229,303.884,227.716,297.776z M407.227,314.78
		c0.493,0,13.292,11.161,13.292,27.277c0,4.332,2.495,8.009,2.495,8.009l-0.788,1.707c0,0-3.02-1.707-4.069-1.707
		s-2.494,1.315-5.909,1.315c-3.414,0-10.108-4.202-17.33-12.341c0,0,0.917-0.658,2.103-0.658c1.18,0,6.826,5.647,10.637,5.647
		c3.81,0,2.757-2.102,8.006-1.707c0,0-1.312-3.94-1.312-6.697c0-11.504-7.484-18.054-7.484-19.3
		C406.865,315.008,407.227,314.78,407.227,314.78z M381.919,314.803c0.384,0,6.172,6.408,9.552,6.408
		c1.927,0,2.72-0.885,4.727-0.885c0,0-0.182-0.758-0.146-1.725c0.19-3.138,1.096-4.458,1.18-6.844
		c0.106-2.991-3.271-11.441-3.363-11.718c-0.378-1.122,0.142-4.118,0.592-3.608c1.707,2.048,8.4,12.736,8.4,19.955
		c0,3.423-0.291,5.151-0.395,8.075c-0.104,2.924,1.56,5.857,1.56,5.857l-0.564,1.525c0,0-2.339-3.247-6.279-3.247
		c-4.259,0-5.955-0.888-8.418-3.152c-2.463-2.264-7.978-9.627-7.96-10.042C380.806,315.124,381.065,314.803,381.919,314.803z
		 M347.948,263.214c0,0-4.626,4.923-4.626,18.611c0,21.036,11.089,34.17,23.533,34.17c1.869,0,8.367-1.281,8.367-1.281
		s-3.346,8.568-13.686,8.568c-13.589,0-28.162-18.512-28.162-34.366C333.375,270.404,347.948,263.214,347.948,263.214z
		 M297.071,316.946c0-2.535-0.165-3.046-0.165-5.22s1.799-6.939,2.887-9.125c1.408-2.823,9.832-11.724,12.015-13.261
		c0.574-0.378,0.954,2.396,0.441,3.314c-0.127,0.228-1.604,1.73-3.003,3.939c-1.725,2.72-3.423,6.417-3.423,9.01
		c0,2.068,1.156,2.881,1.254,5.612c0,0.836-0.458,1.624-0.458,1.624c2.674,0,3.833,2.036,7.155,2.036
		c8.565,0,14.146-5.186,15.755-5.186c0.459,0,1.509,0.245,1.509,0.92c0,0.361-3.939,3.397-9.191,6.4
		c-4.514,2.584-10.021,5.22-14.573,5.22c-5.808,0-5.22-1.116-7.417-1.116c-2.2,0-5.056,2.166-5.056,2.166l-1.56-0.271
		C293.25,323.008,297.071,319.481,297.071,316.946z M269.797,337.065c0.384-0.871,0.799-6.244,1.774-9.979
		c0.773-2.962,1.996-4.182,3.085-6.368c2.714-5.451,13.252-12.75,15.658-14.443c0.574-0.378,0.741,0.955,0.23,1.872
		c-0.352,0.632-5.808,4.969-8.862,10.997c-1.387,2.74-1.872,5.913-1.872,9.091c0,2.428-0.525,4.366-0.525,4.366
		c3.914,0,6.769,3.544,9.388,3.544c8.565,0,17.89-5.234,19.496-5.234c0.458,0,2.376,0.386,2.376,1.058
		c0,0.672-17.344,11.297-27.19,11.297c-5.808,0-9.552-2.232-11.749-2.232c-2.198,0-3.611,1.382-3.611,1.382l-0.984-1.315
		C267.008,341.103,269.11,338.628,269.797,337.065z M239.633,348.439c0.935-1.427,3.187-10.16,6.432-14.622
		c1.315-1.806,8.955-7.199,9.454-7.551c0.557-0.395,1.575,0.623,0.92,1.442c-0.657,0.822-2.725,2.2-4.366,5.647
		c-1.641,3.446-1.805,7.351-2.495,8.96s-1.771,2.921-1.771,2.921c7.352,0,5.208,7.187,19.695,7.187
		c2.757,0,16.641-2.166,16.641-2.166l4.332,2.855c0,0-14.278,6.599-27.571,6.599c-12.012,0-15.952-6.204-22.648-6.105
		c-0.885,0-4.727,0.787-4.727,0.787l-0.591-0.689C232.937,353.706,238.699,349.867,239.633,348.439z M204.021,364.573
		c0,0,3.331-0.879,4.136-4.986c2.036-10.406,7.943-10.7,11.193-13.754c0.707-0.608,1.188,0.314,0.788,0.738
		c-0.935,0.983-1.575,2.904-1.575,3.593c0,0.689,0.542,2.806,0.542,3.842c0,2.855-3.201,5.416-3.201,5.416
		c7.556,0,5.832,5.416,16.938,5.416c2.659,0,3.544-0.395,4.825-0.395c1.281,0,4.433,0.689,7.778,4.087
		c-7.778,0.983-10.486,3.593-19.003,3.593c-14.08,0-14.475-6.154-20.875-6.154c-0.64,0-0.75,0.407-1.367,0.407
		c-0.617,0-1.096-0.222-1.096-0.9C203.101,364.798,204.021,364.573,204.021,364.573z M173.693,409.408
		c-10.57,0-15.493-16.151-15.493-16.151s4.793,7.637,11.202,7.637c4.603,0,17.16-10.484,17.16-27.07
		c0-10.308-2.365-14.706-2.365-14.706s9.191,11.17,9.191,21.074C193.385,398.717,180.081,409.408,173.693,409.408z"/>
	<path fill="#D69F0F" d="M165.026,259.866l3.219,14.639c6.235-10.045,44.31-62.168,117.374-61.805l10.469-10.947l-54.782-0.015
		l-46.707,37.449l41.276-48.429l66.875-0.009v-19.308h-72.815L165.026,259.866z"/>
	<path fill="#D69F0F" d="M455.684,332.924l-0.099,71.362c32.197,26.501,51.979,65.4,51.979,109.581
		c0,61.167-37.126,111.894-93.599,133.783c-12.061,20.016-22.334,47.814-13.274,66.05
		c98.863-20.562,167.134-100.398,167.134-199.784C567.828,434.608,523.432,367.382,455.684,332.924z M542.259,460.42
		c0,0,1.038,2.705,1.459,6.798c0.471,4.562,1.064,9.843-1.932,15.357c-0.689,1.269-2.144,2.451-2.896,3.833
		c-2.29,4.211-1.621,7.36-1.621,7.36s-1.243-3.796-3.022-5.062c-1.776-1.264-2.642-1.103-7.21-4.929
		c-5.783-4.846-8.107-18.694-8.107-18.694c4.747,0.337,8.295,8.654,13.941,7.858C537.482,472.291,537.788,461.94,542.259,460.42z
		 M531.011,432.125c0,0,1.463,2.507,2.535,6.475c1.197,4.43,2.633,9.546,0.56,15.47c-0.476,1.364-1.722,2.763-2.241,4.251
		c-1.583,4.522-0.415,7.521-0.415,7.521s-1.837-3.547-3.795-4.51c-1.959-0.961-2.786-0.661-7.908-3.703
		c-6.486-3.854-11.006-17.151-11.006-17.151c4.742-0.427,9.581,7.213,15.023,5.517C528.205,444.61,526.844,434.346,531.011,432.125z
		 M457.348,367.526c0,0,27.899,10.109,27.899,17.988c0,3.02-1.84,4.594-4.464,4.594
		C471.854,390.108,457.348,367.526,457.348,367.526z M476.893,397.97c4.332-1.97,11.424,3.646,16,0.245
		c3.741-2.771-0.934-12.015,2.265-15.484c0,0,2.209,1.883,4.53,5.275c2.59,3.787,5.636,8.142,5.636,14.417
		c0,1.444-0.713,3.178-0.713,4.75c0,4.793,2.094,7.238,2.094,7.238s-2.906-2.739-5.072-3.002c-2.166-0.266-2.847,0.294-8.689-0.889
		C485.547,409.03,476.893,397.97,476.893,397.97z M494.756,417.729c4.608-1.188,10.622,5.568,15.718,3.014
		c4.159-2.085,1.157-11.992,4.909-14.855c0,0,1.852,2.234,3.547,5.979c1.897,4.176,4.145,8.992,3.058,15.176
		c-0.251,1.422-1.252,3.005-1.523,4.557c-0.83,4.721,0.805,7.489,0.805,7.489s-2.385-3.198-4.473-3.836
		c-2.091-0.631-2.855-0.198-8.407-2.376C501.366,430.121,494.756,417.729,494.756,417.729z M434.016,676.271
		c-2.774,7.375-32.445,7.02-32.445,7.02s21.526-16.035,29.882-12.892C433.912,671.322,435.077,673.442,434.016,676.271z
		 M457.356,663.79c-0.554,1.477-0.496,3.345-1.007,4.697c-2.209,5.878-6.59,8.88-10.351,11.511
		c-3.366,2.358-6.094,3.346-6.094,3.346c-1.774-4.376,5.852-11.378,3.328-15.292c-3.089-4.79-11.704-2.033-15.066-5.401
		c0,0,11.994-7.306,19.441-6.103c5.886,0.952,6.324,1.713,8.447,2.229c2.119,0.516,5.806-1.027,5.806-1.027
		S459.04,659.305,457.356,663.79z M484.356,643.988c-0.286,1.549,0.104,3.38-0.156,4.802c-1.133,6.175-4.911,9.906-8.145,13.162
		c-2.896,2.919-5.407,4.375-5.407,4.375c-2.521-3.994,3.74-12.236,0.562-15.64c-3.891-4.168-11.873,0.075-15.781-2.642
		c0,0,10.507-9.318,18.051-9.457c5.959-0.106,6.529,0.562,8.707,0.695c2.181,0.133,5.528-2.039,5.528-2.039
		S485.219,639.275,484.356,643.988z M505.654,625.778c0.044,6.278-2.973,10.65-5.54,14.455c-2.301,3.411-4.496,5.306-4.496,5.306
		c-3.225-3.449,1.388-12.718-2.367-15.467c-4.601-3.368-11.651,2.293-15.998,0.353c0,0,8.583-11.115,15.966-12.661
		c5.834-1.223,6.518-0.666,8.684-0.943c2.166-0.279,5.053-3.04,5.053-3.04s-2.076,2.464-2.045,7.254
		C504.919,622.605,505.646,624.333,505.654,625.778z M519.674,615.422c-1.736,3.729-3.602,5.949-3.602,5.949
		c-3.727-2.898-0.635-12.781-4.776-14.901c-5.076-2.599-11.146,4.101-15.744,2.87c0,0,6.723-12.33,13.771-15.021
		c5.569-2.123,6.33-1.688,8.427-2.302c2.094-0.614,4.508-3.795,4.508-3.795s-1.661,2.757-0.877,7.484
		c0.26,1.554,1.249,3.146,1.485,4.57C523.899,606.467,521.609,611.263,519.674,615.422z M534.749,586.977
		c-0.983,3.994-2.389,6.532-2.389,6.532c-4.216-2.125-3.08-12.418-7.553-13.705c-5.479-1.574-10.152,6.169-14.899,5.844
		c0,0,4.226-13.394,10.628-17.388c5.056-3.155,5.89-2.873,7.827-3.879c1.936-1.007,3.691-4.592,3.691-4.592s-1.102,3.025,0.583,7.51
		c0.551,1.477,1.828,2.844,2.336,4.199C537.174,577.379,535.848,582.523,534.749,586.977z M544.661,558.324
		c-0.343,4.098-1.333,6.823-1.333,6.823c-4.498-1.437-4.997-11.778-9.618-12.341c-5.661-0.692-9.053,7.691-13.791,8.119
		c0,0,2.062-13.893,7.752-18.848c4.499-3.91,5.364-3.764,7.118-5.062c1.754-1.301,2.928-5.116,2.928-5.116s-0.612,3.158,1.756,7.325
		c0.778,1.37,2.252,2.523,2.968,3.778C545.541,548.461,545.042,553.75,544.661,558.324z M537.696,524.748
		c-5.766,0-10.438-4.77-10.438-10.659c0-5.886,4.672-10.656,10.438-10.656c5.765,0,10.438,4.771,10.438,10.656
		C548.134,519.976,543.461,524.748,537.696,524.748z"/>
	<path fill="#FFFFFF" d="M405.651,424.211l11.421,5.119l-1.673-18.215c0,0-21.284-20.257-38.303-5.711
		c-5.416,4.626-22.057,25.57-22.057,25.57c-7.939-16.116-25.962-26.273-50.71-26.854c-11.827-0.273-25.896,1.742-42.539,5.682
		c-20.558,4.859-35.909,10.896-35.909,10.896s-3.282,3.741-3.282,9.584c0,18.247,30.395,18.38,35.251,18.38
		c4.857,0,12.407-0.329,12.407-0.329l-7.484,33.48l28.425,3.972c0,0-22.187,46.641-22.187,83.798c0,2.645,1.58,10.022,5.185,13.653
		c3.017,3.25,15.695,15.815,25.997,25.01c3.02,2.696,6.144,5.402,8.765,7.436c1.996,1.549,3.709,2.65,4.825,3.396
		c2.351,1.575,4.635,2.362,6.431,2.362c15.52,0,25.798-2.304,32.823-4.332c3.493-1.009,10.308-3.994,11.998-5.811
		c1.949-2.094,2.578-7.369,2.578-8.237c0-6.305-1.707-16.938-25.734-16.938c-24.026,0-33.907,8.929-33.907,8.929l5.318-17.33
		c0,0,1.317-2.175,6.105-3.842c4.055-1.41,10.593-2.361,21.073-2.361c9.059,0,25.108,1.868,25.108,1.868l-1.18-15.458l-9.652,1.773
		l-22.254-3.446l-48.12,1.382l-2.232-1.903l58.623-10.899l12.9,2.855l10.637-2.561l-5.711-5.515l-6.402,2.757l-1.18-13.096
		l-35.254-5.809l27.672-9.947l17.526,6.896l13.292-6.402l-14.575-56.913l5.612-17.33L405.651,424.211z M338.33,460.48l-23.303-3.152
		l12.34-9.782l-15.781-4.456c0,0-4.479,7.608-12.505,7.608c-10.685,0-13.86-11.818-13.86-11.818l-56.126-7.285l65.236-10.686
		l53.188,21.518L338.33,460.48z"/>
	<path fill="#FFFFFF" d="M391.964,547.299l-3.25-7.585l-9.847-11.225l12.9-10.734l-7.729-16.295l-8.816-28.41l5.317-19.202
		c0,0,3.446,5.514,8.863,5.514c8.173,0,10.733-11.913,10.733-11.913l10.931-2.201l-2.89,10.241c0,0,9.618,18.611,9.618,25.472
		l-11.651,19.363L391.964,547.299z"/>
	<polygon fill="#FFFFFF" points="334.286,673.215 342.532,644.781 315.059,640.942 303.145,651.576 	"/>
</g>
</svg>
