<?xml version="1.0" encoding="utf-8"?>
<!-- Generator: Adobe Illustrator 16.0.4, SVG Export Plug-In . SVG Version: 6.00 Build 0)  -->
<!DOCTYPE svg PUBLIC "-//W3C//DTD SVG 1.1//EN" "http://www.w3.org/Graphics/SVG/1.1/DTD/svg11.dtd">
<svg version="1.1" id="Cup_Patch" xmlns="http://www.w3.org/2000/svg" xmlns:xlink="http://www.w3.org/1999/xlink" x="0px" y="0px" viewBox="0 0 58.388 40.601" enable-background="new 0 0 58.388 40.601" xml:space="preserve">
<g>
	<path fill="#FFFFFF" d="M0.765,0.695h39.04c0,0,9.781-0.432,15.322,8.916c5.539,9.349,0.605,17.312-0.779,19.65
		c-1.385,2.337-6.145,7.616-14.717,7.616c-8.568,0-13.242-5.625-14.455-6.751l-5.887,9.781h-8.656c0,0-10.561,0.087-9.867-11.686
		h2.942c0,0-3.374-4.156-2.942-9.004h3.029c-1-0.836-3.563-4.496-3.029-9.261h3.029C3.794,9.958,0.591,6.756,0.765,0.695z"/>
	<path d="M0.765,0.695v0.692H39.82l0.016-0.001l0.037-0.001l0.133-0.001c0.654-0.001,3.084,0.086,5.939,1.203
		c2.857,1.12,6.135,3.247,8.586,7.377c1.838,3.106,2.471,6.018,2.473,8.616c0,4.97-2.342,8.798-3.252,10.328
		c-0.633,1.073-2.113,2.916-4.449,4.46c-2.34,1.547-5.529,2.815-9.672,2.816c-4.131-0.001-7.301-1.35-9.609-2.842
		c-1.154-0.747-2.09-1.529-2.811-2.195c-0.727-0.671-1.223-1.21-1.564-1.529l-0.625-0.58l-6.124,10.177h-8.266v0.692l0.01-0.692
		h-0.016c-0.082,0.004-2.459-0.023-4.723-1.27c-1.135-0.622-2.24-1.535-3.074-2.902c-0.832-1.37-1.402-3.209-1.404-5.734
		c0-0.337,0.01-0.686,0.031-1.046l-0.691-0.041v0.692h4.396l-0.916-1.129L4.22,27.754c-0.295-0.36-2.816-3.772-2.801-7.667
		c0-0.267,0.012-0.536,0.035-0.807l-0.689-0.062v0.692h4.937l-1.464-1.224c-0.159-0.132-0.444-0.435-0.75-0.859
		c-0.932-1.282-2.106-3.671-2.103-6.574c0-0.396,0.021-0.803,0.068-1.219L0.765,9.958v0.692h4.7L4.283,9.469l-0.19,0.19L4.284,9.47
		L4.283,9.469l-0.19,0.19L4.284,9.47C4.264,9.447,1.448,6.58,1.45,1.17c0-0.149,0.002-0.302,0.007-0.454L0.765,0.695v0.692V0.695
		L0.073,0.675C0.068,0.842,0.065,1.007,0.065,1.17c0.003,6.01,3.168,9.208,3.238,9.277l0.49-0.489V9.266H0.146L0.077,9.881
		C0.024,10.349,0,10.808,0,11.254c0.001,2.186,0.58,4.087,1.278,5.544c0.35,0.729,0.729,1.348,1.087,1.843
		c0.36,0.495,0.69,0.861,0.984,1.109l0.444-0.531v-0.692H0.132l-0.057,0.631c-0.027,0.313-0.041,0.623-0.041,0.93
		c0.002,2.388,0.789,4.517,1.564,6.055c0.777,1.538,1.549,2.49,1.57,2.518l0.538-0.437V27.53H0.112l-0.039,0.651
		C0.051,28.569,0.04,28.945,0.04,29.31c-0.002,2.733,0.629,4.85,1.605,6.454c1.469,2.412,3.678,3.623,5.507,4.223
		c1.835,0.602,3.317,0.613,3.474,0.614v-0.201l-0.003,0.201h0.003v-0.201l-0.003,0.201h0.007h9.051l6.088-10.116l-0.594-0.357
		l-0.471,0.508c0.264,0.243,0.807,0.829,1.566,1.53c2.283,2.113,6.695,5.407,13.359,5.405c4.43,0.001,7.906-1.37,10.436-3.047
		c2.533-1.681,4.127-3.646,4.877-4.909c0.91-1.54,3.445-5.632,3.445-11.033c0.002-2.825-0.701-6.009-2.666-9.322
		c-2.623-4.428-6.195-6.761-9.273-7.961C43.369,0.095,40.775,0.001,40.005,0c-0.143,0-0.223,0.003-0.232,0.004l0.031,0.691V0.003
		H0.093l-0.02,0.672L0.765,0.695z"/>
	<path d="M2.323,2.34h37.569c0,0,10.682-0.689,15.146,10.733c4.5,11.513-6.145,19.477-6.145,19.477s-12.725,8.917-23.123-4.338
		l5.887-9.695l0.008,0.344c0,4.488,3.637,8.124,8.123,8.124c4.488,0,8.125-3.636,8.125-8.124c0-4.487-3.637-8.124-8.125-8.124
		c-4.744-0.261-7.428,4.067-8.9,6.665C29.417,19.998,18.337,38.35,18.337,38.35h-7.878c0,0-7.79-0.692-8.05-8.569h10.82
		c0,0,1.559-0.086,0-0.519c0,0-9.955,1.211-10.82-8.57h16.014c0,0,1.299-0.173,0-0.605h-7.964c0,0-8.05-0.78-8.05-8.657h21.553
		c0,0,1.646-0.346,0-0.605H10.72C10.72,10.823,2.756,10.823,2.323,2.34z"/>
	<circle fill="#E87D24" cx="39.78" cy="18.88" r="4.774"/>
</g>
</svg>
