<?xml version="1.0" encoding="utf-8"?>
<!-- Generator: Adobe Illustrator 16.0.4, SVG Export Plug-In . SVG Version: 6.00 Build 0)  -->
<!DOCTYPE svg PUBLIC "-//W3C//DTD SVG 1.1//EN" "http://www.w3.org/Graphics/SVG/1.1/DTD/svg11.dtd">
<svg version="1.1"
	 id="svg2610" xmlns:sodipodi="http://sodipodi.sourceforge.net/DTD/sodipodi-0.dtd" xmlns:svg="http://www.w3.org/2000/svg" xmlns:dc="http://purl.org/dc/elements/1.1/" xmlns:cc="http://creativecommons.org/ns#" xmlns:rdf="http://www.w3.org/1999/02/22-rdf-syntax-ns#" xmlns:inkscape="http://www.inkscape.org/namespaces/inkscape" inkscape:version="0.48.2 r9819" sodipodi:docname="AJAX.svg"
	 xmlns="http://www.w3.org/2000/svg" xmlns:xlink="http://www.w3.org/1999/xlink" x="0px" y="0px" viewBox="0 0 204.925 192.044" enable-background="new 0 0 204.925 192.044" xml:space="preserve">
<sodipodi:namedview  guidetolerance="10" showgrid="false" fit-margin-left="0" inkscape:zoom="2.8284271" inkscape:cy="81.681828" bordercolor="#666666" pagecolor="#ffffff" inkscape:cx="118.60435" fit-margin-top="0" objecttolerance="10" gridtolerance="10" showguides="true" borderopacity="1" id="namedview115" inkscape:window-maximized="1" inkscape:current-layer="layer1" fit-margin-bottom="0" fit-margin-right="0" inkscape:window-y="-8" inkscape:window-x="-8" inkscape:pageopacity="0" inkscape:window-width="1280" inkscape:pageshadow="2" inkscape:window-height="1004" inkscape:guide-bbox="true">
	</sodipodi:namedview>
<g id="layer1" transform="translate(-263.25179,-233.48282)">
	<g id="g8" transform="matrix(1.25,0,0,1.25,439.60941,308.78163)">
		<path id="path10" inkscape:connector-curvature="0" fill="#FFFFFF" d="M1.128,0C0.873,0.381,0.421,1.041,0,1.653
			c1.112,0.374,2.263,0.811,3.4,1.28c1.175,0.484,3.002,1.143,4.982,1.826C8.356,3.885,8.325,2.885,8.309,2.383
			C7.204,2.012,2.304,0.398,1.128,0z"/>
	</g>
	<g id="g16" transform="matrix(1.25,0,0,1.25,263.25179,232.50475)">
		<path id="path18" inkscape:connector-curvature="0" fill="#FFFFFF" d="M163.473,65.749c-0.843,1.97-3.323,3.815-3.885,4.227
			c0.007,0.447-0.095,0.993-0.295,1.597c-0.443,1.304-2.399,3.266-6.315,2.605c-3.925-0.65-5.45-1.302-5.45-1.302
			s-1.955,4.781-6.307,3.043c0,0-0.654,5.877-3.919,7.618c-3.263,1.738-25.69,9.564-25.69,9.564s-0.223,0.487-0.795,0.992
			l-4.846,8.43l0.643,3.63c0,0,3.917,4.569,3.917,7.835l-2.829,1.302h-0.597c0.271,0.842,0.588,1.843,0.757,2.352
			c0.959,0,3.86,0,3.86,0v3.216H95.42l-19.312,33.56l-21.212-36.014c-2.073,1.772-4.233,2.86-5.87,2.86l-3.948,0.009H6.332
			l6.648-11.965h35.806c0.262,0,0.5-0.008,0.739-0.024L0,25.216h25.439c1.897-1.898,3.24-3.241,3.24-3.241s2.829-2.835,3.916-5.877
			c1.09-3.045,2.178-5.871,6.53-8.7c4.354-2.821,7.182-4.346,10.02-5.657C51.973,0.438,55.89,0,59.154,3.479
			c3.266,3.482,5.004,5.006,6.094,6.094c1.088,1.09,3.264,6.094,9.58,3.48c6.308-2.605,15.674-7.609,21.554-7.396
			c5.871,0.223,15.667,5.434,18.932,9.137c0,0,2.606-2.298,5.441-1.962c2.391,0.293,3.488,2.835,5.664,7.182
			c0,0,5.006,1.302,5.006,4.139c0,0,0.119-0.031,0.293-0.016c0.096-0.104,0.184-0.2,0.285-0.302c1.098-1.097,1.757-1.757,2.495-2.25
			c0.167-0.111,0.35-0.182,0.541-0.245c-0.157-0.414-0.374-1.223,0.207-1.669c0.786-0.619,2.652-1.311,4.614,0.397
			c1.694,1.479,1.741,2.067,1.741,2.067s1.43,1.707,0.604,3.081h8.246l-27.518,47.827c0.069,0.302,0.15,0.611,0.222,0.921
			c0,0,3.48,1.302,4.568,2.605c0,0,3.042,0,4.576-0.214c1.517-0.214,1.74-0.214,1.954-1.09c0.223-0.874,0.223-1.738-0.214-3.257
			c-0.437-1.525-1.09-9.136,0.874-10.01c0.579-0.26,1.342-0.326,2.223-0.245c0.008-0.898,0.024-2.018,0.024-2.574
			c-0.914-0.302-3.661-1.216-3.661-1.216l1.009-3.059l29.432,9.74L163.473,65.749z"/>
	</g>
	<g id="g20" transform="matrix(1.25,0,0,1.25,384.95941,376.61763)">
		<path id="path22" inkscape:connector-curvature="0" fill="#FFFFFF" d="M1.256,0L0,2.177c1.932,0,4.321,0,5.125,0
			C5.261,1.693,5.522,0.779,5.744,0H1.256z"/>
	</g>
	<g id="g24" transform="matrix(1.25,0,0,1.25,454.96191,313.97575)">
		<path id="path26" inkscape:connector-curvature="0" fill="#FFFFFF" d="M1.399,0C1.094,0.421,0.506,1.222,0,1.923
			c1.278,0.422,2.461,0.811,3.423,1.119c-0.198-1.025-0.412-2.105-0.5-2.533C2.414,0.342,1.986,0.198,1.399,0z"/>
	</g>
	<g id="g28" transform="matrix(1.25,0,0,1.25,365.65441,376.61763)">
		<path id="path30" inkscape:connector-curvature="0" fill="#FFFFFF" d="M22.333,0l-0.937,3.28h-9.168L11.027,0H9.192l-1.04,3.28
			H5.094L3.234,0H1.995C1.479,0.747,0.135,2.828,0,4.474h28.697V3.447H25.13L24.033,0H22.333z"/>
	</g>
	<g id="g32" transform="matrix(1.25,0,0,1.25,431.86316,302.87338)">
		<path id="path34" inkscape:connector-curvature="0" fill="#FFFFFF" d="M3.343,5.617C3.9,5.72,4.487,5.865,5.1,6.037l1.779-2.612
			l8.708,2.883l0.102,3.561c0.565,0.189,1.137,0.381,1.7,0.572l2.068-2.854l2.907,0.962l0.738,3.764
			c0.578,0.191,0.969,0.318,1.081,0.35c0.007,0,0.007,0.009,0.016,0.009c0.676-0.493,2.709-2.09,3.376-3.656L0.317,0L0,0.971
			L3.383,2.09L3.343,5.617z"/>
	</g>
	<g id="g36" transform="matrix(1.25,0,0,1.25,325.76404,256.42925)">
		<path id="path38" inkscape:connector-curvature="0" fill="#FFFFFF" d="M23.73,55.252c2.511,1.596,4.988,3.06,7.42,4.371
			c5.029-5.277,16.008-16.82,24.635-25.875c-2.644-3.488-5.83-7.206-9.636-11.115C24.168,0,8.984,12.95,6.316,17.192
			C0,27.201,4.575,43.073,23.73,55.252z"/>
	</g>
	<g id="g40" transform="matrix(1.25,0,0,1.25,373.22316,305.23788)">
		<path id="path42" inkscape:connector-curvature="0" fill="#FFFFFF" d="M0,23.984c13.021,5.912,23.506,7.197,26.907,3.321
			C30.267,23.459,30.45,13.839,21.536,0C14.062,8.348,5.02,18.424,0,23.984z"/>
	</g>
	<g id="g44" transform="matrix(1.25,0,0,1.25,286.58804,260.24038)">
		<path id="path46" inkscape:connector-curvature="0" fill="#FFFFFF" d="M1.954,9.79C0.214,11.751,0,17.408,0,17.408L14.149,5.221
			L8.485,15.66c0,0,9.579-4.346,10.446-6.523c0,0-1.961-4.782-6.308-9.137C12.624,0,3.702,7.835,1.954,9.79z"/>
	</g>
	<g id="g48" transform="matrix(1.25,0,0,1.25,453.81816,320.05363)">
		<path id="path50" inkscape:connector-curvature="0" fill="#FFFFFF" d="M1.788,0.254C0.739,0.509,0,1.19,0.143,1.772
			c0.134,0.588,1.105,0.85,2.152,0.604c1.059-0.254,1.797-0.937,1.653-1.518C3.813,0.27,2.836,0,1.788,0.254z"/>
	</g>
	<g id="g52" transform="matrix(1.25,0,0,1.25,368.53441,370.44013)">
		<path id="path54" inkscape:connector-curvature="0" fill="#FFFFFF" d="M0.374,2.885c0.374,0.469,1.367,0.317,2.215-0.35
			c0.852-0.659,1.248-1.588,0.876-2.057C3.098,0,2.105,0.152,1.248,0.818C0.398,1.487,0,2.417,0.374,2.885z"/>
	</g>
	<g id="g56" transform="matrix(1.25,0,0,1.25,309.81679,245.3465)">
		<path id="path58" inkscape:connector-curvature="0" fill="#FFFFFF" d="M2.851,5.561C2.716,4.004,4.488,2.914,5.299,1.557
			C4.488,0.469,3.058,0,1.905,0.611C1.7,3.797,0.745,6.72,0,9.637c1.628,1.223,1.223-1.898,2.995-1.962
			c1.016-0.352,1.555,0.604,2.169,1.214c0.34,0.883,0.135,2.043-0.541,2.79l1.628-0.143c0.675-0.811,0.883-2.034,0.548-3.052
			C6.323,6.649,4.146,6.513,2.851,5.561z"/>
	</g>
	<g id="g60" transform="matrix(1.25,0,0,1.25,413.80941,250.211)">
		<path id="path62" inkscape:connector-curvature="0" fill="#FFFFFF" d="M2.93,3.649C2.581,2.504,2.002,1.43,1.359,0.286
			C0.928,0,0,0.072,0.151,0.859C1,1.716,1.359,3.862,2.93,3.649z"/>
	</g>
	<g id="g64" transform="matrix(1.25,0,0,1.25,409.33941,250.847)">
		<path id="path66" inkscape:connector-curvature="0" fill="#FFFFFF" d="M6.437,6.713C4.79,4.497,3.29,2.209,1.502,0
			C0.858,0,0.145,0.35,0,1.066c1.716,1.857,3.727,3.718,5.22,5.569C5.506,6.921,6.078,7.43,6.437,6.713z"/>
	</g>
	<g id="g68" transform="matrix(1.25,0,0,1.25,405.40816,253.34088)">
		<path id="path70" inkscape:connector-curvature="0" fill="#FFFFFF" d="M6.649,7.792C7.077,8.071,8.158,8.071,8.016,7.22L2.145,0.5
			C1.357,0,0.429,0.5,0,1.286C2.215,3.502,4.79,5.219,6.649,7.792z"/>
	</g>
	<g id="g72" transform="matrix(1.25,0,0,1.25,401.92191,256.378)">
		<path id="path74" inkscape:connector-curvature="0" fill="#FFFFFF" d="M8.581,5.928L2.716,0.931C1.789,0,0.428,0.145,0,1.575
			c2.646,2.001,5.569,3.28,8.008,5.711C8.731,7.358,8.938,6.437,8.581,5.928z"/>
	</g>
	<g id="g76" transform="matrix(1.25,0,0,1.25,411.76316,260.56988)">
		<path id="path78" inkscape:connector-curvature="0" fill="#FFFFFF" d="M8.008,5.29c1-1.5,3.504-1.357,2.86-3.574
			C10.724,0.723,9.359,0,8.15,0.293C3.718,3.218,0.563,7.722,0,12.37c0.635,0.714,1.494,0.786,2.423,0.786
			C4.362,10.717,5.355,7.578,8.008,5.29z"/>
	</g>
	<g id="g80" transform="matrix(1.25,0,0,1.25,399.49816,260.75913)">
		<path id="path82" inkscape:connector-curvature="0" fill="#FFFFFF" d="M8.517,6.499c0.5-0.072,1.216-0.859,0.714-1.502
			C6.371,3.353,3.728,1.144,0.645,0C0.145,0.493,0,1.216,0.072,1.93L8.517,6.499z"/>
	</g>
	<g id="g84" transform="matrix(1.25,0,0,1.25,397.97816,265.48575)">
		<path id="path86" inkscape:connector-curvature="0" fill="#FFFFFF" d="M8.375,5.292c0.5-0.145,1.072-0.788,0.572-1.217
			C6.301,2.718,3.718,1.002,0.867,0C0.509,0.43,0,1.216,0.437,1.573C3.297,2.438,5.651,4.147,8.375,5.292z"/>
	</g>
	<g id="g88" transform="matrix(1.25,0,0,1.25,417.12691,267.0055)">
		<path id="path90" inkscape:connector-curvature="0" fill="#FFFFFF" d="M0,8.08c0.42,0.993,1.207,0.993,2.209,0.707
			c2.859-1.566,4.868-4.642,5.44-7.858C7.57,0.428,6.935,0.142,6.505,0C3.503,2.002,1.643,5.139,0,8.08z"/>
	</g>
	<g id="g92" transform="matrix(1.25,0,0,1.25,429.46941,267.90875)">
		<path id="path94" inkscape:connector-curvature="0" fill="#FFFFFF" d="M0,0.5l3.209,5.641C3.083,3.797,2.065,1.819,0.698,0
			C0.532,0.031,0.374,0.057,0.214,0.062L0,0.5z"/>
	</g>
	<g id="g96" transform="matrix(1.25,0,0,1.25,427.40316,270.31238)">
		<path id="path98" inkscape:connector-curvature="0" fill="#FFFFFF" d="M4.434,6.714C4.504,4.218,2.146,2.217,0.858,0L0,1.716
			l3.432,5.139C3.727,6.792,4.218,7,4.434,6.714z"/>
	</g>
	<g id="g100" transform="matrix(1.25,0,0,1.25,396.90566,269.50788)">
		<path id="path102" inkscape:connector-curvature="0" fill="#FFFFFF" d="M7.373,2.995C5.007,1.93,2.719,0.714,0.217,0L0,0.644
			C1.867,2.709,4.513,3.073,7.373,2.995z"/>
	</g>
	<g id="g104" transform="matrix(1.25,0,0,1.25,425.08066,275.3185)">
		<path id="path106" inkscape:connector-curvature="0" fill="#FFFFFF" d="M0,0.928c1.286,1.495,1.286,4.211,3.288,4.569
			c0.5-2.073-1-3.997-2.216-5.496C0.572,0,0.07,0.421,0,0.928z"/>
	</g>
	<g id="g108" transform="matrix(1.25,0,0,1.25,421.95066,279.16)">
		<path id="path110" inkscape:connector-curvature="0" fill="#FFFFFF" d="M0.065,0C0,2.138,1.574,4.068,2.574,5.918L3.79,6.142
			c0.286-2.361-1.502-4.004-2.36-5.856L0.065,0z"/>
	</g>
	<g id="g112" transform="matrix(1.25,0,0,1.25,410.32191,279.337)">
		<path id="path114" inkscape:connector-curvature="0" fill="#FFFFFF" d="M0,1.138c0.128,0.469,0.176,1.081,0.39,1.518
			c0.565-0.383,1.304-0.55,2.026-0.493C2.059,1.241,1.477,0,0.216,0.279L0,1.138z"/>
	</g>
	<g id="g116" transform="matrix(1.25,0,0,1.25,415.68441,280.49175)">
		<path id="path118" inkscape:connector-curvature="0" fill="#FFFFFF" d="M6.087,8.294l0.069-2.225
			C5.434,3.923,4.727,1.93,2.941,0.214C2.074,0.286,0.358,0,0,1C0.867,3.859,2.655,8.078,6.087,8.294z"/>
	</g>
	<g id="g120" transform="matrix(1.25,0,0,1.25,344.27478,326.12176)">
		<path id="path122" inkscape:connector-curvature="0" fill="#FFFFFF" d="M2.439,4.862C2.146,3.36,2.574,1.573,1.581,0.357
			C1.216,0,0.581,0.215,0.5,0.724C0,2.073,0.43,3.646,1.216,4.79C1.581,5.148,2.002,5.148,2.439,4.862z"/>
	</g>
	<g id="g124" transform="matrix(1.25,0,0,1.25,348.83166,326.48788)">
		<path id="path126" inkscape:connector-curvature="0" fill="#FFFFFF" d="M2.433,7.499C1.867,5.133,3.442,1.28,0.867,0
			C0,1.638,0.724,4.347,0.653,6.571C0.653,7.43,1.716,7.858,2.433,7.499z"/>
	</g>
	<g id="g128" transform="matrix(1.25,0,0,1.25,336.23154,325.49426)">
		<path id="path130" inkscape:connector-curvature="0" fill="#FFFFFF" d="M6.069,7.437C4.567,5.506,6.729,0,2.645,1.226
			C0,3.655,4.147,5.221,4.647,7.652C5.005,7.794,5.862,8.008,6.069,7.437z"/>
	</g>
	<g id="g132" transform="matrix(1.25,0,0,1.25,353.22379,327.55238)">
		<path id="path134" inkscape:connector-curvature="0" fill="#FFFFFF" d="M0.135,0.079C0,2.288,0.135,4.281,0.5,6.292
			c0.562,0.135,1.421,0.5,1.93-0.145C1.921,4.073,3.359,0,0.135,0.079z"/>
	</g>
	<g id="g136" transform="matrix(1.25,0,0,1.25,357.95766,329.88638)">
		<path id="path138" inkscape:connector-curvature="0" fill="#FFFFFF" d="M0.358,0.276C0.286,2.137,0,4.138,1.003,5.575
			c1.216-0.293,0.499-2.081,0.785-3.161C1.145,1.707,1.86,0,0.358,0.276z"/>
	</g>
	<g id="g140" transform="matrix(1.25,0,0,1.25,334.53229,330.49913)">
		<path id="path142" inkscape:connector-curvature="0" fill="#FFFFFF" d="M1.002,0c-0.5,0.716-0.859,1.502-0.93,2.36
			C0,4.506,1.646,5.928,2.718,7.58C3.576,7.358,4.576,7.644,5.22,6.795C4.355,4.363,3.353,1.581,1.002,0z"/>
	</g>
	<g id="g144" transform="matrix(1.25,0,0,1.25,338.91229,338.00638)">
		<path id="path146" inkscape:connector-curvature="0" fill="#FFFFFF" d="M8.152,2.505l0.078-1.074L7.58,0.358
			C4.585,0,2.002,1.638,0.358,4.069C0,4.793,0.286,5.569,0.5,6.142C2.86,4.356,4.997,1.995,8.152,2.505z"/>
	</g>
	<g id="g148" transform="matrix(1.25,0,0,1.25,351.25604,338.72138)">
		<path id="path150" inkscape:connector-curvature="0" fill="#FFFFFF" d="M5.075,1.423C4.862,0,3.29,0.217,2.145,0.073
			C1.137,0.28,0,0.859,0.214,2.075c0.352,1.279,1.002,2.422,2.288,2.853C3.79,4.077,5.497,3.147,5.075,1.423z"/>
	</g>
	<g id="g152" transform="matrix(1.25,0,0,1.25,358.67291,341.49513)">
		<path id="path154" inkscape:connector-curvature="0" fill="#FFFFFF" d="M1.288,0.142C0.072,0.421,0,2.002,0,3.137
			c0.145,0.572,0.717,1.002,1.288,0.929c0.786-0.572,0.786-1.708,0.865-2.717C1.867,0.928,2.074,0,1.288,0.142z"/>
	</g>
	<g id="g156" transform="matrix(1.25,0,0,1.25,361.98104,343.62763)">
		<path id="path158" inkscape:connector-curvature="0" fill="#FFFFFF" d="M3.29,2.003C3.074,1.367,2.787,0,1.644,0.215
			C0,1.788,1.716,4.649,0.571,6.364c0.5,0.714,0.145,2.002,1.295,2.138C4.155,7.437,2.86,4.149,3.29,2.003z"/>
	</g>
	<g id="g160" transform="matrix(1.25,0,0,1.25,345.35879,343.62763)">
		<path id="path162" inkscape:connector-curvature="0" fill="#FFFFFF" d="M3.432,0.572C2.207,0.215,0.921,0,0,0.717
			C0.714,4.79,4.646,15.652,6.22,15.724c1-3.218,0.5-5.792,0.786-9.36C6.292,4.076,5.569,1.86,3.432,0.572z"/>
	</g>
	<g id="g164" transform="matrix(1.25,0,0,1.25,367.44066,344.70138)">
		<path id="path166" inkscape:connector-curvature="0" fill="#FFFFFF" d="M0.208,0.213L0,2.215l1.352,0.217L1.71,1.294
			C1.217,0.858,0.931,0,0.208,0.213z"/>
	</g>
	<g id="g168" transform="matrix(1.25,0,0,1.25,340.88004,345.95263)">
		<path id="path170" inkscape:connector-curvature="0" fill="#FFFFFF" d="M1.499,0C0.849,0.714,0.286,1.573,0,2.359
			c0.157,2.058,0.626,4.076,1.405,5.952c0.89,2.152,2.178,4.114,3.868,5.735c0.215,0.205,0.438,0.412,0.66,0.604
			c0.5-0.214,1.295-0.214,0.93-0.858C4.932,11.296,2.216,1.573,1.499,0z"/>
	</g>
	<g id="g172" transform="matrix(1.25,0,0,1.25,354.83016,346.13138)">
		<path id="path174" inkscape:connector-curvature="0" fill="#FFFFFF" d="M1.431,2.216c0,3.361,0.43,7.008-0.931,9.858
			c-0.204,0.645-0.5,2.361,0.788,2.147l0.064-0.572c2.018-1.644,2.797-4.498,3.011-7.286C3.862,4.575,4.576,0,1.431,2.216z"/>
	</g>
	<g id="g176" transform="matrix(1.25,0,0,1.25,319.13191,358.87138)">
		<path id="path178" inkscape:connector-curvature="0" fill="#FFFFFF" d="M10.384,7.42C9.079,8.605,7.53,9.677,4.082,9.677L0,18.703
			c0,0,2.661,0,4.321,0c1.669,0,4.639-1.773,7.134-4.743c2.493-2.972,9.071-10.145,9.071-10.145L17.851,0
			C17.851,0,11.694,6.238,10.384,7.42z"/>
	</g>
	<g id="g180" transform="matrix(1.25,0,0,1.25,274.28329,370.96763)">
		<path id="path182" inkscape:connector-curvature="0" fill="#FFFFFF" d="M0,9.032h5.823L10.845,0H5.022L0,9.032z"/>
	</g>
	<g id="g184" transform="matrix(1.25,0,0,1.25,360.98741,283.26163)">
		<path id="path186" inkscape:connector-curvature="0" fill="#FFFFFF" d="M40.558,0.826C39.731,1.654,0.279,43.042,0.279,43.042
			C0.047,43.344,0,43.654,0.071,43.956c0.208,0.905,1.51,1.723,2.559,1.971c0.525,0.119,0.984,0.095,1.207-0.129
			C4.672,44.974,40.558,5.171,42.424,2.892C44.29,0.619,41.39,0,40.558,0.826z"/>
	</g>
	<g id="g188" transform="matrix(1.25,0,0,1.25,426.32191,260.49175)">
		<path id="path190" inkscape:connector-curvature="0" fill="#FFFFFF" d="M6.521,2.278C8.175,0.619,5.481,0,4.862,0.412
			C4.24,0.825,3.614,1.446,2.581,2.487C0,5.067,3.304,5.48,6.521,2.278z"/>
	</g>
	<g id="g192" transform="matrix(1.25,0,0,1.25,385.41691,267.10438)">
		<path id="path194" inkscape:connector-curvature="0" fill="#D0BD7F" d="M18.455,8.215L17.582,6.26c0,0-3.919,1.088-9.796-2.178
			c-0.961-0.54,0.223-3.049,0.223-3.049S7.642,0.525,7.038,0H2.273C0,2.256,3.257,3.916,4.307,5.172
			c0.578,0.691,4.987,5.648,9.81,13.688c2.416-2.533,4.267-4.482,5.204-5.458C18.455,8.215,18.455,8.215,18.455,8.215z"/>
	</g>
	<g id="g196" transform="matrix(1.25,0,0,1.25,392.39941,351.60263)">
		<path id="path198" inkscape:connector-curvature="0" fill="#D0BD7F" d="M0,1.741l0.428,4.432l3.544-6.166
			c-0.15,0-0.304,0-0.461-0.007L0,1.741z"/>
	</g>
	<g id="g200" transform="matrix(1.25,0,0,1.25,380.90816,376.61763)">
		<path id="path202" inkscape:connector-curvature="0" fill="#D0BD7F" d="M0.636,1.765L1.653,0H0
			C0.224,0.605,0.462,1.272,0.636,1.765z"/>
	</g>
	<g id="g204" transform="matrix(1.25,0,0,1.25,268.65341,267.10438)">
		<path id="path206" inkscape:connector-curvature="0" fill="#D0BD7F" d="M57.565,71.968l0.081-0.079
			c-1.7-3.693-1.725-7.118-1.725-7.118s-1.518-3.693-0.864-4.567c0,0-5.016-4.132-3.488-9.136l-1.528-2.392
			c-1.302-2.392-15.022-22.626-10.223-31.755c0,0,3.265-3.702,0.866-8.492c-2.392-4.783-4.79-3.042-6.53-2.169
			c-1.741,0.865-15.674,9.137-15.674,9.137l3.702-8.486c0,0-6.967,6.738-8.931,9.136c0,0-1.516-9.136,2.623-13.275
			C16.802,1.844,17.748,0.898,18.653,0H0l47.762,81.087c0.859-0.348,1.462-0.826,2.019-1.335
			C51.043,78.609,57.502,72.032,57.565,71.968z"/>
	</g>
	<g id="g208" transform="matrix(1.25,0,0,1.25,406.94691,267.10438)">
		<path id="path210" inkscape:connector-curvature="0" fill="#D0BD7F" d="M20.432,0c-0.182,0.094-0.356,0.182-0.54,0.26
			c1.137,1.178,2.948,3.687,2.017,7.087c0,0,0,2.391-1.302,2.391c0,0,0.214,5.434-3.05,4.783c0,0,0.436,7.396-8.27,4.568
			c0,0-1.812-0.12-3.623-1.041C4.473,19.391,2.479,21.641,0,24.413c2.645,5.085,5.187,11.003,7.078,17.566L31.237,0H20.432z"/>
	</g>
	<g id="g212" transform="matrix(1.25,0,0,1.25,371.27566,376.61763)">
		<path id="path214" inkscape:connector-curvature="0" fill="#D0BD7F" d="M1.238,2.177c0.534,0,0.987,0,1.615,0
			C2.995,1.709,3.29,0.803,3.542,0H0C0.5,0.891,1.024,1.812,1.238,2.177z"/>
	</g>
	<g id="g216" transform="matrix(1.25,0,0,1.25,334.15516,339.63763)">
		<path id="path218" inkscape:connector-curvature="0" fill="#D0BD7F" d="M39.436,3.702C39.222,3.051,29.863,0.659,28.766,0
			c0,0-2.033,0.357-0.428,1.961c1.739,1.741,1.525,4.355,0.214,7.826l-1.525,0.436c0,0-3.042,5.657-4.996,4.79
			c0,0-2.622,5.657-5.887,5.872c-2.178,0.143-4.07,0.581-6.254-0.96c-1.493,1.627-7.204,7.832-9.335,10.359
			C0.374,30.507,0.191,30.72,0,30.927l19.36,32.882l16.493-28.657H24.001l0.104-1.191c0.126-1.603,1.151-3.422,1.833-4.472
			c0-0.77,0.201-5.99,5.443-5.99c0,0,5.441-0.223,6.101-0.874c0.653-0.651,0.216-5.004,0.216-5.004h1.739c0,0,0-3.695-0.651-5.871
			c-0.651-2.178-1.304-4.783-1.088-5.656C37.911,5.226,39.659,4.352,39.436,3.702z"/>
	</g>
	<g id="g220" transform="matrix(1.25,0,0,1.25,263.25179,232.50475)">
		<path id="path222" inkscape:connector-curvature="0" d="M134.508,54.905l-1.009,3.059c0,0,2.747,0.914,3.661,1.216
			c0,0.557-0.016,1.676-0.024,2.574c-0.881-0.081-1.644-0.016-2.223,0.245c-1.964,0.874-1.311,8.486-0.874,10.01
			c0.437,1.518,0.437,2.383,0.214,3.257c-0.214,0.876-0.437,0.876-1.954,1.09c-1.534,0.214-4.576,0.214-4.576,0.214
			c-1.088-1.303-4.568-2.605-4.568-2.605c-0.072-0.311-0.153-0.62-0.222-0.921l27.518-47.827h-8.246
			c0.826-1.374-0.604-3.081-0.604-3.081s-0.047-0.588-1.741-2.067c-1.962-1.707-3.828-1.016-4.614-0.397
			c-0.581,0.447-0.364,1.255-0.207,1.669c-0.191,0.064-0.374,0.135-0.541,0.245c-0.738,0.493-1.397,1.153-2.495,2.25
			c-0.101,0.101-0.189,0.198-0.285,0.302c-0.174-0.016-0.293,0.016-0.293,0.016c0-2.837-5.006-4.139-5.006-4.139
			c-2.176-4.347-3.273-6.889-5.664-7.182c-2.835-0.336-5.441,1.962-5.441,1.962c-3.265-3.703-13.061-8.914-18.932-9.137
			c-5.88-0.214-15.246,4.79-21.554,7.396c-6.316,2.614-8.492-2.39-9.58-3.48c-1.09-1.088-2.828-2.612-6.094-6.094
			C55.89,0,51.973,0.438,49.145,1.741c-2.838,1.311-5.666,2.835-10.02,5.657c-4.352,2.829-5.44,5.655-6.53,8.7
			c-1.088,3.042-3.916,5.877-3.916,5.877s-1.343,1.343-3.24,3.241H0l49.525,84.068c-0.239,0.016-0.477,0.024-0.739,0.024H12.98
			l-6.648,11.965h38.745l3.948-0.009c1.637,0,3.797-1.088,5.87-2.86l21.212,36.014l19.312-33.56h16.302v-3.216c0,0-2.901,0-3.86,0
			c-0.169-0.509-0.486-1.51-0.757-2.352h0.597l2.829-1.302c0-3.266-3.917-7.835-3.917-7.835l-0.643-3.63l4.846-8.43
			c0.572-0.505,0.795-0.992,0.795-0.992s22.427-7.826,25.69-9.564c3.265-1.741,3.919-7.618,3.919-7.618
			c4.352,1.738,6.307-3.043,6.307-3.043s1.525,0.651,5.45,1.302c3.916,0.66,5.872-1.302,6.315-2.605
			c0.2-0.604,0.302-1.15,0.295-1.597c0.562-0.412,3.042-2.257,3.885-4.227l0.467-1.103L134.508,54.905z M133.037,24.876
			c1.033-1.041,1.659-1.662,2.281-2.074c0.619-0.413,3.313,0.207,1.659,1.866C133.76,27.87,130.456,27.456,133.037,24.876z
			 M133.672,28.323c1.367,1.82,2.385,3.797,2.511,6.141l-3.209-5.641l0.214-0.438C133.348,28.38,133.506,28.354,133.672,28.323z
			 M132.179,30.246c1.288,2.217,3.646,4.218,3.576,6.714c-0.216,0.286-0.707,0.078-1.002,0.141l-3.432-5.139L132.179,30.246z
			 M127.024,37.324l1.365,0.286c0.858,1.852,2.646,3.495,2.36,5.856l-1.216-0.224C128.533,41.392,126.959,39.462,127.024,37.324z
			 M128.102,44.459l-0.069,2.225c-3.432-0.216-5.22-4.435-6.087-7.294c0.358-1,2.074-0.714,2.941-0.786
			C126.673,40.319,127.38,42.313,128.102,44.459z M129.463,35.179c0.07-0.507,0.572-0.927,1.072-0.927
			c1.216,1.499,2.716,3.423,2.216,5.496C130.749,39.39,130.749,36.674,129.463,35.179L129.463,35.179z M130.749,28.531
			c-0.572,3.216-2.581,6.292-5.44,7.857c-1.002,0.286-1.789,0.286-2.209-0.707c1.643-2.941,3.503-6.079,6.505-8.081
			C130.035,27.742,130.67,28.029,130.749,28.531L130.749,28.531z M126.959,22.745c1.209-0.293,2.574,0.43,2.718,1.423
			c0.644,2.217-1.86,2.074-2.86,3.574c-2.653,2.288-3.646,5.427-5.585,7.866c-0.929,0-1.788-0.072-2.423-0.786
			C119.372,30.174,122.527,25.67,126.959,22.745z M82.025,86.404c-0.222,0.224-0.682,0.248-1.207,0.129
			c-1.049-0.248-2.35-1.066-2.559-1.971c-0.071-0.302-0.024-0.612,0.208-0.914c0,0,39.452-41.388,40.278-42.216
			c0.833-0.826,3.733-0.207,1.867,2.066C118.746,45.777,82.861,85.579,82.025,86.404L82.025,86.404z M85.061,91.051l-0.358,1.138
			l-1.352-0.217l0.208-2.002C84.282,89.758,84.568,90.615,85.061,91.051z M80.85,97.401c-1.15-0.136-0.795-1.424-1.295-2.138
			c1.145-1.715-0.571-4.576,1.072-6.149c1.143-0.215,1.43,1.152,1.646,1.788C81.843,93.047,83.138,96.335,80.85,97.401z
			 M62.244,85.19c-0.643,0.849-1.643,0.563-2.502,0.785c-1.072-1.652-2.718-3.074-2.645-5.219c0.071-0.858,0.43-1.644,0.93-2.36
			C60.377,79.977,61.379,82.758,62.244,85.19L62.244,85.19z M61.028,75.617c4.085-1.225,1.923,4.28,3.425,6.211
			c-0.207,0.571-1.064,0.357-1.423,0.216C62.53,79.612,58.384,78.047,61.028,75.617z M60.886,88.47
			c1.645-2.431,4.227-4.069,7.223-3.711l0.65,1.073l-0.078,1.074c-3.155-0.51-5.292,1.851-7.652,3.637
			C60.814,89.97,60.528,89.194,60.886,88.47z M65.318,75.617c0.081-0.509,0.716-0.723,1.081-0.367
			c0.993,1.216,0.566,3.004,0.858,4.506c-0.437,0.286-0.858,0.286-1.223-0.072C65.248,78.54,64.818,76.966,65.318,75.617z
			 M63.602,90.758c0.717,1.573,3.433,11.296,5.364,13.792c0.365,0.644-0.43,0.644-0.93,0.858c-0.223-0.192-0.445-0.399-0.66-0.604
			c-1.691-1.621-2.979-3.583-3.868-5.735c-0.779-1.876-1.248-3.894-1.405-5.952C62.389,92.331,62.951,91.472,63.602,90.758z
			 M65.686,89.615c0.921-0.717,2.207-0.502,3.432-0.145c2.138,1.288,2.861,3.504,3.574,5.792c-0.286,3.568,0.214,6.142-0.786,9.36
			C70.331,104.55,66.399,93.688,65.686,89.615L65.686,89.615z M70.896,82.685c-0.717,0.359-1.779-0.069-1.779-0.927
			c0.07-2.225-0.653-4.934,0.214-6.572C71.905,76.466,70.331,80.319,70.896,82.685z M70.617,87.049
			c-0.214-1.216,0.923-1.795,1.932-2.002c1.145,0.144,2.717-0.073,2.93,1.35c0.422,1.724-1.285,2.654-2.573,3.505
			C71.619,89.47,70.969,88.327,70.617,87.049L70.617,87.049z M74.407,82.186c-0.509,0.645-1.367,0.28-1.93,0.145
			c-0.366-2.011-0.5-4.004-0.366-6.213C75.337,76.038,73.898,80.111,74.407,82.186z M73.763,102.975
			c1.36-2.85,0.93-6.496,0.93-9.858c3.146-2.216,2.432,2.359,2.932,4.147c-0.214,2.788-0.993,5.641-3.011,7.286l-0.064,0.572
			C73.263,105.336,73.559,103.62,73.763,102.975z M76.768,83.48c-1.003-1.436-0.717-3.438-0.645-5.298
			c1.502-0.276,0.786,1.43,1.43,2.137C77.266,81.4,77.984,83.187,76.768,83.48L76.768,83.48z M76.337,90.329
			c0-1.135,0.073-2.716,1.288-2.995c0.786-0.142,0.579,0.786,0.865,1.207c-0.079,1.009-0.079,2.145-0.865,2.717
			C77.053,91.331,76.482,90.901,76.337,90.329z M117.656,38.604l0.216-0.859c1.261-0.279,1.843,0.962,2.2,1.883
			c-0.722-0.056-1.461,0.111-2.026,0.493C117.832,39.685,117.784,39.072,117.656,38.604z M121.805,14.451
			c0.643,1.143,1.222,2.218,1.571,3.362c-1.571,0.214-1.93-1.933-2.779-2.79C120.446,14.237,121.374,14.165,121.805,14.451z
			 M118.372,14.674c1.788,2.209,3.288,4.497,4.935,6.713c-0.359,0.717-0.931,0.208-1.217-0.078c-1.493-1.852-3.504-3.712-5.22-5.569
			C117.015,15.024,117.728,14.674,118.372,14.674z M115.87,17.169l5.871,6.72c0.142,0.852-0.939,0.852-1.367,0.572
			c-1.859-2.573-4.434-4.29-6.649-6.506C114.154,17.169,115.082,16.669,115.87,17.169z M113.652,20.029l5.865,4.997
			c0.357,0.509,0.15,1.43-0.573,1.358c-2.439-2.43-5.362-3.71-8.008-5.711C111.364,19.243,112.725,19.099,113.652,20.029z
			 M109.642,22.604c3.083,1.144,5.726,3.353,8.586,4.997c0.502,0.644-0.214,1.43-0.714,1.502l-8.445-4.569
			C108.997,23.819,109.142,23.097,109.642,22.604z M108.648,26.385c2.851,1.002,5.434,2.718,8.08,4.075
			c0.5,0.429-0.072,1.072-0.572,1.217c-2.724-1.145-5.078-2.854-7.938-3.719C107.781,27.6,108.29,26.815,108.648,26.385z
			 M107.14,29.602c2.502,0.714,4.79,1.93,7.156,2.995c-2.86,0.078-5.506-0.286-7.373-2.352L107.14,29.602z M100.005,27.68h4.765
			c0.604,0.525,0.971,1.033,0.971,1.033s-1.184,2.509-0.223,3.049c5.877,3.266,9.796,2.178,9.796,2.178l0.873,1.955
			c0,0,0,0,0.866,5.187c-0.937,0.976-2.788,2.925-5.204,5.458c-4.823-8.039-9.232-12.996-9.81-13.688
			C100.989,31.596,97.732,29.936,100.005,27.68z M56.326,36.331c2.668-4.242,17.852-17.192,39.833,5.441
			c3.806,3.909,6.992,7.627,9.636,11.115c-8.627,9.055-19.606,20.598-24.635,25.875c-2.432-1.311-4.909-2.775-7.42-4.371
			C54.585,62.213,50.01,46.341,56.326,36.331z M39.157,10.884c1.152-0.611,2.583-0.142,3.393,0.946
			c-0.811,1.357-2.583,2.447-2.448,4.004c1.295,0.952,3.473,1.088,3.948,2.923c0.335,1.018,0.128,2.241-0.548,3.052l-1.628,0.143
			c0.676-0.747,0.881-1.907,0.541-2.79c-0.613-0.61-1.153-1.566-2.169-1.214c-1.773,0.064-1.367,3.185-2.995,1.962
			C37.997,16.993,38.952,14.07,39.157,10.884z M31.293,22.189c4.347,4.355,6.308,9.137,6.308,9.137
			c-0.867,2.177-10.446,6.523-10.446,6.523l5.663-10.439L18.669,39.597c0,0,0.214-5.657,1.954-7.618
			C22.371,30.024,31.293,22.189,31.293,22.189z M4.321,27.68h18.653c-0.905,0.898-1.852,1.844-2.779,2.771
			c-4.139,4.14-2.623,13.275-2.623,13.275c1.964-2.398,8.931-9.136,8.931-9.136l-3.702,8.485c0,0,13.933-8.271,15.674-9.137
			c1.74-0.873,4.139-2.614,6.53,2.169c2.398,4.79-0.866,8.492-0.866,8.492c-4.799,9.129,8.922,29.364,10.224,31.755l1.527,2.392
			c-1.527,5.004,3.488,9.136,3.488,9.136c-0.654,0.874,0.864,4.567,0.864,4.567s0.025,3.425,1.725,7.118l-0.081,0.079
			c-0.062,0.064-6.521,6.641-7.784,7.785c-0.557,0.509-1.16,0.987-2.019,1.335L4.321,27.68L4.321,27.68z M14.648,119.802H8.825
			l5.021-9.032h5.824L14.648,119.802z M49.025,119.796c-1.66,0-4.321,0-4.321,0l4.082-9.026c3.448,0,4.997-1.072,6.302-2.257
			c1.311-1.182,7.467-7.42,7.467-7.42l2.676,3.815c0,0-6.578,7.173-9.071,10.145C53.664,118.023,50.695,119.796,49.025,119.796z
			 M76.083,149.515l-19.36-32.882c0.191-0.207,0.374-0.42,0.556-0.643c2.131-2.527,7.841-8.732,9.335-10.359
			c2.184,1.541,4.076,1.103,6.254,0.96c3.265-0.215,5.887-5.872,5.887-5.872c1.954,0.867,4.996-4.79,4.996-4.79l1.525-0.436
			c1.311-3.471,1.525-6.085-0.214-7.826c-1.605-1.604,0.428-1.961,0.428-1.961c1.097,0.659,10.456,3.051,10.67,3.702
			c0.223,0.65-1.525,1.524-1.739,2.392c-0.216,0.873,0.437,3.478,1.088,5.656c0.651,2.176,0.651,5.871,0.651,5.871H94.42
			c0,0,0.437,4.353-0.216,5.004c-0.66,0.651-6.101,0.874-6.101,0.874c-5.242,0-5.443,5.22-5.443,5.99
			c-0.682,1.05-1.707,2.869-1.833,4.472l-0.104,1.191h11.852L76.083,149.515z M95.778,115.29l-1.017,1.765
			c-0.174-0.493-0.412-1.16-0.636-1.765H95.778z M89.961,115.29c-0.252,0.803-0.547,1.709-0.689,2.177c-0.628,0-1.081,0-1.615,0
			c-0.214-0.365-0.738-1.286-1.238-2.177H89.961z M84.6,113.233c-0.374-0.468,0.024-1.398,0.874-2.067
			c0.857-0.666,1.85-0.818,2.217-0.34c0.372,0.469-0.024,1.398-0.876,2.057C85.967,113.55,84.974,113.702,84.6,113.233z
			 M107.052,118.737h3.567v1.027H81.922c0.135-1.646,1.479-3.727,1.995-4.474h1.239l1.86,3.28h3.058l1.04-3.28h1.835l1.201,3.28
			h9.168l0.937-3.28h1.7L107.052,118.737L107.052,118.737z M97.366,117.467l1.256-2.177h4.488c-0.222,0.779-0.483,1.693-0.619,2.177
			C101.687,117.467,99.298,117.467,97.366,117.467z M103.746,101.451l-0.428-4.432l3.511-1.741c0.157,0.007,0.311,0.007,0.461,0.007
			L103.746,101.451L103.746,101.451z M114.884,85.492c-3.401,3.876-13.886,2.591-26.907-3.321
			c5.02-5.56,14.062-15.636,21.536-23.984C118.427,72.026,118.244,81.646,114.884,85.492z M114.956,52.093
			c2.479-2.773,4.473-5.023,5.664-6.364c1.811,0.921,3.623,1.041,3.623,1.041c8.706,2.828,8.27-4.568,8.27-4.568
			c3.264,0.65,3.05-4.783,3.05-4.783c1.302,0,1.302-2.391,1.302-2.391c0.931-3.4-0.88-5.909-2.017-7.087
			c0.184-0.079,0.358-0.167,0.54-0.26h10.805l-24.159,41.979C120.143,63.096,117.601,57.178,114.956,52.093L114.956,52.093z
			 M144.486,63.954c-1.137-0.469-2.288-0.905-3.4-1.28c0.421-0.612,0.873-1.272,1.128-1.653c1.176,0.398,6.076,2.012,7.181,2.383
			c0.016,0.502,0.047,1.502,0.073,2.376C147.488,65.098,145.661,64.439,144.486,63.954L144.486,63.954z M154.748,72.414
			c-1.047,0.246-2.018-0.016-2.152-0.604c-0.143-0.581,0.596-1.263,1.645-1.518c1.048-0.254,2.025,0.016,2.16,0.604
			C156.545,71.477,155.807,72.16,154.748,72.414L154.748,72.414z M153.368,67.1c0.506-0.7,1.094-1.502,1.399-1.923
			c0.587,0.198,1.015,0.342,1.524,0.509c0.088,0.428,0.302,1.509,0.5,2.533C155.829,67.91,154.646,67.522,153.368,67.1z
			 M159.088,68.967c-0.009,0-0.009-0.009-0.016-0.009c-0.112-0.032-0.503-0.159-1.081-0.35l-0.738-3.764l-2.907-0.962l-2.068,2.854
			c-0.563-0.191-1.135-0.382-1.7-0.572l-0.102-3.561l-8.708-2.883l-1.779,2.612c-0.613-0.173-1.2-0.318-1.757-0.421l0.04-3.527
			l-3.383-1.119l0.317-0.971l27.258,9.016C161.797,66.877,159.764,68.474,159.088,68.967L159.088,68.967z"/>
	</g>
</g>
</svg>
