<?xml version="1.0" encoding="utf-8"?>
<!-- Generator: Adobe Illustrator 16.0.0, SVG Export Plug-In . SVG Version: 6.00 Build 0)  -->
<!DOCTYPE svg PUBLIC "-//W3C//DTD SVG 1.1//EN" "http://www.w3.org/Graphics/SVG/1.1/DTD/svg11.dtd">
<svg version="1.1" id="Layer_1" xmlns="http://www.w3.org/2000/svg" xmlns:xlink="http://www.w3.org/1999/xlink" x="0px" y="0px"
	 width="425px" height="425px" viewBox="0 0 425 425" enable-background="new 0 0 425 425" xml:space="preserve">
<g>
	<path fill="#FFFFFF" stroke="#FFFFFF" stroke-width="5" stroke-miterlimit="10" d="M337.033,157.445L334.875,164
		c0,0,5.877,1.959,7.832,2.605c0,1.191-0.035,3.59-0.051,5.516c-1.888-0.174-3.519-0.032-4.759,0.525
		c-4.2,1.873-2.805,18.182-1.868,21.447c0.936,3.254,0.936,5.105,0.459,6.979c-0.459,1.877-0.937,1.877-4.183,2.334
		c-3.28,0.459-9.788,0.459-9.788,0.459c-2.328-2.795-9.773-5.582-9.773-5.582l-0.475-1.974l58.872-102.486h-17.643
		c1.768-2.944-1.291-6.602-1.291-6.602s-0.103-1.26-3.728-4.43c-4.196-3.658-8.188-2.176-9.868-0.85
		c-1.244,0.956-0.779,2.689-0.443,3.576c-0.41,0.136-0.801,0.289-1.158,0.525c-1.578,1.057-2.987,2.471-5.338,4.821
		c-0.215,0.217-0.404,0.425-0.609,0.646c-0.372-0.033-0.627,0.033-0.627,0.033c0-6.079-10.71-8.868-10.71-8.868
		c-4.654-9.314-7.002-14.761-12.117-15.389c-6.064-0.72-11.642,4.204-11.642,4.204c-6.985-7.935-27.942-19.101-40.504-19.579
		c-12.578-0.458-32.616,10.264-46.11,15.847c-13.514,5.602-18.168-5.121-20.496-7.456c-2.332-2.331-6.051-5.598-13.037-13.058
		c-6.982-7.456-15.362-6.519-21.415-3.725c-6.07,2.808-12.121,6.075-21.436,12.121c-9.312,6.062-11.639,12.118-13.971,18.643
		c-2.327,6.518-8.379,12.593-8.379,12.593s-2.873,2.877-6.932,6.945H49.266l105.956,180.143c-0.512,0.032-1.022,0.051-1.581,0.051
		H77.038l-14.225,25.64h82.893l8.447-0.019c3.502,0,8.123-2.332,12.559-6.131l45.381,77.174l41.313-71.914h34.88v-6.892h-8.261
		c-0.36-1.092-1.039-3.235-1.619-5.041h1.277l6.053-2.788c0-7-8.381-16.789-8.381-16.789l-1.377-7.779l10.369-18.063
		c1.225-1.082,1.701-2.125,1.701-2.125s47.98-16.771,54.961-20.494c6.986-3.732,8.385-16.326,8.385-16.326
		c9.312,3.727,13.492-6.518,13.492-6.518s3.265,1.396,11.66,2.789c8.379,1.414,12.564-2.789,13.51-5.584
		c0.431-1.293,0.646-2.463,0.631-3.42c1.203-0.883,6.511-4.836,8.312-9.057l1-2.365l-62.967-20.871V157.445L337.033,157.445z"/>
	<g>
		<path fill="#D0BD80" d="M339.318,98.638c-0.39,0.201-0.763,0.389-1.154,0.559c2.432,2.524,6.307,7.9,4.313,15.186
			c0,0,0,5.125-2.784,5.125c0,0,0.457,11.643-6.525,10.25c0,0,0.934,15.848-17.693,9.787c0,0-3.877-0.257-7.75-2.231
			c-2.549,2.875-6.813,7.697-12.119,13.638c5.658,10.896,11.099,23.578,15.144,37.641l51.688-89.954H339.318z"/>
		<path fill="#D0BD80" d="M298.334,118.242l-1.867-4.19c0,0-8.385,2.331-20.959-4.667c-2.055-1.157,0.479-6.533,0.479-6.533
			s-0.785-1.09-2.078-2.214h-10.194c-4.862,4.834,2.106,8.391,4.354,11.083c1.235,1.482,10.67,12.104,20.987,29.331
			c5.168-5.429,9.13-9.604,11.134-11.696l-1.853-11.114H298.334z"/>
	</g>
	<g>
		<path fill="#010101" d="M336.894,157.598l-2.159,6.553c0,0,5.877,1.959,7.832,2.605c0,1.193-0.033,3.592-0.052,5.515
			c-1.885-0.173-3.518-0.032-4.756,0.525c-4.201,1.872-2.805,18.184-1.869,21.45c0.935,3.254,0.935,5.106,0.457,6.979
			c-0.457,1.877-0.936,1.877-4.18,2.334c-3.283,0.459-9.791,0.459-9.791,0.459c-2.328-2.795-9.771-5.584-9.771-5.584l-0.478-1.974
			l58.873-102.486H353.36c1.766-2.944-1.293-6.602-1.293-6.602s-0.103-1.26-3.726-4.43c-4.197-3.658-8.188-2.176-9.871-0.85
			c-1.242,0.956-0.778,2.689-0.442,3.576c-0.408,0.136-0.8,0.289-1.156,0.525c-1.58,1.057-2.99,2.471-5.338,4.821
			c-0.218,0.217-0.404,0.425-0.611,0.646c-0.371-0.033-0.627,0.033-0.627,0.033c0-6.079-10.709-8.868-10.709-8.868
			c-4.653-9.314-7.002-14.761-12.119-15.389c-6.063-0.72-11.641,4.204-11.641,4.204c-6.984-7.935-27.941-19.101-40.501-19.579
			c-12.58-0.458-32.619,10.264-46.113,15.847c-13.514,5.602-18.168-5.121-20.496-7.456c-2.332-2.331-6.051-5.598-13.037-13.058
			c-6.984-7.456-15.364-6.519-21.416-3.725c-6.07,2.808-12.122,6.075-21.436,12.121c-9.312,6.062-11.639,12.118-13.971,18.643
			c-2.327,6.52-8.378,12.595-8.378,12.595s-2.873,2.877-6.932,6.945H49.123l105.956,180.146c-0.512,0.033-1.022,0.052-1.581,0.052
			H76.894L62.67,299.81h82.892l8.448-0.019c3.502,0,8.123-2.332,12.559-6.131l45.38,77.174l41.318-71.913h34.877v-6.892h-8.259
			c-0.36-1.092-1.039-3.236-1.618-5.041h1.274l6.053-2.789c0-7-8.381-16.789-8.381-16.789l-1.375-7.778l10.367-18.063
			c1.226-1.082,1.7-2.125,1.7-2.125s47.982-16.771,54.964-20.494c6.983-3.732,8.383-16.324,8.383-16.324
			c9.312,3.725,13.494-6.521,13.494-6.521s3.264,1.396,11.66,2.789c8.377,1.416,12.562-2.789,13.51-5.582
			c0.428-1.293,0.646-2.467,0.631-3.424c1.201-0.883,6.508-4.835,8.312-9.057l0.998-2.363l-62.968-20.873L336.894,157.598z
			 M333.745,94.25c2.211-2.231,3.549-3.562,4.881-4.445c1.324-0.883,7.088,0.444,3.549,3.999
			C335.292,100.666,328.224,99.778,333.745,94.25L333.745,94.25z M335.104,101.637c2.927,3.899,5.104,8.136,5.373,13.159
			l-6.864-12.087l0.457-0.938C334.411,101.759,334.749,101.704,335.104,101.637L335.104,101.637z M331.911,105.757
			c2.756,4.75,7.799,9.038,7.649,14.387c-0.461,0.613-1.514,0.167-2.145,0.303l-7.342-11.014L331.911,105.757L331.911,105.757z
			 M320.882,120.924l2.92,0.613c1.836,3.968,5.66,7.49,5.049,12.547l-2.602-0.479c-2.14-3.966-5.509-8.101-5.369-12.681H320.882z
			 M323.189,136.213l-0.148,4.767c-7.342-0.462-11.168-9.503-13.023-15.63c0.766-2.143,4.438-1.53,6.293-1.684
			c3.82,3.677,5.334,7.948,6.877,12.547H323.189L323.189,136.213z M326.101,116.327c0.148-1.086,1.224-1.988,2.293-1.988
			c2.603,3.212,5.812,7.335,4.74,11.777C328.851,125.35,328.851,119.53,326.101,116.327z M328.851,102.08
			c-1.225,6.891-5.521,13.483-11.639,16.837c-2.144,0.613-3.826,0.613-4.726-1.515c3.515-6.303,7.494-13.025,13.917-17.315
			C327.323,100.39,328.683,101.003,328.851,102.08L328.851,102.08z M320.743,89.683c2.586-0.628,5.506,0.921,5.813,3.049
			c1.379,4.75-3.979,4.445-6.119,7.659c-5.676,4.903-7.799,11.629-11.949,16.856c-1.987,0-3.823-0.155-5.184-1.684
			c1.203-9.961,7.953-19.612,17.436-25.88H320.743z M224.611,226.093c-0.478,0.479-1.461,0.53-2.582,0.274
			c-2.244-0.528-5.029-2.283-5.476-4.223c-0.151-0.646-0.053-1.311,0.445-1.959c0,0,84.403-88.691,86.171-90.462
			c1.781-1.771,7.986-0.444,3.994,4.426c-3.994,4.884-80.768,90.175-82.557,91.943H224.611z M231.105,236.054l-0.766,2.438
			l-2.893-0.465l0.445-4.289C229.439,233.281,230.053,235.117,231.105,236.054L231.105,236.054z M222.096,249.658
			c-2.461-0.291-1.701-3.052-2.77-4.58c2.449-3.676-1.223-9.808,2.293-13.176c2.447-0.461,3.061,2.469,3.523,3.829
			C224.221,240.33,226.992,247.375,222.096,249.658L222.096,249.658z M182.291,223.492c-1.377,1.82-3.516,1.207-5.354,1.685
			c-2.295-3.541-5.814-6.588-5.66-11.187c0.151-1.838,0.92-3.521,1.988-5.057C178.295,212.322,180.438,218.283,182.291,223.492z
			 M179.689,202.979c8.738-2.625,4.113,9.173,7.326,13.312c-0.441,1.223-2.275,0.766-3.043,0.461
			C182.902,211.539,174.031,208.187,179.689,202.979L179.689,202.979z M179.385,230.522c3.518-5.209,9.043-8.719,15.451-7.952
			l1.391,2.299l-0.166,2.303c-6.752-1.094-11.322,3.965-16.373,7.793c-0.457-1.229-1.067-2.891-0.305-4.441L179.385,230.522
			L179.385,230.522z M188.867,202.979c0.174-1.09,1.531-1.551,2.312-0.786c2.125,2.604,1.212,6.438,1.837,9.655
			c-0.935,0.613-1.837,0.613-2.615-0.155c-1.685-2.451-2.603-5.824-1.531-8.714H188.867z M185.195,235.425
			c1.533,3.371,7.344,24.205,11.477,29.555c0.781,1.38-0.92,1.38-1.99,1.839c-0.475-0.41-0.953-0.854-1.412-1.293
			c-3.615-3.476-6.371-7.679-8.274-12.289c-1.666-4.021-2.671-8.345-3.007-12.755c0.611-1.684,1.816-3.524,3.207-5.055V235.425
			L185.195,235.425z M189.654,232.976c1.969-1.535,4.721-1.076,7.342-0.312c4.572,2.761,6.119,7.511,7.646,12.41
			c-0.611,7.646,0.457,13.162-1.683,20.058C199.592,264.978,191.182,241.701,189.654,232.976L189.654,232.976z M200.801,218.125
			c-1.533,0.771-3.807-0.147-3.807-1.985c0.15-4.769-1.398-10.571,0.459-14.082c5.506,2.742,2.139,11,3.348,16.07V218.125z
			 M200.203,227.476c-0.457-2.606,1.975-3.846,4.133-4.291c2.449,0.31,5.812-0.155,6.268,2.894c0.904,3.694-2.748,5.688-5.504,7.512
			c-2.752-0.924-4.143-3.373-4.895-6.113L200.203,227.476L200.203,227.476z M208.312,217.056c-1.09,1.381-2.926,0.601-4.129,0.31
			c-0.781-4.31-1.068-8.58-0.781-13.312C210.301,203.884,207.223,212.611,208.312,217.056L208.312,217.056z M206.934,261.604
			c2.91-6.106,1.99-13.922,1.99-21.125c6.73-4.748,5.203,5.056,6.273,8.888c-0.457,5.975-2.125,12.09-6.441,15.61l-0.137,1.228
			c-2.756,0.459-2.123-3.219-1.686-4.603V261.604L206.934,261.604z M213.363,219.83c-2.146-3.077-1.535-7.368-1.379-11.354
			c3.213-0.592,1.682,3.065,3.059,4.582C214.43,215.371,215.963,219.201,213.363,219.83L213.363,219.83z M212.441,234.507
			c0-2.435,0.153-5.82,2.756-6.418c1.682-0.306,1.238,1.684,1.852,2.586c-0.17,2.162-0.17,4.596-1.852,5.821
			c-1.223,0.154-2.445-0.766-2.756-1.991V234.507z M300.839,123.665l0.463-1.839c2.697-0.598,3.943,2.061,4.707,4.035
			c-1.545-0.121-3.127,0.237-4.334,1.057c-0.459-0.935-0.562-2.247-0.834-3.252L300.839,123.665z M309.716,71.91
			c1.375,2.45,2.613,4.752,3.361,7.205c-3.361,0.458-4.13-4.141-5.945-5.979C306.811,71.452,308.794,71.297,309.716,71.91z
			 M302.37,72.387c3.825,4.734,7.034,9.637,10.559,14.385c-0.768,1.536-1.991,0.446-2.604-0.167
			c-3.194-3.968-7.497-7.954-11.168-11.934C299.466,73.137,300.993,72.388,302.37,72.387L302.37,72.387z M297.02,77.733l12.561,14.4
			c0.303,1.825-2.01,1.825-2.926,1.226c-3.978-5.514-9.486-9.193-14.226-13.941C293.347,77.733,295.331,76.663,297.02,77.733z
			 M292.273,83.863l12.549,10.708c0.764,1.09,0.32,3.064-1.228,2.911c-5.219-5.209-11.473-7.95-17.133-12.238
			C287.378,82.178,290.29,81.869,292.273,83.863L292.273,83.863z M283.693,89.379c6.597,2.451,12.25,7.184,18.369,10.708
			c1.072,1.379-0.459,3.064-1.529,3.218l-18.065-9.791C282.314,91.984,282.624,90.436,283.693,89.379z M281.566,97.481
			c6.099,2.147,11.625,5.824,17.287,8.733c1.068,0.919-0.154,2.298-1.225,2.607c-5.828-2.453-10.863-6.115-16.982-7.969
			C279.712,100.087,280.8,98.402,281.566,97.481z M278.341,104.376c5.354,1.53,10.248,4.135,15.312,6.418
			c-6.119,0.167-11.781-0.613-15.775-5.039L278.341,104.376z M263.076,100.257h10.193c1.291,1.124,2.076,2.214,2.076,2.214
			s-2.533,5.376-0.477,6.533c12.572,6.998,20.957,4.666,20.957,4.666l1.869,4.19l1.852,11.114
			c-2.004,2.093-5.965,6.267-11.133,11.696c-10.318-17.227-19.752-27.849-20.988-29.33
			C265.181,108.648,258.215,105.091,263.076,100.257L263.076,100.257z M169.629,118.796c5.709-9.09,38.193-36.839,85.221,11.66
			c8.144,8.377,14.959,16.343,20.612,23.818c-18.454,19.402-41.942,44.139-52.702,55.446c-5.203-2.81-10.504-5.945-15.875-9.367
			C165.904,174.257,156.115,140.244,169.629,118.796L169.629,118.796z M132.897,64.266c2.465-1.308,5.526-0.303,7.26,2.028
			c-1.734,2.909-5.526,5.244-5.238,8.58c2.77,2.04,7.429,2.331,8.447,6.263c0.717,2.181,0.274,4.803-1.172,6.54l-3.483,0.308
			c1.446-1.601,1.885-4.087,1.157-5.979c-1.312-1.308-2.467-3.354-4.64-2.601c-3.792,0.136-2.925,6.824-6.408,4.204
			C130.414,77.357,132.457,71.095,132.897,64.266L132.897,64.266z M116.072,88.49c9.299,9.333,13.495,19.579,13.495,19.579
			c-1.855,4.666-22.349,13.979-22.349,13.979l12.116-22.37l-30.269,26.116c0,0,0.457-12.123,4.181-16.325
			C96.986,105.28,116.073,88.49,116.072,88.49L116.072,88.49z M58.368,100.257h39.907c-1.937,1.925-3.961,3.951-5.946,5.939
			c-8.854,8.871-5.612,28.447-5.612,28.447c4.202-5.14,19.107-19.577,19.107-19.577l-7.921,18.183c0,0,29.808-17.725,33.533-19.579
			c3.723-1.871,8.854-5.602,13.971,4.648c5.131,10.264-1.853,18.198-1.853,18.198c-10.267,19.562,19.088,62.92,21.874,68.045
			l3.268,5.125c-3.268,10.723,7.463,19.578,7.463,19.578c-1.397,1.873,1.851,9.787,1.851,9.787s0.052,7.338,3.688,15.252
			l-0.174,0.17c-0.133,0.137-13.951,14.23-16.652,16.68c-1.19,1.092-2.481,2.115-4.319,2.861L58.368,100.257L58.368,100.257z
			 M80.462,297.662H68.003l10.743-19.354h12.46L80.462,297.662L80.462,297.662z M154.01,297.649h-9.246l8.733-19.342
			c7.377,0,10.69-2.297,13.481-4.836c2.805-2.533,15.977-15.899,15.977-15.899l5.725,8.176c0,0-14.074,15.371-19.408,21.738
			C163.934,293.851,157.58,297.649,154.01,297.649L154.01,297.649z M211.896,361.332l-41.42-70.461
			c0.41-0.442,0.801-0.899,1.189-1.379c4.559-5.414,16.777-18.711,19.971-22.196c4.672,3.303,8.721,2.362,13.381,2.057
			c6.984-0.461,12.594-12.582,12.594-12.582c4.183,1.857,10.689-10.264,10.689-10.264l3.264-0.937
			c2.806-7.438,3.262-13.039-0.459-16.77c-3.434-3.438,0.916-4.201,0.916-4.201c2.349,1.412,22.371,6.537,22.828,7.932
			c0.477,1.396-3.264,3.269-3.721,5.127c-0.461,1.871,0.936,7.453,2.328,12.119c1.395,4.664,1.395,12.58,1.395,12.58h-3.721
			c0,0,0.936,9.328-0.463,10.725c-1.41,1.396-13.053,1.873-13.053,1.873c-11.215,0-11.646,11.187-11.646,12.836
			c-1.459,2.25-3.651,6.146-3.922,9.582l-0.221,2.554h25.356L211.896,361.332L211.896,361.332z M254.033,287.992l-2.176,3.783
			c-0.371-1.057-0.881-2.486-1.361-3.783H254.033L254.033,287.992z M241.588,287.992c-0.537,1.724-1.17,3.662-1.473,4.666h-3.455
			c-0.459-0.781-1.58-2.756-2.648-4.666h7.578H241.588z M230.119,283.587c-0.799-1.005,0.051-2.996,1.871-4.431
			c1.832-1.428,3.957-1.754,4.742-0.729c0.797,1.004-0.051,2.996-1.873,4.408C233.045,284.265,230.92,284.591,230.119,283.587z
			 M278.152,295.38h7.631v2.2h-61.393c0.288-3.526,3.163-7.985,4.268-9.588h2.65l3.979,7.029h6.543l2.225-7.029h3.926l2.57,7.029
			h19.612l2.004-7.029h3.639L278.152,295.38L278.152,295.38L278.152,295.38z M257.432,292.66l2.688-4.666h9.601
			c-0.475,1.67-1.033,3.629-1.324,4.666h-10.961H257.432z M271.079,258.339l-0.916-9.496l7.512-3.729
			c0.336,0.016,0.666,0.016,0.986,0.016L271.079,258.339L271.079,258.339z M294.908,224.14c-7.276,8.308-29.709,5.554-57.562-7.117
			c10.738-11.911,30.083-33.505,46.071-51.393C302.488,195.285,302.097,215.899,294.908,224.14z M295.064,152.572
			c5.303-5.941,9.567-10.764,12.116-13.639c3.873,1.973,7.753,2.231,7.753,2.231c18.624,6.06,17.69-9.787,17.69-9.787
			c6.984,1.394,6.524-10.25,6.524-10.25c2.787,0,2.787-5.125,2.787-5.125c1.99-7.287-1.885-12.662-4.315-15.186
			c0.395-0.169,0.766-0.358,1.156-0.559h23.114l-51.686,89.954C306.158,176.148,300.722,163.468,295.064,152.572z M358.239,177.988
			c-2.433-1.006-4.896-1.938-7.273-2.74c0.9-1.312,1.867-2.728,2.412-3.543c2.518,0.854,13,4.312,15.363,5.106
			c0.034,1.076,0.102,3.218,0.155,5.091C364.661,180.438,360.753,179.025,358.239,177.988L358.239,177.988z M380.194,196.117
			c-2.24,0.527-4.316-0.035-4.604-1.293c-0.307-1.246,1.275-2.707,3.521-3.252c2.241-0.545,4.331,0.033,4.62,1.293
			C384.038,194.111,382.46,195.574,380.194,196.117z M377.243,184.729c1.082-1.5,2.34-3.216,2.992-4.119
			c1.256,0.424,2.172,0.732,3.26,1.09c0.188,0.916,0.646,3.232,1.069,5.428C382.507,186.467,379.978,185.633,377.243,184.729
			L377.243,184.729z M389.481,188.731l-0.034-0.02c-0.24-0.068-1.076-0.341-2.312-0.75l-1.58-8.067l-6.219-2.061l-4.424,6.115
			c-1.203-0.41-2.428-0.82-3.637-1.228l-0.218-7.628l-18.631-6.178l-3.807,5.598c-1.312-0.369-2.566-0.68-3.758-0.902l0.086-7.554
			l-7.238-2.397l0.678-2.08l58.316,19.319c-1.429,3.355-5.777,6.776-7.224,7.834L389.481,188.731L389.481,188.731z"/>
		<path fill="#D0BD80" d="M255.105,232.531c-0.459-1.396-20.481-6.521-22.828-7.935c0,0-4.35,0.767-0.916,4.203
			c3.72,3.729,3.263,9.332,0.457,16.771l-3.262,0.934c0,0-6.51,12.123-10.688,10.264c0,0-5.611,12.123-12.597,12.584
			c-4.658,0.305-8.707,1.244-13.379-2.057c-3.195,3.484-15.414,16.781-19.971,22.197c-0.389,0.479-0.779,0.934-1.189,1.377
			l41.42,70.461l35.287-61.406h-25.356l0.221-2.553c0.271-3.437,2.464-7.332,3.923-9.582c0-1.65,0.43-12.838,11.645-12.838
			c0,0,11.641-0.478,13.053-1.871c1.396-1.396,0.461-10.726,0.461-10.726h3.721c0,0,0-7.918-1.393-12.58
			c-1.393-4.668-2.791-10.25-2.328-12.12c0.457-1.859,4.197-3.732,3.721-5.125V232.531z"/>
		<path fill="#D0BD80" d="M181.254,253.854l0.174-0.17c-3.639-7.914-3.691-15.254-3.691-15.254s-3.246-7.914-1.848-9.785
			c0,0-10.732-8.854-7.463-19.577l-3.27-5.125c-2.785-5.125-32.138-48.484-21.873-68.046c0,0,6.986-7.933,1.854-18.198
			c-5.117-10.25-10.248-6.519-13.971-4.648c-3.726,1.854-33.533,19.579-33.533,19.579l7.921-18.183c0,0-14.905,14.437-19.107,19.577
			c0,0-3.243-19.577,5.612-28.447c1.985-1.988,4.009-4.014,5.946-5.939H58.098l102.181,173.76c1.836-0.746,3.129-1.771,4.32-2.861
			C167.301,268.084,181.119,253.992,181.254,253.854L181.254,253.854z"/>
	</g>
</g>
<path fill="#D0BD80" d="M269.832,249.426l0.916,9.498l7.582-13.213c-0.32,0-0.65,0-0.986-0.017L269.832,249.426L269.832,249.426z"/>
</svg>
