<?xml version="1.0" encoding="utf-8"?>
<!-- Generator: Adobe Illustrator 16.0.0, SVG Export Plug-In . SVG Version: 6.00 Build 0)  -->
<!DOCTYPE svg PUBLIC "-//W3C//DTD SVG 1.1//EN" "http://www.w3.org/Graphics/SVG/1.1/DTD/svg11.dtd">
<svg version="1.1" id="Layer_1" xmlns:sketch="http://www.bohemiancoding.com/sketch/ns"
	 xmlns="http://www.w3.org/2000/svg" xmlns:xlink="http://www.w3.org/1999/xlink" x="0px" y="0px" width="512px" height="512px"
	 viewBox="0 0 512 512" enable-background="new 0 0 512 512" xml:space="preserve">
<title>toronto-maple-leafs</title>
<desc>Created with Sketch.</desc>
<path fill="#FFFFFF" d="M151.695,231.083h211.362l-22.199,122.083H171.582L151.695,231.083z"/>
<path fill="#003876" d="M220.791,242.474c2.806,0,5.641,1.348,5.641,4.857c0.055,2.915-1.998,4.776-5.641,4.856V242.474z
	 M265.48,281.357c7.666,0,7.773,8.742-0.053,8.742L265.48,281.357z M238.547,283.555l3.036,10.401l-5.95,0.028L238.547,283.555z
	 M257.311,324.049l3.359,10.745l-6.253-0.013L257.311,324.049L257.311,324.049z M404.028,265.49
	c5.33-21.157,12.97-46.301,17.485-66.052c-21.414-4.708-45.554-6.691-67.357-11.01c-14.154,7.216-28.249,17.948-41.449,23.962
	c6.488-29.13,13.594-58.64,20.198-87.654c-6.437,0.405-11.792,0.782-18.135-0.364c-10.073-1.82-23.058-14.926-30.337-20.921
	c-10.176-8.376-27.912-23.601-27.912-23.601s-26.845,22.989-40.965,34.753c-8.873,7.393-16.889,12.56-34.974,10.362
	c6.238,29.379,20.078,86.777,20.078,86.777s-29.298-16.442-40.804-23.314c-22.341,3.783-45.284,6.961-68.006,10.362
	c4.113,20.007,11.816,44.418,17.488,66.7c1.955,7.678,5.025,17.384,3.887,23.962c-1.09,6.286-6.083,8.84-9.714,14.894
	c7.951,4.857,18.437,9.241,29.84,15.221c8.937,4.685,24.551,10.992,25.859,21.045c0.873,6.714-3.188,12.455-5.829,18.134
	c-2.566,5.516-5.269,10.839-8.158,16.188h92.356v57.635h38.214v-57.635h92.587c-3.354-5.232-6.492-10.595-9.039-16.188
	c-2.604-5.724-6.186-12.458-5.182-18.78c1.576-9.895,17.227-14.802,25.907-19.428c10.829-5.77,20.924-11.452,29.792-15.54
	c-2.214-6.406-8.58-8.914-9.715-15.542C398.997,282.755,402.062,273.298,404.028,265.49L404.028,265.49z M301.939,298.044
	l-1.983,8.015h-16.841c0-10.576-0.202-30.855-0.202-30.855l8.419-0.055v22.936l10.605-0.041L301.939,298.044z M273.199,237.01
	l8.904-0.013l10.522,15.542v-15.542h7.772v31.083h-7.879l-10.904-15.973v15.973h-8.42v-31.07H273.199L273.199,237.01z
	 M254.092,235.702c9.061,0,16.408,7.345,16.408,16.405s-7.346,16.405-16.408,16.405c-9.061,0-16.408-7.345-16.408-16.405
	S245.029,235.702,254.092,235.702z M254.617,306.059h-9.067l-1.93-5.301l-9.77,0.014l-1.728,5.287h-8.595
	c3.456-10.574,6.231-20.754,10.16-30.855h10.364C247.816,285.471,251.214,295.43,254.617,306.059L254.617,306.059z M176.047,244.498
	h-5.829v23.582h-8.419v-23.662l-6.477-0.028l1.295-7.393h19.431L176.047,244.498L176.047,244.498z M177.126,252.108
	c0-9.06,7.346-16.405,16.408-16.405c9.061,0,16.408,7.345,16.408,16.405s-7.346,16.405-16.408,16.405
	C184.473,268.513,177.126,261.17,177.126,252.108z M216.648,346.654h-17.285v-30.652h8.419v23.314h10.647L216.648,346.654
	L216.648,346.654z M211.224,306.072l-1.458-14.34l-6.436,14.207l-6.841-14.004l-2.105,14.127h-7.772l3.953-30.856h7.502
	l5.182,13.599l5.182-13.599h7.772l3.441,30.856L211.224,306.072L211.224,306.072z M212.965,268.081v-31.083
	c14.532-0.27,21.09-0.472,21.09,10.051c0,3.158-1.665,5.605-5.06,7.123c2.068,4.191,6.194,13.923,6.194,13.923l-9.27-0.015
	l-5.223-13.949l0.041,13.949L212.965,268.081L212.965,268.081z M238.304,346.654l-15.625-0.041v-30.611h15.544l1.578,6.611h-9.35
	v5.263h6.395l0.081,6.272h-6.477v5.383l9.918-0.08L238.304,346.654L238.304,346.654z M263.914,346.654l-1.35-4.776h-10.201
	l-1.484,4.83l-8.501-0.054l9.931-30.652h10.525l10.173,30.652H263.914L263.914,346.654z M265.427,296.387l0.202,9.672l-8.421,0.014
	c0,0-0.202-20.075-0.202-30.221c12.467,0,21.699-1.646,21.699,9.85C278.703,292.177,276.518,296.548,265.427,296.387
	L265.427,296.387z M290.036,329.17v7.001l-5.828-0.041v10.522h-8.097c0,0,0.082-20.291,0.082-30.651h14.49
	c0.864,2.373,1.942,7.177,1.942,7.177h-8.419v5.951L290.036,329.17L290.036,329.17z M295.867,346.844v-7.527
	c0,0,11.659,2.535,11.74-1.646c0.055-2.904-3.977-3.503-7.156-5.009c-3.693-1.75-4.825-4.38-4.825-7.538
	c0-7.852,5.667-10.266,12.258-10.266c2.517,0,3.689,0.39,6.809,0.834l-0.041,7.515c-3.232-1.45-11.091-2.079-11.091,1.591
	c0,3.668,11.82,3.318,12.79,11.576C317.417,345.455,308.557,348.178,295.867,346.844L295.867,346.844z M322.624,306.059h-16.841
	l-0.202-30.855h16.193l1.295,7.016h-9.067v4.909h6.286v6.424h-6.286v5.314l9.905-0.028L322.624,306.059L322.624,306.059z
	 M324.365,244.768h-5.829v23.312h-8.419v-23.338l-6.477,0.026l1.579-7.771h19.147v7.771H324.365z M342.014,268.513
	c-9.061,0-16.407-7.345-16.407-16.405s7.346-16.405,16.407-16.405c9.06,0,16.408,7.345,16.408,16.405
	S351.074,268.513,342.014,268.513z"/>
<ellipse fill="#003876" cx="193.617" cy="252.189" rx="8.177" ry="8.5"/>
<ellipse fill="#003876" cx="254.174" cy="252.189" rx="8.178" ry="8.5"/>
<ellipse fill="#003876" cx="341.933" cy="252.189" rx="8.178" ry="8.5"/>
</svg>
