<?xml version="1.0" encoding="utf-8"?>
<!-- Generator: Adobe Illustrator 16.0.0, SVG Export Plug-In . SVG Version: 6.00 Build 0)  -->
<!DOCTYPE svg PUBLIC "-//W3C//DTD SVG 1.1//EN" "http://www.w3.org/Graphics/SVG/1.1/DTD/svg11.dtd">
<svg version="1.1" id="Layer_1" xmlns="http://www.w3.org/2000/svg" xmlns:xlink="http://www.w3.org/1999/xlink" x="0px" y="0px"
	 width="425px" height="425px" viewBox="0 0 425 425" enable-background="new 0 0 425 425" xml:space="preserve">
<path fill="#203C73" stroke="#FFFFFF" stroke-width="5" stroke-miterlimit="10" d="M359.028,222.49
	c5.33-21.157,12.97-46.301,17.484-66.052c-21.414-4.708-45.554-6.691-67.356-11.01c-14.154,7.216-28.249,17.948-41.449,23.962
	c6.488-29.13,13.594-58.64,20.198-87.654c-6.438,0.405-11.792,0.782-18.136-0.364c-10.072-1.82-23.058-14.926-30.336-20.921
	c-10.177-8.376-27.912-23.601-27.912-23.601s-26.846,22.989-40.965,34.753c-8.873,7.393-16.889,12.56-34.974,10.362
	c6.238,29.379,20.078,86.777,20.078,86.777s-29.298-16.442-40.804-23.314c-22.341,3.783-45.284,6.961-68.006,10.362
	c4.113,20.007,11.816,44.418,17.488,66.7c1.955,7.678,5.025,17.384,3.887,23.962c-1.09,6.286-6.083,8.84-9.714,14.894
	c7.951,4.857,18.437,9.241,29.84,15.221c8.937,4.686,24.551,10.992,25.859,21.045c0.873,6.715-3.188,12.455-5.829,18.135
	c-2.566,5.516-5.269,10.839-8.158,16.188h92.356v57.636h38.214v-57.636h92.587c-3.354-5.231-6.492-10.595-9.039-16.188
	c-2.604-5.725-6.186-12.458-5.182-18.78c1.576-9.895,17.227-14.802,25.907-19.428c10.828-5.771,20.924-11.452,29.792-15.54
	c-2.215-6.406-8.58-8.914-9.716-15.542C353.997,239.755,357.062,230.298,359.028,222.49L359.028,222.49z"/>
<path fill="#F1F2F2" d="M174.791,197.474c2.806,0,5.641,1.348,5.641,4.857c0.055,2.915-1.998,4.776-5.641,4.856V197.474z"/>
<path fill="#F1F2F2" d="M219.48,236.357c7.666,0,7.772,8.742-0.054,8.742L219.48,236.357z"/>
<polygon fill="#F1F2F2" points="192.547,238.555 195.583,248.956 189.633,248.984 "/>
<polygon fill="#F1F2F2" points="211.311,279.049 214.67,289.794 208.417,289.781 211.311,279.049 "/>
<path fill="#F1F2F2" d="M255.939,253.044l-1.983,8.015h-16.841c0-10.576-0.202-30.854-0.202-30.854l8.419-0.056v22.937l10.605-0.041
	H255.939z"/>
<polygon fill="#F1F2F2" points="227.199,192.01 236.104,191.997 246.625,207.539 246.625,191.997 254.396,191.997 254.396,223.08 
	246.518,223.08 235.614,207.107 235.614,223.08 227.193,223.08 227.193,192.01 227.199,192.01 "/>
<circle fill="#F1F2F2" cx="208.092" cy="207.107" r="16.405"/>
<path fill="#F1F2F2" d="M208.617,261.059h-9.067l-1.93-5.301l-9.77,0.014l-1.728,5.287h-8.595
	c3.456-10.574,6.231-20.754,10.16-30.854h10.364C201.816,240.471,205.214,250.43,208.617,261.059L208.617,261.059z"/>
<polygon fill="#F1F2F2" points="130.047,199.498 124.218,199.498 124.218,223.08 115.799,223.08 115.799,199.418 109.322,199.39 
	110.617,191.997 130.048,191.997 130.047,199.498 "/>
<circle fill="#F1F2F2" cx="147.534" cy="207.107" r="16.408"/>
<polygon fill="#F1F2F2" points="170.648,301.654 153.363,301.654 153.363,271.002 161.782,271.002 161.782,294.316 172.429,294.316 
	170.648,301.654 "/>
<polygon fill="#F1F2F2" points="165.224,261.072 163.766,246.732 157.33,260.939 150.489,246.936 148.384,261.062 140.612,261.062 
	144.565,230.206 152.067,230.206 157.249,243.805 162.431,230.206 170.203,230.206 173.644,261.062 165.224,261.072 "/>
<path fill="#F1F2F2" d="M166.965,223.081v-31.083c14.532-0.27,21.09-0.472,21.09,10.051c0,3.158-1.665,5.605-5.06,7.123
	c2.068,4.191,6.194,13.923,6.194,13.923l-9.27-0.015l-5.223-13.949l0.041,13.949L166.965,223.081L166.965,223.081z"/>
<polygon fill="#F1F2F2" points="192.304,301.654 176.679,301.613 176.679,271.002 192.223,271.002 193.801,277.613 184.451,277.613 
	184.451,282.876 190.846,282.876 190.927,289.148 184.45,289.148 184.45,294.531 194.368,294.451 192.304,301.654 "/>
<polygon fill="#F1F2F2" points="217.914,301.654 216.564,296.878 206.363,296.878 204.879,301.708 196.378,301.654 206.309,271.002 
	216.834,271.002 227.007,301.654 217.914,301.654 "/>
<path fill="#F1F2F2" d="M219.427,251.387l0.202,9.672l-8.421,0.015c0,0-0.202-20.075-0.202-30.222
	c12.467,0,21.699-1.646,21.699,9.851C232.703,247.177,230.518,251.548,219.427,251.387L219.427,251.387z"/>
<path fill="#F1F2F2" d="M244.036,284.17v7.001l-5.828-0.041v10.522h-8.097c0,0,0.082-20.291,0.082-30.651h14.49
	c0.863,2.373,1.941,7.177,1.941,7.177h-8.419v5.951L244.036,284.17L244.036,284.17z"/>
<path fill="#F1F2F2" d="M249.867,301.844v-7.527c0,0,11.659,2.535,11.74-1.646c0.055-2.903-3.978-3.503-7.156-5.009
	c-3.693-1.75-4.825-4.38-4.825-7.538c0-7.853,5.667-10.267,12.258-10.267c2.518,0,3.689,0.391,6.81,0.834l-0.041,7.516
	c-3.232-1.45-11.092-2.079-11.092,1.591c0,3.668,11.82,3.318,12.79,11.576C271.417,300.455,262.557,303.178,249.867,301.844
	L249.867,301.844z"/>
<polygon fill="#F1F2F2" points="276.624,261.059 259.783,261.059 259.581,230.204 275.774,230.204 277.069,237.22 268.002,237.22 
	268.002,242.129 274.288,242.129 274.288,248.553 268.002,248.553 268.002,253.867 277.907,253.839 276.624,261.059 "/>
<polygon fill="#F1F2F2" points="278.365,199.768 272.536,199.768 272.536,223.08 264.117,223.08 264.117,199.742 257.641,199.768 
	259.219,191.997 278.366,191.997 278.366,199.768 "/>
<circle fill="#F1F2F2" cx="296.014" cy="207.108" r="16.405"/>
<ellipse fill="#203C73" cx="208.617" cy="207.189" rx="8.177" ry="8.5"/>
<ellipse fill="#203C73" cx="147.617" cy="207.189" rx="8.177" ry="8.5"/>
<ellipse fill="#203C73" cx="296.617" cy="207.189" rx="8.177" ry="8.5"/>
<path fill="#203C73" d="M174.791,197.474c2.806,0,5.641,1.348,5.641,4.857c0.055,2.915-1.998,4.776-5.641,4.856V197.474z"/>
<path fill="#203C73" d="M219.48,236.357c7.666,0,7.772,8.742-0.054,8.742L219.48,236.357z"/>
<polygon fill="#203C73" points="211.547,279.555 214.583,289.956 208.633,289.984 "/>
<polygon fill="#203C73" points="192.547,238.555 195.583,248.956 189.633,248.984 "/>
</svg>
