<?xml version="1.0" encoding="utf-8"?>
<!-- Generator: Adobe Illustrator 16.0.0, SVG Export Plug-In . SVG Version: 6.00 Build 0)  -->
<!DOCTYPE svg PUBLIC "-//W3C//DTD SVG 1.1//EN" "http://www.w3.org/Graphics/SVG/1.1/DTD/svg11.dtd">
<svg version="1.1" id="Layer_1" xmlns="http://www.w3.org/2000/svg" xmlns:xlink="http://www.w3.org/1999/xlink" x="0px" y="0px"
	 width="612px" height="792px" viewBox="0 0 612 792" enable-background="new 0 0 612 792" xml:space="preserve">
<path fill="#203C73" stroke="#FFFFFF" stroke-width="5" stroke-miterlimit="10" d="M454.028,405.49
	c5.33-21.157,12.97-46.301,17.484-66.052c-21.414-4.708-45.554-6.691-67.356-11.01c-14.154,7.216-28.249,17.948-41.449,23.962
	c6.488-29.13,13.594-58.64,20.198-87.654c-6.438,0.405-11.792,0.782-18.136-0.364c-10.072-1.82-23.058-14.926-30.336-20.921
	c-10.177-8.376-27.912-23.601-27.912-23.601s-26.846,22.989-40.965,34.753c-8.873,7.393-16.889,12.56-34.974,10.362
	c6.238,29.379,20.078,86.777,20.078,86.777s-29.298-16.442-40.804-23.314c-22.341,3.783-45.284,6.961-68.006,10.362
	c4.113,20.007,11.816,44.418,17.488,66.7c1.955,7.678,5.025,17.384,3.887,23.962c-1.09,6.286-6.083,8.84-9.714,14.894
	c7.951,4.857,18.437,9.241,29.84,15.221c8.937,4.686,24.551,10.992,25.859,21.045c0.873,6.715-3.188,12.455-5.829,18.135
	c-2.566,5.516-5.269,10.839-8.158,16.188h92.356v57.636h38.214v-57.636h92.587c-3.354-5.231-6.492-10.595-9.039-16.188
	c-2.604-5.725-6.186-12.458-5.182-18.78c1.576-9.895,17.227-14.802,25.907-19.428c10.828-5.771,20.924-11.452,29.792-15.54
	c-2.215-6.406-8.58-8.914-9.716-15.542C448.997,422.755,452.062,413.298,454.028,405.49L454.028,405.49z"/>
<path fill="#F1F2F2" d="M269.791,380.474c2.806,0,5.641,1.348,5.641,4.857c0.055,2.915-1.998,4.776-5.641,4.856V380.474z"/>
<path fill="#F1F2F2" d="M314.48,419.357c7.666,0,7.772,8.742-0.054,8.742L314.48,419.357z"/>
<polygon fill="#F1F2F2" points="287.547,421.555 290.583,431.956 284.633,431.984 "/>
<polygon fill="#F1F2F2" points="306.311,462.049 309.67,472.794 303.417,472.781 306.311,462.049 "/>
<path fill="#F1F2F2" d="M350.939,436.044l-1.983,8.015h-16.841c0-10.576-0.202-30.854-0.202-30.854l8.419-0.056v22.937l10.605-0.041
	H350.939z"/>
<polygon fill="#F1F2F2" points="322.199,375.01 331.104,374.997 341.625,390.539 341.625,374.997 349.396,374.997 349.396,406.08 
	341.518,406.08 330.614,390.107 330.614,406.08 322.193,406.08 322.193,375.01 322.199,375.01 "/>
<circle fill="#F1F2F2" cx="303.092" cy="390.107" r="16.405"/>
<path fill="#F1F2F2" d="M303.617,444.059h-9.067l-1.93-5.301l-9.77,0.014l-1.728,5.287h-8.595
	c3.456-10.574,6.231-20.754,10.16-30.854h10.364C296.816,423.471,300.214,433.43,303.617,444.059L303.617,444.059z"/>
<polygon fill="#F1F2F2" points="225.047,382.498 219.218,382.498 219.218,406.08 210.799,406.08 210.799,382.418 204.322,382.39 
	205.617,374.997 225.048,374.997 225.047,382.498 "/>
<circle fill="#F1F2F2" cx="242.534" cy="390.107" r="16.408"/>
<polygon fill="#F1F2F2" points="265.648,484.654 248.363,484.654 248.363,454.002 256.782,454.002 256.782,477.316 267.429,477.316 
	265.648,484.654 "/>
<polygon fill="#F1F2F2" points="260.224,444.072 258.766,429.732 252.33,443.939 245.489,429.936 243.384,444.062 235.612,444.062 
	239.565,413.206 247.067,413.206 252.249,426.805 257.431,413.206 265.203,413.206 268.644,444.062 260.224,444.072 "/>
<path fill="#F1F2F2" d="M261.965,406.081v-31.083c14.532-0.27,21.09-0.472,21.09,10.051c0,3.158-1.665,5.605-5.06,7.123
	c2.068,4.191,6.194,13.923,6.194,13.923l-9.27-0.015l-5.223-13.949l0.041,13.949L261.965,406.081L261.965,406.081z"/>
<polygon fill="#F1F2F2" points="287.304,484.654 271.679,484.613 271.679,454.002 287.223,454.002 288.801,460.613 279.451,460.613 
	279.451,465.876 285.846,465.876 285.927,472.148 279.45,472.148 279.45,477.531 289.368,477.451 287.304,484.654 "/>
<polygon fill="#F1F2F2" points="312.914,484.654 311.564,479.878 301.363,479.878 299.879,484.708 291.378,484.654 301.309,454.002 
	311.834,454.002 322.007,484.654 312.914,484.654 "/>
<path fill="#F1F2F2" d="M314.427,434.387l0.202,9.672l-8.421,0.015c0,0-0.202-20.075-0.202-30.222
	c12.467,0,21.699-1.646,21.699,9.851C327.703,430.177,325.518,434.548,314.427,434.387L314.427,434.387z"/>
<path fill="#F1F2F2" d="M339.036,467.17v7.001l-5.828-0.041v10.522h-8.097c0,0,0.082-20.291,0.082-30.651h14.49
	c0.863,2.373,1.941,7.177,1.941,7.177h-8.419v5.951L339.036,467.17L339.036,467.17z"/>
<path fill="#F1F2F2" d="M344.867,484.844v-7.527c0,0,11.659,2.535,11.74-1.646c0.055-2.903-3.978-3.503-7.156-5.009
	c-3.693-1.75-4.825-4.38-4.825-7.538c0-7.853,5.667-10.267,12.258-10.267c2.518,0,3.689,0.391,6.81,0.834l-0.041,7.516
	c-3.232-1.45-11.092-2.079-11.092,1.591c0,3.668,11.82,3.318,12.79,11.576C366.417,483.455,357.557,486.178,344.867,484.844
	L344.867,484.844z"/>
<polygon fill="#F1F2F2" points="371.624,444.059 354.783,444.059 354.581,413.204 370.774,413.204 372.069,420.22 363.002,420.22 
	363.002,425.129 369.288,425.129 369.288,431.553 363.002,431.553 363.002,436.867 372.907,436.839 371.624,444.059 "/>
<polygon fill="#F1F2F2" points="373.365,382.768 367.536,382.768 367.536,406.08 359.117,406.08 359.117,382.742 352.641,382.768 
	354.219,374.997 373.366,374.997 373.366,382.768 "/>
<circle fill="#F1F2F2" cx="391.014" cy="390.108" r="16.405"/>
<ellipse fill="#203C73" cx="303.617" cy="390.189" rx="8.177" ry="8.5"/>
<ellipse fill="#203C73" cx="242.617" cy="390.189" rx="8.177" ry="8.5"/>
<ellipse fill="#203C73" cx="391.617" cy="390.189" rx="8.177" ry="8.5"/>
<path fill="#203C73" d="M269.791,380.474c2.806,0,5.641,1.348,5.641,4.857c0.055,2.915-1.998,4.776-5.641,4.856V380.474z"/>
<path fill="#203C73" d="M314.48,419.357c7.666,0,7.772,8.742-0.054,8.742L314.48,419.357z"/>
<polygon fill="#203C73" points="306.547,462.555 309.583,472.956 303.633,472.984 "/>
<polygon fill="#203C73" points="287.547,421.555 290.583,431.956 284.633,431.984 "/>
</svg>
