<?xml version="1.0" encoding="utf-8"?>
<!-- Generator: Adobe Illustrator 16.0.4, SVG Export Plug-In . SVG Version: 6.00 Build 0)  -->
<!DOCTYPE svg PUBLIC "-//W3C//DTD SVG 1.1//EN" "http://www.w3.org/Graphics/SVG/1.1/DTD/svg11.dtd">
<svg version="1.1"
	 id="svg2" xmlns:sodipodi="http://sodipodi.sourceforge.net/DTD/sodipodi-0.dtd" xmlns:svg="http://www.w3.org/2000/svg" xmlns:dc="http://purl.org/dc/elements/1.1/" xmlns:cc="http://creativecommons.org/ns#" xmlns:rdf="http://www.w3.org/1999/02/22-rdf-syntax-ns#" xmlns:inkscape="http://www.inkscape.org/namespaces/inkscape" inkscape:version="0.47 r22583" sodipodi:docname="Vancouver_Canucks_logo.svg"
	 xmlns="http://www.w3.org/2000/svg" xmlns:xlink="http://www.w3.org/1999/xlink" x="0px" y="0px" viewBox="0 0 200.1 192.818" enable-background="new 0 0 200.1 192.818" xml:space="preserve">
<defs>
	
	
		<inkscape:perspective  id="perspective44" inkscape:persp3d-origin="250 : 160.63333 : 1" inkscape:vp_z="500 : 240.95 : 1" sodipodi:type="inkscape:persp3d" inkscape:vp_x="0 : 240.95 : 1" inkscape:vp_y="0 : 1000 : 0">
		</inkscape:perspective>
</defs>
<sodipodi:namedview  guidetolerance="10" showgrid="false" inkscape:zoom="0.48972817" inkscape:cy="240.45" bordercolor="#666666" pagecolor="#ffffff" inkscape:cx="250.5" objecttolerance="10" gridtolerance="10" borderopacity="1" id="namedview38" inkscape:window-maximized="1" inkscape:current-layer="svg2" inkscape:window-y="-4" inkscape:window-x="-4" inkscape:pageopacity="0" inkscape:window-width="1280" inkscape:pageshadow="2" inkscape:window-height="714">
	</sodipodi:namedview>
<g>
	<path id="path4" fill="#A7A9AC" d="M99.39,119.476l42.573-21.206c29.129,8.163,37.771,19.206,37.771,19.206l16.685-18.846
		c0.92-0.96,3.681-4.361,3.681-10.563c0-6.722-7.002-11.884-11.884-15.405c-8.282-21.766-54.216-28.088-57.617-35.65
		c-1.16-2.601-7.882-25.288-7.882-25.288C118.716,0,106.912,0,102.471,0c-4.481,0-14.044,1.521-14.044,1.521
		c0,16.325-2.201,36.251-4.521,39.892c0,0-8.283,4.361-18.045,7.842L42.653,33.61l6.122,21.086C9.563,76.223,0,113.754,0,113.754
		s10.083,79.064,109.193,79.064c52.416,0,82.665-25.328,82.665-25.328l-16.885-37.771c0,0-25.768,13.404-58.738,13.404
		c-30.369,0-42.252-14.165-46.614-22.407C95.349,121.517,99.39,119.476,99.39,119.476z"/>
	<polygon id="polygon6" fill="#A7A9AC" points="40.412,95.509 66.1,78.224 64.179,91.948 	"/>
	<polygon id="polygon8" fill="#A7A9AC" points="72.062,75.863 67.26,64.299 85.826,53.896 	"/>
	<polygon id="polygon10" fill="#A7A9AC" points="78.543,74.542 89.547,83.745 67.38,80.744 	"/>
	<path id="path12" fill="#003E7E" d="M184.615,75.623c-8.083-21.886-52.736-25.888-57.697-36.171
		c-1.96-4.161-4.521-14.044-8.202-26.087c-2.961-8.723-11.684-8.723-16.045-8.723c-4.161,0-9.563,0.88-9.563,0.88
		c0,8.883-1.681,34.771-5.802,39.292c-1.041,1.28-8.643,4.361-16.925,7.562l2.481,1.68l-2.521,2.521
		c8.242-4.321,15.125-5.842,19.246-9.283c6.002-6.162,81.064,36.931,76.783,36.931c-1.881,0-8.803,2.681-14.564,4.961
		c19.246,6.322,29.088,13.124,30.409,14.084l-2.841,3.201c0,0-11.404-9.243-38.092-16.325c-11.483,5.762-45.173,0.64-45.173,0.64
		c-18.565,3.801-36.291,21.446-37.171,22.327c2.521,12.404,14.645,38.012,57.458,38.012c30.929,0,54.856-10.803,54.856-10.803
		l11.083,24.807c0,0-29.048,20.126-72.982,20.126c-89.827,0-101.23-70.621-101.23-70.621c12.404-33.13,33.25-47.654,46.494-53.776
		l-4.161-0.48l-0.36-1.24C15.084,78.503,4.761,114.274,4.761,114.274s10.644,74.302,104.631,74.302
		c48.095,0,77.184-22.287,77.184-22.287l-13.604-30.409c0,0-25.407,11.923-56.537,11.923c-46.374,0-53.216-31.649-53.216-31.649
		s26.408,1.601,34.851-0.68l43.653-21.807c29.569,8.323,38.091,17.365,38.091,17.365l13.524-15.245c0,0,2.481-2.321,2.481-7.562
		C195.819,83.345,188.497,78.423,184.615,75.623"/>
	<path id="path14" fill="#002E56" d="M173.612,77.143c-18.526-1.48-25.728-7.562-25.728-12.364c0-2.281,2.081-2.721,3.521-2.721
		c7.562,0,19.246,6.002,21.167,11.083c-3.321-3.561-9.123-6.682-13.524-6.682c-0.96,0-1.921,0.28-1.921,1.44
		c0,3.001,5.322,7.682,24.728,9.843c-7.442-21.446-48.455-22.967-57.657-36.411c-2.561-3.721-6.802-27.688-11.083-30.929
		c-4.681-3.601-16.725-1.961-16.725-1.961c0,3.321-0.8,32.69-6.882,38.812c-4.081,3.441-11.003,4.962-19.246,9.283L65.5,61.338
		l-5.241,16.405l-6.802-3.561l2.441,6.042l-12.164,2.041l6.882,2.361L30.769,99.83l5.362,0.4l-7.042,12.764
		c10.203-4.602,13.284-5.522,13.284-5.522l-2.921-3.001l20.526-8.282c0,0-1.561,4.121-1.561,12.083c0,1.16,0.16,2.801,0.56,4.761
		c0.88-1.68,17.045-31.449,51.656-33.49l-43.213,33.45c0,0,23.687,1,29.489-0.641c18.285-8.482,32.93-16.445,44.413-22.207
		c11.003-5.521,19.166-9.002,24.768-9.002c6.922,0,16.605,6.722,24.808,12.403c0,0,0.52-0.44,0.96-1.32
		C193.858,85.025,183.535,79.504,173.612,77.143"/>
	<path id="path5" fill="#FFFFFF" d="M58.978,113.074L58.978,113.074c0.88-0.84,18.606-18.485,37.171-22.287l14.484-11.203
		C76.023,81.625,59.858,111.394,58.978,113.074"/>
	<path id="path7" fill="#FFFFFF" d="M192.538,89.106c0-4.401-5.802-7.362-10.723-11.323c-19.446-2.161-24.728-6.842-24.728-9.843
		c0-1.16,1-1.44,1.921-1.44c4.401,0,10.243,3.121,13.524,6.682c-1.92-5.082-13.604-11.083-21.167-11.083
		c-1.44,0-3.521,0.44-3.521,2.721c0,4.802,7.202,10.843,25.728,12.364c9.923,2.361,20.246,7.882,18.245,15.044
		C192.218,91.467,192.538,90.427,192.538,89.106"/>
	<path id="path9" fill="#FFFFFF" d="M156.127,89.067l7.202,2.561c1.32-0.56,2.761-1.28,2.881-1.44c0.08-0.2,0.08-0.36-0.2-0.64
		c-0.2-0.2-3.441-1.4-5.441-2.121L156.127,89.067z"/>
	<path id="path11" fill="#FFFFFF" d="M162.208,86.786c1.921,0.76,4.562,1.84,4.802,1.88c0.32,0.04,0.8,0.08,1.12,0
		c0.24-0.08,1.801-0.88,2.961-1.44c-1.12-0.56-3.361-1.601-4.881-1.601C164.77,85.586,162.208,86.786,162.208,86.786"/>
	<path id="path13" fill="#FFFFFF" d="M169.331,89.267c-0.08,0.16,0,0.24,0.24,0.44c0.28,0.2,4.042,2.161,4.321,2.161
		c0.28,0.04,0.56,0.04,0.84-0.04c0.2-0.04,1.521-0.88,2.401-1.48l-5.001-2.681C170.851,88.347,169.451,89.107,169.331,89.267"/>
	<path id="path15" fill="#FFFFFF" d="M172.892,93.228c0.08-0.2,0.12-0.32,0.08-0.48c-0.24-0.28-3.961-2.201-4.361-2.241
		c-0.44-0.04-0.68-0.04-1.04,0.12c-0.32,0.16-2.201,1.201-2.881,1.561l5.802,2.641C171.611,94.148,172.772,93.388,172.892,93.228"/>
	<path id="path17" fill="#FFFFFF" d="M180.014,95.269c0.12,0.04,0.52-0.08,0.92-0.2c0.2-0.08,1.081-0.76,1.641-1.24l-4.481-2.841
		c-1.08,0.68-2.201,1.44-2.321,1.601c0,0.04,0,0.16,0.24,0.48L180.014,95.269z"/>
	<path id="path19" fill="#FFFFFF" d="M181.854,95.708c-0.12,0.24-0.16,0.36-0.08,0.44c0.16,0.12,2.481,1.68,4.042,2.721l1.8-1.8
		l-4.121-2.681C182.735,94.948,181.935,95.589,181.854,95.708"/>
	<path id="path21" fill="#FFFFFF" d="M179.294,96.469c0.08-0.12,0.04-0.36-0.12-0.52c-0.24-0.24-3.801-2.161-4.082-2.201
		c-0.32-0.08-0.84,0-1.16,0.12c-0.16,0.04-1.2,0.76-2.161,1.48l5.481,2.561C178.173,97.309,179.214,96.629,179.294,96.469"/>
	<path id="path23" fill="#FFFFFF" d="M180.254,97.189c-0.16,0.04-1.2,0.84-1.96,1.44l4.961,3.081l1.841-2.041
		c-1.521-1.041-3.681-2.521-3.881-2.601C181.014,97.029,180.494,97.109,180.254,97.189"/>
	<path id="path29" fill="#AEB0B2" d="M77.143,76.983l8.482,4.921l-14.444-1.76L77.143,76.983z M78.543,74.542L67.42,80.744
		l22.126,3.001L78.543,74.542z"/>
	<path id="path31" fill="#AEB0B2" d="M62.419,90.627l-15.765,2.441l17.405-11.804L62.419,90.627z M64.179,91.948l1.96-13.724
		L40.412,95.509L64.179,91.948z"/>
	<path id="path33" fill="#AEB0B2" d="M70.061,64.939l11.764-6.642L71.662,72.062L70.061,64.939z M85.826,53.896L67.22,64.299
		l4.841,11.563L85.826,53.896z"/>
	<path id="path41" fill="#003E7E" d="M169.451,144.963c-7.762,3.001-28.008,9.763-52.976,9.763
		c-49.255,0-61.659-33.73-61.659-46.454c0-2.801,0.2-5.202,0.44-7.122l-11.323,3.761l1.48,3.201l-8.843,3.201l-7.602,5.001
		l15.484,2.881l-3.201,11.043l6.642-1.961l6.362,16.205l7.642-1l2.521,11.404c0,0,14.364,9.963,38.651,12.124
		c32.09,2.881,60.858-8.083,60.858-8.083s-34.291,13.444-65.419,10.123c-23.807-2.521-39.292-12.204-39.292-12.204l-0.2-10.283
		l-9.403,0.12l-4.441-15.725l-8.362,3.921l3.681-14.084l-16.045-1.961l3.281-9.843l3.801-7.682l-5.122,0.12l21.447-15.965
		l-9.363-3.641l15.245-2.921l-5.322-10.683l9.403,5.361l3.721-11.684c-11.284,3.921-35.571,16.405-49.615,53.096
		c1.721,8.402,16.405,66.66,97.469,66.66c35.011,0,60.579-13.284,68.421-17.925L169.451,144.963z"/>
	<polygon id="polygon43" fill="#003E7E" points="64.459,61.258 69.101,55.017 46.494,39.372 52.976,58.417 	"/>
	<path id="path45" fill="#FFFFFF" d="M117.996,45.534c0,0-6.282-2.641-7.962-4.801c-1.681-2.121-3.681-23.487-3.681-23.487
		s-0.36,21.767-1.601,23.727c-1.28,1.921-7.522,5.522-7.522,5.522s6.922-2.281,10.323-2.441
		C110.073,43.893,117.996,45.534,117.996,45.534"/>
	<path id="path32" fill="#FFFFFF" d="M107.592,44.053c-3.401,0.2-10.323,2.441-10.323,2.441s6.242-3.601,7.482-5.522
		c1.24-1.92,1.601-23.727,1.601-23.727s2,21.327,3.681,23.487c1.72,2.161,8.002,4.801,8.002,4.801S110.073,43.893,107.592,44.053"/>
	<path id="path25" fill="#FFFFFF" d="M141.322,90.147c26.688,7.082,38.091,16.325,38.091,16.325l2.841-3.201
		c-1.321-0.96-11.164-7.762-30.409-14.084c5.722-2.28,12.684-4.961,14.564-4.961c4.242,0,13.004,5.562,22.407,11.684l2.161-2.401
		c-8.202-5.682-17.845-12.403-24.807-12.403C160.488,81.104,152.366,84.585,141.322,90.147"/>
	<polygon id="polygon37" fill="#003E7E" points="85.625,81.904 77.143,76.983 71.141,80.144 	"/>
	<polygon id="polygon39" fill="#003E7E" points="70.061,64.939 71.662,72.021 81.825,58.297 	"/>
	<polygon id="polygon35" fill="#003E7E" points="64.059,81.304 46.654,93.108 62.419,90.627 	"/>
</g>
</svg>
