<?xml version="1.0" encoding="utf-8"?>
<!-- Generator: Adobe Illustrator 16.0.4, SVG Export Plug-In . SVG Version: 6.00 Build 0)  -->
<!DOCTYPE svg PUBLIC "-//W3C//DTD SVG 1.1//EN" "http://www.w3.org/Graphics/SVG/1.1/DTD/svg11.dtd">
<svg version="1.1"
	 id="svg2" xmlns:sodipodi="http://sodipodi.sourceforge.net/DTD/sodipodi-0.dtd" xmlns:svg="http://www.w3.org/2000/svg" xmlns:dc="http://purl.org/dc/elements/1.1/" xmlns:cc="http://creativecommons.org/ns#" xmlns:rdf="http://www.w3.org/1999/02/22-rdf-syntax-ns#" xmlns:inkscape="http://www.inkscape.org/namespaces/inkscape" sodipodi:version="0.32" inkscape:output_extension="org.inkscape.output.svg.inkscape" inkscape:version="0.46" sodipodi:docname="Washington Capitals.svg"
	 xmlns="http://www.w3.org/2000/svg" xmlns:xlink="http://www.w3.org/1999/xlink" x="0px" y="0px" viewBox="1 1.222 225 144.556" enable-background="new 1 1.222 225 144.556" xml:space="preserve">
<defs>
	
	
		<inkscape:perspective  id="perspective9" inkscape:persp3d-origin="372.04724 : 350.78739 : 1" inkscape:vp_z="744.09448 : 526.18109 : 1" sodipodi:type="inkscape:persp3d" inkscape:vp_x="0 : 526.18109 : 1" inkscape:vp_y="0 : 1000 : 0">
		</inkscape:perspective>
</defs>
<sodipodi:namedview  guidetolerance="10.0" showgrid="false" inkscape:zoom="1.4784" inkscape:cy="216.00816" bordercolor="#666666" pagecolor="#ffffff" inkscape:cx="144.80137" objecttolerance="10.0" gridtolerance="10.0" borderopacity="1.0" id="base" inkscape:current-layer="g11" inkscape:window-y="-4" inkscape:window-x="-4" inkscape:pageopacity="0.0" inkscape:window-width="1280" inkscape:pageshadow="2" inkscape:window-height="904">
	</sodipodi:namedview>
<g id="g15">
	<g id="g21" transform="translate(202.3335,398)">
		<path id="path23" fill="#FFFFFF" d="M-166.057-331.348c0,0,1.154-14.341,5.909-14.341h8.711c0,0,0.875-20.327,8.407-20.327h86.822
			l13.149-30.762h14.05l-27.136,65.43h17.081c7.189,0,10.613,5.516,10.613,5.516l14.05-34.453h14.233l-12.788,31.321
			c0,0,4.286-2.333,6.518-2.333h30.103l-5.021,12.122h-4.641c0,0,2.587,2.587,2.587,6.125c0,5.326-4.983,12.135-11.374,12.135
			h-60.866c-5.63,0-10.138-4.507-10.081-7.722l-7.151,17.562c0,0-0.324,0.583-0.324,1.801s0.13,1.347,0.324,1.541l15.647,13.422
			l8.014-9.903l25.906-0.038l-11.26,14.075h-20.618l-12.262,17.956c0,0-14.76-23.18-16.383-25.919s-2.181-7-2.181-9.231
			c0-6.036,1.713-10.015,2.181-11.209l0.913-2.333h-41.845l-5.681,13.999h-14.253l5.833-14.05h-18.691
			c-5.135,0-8.134-4.863-8.134-4.863s-6.6,4.914-11.571,4.914h-14.303c-6.036,0-9.764-5.453-9.764-9.181
			c0-8.445,12.807-21.252,29.165-21.252H-166.057z"/>
	</g>
	<g id="g25" transform="translate(179.5083,369.333)">
		<path id="path27" fill="#00214D" d="M-150.178-293.957h8.633l2.192-5.3h-9.382c-13.771,0-26.248,10.407-26.248,17.829
			c0,3.854,4.298,5.731,5.224,5.731h14.963c3.855,0,10.601-4.818,10.601-4.818l-5.326-2.485c0,0-2.637,1.927-4.514,1.927h-12.833
			c-0.964,0-1.369-0.71-1.369-1.725C-168.237-285.055-162.81-293.957-150.178-293.957"/>
	</g>
	<g id="g29" transform="translate(271.3125,326.9688)">
		<path id="path31" fill="#00214D" d="M-214.043-238.7l-11.521-0.009c-0.685,0-0.785-0.761-0.785-1.217s0.875-3.082,3.462-3.082
			h10.785c0.609,0,2.834-0.951,2.834-0.951S-210.734-238.7-214.043-238.7 M-209.593-256.893h-17.544l-2.161,5.3h18.745
			c2.918,0,3.262,1.167,3.262,2.993H-221.1c-8.144,0-11.603,5.772-11.603,8.597c0,4.895,4.432,6.657,6.505,6.657h9.168
			c1.712,0,3.804-1.408,3.804-1.408l-0.532,1.42l6.676-0.006l5.218-12.433c0.471-1.123,1.116-3.259,1.116-4.248
			C-200.748-253.951-203.906-256.893-209.593-256.893"/>
	</g>
	<g id="g33" transform="translate(288.75,263.5)">
		<path id="path35" fill="#00214D" d="M-226.174-155.916l6.518-14.735c0.885-2.001,6.563-22.773,28.251-22.773h15.901l-6.847,16.662
			c-1.371,3.337-4.388,6.898-7.76,6.898h-19.908l2.181-5.376h15.901c2.417,0,3.092-1.867,3.779-3.601l3.677-9.282h-6.467
			c-9.377,0-17.131,5.824-19.325,11.006l-8.978,21.202H-226.174z"/>
	</g>
	<g id="g37" transform="translate(456.3677,359.625)">
		<path id="path39" fill="#00214D" d="M-342.781-281.294l-6.281,15.305h6.645l6.293-15.305H-342.781z"/>
	</g>
	<g id="g41" transform="translate(482.2339,369.333)">
		<path id="path43" fill="#00214D" d="M-360.775-293.957l2.179-5.3h-6.664l-2.175,5.3H-360.775z"/>
	</g>
	<g id="g45" transform="translate(498.25,386.75)">
		<path id="path47" fill="#00214D" d="M-371.917-316.674l-2.115,5.3h7.935l-10.665,25.563c-0.774,1.856-1.724,4.463-1.724,10.753
			c0,2.232,0.412,4.442,1.014,5.376c0.603,0.935,14.304,22.165,14.304,22.165l8.673-12.325l-17.081-14.265
			c-0.516-0.431-0.976-1.56-0.976-3.792s0.431-2.901,1.014-4.312l41.312-99.972h-6.505l-27.011,65.507H-371.917z"/>
	</g>
	<g id="g49" transform="translate(603.625,326.9482)">
		<path id="path51" fill="#00214D" d="M-445.224-238.673l-11.521-0.009c-0.685,0-0.785-0.761-0.785-1.217
			c0-0.457,0.875-3.082,3.461-3.082h10.785c0.609,0,2.834-0.951,2.834-0.951S-441.915-238.673-445.224-238.673 M-440.773-256.866
			h-19.782l-2.16,5.3h20.982c2.918,0,3.262,1.167,3.262,2.993h-13.809c-8.144,0-11.603,5.772-11.603,8.597
			c0,4.895,4.432,6.657,6.505,6.657h9.168c1.712,0,3.805-1.408,3.805-1.408l-0.533,1.42l6.676-0.006l5.218-12.433
			c0.471-1.123,1.116-3.26,1.116-4.248C-431.929-253.924-435.086-256.866-440.773-256.866"/>
	</g>
	<g id="g53" transform="translate(659.0127,309.333)">
		<path id="path55" fill="#00214D" d="M-483.756-215.697l21.778-52.7h-6.504l-21.73,52.7H-483.756z"/>
	</g>
	<g id="g57" transform="translate(671.0313,309.333)">
		<path id="path59" fill="#00214D" d="M-492.117-215.697l2.133-5.376c0,0,23.421,0.009,24.952,0.009
			c1.531,0,2.729-1.518,2.729-2.342s-0.476-1.509-1.484-1.509h-14.893c-1.598,0-5.256-2.016-5.256-5.414s1.889-8.927,11.913-8.927
			h21.893l-2.181,5.3h-22.444c-1.765,0-2.765,1.801-2.765,2.739c0,0.837,0.837,1.218,1.04,1.218h13.923
			c3.17,0,6.645,1.116,6.645,5.579c0,4.463-2.826,8.724-9.738,8.724H-492.117z"/>
	</g>
	<g id="g61" transform="translate(629.5,209.5)">
		<path id="path63" fill="#CF132B" d="M-463.225-85.482l5.478-6.594h-17.144l-5.225,6.594H-463.225z"/>
	</g>
	<g id="g65" transform="translate(245.4434,412.6484)">
		<path id="path67" fill="#CF132B" d="M-196.047-350.454h-1.967l0.601-5.313l-4.407,5.313h-2.006l0.332-7.312h1.902l-0.207,5.132
			l3.899-5.085h2.109l-0.277,5.03l4.027-5.03h1.884L-196.047-350.454z"/>
	</g>
	<g id="g69" transform="translate(277.4678,421.8984)">
		<path id="path71" fill="#CF132B" d="M-218.326-362.519l-0.018-2.924l-2.813,2.924H-218.326z M-218.306-361.31h-3.747l-1.426,1.605
			h-1.999l6.663-7.266h2.161l0.218,7.266h-1.845L-218.306-361.31z"/>
	</g>
	<g id="g73" transform="translate(289.1177,420.3848)">
		<path id="path75" fill="#CF132B" d="M-226.43-360.545l1.864-0.074c-0.056,0.453-0.01,0.759,0.137,0.917
			c0.237,0.257,0.738,0.386,1.504,0.386c0.636,0,1.112-0.087,1.428-0.263c0.315-0.175,0.496-0.387,0.541-0.634
			c0.039-0.214-0.044-0.396-0.25-0.545c-0.144-0.109-0.56-0.286-1.249-0.531c-0.688-0.245-1.187-0.448-1.495-0.612
			c-0.308-0.164-0.535-0.376-0.681-0.637c-0.146-0.261-0.188-0.566-0.125-0.917c0.111-0.612,0.491-1.119,1.14-1.522
			s1.52-0.604,2.612-0.604c1.109,0,1.932,0.2,2.468,0.6c0.536,0.4,0.774,0.932,0.713,1.596l-1.875,0.064
			c0.016-0.347-0.1-0.612-0.346-0.797c-0.246-0.186-0.642-0.278-1.188-0.278c-0.538,0-0.934,0.072-1.19,0.218
			s-0.405,0.329-0.445,0.55c-0.037,0.208,0.037,0.38,0.223,0.515c0.185,0.139,0.618,0.33,1.296,0.57
			c1.022,0.36,1.662,0.653,1.917,0.877c0.383,0.331,0.528,0.755,0.434,1.274c-0.116,0.641-0.546,1.188-1.288,1.643
			c-0.742,0.455-1.703,0.682-2.88,0.682c-0.813,0-1.498-0.105-2.055-0.315c-0.558-0.209-0.925-0.501-1.103-0.875
			S-226.535-360.059-226.43-360.545"/>
	</g>
	<g id="g77" transform="translate(338.7163,423.3154)">
		<path id="path79" fill="#CF132B" d="M-260.935-364.367h-3.657l-1.472,3.246h-1.948l3.297-7.266h1.941l-1.269,2.805h3.657
			l1.275-2.805h1.941l-3.291,7.266h-1.947L-260.935-364.367z"/>
	</g>
	<g id="g81" transform="translate(345.9678,412.6484)">
		<path id="path83" fill="#CF132B" d="M-265.979-350.454l3.297-7.266h1.941l-3.29,7.266H-265.979z"/>
	</g>
	<g id="g85" transform="translate(384.7886,412.6484)">
		<path id="path87" fill="#CF132B" d="M-292.986-350.454h-1.812l-1.728-4.882l-2.353,4.882h-1.812l3.43-7.266h1.819l1.737,4.862
			l2.006-4.862h1.806L-292.986-350.454z"/>
	</g>
	<g id="g89" transform="translate(410.7495,425.4004)">
		<path id="path91" fill="#CF132B" d="M-311.046-367.087h4.231l-1.416,3.118c-0.544,0.248-1.194,0.458-1.949,0.63
			c-0.755,0.171-1.51,0.257-2.262,0.257c-1.169,0-2.029-0.203-2.579-0.609c-0.75-0.555-1.031-1.36-0.839-2.414
			c0.128-0.707,0.434-1.384,0.917-2.032c0.58-0.78,1.313-1.385,2.199-1.814c0.886-0.43,1.875-0.645,2.967-0.645
			s1.933,0.195,2.522,0.585c0.589,0.39,0.62,1.049,0.699,1.796l-1.841-0.005c-0.085-0.41,0.019-0.646-0.298-0.854
			c-0.317-0.208-0.745-0.312-1.282-0.312c-0.628,0-1.227,0.126-1.797,0.377c-0.57,0.251-1.051,0.64-1.443,1.165
			c-0.392,0.525-0.644,1.098-0.757,1.719c-0.11,0.612-0.012,1.063,0.296,1.356c0.308,0.292,0.81,0.439,1.507,0.439
			c0.417,0,0.853-0.046,1.308-0.137c0.456-0.091,0.853-0.199,1.194-0.325l0.486-1.081h-2.412L-311.046-367.087z"/>
	</g>
	<g id="g93" transform="translate(436.3008,412.6484)">
		<path id="path95" fill="#CF132B" d="M-328.821-350.454h-1.947l2.748-6.051h-2.773l0.548-1.214h7.45l-0.549,1.214h-2.735
			L-328.821-350.454z"/>
	</g>
	<g id="g97" transform="translate(458.5527,422.1104)">
		<path id="path99" fill="#CF132B" d="M-344.301-362.795c-0.09,0.499,0.032,0.917,0.366,1.254s0.824,0.506,1.469,0.506
			c0.525,0,1.053-0.133,1.585-0.399c0.532-0.266,1.005-0.67,1.418-1.209c0.414-0.541,0.667-1.067,0.76-1.579
			c0.104-0.572-0.015-1.021-0.355-1.346c-0.341-0.326-0.821-0.488-1.44-0.488c-0.95,0-1.785,0.34-2.503,1.021
			C-343.721-364.355-344.154-363.608-344.301-362.795 M-346.228-362.766c0.078-0.43,0.244-0.882,0.498-1.358
			c0.334-0.638,0.77-1.191,1.303-1.661c0.535-0.469,1.168-0.84,1.901-1.113c0.733-0.272,1.536-0.409,2.409-0.409
			c1.169,0,2.063,0.279,2.683,0.837c0.619,0.559,0.845,1.299,0.678,2.221c-0.139,0.767-0.507,1.508-1.106,2.226
			c-0.599,0.716-1.335,1.269-2.209,1.655c-0.874,0.387-1.818,0.58-2.833,0.58c-0.881,0-1.593-0.153-2.135-0.461
			c-0.542-0.307-0.896-0.688-1.063-1.143C-346.271-361.845-346.312-362.303-346.228-362.766"/>
	</g>
	<g id="g101" transform="translate(506.6064,412.6484)">
		<path id="path103" fill="#CF132B" d="M-377.731-350.454h-1.812l-1.669-4.882l-2.213,4.882h-1.812l3.291-7.266h1.819l1.679,4.862
			l2.203-4.862h1.806L-377.731-350.454z"/>
	</g>
	<g id="g105" transform="translate(306.1367,475.4785)">
		<path id="path107" fill="#CF132B" d="M-238.27-432.405l4.941-3.658h-6.127l-1.861-5.744l-1.799,5.744h-5.961l4.845,3.561
			l-1.84,5.873l4.898-3.626l4.727,3.474L-238.27-432.405z"/>
	</g>
	<g id="g109" transform="translate(411.1367,475.4785)">
		<path id="path111" fill="#CF132B" d="M-311.315-432.405l4.942-3.658h-6.127l-1.861-5.744l-1.799,5.744h-5.961l4.845,3.561
			l-1.84,5.873l4.897-3.626l4.727,3.474L-311.315-432.405z"/>
	</g>
	<g id="g113" transform="translate(515.8032,475.4785)">
		<path id="path115" fill="#CF132B" d="M-384.129-432.405l4.942-3.658h-6.127l-1.861-5.744l-1.799,5.744h-5.961l4.845,3.561
			l-1.84,5.873l4.897-3.626l4.727,3.474L-384.129-432.405z"/>
	</g>
</g>
</svg>
