<?xml version="1.0" encoding="utf-8"?>
<!-- Generator: Adobe Illustrator 16.0.4, SVG Export Plug-In . SVG Version: 6.00 Build 0)  -->
<!DOCTYPE svg PUBLIC "-//W3C//DTD SVG 1.1//EN" "http://www.w3.org/Graphics/SVG/1.1/DTD/svg11.dtd">
<svg version="1.1" id="Layer_1" xmlns="http://www.w3.org/2000/svg" xmlns:xlink="http://www.w3.org/1999/xlink" x="0px" y="0px" viewBox="12.24 251.6 587.52 302.59" enable-background="new 12.24 251.6 587.52 302.59"
	 xml:space="preserve">
<g>
	<path fill="#FFFFFF" d="M533.583,251.603l-0.21,3.155c-0.815,12.029-4.982,16.93-11.91,25.065l-0.289,0.345
		c-5.126,6.029-22.715,17.579-82.793,27.246c-22.258,3.574-68.439,6.796-80.625,6.495c-6.365-0.154-10.728-2.254-13.516-6.206
		c0.905-0.916,2.052-2.088,2.052-2.088l1.51-1.388c0,0-7.202-4.453-8.925-5.525c0.631-0.646,2.614-2.651,2.614-2.651l-1.564-1.104
		c-9.148-6.448-21.521-10.142-33.927-10.142c-12.409,0-24.771,3.694-33.929,10.142l-1.569,1.104c0,0,1.985,2.012,2.62,2.651
		c-1.726,1.072-8.852,5.471-8.852,5.471s2.59,2.612,3.498,3.528c-2.771,3.949-7.16,6.049-13.528,6.206
		c-12.184,0.304-58.355-2.918-80.615-6.495c-60.084-9.667-77.673-21.217-82.794-27.251l-0.289-0.34
		c-6.935-8.137-11.102-13.038-11.907-25.065l-0.223-3.156l-2.429,2.005c-9.525,7.829-12.171,17.244-12.171,24.265
		c0,1.503,0.123,2.884,0.323,4.115c-8.387-3.415-16.044-9.89-20.806-18.086l-1.522-2.631l-1.33,2.729
		c-1.437,2.942-2.162,5.966-2.162,9.062c0,4.766,1.797,9.758,5.209,15.023c-7.041-1.048-13.258-3.77-19.647-8.818l-3.043-2.401
		l0.426,3.851c1.028,9.461,3.014,15.655,10.098,21.775c-6.24-0.708-12.062-2.45-15.146-4.72l-2.492-1.836l-0.096,3.097
		c0,0.154-0.012,0.309-0.012,0.465c0,7.988,6.213,15.479,13.192,20.311c-4.478-0.02-8.069-0.925-11.374-1.917l-3.192-0.95
		l1.214,3.097c4.01,10.284,11.753,15.621,22.164,19.667c-2.747,0.262-5.774,0.027-8.225-1.158l-4.118-1.99l1.951,4.137
		c4.152,8.881,11.606,14.411,24.182,17.865c-2.443,0.206-4.818,0.213-6.994-0.179l-2.911-0.514l1.124,2.737
		c3.464,8.458,14.407,17.138,34.757,16.673c0.367,2.093,1.998,10.938,1.998,10.938s8.773,0.321,10.592,0.392
		c0.546,1.777,3.386,10.942,3.386,10.942s9.202-0.641,11.038-0.759c0.747,1.694,4.585,10.614,4.585,10.614s9.275-1.518,11.092-1.813
		c0.901,1.63,5.618,10.177,5.618,10.177s9.146-2.473,10.914-2.938c1.055,1.491,6.556,9.293,6.556,9.293s8.928-3.68,10.585-4.369
		c1.219,1.275,7.359,7.63,7.359,7.63s8.137-5.158,9.833-6.237c1.386,1.314,6.526,6.19,6.526,6.19l0.634,0.013
		c23.303,0.315,40.243-1.943,58.471-7.802l0.805-0.262l0.257-0.815c2.201-7.303,10.409-14.994,17.782-19.285
		c2.659,2.972,3.359,5.831,3.359,7.774c0,0.343-0.059,0.461-0.079,0.737c-4.808-0.651-9.155,0.736-13.188,4.484
		c-3.674,3.405-5.613,8.262-5.613,13.56c0,1.912,0.353,3.897,0.864,5.875c-6.754,0.52-14.708,5.023-17.674,10.419
		c-1.726,3.129-2.561,6.468-2.561,9.701c0,4.864,1.985,9.4,5.542,12.681c-1.939,2.164-28.864,32.123-28.864,32.123
		s24.629-3.234,26.25-3.452c1.021,1.205,10.737,12.661,10.737,12.661s3.777-2.359,5.544-3.464
		c8.965,30.632,36.75,51.907,68.5,51.907c31.692,0,59.457-21.231,68.476-51.79c1.706,1.077,5.352,3.347,5.352,3.347
		s9.701-11.456,10.727-12.661c1.616,0.218,26.253,3.452,26.253,3.452s-26.923-29.959-28.867-32.123
		c3.562-3.28,5.535-7.813,5.535-12.681c0-3.233-0.83-6.572-2.551-9.701c-2.957-5.396-10.911-9.899-17.67-10.419
		c0.526-1.985,0.867-3.963,0.867-5.875c0-5.298-1.946-10.154-5.628-13.56c-4.101-3.807-8.529-5.207-13.42-4.484
		c-0.027-0.274-0.094-0.399-0.094-0.737c0-1.943,0.698-4.803,3.366-7.774c7.376,4.291,15.579,11.982,17.787,19.285l0.252,0.815
		l0.801,0.262c18.235,5.858,35.181,8.115,58.476,7.802l0.632-0.013c0,0,5.152-4.876,6.533-6.19c1.694,1.077,9.834,6.237,9.834,6.237
		s6.14-6.357,7.363-7.631c1.657,0.69,10.58,4.37,10.58,4.37s5.496-7.802,6.561-9.293c1.763,0.466,10.913,2.938,10.913,2.938
		s4.72-8.547,5.613-10.177c1.814,0.296,11.095,1.813,11.095,1.813s3.839-8.92,4.588-10.614c1.826,0.118,11.043,0.759,11.043,0.759
		s2.827-9.165,3.38-10.942c1.812-0.068,10.581-0.392,10.581-0.392s1.63-8.845,2.024-10.938c20.338,0.467,31.287-8.216,34.744-16.673
		l1.116-2.737l-2.906,0.514c-2.184,0.392-4.561,0.385-6.991,0.179c12.568-3.454,20.034-8.984,24.174-17.865l1.946-4.137l-4.101,1.99
		c-2.46,1.183-5.483,1.42-8.229,1.158c10.426-4.046,18.154-9.383,22.166-19.667l1.207-3.097l-3.194,0.95
		c-3.3,0.989-6.887,1.897-11.371,1.917c6.981-4.833,13.185-12.323,13.185-20.311c0-0.157,0-0.311,0-0.465l-0.104-3.097l-2.485,1.836
		c-3.089,2.267-8.9,4.012-15.146,4.72c7.087-6.12,9.058-12.311,10.096-21.775l0.421-3.851l-3.05,2.401
		c-6.375,5.048-12.596,7.77-19.639,8.818c3.405-5.266,5.22-10.257,5.22-15.023c0-3.097-0.725-6.12-2.169-9.062l-1.342-2.729
		l-1.525,2.631c-4.744,8.196-12.396,14.671-20.783,18.086c0.196-1.231,0.315-2.612,0.315-4.115c0-7.021-2.655-16.436-12.174-24.265
		L533.583,251.603z"/>
	<path fill="#002B5C" stroke="#FFFFFF" stroke-width="2" stroke-miterlimit="10" d="M597.028,319.444
		c-4.85,1.447-10.005,2.602-17.053,1.643c7.625-3.866,17.053-12.649,16.775-22.01c-4.179,3.089-12.869,5.308-21.349,5.403
		c9.912-6.756,12.49-12.546,13.724-23.934c-7.81,6.181-15.249,9.075-24.02,9.645c5.901-7.812,9.346-16.495,4.954-25.481
		c-6.125,10.553-15.813,17.324-24.531,20.042c1.88-5.39,2.629-19.06-10.543-29.89c-0.857,12.75-5.535,18.066-12.583,26.358
		c-7.15,8.401-29.736,19.119-83.78,27.799c-22.729,3.655-69.19,6.803-80.916,6.507c-9.148-0.215-13.435-4.186-15.631-7.956
		l3.05-3.089c-2.565-1.836-4.849-3.136-8.874-5.452l2.72-2.751c-9.846-6.947-22.309-9.848-32.986-9.848
		c-10.666,0-23.117,2.903-32.979,9.848l2.715,2.751c-4.005,2.316-6.287,3.616-8.867,5.452l3.043,3.089
		c-2.186,3.77-6.468,7.741-15.621,7.956c-11.729,0.296-58.194-2.852-80.919-6.507c-54.044-8.683-76.632-19.4-83.78-27.799
		c-7.053-8.292-11.716-13.611-12.58-26.358c-13.163,10.833-12.431,24.502-10.541,29.89c-8.715-2.717-18.421-9.488-24.534-20.042
		c-4.382,8.986-0.952,17.669,4.955,25.481c-8.767-0.57-16.204-3.464-24.013-9.645c1.231,11.391,3.807,17.178,13.719,23.934
		c-8.48-0.095-17.156-2.313-21.349-5.403c-0.281,9.364,9.153,18.145,16.781,22.01c-7.055,0.959-12.204-0.198-17.062-1.643
		c4.289,11.003,13.104,16.208,26.254,20.541c-3.679,1.853-10.134,2.149-14.536,0.012c5.161,11.006,15.447,15.907,30.585,18.708
		c-4.955,1.547-10.287,2.145-15.139,1.278c3.437,8.402,14.49,16.512,34.593,15.646l2.029,11.016l10.431,0.392l3.346,10.803
		l10.911-0.754l4.529,10.517l10.974-1.795l5.552,10.057l10.788-2.898l6.456,9.16l10.411-4.291l7.205,7.461l9.785-6.205l6.987,6.631
		c21.256,0.289,38.412-1.446,57.954-7.721c2.475-8.21,11.621-16.609,19.633-20.945c4.856,4.625,5.141,9.555,4.382,12.446
		c-4.578-1.158-9.146-0.39-13.724,3.87c-4.578,4.237-6.671,11.481-3.809,19.687c-6.294-0.382-15.2,4.081-18.304,9.753
		c-4.287,7.814-2.578,16.786,3.819,21.514l-26.979,30.026l22.779-2.991l10.399,12.245l5.871-3.652
		c7.954,30.286,35.207,52.603,67.616,52.603c32.458,0,59.736-22.37,67.65-52.723l6.062,3.772l10.399-12.245l22.783,2.991
		l-26.977-30.026c6.374-4.728,8.098-13.699,3.812-21.514c-3.102-5.672-12-10.137-18.287-9.753
		c2.854-8.205,0.752-15.449-3.826-19.687c-4.523-4.208-8.952-4.975-13.474-3.87c-0.764-2.894-0.473-7.821,4.39-12.446
		c7.995,4.336,17.144,12.735,19.628,20.945c19.535,6.274,36.705,8.01,57.964,7.721l6.981-6.631l9.78,6.205l7.201-7.461l10.414,4.291
		l6.455-9.16l10.779,2.898l5.559-10.057l10.978,1.795l4.536-10.517l10.91,0.754l3.325-10.803l10.452-0.392l2.024-11.016
		c20.101,0.866,31.144-7.244,34.588-15.646c-4.85,0.867-10.176,0.27-15.146-1.278c15.146-2.8,25.425-7.701,30.59-18.708
		c-4.392,2.137-10.847,1.841-14.538-0.012C583.934,335.652,592.756,330.447,597.028,319.444"/>
	<path fill="#BEC0C2" d="M290.866,505.725c-0.712,6.271-2.734,11.555-5.74,15.069c-6.191,7.217-12.002,10.546-17.574,11.917
		c9.821,7.4,21.848,12.042,34.913,12.752v-38.872C298.534,506.488,294.656,506.199,290.866,505.725"/>
	<path fill="#BEC0C2" d="M279.491,516.857c2.453-2.844,4.142-7.097,4.778-12.146c-15.655-2.867-29.851-8.796-41.924-17.183
		c1.432,15.618,8.475,29.606,19.094,39.937C267.121,526.89,273.057,524.361,279.491,516.857"/>
	<path fill="#BEC0C2" d="M271.645,467.181c-4.059-4.759-8.037-8.336-11.63-11.3c-2.749-1.256-5.464-3.023-7.998-5.548
		c-0.392-0.401-0.747-0.775-1.097-1.152c-2.761,4.666-4.933,9.716-6.44,15.053c2.856,4.455,10.252,11.391,22.806,12.463
		c-4.174,1.896-11.805,6.07-24.965-0.585c-0.083,0.935-0.142,1.86-0.184,2.8c11.887,9.314,26.279,15.915,42.372,19.036
		C284.02,488.404,280.218,477.237,271.645,467.181"/>
	<path fill="#BEC0C2" d="M259.432,438.705c1.119,5.048,7.998,17.366,22.536,18.089c-1.341,0.671-4.815,1.63-9.221,1.701
		c1.021,1.099,2.054,2.216,3.082,3.437c10.365,12.135,14.862,25.663,15.285,37.1c3.706,0.484,7.503,0.788,11.354,0.898V417.8
		c-4.135,0.225-8.157,0.849-12.042,1.813c-1.413,2.801-4.137,5.212-8.169,5.587c-0.776,7.495,4.874,19.534,15.479,24.036
		c-5.371,0.289-15.131-1.243-21.88-10.392c-3.038-4.13-4.786-7.053-5.949-9.978c-1.657,1.131-3.261,2.34-4.793,3.618
		C264.414,434.918,262.367,438.586,259.432,438.705"/>
	<path fill="#BEC0C2" d="M321.129,505.725c0.71,6.271,2.734,11.555,5.748,15.069c6.19,7.217,12,10.546,17.562,11.917
		c-9.821,7.4-21.836,12.042-34.906,12.752v-38.872C313.467,506.488,317.344,506.199,321.129,505.725"/>
	<path fill="#BEC0C2" d="M332.515,516.857c-2.461-2.844-4.143-7.097-4.786-12.146c15.657-2.867,29.841-8.796,41.922-17.183
		c-1.432,15.618-8.465,29.606-19.087,39.937C344.884,526.89,338.942,524.361,332.515,516.857"/>
	<path fill="#BEC0C2" d="M340.362,467.181c4.047-4.759,8.029-8.336,11.621-11.3c2.746-1.256,5.466-3.023,8.007-5.548
		c0.38-0.401,0.737-0.775,1.09-1.152c2.762,4.666,4.931,9.716,6.443,15.053c-2.854,4.455-10.255,11.391-22.809,12.463
		c4.179,1.896,11.805,6.07,24.963-0.585c0.093,0.935,0.146,1.86,0.184,2.8c-11.883,9.314-26.277,15.915-42.37,19.036
		C327.98,488.404,331.777,477.237,340.362,467.181"/>
	<path fill="#BEC0C2" d="M352.573,438.705c-1.116,5.048-8.008,17.366-22.546,18.089c1.341,0.671,4.825,1.63,9.231,1.701
		c-1.026,1.099-2.052,2.216-3.092,3.437c-10.357,12.135-14.854,25.663-15.273,37.1c-3.709,0.484-7.506,0.788-11.363,0.898V417.8
		c4.132,0.225,8.154,0.849,12.044,1.813c1.407,2.801,4.142,5.212,8.164,5.587c0.776,7.495-4.861,19.534-15.472,24.036
		c5.364,0.289,15.132-1.243,21.876-10.392c3.037-4.13,4.8-7.053,5.956-9.978c1.657,1.131,3.261,2.34,4.785,3.618
		C347.592,434.918,349.628,438.586,352.573,438.705"/>
	<path fill="#FFFFFF" d="M325.521,305.554c-0.434,0.874-0.563,1.302-1.42,2.504c1.236,2.693,0.764,5.689-1.053,6.563
		c-0.078-1.457-0.894-3.192-1.498-3.704c-1.144,1.023-2.759,1.899-4.232,2.193c0.933,1.919,2.894,3.239,5.165,3.239
		c3.168,0,5.758-2.603,5.758-5.834C328.24,308.43,327.15,306.594,325.521,305.554"/>
	<path fill="#FFFFFF" d="M286.484,305.554c0.424,0.874,0.561,1.302,1.415,2.504c-1.239,2.693-0.759,5.689,1.05,6.563
		c0.093-1.457,0.894-3.192,1.505-3.704c1.144,1.023,2.767,1.899,4.233,2.193c-0.94,1.919-2.906,3.239-5.166,3.239
		c-3.177,0-5.765-2.603-5.765-5.834C283.757,308.43,284.842,306.594,286.484,305.554"/>
	<path fill="#BEC0C2" d="M305.998,309.867c-3.07,0.066-5.895,1.611-7.714,4.228c-1.092,1.589-1.677,3.371-1.677,4.989
		c0,0.565,0.115,1.084,0.262,1.594c-0.357,0.281-9.256,7.449-9.256,7.449l-2.176,1.772c-0.316,0.238-0.438,0.509-0.438,0.754
		c0,0.146,0.051,0.281,0.123,0.396c0.21,0.296,0.693,0.431,1.214,0.09l1.547-1.025c3.944-2.617,6.789-4.509,9.968-4.375
		c3.17,0.135,5.19,2.943,8.145,9.325v-25.197H305.998z"/>
	<path fill="#BEC0C2" d="M315.397,328.55c-3.677,0.135-7.182,7.055-9.072,10.776c0,0-0.134,0.38-0.328,0.764
		c-0.193-0.392-0.458-0.776-0.458-0.776c-1.893-3.723-5.405-10.629-9.075-10.761c-3.963-0.142-5.831,2.169-6.624,3.158l-0.443,0.546
		l0.556,0.284c3.388,0.553,9.148,7.645,13.704,16.867l0.399,0.803c0,0,1.452-3.366,1.939-4.543c0.482,1.18,1.812,4.543,1.812,4.543
		l0.395-0.803c4.553-9.222,10.323-16.313,13.701-16.867l0.695-0.103l-0.578-0.727C321.234,330.719,319.368,328.408,315.397,328.55"
		/>
	<path fill="#BEC0C2" d="M229.042,438.744l-1.092,0.304c0,0,3.782,1.67,4.651,2.044c-0.759,0.669-4.44,3.912-4.44,3.912
		s2.962,0.933,3.432,1.077c-0.012,0.563-0.201,6.191-0.201,6.191l0.688-0.565c1.144-0.921,2.825-1.269,4.615-0.921
		c2.117,0.387,4.012,1.657,4.969,3.324l0.379,0.646l0.343-0.663c1.459-2.867,2.081-7.511-0.585-11.983
		C239.36,438.034,233.48,437.508,229.042,438.744"/>
	<path fill="#BEC0C2" d="M320.563,406.762c-0.461,4.333,2.683,9.28,7.021,11.043l0.668,0.269l-0.119-0.729
		c-0.563-3.136-0.091-5.559,1.434-7.258c1.644-1.8,4.13-2.294,5.902-2.149l0.659,0.052c0,0-1.014-2.446-1.173-2.813
		c0.252-0.301,1.657-2.095,1.657-2.095s-3.405-2.179-3.995-2.561c0.367-0.5,1.88-2.566,1.88-2.566l-0.722-0.046
		C323.704,397.144,321.038,402.304,320.563,406.762"/>
	<path fill="#BEC0C2" d="M349.893,415.937c-1.76,2.538-2.311,5.628-1.537,8.69c0.722,2.879,2.551,5.417,4.629,6.479l0.842,0.421
		l-0.262-0.9c-0.725-2.492,0.169-5.586,2.128-7.368c1.329-1.229,3.696-2.36,7.441-0.879l0.578,0.237c0,0-0.094-2.306-0.12-2.695
		c0.357-0.198,2.577-1.498,2.577-1.498s-2.629-1.883-3.378-2.411c0.578-0.338,2.024-1.178,2.024-1.178l-0.553-0.354
		C360.568,412.076,353.68,410.479,349.893,415.937"/>
	<path fill="#BEC0C2" d="M278.232,397.902l-0.725,0.056c0,0,1.522,2.057,1.882,2.556c-0.597,0.38-4.002,2.571-4.002,2.571
		s1.415,1.794,1.65,2.095c-0.152,0.36-1.167,2.813-1.167,2.813l0.668-0.066c1.785-0.132,4.26,0.357,5.895,2.164
		c1.522,1.685,1.998,4.122,1.432,7.251l-0.135,0.736l0.688-0.276c4.335-1.768,7.486-6.717,7.021-11.05
		C290.969,402.296,288.296,397.15,278.232,397.902"/>
	<path fill="#BEC0C2" d="M247.735,414.478l-0.561,0.354c0,0,1.454,0.843,2.034,1.173c-0.742,0.539-3.388,2.411-3.388,2.411
		s2.228,1.308,2.58,1.506c-0.012,0.392-0.115,2.695-0.115,2.695l0.578-0.237c3.743-1.479,6.12-0.343,7.449,0.879
		c1.951,1.777,2.847,4.884,2.113,7.363l-0.262,0.905l0.835-0.421c2.093-1.064,3.912-3.604,4.639-6.475
		c0.781-3.069,0.238-6.167-1.525-8.703C258.32,410.487,251.434,412.083,247.735,414.478"/>
	<path fill="#BEC0C2" d="M370.204,442.118c-2.669,4.455-2.05,9.104-0.578,11.976l0.33,0.671l0.38-0.654
		c0.947-1.662,2.866-2.942,4.97-3.331c1.787-0.336,3.471,0.007,4.614,0.935l0.683,0.561c0,0-0.184-5.635-0.195-6.186
		c0.473-0.152,3.43-1.082,3.43-1.082s-3.682-3.241-4.443-3.92c0.866-0.374,4.653-2.031,4.653-2.031l-1.092-0.302
		C378.524,437.508,372.637,438.034,370.204,442.118"/>
	<path fill="#FFFFFF" d="M275.757,408.443c-2.188,9.557-1.048,13.42,0.103,17.275c1.158,3.917,4.186,12.068,10.48,18.343
		c-7.435-4.634-10.769-11.388-13.349-16.989c-1.741-3.799-2.854-10.426-2.088-13.699
		C271.559,410.494,273.189,409.602,275.757,408.443"/>
	<path fill="#FFFFFF" d="M248.315,422.923c-0.862,8.979,1.432,14.323,3.713,18.057c2.48,4.049,7.244,10.806,17.161,15.058
		c-9.337-1.946-15.885-8.473-18.874-12.837c-2.57-3.766-5.337-9.766-5.432-15.646C244.854,425.724,246.318,423.021,248.315,422.923"
		/>
	<path fill="#FFFFFF" d="M231.63,452.747c1.246,4.931,3.244,9.266,5.244,11.883c1.554,2.01,6.394,8.203,16.592,12.448
		c-12.676-2.906-17.346-8.402-18.881-10.438c-2.188-2.898-5.425-7.322-5.143-9.542C229.596,455.915,230.775,453.041,231.63,452.747"
		/>
	<path fill="#FFFFFF" d="M336.235,408.443c2.193,9.557,1.053,13.42-0.093,17.275c-1.171,3.917-4.193,12.068-10.49,18.343
		c7.442-4.634,10.767-11.388,13.356-16.989c1.735-3.799,2.852-10.426,2.091-13.699C340.441,410.494,338.811,409.602,336.235,408.443
		"/>
	<path fill="#FFFFFF" d="M363.683,422.923c0.854,8.979-1.435,14.323-3.722,18.057c-2.472,4.049-7.243,10.806-17.143,15.058
		c9.334-1.946,15.88-8.473,18.864-12.837c2.562-3.766,5.339-9.766,5.444-15.646C367.153,425.724,365.683,423.021,363.683,422.923"/>
	<path fill="#FFFFFF" d="M380.365,452.747c-1.248,4.931-3.233,9.266-5.246,11.883c-1.552,2.01-6.389,8.203-16.575,12.448
		c12.673-2.906,17.339-8.402,18.864-10.438c2.193-2.898,5.441-7.322,5.15-9.542C382.402,455.915,381.222,453.041,380.365,452.747"/>
	<path fill="#FFFFFF" d="M328.661,456.906c1.63,1.271,3.248,2.847,2.25,5.238l-4.681-4.908l2.866-6.179
		C330.806,452.987,329.792,455.171,328.661,456.906"/>
	<path fill="#FFFFFF" d="M343.479,476.987c1.643,1.275,3.261,2.84,2.263,5.231l-4.693-4.903l2.864-6.177
		C345.621,473.068,344.619,475.264,343.479,476.987"/>
	<path fill="#FFFFFF" d="M313.308,449.486c1.838,0.913,3.73,2.135,3.206,4.673l-5.537-3.872l1.611-6.625
		C314.646,445.215,314.083,447.564,313.308,449.486"/>
	<path fill="#FFFFFF" d="M283.336,456.906c-1.63,1.271-3.256,2.847-2.247,5.238l4.683-4.908l-2.859-6.179
		C281.197,452.987,282.193,455.171,283.336,456.906"/>
	<path fill="#FFFFFF" d="M268.519,476.987c-1.643,1.275-3.251,2.84-2.254,5.231l4.69-4.903l-2.859-6.177
		C266.379,473.068,267.38,475.264,268.519,476.987"/>
	<path fill="#FFFFFF" d="M298.703,449.486c-1.851,0.913-3.743,2.135-3.224,4.673l5.547-3.872l-1.61-6.625
		C297.354,445.215,297.907,447.564,298.703,449.486"/>
	<path fill="#FFFFFF" d="M138.873,404.827c-0.193,0.169-1.99,3.647-1.99,3.647l-0.269,0.526l4.524,0.466
		c0.274-0.066,17.936-12.728,17.936-12.728L138.873,404.827z"/>
	<polygon fill="#FFFFFF" points="172.369,410.916 172.214,411.021 171.808,414.872 175.798,415.18 186.467,402.463 	"/>
	<polygon fill="#FFFFFF" points="81.705,369.74 81.519,369.748 79.452,372.702 82.546,374.969 95.866,369.586 	"/>
	<polygon fill="#FFFFFF" points="54.74,346.484 52.382,348.937 55.104,351.662 69.075,348.423 54.875,346.345 	"/>
	<polygon fill="#FFFFFF" points="109.217,388.901 109.029,388.935 107.168,392.333 110.726,394.179 125.453,386.693 	"/>
	<path fill="#E03A3E" d="M329.766,301.094l-2.497,2.311l0.421,0.289c2.232,1.574,3.51,3.99,3.51,6.609
		c0,4.556-3.943,8.265-8.783,8.265l-2.681-0.353l-0.198,0.262c-0.195,0.451-0.301,0.867-0.301,1.273c0,1.844,2.127,3.347,5.73,5.871
		c0,0,5.68,4.186,6.585,4.854c-3.603,1.684-8.491,4.291-12.104,8.291c-2.395,2.646-4.434,5.472-6.219,7.963
		c-2.856,3.983-5.123,7.128-7.118,7.141c-1.985,0.005-4.252-3.146-7.107-7.141c-1.797-2.492-3.826-5.317-6.223-7.963
		c-3.606-4-8.5-6.609-12.101-8.291c0.908-0.666,6.583-4.854,6.583-4.854c3.608-2.524,5.735-4.027,5.735-5.871
		c0-0.404-0.103-0.82-0.315-1.273l-0.127-0.276l-2.742,0.365c-4.833,0-8.786-3.711-8.786-8.265c0-2.619,1.28-5.036,3.523-6.609
		l0.401-0.289l-2.847-2.646l-0.262,0.416c-5.197,8.265-8.049,12.82-8.634,24.62l-0.02,0.423h4.157
		c-0.328,1.227-0.546,2.524-0.546,3.944c0,5.205,2.007,11.349,4.573,15.393l0.142,0.218l0.257-0.027
		c2.132-0.27,3.794,0.066,4.92,0.996c0.926,0.759,1.298,1.785,1.528,2.764c-1.014-0.886-2.054-1.506-3.126-1.547
		c-1.285-0.059-2.59,0.583-3.848,1.772c-0.673-0.5-5.364-4.02-6.914-6.287l-0.331-0.478l-0.335,0.47
		c-4.632,6.401-6.967,14.693-7.315,26.088c-0.357,11.283,3.599,22.979,7.503,28.252l0.203,0.27l0.304-0.142
		c3.028-1.42,10.822-4.201,17.701,0.546c4.92,3.391,6.044,8.793,6.659,11.699l0.259,1.182l7.014-0.479v-48.059
		c-3.371-1.197-4.367-2.597-5.214-4.972c1.888,1.364,3.608,2.127,5.336,2.071c4.468-0.105,8.492-4.671,12.042-8.695
		c2.458-2.793,4.771-5.43,6.612-5.775c2.091-0.375,3.3,0.918,3.73,2.242l0.226,0.673l0.473-0.531
		c3.732-4.252,6.203-11.753,6.203-17.655c0-1.447-0.196-2.737-0.526-3.924h4.169l-0.027-0.423
		c-0.593-11.799-3.444-16.355-8.651-24.62l-0.249-0.416L329.766,301.094z"/>
	<path fill="#E03A3E" d="M341.572,358.342l-3.709,6.732c0,0,3.246,7.861,3.405,8.272c-0.262,0.343-4.931,6.543-4.931,6.543
		s1.985,6.553,2.091,6.938c-0.25,0.304-4.257,5.271-4.509,5.567c-3.34-0.372-9.465-0.311-14.515,3.79
		c-3.956,3.189-6.257,8.078-6.852,14.539l-0.042,0.406l0.871,0.073l0.867,0.161l0.105-0.398c0.751-4.563,3.128-8.729,5.18-10.835
		c4.35-4.495,12.107-4.739,17.893-2.979l0.343,0.101l0.146-0.323c6.167-13.461,7.691-26.769,4.404-38.502l-0.263-0.955
		L341.572,358.342z"/>
	<path fill="#E03A3E" d="M303.072,290.653c-6.353,0.357-12.95,1.741-18.543,3.897l-0.5,0.188l0.318,0.424
		c0.972,1.314,3.187,2.484,5.288,3.469c-0.262,0.938-0.438,1.877-0.438,2.781c0,4.446,2.975,8.248,6.424,9.905l0.316,0.149
		l0.198-0.282c2.167-3.104,5.486-4.678,9.873-4.678c4.377,0,7.696,1.574,9.862,4.678l0.196,0.282l0.315-0.149
		c3.433-1.66,6.416-5.459,6.416-9.905c0-0.903-0.171-1.843-0.436-2.781c2.103-0.981,4.328-2.152,5.3-3.469l0.302-0.424l-0.485-0.188
		c-5.812-2.235-11.912-3.54-18.132-3.885l-0.255-0.012c0,0-2.531,4.154-3.089,5.15c-0.559-0.996-2.671-5.163-2.671-5.163
		L303.072,290.653z"/>
	<path fill="#002B5C" d="M273.97,349.659l3.236,4.052c-2.852,5.209-4.764,10.815-5.141,16.8c-0.384,5.983,0.375,14.664,2.1,19.687
		l-0.575,1.158c-3.625-11.582-4.387-16.604-4.191-22.01C269.588,363.951,270.734,355.449,273.97,349.659"/>
	<path fill="#E03A3E" d="M263.175,354.09c-1.662-11.42-10.796-16.34-13.462-17.545c2.612-1.341,9.584,0.673,12.282,1.677l0.82,0.304
		l-0.304-0.835c-2.583-6.957-9.004-10.592-9.275-10.749c-9.121-5.56-27.354-9.758-27.535-9.799c-0.007,0-8.225-1.42-15.119-2.602
		c-8.419-0.7-16.889-1.53-24.399-2.402c1.329,12.238,16.005,22.784,21.849,26.532c-7.417-2.313-27.68-10.204-32.348-27.912
		c-0.867-0.127-1.723-0.262-2.539-0.392c-3.846-0.612-7.505-1.246-11.019-1.878c10.994,36.346,51.937,50.75,64.211,54.304
		c-14.098-0.913-65.439-7.236-81.535-51.134c-0.646-1.775-1.266-4.793-1.535-6.945c-4.874-1.097-9.349-2.196-13.449-3.3
		c0.379,14.245,12.666,27.545,17.56,32.304c-6.945-3.789-26.008-15.907-26.088-34.764c-19.645-6.093-28.708-12.118-32.737-16.847
		l-0.296-0.345c-3.912-4.598-7.082-8.331-9.29-12.955c-2.377,4.426-3.291,8.216-3.291,11.433c0,7.532,4.845,11.802,7.586,13.921
		c-12.304,0.806-22.21-5.491-22.318-5.554l-1.322-0.862l0.749,1.393c0.085,0.181,9.719,17.829,25.185,24.169
		c-11.158,3.415-19.153,0.372-27.623-3.75l-0.874-0.423l0.315,0.923c1.966,5.816,9.621,19.545,37.614,22.845
		c-7.459,7.99-25.234,1.836-25.417,1.772l-1.036-0.372l0.553,0.95c9.449,16.509,32.698,20.426,46.571,19.102
		c-4.22,8.062-24.48,6.771-24.688,6.75l-1.54-0.108l1.285,0.85c14.47,9.613,36.346,9.625,52.099,5.42
		c-3.79,6.394-9.586,9.454-18.786,9.687l-1.058,0.027l0.808,0.686c5.525,4.739,29.447,5.183,46.333,0.989
		c-2.499,5.001-9.146,8.617-17.491,9.241l-1.43,0.108l1.273,0.659c10.076,5.253,25.53,4.02,44.693-3.464
		c-0.654,5.229-10.284,9.988-10.392,10.044l0.181,0.766c50.71-0.254,72-24.695,72.209-24.945c2.856-3.829,4.423-6.967,4.423-12.029
		C263.579,357.564,263.444,355.934,263.175,354.09"/>
	<path fill="#E03A3E" d="M554.065,309.556c-8.468,4.118-16.46,7.161-27.633,3.75c15.459-6.34,25.109-23.988,25.202-24.174
		l0.749-1.398l-1.327,0.867c-0.093,0.059-10.056,6.392-22.401,5.544c5.102-4.113,7.743-8.896,7.743-14.335
		c0-3.493-1.116-7.275-3.234-11.295c-2.205,4.759-5.429,8.556-9.424,13.249l-0.289,0.328c-4.037,4.739-13.095,10.761-32.735,16.847
		c-0.315,18.651-19.126,30.854-26.068,34.725c4.906-4.81,17.131-18.164,17.579-32.26c-4.117,1.104-8.585,2.201-13.477,3.29
		c-0.288,2.184-0.933,5.246-1.563,6.955c-16.118,43.993-67.639,50.25-81.627,51.141c12.174-3.582,53.362-18.181,64.456-54.333
		c-3.562,0.649-7.282,1.273-11.163,1.907c-0.773,0.122-1.563,0.24-2.392,0.355c-4.773,17.493-25.148,25.552-32.538,27.924
		c5.745-3.772,20.298-14.429,21.98-26.532c-7.533,0.884-16.027,1.711-24.492,2.417c-6.887,1.192-15.104,2.604-15.104,2.604
		c-0.198,0.039-18.431,4.24-27.569,9.814c-0.262,0.142-6.679,3.782-9.254,10.744l-0.303,0.835l0.814-0.301
		c2.708-1.006,9.677-3.018,12.279-1.677c-2.653,1.205-11.789,6.118-13.446,17.547c-0.277,1.851-0.409,3.474-0.409,4.947
		c0,5.048,1.566,8.184,4.419,11.995c0.21,0.265,21.493,24.701,72.211,24.964l0.171-0.768c-0.093-0.059-9.729-4.813-10.384-10.044
		c19.165,7.489,34.627,8.71,44.71,3.469l1.263-0.661l-1.434-0.105c-8.348-0.626-14.987-4.25-17.484-9.241
		c16.879,4.193,40.806,3.746,46.326-0.989l0.803-0.688l-1.053-0.032c-9.204-0.223-14.986-3.292-18.773-9.689
		c15.736,4.208,37.611,4.194,52.084-5.407l1.287-0.85l-1.552,0.107c-0.196,0.02-20.453,1.312-24.673-6.754
		c13.855,1.327,37.108-2.59,46.575-19.102l0.538-0.945l-1.037,0.36c-0.172,0.076-17.959,6.218-25.398-1.763
		c27.976-3.3,35.638-17.031,37.597-22.85l0.315-0.918L554.065,309.556z"/>
	<path fill="#BEC0C2" d="M311.03,318.771c0-1.354,0.064-4.186-0.842-4.835c1.42,0.762,2.333,1.682,3.224,3.479
		C312.646,317.936,311.241,318.32,311.03,318.771"/>
	<path fill="#002B5C" d="M301.249,319.299c0-1.508-0.083-4.651,0.942-5.364c-1.584,0.867-2.604,1.856-3.608,3.856
		C299.437,318.342,301.019,318.81,301.249,319.299"/>
	<path fill="#FFFFFF" d="M473.125,404.827c0.198,0.169,1.997,3.647,1.997,3.647l0.263,0.526l-4.51,0.466
		c-0.289-0.066-17.943-12.728-17.943-12.728L473.125,404.827z"/>
	<polygon fill="#FFFFFF" points="439.629,410.916 439.785,411.021 440.192,414.872 436.199,415.18 425.521,402.463 	"/>
	<polygon fill="#FFFFFF" points="530.298,369.74 530.481,369.748 532.545,372.702 529.456,374.969 516.139,369.586 	"/>
	<polygon fill="#FFFFFF" points="557.128,346.345 542.917,348.423 556.905,351.662 559.625,348.937 557.26,346.484 	"/>
	<polygon fill="#FFFFFF" points="502.782,388.901 502.966,388.935 504.834,392.333 501.272,394.179 486.547,386.693 	"/>
</g>
</svg>
