<?xml version="1.0" encoding="utf-8"?>
<!-- Generator: Adobe Illustrator 16.0.4, SVG Export Plug-In . SVG Version: 6.00 Build 0)  -->
<!DOCTYPE svg PUBLIC "-//W3C//DTD SVG 1.1//EN" "http://www.w3.org/Graphics/SVG/1.1/DTD/svg11.dtd">
<svg version="1.1" id="Layer_1" xmlns="http://www.w3.org/2000/svg" xmlns:xlink="http://www.w3.org/1999/xlink" x="0px" y="0px" viewBox="0 0 271.547 178.896" enable-background="new 0 0 271.547 178.896"
	 xml:space="preserve">
<g>
	<path fill="#010101" d="M14.545,0l8.64,7.09c1.235,1.015,3.854,3.841,1.504,8.22l-0.08,0.144L0,72.146l4.552,1.159
		c22.794,5.8,66.429,18.079,102.545,35.101c28.581,13.473,62.261,34.733,60.437,59.499l-0.804,10.992l7.666-7.919
		c6.306-6.511,17.596-15.191,22.944-14.119c0.528,0.105,1.767,0.354,2.766,2.913l0.752,1.923l2.003,0.503
		c9.267,2.305,28.709,2.279,38.318-13.405c4.04-0.666,12.548-2.897,16.859-10.022c1.959-0.867,5.013-2.74,6.879-6.536
		c0.995-2.029,1.488-4.283,1.488-6.744c0-3.294-0.884-6.969-2.657-10.992l-0.07-0.153l-0.09-0.157
		c-1.392-2.551-2.649-6.043-2.557-8.146c0.083-1.972,0.854-4.071,0.854-4.071l-0.954-1.325c-0.512-0.71-11.437-15.723-26.836-24.759
		c4.237-3.947,7.771-8.825,10.533-14.593l0.032-0.058L271.547,0H14.545z"/>
	<path fill="#005C8A" stroke="#005C8A" stroke-width="0.2828" d="M257.693,102.983c0,0-13.312-18.53-30.851-26.382
		c5.195-3.537,10.291-8.902,14.18-17.035l24.401-55.565H25.723c1.114,0.916,6.447,5.822,2.487,13.201L5.538,69.428
		c50.357,12.816,169.694,48.561,165.98,98.767c0,0,25.768-26.641,32.313-9.878c0,0,24.762,6.175,34.877-13.232
		c0,0,12.423-0.791,16.552-9.529c0,0,12.07-3.002,4.83-19.442C260.091,116.114,255.392,107.577,257.693,102.983z"/>
	<g>
		<polygon fill="#010101" stroke="#005C8A" stroke-width="0.2828" points="150.037,34.298 159.973,11.799 158.078,11.799 
			153.433,15.019 146.804,31.647 148.151,34.285 		"/>
		<polygon fill="#010101" stroke="#005C8A" stroke-width="0.2828" points="102.199,38.146 102.733,36.737 99.555,36.462 
			89.924,57.911 93.192,58.087 93.874,56.868 		"/>
		<polygon fill="#010101" stroke="#005C8A" stroke-width="0.2828" points="109.276,15.019 100.371,33.92 104.008,34.282 
			104.334,33.37 111.843,16.229 112.186,14.926 		"/>
		<polygon fill="#010101" stroke="#005C8A" stroke-width="0.2828" points="223.908,42.761 222.013,42.761 219.868,44.006 
			214.052,57.153 216.718,58.363 217.486,56.868 		"/>
		<path fill="#010101" stroke="#005C8A" stroke-width="0.2828" d="M238.351,16.229l-0.067-1.181c0,0-5.925-0.387-6.972,1.939
			l-7.391,16.959l3.515,0.912l0.483-1.245l6.696-14.855C235.668,16.427,238.351,16.229,238.351,16.229z"/>
		<path fill="#010101" stroke="#005C8A" stroke-width="0.2828" d="M218.111,13.294c-1.674,1.088-4.363,2.785-1.84,5.806h1.892
			c2.064-5.064,5.88-6.773,7.58-7.301h-1.895C223.181,12.01,219.206,12.58,218.111,13.294z"/>
		<path fill="#010101" stroke="#005C8A" stroke-width="0.2828" d="M63.542,56.816l17.09-38.513c0.727-1.636,2.532-2.004,3.607-2.074
			l-0.131-0.938c0,0-5.381-1.856-6.45,0.544L60.386,57.636l2.519,0.849L63.542,56.816z"/>
		<path fill="#010101" stroke="#005C8A" stroke-width="0.2828" d="M173.852,17.766c0.65-1.447,2.811-1.53,3.224-1.537l-0.007-1.575
			c0,0-6.011,0.941-6.731,2.544l-7.362,17.72l3.278,0.362l0.246-0.918L173.852,17.766z"/>
		<path fill="#010101" stroke="#005C8A" stroke-width="0.2828" d="M141.558,18.499c0.97-2.187,4.5-2.27,4.5-2.27l0.205-1.754
			c0,0-6.85-0.368-7.816,1.815l-18.354,41.89l3.815,0.183l0.666-1.495L141.558,18.499z"/>
		<path fill="#010101" stroke="#005C8A" stroke-width="0.2828" d="M144.25,43.318l-2.532,1.05l-7.724,9.997
			c0,0-2.544,1.725-6.498,7.625h1.895c7.279,0,10.816-5.128,10.816-5.128l5.94-13.543H144.25z"/>
		<path fill="#010101" stroke="#005C8A" stroke-width="0.2828" d="M189.987,11.799l-3.322,1.735L170.67,49.762l1.719,2.919
			l1.501,0.906c1.453-3.274,4.856-11.844,17.989-41.788H189.987z"/>
		<path fill="#010101" stroke="#005C8A" stroke-width="0.2828" d="M164.249,38.28l-2.718-0.09l-6.914,11.629
			c0,0-3.991,5.727-9.808,12.195l-0.048,0.1c10.989,0,13.332-9.244,13.332-9.244l5.832-13.252L164.249,38.28z"/>
		<polygon fill="#010101" stroke="#005C8A" stroke-width="0.2828" points="212.471,17.896 209.564,17.714 195.026,45.886 
			196.418,49.557 197.75,50.809 212.013,19.1 		"/>
		<polygon fill="#010101" stroke="#005C8A" stroke-width="0.2828" points="251.228,11.799 248.823,13.412 241.974,29.103 
			242.956,30.524 244.848,30.524 253.122,11.799 		"/>
		<path fill="#010101" stroke="#005C8A" stroke-width="0.2828" d="M238.945,34.98l-9.631,19.99c0,0-3.089,1.636-8.61,7.08h1.885
			c6.914,0,10.186-4.548,10.186-4.548l10.54-23.888h-1.888L238.945,34.98z"/>
		<path fill="#010101" stroke="#005C8A" stroke-width="0.2828" d="M116.812,40.834c0.883-2.891-2.234-3.86-3.835-4.167h0.823
			c1.581-0.051,4.997-0.455,6.046-2.888l6.293-14.673l1.376-3.076c0,0,1.226-4.234-3.329-4.234h-1.895l0.525,4.494l-1.562,3.089
			l-6.344,13.722c0,0-1.598,1.309-3.179,1.364l-3.182,1.632c1.604,0.307,4.433,1.655,3.546,4.545l-1.457,2.362l-3.998,11.542
			c-0.541,0.829-1.93,1.236-2.634,1.815c0,0-2.724,0.093-7.187,5.816h1.895c5.666,0,9.299-3.329,9.299-3.329
			c0.704-0.58,1.405-1.219,1.943-2.052l5.982-13.93L116.812,40.834z"/>
		<polygon fill="#010101" stroke="#005C8A" stroke-width="0.2828" points="41.039,38.146 41.494,36.737 37.675,36.92 29.036,57.911 
			32.042,58.273 32.707,56.868 		"/>
		<polygon fill="#010101" stroke="#005C8A" stroke-width="0.2828" points="48.305,15.019 39.941,34.189 42.396,34.372 43.171,33.37 
			50.677,16.229 50.844,15.291 		"/>
		<path fill="#010101" stroke="#005C8A" stroke-width="0.2828" d="M94.962,11.799h-1.895l-3.236,6.037L72.927,53.18
			c0,0-2.996,4.094-6.338,8.87h1.892c7.282,0,10.688-5.281,10.688-5.281l17.403-39.646C96.572,17.122,98.966,11.799,94.962,11.799z"
			/>
		<path fill="#010101" stroke="#005C8A" stroke-width="0.2828" d="M55.648,40.834c0.884-2.891-2.237-3.86-3.838-4.167h0.826
			c1.581-0.051,4.99-0.455,6.04-2.888l6.299-14.673l1.37-3.076c0,0,1.229-4.234-3.326-4.234h-1.895l-1.979,4.522l-5.394,15.24
			l-2.967,3.844l-3.089,1.396l2.967,3.934l-0.787,2.122l-4.302,11.632l-2.663,0.483c0,0-3.21,0.483-7.256,7.208h1.892
			c5.669,0,9.302-3.329,9.302-3.329c0.704-0.58,1.399-1.219,1.943-2.052l5.982-13.93L55.648,40.834z"/>
	</g>
	<g>
		<path fill="#F15B31" stroke="#F15B31" stroke-width="0.2828" d="M256.25,120.854c-0.202-0.723-1.223-3.834-2.865-6.75
			c-1.248-2.202-3.197-5.816-2.397-9.855c-1.543-3.874-9.708-13.031-18.3-17.919c0,0-6.584-3.998-20.703-9.174
			c-14.283-5.237-35.322-15.31-50.03-23.107c-1.953,6.322-3.316,19.062,1.984,26.081l-12.317-10.732H31.645
			c107.173,11.078,109.036,17.035,109.036,17.035H80.113c0.147,0.051,0.294,0.105,0.445,0.157
			c14.628,0.563,51.452,3.098,85.83,14.564h-49.8c65.888,30.454,60.004,54.182,60.004,54.182
			c23.046-20.911,31.948-2.477,31.948-2.477c2.66,1.517,11.853,1.427,14.151-1.857c-9.411-6.734-14.571-14.372-18.412-22.643
			c9.146-3.134,19.955-3.176,25.588-2.75c0,0,2.17,5.391,7.973,8.697c2.104,1.197,8.995,3.723,12.112-1.767
			c0,0,0.586-3.041-1.136-10.361c0,0,2.829,0.269,4.507,0.579C255.514,123.162,256.637,122.256,256.25,120.854z M193.745,75.865
			l-12.362,1.722c8.915-2.007-13.508-13.511-13.508-13.511C173.919,66.378,193.745,75.865,193.745,75.865z M193.95,114.763
			c1.572,1.354,5.103,5.086,5.103,5.086c-16.981,5.675-18.588,23.332-18.588,23.332c-3.291-17.429,9.539-25.393,9.539-25.393
			l-5.659-4.312c32.675-16.479,54.454,15.262,54.454,15.262C214.635,104.574,193.95,114.763,193.95,114.763z M199.526,104.148
			c31.292-3.322,42.415,23.476,42.415,23.476C226.126,104.222,199.526,104.148,199.526,104.148z M210.125,101.149
			c-0.077,0-0.16-0.003-0.237,0C209.945,101.146,210.028,101.146,210.125,101.149c26.773-0.589,35.517,24.544,35.517,24.544
			C230.882,103.083,212.938,101.204,210.125,101.149z M235.828,106.408c6.772-15.496-64.611-19.836-64.611-19.836
			c51.455,0,64.198,11.19,64.198,11.19c8.143,5.269,10.899,12.813,11.193,19.327C242.771,111.629,235.828,106.408,235.828,106.408z
			 M247.284,110.198l-0.746-6.12L248.99,107L247.284,110.198z"/>
		<path fill="#F15B31" stroke="#F15B31" stroke-width="0.2828" d="M187.087,49.313c0,0-2.75,6.443-4.84,8.543
			c0,0,21.725,9.964,27.15,12.714C209.398,70.571,197.177,60.143,187.087,49.313z"/>
	</g>
	<g>
		<path fill="#FFFFFF" d="M252.812,129.772c-0.128-2.286-1.152-4.312-1.847-4.901l1.575,0.983l3.322,1.399L252.812,129.772z"/>
		<path fill="#FFFFFF" d="M214.312,136.539l0.56,3.198l2.913,1.438l0.88,3.361c-3.23-3.028-6.424-6.652-8.668-10.477
			c-1.117-1.898-0.141-3.086,1.271-3.547c0.263-0.074,0.17-0.061,0.522-0.154c0.195,0.167,0.326,0.403,0.243,0.752
			c-0.163,0.672-0.173,3.422-0.173,3.422L214.312,136.539z"/>
		<path fill="#FFFFFF" d="M226.456,130.041l-0.634-1.994c0.608-0.032,1.191-0.048,1.709-0.026c1.091,1.892,3.898,4.971,6.481,7.157
			l-3.882-1.06l-0.755-2.57L226.456,130.041z"/>
		<path fill="#FFFFFF" d="M230.367,141.324c3.041-1.773,5.429-4.878,5.429-4.878c0.25,0.154,0.493,0.317,0.742,0.461
			c0.979,0.563,2.142,1.053,3.399,1.44c-2.125,1.914-5.031,2.494-6.023,2.711C232.269,141.417,230.367,141.324,230.367,141.324z"/>
		<g>
			<path fill="#FFFFFF" d="M243.978,110.103c0,0-0.157-0.513-0.554-1.386c-0.829,0.464-1.949,0.41-2.843,0.25
				c1.258,1.172,2.414,2.302,2.896,2.58C244.352,112.042,244.381,111.095,243.978,110.103z"/>
			<path fill="#FFFFFF" d="M240.872,104.446c-0.482-0.666-1.033-1.36-1.661-2.081c0,0,0.115,2.756-1.501,4.171
				c0.602,0.413,1.306,1.005,2.02,1.645C240.706,107.292,240.863,105.333,240.872,104.446z"/>
		</g>
		<path fill="#FFFFFF" d="M219.759,145.549c0,0,2.788,2.65,4.478,3.652c0,0,3.582-1.524,4.789-2.807
			C229.026,146.395,224.103,146.929,219.759,145.549z"/>
	</g>
	<path fill="#C4CED4" d="M216.271,19.1c2.064-5.064,5.88-6.773,7.576-7.301h-27.474l-3.201,7.301h6.562l-10.985,25.019l7.109,6.69
		L210.125,19.1H216.271 M53.753,40.834c0.89-2.891-2.228-3.86-3.831-4.167h0.819c1.581-0.051,4.997-0.455,6.046-2.888l6.299-14.673
		l1.364-3.076c0,0,1.239-4.234-3.326-4.234H39.403c1.364,1.223,0.554,3.204,0.189,4.17L19.257,62.178h16.398
		c5.662,0,9.305-3.329,9.305-3.329c0.701-0.58,1.398-1.219,1.939-2.052l5.986-13.93L53.753,40.834 M43.337,40.402l-6.575,15.185
		c-0.247,0.64-1.408,1.091-1.408,1.091c-0.355,0.128-0.72,0.189-1.236,0.189h-3.303l8.332-18.722h2.724
		C42.675,38.193,44.15,38.523,43.337,40.402 M44.294,33.37h-3.015l7.506-17.141h3.592c0,0,1.764-0.128,0.915,1.795l-5.87,13.546
		C46.567,33.527,44.294,33.37,44.294,33.37 M114.919,40.834c0.883-2.891-2.231-3.86-3.838-4.167h0.823
		c1.584-0.051,5-0.455,6.046-2.888l6.299-14.673l1.37-3.076c0,0,1.229-4.234-3.329-4.234h-22.063
		c1.367,1.223,1.123,2.375,0.531,4.17L80.423,62.178h16.395c5.672,0,9.305-3.329,9.305-3.329c0.704-0.58,1.399-1.219,1.939-2.052
		l5.989-13.93L114.919,40.834 M104.5,40.402l-6.568,15.185c-0.253,0.64-1.412,1.091-1.412,1.091
		c-0.355,0.128-0.723,0.189-1.232,0.189h-3.306l8.332-18.722h2.721C103.844,38.193,105.317,38.523,104.5,40.402 M105.461,33.37
		h-3.016l7.503-17.141h3.602c0,0,1.76-0.128,0.906,1.795l-5.868,13.546C107.737,33.527,105.461,33.37,105.461,33.37 M93.067,11.799
		H80.158c0,0-7.705-0.247-10.064,4.782L50.188,62.05h16.401c7.282,0,10.694-5.281,10.694-5.281l17.394-39.646
		C94.677,17.122,97.071,11.799,93.067,11.799 M68.141,54.781c-1.021,1.911-5.252,2.087-5.252,2.087h-1.265l17.112-38.564
		c1.076-2.401,4.462-2.074,4.462-2.074h1.851L68.141,54.781 M242.956,30.524l8.271-18.726h-15.877c0,0-9.353,0.112-12.506,7.298
		l-8.7,19.836h15.176l-6.875,15.617c-1.053,2.381-4.76,2.317-4.76,2.317h-2.09l6.418-14.106h-9.552l-5.678,12.948
		c-3.019,6.693,7.493,6.341,7.493,6.341h6.428c6.904,0,10.179-4.548,10.179-4.548l10.544-23.888h-15.391l6.687-14.855
		c1.05-2.331,3.742-2.529,3.742-2.529h3.21l-6.181,14.295H242.956 M173.147,11.799c-6.92-0.061-10.186,4.549-10.186,4.549
		l-20.089,45.767c10.989,0,13.319-9.244,13.319-9.244l5.838-13.252h5.528l-3.675,9.074l8.111,4.891
		c1.45-3.274,4.856-11.843,17.989-41.788h-16.837 M170.056,34.362h-5.445l7.346-16.597c0.72-1.601,3.303-1.537,3.303-1.537h2.865
		L170.056,34.362 M134.868,43.318l-5.269,12.01c-1.095,1.479-3.957,1.54-3.957,1.54h-2.958l16.987-38.373
		c0.97-2.186,4.494-2.266,4.494-2.266h2.608l-7.922,18.002l9.292,0.067l9.933-22.502h-16.415c0,0-8.207-0.263-10.464,4.891
		l-19.877,45.3h16.177c7.282,0,10.813-5.125,10.813-5.125l5.941-13.543H134.868L134.868,43.318z"/>
	<path fill="none" stroke="#C4CED4" stroke-width="0.1413" d="M216.271,19.1c2.064-5.064,5.88-6.773,7.576-7.301h-27.474
		l-3.201,7.301h6.562l-10.985,25.019l7.109,6.69L210.125,19.1H216.271 M53.753,40.834c0.89-2.891-2.228-3.86-3.831-4.167h0.819
		c1.581-0.051,4.997-0.455,6.046-2.888l6.299-14.673l1.364-3.076c0,0,1.239-4.234-3.326-4.234H39.403
		c1.364,1.223,0.554,3.204,0.189,4.17L19.257,62.178h16.398c5.662,0,9.305-3.329,9.305-3.329c0.701-0.58,1.398-1.219,1.939-2.052
		l5.986-13.93L53.753,40.834 M43.337,40.402l-6.575,15.185c-0.247,0.64-1.408,1.091-1.408,1.091
		c-0.355,0.128-0.72,0.189-1.236,0.189h-3.303l8.332-18.722h2.724C42.675,38.193,44.15,38.523,43.337,40.402 M44.294,33.37h-3.015
		l7.506-17.141h3.592c0,0,1.764-0.128,0.915,1.795l-5.87,13.546C46.567,33.527,44.294,33.37,44.294,33.37 M114.919,40.834
		c0.883-2.891-2.231-3.86-3.838-4.167h0.823c1.584-0.051,5-0.455,6.046-2.888l6.299-14.673l1.37-3.076c0,0,1.229-4.234-3.329-4.234
		h-22.063c1.367,1.223,1.123,2.375,0.531,4.17L80.423,62.178h16.395c5.672,0,9.305-3.329,9.305-3.329
		c0.704-0.58,1.399-1.219,1.939-2.052l5.989-13.93L114.919,40.834 M104.5,40.402l-6.568,15.185c-0.253,0.64-1.412,1.091-1.412,1.091
		c-0.355,0.128-0.723,0.189-1.232,0.189h-3.306l8.332-18.722h2.721C103.844,38.193,105.317,38.523,104.5,40.402 M105.461,33.37
		h-3.016l7.503-17.141h3.602c0,0,1.76-0.128,0.906,1.795l-5.868,13.546C107.737,33.527,105.461,33.37,105.461,33.37 M93.067,11.799
		H80.158c0,0-7.705-0.247-10.064,4.782L50.188,62.05h16.401c7.282,0,10.694-5.281,10.694-5.281l17.394-39.646
		C94.677,17.122,97.071,11.799,93.067,11.799 M68.141,54.781c-1.021,1.911-5.252,2.087-5.252,2.087h-1.265l17.112-38.564
		c1.076-2.401,4.462-2.074,4.462-2.074h1.851L68.141,54.781 M242.956,30.524l8.271-18.726h-15.877c0,0-9.353,0.112-12.506,7.298
		l-8.7,19.836h15.176l-6.875,15.617c-1.053,2.381-4.76,2.317-4.76,2.317h-2.09l6.418-14.106h-9.552l-5.678,12.948
		c-3.019,6.693,7.493,6.341,7.493,6.341h6.428c6.904,0,10.179-4.548,10.179-4.548l10.544-23.888h-15.391l6.687-14.855
		c1.05-2.331,3.742-2.529,3.742-2.529h3.21l-6.181,14.295H242.956 M173.147,11.799c-6.92-0.061-10.186,4.549-10.186,4.549
		l-20.089,45.767c10.989,0,13.319-9.244,13.319-9.244l5.838-13.252h5.528l-3.675,9.074l8.111,4.891
		c1.45-3.274,4.856-11.843,17.989-41.788h-16.837 M170.056,34.362h-5.445l7.346-16.597c0.72-1.601,3.303-1.537,3.303-1.537h2.865
		L170.056,34.362 M134.868,43.318l-5.269,12.01c-1.095,1.479-3.957,1.54-3.957,1.54h-2.958l16.987-38.373
		c0.97-2.186,4.494-2.266,4.494-2.266h2.608l-7.922,18.002l9.292,0.067l9.933-22.502h-16.415c0,0-8.207-0.263-10.464,4.891
		l-19.877,45.3h16.177c7.282,0,10.813-5.125,10.813-5.125l5.941-13.543H134.868L134.868,43.318z"/>
	<g>
		<g>
			<defs>
				<path id="SVGID_1_" d="M37.588,8.566h221.165l-26.895,58.522H12.039L37.588,8.566z M150.037,34.298l9.933-22.502h-1.895
					l-4.641,3.223l-6.632,16.628l1.348,2.638L150.037,34.298z M102.199,38.146l0.534-1.408l-3.178-0.275l-9.631,21.449l3.268,0.176
					l0.682-1.22L102.199,38.146z M109.276,15.019l-8.905,18.901l3.637,0.362l0.326-0.912l7.509-17.141l0.343-1.303L109.276,15.019z
					 M223.908,42.761h-1.895l-2.145,1.245l-5.819,13.146l2.667,1.21l0.768-1.495L223.908,42.761z M238.351,16.229l-0.067-1.181
					c0,0-5.925-0.387-6.972,1.939l-7.391,16.959l3.515,0.912l0.483-1.245l6.696-14.855
					C235.668,16.427,238.351,16.229,238.351,16.229z M218.111,13.294c-1.674,1.088-4.363,2.785-1.84,5.806h1.892
					c2.064-5.064,5.88-6.773,7.58-7.301h-1.895C223.181,12.01,219.206,12.58,218.111,13.294z M63.542,56.816l17.09-38.513
					c0.727-1.636,2.532-2.004,3.607-2.074l-0.131-0.938c0,0-5.381-1.856-6.45,0.544L60.386,57.636l2.519,0.849L63.542,56.816z
					 M173.852,17.766c0.65-1.447,2.811-1.53,3.224-1.537l-0.007-1.575c0,0-6.011,0.941-6.731,2.544l-7.362,17.72l3.278,0.362
					l0.246-0.918L173.852,17.766z M141.558,18.499c0.97-2.187,4.5-2.27,4.5-2.27l0.205-1.754c0,0-6.85-0.368-7.816,1.815
					l-18.354,41.89l3.815,0.183l0.666-1.495L141.558,18.499z M144.25,43.318l-2.532,1.05l-7.724,9.997c0,0-2.544,1.725-6.498,7.625
					h1.895c7.279,0,10.816-5.128,10.816-5.128l5.94-13.543H144.25z M189.987,11.799l-3.322,1.735L170.67,49.762l1.719,2.919
					l1.501,0.906c1.453-3.274,4.856-11.844,17.989-41.788H189.987z M164.249,38.28l-2.718-0.09l-6.914,11.629
					c0,0-3.991,5.727-9.808,12.195l-0.048,0.1c10.989,0,13.332-9.244,13.332-9.244l5.832-13.252L164.249,38.28z M212.471,17.896
					l-2.906-0.183l-14.539,28.168l1.392,3.674l1.332,1.249L212.013,19.1L212.471,17.896z M251.228,11.799l-2.404,1.613l-6.85,15.691
					l0.982,1.421h1.892l8.274-18.726H251.228z M238.945,34.98l-9.631,19.99c0,0-3.089,1.636-8.61,7.08h1.885
					c6.914,0,10.186-4.548,10.186-4.548l10.54-23.888h-1.888L238.945,34.98z M116.812,40.834c0.883-2.891-2.234-3.86-3.835-4.167
					h0.823c1.581-0.051,4.997-0.455,6.046-2.888l6.293-14.673l1.376-3.076c0,0,1.226-4.234-3.329-4.234h-1.895l0.525,4.494
					l-1.562,3.089l-6.344,13.722c0,0-1.598,1.309-3.179,1.364l-3.182,1.632c1.604,0.307,4.433,1.655,3.546,4.545l-1.457,2.362
					l-3.998,11.542c-0.541,0.829-1.93,1.236-2.634,1.815c0,0-2.724,0.093-7.187,5.816h1.895c5.666,0,9.299-3.329,9.299-3.329
					c0.704-0.58,1.405-1.219,1.943-2.052l5.982-13.93L116.812,40.834z M41.039,38.146l0.451-1.408l-3.815,0.183l-8.639,20.991
					l3.002,0.362l0.666-1.405L41.039,38.146z M48.305,15.019l-8.367,19.17l2.458,0.182l0.774-1.001l7.506-17.141l0.167-0.938
					L48.305,15.019z M94.962,11.799h-1.895l-3.236,6.037L72.927,53.18c0,0-2.996,4.094-6.338,8.87h1.892
					c7.282,0,10.688-5.281,10.688-5.281l17.403-39.646C96.572,17.122,98.966,11.799,94.962,11.799z M55.648,40.834
					c0.884-2.891-2.237-3.86-3.838-4.167h0.826c1.581-0.051,4.99-0.455,6.04-2.888l6.299-14.673l1.37-3.076
					c0,0,1.229-4.234-3.326-4.234h-1.895l-1.979,4.522l-5.394,15.24l-2.967,3.844l-3.089,1.396l2.967,3.934l-0.787,2.122
					l-4.302,11.632l-2.663,0.483c0,0-3.21,0.483-7.256,7.208h1.892c5.669,0,9.302-3.329,9.302-3.329
					c0.704-0.58,1.399-1.219,1.943-2.052l5.982-13.93L55.648,40.834z"/>
			</defs>
			<clipPath id="SVGID_2_">
				<use xlink:href="#SVGID_1_"  overflow="visible"/>
			</clipPath>
			<path clip-path="url(#SVGID_2_)" fill="none" stroke="#005C8A" stroke-width="0.1413" d="M216.271,19.1
				c2.064-5.064,5.88-6.773,7.576-7.301h-27.474l-3.201,7.301h6.562l-10.985,25.019l7.109,6.69L210.125,19.1H216.271 M53.753,40.834
				c0.89-2.891-2.228-3.86-3.831-4.167h0.819c1.581-0.051,4.997-0.455,6.046-2.888l6.299-14.673l1.364-3.076
				c0,0,1.239-4.234-3.326-4.234H39.403c1.364,1.223,0.554,3.204,0.189,4.17L19.257,62.178h16.398c5.662,0,9.305-3.329,9.305-3.329
				c0.701-0.58,1.398-1.219,1.939-2.052l5.986-13.93L53.753,40.834 M43.337,40.402l-6.575,15.185
				c-0.247,0.64-1.408,1.091-1.408,1.091c-0.355,0.128-0.72,0.189-1.236,0.189h-3.303l8.332-18.722h2.724
				C42.675,38.193,44.15,38.523,43.337,40.402 M44.294,33.37h-3.015l7.506-17.141h3.592c0,0,1.764-0.128,0.915,1.795l-5.87,13.546
				C46.567,33.527,44.294,33.37,44.294,33.37 M114.919,40.834c0.883-2.891-2.231-3.86-3.838-4.167h0.823
				c1.584-0.051,5-0.455,6.046-2.888l6.299-14.673l1.37-3.076c0,0,1.229-4.234-3.329-4.234h-22.063
				c1.367,1.223,1.123,2.375,0.531,4.17L80.423,62.178h16.395c5.672,0,9.305-3.329,9.305-3.329c0.704-0.58,1.399-1.219,1.939-2.052
				l5.989-13.93L114.919,40.834 M104.5,40.402l-6.568,15.185c-0.253,0.64-1.412,1.091-1.412,1.091
				c-0.355,0.128-0.723,0.189-1.232,0.189h-3.306l8.332-18.722h2.721C103.844,38.193,105.317,38.523,104.5,40.402 M105.461,33.37
				h-3.016l7.503-17.141h3.602c0,0,1.76-0.128,0.906,1.795l-5.868,13.546C107.737,33.527,105.461,33.37,105.461,33.37
				 M93.067,11.799H80.158c0,0-7.705-0.247-10.064,4.782L50.188,62.05h16.401c7.282,0,10.694-5.281,10.694-5.281l17.394-39.646
				C94.677,17.122,97.071,11.799,93.067,11.799 M68.141,54.781c-1.021,1.911-5.252,2.087-5.252,2.087h-1.265l17.112-38.564
				c1.076-2.401,4.462-2.074,4.462-2.074h1.851L68.141,54.781 M242.956,30.524l8.271-18.726h-15.877c0,0-9.353,0.112-12.506,7.298
				l-8.7,19.836h15.176l-6.875,15.617c-1.053,2.381-4.76,2.317-4.76,2.317h-2.09l6.418-14.106h-9.552l-5.678,12.948
				c-3.019,6.693,7.493,6.341,7.493,6.341h6.428c6.904,0,10.179-4.548,10.179-4.548l10.544-23.888h-15.391l6.687-14.855
				c1.05-2.331,3.742-2.529,3.742-2.529h3.21l-6.181,14.295H242.956 M173.147,11.799c-6.92-0.061-10.186,4.549-10.186,4.549
				l-20.089,45.767c10.989,0,13.319-9.244,13.319-9.244l5.838-13.252h5.528l-3.675,9.074l8.111,4.891
				c1.45-3.274,4.856-11.843,17.989-41.788h-16.837 M170.056,34.362h-5.445l7.346-16.597c0.72-1.601,3.303-1.537,3.303-1.537h2.865
				L170.056,34.362 M134.868,43.318l-5.269,12.01c-1.095,1.479-3.957,1.54-3.957,1.54h-2.958l16.987-38.373
				c0.97-2.186,4.494-2.266,4.494-2.266h2.608l-7.922,18.002l9.292,0.067l9.933-22.502h-16.415c0,0-8.207-0.263-10.464,4.891
				l-19.877,45.3h16.177c7.282,0,10.813-5.125,10.813-5.125l5.941-13.543H134.868L134.868,43.318z"/>
		</g>
	</g>
	<g>
		<g>
			<defs>
				<path id="SVGID_3_" d="M148.151,34.285l-1.348-2.638l6.629-16.628l4.645-3.22h1.895l-9.936,22.499L148.151,34.285z
					 M102.199,38.146l0.534-1.408l-3.178-0.275l-9.631,21.449l3.268,0.176l0.682-1.22L102.199,38.146z M109.276,15.019
					l-8.905,18.901l3.637,0.362l0.326-0.912l7.509-17.141l0.343-1.303L109.276,15.019z M223.908,42.761h-1.895l-2.145,1.245
					l-5.819,13.146l2.667,1.21l0.768-1.495L223.908,42.761z M238.351,16.229l-0.067-1.181c0,0-5.925-0.387-6.972,1.939
					l-7.391,16.959l3.515,0.912l0.483-1.245l6.696-14.855C235.668,16.427,238.351,16.229,238.351,16.229z M218.111,13.294
					c-1.674,1.088-4.363,2.785-1.84,5.806h1.892c2.064-5.064,5.88-6.773,7.58-7.301h-1.895
					C223.181,12.01,219.206,12.58,218.111,13.294z M63.542,56.816l17.09-38.513c0.727-1.636,2.532-2.004,3.607-2.074l-0.131-0.938
					c0,0-5.381-1.856-6.45,0.544L60.386,57.636l2.519,0.849L63.542,56.816z M173.852,17.766c0.65-1.447,2.811-1.53,3.224-1.537
					l-0.007-1.575c0,0-6.011,0.941-6.731,2.544l-7.362,17.72l3.278,0.362l0.246-0.918L173.852,17.766z M141.558,18.499
					c0.97-2.187,4.5-2.27,4.5-2.27l0.205-1.754c0,0-6.85-0.368-7.816,1.815l-18.354,41.89l3.815,0.183l0.666-1.495L141.558,18.499z
					 M144.25,43.318l-2.532,1.05l-7.724,9.997c0,0-2.544,1.725-6.498,7.625h1.895c7.279,0,10.816-5.128,10.816-5.128l5.94-13.543
					H144.25z M189.987,11.799l-3.322,1.735L170.67,49.762l1.719,2.919l1.501,0.906c1.453-3.274,4.856-11.844,17.989-41.788H189.987z
					 M164.249,38.28l-2.718-0.09l-6.914,11.629c0,0-3.991,5.727-9.808,12.195l-0.048,0.1c10.989,0,13.332-9.244,13.332-9.244
					l5.832-13.252L164.249,38.28z M212.471,17.896l-2.906-0.183l-14.539,28.168l1.392,3.674l1.332,1.249L212.013,19.1
					L212.471,17.896z M251.228,11.799l-2.404,1.613l-6.85,15.691l0.982,1.421h1.892l8.274-18.726H251.228z M238.945,34.98
					l-9.631,19.99c0,0-3.089,1.636-8.61,7.08h1.885c6.914,0,10.186-4.548,10.186-4.548l10.54-23.888h-1.888L238.945,34.98z
					 M116.812,40.834c0.883-2.891-2.234-3.86-3.835-4.167h0.823c1.581-0.051,4.997-0.455,6.046-2.888l6.293-14.673l1.376-3.076
					c0,0,1.226-4.234-3.329-4.234h-1.895l0.525,4.494l-1.562,3.089l-6.344,13.722c0,0-1.598,1.309-3.179,1.364l-3.182,1.632
					c1.604,0.307,4.433,1.655,3.546,4.545l-1.457,2.362l-3.998,11.542c-0.541,0.829-1.93,1.236-2.634,1.815
					c0,0-2.724,0.093-7.187,5.816h1.895c5.666,0,9.299-3.329,9.299-3.329c0.704-0.58,1.405-1.219,1.943-2.052l5.982-13.93
					L116.812,40.834z M41.039,38.146l0.451-1.408l-3.815,0.183l-8.639,20.991l3.002,0.362l0.666-1.405L41.039,38.146z
					 M48.305,15.019l-8.367,19.17l2.458,0.182l0.774-1.001l7.506-17.141l0.167-0.938L48.305,15.019z M94.962,11.799h-1.895
					l-3.236,6.037L72.927,53.18c0,0-2.996,4.094-6.338,8.87h1.892c7.282,0,10.688-5.281,10.688-5.281l17.403-39.646
					C96.572,17.122,98.966,11.799,94.962,11.799z M55.648,40.834c0.884-2.891-2.237-3.86-3.838-4.167h0.826
					c1.581-0.051,4.99-0.455,6.04-2.888l6.299-14.673l1.37-3.076c0,0,1.229-4.234-3.326-4.234h-1.895l-1.979,4.522l-5.394,15.24
					l-2.967,3.844l-3.089,1.396l2.967,3.934l-0.787,2.122l-4.302,11.632l-2.663,0.483c0,0-3.21,0.483-7.256,7.208h1.892
					c5.669,0,9.302-3.329,9.302-3.329c0.704-0.58,1.399-1.219,1.943-2.052l5.982-13.93L55.648,40.834z"/>
			</defs>
			<clipPath id="SVGID_4_">
				<use xlink:href="#SVGID_3_"  overflow="visible"/>
			</clipPath>
			<path clip-path="url(#SVGID_4_)" fill="none" stroke="#010101" stroke-width="0.1413" d="M216.271,19.1
				c2.064-5.064,5.88-6.773,7.576-7.301h-27.474l-3.201,7.301h6.562l-10.985,25.019l7.109,6.69L210.125,19.1H216.271 M53.753,40.834
				c0.89-2.891-2.228-3.86-3.831-4.167h0.819c1.581-0.051,4.997-0.455,6.046-2.888l6.299-14.673l1.364-3.076
				c0,0,1.239-4.234-3.326-4.234H39.403c1.364,1.223,0.554,3.204,0.189,4.17L19.257,62.178h16.398c5.662,0,9.305-3.329,9.305-3.329
				c0.701-0.58,1.398-1.219,1.939-2.052l5.986-13.93L53.753,40.834 M43.337,40.402l-6.575,15.185
				c-0.247,0.64-1.408,1.091-1.408,1.091c-0.355,0.128-0.72,0.189-1.236,0.189h-3.303l8.332-18.722h2.724
				C42.675,38.193,44.15,38.523,43.337,40.402 M44.294,33.37h-3.015l7.506-17.141h3.592c0,0,1.764-0.128,0.915,1.795l-5.87,13.546
				C46.567,33.527,44.294,33.37,44.294,33.37 M114.919,40.834c0.883-2.891-2.231-3.86-3.838-4.167h0.823
				c1.584-0.051,5-0.455,6.046-2.888l6.299-14.673l1.37-3.076c0,0,1.229-4.234-3.329-4.234h-22.063
				c1.367,1.223,1.123,2.375,0.531,4.17L80.423,62.178h16.395c5.672,0,9.305-3.329,9.305-3.329c0.704-0.58,1.399-1.219,1.939-2.052
				l5.989-13.93L114.919,40.834 M104.5,40.402l-6.568,15.185c-0.253,0.64-1.412,1.091-1.412,1.091
				c-0.355,0.128-0.723,0.189-1.232,0.189h-3.306l8.332-18.722h2.721C103.844,38.193,105.317,38.523,104.5,40.402 M105.461,33.37
				h-3.016l7.503-17.141h3.602c0,0,1.76-0.128,0.906,1.795l-5.868,13.546C107.737,33.527,105.461,33.37,105.461,33.37
				 M93.067,11.799H80.158c0,0-7.705-0.247-10.064,4.782L50.188,62.05h16.401c7.282,0,10.694-5.281,10.694-5.281l17.394-39.646
				C94.677,17.122,97.071,11.799,93.067,11.799 M68.141,54.781c-1.021,1.911-5.252,2.087-5.252,2.087h-1.265l17.112-38.564
				c1.076-2.401,4.462-2.074,4.462-2.074h1.851L68.141,54.781 M242.956,30.524l8.271-18.726h-15.877c0,0-9.353,0.112-12.506,7.298
				l-8.7,19.836h15.176l-6.875,15.617c-1.053,2.381-4.76,2.317-4.76,2.317h-2.09l6.418-14.106h-9.552l-5.678,12.948
				c-3.019,6.693,7.493,6.341,7.493,6.341h6.428c6.904,0,10.179-4.548,10.179-4.548l10.544-23.888h-15.391l6.687-14.855
				c1.05-2.331,3.742-2.529,3.742-2.529h3.21l-6.181,14.295H242.956 M173.147,11.799c-6.92-0.061-10.186,4.549-10.186,4.549
				l-20.089,45.767c10.989,0,13.319-9.244,13.319-9.244l5.838-13.252h5.528l-3.675,9.074l8.111,4.891
				c1.45-3.274,4.856-11.843,17.989-41.788h-16.837 M170.056,34.362h-5.445l7.346-16.597c0.72-1.601,3.303-1.537,3.303-1.537h2.865
				L170.056,34.362 M134.868,43.318l-5.269,12.01c-1.095,1.479-3.957,1.54-3.957,1.54h-2.958l16.987-38.373
				c0.97-2.186,4.494-2.266,4.494-2.266h2.608l-7.922,18.002l9.292,0.067l9.933-22.502h-16.415c0,0-8.207-0.263-10.464,4.891
				l-19.877,45.3h16.177c7.282,0,10.813-5.125,10.813-5.125l5.941-13.543H134.868L134.868,43.318z"/>
		</g>
	</g>
</g>
</svg>
