<?xml version="1.0" encoding="utf-8"?>
<!-- Generator: Adobe Illustrator 16.0.4, SVG Export Plug-In . SVG Version: 6.00 Build 0)  -->
<!DOCTYPE svg PUBLIC "-//W3C//DTD SVG 1.1//EN" "http://www.w3.org/Graphics/SVG/1.1/DTD/svg11.dtd">
<svg version="1.1" id="svg2506" xmlns:svg="http://www.w3.org/2000/svg"
	 xmlns="http://www.w3.org/2000/svg" xmlns:xlink="http://www.w3.org/1999/xlink" x="0px" y="0px" viewBox="8.127 45.327 177.972 160.185" enable-background="new 8.127 45.327 177.972 160.185"
	 xml:space="preserve">
<g>
	<g id="g8" transform="matrix(1.25,0,0,1.25,282.28236,392.0761)">
		<path id="path10" fill="#1C2524" d="M-77.005-250.326c-0.492-9.845-4.922-18.869-7.548-24.12l-1.476-2.953l0.164,2.625
			c0.328,3.446,1.148,15.588-2.461,22.479c-4.595,9.353-17.721,8.532-22.152,8.204h-0.328c-7.055-0.492-30.191-1.312-37.41-1.312
			c-9.354,0-19.691,0.82-28.059,1.477c-4.102,0.328-7.547,0.492-10.009,0.656c-0.164,0-0.492,0-0.82,0
			c-11.649,1.148-19.033-2.297-21.986-10.173c-1.805-4.923-1.642-14.44-1.642-19.034v-3.282l-0.984,1.641
			c-2.133,4.102-6.236,11.65-7.548,24.12c-0.82,14.931,6.891,20.182,12.635,22.807c6.071,2.953,12.47,3.282,14.439,3.446h0.163
			c0.328,0,0.821,0,1.314,0.164c0.656,0,1.312,0,1.969,0.164c-0.984,0.164-2.461,0.493-3.775,0.657
			c-1.312,0.163-2.625,0.491-3.281,0.656c-1.477,0.164-7.22,1.641-10.501,2.625c-2.625,0.985-5.579,2.297-5.579,2.297l-0.492,0.328
			l0.328,0.492c0,0,0.984,1.313,1.969,2.297c2.134,2.134,7.876,5.743,14.768,4.923c5.579-0.82,8.532-1.969,9.68-2.625
			c0.492,1.149,1.312,3.938,2.133,6.07c2.462,6.236,8.204,18.214,10.338,22.316c1.805,3.282,3.445,6.235,4.594,8.204l0.492,0.656
			c-0.328,1.313-1.312,2.133-1.969,2.79c-0.164,0.163-0.328,0.163-0.492,0.327l-0.164,0.164v0.166
			c0,1.148-0.328,11.485,6.727,19.033l0.164,0.164c3.609,1.312,8.04,2.625,15.423,2.625c7.547,0,13.782-1.641,16.079-2.789v-0.164
			h0.165c4.922-5.744,7.055-14.44,7.219-17.721v-0.164l-0.164-0.164c-0.164-0.164-0.328-0.164-0.492-0.328
			c-0.657-0.822-1.641-1.642-2.133-3.775c0.492-0.984,1.641-3.445,2.625-5.415c0.656-1.148,0.984-2.133,1.313-2.625
			c1.969-4.101,8.039-17.064,10.501-23.136c1.477-3.937,2.297-5.906,2.789-6.562c0.985,0.492,3.938,1.805,9.353,2.297
			c6.892,0.82,13.619-3.938,15.424-6.564c0.328-0.328,0.984-0.984,0.984-0.984l0.328-0.492l-0.492-0.328
			c-0.164,0-0.328,0-1.312-0.492l-7.876-2.461c-0.985-0.493-5.744-1.478-9.189-2.134l-2.625-0.656l0.82-0.165
			C-97.022-225.385-75.692-229.159-77.005-250.326z"/>
	</g>
	<g id="g12" transform="matrix(1.25,0,0,1.25,285.56486,399.2551)">
		<path id="path14" fill="#D2153A" d="M-214.341-277.399c-0.164,5.578-0.164,11.486,1.148,16.736
			c-1.148-0.984-2.461-2.297-3.609-3.282c-1.148,1.15-2.133,2.462-3.281,3.61C-218.935-266.242-216.966-271.985-214.341-277.399z"/>
	</g>
	<g id="g16" transform="matrix(1.25,0,0,1.25,450.67111,398.84485)">
		<path id="path18" fill="#D2153A" d="M-213.849-262.468l0.328,1.477l-2.79-1.97c-1.312,0.493-2.461,1.313-3.773,1.97
			c0.984-5.251,1.148-10.83,0.82-16.408C-216.803-272.642-215.326-267.554-213.849-262.468z"/>
	</g>
	<g id="g20" transform="matrix(1.25,0,0,1.25,348.94011,482.52698)">
		<path id="path22" fill="#D2153A" d="M-201.378-277.399c2.954,4.593,8.532,5.906,13.454,4.593c1.969-0.328,3.775-1.148,5.415-1.804
			c-1.476,4.758-2.625,10.173-2.462,15.588c0,4.757,0.822,9.352,2.134,13.618c-0.656-0.328-1.312-0.821-2.134-1.149
			c-10.172-5.086-24.283-4.922-34.293,0.328c0.493-1.64,0.985-3.281,1.314-4.921c1.641-7.712,0.492-15.752-2.134-22.644
			c5.415,2.297,13.127,2.789,17.557-2.297C-202.034-276.415-201.87-276.907-201.378-277.399z"/>
	</g>
	<g id="g24" transform="matrix(1.25,0,0,1.25,332.73773,487.24323)">
		<path id="path26" fill="#D2153A" d="M-210.895-277.399c-0.328,2.297-0.984,4.595-3.281,5.415
			c-1.805,0.492-3.611-0.493-4.759-1.805c-0.493-0.657-0.985-1.313-1.148-2.133c2.789,1.804,6.563,0.328,9.024-1.477H-210.895z"/>
	</g>
	<g id="g28" transform="matrix(1.25,0,0,1.25,400.62611,487.65323)">
		<path id="path30" fill="#D2153A" d="M-211.06-277.399c-0.656,1.969-2.297,3.939-4.429,4.267c-1.477,0.327-2.79-0.493-3.774-1.806
			c-0.493-0.656-0.657-1.476-0.821-2.297C-217.622-275.266-213.685-275.758-211.06-277.399z"/>
	</g>
	<g id="g32" transform="matrix(1.25,0,0,1.25,395.08861,489.90948)">
		<path id="path34" fill="#D2153A" d="M-212.208-273.625c0.984,0.164,2.133,0,3.117-0.328c-2.789,7.056-6.235,13.946-9.844,20.838
			c-1.149-3.445-0.985-7.22-0.657-10.993c0.492-4.595,1.641-9.024,2.953-13.291C-215.818-275.594-214.178-273.953-212.208-273.625z"
			/>
	</g>
	<g id="g36" transform="matrix(1.25,0,0,1.25,335.19861,489.70448)">
		<path id="path38" fill="#D2153A" d="M-209.255-252.951c-4.266-6.563-7.547-13.454-10.829-20.51
			c1.477,0.657,3.775,1.313,5.251,0.164c1.477-0.984,2.297-2.461,2.789-4.102C-208.433-270.343-207.613-260.991-209.255-252.951z"/>
	</g>
	<g id="g40" transform="matrix(1.25,0,0,1.25,345.45373,515.34323)">
		<path id="path42" fill="#D2153A" d="M-176.931-267.883c-0.82,6.071-2.953,11.486-6.891,16.244
			c-8.86,3.61-21.002,3.938-29.863,0.164c-4.43-4.922-6.071-10.994-6.399-17.556c9.517-6.892,24.448-8.368,35.277-3.447
			C-182.017-271.165-179.392-269.853-176.931-267.883z"/>
	</g>
	<g id="g44" transform="matrix(1.25,0,0,1.25,293.97298,433.50673)">
		<path id="path46" fill="#D2153A" d="M-98.993-251.802c-7.381-2.954-17.063-4.595-25.102-4.759
			c-0.821-9.189-1.806-14.767-3.611-19.854c-4.101-0.328-22.806-0.984-29.862-0.984c-7.22,0-25.433,1.148-29.7,1.312
			c-1.641,4.923-3.609,10.993-4.429,20.019c-8.204,0.491-19.362,2.789-26.745,5.578c-1.15,0.492-1.642,0.82-1.642,0.82
			c1.149,1.313,5.251,6.236,12.963,6.4c2.461,0,7.056-0.328,10.173-1.641c0.82-0.492,2.461-1.148,2.461-1.148
			s0.492,0.984,0.82,1.804c0.82,2.297,1.806,5.578,2.462,7.056c1.149,2.133,2.789,3.773,5.742,3.938
			c2.462,0,4.267-2.133,4.595-2.461c-7.22-0.493-10.173-4.267-10.665-10.173c-1.805-0.328-2.298-0.492-2.462-1.314
			c-0.164-0.984,0.164-1.968,0.821-3.117c0.82-0.984,2.133-2.133,5.578-0.984c2.297,0.656,4.103,2.133,5.251,3.281
			c1.641,1.313,5.907,5.743,8.532,7.384c2.789,1.64,8.04,3.118,11.486-0.328c3.446-3.282,3.773-6.072,4.267-7.712
			c-5.907-0.164-11.322-0.821-16.408-1.477c-1.478-0.164-0.821-1.64,0.328-1.312c0,0,9.516,1.312,16.244,1.312
			c0-0.82,0-2.133,0-3.609c-3.938-0.164-10.502-0.492-16.736-1.806c-1.314-0.327-1.148-1.805,0.164-1.476
			c0.82,0.328,11.157,1.805,16.736,1.805c0-1.313,0-2.954,0-4.595c-3.611,0.165-9.025-0.328-16.573-1.476
			c-1.312-0.164-1.148-1.312,0-1.312c0,0,9.517,1.477,16.573,1.312c0-0.984,0-2.297,0-3.611c0-1.312,1.148-1.477,1.148,0
			c0,0.493,0.164,1.806,0.164,3.611c6.727-0.164,12.797-0.984,15.587-1.477c1.641-0.328,1.477,0.984,0.657,1.148
			c-0.985,0.164-8.861,1.64-16.409,1.804c0,1.313,0.164,3.118,0.164,4.43c5.086-0.164,10.829-0.328,15.916-1.476
			c1.804-0.329,1.968,1.148,0.328,1.312c-4.923,0.821-11.979,1.642-16.244,1.806c0,1.148,0,2.625,0.164,3.609
			c8.04-0.164,15.588-1.312,16.9-1.476c1.313-0.329,1.641,1.148,0.164,1.312c-1.312,0.164-10.83,1.477-16.9,1.477
			c0.657,2.133,0.657,5.087,3.61,7.547c2.954,2.461,7.712,2.297,11.158,0.329c2.625-1.477,6.727-6.072,8.204-7.384
			c1.313-1.149,4.266-3.774,8.204-3.774c3.774,0,3.938,2.133,4.102,2.625c0.164,0.657,0.328,1.806-0.492,2.297
			c-0.656,0.493-1.313,0.329-1.969,0.657c-0.492,3.118-1.476,6.727-4.102,8.697c-2.625,1.969-6.892,2.297-6.892,2.297
			s0.656,0.656,0.82,0.82c0.329,0.328,1.806,1.148,3.775,0.984c1.64-0.164,3.773-1.476,4.593-2.461
			c1.314-1.64,2.462-5.251,3.447-7.547c0.328-0.821,1.148-2.297,1.312-2.954c0.821,0.329,1.15,0.493,2.625,1.149
			c3.118,1.148,7.055,1.64,9.517,1.64c3.937-0.164,8.532-2.625,11.322-5.086c0.492-0.493,1.312-1.641,1.312-1.641
			S-98.171-251.638-98.993-251.802z"/>
	</g>
	<g id="g48" transform="matrix(1.25,0,0,1.25,375.80898,524.36573)">
		<path id="path50" fill="#1C2524" d="M-207.613-274.28c0.656,1.476,0.163,3.117-0.657,4.265c-1.641,1.806-3.938,2.626-6.235,1.969
			c-1.313-0.327-2.626-1.148-3.446-2.625c-0.493,1.148,0.492,2.134,0.328,3.118c-0.164,0.328-0.492,0.328-0.656,0.164
			c-1.312-1.805-1.805-4.431-0.657-6.399c1.477-2.461,4.102-3.611,7.055-3.283C-210.239-276.741-208.434-275.921-207.613-274.28z"/>
	</g>
	<g id="g52" transform="matrix(1.25,0,0,1.25,352.01748,524.77573)">
		<path id="path54" fill="#1C2524" d="M-208.434-273.624c1.148,1.805,0.656,4.43-0.492,6.071c-0.164,0.328-0.328,0.656-0.656,0.328
			c-0.492-0.492,0.164-0.984,0.164-1.64c0.164-0.493,0.328-0.986,0.164-1.478c-1.641,2.134-3.938,3.118-6.399,2.626
			c-1.805-0.328-3.445-1.641-4.102-3.446c-0.328-1.149-0.164-2.461,0.492-3.445c1.64-2.133,4.758-2.791,7.384-1.805
			C-210.567-276.085-209.091-274.937-208.434-273.624z"/>
	</g>
	<g id="g56" transform="matrix(1.25,0,0,1.25,353.24798,539.54448)">
		<path id="path58" fill="#1C2524" d="M-189.728-272.968c-0.165,0.327-0.329,0.327-0.657,0.82c-0.821-0.329-1.805-0.657-2.789-0.985
			c-8.205-3.282-18.705-2.297-26.418,0.985c-0.164-0.329-0.328-0.493-0.492-0.82C-211.059-276.907-198.754-277.399-189.728-272.968z
			"/>
	</g>
	<g id="g60" transform="matrix(1.25,0,0,1.25,353.04286,490.11448)">
		<path id="path62" fill="#1C2524" d="M-188.088-277.071c-1.476,6.564-5.579,13.947-12.306,15.752
			c-5.415,1.477-11.65,0.328-15.26-4.102c-2.625-3.282-3.938-7.219-4.43-11.486c0.328-0.164,0.656-0.164,0.984-0.164
			c0.492,6.071,3.773,12.963,9.845,14.932c5.251,1.64,11.649,0,15.423-4.594c2.461-3.118,4.102-6.892,4.922-10.666
			C-188.58-277.399-188.416-277.399-188.088-277.071z"/>
	</g>
	<g id="g112" transform="matrix(1.25,0,0,1.25,283.51286,418.32973)">
		<path id="path114" fill="#FFFFFF" d="M-210.074-271.657c3.445,6.728,10.665,9.025,17.885,8.696c4.102,0,8.04-0.492,11.977-0.82
			v0.328c-1.968,5.743-3.445,11.649-4.266,17.72c-10.501,0.328-21.166-0.492-29.042-7.548c-5.251-5.25-6.564-12.634-5.415-19.853
			c1.314-1.477,2.626-2.789,3.774-4.266C-213.356-275.595-210.567-274.118-210.074-271.657z"/>
	</g>
	<g id="g116" transform="matrix(1.25,0,0,1.25,411.08611,418.94498)">
		<path id="path118" fill="#FFFFFF" d="M-181.524-275.267c0.328,1.148,0.328,2.133,0.492,3.117
			c0.492,8.204-2.953,15.588-10.009,19.691c-7.548,4.594-16.244,6.234-25.433,6.398c-0.164-0.82-0.328-1.968-0.328-2.789
			c-0.82-5.415-1.805-10.829-3.282-15.916c9.845,0,21.987,2.625,28.551-6.564c0.82-1.312,1.64-2.461,2.461-3.773
			c1.476-0.656,2.953-1.641,4.265-2.297C-183.658-276.907-182.673-275.923-181.524-275.267z"/>
	</g>
	<g id="g120" transform="matrix(1.25,0,0,1.25,402.06111,472.88698)">
		<path id="path122" fill="#FFFFFF" d="M-211.88-277.399c0,3.117-0.984,6.234-3.773,7.712c-1.313,0.656-2.789,0.984-4.267,0.984
			c-0.164-0.328-0.164-0.656,0-0.984c2.134,0,4.431-0.822,5.579-2.626c0.821-1.313,1.149-2.953,1.149-4.594
			C-212.864-277.235-212.372-277.399-211.88-277.399z"/>
	</g>
	<g id="g124" transform="matrix(1.25,0,0,1.25,331.30211,473.29698)">
		<path id="path126" fill="#FFFFFF" d="M-211.223-269.359c-0.492,0-0.656,0.164-1.477,0c-3.61,0-7.384-2.954-7.22-7.876
			c0.492-0.164,0.984-0.164,1.312,0c0,2.789,1.148,6.726,7.22,6.726C-211.059-269.852-211.388-269.852-211.223-269.359z"/>
	</g>
</g>
</svg>
