<?xml version="1.0" encoding="utf-8"?>
<!-- Generator: Adobe Illustrator 16.0.4, SVG Export Plug-In . SVG Version: 6.00 Build 0)  -->
<!DOCTYPE svg PUBLIC "-//W3C//DTD SVG 1.1//EN" "http://www.w3.org/Graphics/SVG/1.1/DTD/svg11.dtd">
<svg version="1.1"
	 id="svg2" xmlns:svg="http://www.w3.org/2000/svg" xmlns:dc="http://purl.org/dc/elements/1.1/" xmlns:cc="http://creativecommons.org/ns#" xmlns:rdf="http://www.w3.org/1999/02/22-rdf-syntax-ns#"
	 xmlns="http://www.w3.org/2000/svg" xmlns:xlink="http://www.w3.org/1999/xlink" x="0px" y="0px" viewBox="0 0 294.98 156.41" enable-background="new 0 0 294.98 156.41" xml:space="preserve">
<g>
	<g id="g4974">
		<g id="g4980" transform="translate(255.0264,701.9131)">
			<path id="path4982" fill="#FDBB30" d="M-165.037-619.43c-2.484-43.009,30.371-79.88,73.377-82.353
				c42.996-2.474,79.86,30.376,82.339,73.385c2.466,42.989-30.374,79.856-73.379,82.341
				C-125.699-543.589-162.564-576.439-165.037-619.43"/>
		</g>
		<g id="g4984" transform="translate(376.6699,708.9272)">
			<path id="path4986" fill="#002B60" d="M-134.626-635.211c2.366,40.978-28.944,76.123-69.929,78.479
				c-40.985,2.361-76.112-28.948-78.479-69.924c-2.362-40.984,28.948-76.127,69.934-78.484
				C-172.116-707.501-136.989-676.198-134.626-635.211"/>
		</g>
		<g id="g4988" transform="translate(376.6699,708.9272)">
			<path id="path4990" fill="none" stroke="#002B60" stroke-width="0.288" d="M-134.626-635.211
				c2.366,40.978-28.944,76.123-69.929,78.479c-40.985,2.361-76.112-28.948-78.479-69.924
				c-2.362-40.984,28.948-76.127,69.934-78.484C-172.116-707.501-136.989-676.198-134.626-635.211z"/>
		</g>
		<g id="g4992" transform="translate(372.1523,708.6611)">
			<path id="path4994" fill="#860038" d="M-135.756-634.612c0.891,15.311-3.324,29.752-11.157,41.665
				c-5.935-17.083-25.205-35.95-41.429-51.382c-14.527-13.171-20.507-23.894-21.49-32.319c27.406-0.801,54.081,12.211,73.416,35.585
				C-136.095-638.942-135.882-636.791-135.756-634.612 M-150.814-587.595c-8.725,10.836-20.701,18.998-34.546,22.964
				c-38.335-28.118-45.143-78.567-41.232-109.777c3.782-0.91,7.576-1.537,11.368-1.903c0.805,9.372,6.772,21.024,21.847,34.689
				C-176.874-625.934-156.511-605.192-150.814-587.595 M-191.132-563.251c-3.006,0.585-6.094,0.977-9.238,1.156
				c-20.591,1.179-39.583-6.83-52.981-20.478c-7.207-14.24-8.602-36.615-3.738-51.548c2.598-7.995,10.195-18.836,12.527-26.935
				c0.844-2.98,1.634-5.506,2.163-7.883c3.647-1.661,7.33-3.054,11.039-4.17C-235.569-641.176-229.388-590.811-191.132-563.251
				 M-262.616-594.332c-5.904-9.455-9.585-20.473-10.265-32.39c-0.462-7.924,0.449-15.645,2.521-22.889
				c7.257-6.959,14.889-12.505,22.732-16.714l-0.075,0.286c-2.516,9.598-8.88,17.65-12.535,26.635
				C-266.098-625.021-265.925-608.341-262.616-594.332 M-270.104-650.469c0.152-0.499,0.31-1.002,0.473-1.504
				C-269.694-651.426-269.838-650.951-270.104-650.469 M-267.168-658.429c4.193-9.456,10.465-17.825,18.271-24.491
				c2.34,2.254,2.632,6.729,2.257,10.802C-253.6-668.596-260.458-664.055-267.168-658.429 M-245.055-685.973
				c5.94-4.391,12.643-7.846,19.879-10.16c-2.129,4.179-4.026,10.284-5.354,17.68c-3.747,1.074-7.5,2.42-11.221,4.03
				C-241.772-677.791-242.676-681.337-245.055-685.973 M-219.933-697.569c3.779-0.874,7.671-1.439,11.672-1.674
				c1.663-0.099,3.33-0.125,4.987-0.11c-5.749,3.638-10.915,9.725-11.891,18.015c-3.531,0.329-7.089,0.887-10.634,1.681
				C-224.406-687.51-222.313-693.771-219.933-697.569 M-195.043-698.747c26.211,3.55,48.045,21.987,56.091,46.938
				c-19.829-19.305-44.918-30.626-70.88-29.855C-208.729-690.376-201.906-695.985-195.043-698.747"/>
		</g>
		<g id="g4996" transform="translate(372.1523,708.6611)">
			<path id="path4998" fill="none" stroke="#860038" stroke-width="0.288" d="M-135.756-634.612
				c0.891,15.311-3.324,29.752-11.157,41.665c-5.935-17.083-25.205-35.95-41.429-51.382c-14.527-13.171-20.507-23.894-21.49-32.319
				c27.406-0.801,54.081,12.211,73.416,35.585C-136.095-638.942-135.882-636.791-135.756-634.612z M-150.814-587.595
				c-8.725,10.836-20.701,18.998-34.546,22.964c-38.335-28.118-45.143-78.567-41.232-109.777c3.782-0.91,7.576-1.537,11.368-1.903
				c0.805,9.372,6.772,21.024,21.847,34.689C-176.874-625.934-156.511-605.192-150.814-587.595z M-191.132-563.251
				c-3.006,0.585-6.094,0.977-9.238,1.156c-20.591,1.179-39.583-6.83-52.981-20.478c-7.207-14.24-8.602-36.615-3.738-51.548
				c2.598-7.995,10.195-18.836,12.527-26.935c0.844-2.98,1.634-5.506,2.163-7.883c3.647-1.661,7.33-3.054,11.039-4.17
				C-235.569-641.176-229.388-590.811-191.132-563.251z M-262.616-594.332c-5.904-9.455-9.585-20.473-10.265-32.39
				c-0.462-7.924,0.449-15.645,2.521-22.889c7.257-6.959,14.889-12.505,22.732-16.714l-0.075,0.286
				c-2.516,9.598-8.88,17.65-12.535,26.635C-266.098-625.021-265.925-608.341-262.616-594.332z M-270.104-650.469
				c0.152-0.499,0.31-1.002,0.473-1.504C-269.695-651.426-269.838-650.951-270.104-650.469z M-267.168-658.429
				c4.193-9.457,10.465-17.825,18.271-24.491c2.34,2.253,2.632,6.729,2.257,10.802C-253.6-668.596-260.458-664.055-267.168-658.429
				L-267.168-658.429z M-245.055-685.973c5.94-4.391,12.643-7.846,19.879-10.16c-2.129,4.179-4.026,10.284-5.354,17.68
				c-3.747,1.074-7.5,2.42-11.221,4.03C-241.772-677.791-242.676-681.337-245.055-685.973z M-219.933-697.569
				c3.778-0.874,7.671-1.439,11.672-1.674c1.663-0.099,3.33-0.125,4.987-0.11c-5.749,3.638-10.915,9.725-11.891,18.015
				c-3.531,0.329-7.089,0.887-10.634,1.681C-224.406-687.51-222.313-693.771-219.933-697.569L-219.933-697.569z M-195.043-698.747
				c26.211,3.55,48.045,21.987,56.091,46.938c-19.829-19.305-44.918-30.626-70.88-29.855
				C-208.729-690.376-201.906-695.985-195.043-698.747L-195.043-698.747z"/>
		</g>
		<g id="g5000" transform="translate(406.2451,669.8916)">
			<path id="path5002" fill="#FDBB30" d="M-127.232-547.381l-28.71-7.715c5.256-3.966,22.815-8.286,23.059-17.554
				c0.01-0.145,0.021-0.269,0.022-0.404c9.44-7.479,12.735-18,9.49-32.441l12.106-30.157c0,0-31.266,7.522-36.281,8.724
				l4.694-14.106l-111.52,27.429c-26.458-11.531-58.63-2.473-83.876,12.431l-19.462-4.905c-17.649-4.554-33.224-8.435-48.534-4.936
				c11.715,10.458,27.22,14.599,44.876,19.151l6.845,1.775c-6.776,5.355-12.576,10.922-16.954,16.281l-4.409,5.38l15.938-2.527
				c-36.781,58.125,23.736,79.775,64.513,28.92l42.29-11.081c-5.886,7.812-5.886,19.405-5.886,19.405l2.56-1.954
				c12.765-10.761,27.557-16.151,39.012-18.494l27.115,7.118c-0.049,0.101-0.066,0.251-0.069,0.45
				c-0.955,14.944,5.96,25.069,21.335,27.562c0.902,0.167,1.556,0.33,2.694,0.498c-0.276-3.247-0.3-5.623-0.143-8.883
				c11.67,8.343,24.52,6.852,35.147-2.414l0.808,1.949c11.418,2.811,17.106-16.499,16.211-20.82
				C-114.384-548.802-120.471-549.699-127.232-547.381"/>
		</g>
	</g>
	<g id="g5004">
		<g>
			<defs>
				<path id="SVGID_1_" d="M163.893,9.419c-4.003,0.235-7.895,0.8-11.674,1.672l0,0c-2.38,3.799-4.471,10.059-5.865,17.914l0,0
					c3.545-0.794,7.104-1.354,10.634-1.683l0,0c0.977-8.289,6.143-14.376,11.891-18.014l0,0c-0.28-0.002-0.56-0.004-0.841-0.004l0,0
					C166.659,9.305,165.273,9.336,163.893,9.419 M162.32,26.996c25.961-0.771,51.051,10.55,70.881,29.855l0,0
					c-8.047-24.95-29.88-43.389-56.091-46.938l0,0C170.248,12.676,163.422,18.285,162.32,26.996 M127.097,22.688
					c2.379,4.635,3.283,8.183,3.305,11.551l0,0c3.72-1.61,7.473-2.957,11.22-4.03l0,0c1.327-7.398,3.225-13.501,5.354-17.679l0,0
					C139.74,14.842,133.039,18.297,127.097,22.688 M104.985,50.232c6.709-5.626,13.567-10.166,20.527-13.688l0,0
					c0.375-4.074,0.084-8.549-2.256-10.804l0,0C115.45,32.407,109.176,40.777,104.985,50.232 M162.32,32.013
					c0.984,8.425,6.961,19.148,21.49,32.318l0,0c16.225,15.433,35.494,34.299,41.43,51.383l0,0
					c7.833-11.913,12.049-26.355,11.158-41.665l0,0c-0.126-2.179-0.339-4.332-0.661-6.451l0,0
					c-18.774-22.695-44.463-35.622-71.025-35.62l0,0C163.916,31.978,163.116,31.989,162.32,32.013 M145.559,34.252
					c-3.909,31.21,2.899,81.66,41.234,109.779l0,0c13.842-3.969,25.82-12.129,34.545-22.965l0,0
					c-5.695-17.599-26.059-38.338-42.562-54.029l0,0c-15.076-13.664-21.042-25.316-21.849-34.688l0,0
					C153.135,32.716,149.342,33.341,145.559,34.252 M129.753,39.721c-0.528,2.377-1.318,4.904-2.162,7.884l0,0
					c-2.332,8.099-9.93,18.94-12.528,26.935l0,0c-4.864,14.934-3.469,37.309,3.739,51.549l0,0
					c13.396,13.647,32.389,21.656,52.98,20.476l0,0c3.145-0.179,6.231-0.57,9.239-1.155l0,0
					c-38.257-27.56-44.438-77.925-40.229-109.857l0,0C137.083,36.668,133.401,38.061,129.753,39.721 M101.792,59.05
					c-2.071,7.244-2.984,14.965-2.521,22.889l0,0c0.68,11.918,4.361,22.934,10.265,32.39l0,0
					c-3.309-14.009-3.482-30.689,2.38-45.071l0,0c3.654-8.985,10.018-17.038,12.534-26.635l0,0l0.075-0.287
					C116.681,46.545,109.05,52.091,101.792,59.05 M102.047,58.194c0.268-0.484,0.41-0.959,0.474-1.505l0,0
					C102.357,57.19,102.2,57.692,102.047,58.194"/>
			</defs>
			<clipPath id="SVGID_2_">
				<use xlink:href="#SVGID_1_"  overflow="visible"/>
			</clipPath>
			<g id="g5006" clip-path="url(#SVGID_2_)">
				<g id="g5012" transform="translate(406.2451,669.8916)">
					<path id="path5014" fill="#FDBB30" d="M-127.232-547.381l-28.71-7.715c5.256-3.966,22.815-8.286,23.059-17.554
						c0.01-0.145,0.021-0.269,0.022-0.404c9.44-7.479,12.735-18,9.49-32.441l12.106-30.157c0,0-31.266,7.522-36.281,8.724
						l4.694-14.106l-111.52,27.429c-26.458-11.531-58.63-2.473-83.876,12.431l-19.462-4.905
						c-17.649-4.554-33.224-8.435-48.534-4.936c11.715,10.458,27.22,14.599,44.876,19.151l6.845,1.775
						c-6.776,5.355-12.576,10.922-16.954,16.281l-4.409,5.38l15.938-2.527c-36.781,58.125,23.736,79.775,64.513,28.92l42.29-11.081
						c-5.886,7.812-5.886,19.405-5.886,19.405l2.56-1.954c12.765-10.761,27.557-16.151,39.012-18.494l27.115,7.118
						c-0.049,0.101-0.066,0.251-0.069,0.45c-0.955,14.944,5.96,25.069,21.335,27.562c0.902,0.167,1.556,0.33,2.694,0.498
						c-0.276-3.247-0.3-5.623-0.143-8.883c11.67,8.343,24.52,6.852,35.147-2.414l0.808,1.949
						c11.418,2.811,17.106-16.499,16.211-20.82C-114.384-548.802-120.471-549.699-127.232-547.381"/>
				</g>
				<g id="g5016" transform="translate(406.2451,669.8916)">
					<path id="path5018" fill="none" stroke="#860038" stroke-width="0.288" d="M-127.232-547.381l-28.71-7.715
						c5.256-3.966,22.815-8.286,23.059-17.554c0.01-0.145,0.021-0.269,0.022-0.404c9.44-7.479,12.735-18,9.49-32.441l12.106-30.157
						c0,0-31.266,7.522-36.281,8.724l4.694-14.106l-111.52,27.429c-26.458-11.531-58.63-2.473-83.876,12.431l-19.462-4.905
						c-17.649-4.554-33.224-8.435-48.534-4.936c11.715,10.458,27.22,14.599,44.876,19.151l6.845,1.775
						c-6.776,5.355-12.576,10.922-16.954,16.281l-4.409,5.38l15.938-2.527c-36.781,58.125,23.736,79.775,64.513,28.92l42.29-11.081
						c-5.886,7.812-5.886,19.405-5.886,19.405l2.56-1.954c12.765-10.761,27.557-16.151,39.012-18.494l27.115,7.118
						c-0.049,0.101-0.066,0.251-0.069,0.45c-0.955,14.944,5.96,25.069,21.335,27.562c0.902,0.167,1.556,0.33,2.694,0.498
						c-0.276-3.247-0.3-5.623-0.143-8.883c11.67,8.343,24.52,6.852,35.147-2.414l0.808,1.949
						c11.418,2.811,17.106-16.499,16.211-20.82C-114.384-548.802-120.471-549.699-127.232-547.381z"/>
				</g>
			</g>
		</g>
	</g>
	<g id="g5020">
		<g>
			<defs>
				<path id="SVGID_3_" d="M163.569,3.788c-40.985,2.356-72.295,37.5-69.933,78.483l0,0c2.366,40.975,37.494,72.285,78.479,69.924
					l0,0c40.985-2.357,72.295-37.502,69.929-78.479l0,0c-2.277-39.53-35.039-70.054-74.132-70.055l0,0
					C166.471,3.661,165.025,3.704,163.569,3.788 M152.219,11.091c3.779-0.873,7.671-1.438,11.674-1.672l0,0
					c1.662-0.099,3.33-0.125,4.986-0.11l0,0c-5.749,3.638-10.915,9.725-11.892,18.014l0,0c-3.53,0.329-7.089,0.889-10.634,1.683l0,0
					C147.748,21.15,149.839,14.89,152.219,11.091 M177.11,9.914c26.211,3.549,48.044,21.988,56.091,46.938l0,0
					c-19.83-19.305-44.92-30.626-70.881-29.855l0,0C163.422,18.285,170.248,12.676,177.11,9.914 M127.097,22.688
					c5.941-4.39,12.643-7.845,19.879-10.158l0,0c-2.129,4.178-4.026,10.281-5.354,17.679l0,0c-3.748,1.073-7.5,2.42-11.22,4.03l0,0
					C130.38,30.87,129.476,27.322,127.097,22.688 M123.256,25.74c2.34,2.255,2.631,6.73,2.256,10.804l0,0
					c-6.96,3.522-13.819,8.062-20.527,13.688l0,0C109.176,40.777,115.45,32.407,123.256,25.74 M183.81,64.331
					c-14.528-13.17-20.506-23.894-21.49-32.318l0,0c27.406-0.801,54.081,12.21,73.417,35.585l0,0
					c0.322,2.12,0.535,4.272,0.661,6.451l0,0c0.891,15.31-3.325,29.752-11.158,41.665l0,0
					C219.304,98.63,200.035,79.764,183.81,64.331 M145.559,34.252c3.784-0.911,7.576-1.536,11.367-1.902l0,0
					c0.807,9.371,6.773,21.024,21.849,34.688l0,0c16.503,15.691,36.867,36.43,42.562,54.029l0,0
					c-8.725,10.836-20.703,18.996-34.545,22.965l0,0C148.457,115.913,141.65,65.462,145.559,34.252 M118.802,126.089
					c-7.208-14.24-8.603-36.615-3.739-51.549l0,0c2.598-7.995,10.196-18.836,12.527-26.935l0,0c0.844-2.98,1.634-5.506,2.163-7.884
					l0,0c3.647-1.66,7.33-3.052,11.039-4.168l0,0c-4.209,31.932,1.971,82.297,40.229,109.857l0,0
					c-3.007,0.585-6.094,0.976-9.239,1.155l0,0c-1.339,0.078-2.671,0.115-3.995,0.115l0,0
					C148.745,146.68,131.327,138.85,118.802,126.089 M99.271,81.938c-0.462-7.923,0.45-15.645,2.521-22.889l0,0
					c7.257-6.958,14.889-12.505,22.732-16.713l0,0l-0.075,0.286c-2.516,9.597-8.88,17.65-12.534,26.635l0,0
					c-5.862,14.383-5.688,31.062-2.38,45.071l0,0C103.632,104.873,99.951,93.856,99.271,81.938 M102.521,56.689
					c-0.063,0.546-0.206,1.021-0.474,1.505l0,0C102.2,57.692,102.357,57.19,102.521,56.689"/>
			</defs>
			<clipPath id="SVGID_4_">
				<use xlink:href="#SVGID_3_"  overflow="visible"/>
			</clipPath>
			<g id="g5022" clip-path="url(#SVGID_4_)">
				<g id="g5028" transform="translate(406.2451,669.8916)">
					<path id="path5030" fill="#FDBB30" d="M-127.232-547.381l-28.71-7.715c5.256-3.966,22.815-8.286,23.059-17.554
						c0.01-0.145,0.021-0.269,0.022-0.404c9.44-7.479,12.735-18,9.49-32.441l12.106-30.157c0,0-31.266,7.522-36.281,8.724
						l4.694-14.106l-111.52,27.429c-26.458-11.531-58.63-2.473-83.876,12.431l-19.462-4.905
						c-17.649-4.554-33.224-8.435-48.534-4.936c11.715,10.458,27.22,14.599,44.876,19.151l6.845,1.775
						c-6.776,5.355-12.576,10.922-16.954,16.281l-4.409,5.38l15.938-2.527c-36.781,58.125,23.736,79.775,64.513,28.92l42.29-11.081
						c-5.886,7.812-5.886,19.405-5.886,19.405l2.56-1.954c12.765-10.761,27.557-16.151,39.012-18.494l27.115,7.118
						c-0.049,0.101-0.066,0.251-0.069,0.45c-0.955,14.944,5.96,25.069,21.335,27.562c0.902,0.167,1.556,0.33,2.694,0.498
						c-0.276-3.247-0.3-5.623-0.143-8.883c11.67,8.343,24.52,6.852,35.147-2.414l0.808,1.949
						c11.418,2.811,17.106-16.499,16.211-20.82C-114.384-548.802-120.471-549.699-127.232-547.381"/>
				</g>
				<g id="g5032" transform="translate(406.2451,669.8916)">
					<path id="path5034" fill="none" stroke="#002B60" stroke-width="0.288" d="M-127.232-547.381l-28.71-7.715
						c5.256-3.966,22.815-8.286,23.059-17.554c0.01-0.145,0.021-0.269,0.022-0.404c9.44-7.479,12.735-18,9.49-32.441l12.106-30.157
						c0,0-31.266,7.522-36.281,8.724l4.694-14.106l-111.52,27.429c-26.458-11.531-58.63-2.473-83.876,12.431l-19.462-4.905
						c-17.649-4.554-33.224-8.435-48.534-4.936c11.715,10.458,27.22,14.599,44.876,19.151l6.845,1.775
						c-6.776,5.355-12.576,10.922-16.954,16.281l-4.409,5.38l15.938-2.527c-36.781,58.125,23.736,79.775,64.513,28.92l42.29-11.081
						c-5.886,7.812-5.886,19.405-5.886,19.405l2.56-1.954c12.765-10.761,27.557-16.151,39.012-18.494l27.115,7.118
						c-0.049,0.101-0.066,0.251-0.069,0.45c-0.955,14.944,5.96,25.069,21.335,27.562c0.902,0.167,1.556,0.33,2.694,0.498
						c-0.276-3.247-0.3-5.623-0.143-8.883c11.67,8.343,24.52,6.852,35.147-2.414l0.808,1.949
						c11.418,2.811,17.106-16.499,16.211-20.82C-114.384-548.802-120.471-549.699-127.232-547.381z"/>
				</g>
			</g>
		</g>
	</g>
	<g id="g5038">
		<g id="g5044" transform="translate(415.0586,669.04)">
			<path id="path5046" fill="#002B60" d="M-125.029-545.465c-6.324-1.128-10.505,1.503-10.641,1.492
				c-0.1-0.005-21.964-5.894-30.031-8.07l-4.235-1.131c2.725-3.696,7.991-5.281,13.262-7.619c2.28-1.015,5.421-2.224,7.764-3.86
				c4.228-2.964,4.83-4.903,4.861-4.903c-7.719,0.248-15.003-1.836-16.279-2.111c-3.387-0.705-6.776-0.833-10.039-0.475
				c-0.103,0.006-0.216,0.029-0.323,0.038c-8.772,1.045-16.65,5.689-21.324,12.529c0,0-0.579,0.75-0.777,0.969
				c-0.609,0.683-1.478,1.731-1.478,1.731l2.566,0.652c1.785,0.299,0.789,4.167-1.573,3.555l-11.292-2.946
				c-4.395,0.374-8.994,0.725-12.114,0.954c-1.601,0.119-3.36,0.31-5.259,0.596l24.999,6.575
				c-1.784,16.321,6.986,26.366,19.328,27.36c-0.014-1.66-0.058-5.159,0.032-11.411c0,0,17.792,19.085,38.196-1.431
				c0.154-0.136,1.71,3.874,1.71,3.874C-128.682-528.056-124.724-545.428-125.029-545.465"/>
		</g>
		<g id="g5048" transform="translate(415.0586,669.04)">
			<path id="path5050" fill="none" stroke="#002B60" stroke-width="0.288" d="M-125.029-545.465
				c-6.324-1.128-10.505,1.503-10.641,1.492c-0.1-0.005-21.964-5.894-30.031-8.07l-4.235-1.131
				c2.725-3.696,7.991-5.281,13.262-7.619c2.28-1.015,5.421-2.224,7.764-3.86c4.228-2.964,4.83-4.903,4.861-4.903
				c-7.719,0.248-15.003-1.836-16.279-2.111c-3.387-0.705-6.776-0.833-10.039-0.475c-0.103,0.006-0.216,0.029-0.323,0.038
				c-8.772,1.045-16.65,5.689-21.324,12.529c0,0-0.579,0.75-0.777,0.969c-0.609,0.683-1.478,1.731-1.478,1.731l2.566,0.652
				c1.785,0.299,0.789,4.167-1.573,3.555l-11.292-2.946c-4.395,0.374-8.994,0.725-12.114,0.954c-1.601,0.119-3.36,0.31-5.259,0.596
				l24.999,6.575c-1.784,16.321,6.986,26.366,19.328,27.36c-0.014-1.66-0.058-5.159,0.032-11.411c0,0,17.792,19.085,38.196-1.431
				c0.154-0.136,1.71,3.874,1.71,3.874C-128.682-528.056-124.724-545.428-125.029-545.465z"/>
		</g>
	</g>
	<g id="g5052">
		<g>
			<defs>
				<path id="SVGID_5_" d="M235.98,100.578c-4.701,2.662-11.147,9.418-11.147,9.418l0,0c0,0-0.413,1.011,0.502,2.652l0,0
					c0.507,0.884,0.969,1.475,1.291,1.935l0,0c0.018-0.672,0.26-1.467,0.808-2.12l0,0c4.388-5.649,12.085-11.695,22.209-11.251l0,0
					c-10.049,1.751-16.819,8.198-21.103,14.08l0,0c-0.643,0.703-1.15,0.805-1.479,0.572l0,0c-0.092,1.203-0.87,2.734-1.92,2.919l0,0
					c-1.13,0.205-5.531,3.783-5.531,3.783l0,0v2.141l0.417,6.761c0,0,0.81,4.806,2.343,6.757l0,0c1.546,1.934,6.041,8.38,13.104,9.1
					l0,0c0,0,0.506-17.197,2.651-22.297l0,0c2.146-5.121,5.016-11.051,9.615-13.506l0,0c4.609-2.45,11.667-4.909,15.349-6.853l0,0
					c3.68-1.945,5.319-4.092,5.319-4.092l0,0c0,0-7.574-0.304-13.705-1.323l0,0c-2.626-0.442-5.567-0.751-8.443-0.751l0,0
					C242.409,98.504,238.677,99.056,235.98,100.578"/>
			</defs>
			<clipPath id="SVGID_6_">
				<use xlink:href="#SVGID_5_"  overflow="visible"/>
			</clipPath>
			<g id="g5054" clip-path="url(#SVGID_6_)">
				<g id="g5060" transform="translate(385.5977,687.5146)">
					<path id="path5062" fill="#FDBB30" d="M-132.395-587.033c-10.406-1.837-19.924,1.438-26.782,11.171
						c1.326,0.849,2.182,2.846,2.036,5.111c-0.18,2.815-1.821,4.998-3.719,5.058c0.015,0.07,0.027,0.115,0.027,0.183
						c0.22,4.24,1.69,8.305,3.779,10.458c0.809-7.298,4.695-17.231,15.679-23.374c-10.922,9.527-13.08,23.209-12.301,32.564
						c-5.1-1.025-9.37-9.624-10.857-14.151c1.143,7.749,5.966,16.981,13.382,17.498c-1.522-14.881,4.261-30.305,14-35.449
						c4.006-2.131,9.644-3.525,15.83-7.51C-127.951-586.01-130.038-586.615-132.395-587.033"/>
				</g>
				<g id="g5064" transform="translate(385.5977,687.5146)">
					<path id="path5066" fill="none" stroke="#002B60" stroke-width="0.288" d="M-132.395-587.033
						c-10.406-1.837-19.924,1.438-26.782,11.171c1.326,0.849,2.182,2.846,2.036,5.111c-0.18,2.815-1.821,4.998-3.719,5.058
						c0.015,0.07,0.027,0.115,0.027,0.183c0.22,4.24,1.69,8.305,3.779,10.458c0.809-7.298,4.695-17.231,15.679-23.374
						c-10.922,9.527-13.08,23.209-12.301,32.564c-5.1-1.025-9.37-9.624-10.857-14.151c1.143,7.749,5.966,16.981,13.382,17.498
						c-1.522-14.881,4.261-30.305,14-35.449c4.006-2.131,9.644-3.525,15.83-7.51C-127.951-586.01-130.038-586.615-132.395-587.033z"
						/>
				</g>
			</g>
		</g>
	</g>
	<g id="g5070">
		<g id="g5076" transform="translate(269.4209,698.5752)">
			<path id="path5078" fill="#002B60" d="M-161.438-611.919l-53.83-14.043c-15.352-4.249-19.34-7.675-20.35-8.56l31.274,8.066
				l50.777,13.05C-155.869-612.863-159.326-612.283-161.438-611.919 M20.445-660.419c-0.066,0.078-24.71,6.008-35.214,8.521
				L-10.075-666l-107.713,26.73c-24.719-11.249-55.279-3.444-79.857,10.36l47.761,12.028c-0.208,0.635-0.444,1.256-0.704,1.768
				l-72.527-18.242c-14.731-3.797-28.026-7.409-40.724-4.902c9.906,8.319,23.292,11.56,38.031,15.361l54.134,14.234
				c-0.987,0.411-1.915,0.841-2.702,1.273l-40.07-10.512c-7.279,5.548-13.492,11.421-18.152,17.11l14.32-1.879
				c-40.922,65.559,25.26,73.877,56.606,29.774l51.98-13.038c-4.764,4.679-7.581,11.44-9.04,17.375
				c15.39-13.301,35.466-17.428,47.502-18.295c7.31-0.53,15.384-1.335,21.635-2.024l1.771-2.242
				c5.714-7.809,14-11.629,22.771-12.489c6.827-0.654,9.222,0.335,12.096,0.86c1.337,0.342,6.099,1.611,10.97,1.825
				c12.605-7.35,16.329-17.994,12.659-33.434L20.445-660.419L20.445-660.419z"/>
		</g>
	</g>
	<g id="g5080">
		<g>
			<defs>
				<path id="SVGID_7_" d="M151.873,56.285c-26.458-11.53-58.63-2.472-83.876,12.431l0,0l-19.461-4.905
					C30.885,59.259,15.31,55.377,0,58.875l0,0c11.715,10.458,27.22,14.599,44.877,19.151l0,0l6.844,1.776
					c-6.775,5.355-12.576,10.923-16.954,16.28l0,0l-4.409,5.38l15.939-2.527c-36.78,58.125,23.737,79.776,64.514,28.921l0,0
					l42.289-11.083c-5.886,7.812-5.886,19.405-5.886,19.405l0,0l2.56-1.954c12.767-10.761,27.558-16.151,39.014-18.494l0,0
					l27.114,7.119c-0.048,0.1-0.066,0.251-0.067,0.449l0,0c-0.955,14.944,5.959,25.069,21.334,27.562l0,0
					c0.902,0.167,1.556,0.33,2.694,0.498l0,0c-0.276-3.245-0.3-5.622-0.143-8.883l0,0c11.67,8.344,24.52,6.852,35.146-2.414l0,0
					l0.809,1.949c11.418,2.811,17.106-16.499,16.211-20.819l0,0c-0.022-0.103-6.11-1-12.873,1.317l0,0l-28.708-7.715
					c5.255-3.965,22.815-8.286,23.057-17.554l0,0c0.01-0.145,0.021-0.269,0.023-0.404l0,0c9.44-7.479,12.735-17.999,9.49-32.441l0,0
					l12.106-30.157c0,0-31.267,7.524-36.281,8.724l0,0l4.694-14.106L151.873,56.285L151.873,56.285z M218.037,97.625
					c26.898-4.024,55.708-10.716,45.497-26.046l0,0c-1.928-1.83-2.965-2.312-4.502-4.375l0,0
					c-6.656-8.938,4.739-19.154,17.507-18.317l0,0c0.874,0.065,3.196,0.417,3.11,0.498l0,0l-3.132,7.998
					c-2.571-4.091-10.911-5.071-12.007-0.111l0,0c-0.817,3.728,5.065,5.083,8.503,11.566l0,0c4.676,8.854-0.208,17.78-8.702,22.135
					l0,0c-3.289,1.708-6.685,3.138-10.159,4.363l0,0c-2.828,0.744-5.798,1.56-9.473,2.585l0,0
					c-3.374,0.934-4.408,1.531-17.289,3.583l0,0c-21.901,3.303-45.022,4.339-64.321,13.401l0,0
					C171.46,106.309,193.611,101.384,218.037,97.625 M78.955,72.229c31.01-15.616,59.878-16.418,72.245-4.323l0,0
					c0.004,0.001,0.006,0.003,0.006,0.007l0,0c-0.002-0.002-0.005-0.005-0.006-0.007l0,0c-0.475-0.16-24.446,14.01-26.921,15.863
					l0,0c11.887-23.22-9.505-17.929-27.324-6.772l0,0L78.955,72.229L78.955,72.229z M49.938,91.049
					c4.252-3.431,8.546-6.558,12.856-9.415l0,0l20.756,5.704c-0.336,0.339-0.668,0.664-0.986,1.005l0,0
					c-46.202,48.206-15.813,56.292,17.825,37.74l0,0c0.7-0.349-4.743,4.71-4.743,4.71l0,0
					c-37.389,36.721-78.177,9.058-28.381-43.699l0,0c-5.33,1.51-16.014,3.982-17.216,3.982l0,0
					C49.976,91.076,49.938,91.067,49.938,91.049"/>
			</defs>
			<clipPath id="SVGID_8_">
				<use xlink:href="#SVGID_7_"  overflow="visible"/>
			</clipPath>
			<g id="g5082" clip-path="url(#SVGID_8_)">
				<g id="g5088" transform="translate(269.4209,698.5752)">
					<path id="path5090" fill="#002B60" d="M-161.438-611.919l-53.83-14.043c-15.352-4.249-19.34-7.675-20.35-8.56l31.274,8.066
						l50.777,13.05C-155.869-612.863-159.326-612.283-161.438-611.919 M20.445-660.419c-0.066,0.078-24.71,6.008-35.214,8.521
						L-10.075-666l-107.713,26.73c-24.719-11.249-55.279-3.444-79.857,10.36l47.761,12.028c-0.208,0.635-0.444,1.256-0.704,1.768
						l-72.527-18.242c-14.731-3.797-28.026-7.409-40.724-4.902c9.906,8.319,23.292,11.56,38.031,15.361l54.134,14.234
						c-0.987,0.411-1.915,0.841-2.702,1.273l-40.07-10.512c-7.279,5.548-13.492,11.421-18.152,17.11l14.32-1.879
						c-40.922,65.559,25.26,73.877,56.606,29.774l51.98-13.038c-4.764,4.679-7.581,11.44-9.04,17.375
						c15.39-13.301,35.466-17.428,47.502-18.295c7.31-0.53,15.384-1.335,21.635-2.024l1.771-2.242
						c5.714-7.809,14-11.629,22.771-12.489c6.827-0.654,9.222,0.335,12.096,0.86c1.337,0.342,6.099,1.611,10.97,1.825
						c12.605-7.35,16.329-17.994,12.659-33.434L20.445-660.419L20.445-660.419z"/>
				</g>
				<g id="g5092" transform="translate(269.4209,698.5752)">
					<path id="path5094" fill="none" stroke="#002B60" stroke-width="0.288" d="M-161.438-611.919l-53.83-14.043
						c-15.352-4.249-19.34-7.675-20.35-8.56l31.274,8.066l50.777,13.05C-155.869-612.863-159.326-612.283-161.438-611.919z
						 M20.445-660.419c-0.066,0.078-24.71,6.008-35.214,8.521L-10.075-666l-107.713,26.73c-24.719-11.249-55.279-3.444-79.857,10.36
						l47.761,12.028c-0.208,0.635-0.444,1.256-0.704,1.768l-72.527-18.242c-14.731-3.797-28.026-7.409-40.724-4.902
						c9.906,8.319,23.292,11.56,38.031,15.361l54.134,14.234c-0.987,0.411-1.915,0.841-2.702,1.273l-40.07-10.512
						c-7.279,5.548-13.492,11.421-18.152,17.11l14.32-1.879c-40.922,65.559,25.26,73.877,56.606,29.774l51.98-13.038
						c-4.764,4.679-7.581,11.44-9.04,17.375c15.39-13.301,35.466-17.428,47.502-18.295c7.31-0.53,15.384-1.335,21.635-2.024
						l1.771-2.242c5.714-7.809,14-11.629,22.771-12.489c6.827-0.654,9.222,0.335,12.096,0.86c1.337,0.342,6.099,1.611,10.97,1.825
						c12.605-7.35,16.329-17.994,12.659-33.434L20.445-660.419L20.445-660.419z"/>
				</g>
			</g>
		</g>
	</g>
	<g id="g5098">
		<g id="g5104" transform="translate(407.4941,666.123)">
			<path id="path5106" fill="#FDBB30" d="M-126.92-538.902c2.183-1.045,4.616-1.511,6.995-1.83c-3.314,1.25-4.981,3.183-5.17,3.104
				c-0.756,1.842-0.741,3.802-4.953,5.911C-128.719-533.81-126.769-536.221-126.92-538.902"/>
		</g>
		<g id="g5108" transform="translate(407.4941,666.123)">
			<path id="path5110" fill="none" stroke="#002B60" stroke-width="0.288" d="M-126.92-538.902c2.183-1.045,4.616-1.511,6.995-1.83
				c-3.314,1.25-4.981,3.183-5.17,3.104c-0.756,1.842-0.741,3.802-4.953,5.911C-128.719-533.81-126.769-536.221-126.92-538.902z"/>
		</g>
		<g id="g5112" transform="translate(373.8457,663.2939)">
			<path id="path5114" fill="#FDBB30" d="M-135.333-532.536c4.549,10.008,17.808,12.357,25.806,10.664
				c-3.568,3.11-20.987,2.449-26.221-7.763L-135.333-532.536"/>
		</g>
		<g id="g5116" transform="translate(373.8457,663.2939)">
			<path id="path5118" fill="none" stroke="#002B60" stroke-width="0.288" d="M-135.333-532.536
				c4.549,10.008,17.808,12.357,25.806,10.664c-3.568,3.11-20.987,2.449-26.221-7.763L-135.333-532.536z"/>
		</g>
		<g id="g5120" transform="translate(377.7559,673.4746)">
			<path id="path5122" fill="#FDBB30" d="M-134.355-555.443l34.395,8.902c1.12,0.288,0.655,3.438-0.812,3.059l-35.376-8.999
				C-135.945-553.331-134.659-555.24-134.355-555.443"/>
		</g>
		<g id="g5124" transform="translate(377.7559,673.4746)">
			<path id="path5126" fill="none" stroke="#002B60" stroke-width="0.288" d="M-134.355-555.443l34.395,8.902
				c1.12,0.288,0.655,3.438-0.812,3.059l-35.376-8.999C-135.945-553.331-134.659-555.24-134.355-555.443z"/>
		</g>
		<g id="g5128" transform="translate(401.2148,661.2993)">
			<path id="path5130" fill="#FDBB30" d="M-128.49-528.048c-12.414,12.259-31.901,3.83-31.782-6.107
				C-160.022-534.156-147.586-525.019-128.49-528.048"/>
		</g>
		<g id="g5132" transform="translate(401.2148,661.2993)">
			<path id="path5134" fill="none" stroke="#002B60" stroke-width="0.288" d="M-128.49-528.048
				c-12.414,12.259-31.901,3.83-31.782-6.107C-160.022-534.156-147.586-525.019-128.49-528.048z"/>
		</g>
	</g>
	<g id="g5136">
		<g>
			<defs>
				<path id="SVGID_9_" d="M226.421,111.652c1.327,0.849,2.183,2.848,2.037,5.111l0,0c-0.181,2.815-1.823,4.998-3.72,5.058l0,0
					c0.016,0.07,0.029,0.114,0.029,0.183l0,0c0.219,4.241,1.689,8.305,3.779,10.458l0,0c0.809-7.297,4.695-17.232,15.679-23.375l0,0
					c-10.922,9.529-13.081,23.209-12.303,32.564l0,0c-5.1-1.025-9.37-9.624-10.856-14.15l0,0c1.143,7.749,5.966,16.98,13.382,17.498
					l0,0c-1.522-14.882,4.261-30.306,14-35.449l0,0c4.006-2.131,9.643-3.526,15.83-7.511l0,0c-6.631-0.534-8.719-1.14-11.074-1.556
					l0,0c-1.828-0.324-3.629-0.489-5.391-0.489l0,0C239.535,99.994,232.074,103.629,226.421,111.652"/>
			</defs>
			<clipPath id="SVGID_10_">
				<use xlink:href="#SVGID_9_"  overflow="visible"/>
			</clipPath>
			<g id="g5138" clip-path="url(#SVGID_10_)">
				<g id="g5144" transform="translate(364.9824,677.9282)">
					<path id="path5146" fill="#FFFFFF" d="M-137.548-565.463c-1.535,1.864-0.756,4.889,1.106,2.827
						c4.284-5.882,11.055-12.329,21.103-14.08C-125.463-577.16-133.161-571.114-137.548-565.463"/>
				</g>
			</g>
		</g>
	</g>
	<g id="g5150">
		<g id="g5156" transform="translate(396.4629,659.4248)">
			<path id="path5158" fill="#002B60" d="M-129.678-523.831c-13.269,0.671-22.793-5.111-22.793-5.111
				C-150.616-523.144-136.817-518.89-129.678-523.831"/>
		</g>
		<g id="g5160" transform="translate(370.4648,727.1982)">
			<path id="path5162" fill="#FFFFFF" d="M-136.178-676.321l-1.13-4.265l-2.82,8.425l-2.825,0.687l4.275-10.893l2.853-0.7
				l0.922,3.789l1.736-4.444l2.812-0.674l-4.273,10.889l-2.856,0.698L-136.178-676.321 M-145.35-679.612
				c-0.062-0.021-0.174-0.038-0.377-0.038c-0.401-0.012-0.655,0.029-0.755,0.056c-0.141,0.034-0.474,0.149-0.999,0.38
				c-0.234,0.111-0.375,0.19-0.442,0.245l-1.714,4.222l2.652-0.66l1.679-4.18L-145.35-679.612z M-147.419-674.207l-2.658,0.65
				l-1.611,4.106l-2.881,0.711l3.777-9.539c0.178-0.469,0.938-0.986,2.073-1.53c0.935-0.447,1.849-0.794,2.726-1.002
				c0.845-0.21,1.651-0.271,2.435-0.236c0.822,0.04,1.276,0.236,1.115,0.65l-3.773,9.611l-2.82,0.694L-147.419-674.207
				L-147.419-674.207z M-160.04-677.076l2.824-0.676l-3.8,9.679l4.616-1.133l-0.466,1.193l-7.445,1.832L-160.04-677.076
				L-160.04-677.076z M-169.085-674.732l6.403-1.576l-0.463,1.188l-3.589,0.868l-1.281,3.288l3.59-0.878l-0.474,1.194l-3.598,0.889
				l-1.58,4.034l3.584-0.889l-0.469,1.207l-6.404,1.576L-169.085-674.732z M-189.16-669.777l6.422-1.56l-0.469,1.162l-3.583,0.883
				l-1.29,3.28l3.584-0.88l-0.458,1.199l-3.6,0.882l-1.583,4.038l3.596-0.88l-0.481,1.196l-6.411,1.567L-189.16-669.777
				L-189.16-669.777z M-198.775-667.338l2.808-0.688l-3.799,9.7l4.622-1.135l-0.464,1.196l-7.441,1.82L-198.775-667.338z
				 M-210.529-654.636c-0.698,0.169-1.454,0.238-2.234,0.238c-1.005,0-1.565-0.187-1.391-0.652l3.248-8.247
				c0.13-0.341,0.815-0.799,1.73-1.279c0.945-0.49,1.807-0.861,2.591-1.059l4.552-1.106l-0.761,1.944l-2.796,0.684l0.335-0.754
				l-0.777,0.177c-0.761,0.183-1.302,0.355-1.666,0.509c-0.318,0.139-0.413,0.225-0.439,0.308l-3.114,8.033
				c0,0-0.018,0.083,0.491,0.071c0.389-0.017,0.621-0.06,0.738-0.071c0.374-0.097,0.711-0.236,1.079-0.445
				c0.376-0.232,0.561-0.422,0.619-0.565l-0.176-0.384l3.061-0.739l-0.346,0.896c-0.167,0.424-0.972,0.946-2.103,1.458
				C-208.861-655.162-209.756-654.824-210.529-654.636 M-126.686-675.634l-4.606,1.123l4.28-10.907l4.611-1.135
				c0.768-0.191,1.506-0.208,2.21-0.11c0.688,0.087,1.116,0.263,0.991,0.601l-3.159,8.037c-0.135,0.357-0.806,0.817-1.746,1.327
				C-125.048-676.204-125.926-675.829-126.686-675.634 M-122.454-685.313l-0.335-0.046l-1.836,0.425l-3.335,8.514l1.438-0.355
				c0.065-0.022,0.285-0.087,0.735-0.292l0.52-0.27l3.154-7.876C-122.218-685.264-122.312-685.285-122.454-685.313 M-181.52-671.475
				l2.264-0.506l0.211,5.815l4.553-6.921l3.076-0.82l-8.936,11.991L-181.52-671.475z"/>
		</g>
		<g id="g5164" transform="translate(287.0654,698.8657)">
			<path id="path5166" fill="#FFFFFF" d="M-157.027-612.573l4.417,2.693c-2.283,6.481-12.178,20.254-17.84,24.412l9.909-26.327
				l-7.599,2.014l-12.447,31.69l15.958-4.091c0.341-0.095,14.33-11.191,22.325-34.143L-157.027-612.573"/>
		</g>
		<g id="g5168" transform="translate(261.8057,680.7241)">
			<path id="path5170" fill="#FFFFFF" d="M-163.342-571.754l-6.238,1.795c0,0,5.209-10.202,10.582-11.801L-163.342-571.754
				 M-178.09-566.601c-0.084,0.006-5.809,11.808-6.98,14.243l7.895-2.065l5.322-11.067l6.391-1.875l-4.4,11.095l8.379-2.145
				l12.922-32.019C-152.885-588.963-168.221-588.689-178.09-566.601"/>
		</g>
		<g id="g5172" transform="translate(372.8633,710.8662)">
			<path id="path5174" fill="#FFFFFF" d="M-135.578-639.574l3.647-10.156l5.71-1.527
				C-127.036-649.066-128.567-643.19-135.578-639.574 M-129.504-636.553c-0.436-0.624-0.77-1.925-0.77-1.964
				c0.254-0.112,0.528-0.25,0.8-0.398c5.121-2.935,10.769-11.655,10.541-17.598c-7.216,1.931-19.304,5.055-19.373,5.152
				l-11.545,31.73l7.5-1.926l4.965-13.65c0.569,1.275,3.872,9.125,10.324,9.78c7.448,0.754,11.803-6.601,11.803-6.601
				C-117.217-630.349-126.112-629.715-129.504-636.553"/>
		</g>
		<g id="g5176" transform="translate(307.4004,692.2827)">
			<path id="path5178" fill="#FFFFFF" d="M-151.944-597.761l-6.232,1.799c0,0,5.203-10.195,10.581-11.806L-151.944-597.761
				 M-166.685-592.604c-0.085,0.005-5.725,11.599-6.906,14.022l7.981-2.049l5.172-10.87l6.375-1.868l-4.361,10.957l8.319-2.113
				l12.946-31.851C-140.969-615.274-156.817-614.705-166.685-592.604"/>
		</g>
		<g id="g5180" transform="translate(342.2422,713.2705)">
			<path id="path5182" fill="#FFFFFF" d="M-143.233-644.984l-12.441,31.893l7.915-1.999l12.405-31.886L-143.233-644.984z"/>
		</g>
		<g id="g5184" transform="translate(349.0127,695.0059)">
			<path id="path5186" fill="#FFFFFF" d="M-141.541-603.888l3.972-9.297l10.876-5.879l-8.729,0.634l3.803-10.139
				c4.772-1.499,7.181-0.044,9.21,2.961l3.605-8.929l-19.16,4.88l-12.3,31.843l19.513-5.073l4.181-9.866
				C-130.902-607.982-135.722-604.868-141.541-603.888"/>
		</g>
		<g id="g5188" transform="translate(320.9648,687.8413)">
			<path id="path5190" fill="#FFFFFF" d="M-148.553-587.768l10.391-27.612l-8.306,2.097l-12.261,31.943l21.045-5.433l4.644-11.32
				C-138.631-591.488-141.578-588.914-148.553-587.768"/>
		</g>
	</g>
	<g id="g5192">
		<g>
			<defs>
				<path id="SVGID_11_" d="M151.634,59.305c-24.72-11.249-55.279-3.443-79.857,10.36l0,0l47.761,12.027
					c-0.209,0.635-0.444,1.255-0.704,1.768l0,0l-21.086,6.451c-0.986,0.411-1.915,0.841-2.703,1.274l0,0L54.974,80.671
					c-7.279,5.55-13.491,11.421-18.15,17.111l0,0l14.319-1.879c-40.923,65.559,25.26,73.877,56.606,29.774l0,0l51.981-13.038
					c-4.765,4.679-7.583,11.44-9.042,17.374l0,0c15.389-13.3,35.466-17.427,47.502-18.293l0,0c7.309-0.53,15.383-1.336,21.635-2.024
					l0,0l1.77-2.243c5.714-7.81,14.001-11.628,22.772-12.489l0,0c6.828-0.654,9.223,0.335,12.096,0.86l0,0
					c1.337,0.342,6.099,1.611,10.97,1.825l0,0c12.605-7.35,16.329-17.994,12.66-33.434l0,0l9.771-26.06
					c-0.066,0.078-24.71,6.007-35.214,8.52l0,0l4.694-14.1L151.634,59.305L151.634,59.305z"/>
			</defs>
			<clipPath id="SVGID_12_">
				<use xlink:href="#SVGID_11_"  overflow="visible"/>
			</clipPath>
			<g id="g5194" clip-path="url(#SVGID_12_)">
				<g id="g5200" transform="translate(406.7539,728.3926)">
					<path id="path5202" fill="#FFFFFF" d="M-127.105-679.008l-3.132,7.996c-2.571-4.09-10.91-5.07-12.008-0.11
						c-0.818,3.728,5.064,5.083,8.504,11.566c4.678,8.854-0.21,17.778-8.703,22.134c-3.289,1.708-6.685,3.139-10.159,4.363
						c-2.827,0.743-5.797,1.56-9.474,2.585c-3.373,0.934-4.406,1.531-17.288,3.583c-21.901,3.302-45.021,4.34-64.321,13.402
						c8.392-8.596,30.542-13.52,54.969-17.28c26.897-4.022,55.708-10.715,45.495-26.046c-1.926-1.829-2.964-2.312-4.501-4.375
						c-6.655-8.938,4.738-19.153,17.507-18.317C-129.342-679.441-127.019-679.09-127.105-679.008"/>
				</g>
				<g id="g5204" transform="translate(304,713.5708)">
					<path id="path5206" fill="#FFFFFF" d="M-152.794-645.659c-0.087-0.399-24.433,13.989-26.927,15.857
						c15.548-30.388-25.881-11.955-41.715,4.572c-46.202,48.207-15.812,56.292,17.826,37.741c0.699-0.349-4.744,4.71-4.744,4.71
						c-37.387,36.721-78.177,9.057-28.381-43.7c-5.648,1.601-17.311,4.282-17.327,3.956
						C-213.495-655.267-168.984-661.513-152.794-645.659"/>
				</g>
			</g>
		</g>
	</g>
</g>
</svg>
