<?xml version="1.0" encoding="utf-8"?>
<!-- Generator: Adobe Illustrator 16.0.4, SVG Export Plug-In . SVG Version: 6.00 Build 0)  -->
<!DOCTYPE svg PUBLIC "-//W3C//DTD SVG 1.1//EN" "http://www.w3.org/Graphics/SVG/1.1/DTD/svg11.dtd">
<svg version="1.1"
	 id="svg5004" xmlns:svg="http://www.w3.org/2000/svg" xmlns:dc="http://purl.org/dc/elements/1.1/" xmlns:cc="http://creativecommons.org/ns#" xmlns:rdf="http://www.w3.org/1999/02/22-rdf-syntax-ns#"
	 xmlns="http://www.w3.org/2000/svg" xmlns:xlink="http://www.w3.org/1999/xlink" x="0px" y="0px" viewBox="3.543 3.528 354.331 434.085" enable-background="new 3.543 3.528 354.331 434.085"
	 xml:space="preserve">
<g id="layer1" transform="translate(-179.36809,-292.71165)">
	<g id="g5225" transform="matrix(6.0666086,0,0,6.0666086,-1529.2385,-2404.3535)">
		<g id="g3199" transform="matrix(1.25,0,0,-1.25,289.3163,503.47936)">
			<path id="path3201" fill="#1A64B7" d="M0,0l-3.15-1.584c-0.169-0.072-0.271-0.125-0.295-0.158C-3.53-1.84-3.51-1.973-3.394-2.146
				l-0.09-0.103l-1.364,1.218l0.09,0.102c0.161-0.1,0.293-0.093,0.393,0.022c0.031,0.032,0.08,0.151,0.162,0.354l1.575,4.21
				c0.082,0.209,0.116,0.359,0.116,0.461c0,0.095-0.034,0.195-0.114,0.297l0.092,0.098l1.471-1.315l-0.088-0.096
				c-0.157,0.084-0.274,0.084-0.361-0.011c-0.04-0.046-0.083-0.13-0.131-0.247l-1.162-2.989l2.918,1.443
				C0.237,1.36,0.316,1.406,0.341,1.436c0.088,0.097,0.073,0.22-0.047,0.371l0.094,0.099L1.923,0.53l-0.086-0.1
				C1.661,0.521,1.53,0.513,1.449,0.42C1.415,0.384,1.38,0.307,1.331,0.185L0.192-2.826l2.805,1.454
				C3.138-1.3,3.235-1.234,3.28-1.182C3.362-1.09,3.34-0.964,3.221-0.805l0.085,0.102l1.456-1.303L4.675-2.103
				C4.543-2.044,4.442-2.015,4.361-2.028C4.28-2.032,4.136-2.091,3.926-2.199l-4.007-2.039c-0.192-0.097-0.306-0.168-0.35-0.221
				c-0.093-0.099-0.076-0.229,0.049-0.384l-0.085-0.099L-1.85-3.709l0.089,0.1c0.166-0.109,0.299-0.107,0.407,0.013
				c0.029,0.039,0.082,0.16,0.149,0.363L0,0"/>
		</g>
		<g id="g3203" transform="matrix(1.25,0,0,-1.25,287.08205,508.11061)">
			<path id="path3205" fill="#1A64B7" d="M0,0l1.314-1.173L1.35-1.135C1.288-1.052,1.257-0.971,1.257-0.894
				c0,0.063,0.022,0.124,0.066,0.173C1.378-0.663,1.494-0.59,1.687-0.492l4.006,2.035c0.213,0.109,0.355,0.17,0.443,0.181
				c0.019,0.002,0.033,0.002,0.048,0.002c0.075,0,0.164-0.023,0.267-0.074l0.036,0.044L5.1,2.939L5.062,2.9
				c0.064-0.091,0.1-0.172,0.1-0.248c0-0.059-0.023-0.114-0.058-0.158C5.048,2.428,4.948,2.368,4.806,2.297L1.898,0.786l1.177,3.121
				c0.048,0.121,0.088,0.199,0.123,0.245c0.051,0.063,0.125,0.094,0.205,0.093c0.065,0,0.136-0.019,0.208-0.052l0.035,0.039
				L2.179,5.546L2.141,5.508C2.196,5.43,2.226,5.355,2.226,5.282c0.005-0.065-0.022-0.12-0.064-0.167
				C2.123,5.072,2.047,5.028,1.919,4.963l-3.022-1.492l1.206,3.092c0.047,0.122,0.092,0.209,0.145,0.26
				c0.045,0.063,0.114,0.092,0.187,0.092c0.058,0,0.124-0.018,0.189-0.053l0.037,0.041l-1.406,1.253l-0.035-0.04
				c0.067-0.097,0.103-0.194,0.103-0.294C-0.68,7.709-0.719,7.554-0.795,7.345l-1.58-4.206C-2.456,2.93-2.504,2.814-2.544,2.767
				c-0.059-0.065-0.135-0.106-0.222-0.106c-0.067,0-0.125,0.021-0.197,0.057l-0.036-0.04l1.3-1.158l0.03,0.04
				c-0.054,0.095-0.089,0.181-0.089,0.264c0,0.062,0.028,0.123,0.066,0.17c0.046,0.047,0.141,0.093,0.309,0.171l3.151,1.578
				l0.103,0.053L0.624,0.459C0.554,0.254,0.506,0.134,0.463,0.08C0.401,0.017,0.325-0.026,0.248-0.026
				c-0.072,0-0.14,0.022-0.211,0.064L0,0z M-0.123-0.009l0.028,0.035l0.111,0.13L0.05,0.134c0.074-0.05,0.142-0.07,0.198-0.07
				c0.054,0,0.1,0.022,0.146,0.074c0.029,0.023,0.081,0.15,0.146,0.35l1.167,3.124l-3.05-1.531c-0.168-0.07-0.267-0.129-0.284-0.149
				c-0.029-0.031-0.042-0.067-0.042-0.108c0-0.065,0.028-0.14,0.098-0.244l0.02-0.027l-0.023-0.025l-0.122-0.13l-1.423,1.275
				l0.028,0.031l0.11,0.126l0.033-0.016c0.068-0.042,0.13-0.062,0.182-0.062c0.057,0,0.104,0.024,0.156,0.076
				c0.013,0.016,0.077,0.139,0.151,0.341l1.58,4.206c0.074,0.207,0.111,0.361,0.111,0.447c0,0.086-0.031,0.176-0.105,0.271
				l-0.021,0.031l0.022,0.024l0.118,0.136l1.54-1.376L0.758,6.876L0.649,6.75L0.614,6.767c-0.067,0.04-0.131,0.056-0.179,0.056
				c-0.053,0-0.089-0.014-0.123-0.056C0.276,6.728,0.231,6.649,0.185,6.534l-1.124-2.883L1.88,5.043
				c0.123,0.058,0.201,0.108,0.214,0.13c0.035,0.032,0.044,0.068,0.044,0.109c0,0.051-0.027,0.119-0.091,0.205l-0.02,0.025
				l0.025,0.032l0.115,0.13l1.61-1.434L3.742,4.209L3.631,4.08L3.605,4.099c-0.079,0.04-0.146,0.059-0.202,0.059
				C3.344,4.157,3.304,4.137,3.269,4.096c-0.023-0.026-0.062-0.1-0.106-0.222L2.064,0.972l2.702,1.404
				c0.139,0.07,0.229,0.133,0.271,0.176c0.025,0.029,0.031,0.059,0.035,0.1c0,0.052-0.031,0.13-0.1,0.218L4.948,2.903l0.024,0.03
				L5.09,3.062l1.522-1.357L6.583,1.669L6.472,1.548L6.444,1.56c-0.109,0.056-0.198,0.079-0.26,0.079c-0.009,0-0.022,0-0.033-0.003
				C6.084,1.629,5.94,1.573,5.729,1.469l-4-2.041c-0.19-0.094-0.307-0.171-0.34-0.207C1.356-0.817,1.343-0.848,1.342-0.894
				c0-0.055,0.029-0.128,0.101-0.217l0.024-0.027l-0.028-0.03L1.323-1.302L-0.123-0.009"/>
		</g>
		<g id="g3207" transform="matrix(1.25,0,0,-1.25,296.54031,510.81149)">
			<path id="path3209" fill="#1A64B7" d="M0,0l0.06,2.221l-1.727-1.407L0,0z M-0.023-0.855l-2.316,1.133L-3.038-0.27
				c-0.094-0.073-0.156-0.142-0.186-0.2C-3.273-0.579-3.23-0.696-3.082-0.82l-0.063-0.121l-1.682,0.828l0.056,0.116
				C-4.661-0.025-4.564-0.029-4.49,0c0.075,0.019,0.18,0.089,0.319,0.201l3.797,3c0.12,0.096,0.197,0.183,0.233,0.254
				c0.055,0.117,0.026,0.234-0.093,0.354l0.057,0.119l1.809-0.884L1.569,2.923C1.407,2.954,1.297,2.914,1.247,2.811
				c-0.038-0.073-0.053-0.165-0.053-0.28l0.015-4.882c0-0.208,0.021-0.356,0.052-0.446C1.29-2.888,1.359-2.974,1.455-3.042
				L1.394-3.161l-1.876,0.918l0.057,0.121c0.179-0.054,0.298-0.016,0.361,0.111c0.028,0.049,0.038,0.139,0.038,0.269L-0.023-0.855"
				/>
		</g>
		<g id="g3211" transform="matrix(1.25,0,0,-1.25,294.55531,509.77724)">
			<path id="path3213" fill="#1A64B7" d="M0,0l1.542-0.759l0.06,2.061L0,0z M1.588-0.827l0.017,0.04L1.588-0.827z M-0.16-0.021
				l1.852,1.51L1.633-0.828L1.629-0.897L-0.16-0.021z M1.166-3.047L2.96-3.928l0.022,0.045C2.899-3.814,2.84-3.73,2.807-3.641
				C2.77-3.54,2.757-3.388,2.757-3.178L2.738,1.69c-0.006,0.009,0,0.014,0,0.014c0,0.123,0.012,0.221,0.056,0.301
				c0.043,0.098,0.144,0.146,0.267,0.146c0.032,0,0.067-0.003,0.056-0.035l0.04,0.081L1.433,3.044L1.406,2.988
				c0.073-0.076,0.109-0.164,0.109-0.249c0-0.045-0.009-0.088-0.026-0.128C1.445,2.523,1.367,2.436,1.241,2.34l-3.797-2.998
				c-0.14-0.116-0.245-0.182-0.333-0.213c-0.041-0.013-0.086-0.018-0.13-0.018c-0.041,0-0.093,0.005-0.138,0.018L-3.184-0.92
				l1.609-0.788l0.021,0.052C-1.646-1.57-1.698-1.482-1.702-1.389c0,0.043,0.01,0.075,0.026,0.113
				C-1.642-1.211-1.575-1.14-1.475-1.06l0.741,0.552l2.317-1.134L1.565-1.683h0.043L1.605-2.569c0-0.134-0.01-0.227-0.043-0.29
				c-0.049-0.102-0.144-0.16-0.258-0.157c-0.036,0-0.075,0.004-0.119,0.015L1.166-3.047z M1.048-3.088l0.016,0.037l0.078,0.153
				L1.17-2.909C1.227-2.923,1.268-2.93,1.304-2.93c0.09,0.005,0.141,0.036,0.182,0.109c0.016,0.04,0.029,0.126,0.029,0.252v0.861
				l-2.242,1.125L-1.42-1.132c-0.094-0.074-0.149-0.139-0.175-0.184c-0.013-0.025-0.017-0.047-0.017-0.073
				c0-0.061,0.043-0.14,0.145-0.223l0.028-0.022l-0.015-0.032l-0.081-0.161L-3.303-0.96l0.021,0.04l0.077,0.15l0.038-0.009
				c0.05-0.013,0.1-0.023,0.148-0.023c0.037,0,0.076,0.006,0.104,0.015c0.067,0.02,0.168,0.086,0.307,0.198L1.185,2.41
				c0.117,0.091,0.187,0.176,0.223,0.238C1.424,2.681,1.431,2.71,1.431,2.739c0,0.067-0.035,0.136-0.11,0.21L1.299,2.976
				l0.014,0.026l0.074,0.159l1.892-0.924l-0.017-0.04L3.151,2.055c-0.034,0.004-0.067,0.01-0.09,0.01
				C2.955,2.059,2.902,2.03,2.869,1.966C2.84,1.906,2.824,1.818,2.824,1.704H2.798l0.026-0.002l0.019-4.88
				c0-0.205,0.02-0.351,0.048-0.434c0.03-0.08,0.084-0.156,0.176-0.221l0.026-0.021L3.078-3.89L3.001-4.05L1.048-3.088"/>
		</g>
		<g id="g3215" transform="matrix(1.25,0,0,-1.25,301.83181,511.38924)">
			<path id="path3217" fill="#1A64B7" d="M0,0l1.873-0.389c0.276-0.058,0.47-0.09,0.591-0.095c0.116-0.01,0.229,0,0.333,0.037
				c0.23,0.066,0.377,0.246,0.439,0.534C3.295,0.381,3.234,0.599,3.05,0.753c-0.089,0.075-0.185,0.132-0.291,0.17
				C2.652,0.961,2.462,1.011,2.177,1.067L0.303,1.462L0,0z M-0.195-0.913L-0.576-2.76c-0.022-0.078-0.01-0.145,0.018-0.196
				c0.028-0.055,0.09-0.103,0.179-0.15l-0.029-0.128l-1.733,0.366l0.028,0.128c0.106,0.005,0.176,0.027,0.225,0.061
				c0.047,0.037,0.082,0.094,0.101,0.176l0.98,4.708c0.019,0.077,0.012,0.151-0.019,0.202c-0.025,0.049-0.086,0.098-0.179,0.149
				l0.026,0.127l3.474-0.726C2.917,1.87,3.25,1.775,3.489,1.674c0.238-0.103,0.437-0.23,0.597-0.392
				C4.27,1.097,4.391,0.867,4.445,0.605c0.053-0.254,0.053-0.514-0.007-0.78C4.253-1.079,3.637-1.506,2.598-1.45l0.758-1.761
				C3.489-3.516,3.589-3.72,3.663-3.814c0.073-0.097,0.173-0.163,0.302-0.195L3.932-4.14L1.926-3.723l0.026,0.131
				c0.144-0.009,0.225,0.027,0.239,0.103c0.01,0.051-0.032,0.18-0.118,0.396L1.29-1.22L-0.195-0.913"/>
		</g>
		<g id="g3219" transform="matrix(1.25,0,0,-1.25,304.18143,511.81936)">
			<path id="path3221" fill="#1A64B7" d="M0,0c0.274-0.058,0.471-0.092,0.585-0.101c0.023,0,0.043-0.002,0.067-0.002
				c0.087,0,0.172,0.017,0.25,0.04C1.117,0,1.248,0.163,1.313,0.442C1.324,0.506,1.33,0.577,1.33,0.634
				c0,0.186-0.063,0.326-0.189,0.426C1.053,1.135,0.963,1.188,0.866,1.228C0.764,1.264,0.57,1.315,0.285,1.367l-1.827,0.384
				l-0.288-1.37L0,0z M0.583-0.185C0.456-0.177,0.259-0.145-0.02-0.086l-1.869,0.39l-0.044,0.009l0.32,1.546l1.919-0.403
				c0.283-0.058,0.48-0.108,0.588-0.146c0.111-0.039,0.214-0.1,0.303-0.179c0.146-0.122,0.22-0.291,0.22-0.497
				c0-0.065-0.002-0.135-0.019-0.212C1.334,0.125,1.177-0.075,0.933-0.15C0.842-0.174,0.746-0.185,0.652-0.185
				C0.628-0.185,0.605-0.185,0.583-0.185 M-2.078-0.612l0.005,0.043L-2.078-0.612z M0.1-3.343l1.921-0.398l0.006,0.044
				C1.916-3.66,1.821-3.591,1.752-3.498C1.67-3.394,1.569-3.189,1.437-2.882L0.652-1.057l0.067-0.004
				c0.062-0.002,0.118-0.004,0.175-0.004c0.921,0.004,1.444,0.408,1.625,1.246c0.027,0.136,0.039,0.27,0.039,0.4
				c0,0.122-0.009,0.242-0.037,0.359C2.466,1.195,2.352,1.415,2.177,1.596C2.021,1.751,1.829,1.877,1.594,1.977
				C1.359,2.076,1.033,2.171,0.611,2.261L-2.84,2.984L-2.863,2.94C-2.767,2.889-2.7,2.835-2.665,2.776
				c0.02-0.048,0.03-0.088,0.03-0.142c0-0.033-0.003-0.063-0.004-0.097l-0.987-4.706C-3.645-2.256-3.682-2.323-3.742-2.37
				c-0.057-0.046-0.14-0.066-0.206-0.035l-0.019-0.087l1.661-0.35l0.026,0.043c-0.091,0.048-0.16,0.097-0.2,0.165
				c-0.021,0.04-0.032,0.09-0.032,0.14c0,0.027,0.007,0.061,0.011,0.09l0.385,1.843l0.013,0.041l1.555-0.343l0.782-1.871
				c0.077-0.191,0.122-0.318,0.122-0.393v-0.027c-0.026-0.1-0.122-0.14-0.248-0.137L0.1-3.343z M-0.008-3.413L0-3.369l0.073,0.166
				h0.034c0.115,0.001,0.152,0.028,0.161,0.062v0.014C0.271-3.081,0.23-2.958,0.151-2.768l-0.749,1.846l-1.437,0.301l-0.38-1.806
				C-2.42-2.451-2.423-2.473-2.423-2.494c0-0.039,0.008-0.069,0.021-0.1c0.026-0.038,0.077-0.083,0.186-0.174l-0.038-0.175
				l-1.817,0.385l0.008,0.039l0.069,0.167c0.099,0.004,0.164,0.026,0.2,0.05c0.037,0.029,0.061,0.08,0.082,0.151l0.982,4.706
				c0.003,0.029,0.005,0.059,0.005,0.079c0,0.04-0.005,0.073-0.02,0.094c-0.017,0.041-0.072,0.085-0.187,0.181l0.043,0.171
				l3.517-0.734c0.424-0.092,0.754-0.185,0.999-0.283c0.244-0.109,0.448-0.24,0.609-0.408C2.427,1.464,2.551,1.229,2.609,0.96
				c0.024-0.124,0.037-0.25,0.037-0.379c0-0.136-0.016-0.277-0.044-0.418c-0.177-0.874-0.766-1.32-1.708-1.314
				c-0.033,0-0.07,0-0.108,0l0.73-1.697c0.132-0.303,0.236-0.507,0.305-0.596c0.065-0.092,0.154-0.147,0.269-0.18l0.043-0.01
				L2.124-3.675L2.086-3.846L-0.008-3.413"/>
		</g>
		<g id="g3223" transform="matrix(1.25,0,0,-1.25,310.15693,512.57524)">
			<path id="path3225" fill="#1A64B7" d="M0,0l1.911,0.077c0.283,0.009,0.483,0.028,0.594,0.048c0.121,0.023,0.226,0.06,0.318,0.116
				c0.207,0.124,0.306,0.332,0.294,0.63C3.103,1.165,2.995,1.369,2.779,1.475c-0.106,0.048-0.21,0.078-0.326,0.089
				c-0.111,0.012-0.312,0.012-0.6,0l-1.911-0.073L0,0z M0.036-0.931l0.078-1.884c0-0.085,0.026-0.146,0.066-0.192
				c0.041-0.044,0.114-0.074,0.208-0.096L0.393-3.24l-1.768-0.067l-0.007,0.135c0.1,0.033,0.169,0.069,0.207,0.115
				C-1.14-3.013-1.121-2.95-1.126-2.864l-0.19,4.802c-0.003,0.087-0.025,0.149-0.066,0.194c-0.04,0.042-0.112,0.077-0.212,0.102
				l-0.004,0.129l3.547,0.141c0.434,0.019,0.777,0.011,1.032-0.033c0.253-0.04,0.476-0.117,0.672-0.234
				c0.224-0.136,0.398-0.326,0.515-0.57c0.111-0.233,0.171-0.485,0.186-0.758c0.035-0.922-0.458-1.486-1.479-1.682L4.04-2.299
				c0.2-0.267,0.349-0.437,0.446-0.513C4.575-2.89,4.69-2.927,4.822-2.932V-3.06L2.779-3.139L2.771-3.012
				c0.137,0.031,0.206,0.08,0.206,0.159c0,0.05-0.075,0.166-0.211,0.353L1.551-0.874L0.036-0.931"/>
		</g>
		<g id="g3227" transform="matrix(1.25,0,0,-1.25,312.4768,510.67649)">
			<path id="path3229" fill="#1A64B7" d="M0,0l-1.871-0.027l0.06-1.446l1.865,0.076c0.284,0.012,0.481,0.028,0.592,0.048
				C0.753-1.33,0.856-1.293,0.948-1.24c0.177,0.11,0.267,0.281,0.267,0.545c0,0.011,0,0.032,0,0.044
				C1.202-0.365,1.094-0.182,0.901-0.087C0.802-0.04,0.698-0.008,0.594,0C0.541,0.008,0.466,0.012,0.368,0.012
				C0.262,0.012,0.144,0.008,0,0 M-1.856-1.519H-1.9l-0.016,1.533l1.909,0.079C0.14,0.1,0.262,0.1,0.368,0.1
				c0.098,0,0.175-0.004,0.233-0.007c0.115-0.013,0.233-0.048,0.339-0.1c0.23-0.11,0.354-0.333,0.366-0.644v-0.044
				c0-0.282-0.106-0.496-0.316-0.618C0.893-1.375,0.78-1.417,0.661-1.437c-0.12-0.019-0.32-0.036-0.599-0.05l-1.918-0.072V-1.519z
				 M1.074-4.37v-0.002V-4.37 M-3.234-4.782l1.73,0.025l0.028,0.092C-1.58-4.647-1.653-4.611-1.705-4.556
				C-1.761-4.5-1.786-4.425-1.79-4.334l-0.071,1.881L-1.82-2.45v0.044l1.55,0.037L0.942-3.99C1.074-4.163,1.14-4.269,1.143-4.375
				h0.019c0-0.11-0.097-0.172-0.201-0.155L0.919-4.618L2.923-4.58l0.043,0.089C2.821-4.487,2.702-4.446,2.598-4.366
				C2.501-4.283,2.354-4.11,2.144-3.844L0.94-2.265l0.07,0.012c0.973,0.198,1.438,0.699,1.443,1.551c0,0.029,0,0.06-0.005,0.092
				C2.437-0.344,2.38-0.094,2.269,0.131C2.157,0.367,1.988,0.546,1.776,0.679c-0.188,0.113-0.41,0.191-0.655,0.23
				C0.94,0.937,0.716,0.952,0.449,0.952c-0.111,0-0.229-0.007-0.354-0.01l-3.508-0.095l-0.026-0.092
				c0.105-0.023,0.177-0.06,0.234-0.108C-3.157,0.592-3.13,0.514-3.13,0.421l0.191-4.809v-0.013c0-0.079-0.017-0.15-0.06-0.204
				C-3.043-4.658-3.12-4.703-3.195-4.691L-3.234-4.782z M-3.251-4.65c0.094,0.031,0.157,0.07,0.181,0.101
				c0.031,0.031,0.046,0.08,0.046,0.148c0,0.002-0.003,0.011,0,0.017l-0.192,4.802c-0.002,0.079-0.023,0.134-0.052,0.163
				C-3.301,0.617-3.366,0.65-3.492,0.712l0.038,0.176l3.547,0.145c0.123,0.004,0.245,0.005,0.356,0.005
				c0.267,0,0.493-0.011,0.679-0.039c0.263-0.041,0.49-0.121,0.693-0.245C2.053,0.617,2.229,0.418,2.354,0.17
				c0.111-0.241,0.172-0.5,0.183-0.779C2.54-0.641,2.54-0.673,2.54-0.702c0.003-0.867-0.491-1.42-1.449-1.62L2.214-3.79
				c0.205-0.267,0.357-0.435,0.44-0.503c0.087-0.073,0.185-0.108,0.354-0.153l-0.04-0.181L0.875-4.663l0.027,0.176
				c0.136,0.028,0.172,0.07,0.172,0.112c0.004,0,0.004,0.003,0,0.005c0,0.028-0.067,0.148-0.199,0.326l-1.179,1.605l-1.468-0.058
				l0.07-1.836c0.004-0.077,0.026-0.128,0.06-0.163c0.031-0.034,0.088-0.066,0.219-0.122l-0.033-0.184l-1.822-0.025L-3.251-4.65"/>
		</g>
		<g id="g3231" transform="matrix(1.25,0,0,-1.25,317.74005,515.35886)">
			<path id="path3233" fill="#1A64B7" d="M0,0l-1.034,4.694c-0.019,0.081-0.052,0.14-0.098,0.172
				c-0.045,0.036-0.122,0.058-0.23,0.063l-0.024,0.13L0.343,5.44l0.03-0.128C0.282,5.265,0.218,5.216,0.19,5.164
				C0.163,5.108,0.16,5.041,0.177,4.959l1.037-4.691c0.014-0.087,0.052-0.144,0.102-0.181c0.047-0.038,0.123-0.056,0.22-0.06
				l0.031-0.13l-1.732-0.381l-0.029,0.131c0.092,0.044,0.155,0.098,0.184,0.151C0.016-0.15,0.022-0.084,0,0"/>
		</g>
		<g id="g3235" transform="matrix(1.25,0,0,-1.25,317.80743,515.47299)">
			<path id="path3237" fill="#1A64B7" d="M0,0c0-0.049-0.008-0.096-0.028-0.133c-0.037-0.064-0.102-0.12-0.174-0.12l0.017-0.085
				l1.66,0.366l0.007,0.047C1.377,0.079,1.294,0.097,1.233,0.14C1.171,0.185,1.131,0.26,1.114,0.348L0.083,5.042
				c-0.012,0.037-0.018,0.073-0.018,0.1c0,0.049,0.014,0.096,0.031,0.134c0.037,0.068,0.105,0.117,0.18,0.117L0.255,5.477
				l-1.659-0.362l-0.005-0.05C-1.3,5.059-1.215,5.042-1.16,4.995C-1.098,4.949-1.062,4.881-1.044,4.8l1.035-4.698l-0.045-0.011
				l0.045,0.011C-0.002,0.067,0,0.033,0,0 M-0.262-0.404l-0.006,0.182c0.089,0.042,0.14,0.093,0.163,0.13
				C-0.093-0.067-0.087-0.035-0.087,0c0,0.024-0.003,0.054-0.006,0.08l-1.038,4.7c-0.015,0.071-0.046,0.119-0.08,0.143
				C-1.25,4.949-1.315,4.971-1.458,5.011l-0.035,0.175l1.816,0.4l0.012-0.042l0.001-0.181c-0.083-0.042-0.137-0.091-0.161-0.13
				C0.161,5.209,0.156,5.177,0.156,5.142c0-0.021,0.002-0.049,0.008-0.077l1.037-4.696c0.018-0.077,0.047-0.127,0.087-0.153
				c0.037-0.031,0.103-0.052,0.238-0.088l0.041-0.172L-0.25-0.446L-0.262-0.404"/>
		</g>
		<g id="g3239" transform="matrix(1.25,0,0,-1.25,322.74581,508.11511)">
			<path id="path3241" fill="#1A64B7" d="M0,0c-0.501-0.211-0.851-0.536-1.056-0.974C-1.298-1.491-1.298-2.034-1.063-2.6
				c0.244-0.566,0.634-0.936,1.177-1.118C0.571-3.871,1.05-3.839,1.553-3.624c0.504,0.211,0.86,0.535,1.061,0.974
				c0.121,0.26,0.181,0.54,0.175,0.839C2.786-1.548,2.731-1.294,2.628-1.049C2.377-0.461,1.982-0.08,1.446,0.095
				C0.982,0.239,0.506,0.211,0,0 M-0.382,0.886c0.907,0.388,1.735,0.449,2.484,0.186c0.779-0.276,1.346-0.818,1.694-1.634
				C4.011-1.064,4.072-1.587,3.987-2.14C3.819-3.211,3.131-4.004,1.93-4.517C1.028-4.902,0.2-4.957-0.539-4.696
				C-0.94-4.557-1.288-4.333-1.59-4.033C-1.861-3.759-2.07-3.446-2.225-3.09c-0.223,0.521-0.292,1.056-0.208,1.606
				C-2.274-0.439-1.59,0.353-0.382,0.886"/>
		</g>
		<g id="g3243" transform="matrix(1.25,0,0,-1.25,321.47255,509.35762)">
			<path id="path3245" fill="#1A64B7" d="M0,0c-0.122-0.252-0.176-0.512-0.176-0.778c0-0.261,0.054-0.529,0.174-0.811
				c0.235-0.552,0.62-0.913,1.146-1.093c0.191-0.064,0.38-0.095,0.574-0.095c0.27,0,0.547,0.066,0.839,0.186
				c0.495,0.212,0.839,0.528,1.035,0.955C3.711-1.39,3.765-1.127,3.765-0.84v0.024C3.761-0.558,3.711-0.31,3.604-0.073
				c-0.25,0.58-0.63,0.948-1.153,1.118c-0.188,0.06-0.378,0.09-0.566,0.09c-0.277,0-0.562-0.061-0.852-0.181
				C0.545,0.742,0.202,0.429,0,0 M1.117-2.764C0.564-2.581,0.161-2.196-0.084-1.623c-0.125,0.287-0.183,0.568-0.183,0.845
				c0,0.28,0.062,0.551,0.191,0.818c0.208,0.445,0.569,0.78,1.072,0.996l0.021-0.041L0.996,1.036c0.3,0.128,0.598,0.187,0.889,0.187
				c0.197,0,0.397-0.033,0.588-0.093c0.552-0.176,0.958-0.569,1.214-1.168c0.106-0.247,0.162-0.506,0.164-0.79V-0.84
				c0-0.297-0.058-0.579-0.177-0.833c-0.205-0.448-0.569-0.783-1.08-0.999C2.292-2.799,2-2.863,1.718-2.863
				C1.511-2.863,1.31-2.828,1.117-2.764 M0.656,1.84c-1.202-0.533-1.871-1.307-2.025-2.335C-1.398-0.639-1.406-0.79-1.406-0.93
				c0-0.393,0.081-0.773,0.24-1.148c0.149-0.35,0.356-0.663,0.624-0.928c0.3-0.295,0.645-0.517,1.035-0.65
				C0.79-3.763,1.102-3.817,1.429-3.817c0.471,0,0.973,0.111,1.5,0.335c1.199,0.512,1.866,1.29,2.029,2.346
				c0.026,0.159,0.037,0.313,0.037,0.464c0,0.375-0.073,0.737-0.221,1.087C4.43,1.221,3.873,1.751,3.099,2.023
				C2.801,2.132,2.494,2.184,2.171,2.184c-0.476,0-0.98-0.118-1.515-0.341V1.84z M0.465-3.742c-0.404,0.14-0.761,0.367-1.071,0.677
				c-0.27,0.272-0.487,0.588-0.641,0.949C-1.41-1.728-1.495-1.336-1.495-0.93c0,0.146,0.013,0.295,0.038,0.447
				C-1.3,0.58-0.6,1.385,0.618,1.923c0.546,0.233,1.064,0.35,1.553,0.35c0.332,0,0.656-0.054,0.957-0.164
				C3.924,1.831,4.503,1.273,4.856,0.45c0.149-0.361,0.231-0.735,0.231-1.122c0-0.156-0.015-0.313-0.038-0.478
				C4.88-2.237,4.181-3.045,2.968-3.561C2.424-3.793,1.911-3.909,1.429-3.909C1.092-3.909,0.77-3.852,0.465-3.742"/>
		</g>
		<g id="g3247" transform="matrix(1.25,0,0,-1.25,329.29168,506.78086)">
			<path id="path3249" fill="#1A64B7" d="M0,0l1.511,1.167C1.738,1.339,1.89,1.469,1.973,1.553C2.052,1.64,2.119,1.731,2.161,1.834
				c0.098,0.218,0.054,0.444-0.124,0.681C1.854,2.749,1.646,2.846,1.409,2.808C1.296,2.791,1.19,2.753,1.09,2.696
				c-0.094-0.059-0.257-0.173-0.487-0.35L-0.91,1.18L0,0z M0.567-0.74l1.155-1.494c0.045-0.062,0.105-0.103,0.161-0.115
				c0.062-0.012,0.136,0.003,0.23,0.042l0.081-0.105L0.791-3.493L0.709-3.392c0.062,0.089,0.095,0.158,0.098,0.216
				c0.008,0.058-0.02,0.121-0.067,0.19L-2.2,0.815c-0.05,0.07-0.105,0.109-0.163,0.123c-0.059,0.005-0.138-0.005-0.231-0.042
				L-2.676,1l2.811,2.169C0.481,3.435,0.769,3.625,0.996,3.74c0.233,0.113,0.459,0.182,0.686,0.197
				c0.263,0.018,0.512-0.036,0.746-0.163c0.226-0.125,0.426-0.299,0.594-0.512c0.56-0.735,0.487-1.48-0.234-2.231l1.834-0.57
				c0.321-0.094,0.54-0.151,0.659-0.159C5.399,0.297,5.515,0.329,5.622,0.4l0.081-0.103L4.082-0.958L4.002-0.85
				C4.1-0.75,4.124-0.665,4.076-0.604c-0.03,0.042-0.159,0.096-0.377,0.165L1.765,0.184L0.567-0.74"/>
		</g>
		<g id="g3251" transform="matrix(1.25,0,0,-1.25,331.05855,503.32849)">
			<path id="path3253" fill="#1A64B7" d="M0,0c-0.104-0.016-0.205-0.047-0.296-0.102C-0.392-0.158-0.56-0.274-0.782-0.45
				l-1.481-1.136l0.854-1.111l1.483,1.14c0.222,0.169,0.373,0.299,0.45,0.383c0.081,0.08,0.139,0.168,0.184,0.265
				c0.026,0.072,0.045,0.14,0.045,0.215c0,0.131-0.053,0.272-0.164,0.419C0.436-0.083,0.275,0.009,0.088,0.009
				C0.062,0.009,0.031,0.009,0,0 M-1.415-2.759l0.033,0.023L-1.415-2.759z M-2.387-1.575l1.547,1.2
				c0.231,0.171,0.396,0.292,0.494,0.346c0.105,0.064,0.218,0.1,0.334,0.115c0.037,0.011,0.072,0.013,0.1,0.013
				c0.22,0,0.408-0.108,0.57-0.32C0.776-0.38,0.843-0.536,0.843-0.694c0-0.09-0.018-0.175-0.055-0.252
				C0.74-1.054,0.673-1.152,0.589-1.24C0.504-1.324,0.351-1.456,0.125-1.629l-1.513-1.17l-0.039-0.026L-2.387-1.575z M-0.613-6.191
				l1.334,1.026L0.685-5.12C0.619-5.144,0.564-5.155,0.511-5.155c-0.015,0-0.029,0-0.05,0.004C0.388-5.139,0.329-5.094,0.275-5.023
				l-1.153,1.495l-0.031,0.037l1.277,0.955l1.933-0.618c0.222-0.077,0.344-0.124,0.394-0.183C2.719-3.365,2.729-3.396,2.729-3.43
				c0-0.061-0.034-0.121-0.085-0.183l0.029-0.043L4.227-2.46L4.195-2.42C4.101-2.471,4-2.5,3.897-2.5c-0.008,0-0.019-0.001-0.033,0
				C3.736-2.494,3.519-2.443,3.192-2.341l-1.9,0.591l0.05,0.048c0.397,0.421,0.59,0.826,0.59,1.225c0,0.315-0.12,0.629-0.361,0.944
				C1.404,0.68,1.209,0.849,1,0.972C0.795,1.086,0.589,1.136,0.368,1.136c-0.033,0-0.06,0-0.093,0
				c-0.224-0.021-0.443-0.083-0.67-0.2C-0.626,0.825-0.909,0.64-1.252,0.375L-4.027-1.77l0.033-0.042
				c0.066,0.025,0.12,0.034,0.174,0.034c0.019,0,0.036-0.003,0.051-0.004c0.076-0.014,0.135-0.063,0.196-0.136l2.935-3.807
				C-0.59-5.789-0.56-5.86-0.56-5.929v-0.01c-0.003-0.07-0.038-0.134-0.088-0.212L-0.613-6.191z M-0.656-6.287l-0.102,0.135
				l0.017,0.029c0.062,0.079,0.088,0.145,0.093,0.186v0.008c0,0.043-0.019,0.096-0.065,0.151l-2.93,3.805
				c-0.05,0.065-0.101,0.098-0.144,0.107c-0.009,0-0.018,0.003-0.033,0.003c-0.045,0-0.104-0.012-0.174-0.043l-0.031-0.012
				l-0.017,0.024L-4.15-1.755l2.846,2.197C-0.96,0.708-0.674,0.9-0.436,1.017c0.236,0.119,0.471,0.189,0.7,0.203
				c0.035,0.002,0.071,0.002,0.104,0.002C0.601,1.225,0.825,1.168,1.036,1.05c0.23-0.129,0.436-0.305,0.604-0.525
				C1.891,0.2,2.02-0.138,2.02-0.477c0-0.411-0.191-0.825-0.563-1.23l1.765-0.551C3.54-2.353,3.759-2.407,3.867-2.414h0.03
				c0.102,0.001,0.197,0.027,0.285,0.091l0.04,0.021l0.023-0.03l0.111-0.139L2.658-3.78L2.633-3.746L2.527-3.605L2.552-3.58
				c0.064,0.064,0.092,0.117,0.092,0.15c0,0.013-0.011,0.024-0.015,0.036C2.618-3.375,2.49-3.307,2.275-3.243L0.381-2.611
				l-1.163-0.9L0.34-4.967c0.048-0.061,0.092-0.09,0.142-0.102C0.484-5.07,0.496-5.07,0.511-5.07c0.043,0,0.103,0.013,0.172,0.042
				l0.031,0.015l0.02-0.029l0.109-0.142l-1.472-1.135L-0.656-6.287"/>
		</g>
		<g id="g3255" transform="matrix(1.25,0,0,-1.25,336.47155,496.12749)">
			<path id="path3257" fill="#1A64B7" d="M0,0l0.608-1.371L0.486-1.42C0.463-1.4,0.448-1.384,0.44-1.374
				c-0.075,0.06-0.206,0.061-0.393,0.003c-0.578-0.164-1.076-0.508-1.494-1.023c-0.184-0.232-0.32-0.453-0.401-0.674
				C-1.915-3.231-1.93-3.388-1.91-3.537c0.024-0.146,0.083-0.262,0.188-0.343c0.165-0.137,0.356-0.123,0.58,0.026
				c0.113,0.078,0.333,0.276,0.636,0.589l0.466,0.467c0.276,0.275,0.515,0.481,0.721,0.621c0.209,0.141,0.42,0.245,0.636,0.305
				C1.546-1.81,1.779-1.808,2.021-1.863c0.242-0.05,0.457-0.16,0.652-0.317c0.315-0.248,0.505-0.574,0.588-0.971
				c0.071-0.358,0.004-0.769-0.2-1.237c-0.15-0.35-0.358-0.684-0.621-1.01C1.969-5.982,1.362-6.444,0.622-6.79
				C0.465-6.862,0.38-6.916,0.361-6.935C0.34-6.966,0.326-7.03,0.326-7.126L0.201-7.184L-0.494-5.83l0.119,0.06
				c0.019-0.014,0.035-0.026,0.041-0.034c0.1-0.081,0.228-0.103,0.384-0.081C0.29-5.843,0.569-5.714,0.898-5.49
				c0.329,0.218,0.599,0.453,0.811,0.718c0.229,0.289,0.381,0.573,0.45,0.857C2.196-3.76,2.2-3.615,2.161-3.476
				C2.124-3.34,2.059-3.231,1.963-3.151C1.816-3.034,1.647-3.03,1.461-3.133C1.326-3.207,1.106-3.395,0.8-3.705L0.345-4.159
				C0.038-4.461-0.182-4.672-0.322-4.788C-0.469-4.899-0.629-4.997-0.809-5.08C-1.067-5.197-1.34-5.235-1.625-5.186
				c-0.254,0.038-0.496,0.149-0.723,0.333c-0.373,0.302-0.578,0.68-0.611,1.136c-0.048,0.597,0.2,1.229,0.744,1.904
				c0.227,0.28,0.466,0.518,0.721,0.714c0.258,0.201,0.606,0.419,1.058,0.657c0.145,0.088,0.235,0.142,0.254,0.17
				c0.037,0.044,0.058,0.12,0.058,0.218L0,0"/>
		</g>
		<g id="g3259" transform="matrix(1.25,0,0,-1.25,335.92693,503.43812)">
			<path id="path3261" fill="#1A64B7" d="M0,0l0.661-1.286l0.056,0.008c0.002,0.103,0.011,0.17,0.048,0.22
				c0.032,0.038,0.11,0.08,0.273,0.155c0.735,0.345,1.333,0.801,1.803,1.38c0.261,0.323,0.468,0.655,0.616,1
				c0.148,0.341,0.218,0.65,0.218,0.929c0,0.097-0.004,0.192-0.024,0.286C3.569,3.075,3.383,3.39,3.083,3.636
				C2.892,3.788,2.678,3.89,2.442,3.946C2.331,3.969,2.223,3.984,2.12,3.984c-0.12,0-0.238-0.017-0.351-0.048
				c-0.21-0.063-0.425-0.164-0.625-0.3C0.939,3.497,0.696,3.29,0.423,3.015l-0.459-0.464C-0.348,2.239-0.558,2.042-0.68,1.957
				c-0.124-0.082-0.241-0.126-0.356-0.126c-0.1,0-0.196,0.033-0.278,0.104c-0.113,0.088-0.181,0.216-0.201,0.372
				c-0.01,0.045-0.013,0.085-0.013,0.13c0,0.114,0.025,0.237,0.071,0.358c0.085,0.223,0.225,0.453,0.412,0.686
				c0.424,0.524,0.928,0.87,1.518,1.039c0.09,0.03,0.17,0.043,0.244,0.043c0.074,0.002,0.135-0.014,0.182-0.054
				C0.917,4.497,0.932,4.48,0.902,4.472l0.084,0.034l-0.58,1.295L0.354,5.794c0-0.102-0.017-0.184-0.063-0.247
				c-0.037-0.041-0.12-0.088-0.273-0.178c-0.449-0.241-0.797-0.458-1.051-0.647C-1.279,4.52-1.518,4.288-1.748,4.005
				C-2.244,3.395-2.49,2.819-2.49,2.277c0-0.041,0.005-0.094,0.008-0.141c0.038-0.448,0.236-0.806,0.6-1.105
				c0.218-0.18,0.453-0.284,0.702-0.327c0.075-0.01,0.155-0.016,0.227-0.016c0.194,0,0.38,0.042,0.558,0.122
				c0.18,0.081,0.337,0.178,0.48,0.29C0.221,1.208,0.446,1.416,0.75,1.72l0.456,0.458c0.305,0.305,0.526,0.496,0.667,0.575
				c0.093,0.054,0.188,0.082,0.281,0.082C2.252,2.837,2.343,2.8,2.425,2.731C2.53,2.648,2.603,2.53,2.641,2.382
				C2.657,2.311,2.663,2.24,2.663,2.165c0-0.077-0.006-0.158-0.026-0.244c-0.067-0.292-0.222-0.58-0.454-0.87
				c-0.22-0.27-0.496-0.51-0.824-0.729C1.028,0.096,0.741-0.036,0.493-0.077c-0.044-0.006-0.083-0.01-0.12-0.01
				c-0.119,0-0.216,0.033-0.297,0.095C0.069,0.014,0.058,0.027,0.075,0.035L0,0z M-0.119,0.043l0.041,0.017l0.169,0.057
				c0.016-0.021,0.033-0.031,0.042-0.036C0.199,0.027,0.274,0,0.373,0c0.033,0,0.07,0.007,0.108,0.008
				c0.225,0.039,0.502,0.166,0.827,0.386c0.324,0.215,0.594,0.45,0.806,0.711C2.338,1.388,2.486,1.666,2.552,1.94
				C2.57,2.018,2.577,2.093,2.577,2.165c0,0.071-0.007,0.135-0.021,0.198C2.522,2.494,2.457,2.59,2.371,2.662
				C2.298,2.72,2.229,2.747,2.154,2.747c-0.072,0-0.153-0.02-0.235-0.07c-0.124-0.071-0.348-0.26-0.648-0.563l-0.46-0.455
				C0.506,1.35,0.283,1.145,0.141,1.028c-0.147-0.115-0.312-0.217-0.498-0.297C-0.549,0.64-0.744,0.599-0.953,0.599
				c-0.083,0-0.161,0.007-0.238,0.018c-0.266,0.044-0.516,0.158-0.747,0.346C-2.321,1.27-2.534,1.662-2.569,2.127
				c-0.002,0.051-0.009,0.102-0.009,0.15c0,0.568,0.257,1.164,0.761,1.785c0.231,0.285,0.474,0.529,0.732,0.725
				c0.26,0.199,0.609,0.418,1.064,0.662C0.124,5.53,0.216,5.591,0.221,5.605c0.029,0.031,0.045,0.092,0.07,0.232l0.126,0.051
				l0.04,0.017l0.644-1.446L1.062,4.441l-0.17-0.047C0.865,4.42,0.856,4.431,0.846,4.441C0.817,4.462,0.775,4.477,0.717,4.477
				c-0.062,0-0.138-0.013-0.218-0.038c-0.57-0.168-1.062-0.503-1.474-1.016C-1.158,3.201-1.293,2.978-1.38,2.764
				C-1.417,2.65-1.44,2.539-1.44,2.437c0-0.041,0.003-0.079,0.011-0.118c0.02-0.14,0.08-0.238,0.166-0.312
				c0.074-0.059,0.149-0.086,0.227-0.086c0.088,0,0.192,0.036,0.302,0.111c0.113,0.075,0.326,0.268,0.63,0.584L0.361,3.08
				c0.275,0.277,0.522,0.485,0.731,0.629c0.214,0.143,0.429,0.247,0.651,0.314C1.867,4.055,1.991,4.072,2.12,4.072
				c0.114,0,0.226-0.011,0.343-0.038c0.248-0.054,0.472-0.168,0.672-0.33c0.322-0.257,0.52-0.592,0.599-0.994
				c0.023-0.098,0.03-0.201,0.03-0.304c0-0.298-0.076-0.614-0.226-0.966c-0.151-0.348-0.36-0.69-0.629-1.018
				C2.434-0.166,1.82-0.635,1.074-0.98C0.923-1.054,0.831-1.112,0.829-1.115C0.817-1.121,0.806-1.186,0.779-1.32L0.614-1.391
				L-0.119,0.043"/>
		</g>
		<g id="g3263" transform="matrix(1.25,0,0,-1.25,339.27543,479.16411)">
			<path id="path3265" fill="#1A64B7" d="M0,0c0-12.566-10.185-22.754-22.752-22.754c-12.571,0-22.756,10.188-22.756,22.754
				s10.185,22.757,22.756,22.757C-10.185,22.757,0,12.566,0,0"/>
		</g>
		<g id="g3267" transform="matrix(1.25,0,0,-1.25,310.82255,502.77949)">
			<path id="path3269" fill="#FBBF16" d="M0,0c-10.833,0-19.615,8.782-19.615,19.618c0,10.834,8.782,19.618,19.615,19.618
				c10.835,0,19.616-8.785,19.616-19.618C19.616,8.782,10.835,0,0,0 M-0.002,40.547c-11.562,0-20.936-9.369-20.936-20.935
				c0-11.563,9.374-20.934,20.936-20.934c11.563,0,20.937,9.371,20.937,20.934C20.935,31.178,11.561,40.547-0.002,40.547"/>
		</g>
		<g id="g3271" transform="matrix(1.25,0,0,-1.25,296.43518,465.86611)">
			<path id="path3273" fill="#FBBF16" d="M0,0c0,0,11.664-15.586,30.212-19.133l-3.346-0.959c0,0-11.593,2.683-26.776,19.635"/>
		</g>
		<g id="g3275" transform="matrix(1.25,0,0,-1.25,289.55893,493.29811)">
			<path id="path3277" fill="#FBBF16" d="M0,0c0,0,15.092,2.487,31.729,2.082l3.332,0.715l-1.798-3.926
				c0,0-17.556,0.601-30.558-0.762C0.388-1.573,0.692-0.725,0.692-0.725L0,0"/>
		</g>
		<g id="g3279" transform="matrix(1.25,0,0,-1.25,292.35243,495.97162)">
			<path id="path3281" fill="#FBBF16" d="M0,0c0,0,19.672,0.857,29.656-0.469c0.264-0.035,0.81,0.899,0.81,0.899
				S23.22,1.431,1.04,0.658C-2.557,0.532,0,0,0,0"/>
		</g>
		<g id="g3283" transform="matrix(1.25,0,0,-1.25,295.2408,467.97112)">
			<path id="path3285" fill="#FBBF16" d="M0,0c-3.589-8.498-7.825-11.889-7.825-11.889l0.244-1.713c0,0,4.672,6.058,7.581,12.83
				C1.607,2.966,0,0,0,0"/>
		</g>
		<g id="g3287" transform="matrix(1.25,0,0,-1.25,295.63756,465.05449)">
			<path id="path3289" fill="#FBBF16" d="M0,0l-0.507-0.125c0,0-0.495-24.239-0.173-26.938c0.03-0.239,1.206-0.022,1.206-0.022
				s0.401-1.643,1.174-0.959C1.02-19.454,0.856,0.502,0.856,0.502H0.013L0,0"/>
		</g>
		<g id="g3291" transform="matrix(1.25,0,0,-1.25,297.09631,465.59424)">
			<path id="path3293" fill="#FBBF16" d="M0,0l0.57,0.493l0.609-0.274c0,0,0.608-22.848,1.702-29.255l-0.593,0.047
				c0,0-1.19,0.069-1.271,0.817C0.539-23.894,0,0,0,0"/>
		</g>
		<g id="g3295" transform="matrix(1.25,0,0,-1.25,293.05531,493.92261)">
			<path id="path3297" fill="#FBBF16" d="M0,0l-0.411,0.072L1.28,9.608l0.409-0.073L0,0z"/>
		</g>
		<g id="g3299" transform="matrix(1.25,0,0,-1.25,291.17468,493.69637)">
			<path id="path3301" fill="#FBBF16" d="M0,0l-0.405,0.076l3.406,19.219l0.411-0.07L0,0z"/>
		</g>
		<g id="g3303" transform="matrix(1.25,0,0,-1.25,289.65543,492.12261)">
			<path id="path3305" fill="#FBBF16" d="M0,0l-0.315,0.407l2.359,13.481l0.584,0.917L0,0z"/>
		</g>
		<g id="g3307" transform="matrix(1.25,0,0,-1.25,302.03218,492.61112)">
			<path id="path3309" fill="#FBBF16" d="M0,0l0.395,0.123l-3.769,11.979l0.324-2.508L0,0z"/>
		</g>
		<g id="g3311" transform="matrix(1.25,0,0,-1.25,303.86156,492.14887)">
			<path id="path3313" fill="#FBBF16" d="M0,0l0.396,0.124l-5.089,16.371l0.035-1.647L0,0z"/>
		</g>
		<g id="g3315" transform="matrix(1.25,0,0,-1.25,305.98943,491.75949)">
			<path id="path3317" fill="#FBBF16" d="M0,0l0.396,0.122l-5.502,17.566l-0.68,0.717L0,0z"/>
		</g>
		<g id="g3319" transform="matrix(1.25,0,0,-1.25,301.75593,471.93237)">
			<path id="path3321" fill="#FBBF16" d="M0,0l5.043-15.821l0.396,0.128L0.716-0.68l-0.25,0.25"/>
		</g>
		<g id="g3323" transform="matrix(1.25,0,0,-1.25,304.86143,474.86824)">
			<path id="path3325" fill="#FBBF16" d="M0,0l4.274-13.481l0.396,0.125L0.62-0.534L0.064,0"/>
		</g>
		<g id="g3327" transform="matrix(1.25,0,0,-1.25,312.14043,491.36562)">
			<path id="path3329" fill="#FBBF16" d="M0,0l0.396,0.125l-3.402,10.661l-0.554,0.427L0,0z"/>
		</g>
		<g id="g3331" transform="matrix(1.25,0,0,-1.25,314.3393,491.27037)">
			<path id="path3333" fill="#FBBF16" d="M0,0l0.397,0.126l-2.729,8.642l-0.639,0.576L0,0z"/>
		</g>
		<g id="g3335" transform="matrix(1.25,0,0,-1.25,313.37205,481.69837)">
			<path id="path3337" fill="#FBBF16" d="M0,0l2.433-7.614l0.395,0.123L0.62-0.469L0.235-0.246"/>
		</g>
		<g id="g3339" transform="matrix(1.25,0,0,-1.25,316.22718,483.85949)">
			<path id="path3341" fill="#FBBF16" d="M0,0l1.863-5.897l0.394,0.123L0.534-0.342L0.059-0.196"/>
		</g>
		<g id="g3343" transform="matrix(1.25,0,0,-1.25,321.53843,493.74011)">
			<path id="path3345" fill="#FBBF16" d="M0,0l0.397,0.124l-1.864,6.025l-0.696,0.833L0,0z"/>
		</g>
		<g id="g3347" transform="matrix(1.25,0,0,-1.25,321.41005,486.60049)">
			<path id="path3349" fill="#FBBF16" d="M0,0l1.654-5.281l0.395,0.128L0.63-0.616L0,0z"/>
		</g>
		<g id="g3351" transform="matrix(1.25,0,0,-1.25,324.06468,488.23286)">
			<path id="path3353" fill="#FBBF16" d="M0,0l1.21-3.813l0.398,0.125l-1.01,3.172L0,0z"/>
		</g>
		<g id="g3355" transform="matrix(1.25,0,0,-1.25,287.13143,487.46049)">
			<path id="path3357" fill="#FBBF16" d="M0,0l-0.492,0.386l1.277,4.985l0.408-0.047L0,0z"/>
		</g>
		<g id="g3359" transform="matrix(1.25,0,0,-1.25,288.49305,489.21049)">
			<path id="path3361" fill="#FBBF16" d="M0,0l-0.316,0.409l1.47,8.336l0.53,0.767L0,0z"/>
		</g>
		<g id="g3363" transform="matrix(1.25,0,0,-1.25,284.94493,458.84499)">
			<path id="path3365" fill="#1A64B7" d="M0,0l-0.107-0.083C-0.123-0.06-0.143-0.041-0.163-0.026
				c-0.052,0.039-0.123,0.04-0.213,0.007c-0.089-0.034-0.186-0.09-0.287-0.168c-0.102-0.078-0.203-0.17-0.303-0.276
				c-0.1-0.108-0.187-0.213-0.265-0.318C-1.326-0.91-1.402-1.053-1.457-1.207c-0.057-0.154-0.084-0.309-0.08-0.465
				c0.004-0.156,0.045-0.309,0.122-0.459c0.077-0.151,0.205-0.29,0.379-0.418c0.171-0.125,0.34-0.203,0.51-0.232
				c0.167-0.03,0.327-0.023,0.477,0.019c0.15,0.044,0.29,0.116,0.419,0.217C0.5-2.444,0.612-2.33,0.707-2.2
				c0.146,0.198,0.261,0.389,0.344,0.573c0.082,0.183,0.146,0.345,0.19,0.486l-0.45,0.329L0.299-1.484
				C0.263-1.532,0.247-1.577,0.251-1.617c0.002-0.039,0.036-0.088,0.101-0.146l-0.07-0.094l-0.67,0.491l0.069,0.093
				c0.066-0.035,0.114-0.047,0.147-0.034c0.034,0.013,0.069,0.043,0.104,0.093l0.959,1.309l0.094-0.069
				c-0.04-0.078-0.06-0.13-0.058-0.158c0-0.027,0.023-0.057,0.069-0.092l0.592-0.433C1.623-0.682,1.654-0.689,1.68-0.675
				c0.025,0.013,0.056,0.028,0.089,0.046L1.854-0.69C1.849-0.863,1.827-1.034,1.786-1.2c-0.041-0.165-0.094-0.325-0.16-0.477
				C1.559-1.831,1.482-1.975,1.393-2.11c-0.09-0.136-0.179-0.268-0.272-0.393C0.943-2.748,0.749-2.949,0.54-3.105
				C0.331-3.261,0.115-3.366-0.11-3.421c-0.225-0.054-0.453-0.058-0.683-0.01c-0.231,0.048-0.456,0.152-0.675,0.313
				c-0.221,0.161-0.389,0.344-0.504,0.55c-0.115,0.205-0.181,0.424-0.199,0.655C-2.189-1.68-2.156-1.438-2.074-1.19
				c0.082,0.246,0.214,0.494,0.393,0.738C-1.569-0.298-1.45-0.16-1.328-0.034c0.124,0.124,0.238,0.23,0.343,0.32
				c0.106,0.088,0.196,0.16,0.271,0.215c0.075,0.054,0.119,0.092,0.133,0.108c0.022,0.032,0.032,0.062,0.031,0.089
				c-0.001,0.028,0,0.056,0.003,0.081l0.082,0.036L0,0"/>
		</g>
		<g id="g3367" transform="matrix(1.25,0,0,-1.25,287.61755,455.25286)">
			<path id="path3369" fill="#1A64B7" d="M0,0c-0.086-0.149-0.145-0.304-0.178-0.465c-0.031-0.161-0.03-0.322,0.006-0.483
				c0.035-0.161,0.114-0.308,0.237-0.443c0.122-0.134,0.261-0.227,0.419-0.277C0.642-1.718,0.8-1.735,0.965-1.717
				c0.162,0.016,0.322,0.062,0.479,0.134C1.6-1.512,1.74-1.42,1.861-1.308c0.122,0.11,0.226,0.241,0.313,0.39
				C2.259-0.77,2.318-0.614,2.35-0.453c0.032,0.161,0.03,0.322-0.005,0.482C2.311,0.19,2.231,0.339,2.108,0.472
				C1.986,0.605,1.846,0.7,1.689,0.75C1.532,0.8,1.372,0.815,1.209,0.799c-0.163-0.016-0.323-0.061-0.48-0.134
				C0.571,0.592,0.434,0.501,0.312,0.39C0.192,0.279,0.087,0.149,0,0 M0.52,1.242c0.23,0.113,0.469,0.186,0.716,0.217
				C1.481,1.491,1.726,1.47,1.97,1.395c0.243-0.073,0.465-0.221,0.666-0.441C2.837,0.733,2.964,0.498,3.015,0.25
				C3.067,0,3.065-0.245,3.011-0.488C2.957-0.73,2.861-0.96,2.721-1.173c-0.138-0.215-0.295-0.403-0.47-0.563
				c-0.177-0.16-0.379-0.298-0.604-0.418C1.421-2.272,1.185-2.346,0.939-2.378c-0.248-0.031-0.493-0.01-0.736,0.064
				C-0.04-2.241-0.262-2.093-0.463-1.872C-0.665-1.651-0.79-1.417-0.842-1.168c-0.052,0.249-0.049,0.495,0.005,0.737
				c0.054,0.244,0.147,0.473,0.282,0.693c0.134,0.22,0.289,0.409,0.465,0.57C0.086,0.991,0.289,1.129,0.52,1.242"/>
		</g>
		<g id="g3371" transform="matrix(1.25,0,0,-1.25,296.70943,452.90824)">
			<path id="path3373" fill="#1A64B7" d="M0,0c-0.04-0.015-0.087-0.039-0.142-0.073l-2.626-1.629l-0.062,0.1
				C-2.721-1.533-2.685-1.467-2.726-1.4L-4.28,1.104c-0.04,0.067-0.117,0.065-0.227-0.003l-0.061,0.1l0.948,0.587l0.063-0.099
				C-3.661,1.625-3.692,1.56-3.65,1.494l1.362-2.196l1.832,1.136c0.054,0.035,0.091,0.076,0.11,0.123
				c0.019,0.048,0.014,0.093-0.013,0.138l0.1,0.061L0.21,0l-0.1-0.061C0.076-0.007,0.038,0.015,0,0"/>
		</g>
		<g id="g3375" transform="matrix(1.25,0,0,-1.25,299.51643,450.90862)">
			<path id="path3377" fill="#1A64B7" d="M0,0c0.188,0.075,0.347,0.156,0.476,0.245c0.128,0.088,0.222,0.192,0.282,0.311
				c0.059,0.119,0.085,0.257,0.077,0.411C0.828,1.122,0.781,1.304,0.698,1.514C0.615,1.723,0.523,1.886,0.423,2.005
				C0.322,2.123,0.209,2.206,0.084,2.252c-0.126,0.045-0.265,0.055-0.419,0.031C-0.488,2.26-0.659,2.21-0.849,2.135l-0.935-0.371
				l0.85-2.136L0,0z M-0.813,2.75c0.221,0.088,0.44,0.138,0.657,0.15c0.215,0.011,0.42-0.021,0.614-0.095
				C0.65,2.73,0.827,2.609,0.986,2.443c0.159-0.168,0.293-0.386,0.4-0.655c0.106-0.271,0.16-0.521,0.157-0.752
				c-0.001-0.231-0.045-0.44-0.134-0.627c-0.088-0.186-0.216-0.349-0.38-0.49c-0.167-0.14-0.36-0.254-0.581-0.342l-2.003-0.796
				l-0.043,0.108c0.092,0.037,0.124,0.091,0.096,0.163L-2.59,1.793c-0.03,0.07-0.092,0.089-0.183,0.052l-0.044,0.11L-0.813,2.75"/>
		</g>
		<g id="g3379" transform="matrix(1.25,0,0,-1.25,306.45468,446.27311)">
			<path id="path3381" fill="#1A64B7" d="M0,0c-0.01,0.046-0.035,0.079-0.075,0.094C-0.115,0.111-0.18,0.111-0.27,0.092L-2.333-0.31
				l0.154-0.791l1.248,0.245c0.085,0.016,0.149,0.041,0.192,0.073c0.041,0.034,0.052,0.098,0.034,0.197l0.115,0.021l0.192-0.994
				l-0.114-0.023C-0.53-1.484-0.565-1.426-0.619-1.407c-0.052,0.019-0.12,0.019-0.205,0.003l-1.248-0.244l0.17-0.879l2.129,0.415
				C0.291-2.1,0.339-2.075,0.374-2.037C0.41-1.999,0.421-1.955,0.412-1.903l0.113,0.02l0.171-0.872L0.581-2.777
				C0.569-2.714,0.542-2.682,0.5-2.681C0.458-2.679,0.404-2.686,0.341-2.698l-2.968-0.58L-2.65-3.163
				c0.029,0.006,0.054,0.02,0.075,0.044c0.018,0.025,0.024,0.055,0.016,0.093l-0.564,2.892c-0.007,0.039-0.025,0.066-0.051,0.08
				C-3.201-0.04-3.23-0.035-3.259-0.041l-0.023,0.115l2.906,0.567c0.089,0.017,0.149,0.043,0.18,0.078
				c0.031,0.035,0.041,0.075,0.033,0.122l0.114,0.023l0.164-0.842L0,0"/>
		</g>
		<g id="g3383" transform="matrix(1.25,0,0,-1.25,308.52556,449.27949)">
			<path id="path3385" fill="#1A64B7" d="M0,0c0.082,0,0.123,0.039,0.124,0.116v2.948c0,0.078-0.042,0.117-0.123,0.116L0,3.298h1.11
				V3.181C1.075,3.18,1.059,3.16,1.059,3.116c0-0.036,0.043-0.096,0.131-0.182l1.862-1.935v2.064c0,0.078-0.056,0.117-0.17,0.117
				v0.117h0.981V3.18c-0.082,0-0.123-0.039-0.123-0.116L3.739,0.116c0-0.079,0.042-0.117,0.123-0.117v-0.116H2.811v0.116
				C2.867,0,2.896,0.019,2.896,0.058C2.895,0.089,2.861,0.139,2.793,0.207L0.812,2.273l0.001-2.156C0.812,0.038,0.861,0,0.961-0.001
				v-0.116h-0.962L0,0"/>
		</g>
		<g id="g3387" transform="matrix(1.25,0,0,-1.25,317.92755,448.81424)">
			<path id="path3389" fill="#1A64B7" d="M0,0l0.053-0.048C0.043-0.086,0.041-0.122,0.05-0.156c0.015-0.058,0.059-0.123,0.132-0.195
				C0.254-0.422,0.339-0.493,0.439-0.56C0.54-0.629,0.646-0.691,0.761-0.748c0.115-0.057,0.22-0.098,0.316-0.125
				c0.071-0.021,0.165-0.04,0.28-0.06c0.114-0.023,0.232-0.031,0.348-0.028c0.12,0.003,0.225,0.023,0.32,0.06
				C2.122-0.866,2.182-0.8,2.209-0.702c0.027,0.094,0.01,0.176-0.05,0.242c-0.06,0.066-0.148,0.126-0.26,0.179
				C1.786-0.226,1.654-0.174,1.504-0.126c-0.15,0.049-0.303,0.101-0.458,0.158C0.891,0.089,0.741,0.153,0.598,0.225
				c-0.144,0.07-0.267,0.157-0.367,0.259C0.133,0.587,0.063,0.707,0.023,0.846c-0.04,0.139-0.033,0.305,0.021,0.497
				C0.08,1.473,0.145,1.59,0.24,1.699c0.096,0.108,0.219,0.192,0.371,0.254c0.151,0.06,0.331,0.095,0.541,0.102
				c0.209,0.007,0.442-0.026,0.7-0.098c0.221-0.062,0.409-0.132,0.562-0.21c0.153-0.078,0.284-0.153,0.393-0.225
				c0.107-0.07,0.197-0.133,0.269-0.189c0.073-0.056,0.135-0.091,0.19-0.107c0.058-0.017,0.103-0.015,0.135,0.002l0.061-0.069
				L2.813,0.497L2.757,0.54c0.008,0.059,0.006,0.113-0.009,0.157C2.728,0.755,2.687,0.82,2.623,0.89
				C2.56,0.96,2.481,1.028,2.387,1.094C2.294,1.161,2.189,1.222,2.075,1.279C1.96,1.335,1.843,1.38,1.721,1.415
				c-0.092,0.024-0.189,0.044-0.29,0.056C1.329,1.484,1.232,1.487,1.146,1.48C1.059,1.473,0.982,1.452,0.918,1.419
				C0.851,1.386,0.809,1.334,0.789,1.262C0.761,1.163,0.777,1.078,0.835,1.007c0.059-0.071,0.146-0.134,0.257-0.193
				c0.113-0.058,0.243-0.113,0.392-0.163C1.634,0.6,1.786,0.547,1.943,0.49C2.096,0.433,2.247,0.368,2.39,0.294
				C2.533,0.22,2.655,0.133,2.754,0.031c0.1-0.102,0.17-0.221,0.211-0.359c0.039-0.137,0.033-0.299-0.019-0.486
				C2.887-1.032,2.78-1.193,2.625-1.297C2.473-1.403,2.301-1.473,2.108-1.504C1.915-1.536,1.715-1.538,1.509-1.509
				C1.305-1.481,1.116-1.443,0.945-1.396C0.706-1.329,0.511-1.261,0.358-1.188C0.205-1.117,0.083-1.047-0.013-0.977
				c-0.096,0.069-0.17,0.129-0.224,0.178c-0.055,0.048-0.104,0.079-0.149,0.09C-0.416-0.7-0.448-0.71-0.482-0.735l-0.074,0.074L0,0"
				/>
		</g>
		<g id="g3391" transform="matrix(1.25,0,0,-1.25,324.69318,452.51211)">
			<path id="path3393" fill="#1A64B7" d="M0,0l-0.051-0.106l-0.902,0.43l0.049,0.105c0.027-0.014,0.056-0.016,0.087-0.008
				c0.03,0.006,0.052,0.028,0.071,0.062l1.105,2.336l-0.967,0.459c-0.037,0.016-0.075,0.023-0.118,0.02
				C-0.768,3.293-0.802,3.264-0.829,3.21l-0.105,0.05l0.39,0.821l0.105-0.051c-0.025-0.054-0.026-0.1-0.003-0.135
				c0.024-0.036,0.054-0.062,0.088-0.077l2.606-1.235c0.035-0.018,0.073-0.023,0.116-0.02c0.041,0.004,0.077,0.034,0.103,0.088
				l0.106-0.05L2.188,1.78L2.082,1.831C2.107,1.885,2.107,1.93,2.084,1.965C2.06,2,2.031,2.026,1.996,2.044L1.027,2.501
				l-1.106-2.334C-0.112,0.098-0.086,0.041,0,0"/>
		</g>
		<g id="g3395" transform="matrix(1.25,0,0,-1.25,329.38343,453.55424)">
			<path id="path3397" fill="#1A64B7" d="M0,0l0.224,1.305l-1.182-0.658L0,0z M-2.704,0.368c0.051-0.024,0.103-0.026,0.157-0.005
				c0.053,0.022,0.11,0.05,0.169,0.083l2.409,1.421c0.056,0.029,0.107,0.057,0.154,0.084c0.046,0.026,0.08,0.054,0.099,0.081
				c0.024,0.037,0.028,0.071,0.014,0.101C0.282,2.166,0.261,2.194,0.237,2.22l0.067,0.097l0.909-0.613L1.148,1.607
				c-0.032,0.01-0.063,0.017-0.096,0.021c-0.033,0.004-0.064-0.014-0.09-0.052c-0.019-0.03-0.033-0.063-0.04-0.099
				C0.916,1.439,0.909,1.389,0.903,1.325l-0.36-2.946C0.535-1.672,0.54-1.717,0.558-1.756c0.019-0.038,0.041-0.08,0.069-0.124
				L0.56-1.977l-0.946,0.639l0.066,0.097c0.014-0.01,0.035-0.017,0.064-0.02c0.029-0.004,0.05,0.006,0.064,0.026
				c0.024,0.036,0.043,0.092,0.053,0.17l0.064,0.535l-1.313,0.886L-1.84,0.105c-0.087-0.05-0.14-0.092-0.162-0.124
				c-0.026-0.04-0.006-0.083,0.062-0.129l-0.065-0.097l-0.764,0.516L-2.704,0.368"/>
		</g>
		<g id="g3399" transform="matrix(1.25,0,0,-1.25,332.18493,457.80087)">
			<path id="path3401" fill="#1A64B7" d="M0,0l-0.079-0.087l-0.736,0.678l0.08,0.086c0.022-0.019,0.049-0.031,0.079-0.033
				c0.031-0.002,0.059,0.012,0.086,0.04l1.751,1.9L0.394,3.31C0.364,3.337,0.33,3.355,0.288,3.363
				C0.245,3.372,0.205,3.354,0.164,3.31L0.077,3.389l0.616,0.668l0.086-0.078C0.738,3.934,0.724,3.892,0.737,3.85
				c0.011-0.04,0.032-0.074,0.061-0.1l2.119-1.954c0.029-0.027,0.064-0.045,0.106-0.054c0.042-0.009,0.083,0.009,0.125,0.054
				l0.085-0.079L2.618,1.048L2.531,1.127c0.042,0.045,0.056,0.087,0.043,0.128C2.563,1.297,2.541,1.33,2.513,1.357L1.725,2.083
				l-1.751-1.901C-0.078,0.125-0.07,0.064,0,0"/>
		</g>
		<g id="g3403" transform="matrix(1.25,0,0,-1.25,339.03243,460.82212)">
			<path id="path3405" fill="#1A64B7" d="M0,0c0.037,0.029,0.054,0.066,0.051,0.109C0.048,0.154,0.017,0.21-0.038,0.283
				l-1.283,1.665l-0.637-0.49l0.775-1.009c0.053-0.068,0.104-0.114,0.152-0.137c0.048-0.024,0.112-0.005,0.189,0.056l0.073-0.092
				l-0.804-0.619L-1.644-0.25c0.079,0.06,0.116,0.118,0.11,0.174C-1.542-0.022-1.572,0.041-1.625,0.11l-0.777,1.007l-0.709-0.546
				l1.323-1.718c0.04-0.052,0.083-0.085,0.133-0.099c0.049-0.015,0.094-0.005,0.136,0.026l0.071-0.093l-0.704-0.542l-0.073,0.092
				c0.052,0.04,0.069,0.079,0.051,0.116C-2.192-1.608-2.22-1.564-2.261-1.512l-1.846,2.396l0.093,0.072
				c0.018-0.023,0.042-0.04,0.072-0.046C-3.913,0.902-3.88,0.911-3.85,0.934l2.333,1.798c0.033,0.024,0.049,0.052,0.049,0.082
				c0,0.032-0.008,0.059-0.026,0.084l0.092,0.07l1.806-2.345C0.46,0.55,0.51,0.509,0.555,0.496C0.6,0.485,0.641,0.494,0.678,0.523
				L0.75,0.43L0.07-0.094L0,0"/>
		</g>
	</g>
</g>
</svg>
