<?xml version="1.0" encoding="utf-8"?>
<!-- Generator: Adobe Illustrator 16.0.4, SVG Export Plug-In . SVG Version: 6.00 Build 0)  -->
<!DOCTYPE svg PUBLIC "-//W3C//DTD SVG 1.1//EN" "http://www.w3.org/Graphics/SVG/1.1/DTD/svg11.dtd">
<svg version="1.1" id="svg2" xmlns:svg="http://www.w3.org/2000/svg"
	 xmlns="http://www.w3.org/2000/svg" xmlns:xlink="http://www.w3.org/1999/xlink" x="0px" y="0px" viewBox="124.811 2.48 160.16 213.267" enable-background="new 124.811 2.48 160.16 213.267"
	 xml:space="preserve">
<g>
	<g id="g5839" transform="matrix(4.124781,0,0,4.124781,196.52828,533.06273)">
		<path id="path5841" fill="#261C02" d="M7.717-89.063v-0.012c0-0.006-0.002-0.014-0.002-0.02c0-0.004,0-0.01-0.001-0.013v-0.021
			v-0.014c-0.002-0.005-0.002-0.013-0.004-0.019v-0.014c-0.002-0.006-0.002-0.014-0.006-0.016c0-0.005-0.001-0.009-0.001-0.014
			v-0.021c0-0.002,0-0.004-0.004-0.009c-0.001-0.01-0.004-0.02-0.008-0.03v-0.005c-0.001-0.005-0.001-0.015-0.005-0.021V-89.3
			c-0.002-0.006-0.006-0.011-0.006-0.016s0-0.009-0.002-0.013c-0.002-0.004-0.002-0.01-0.005-0.015c0-0.003-0.001-0.006-0.001-0.011
			c-0.005-0.004-0.007-0.007-0.007-0.012C7.662-89.37,7.662-89.375,7.66-89.38c-0.001-0.004-0.001-0.007-0.005-0.01
			c-0.001-0.006-0.001-0.01-0.004-0.011c-0.002-0.004-0.005-0.009-0.005-0.016c-0.004-0.001-0.005-0.005-0.005-0.006
			c-0.002-0.008-0.004-0.014-0.01-0.021c0-0.004,0-0.006-0.002-0.009c-0.002-0.001-0.005-0.006-0.006-0.012
			c-0.002-0.002-0.002-0.005-0.004-0.01c-0.002-0.002-0.002-0.004-0.005-0.01c-0.006-0.002-0.006-0.004-0.009-0.008
			c0-0.002-0.004-0.007-0.005-0.01c0-0.001-0.001-0.006-0.005-0.008c-0.002-0.005-0.005-0.005-0.007-0.01
			c0-0.002-0.002-0.005-0.005-0.01c-0.001-0.001-0.004-0.004-0.004-0.006c-0.002-0.004-0.004-0.006-0.009-0.009
			c0-0.001-0.002-0.006-0.005-0.007c-0.01-0.01-0.019-0.02-0.028-0.029c-0.002-0.001-0.002-0.004-0.002-0.004
			c-0.004-0.004-0.007-0.004-0.007-0.009c-0.006,0-0.006-0.004-0.009-0.006c-0.001-0.001-0.002-0.004-0.007-0.006
			c-0.002,0-0.002-0.001-0.005-0.004c-0.001,0-0.004-0.005-0.009-0.006c-0.003,0-0.004-0.001-0.004-0.001l-0.011-0.007v-0.002
			c-0.024-0.014-0.046-0.024-0.065-0.031c-0.004,0-0.004-0.001-0.004-0.001c-0.004,0-0.006-0.001-0.009-0.001H7.401
			c-0.005-0.002-0.011-0.002-0.012-0.004c-0.022-0.002-0.04-0.002-0.061-0.002c-0.004,0-0.01,0.002-0.017,0.002
			c-0.013,0.001-0.025,0.005-0.042,0.009c-0.003,0.002-0.011,0.005-0.018,0.007c-0.016,0.009-0.036,0.018-0.054,0.031
			c-0.001,0.001-0.004,0.003-0.006,0.005c-0.016,0.011-0.03,0.027-0.046,0.045c-0.004,0.005-0.012,0.011-0.019,0.016
			c-0.01,0.018-0.02,0.031-0.031,0.049c-0.002,0.007-0.01,0.015-0.015,0.024c-0.011,0.025-0.022,0.049-0.035,0.079
			c0,0-0.002,0.001-0.002,0.004c0.192-0.026,0.405,0.184,0.416,0.634l0.317,11.835l0.262-0.261l-0.32-11.838V-89.063z"/>
	</g>
	<g id="g5843" transform="matrix(4.124781,0,0,4.124781,161.11332,549.91659)">
		<path id="path5845" fill="#261C02" d="M5.571-98.256v-0.009v-0.02v-0.01v-0.019c-0.002-0.002-0.002-0.008-0.002-0.01v-0.017
			c-0.001-0.001-0.001-0.008-0.001-0.011c-0.001-0.004-0.001-0.009-0.001-0.016c-0.001-0.004-0.001-0.007-0.001-0.009
			c0-0.007-0.002-0.012-0.002-0.019c0-0.004-0.004-0.006-0.004-0.007c-0.002-0.008-0.002-0.016-0.004-0.025
			c-0.002-0.01-0.004-0.016-0.007-0.024c0-0.005-0.001-0.005-0.001-0.008c0-0.005-0.001-0.011-0.004-0.017v-0.006
			c-0.001-0.008-0.004-0.01-0.006-0.018c0,0,0-0.005-0.002-0.007c-0.002-0.004-0.002-0.01-0.005-0.014
			c0-0.001-0.001-0.004-0.001-0.006c-0.004-0.006-0.004-0.013-0.006-0.014C5.52-98.546,5.52-98.546,5.52-98.551
			c-0.002-0.001-0.004-0.01-0.006-0.014c0-0.003-0.002-0.004-0.002-0.004c-0.004-0.006-0.006-0.013-0.006-0.019H5.503
			c-0.003-0.006-0.008-0.014-0.011-0.02c0,0-0.001-0.002-0.001-0.005c-0.004-0.004-0.006-0.007-0.007-0.012
			c-0.001-0.002-0.003-0.002-0.003-0.005c-0.004-0.005-0.006-0.006-0.009-0.012c0-0.002-0.001-0.004-0.001-0.005
			c-0.004-0.002-0.006-0.004-0.006-0.01C5.461-98.66,5.46-98.663,5.46-98.664c-0.004-0.001-0.005-0.004-0.007-0.006
			c-0.004-0.006-0.005-0.006-0.005-0.007c-0.001-0.002-0.005-0.007-0.006-0.009c-0.001,0-0.004-0.004-0.004-0.006
			c-0.004-0.001-0.005-0.006-0.005-0.006c-0.005,0-0.005-0.004-0.006-0.005c-0.005-0.002-0.009-0.006-0.014-0.011
			c0-0.004-0.004-0.005-0.004-0.005c-0.001-0.002-0.006-0.002-0.006-0.006c-0.004-0.002-0.004-0.005-0.006-0.005
			c-0.002,0-0.006-0.004-0.007-0.006c-0.001-0.001-0.004-0.004-0.005-0.004c0-0.001-0.002-0.005-0.008-0.007
			c0,0-0.002-0.001-0.005-0.001c0-0.002-0.005-0.002-0.007-0.002l-0.006-0.006c0,0-0.001-0.001-0.005-0.001l-0.006-0.006H5.341
			c-0.014-0.006-0.029-0.012-0.045-0.017H5.295c0-0.003-0.006-0.003-0.011-0.003H5.281c-0.005,0-0.006-0.001-0.009-0.001
			c-0.021-0.004-0.04,0-0.052,0.001c-0.008,0-0.013,0.003-0.016,0.003C5.191-98.779,5.18-98.776,5.17-98.77
			c-0.007,0-0.016,0.004-0.019,0.009c-0.016,0.005-0.028,0.012-0.041,0.024c-0.002,0.002-0.006,0.006-0.012,0.009
			c-0.013,0.014-0.024,0.026-0.038,0.042c-0.002,0.006-0.01,0.01-0.014,0.019c-0.01,0.011-0.021,0.025-0.026,0.042
			c-0.006,0.006-0.01,0.015-0.014,0.024c-0.01,0.02-0.024,0.046-0.031,0.073c0,0.002,0,0.002-0.002,0.005
			c0.163-0.002,0.337,0.194,0.337,0.559l0.231,8.906l0.261-0.264l-0.231-8.905V-98.256z"/>
	</g>
	<g id="g5847" transform="matrix(4.124781,0,0,4.124781,165.83413,544.65584)">
		<path id="path5849" fill="#261C02" d="M5.857-95.387v-0.011v-0.024v-0.011v-0.024v-0.011c-0.002-0.009-0.002-0.015-0.002-0.022
			c0-0.004,0-0.006-0.002-0.011v-0.024v-0.006C5.851-95.54,5.85-95.553,5.85-95.56c-0.004-0.005-0.004-0.006-0.004-0.009
			c0-0.008-0.001-0.015-0.001-0.024c0-0.002,0-0.007-0.002-0.009c0-0.006-0.001-0.015-0.004-0.019v-0.011
			c-0.001-0.006-0.005-0.013-0.008-0.016c0-0.006,0-0.009,0-0.011c0-0.006-0.001-0.014-0.001-0.02c0,0-0.004-0.004-0.004-0.006
			c-0.005-0.016-0.01-0.035-0.016-0.05v-0.006c-0.001-0.004-0.006-0.012-0.008-0.018c-0.001-0.004-0.001-0.006-0.001-0.009
			c-0.004-0.004-0.004-0.009-0.006-0.011c0-0.006,0-0.009-0.004-0.01c-0.001-0.004-0.002-0.009-0.006-0.014
			c-0.003-0.002-0.004-0.005-0.004-0.007c0-0.005-0.002-0.01-0.005-0.016c-0.002-0.002-0.002-0.004-0.002-0.004
			c-0.003-0.006-0.005-0.014-0.01-0.02v-0.003c-0.006-0.005-0.009-0.009-0.009-0.015C5.753-95.87,5.75-95.87,5.747-95.873
			c0-0.006-0.002-0.008-0.005-0.01c-0.003-0.006-0.003-0.006-0.006-0.009c-0.002-0.001-0.004-0.004-0.005-0.009
			c0-0.002-0.001-0.005-0.004-0.007c-0.002,0-0.006-0.004-0.006-0.006c-0.002-0.001-0.002-0.007-0.007-0.007
			c0-0.002-0.002-0.006-0.006-0.008c-0.002-0.005-0.002-0.006-0.006-0.006c-0.005-0.005-0.007-0.006-0.01-0.009
			c0-0.004-0.003-0.005-0.005-0.011c-0.002,0-0.005-0.001-0.007-0.001c0-0.001-0.004-0.004-0.005-0.007
			c-0.002-0.001-0.002-0.001-0.006-0.005c0,0-0.005-0.004-0.006-0.006c0,0-0.002,0-0.005-0.001
			c-0.006-0.001-0.006-0.001-0.007-0.006c-0.003,0-0.005,0-0.005-0.004c-0.011-0.002-0.021-0.01-0.034-0.013
			c-0.002-0.005-0.007-0.005-0.01-0.007H5.597c-0.006,0-0.006-0.001-0.01-0.001L5.585-96.01c-0.004,0-0.007-0.002-0.014-0.002
			c-0.015-0.002-0.034-0.002-0.05,0c-0.005,0-0.011,0-0.018,0.002c-0.014,0.002-0.028,0.006-0.04,0.014
			c-0.006,0.001-0.01,0.001-0.014,0.005c-0.019,0.009-0.033,0.019-0.049,0.034c-0.005,0.002-0.01,0.01-0.013,0.016
			c-0.016,0.01-0.025,0.02-0.035,0.036c-0.006,0.007-0.01,0.014-0.016,0.02c-0.014,0.021-0.027,0.045-0.039,0.069
			c-0.002,0.009-0.006,0.016-0.006,0.024c-0.009,0.014-0.018,0.028-0.02,0.042c0.168,0.006,0.335,0.232,0.325,0.663l0.249,9.282
			l0.264-0.262L5.857-95.35V-95.387z"/>
	</g>
	<g id="g5851" transform="matrix(4.124781,0,0,4.124781,177.6809,559.40689)">
		<path id="path5853" fill="#261C02" d="M6.575-103.433c-0.985,0-1.949-0.014-2.89-0.049l-0.007,0.27
			c0.86,0.026,1.739,0.044,2.636,0.044c0.924,0,1.841-0.018,2.735-0.047l0.442,14.085l0.265-0.261l-0.443-14.085
			C8.416-103.447,7.504-103.433,6.575-103.433"/>
	</g>
	<g id="g5855" transform="matrix(4.124781,0,0,4.124781,191.53728,537.70311)">
		<path id="path5857" fill="#261C02" d="M7.415-91.594v-0.01v-0.024v-0.011c0-0.008-0.004-0.014-0.004-0.02v-0.014
			c-0.002-0.004-0.002-0.013-0.002-0.019v-0.011c-0.002-0.007-0.002-0.016-0.002-0.021s0-0.008-0.001-0.009
			c0-0.009-0.003-0.021-0.004-0.03v-0.004c-0.006-0.009-0.006-0.016-0.009-0.025v-0.008v-0.018C7.39-91.823,7.39-91.824,7.39-91.829
			c0-0.004-0.002-0.013-0.004-0.018c0-0.001,0-0.004-0.005-0.01v-0.015c0-0.005-0.004-0.006-0.004-0.009
			c-0.004-0.005-0.005-0.014-0.006-0.019c0,0,0-0.005-0.002-0.005c-0.002-0.01-0.002-0.016-0.006-0.024
			c-0.001-0.002-0.001-0.005-0.001-0.005c-0.002-0.005-0.006-0.012-0.007-0.018c0-0.001-0.001-0.005-0.001-0.009
			c-0.002-0.006-0.005-0.009-0.007-0.011c0-0.004-0.002-0.006-0.002-0.01c-0.001-0.005-0.005-0.007-0.006-0.01
			c-0.001-0.002-0.002-0.008-0.002-0.011c0-0.003-0.002-0.008-0.006-0.009c0-0.004-0.002-0.005-0.002-0.01
			c0-0.001-0.004-0.007-0.006-0.011c-0.001-0.002-0.005-0.005-0.009-0.01c0-0.005-0.002-0.008-0.004-0.011
			c-0.001-0.004-0.007-0.009-0.007-0.01c-0.002-0.001-0.002-0.004-0.005-0.004c-0.001-0.005-0.005-0.007-0.008-0.012
			c0-0.002,0-0.002-0.001-0.004c-0.002-0.006-0.002-0.006-0.007-0.011c-0.001,0-0.005,0-0.005-0.002
			c-0.004-0.004-0.004-0.006-0.006-0.009c-0.001-0.002-0.001-0.002-0.004-0.005c-0.018-0.021-0.039-0.036-0.061-0.051
			c-0.006-0.005-0.012-0.007-0.021-0.013c-0.015-0.006-0.031-0.012-0.047-0.014c-0.006-0.001-0.015-0.004-0.02-0.004
			c-0.02-0.001-0.035,0-0.048,0.004c-0.007,0-0.017,0-0.024,0.006c-0.022,0.006-0.042,0.018-0.064,0.035
			c-0.006,0.005-0.011,0.014-0.019,0.019C6.944-92.115,6.93-92.1,6.917-92.083c-0.007,0.009-0.016,0.021-0.024,0.036
			c-0.008,0.015-0.021,0.037-0.03,0.06c-0.005,0.014-0.012,0.026-0.019,0.039c-0.001,0.007-0.001,0.015-0.005,0.015
			c0.156,0.015,0.314,0.23,0.313,0.633l0.379,10.342l0.264-0.265l-0.38-10.339V-91.594z"/>
	</g>
	<g id="g5859" transform="matrix(4.124781,0,0,4.124781,156.23493,634.67177)">
		<path id="path5861" fill="#261C02" d="M5.275-144.489c-3.557-0.051-6.676,0.232-6.676,0.232l-0.264,0.263
			c0,0,3.12-0.281,6.676-0.232c-0.395,4.051,0.011,7.909-0.005,15.194H4.988c0.093,0.004,0.188,0.004,0.283,0.009
			C5.297-136.493,4.875-140.384,5.275-144.489"/>
	</g>
	<g id="g5863" transform="matrix(4.124781,0,0,4.124781,199.13843,560.21617)">
		<path id="path5865" fill="#261C02" d="M7.876-103.875l-0.006,0.228c6.254-0.544,11.013-1.797,12.241-3.239
			c-1.575,1.351-6.241,2.501-12.235,2.996V-103.875z"/>
	</g>
	<g id="g5867" transform="matrix(4.124781,0,0,4.124781,162.43035,662.38122)">
		<path id="path5869" fill="#261C02" d="M5.651-159.604c-0.115,0.124-0.154,0.155-0.262,0.26c-0.865,2.688-1.379,4.824-1.68,6.813
			c0.08-0.015,0.154-0.026,0.229-0.038C4.231-154.621,4.751-156.818,5.651-159.604"/>
	</g>
	<g id="g5871" transform="matrix(4.124781,0,0,4.124781,114.56434,573.43238)">
		<path id="path5873" fill="#261C02" d="M2.75-111.084c-0.012-0.282,0.103-0.554,0.316-0.809c-0.389,0.326-0.594,0.686-0.581,1.07
			c0.063,1.758,5.287,3.375,12.63,3.989l0.313,9.97l0.261-0.261l-0.313-9.969C8.036-107.711,2.81-109.326,2.75-111.084"/>
	</g>
	<g id="g5875" transform="matrix(4.124781,0,0,4.124781,186.29675,607.06337)">
		<path id="path5877" fill="#261C02" d="M7.097-129.429c1.133-0.354,2.555-0.986,3.575-2.076c0.002-0.002,0.005-0.004,0.006-0.007
			c-1.566,1.474-3.85,2.016-4.78,2.183C6.191-129.368,6.616-129.413,7.097-129.429"/>
	</g>
	<g id="g5879" transform="matrix(4.124781,0,0,4.124781,188.95145,623.44164)">
		<path id="path5881" fill="#261C02" d="M7.258-138.363c0.196,1.436-0.228,2.518-0.972,3.329h0.001c0.03-0.03,0.06-0.06,0.089-0.09
			c0.049-0.046,0.098-0.089,0.144-0.139c0.031-0.035,0.06-0.071,0.094-0.106c0.037-0.047,0.077-0.091,0.117-0.139
			c0.029-0.038,0.059-0.075,0.085-0.116c0.039-0.049,0.073-0.096,0.105-0.145c0.026-0.041,0.055-0.083,0.079-0.121
			c0.031-0.054,0.065-0.107,0.096-0.16c0.024-0.042,0.041-0.085,0.066-0.125c0.026-0.059,0.059-0.117,0.081-0.176
			c0.017-0.041,0.036-0.083,0.052-0.123c0.033-0.071,0.054-0.139,0.075-0.209c0.011-0.039,0.022-0.072,0.035-0.112
			c0.035-0.109,0.061-0.219,0.085-0.335v-0.002c0.004-0.014,0.008-0.033,0.009-0.05c0-0.005,0.001-0.008,0.001-0.011
			c0.004-0.016,0.01-0.035,0.012-0.049c0-0.005,0.001-0.013,0.001-0.018c0.001-0.016,0.006-0.03,0.006-0.046
			c0-0.009,0.002-0.013,0.002-0.022c0.004-0.011,0.005-0.027,0.009-0.041c0-0.008,0.002-0.016,0.002-0.021
			c0.001-0.015,0.002-0.031,0.006-0.044c0-0.009,0.001-0.016,0.001-0.024c0-0.015,0.002-0.03,0.004-0.044v-0.025
			c0.002-0.015,0.005-0.027,0.007-0.041c0-0.008,0-0.018,0.002-0.028c0-0.014,0-0.026,0.001-0.042
			c0.005-0.007,0.005-0.015,0.005-0.021v-0.048v-0.006c0.001-0.033,0.004-0.067,0.004-0.1v-0.03v-0.035
			c0-0.014,0.002-0.027,0.002-0.038v-0.033v-0.037c0-0.015-0.002-0.024-0.002-0.036v-0.039v-0.035c0-0.014,0-0.024-0.002-0.037
			c0-0.013,0-0.024-0.001-0.038v-0.04v-0.035c0-0.012-0.005-0.024-0.006-0.037c0-0.014,0-0.025-0.002-0.034
			c0-0.016-0.002-0.031-0.002-0.043c-0.002-0.015-0.005-0.026-0.005-0.034c0-0.016-0.001-0.032-0.001-0.047
			c-0.002-0.009-0.002-0.019-0.004-0.03c0-0.019-0.004-0.033-0.006-0.051c0-0.01,0-0.02-0.002-0.026
			c-0.004-0.026-0.009-0.051-0.011-0.078c-0.244-1.824-3.21-2.634-6.589-2.956c0.01,0.096,0.016,0.195,0.027,0.293
			C4.211-140.949,7.019-140.137,7.258-138.363"/>
	</g>
	<g id="g5883" transform="matrix(4.124781,0,0,4.124781,168.98009,604.65862)">
		<path id="path5885" fill="#261C02" d="M6.048-128.117c0,0.099-0.002,0.194-0.004,0.293c2.362,0.269,5.251,0.934,5.199,2.604
			l-0.084,9.049l0.259-0.009l0.089-9.301C11.555-127.212,8.454-127.87,6.048-128.117"/>
	</g>
	<g id="g5887" transform="matrix(4.124781,0,0,4.124781,199.42427,583.52695)">
		<path id="path5889" fill="#261C02" d="M7.893-116.59l-0.006,0.297c4.734,0.616,8.584,1.307,8.584,2.439
			c0,0.18-0.083,0.374-0.214,0.541c0.002,0,0.005-0.001,0.007-0.001c0.042-0.04,0.085-0.074,0.123-0.11
			c0.008-0.01,0.018-0.019,0.022-0.025c0.035-0.038,0.069-0.07,0.098-0.106c0.002-0.005,0.006-0.007,0.009-0.011
			c0.029-0.037,0.06-0.077,0.085-0.115c0.004-0.009,0.011-0.018,0.016-0.026c0.021-0.042,0.044-0.081,0.06-0.12v-0.004
			c0.002-0.006,0.006-0.014,0.007-0.022c0,0,0.002-0.001,0.002-0.003c0.003-0.009,0.005-0.014,0.008-0.022
			c0.002-0.001,0.002-0.004,0.002-0.006l0.006-0.019c0,0,0-0.004,0.001-0.005c0-0.007,0.004-0.013,0.006-0.019v-0.008
			c0.002-0.007,0.002-0.014,0.005-0.018c0-0.005,0.002-0.007,0.002-0.007c0-0.007,0.004-0.014,0.004-0.018
			c0-0.002,0-0.007,0.001-0.007c0-0.009,0.001-0.013,0.001-0.019c0-0.004,0-0.006,0.005-0.009v-0.016c0-0.002,0-0.007,0.001-0.011
			v-0.014c0-0.005,0.002-0.007,0.002-0.01c0-0.006,0-0.011,0.002-0.018v-0.008v-0.026C16.735-115.268,12.74-115.965,7.893-116.59"/>
	</g>
	<g id="g5891" transform="matrix(4.124781,0,0,4.124781,127.48232,576.34489)">
		<path id="path5893" fill="#261C02" d="M3.533-112.673c1.134-0.845,4.784-1.374,8.445-1.922c-0.004,1.42-0.025,2.964-0.071,4.662
			l0.011,0.359h0.004c0.086,0.009,0.177,0.019,0.27,0.026l-0.021-0.646c0.046-1.7,0.067-3.246,0.071-4.662
			C8.216-114.253,4.201-113.675,3.533-112.673"/>
	</g>
	<g id="g5963" transform="matrix(4.124781,0,0,4.124781,228.60422,575.27327)">
		<path id="path5965" fill="#D31145" stroke="#FFFFFF" stroke-miterlimit="10" d="M9.661-112.088v0.008
			c-0.002,0.006-0.002,0.011-0.002,0.018c0,0.002-0.002,0.005-0.002,0.01v0.014c-0.001,0.004-0.001,0.009-0.001,0.011v0.016
			c-0.005,0.002-0.005,0.005-0.005,0.009c0,0.006-0.001,0.01-0.001,0.019c-0.002,0-0.002,0.005-0.002,0.007
			c0,0.004-0.004,0.01-0.004,0.018c0,0.001-0.002,0.002-0.002,0.008c-0.002,0.004-0.002,0.01-0.005,0.016v0.009
			c-0.001,0.006-0.005,0.011-0.005,0.019c-0.001,0.002-0.001,0.004-0.001,0.004c-0.002,0.009-0.005,0.016-0.006,0.02
			c0,0.002,0,0.005-0.002,0.006c-0.002,0.009-0.005,0.014-0.007,0.022c0,0.001-0.003,0.003-0.003,0.003
			c-0.001,0.009-0.005,0.016-0.007,0.022v0.004c-0.018,0.039-0.039,0.078-0.061,0.12c-0.005,0.009-0.011,0.018-0.015,0.026
			c-0.025,0.038-0.056,0.078-0.085,0.115c-0.002,0.004-0.007,0.006-0.01,0.011c-0.027,0.036-0.061,0.069-0.096,0.106
			c-0.006,0.006-0.015,0.015-0.022,0.025c-0.039,0.036-0.08,0.07-0.123,0.11c-0.002,0-0.005,0.001-0.007,0.001
			c-0.854,0.697-2.8,1.274-5.444,1.675c-0.034,0.004-0.067,0.01-0.103,0.012c-0.079,0.013-0.158,0.024-0.236,0.039
			c-0.056,0.006-0.114,0.014-0.169,0.021c-0.071,0.01-0.139,0.02-0.209,0.027c-0.079,0.013-0.162,0.025-0.247,0.034
			c-0.051,0.008-0.1,0.013-0.148,0.018c-0.132,0.019-0.265,0.033-0.4,0.047c-0.046,0.009-0.092,0.013-0.141,0.019
			c-0.097,0.011-0.196,0.02-0.295,0.033c-0.049,0.006-0.099,0.01-0.154,0.016c-0.099,0.01-0.2,0.019-0.304,0.031
			c-0.045,0.004-0.089,0.009-0.136,0.011c-0.146,0.019-0.299,0.03-0.446,0.041l0.061-5.005l0.006-0.297
			c4.847,0.625,8.842,1.323,8.842,2.475V-112.088z M-3.037-109.057c-0.886,0.028-1.8,0.046-2.734,0.046
			c-0.969,0-1.918-0.019-2.833-0.05l0.036-1.146c-0.004-0.185-0.009-0.369-0.012-0.56c0-0.094-0.001-0.189-0.005-0.284
			c0-0.099,0-0.195-0.002-0.295v-0.295c-0.004-0.103-0.004-0.2-0.004-0.305v-0.271c0.004-0.114,0.004-0.229,0.004-0.348
			c0.002-0.069,0.002-0.141,0.002-0.21c0-0.146,0.004-0.287,0.005-0.432c0-0.038,0-0.078,0.001-0.116
			c0.034-2.248,0.127-4.755,0.168-7.378c0.001-0.099,0.004-0.194,0.004-0.293c2.406,0.248,5.508,0.905,5.459,2.635L-3.037-109.057z
			 M-8.681-129.906c3.378,0.323,6.344,1.133,6.589,2.956c0.002,0.026,0.007,0.051,0.01,0.078c0.002,0.007,0.002,0.018,0.002,0.026
			c0.002,0.019,0.006,0.034,0.006,0.051c0.001,0.011,0.001,0.021,0.004,0.031c0,0.014,0.002,0.03,0.002,0.046
			c0,0.009,0.002,0.019,0.005,0.034c0,0.011,0.003,0.028,0.003,0.043c0.002,0.009,0.002,0.02,0.002,0.035
			c0.001,0.013,0.006,0.024,0.006,0.036v0.035v0.041c0.001,0.012,0.001,0.024,0.001,0.036c0.002,0.015,0.002,0.024,0.002,0.037
			v0.035v0.04c0,0.011,0.002,0.02,0.002,0.035v0.037v0.034c0,0.009-0.002,0.022-0.002,0.036v0.035v0.031
			c0,0.031-0.002,0.066-0.004,0.099v0.007v0.046c0,0.007,0,0.015-0.005,0.021c-0.001,0.016-0.001,0.029-0.001,0.044
			c-0.002,0.009-0.002,0.019-0.002,0.026c-0.003,0.015-0.005,0.027-0.008,0.041v0.026c-0.002,0.012-0.005,0.027-0.005,0.042
			c0,0.007-0.001,0.016-0.001,0.024c-0.004,0.013-0.005,0.029-0.006,0.045c0,0.005-0.002,0.012-0.002,0.02
			c-0.003,0.014-0.004,0.031-0.008,0.041c0,0.01-0.002,0.014-0.002,0.022c0,0.018-0.005,0.03-0.006,0.046
			c0,0.005-0.001,0.012-0.001,0.018c-0.002,0.014-0.009,0.032-0.013,0.049c0,0.004-0.001,0.008-0.001,0.013
			c-0.001,0.016-0.005,0.035-0.01,0.05v0.003c-0.022,0.115-0.049,0.225-0.084,0.334c-0.013,0.04-0.025,0.074-0.035,0.112
			c-0.021,0.071-0.044,0.138-0.075,0.209c-0.018,0.04-0.035,0.081-0.052,0.124c-0.024,0.059-0.055,0.116-0.081,0.175
			c-0.025,0.04-0.044,0.084-0.066,0.125c-0.033,0.053-0.065,0.106-0.096,0.16c-0.024,0.039-0.053,0.08-0.079,0.121
			c-0.032,0.05-0.067,0.098-0.105,0.146c-0.026,0.04-0.058,0.077-0.085,0.115c-0.04,0.049-0.081,0.092-0.117,0.139
			c-0.034,0.035-0.064,0.071-0.094,0.107c-0.046,0.049-0.095,0.091-0.144,0.138c-0.03,0.03-0.059,0.06-0.09,0.09h-0.001
			c-0.08,0.078-0.163,0.149-0.252,0.217c-0.009,0.01-0.016,0.018-0.028,0.025c-0.077,0.06-0.15,0.115-0.23,0.172
			c-0.016,0.011-0.03,0.021-0.045,0.031c-0.075,0.056-0.155,0.107-0.234,0.157c-0.016,0.009-0.03,0.016-0.042,0.026
			c-0.091,0.055-0.185,0.113-0.281,0.164l-0.001,0.001c-0.2,0.111-0.407,0.215-0.619,0.308c-0.012,0.005-0.022,0.01-0.032,0.016
			c-0.093,0.039-0.185,0.076-0.276,0.116c-0.022,0.007-0.047,0.014-0.066,0.025c-0.085,0.033-0.17,0.062-0.255,0.095
			c-0.024,0.007-0.046,0.017-0.071,0.026c-0.086,0.031-0.175,0.06-0.266,0.086c-0.015,0.009-0.035,0.015-0.057,0.022
			c-0.216,0.067-0.439,0.131-0.658,0.19c-0.005,0-0.012,0-0.015,0.002c-0.1,0.027-0.204,0.051-0.304,0.075
			c-0.024,0.006-0.051,0.012-0.079,0.018c-0.079,0.017-0.16,0.039-0.239,0.055c-0.031,0.006-0.063,0.01-0.095,0.018
			c-0.075,0.015-0.151,0.029-0.225,0.046c-0.03,0.002-0.063,0.01-0.094,0.017c-0.079,0.014-0.152,0.026-0.229,0.041
			c-0.027,0.002-0.055,0.007-0.083,0.011c-0.098,0.016-0.201,0.033-0.299,0.047c0.029-2.706-0.015-5.514-0.25-8.267
			C-8.665-129.71-8.671-129.809-8.681-129.906 M-12.325-109.288c-0.092-0.008-0.182-0.016-0.27-0.025h-0.004
			c-3.004-0.287-5.431-0.764-6.906-1.375c-0.001-0.002-0.005-0.002-0.005-0.002c-0.074-0.031-0.149-0.064-0.218-0.094
			c-0.006-0.004-0.014-0.006-0.019-0.011c-0.066-0.029-0.13-0.059-0.191-0.09c-0.009-0.004-0.015-0.008-0.026-0.013
			c-0.056-0.029-0.111-0.058-0.164-0.087c-0.014-0.004-0.025-0.015-0.037-0.022c-0.044-0.024-0.093-0.054-0.138-0.083
			c-0.011-0.006-0.027-0.015-0.04-0.027c-0.042-0.023-0.081-0.051-0.12-0.078c-0.016-0.01-0.029-0.021-0.044-0.033
			c-0.034-0.024-0.067-0.05-0.098-0.076c-0.016-0.011-0.03-0.025-0.045-0.038c-0.027-0.022-0.055-0.047-0.08-0.071
			c-0.015-0.015-0.026-0.029-0.044-0.044c-0.019-0.024-0.042-0.046-0.061-0.069c-0.016-0.015-0.026-0.034-0.041-0.052
			c-0.016-0.019-0.034-0.04-0.049-0.06c-0.014-0.02-0.022-0.041-0.034-0.059c-0.011-0.02-0.024-0.039-0.035-0.059
			c-0.012-0.02-0.02-0.044-0.029-0.065c-0.007-0.019-0.016-0.035-0.021-0.052c-0.006-0.025-0.011-0.053-0.021-0.076
			c-0.001-0.013-0.005-0.029-0.007-0.044c-0.009-0.039-0.011-0.08-0.011-0.121c0-0.031,0.002-0.062,0.011-0.095
			c0.002-0.012,0.006-0.025,0.007-0.037c0.006-0.016,0.011-0.03,0.019-0.046c0.015-0.04,0.036-0.081,0.06-0.116l0.001-0.004
			c0.67-1.003,4.684-1.579,8.709-2.184c-0.004,1.416-0.024,2.963-0.07,4.664L-12.325-109.288z M0.819-114.628l0.051-4.601
			c-0.002-0.081-0.005-0.157-0.011-0.234c-0.004-0.022-0.004-0.046-0.009-0.069c-0.005-0.055-0.013-0.106-0.02-0.158
			c-0.005-0.022-0.009-0.046-0.011-0.067c-0.018-0.056-0.026-0.11-0.041-0.164c-0.004-0.012-0.006-0.027-0.013-0.041
			c-0.019-0.064-0.039-0.126-0.067-0.188c-0.005-0.014-0.009-0.025-0.013-0.036c-0.022-0.049-0.046-0.097-0.069-0.142
			c-0.011-0.015-0.021-0.031-0.027-0.046c-0.024-0.044-0.051-0.083-0.078-0.124c-0.006-0.013-0.018-0.026-0.025-0.039
			c-0.074-0.103-0.154-0.2-0.246-0.285c-0.005-0.01-0.018-0.02-0.031-0.033c-0.035-0.03-0.07-0.063-0.106-0.091
			c-0.014-0.011-0.03-0.022-0.042-0.034c-0.04-0.03-0.083-0.061-0.122-0.091c-0.011-0.005-0.019-0.009-0.029-0.018
			c-0.051-0.034-0.105-0.067-0.159-0.096c-0.015-0.01-0.025-0.016-0.04-0.024c-0.041-0.022-0.081-0.045-0.127-0.065
			c-0.021-0.011-0.042-0.019-0.061-0.03c-0.039-0.018-0.074-0.032-0.117-0.049c-0.021-0.009-0.039-0.019-0.066-0.029
			c-0.042-0.016-0.091-0.031-0.136-0.05c-0.034-0.011-0.07-0.022-0.106-0.032c-0.036-0.015-0.072-0.025-0.105-0.035
			c-0.036-0.009-0.073-0.019-0.109-0.027c-0.024-0.008-0.046-0.014-0.074-0.018c-0.041-0.011-0.08-0.024-0.123-0.031
			c-0.015-0.004-0.026-0.006-0.039-0.007c-0.605-0.128-1.246-0.154-1.806-0.14c-0.481,0.016-0.905,0.061-1.199,0.099
			c0.93-0.166,3.214-0.709,4.78-2.183c0.06-0.056,0.116-0.112,0.174-0.171c0.004-0.003,0.006-0.005,0.007-0.006
			c0.169-0.174,0.325-0.357,0.47-0.552c0.014-0.018,0.025-0.036,0.04-0.055c0.036-0.054,0.075-0.111,0.113-0.166
			c0.019-0.028,0.034-0.055,0.052-0.081c0.035-0.054,0.066-0.114,0.104-0.167c0.015-0.031,0.03-0.06,0.046-0.09
			c0.053-0.094,0.099-0.191,0.143-0.291c0.022-0.045,0.044-0.089,0.064-0.136c0.021-0.053,0.04-0.1,0.059-0.15
			c0.018-0.051,0.038-0.106,0.055-0.157c0.016-0.046,0.032-0.094,0.049-0.145c0.019-0.061,0.034-0.129,0.051-0.191
			c0.013-0.043,0.024-0.085,0.033-0.128c0.024-0.105,0.045-0.21,0.064-0.322c0.005-0.038,0.008-0.076,0.014-0.114
			c0.014-0.079,0.022-0.16,0.027-0.24c0.002-0.045,0.007-0.093,0.01-0.139c0.005-0.081,0.01-0.164,0.01-0.251
			c0.002-0.041,0.004-0.081,0.004-0.126c-0.001-0.129-0.004-0.255-0.014-0.388c-0.214-3.117-4.11-4.671-10.575-4.049
			c-0.109,0.011-0.214,0.025-0.32,0.034c-0.306-2.305-0.775-4.537-1.493-6.596c-0.9,2.785-1.42,4.983-1.714,7.035
			c-0.075,0.011-0.149,0.022-0.229,0.038c-3.883,0.666-6.611,1.556-6.611,1.556s3.119-0.282,6.676-0.231
			c-0.4,4.105,0.021,7.996-0.005,15.465c-0.095-0.005-0.19-0.005-0.283-0.009c-0.009,0-0.017-0.001-0.024-0.001
			c-1.057-0.031-2.09-0.02-3.079,0.019h-0.01c-2.175,0.096-4.143,0.356-5.691,0.745h-0.009c-1.55,0.391-2.691,0.913-3.212,1.53
			c-0.213,0.255-0.328,0.527-0.315,0.809c0.059,1.759,5.286,3.374,12.625,3.991l0.313,9.968l0.516-6.761
			c0-0.041,0.002-0.076,0.007-0.11c0.009-0.091,0.026-0.165,0.046-0.228c0.002-0.002,0.002-0.002,0.002-0.005
			c0.007-0.027,0.021-0.053,0.031-0.074c0.002-0.009,0.006-0.018,0.013-0.022c0.006-0.018,0.017-0.033,0.027-0.044
			c0.004-0.007,0.011-0.011,0.014-0.017c0.013-0.018,0.025-0.03,0.038-0.043c0.006-0.002,0.01-0.006,0.012-0.009
			c0.013-0.011,0.025-0.02,0.041-0.025c0.002-0.005,0.011-0.009,0.018-0.009c0.01-0.006,0.022-0.009,0.035-0.013
			c0.004,0,0.009-0.002,0.015-0.002c0.014-0.001,0.033-0.005,0.053-0.001c0.002,0,0.004,0.001,0.009,0.001h0.002
			c0.006,0,0.012,0,0.012,0.002h0.001c0.016,0.004,0.03,0.01,0.045,0.016h0.005l0.006,0.006c0.004,0,0.005,0.001,0.005,0.001
			l0.006,0.006c0.002,0,0.007,0,0.007,0.004c0.001,0,0.004,0.001,0.004,0.001c0.005,0.002,0.007,0.006,0.007,0.007
			c0.001,0,0.004,0.002,0.005,0.004c0.002,0.003,0.006,0.006,0.009,0.006c0.002,0,0.002,0.002,0.006,0.004
			c0,0.004,0.005,0.004,0.006,0.006c0,0,0.004,0.001,0.004,0.005c0.005,0.005,0.009,0.009,0.012,0.011
			c0.001,0.001,0.001,0.005,0.006,0.005c0,0,0.001,0.006,0.005,0.008c0,0.002,0.002,0.006,0.005,0.006
			c0.001,0.001,0.005,0.006,0.006,0.009c0,0.001,0.001,0.001,0.005,0.006c0.002,0.002,0.004,0.005,0.007,0.006
			c0,0.001,0.001,0.004,0.005,0.006c0,0.006,0.002,0.007,0.006,0.01c0,0.002,0.001,0.004,0.001,0.006
			c0.002,0.006,0.004,0.007,0.007,0.013c0,0.002,0.001,0.002,0.002,0.005c0.001,0.004,0.004,0.007,0.008,0.011
			c0,0.002,0.002,0.005,0.002,0.005c0.004,0.006,0.009,0.015,0.011,0.021h0.001c0,0.006,0.002,0.012,0.006,0.018
			c0,0,0.002,0.001,0.002,0.004c0.002,0.004,0.004,0.013,0.006,0.014c0,0.005,0,0.005,0.001,0.01
			c0.002,0.001,0.002,0.007,0.006,0.014c0,0.002,0.001,0.005,0.001,0.006c0.001,0.004,0.001,0.009,0.004,0.012
			c0.002,0.003,0.002,0.008,0.002,0.008c0.002,0.007,0.005,0.011,0.006,0.019v0.006c0.003,0.006,0.005,0.011,0.005,0.016
			c0,0.002,0.001,0.002,0.001,0.008c0.004,0.007,0.005,0.014,0.008,0.025c0.001,0.009,0.001,0.016,0.004,0.024
			c0,0.001,0.004,0.004,0.004,0.008c0,0.006,0.002,0.012,0.002,0.02c0,0.001,0,0.005,0.001,0.009c0,0.006,0,0.011,0.001,0.015
			c0,0.004,0,0.01,0.001,0.011v0.019c0,0.002,0,0.007,0.002,0.01v0.018v0.01v0.021v0.007v0.03l0.23,8.905l0.547-7.246
			c-0.001-0.051,0.004-0.096,0.006-0.143c0.007-0.13,0.032-0.23,0.061-0.315c0.002-0.015,0.011-0.03,0.02-0.042
			c0-0.007,0.004-0.015,0.006-0.024c0.011-0.024,0.025-0.047,0.039-0.07c0.006-0.006,0.01-0.011,0.016-0.019
			c0.011-0.016,0.02-0.026,0.035-0.036c0.002-0.006,0.007-0.014,0.013-0.016c0.018-0.015,0.03-0.025,0.049-0.035
			c0.004-0.002,0.007-0.002,0.014-0.004c0.014-0.007,0.026-0.011,0.04-0.014c0.006-0.002,0.012-0.002,0.019-0.002
			c0.015-0.002,0.034-0.002,0.05,0c0.006,0,0.01,0.002,0.013,0.002l0.002,0.002c0.004,0,0.004,0.001,0.01,0.001h0.002
			c0.002,0.002,0.007,0.002,0.01,0.007c0.014,0.002,0.024,0.009,0.034,0.011c0,0.005,0.002,0.005,0.005,0.005
			c0.001,0.005,0.001,0.005,0.008,0.006c0.002,0.001,0.005,0.001,0.005,0.001c0.001,0.002,0.006,0.005,0.006,0.005
			c0.004,0.005,0.004,0.005,0.006,0.006c0.002,0.004,0.006,0.006,0.006,0.007c0.003,0,0.005,0.001,0.008,0.001
			c0.001,0.006,0.004,0.007,0.004,0.011c0.002,0.002,0.005,0.002,0.01,0.007c0.004,0,0.004,0.001,0.006,0.007
			c0.004,0.001,0.006,0.005,0.006,0.008c0.005,0,0.005,0.006,0.007,0.007c0,0.002,0.004,0.006,0.007,0.006
			c0.002,0.002,0.004,0.005,0.004,0.007c0.001,0.005,0.002,0.008,0.005,0.009c0.002,0.002,0.002,0.002,0.005,0.007
			c0.003,0.004,0.005,0.005,0.005,0.011c0.002,0.002,0.006,0.002,0.007,0.005c0,0.006,0.002,0.01,0.009,0.015v0.003
			c0.005,0.006,0.007,0.014,0.01,0.019c0,0,0,0.002,0.003,0.005c0.002,0.006,0.006,0.011,0.006,0.016
			c0,0.002,0.001,0.005,0.004,0.007c0.004,0.005,0.005,0.01,0.005,0.014c0.004,0.001,0.004,0.004,0.004,0.009
			c0.002,0.004,0.002,0.009,0.006,0.013c0,0.002,0,0.005,0.001,0.009c0.001,0.005,0.006,0.014,0.008,0.018v0.006
			c0.006,0.015,0.011,0.034,0.016,0.05c0,0.002,0.004,0.005,0.004,0.005c0,0.006,0.001,0.015,0.001,0.021
			c0.001,0.002,0.001,0.005,0.001,0.011c0.002,0.004,0.006,0.01,0.007,0.016v0.011c0.002,0.004,0.004,0.012,0.004,0.019
			c0.001,0.001,0.001,0.006,0.001,0.009c0,0.009,0.001,0.016,0.001,0.024c0,0.002,0,0.004,0.004,0.009
			c0,0.007,0.001,0.02,0.002,0.029v0.006v0.024c0.002,0.005,0.002,0.007,0.002,0.011c0,0.007,0,0.014,0.002,0.021v0.013v0.024v0.011
			v0.024v0.011v0.036l0.252,9.282l0.44-13.569l0.009-0.269c0.941,0.035,1.904,0.049,2.889,0.049c0.929,0,1.841-0.014,2.74-0.044
			l0.441,14.085l0.379-7.371c0-0.05,0.001-0.094,0.006-0.135c0.007-0.12,0.032-0.215,0.059-0.296
			c0.004-0.001,0.004-0.009,0.005-0.016c0.005-0.013,0.013-0.024,0.018-0.039c0.01-0.022,0.024-0.044,0.031-0.06
			c0.007-0.015,0.015-0.026,0.022-0.035c0.014-0.019,0.027-0.034,0.041-0.045c0.007-0.005,0.012-0.015,0.02-0.02
			c0.021-0.018,0.04-0.028,0.064-0.034c0.006-0.006,0.016-0.006,0.022-0.006c0.014-0.004,0.029-0.005,0.047-0.004
			c0.005,0,0.014,0.002,0.021,0.004c0.016,0.001,0.031,0.007,0.047,0.014c0.009,0.004,0.015,0.006,0.021,0.011
			c0.021,0.015,0.044,0.031,0.061,0.051c0.002,0.002,0.002,0.002,0.004,0.005c0.001,0.002,0.001,0.005,0.005,0.009
			c0,0.002,0.004,0.002,0.005,0.002c0.005,0.005,0.005,0.006,0.008,0.013c0.002,0.001,0.002,0.001,0.002,0.004
			c0.002,0.005,0.006,0.008,0.007,0.011c0.002,0,0.002,0.003,0.005,0.004c0,0.001,0.006,0.006,0.008,0.01
			c0.001,0.004,0.004,0.006,0.004,0.011c0.004,0.005,0.008,0.009,0.009,0.011c0.001,0.004,0.005,0.01,0.005,0.011
			c0,0.004,0.003,0.005,0.003,0.009c0.004,0.001,0.006,0.006,0.006,0.009c0,0.004,0.001,0.009,0.004,0.011
			c0.001,0.003,0.005,0.006,0.006,0.011c0,0.004,0.002,0.006,0.002,0.01c0.002,0.002,0.005,0.005,0.007,0.01
			c0,0.004,0.001,0.008,0.001,0.009c0.001,0.005,0.005,0.013,0.007,0.018c0,0.001,0,0.004,0.001,0.006
			c0.004,0.007,0.004,0.014,0.006,0.022c0.002,0,0.002,0.005,0.002,0.005c0,0.005,0.001,0.014,0.005,0.02
			c0,0.003,0.004,0.004,0.004,0.009v0.014c0.005,0.006,0.005,0.009,0.005,0.01c0.001,0.005,0.005,0.014,0.005,0.019
			c0,0.005,0,0.006,0.002,0.013v0.016v0.008c0.002,0.009,0.002,0.017,0.009,0.026v0.004c0.001,0.007,0.004,0.02,0.004,0.029
			c0.001,0.001,0.001,0.004,0.001,0.009c0,0.006,0,0.015,0.003,0.021v0.011c0,0.006,0,0.015,0.002,0.02v0.014
			c0,0.006,0.004,0.011,0.004,0.019v0.011v0.025v0.009v0.034l0.379,10.338l0.389-8.929c0.001-0.044,0.005-0.084,0.009-0.121
			c0.014-0.1,0.035-0.184,0.063-0.254c0.011-0.03,0.024-0.054,0.035-0.079c0.005-0.007,0.013-0.015,0.015-0.022
			c0.01-0.019,0.02-0.032,0.031-0.049c0.006-0.005,0.015-0.012,0.019-0.017c0.015-0.018,0.03-0.033,0.046-0.045
			c0.002-0.002,0.005-0.004,0.006-0.005c0.016-0.014,0.038-0.021,0.054-0.03c0.005-0.002,0.014-0.005,0.016-0.007
			c0.019-0.005,0.031-0.009,0.042-0.01c0.008,0,0.014-0.002,0.019-0.002c0.021,0,0.037,0,0.061,0.002
			c0.001,0.001,0.007,0.001,0.013,0.004h0.004c0.002,0,0.005,0.001,0.008,0.001c0,0,0,0.002,0.004,0.002
			c0.02,0.008,0.042,0.018,0.066,0.03v0.002l0.011,0.007c0,0,0.001,0.001,0.004,0.001c0.005,0.001,0.007,0.006,0.009,0.006
			c0.002,0.004,0.002,0.005,0.005,0.005c0.004,0.002,0.005,0.005,0.006,0.006c0.002,0.002,0.002,0.006,0.009,0.006
			c0,0.005,0.004,0.005,0.007,0.007c0.001,0,0.001,0.002,0.004,0.004c0.009,0.009,0.017,0.019,0.027,0.03
			c0.002,0.001,0.004,0.006,0.004,0.007c0.005,0.002,0.006,0.005,0.009,0.009c0,0.001,0.002,0.004,0.004,0.005
			c0.002,0.005,0.006,0.007,0.006,0.01c0.002,0.005,0.005,0.005,0.007,0.01c0.004,0.001,0.005,0.008,0.005,0.009
			c0.001,0.003,0.005,0.008,0.005,0.01c0.002,0.004,0.002,0.005,0.009,0.007c0.002,0.005,0.002,0.006,0.005,0.009
			c0.001,0.005,0.001,0.007,0.002,0.01c0.001,0.006,0.004,0.011,0.006,0.014c0.002,0.002,0.002,0.005,0.002,0.009
			c0.006,0.007,0.009,0.012,0.011,0.02c0,0.001,0.001,0.005,0.005,0.006c0,0.008,0.002,0.013,0.005,0.016
			c0.002,0.002,0.002,0.006,0.004,0.012c0.004,0.002,0.004,0.006,0.005,0.009c0.002,0.005,0.002,0.01,0.004,0.013
			c0,0.005,0.002,0.009,0.008,0.012c0,0.005,0,0.01,0,0.013c0.002,0.005,0.002,0.011,0.005,0.015
			c0.002,0.002,0.002,0.006,0.002,0.011s0.004,0.01,0.006,0.016v0.01c0.004,0.006,0.004,0.015,0.006,0.02v0.005
			c0.004,0.01,0.006,0.021,0.007,0.031c0.004,0.005,0.004,0.006,0.004,0.009v0.02c0,0.005,0.001,0.009,0.001,0.015
			c0.004,0.002,0.004,0.01,0.006,0.016v0.012c0.001,0.006,0.001,0.014,0.004,0.019v0.015v0.02c0.001,0.002,0.001,0.009,0.001,0.013
			c0,0.007,0.002,0.015,0.002,0.021v0.011v0.036L0.26-87.424l0.466-19.874l0.005-0.228v-0.014
			c5.994-0.496,10.661-1.646,12.236-2.997c0.036-0.029,0.069-0.061,0.101-0.093c0.015-0.016,0.034-0.029,0.049-0.044
			c0.028-0.033,0.056-0.06,0.084-0.09c0.012-0.018,0.029-0.034,0.041-0.051c0.025-0.03,0.048-0.058,0.071-0.085
			c0.024-0.037,0.049-0.072,0.07-0.111c0.015-0.028,0.029-0.054,0.045-0.08c0.014-0.027,0.027-0.056,0.04-0.087
			c0.011-0.02,0.015-0.039,0.022-0.058c0.011-0.034,0.021-0.067,0.026-0.098c0.008-0.016,0.01-0.035,0.013-0.051
			c0.01-0.049,0.014-0.098,0.014-0.146C13.455-113.461,7.652-114.951,0.819-114.628"/>
	</g>
</g>
</svg>
