<?xml version="1.0" encoding="utf-8"?>
<!-- Generator: Adobe Illustrator 16.0.4, SVG Export Plug-In . SVG Version: 6.00 Build 0)  -->
<!DOCTYPE svg PUBLIC "-//W3C//DTD SVG 1.1//EN" "http://www.w3.org/Graphics/SVG/1.1/DTD/svg11.dtd">
<svg version="1.1"
	 id="Layer_1" xmlns:sodipodi="http://sodipodi.sourceforge.net/DTD/sodipodi-0.dtd" xmlns:svg="http://www.w3.org/2000/svg" xmlns:dc="http://purl.org/dc/elements/1.1/" xmlns:cc="http://creativecommons.org/ns#" xmlns:rdf="http://www.w3.org/1999/02/22-rdf-syntax-ns#" xmlns:inkscape="http://www.inkscape.org/namespaces/inkscape" inkscape:version="0.48.1 " sodipodi:docname="LosAngeles_Lakers_logo.svg"
	 xmlns="http://www.w3.org/2000/svg" xmlns:xlink="http://www.w3.org/1999/xlink" x="0px" y="0px" viewBox="16.1 216.177 580 360.384" enable-background="new 16.1 216.177 580 360.384" xml:space="preserve">
<sodipodi:namedview  guidetolerance="10" showgrid="false" inkscape:zoom="1.455" inkscape:cy="100" bordercolor="#666666" pagecolor="#ffffff" inkscape:cx="150" objecttolerance="10" gridtolerance="10" borderopacity="1" id="namedview3117" inkscape:window-maximized="1" inkscape:current-layer="Layer_1" inkscape:window-y="-8" inkscape:window-x="-8" inkscape:pageopacity="0" inkscape:window-width="1366" inkscape:pageshadow="2" inkscape:window-height="706">
	</sodipodi:namedview>
<g>
	<path id="path3055" inkscape:connector-curvature="0" fill="#FDB827" d="M289.929,572.316c95.761,0,173.389-78.797,173.389-176.006
		c0-97.193-77.628-176-173.389-176c-95.739,0-173.366,78.805-173.366,176C116.562,493.518,194.189,572.316,289.929,572.316"/>
	<path id="path3057" inkscape:connector-curvature="0" fill="#552582" d="M368.965,414.319
		c-16.192,19.649-25.379,26.375-41.829,26.375c-5.6,0-8.516-1.261-6.941-3.972l19.509-39.24h7.44c8.311,0,7.16,7.002,4.898,16.477
		c-0.398,1.325,0.604,1.398,1.591,0.25l18.55-32.6c0.907-2.058-1.437-2.456-2.579-0.903c-9.29,12.613-19.072,11.676-23.192,11.676
		h-3.365l20.849-39.771h8.398c10.577,0.655,15.506,9.64,12.444,31.299h4.403l15.316-30.199c1.239-2.549-1.369-4.889-4.258-4.889
		l-103.982,0.029c-6.02,0-6.292,4.623-0.513,4.623c4.674,0,4.428,6.708,0.225,9.954l-44.14,35.05l8.918,41.382
		c0.649,3.123,2.664,4.61,6.11,4.61h85.98c3.546,0,5.01-1.442,6.152-2.918l15.566-26.89
		C376.673,410.792,371.676,411.043,368.965,414.319 M309.072,395.424l-7.57-0.043c-0.523,0-0.955,0.417-0.955,0.949
		c0,0.526,0.432,0.957,0.955,0.957l7.673-0.073c2.6,0,4.979,0.332,4.316,1.483l-19.884,37.967c-2.464,4.523-7.694,3.367-8.523-0.251
		l-9.847-50.881l34.628-26.848c3.433-2.954,10.058-7.77,13.439-7.716l7.543-0.043c4.589-0.03,6.232,2.121,5.142,4.903l-1.334,2.567
		c-0.864,1.44-3.575,1.614-5.885,1.614l-4.354,0.022c-0.537,0-0.965,0.422-0.965,0.965c0,0.537,0.428,0.957,0.965,0.957h4.295
		c1.856,0,4.185,0.047,3.33,1.44l-16.06,30.621C315.238,395.208,311.902,395.424,309.072,395.424"/>
	
		<path id="path3059" inkscape:connector-curvature="0" fill="#552582" stroke="#FFFFFF" stroke-width="2" stroke-miterlimit="10" d="
		M237.696,439.849c-2.34-0.081-3.841-1.674-4.354-3.221c-0.74-2.209-0.671-6.136,0.217-7.874l40.121-71.138
		c0.649-1.316,2.277-4.059,4.27-4.059c3.543,0.006,5.075-4.656-0.929-4.656h-32.132c-6.004,0-6.063,4.571-0.31,4.571
		c2.346,0,3.281,2.303,2.612,3.706l-8.871,16.089c-1.111,1.764-3.569,1.9-6.16,1.9l-7.653-0.03c-0.531,0-0.957,0.438-0.957,0.965
		c0,0.531,0.426,0.977,0.957,0.977h7.588c2.052,0,3.688,0.62,2.506,3.001l-29.611,53.942c-2.133,2.969-6.38,3.632-6.14-2.057
		l10.53-78.998c0.416-2.468-0.233-4.141-2.873-4.141l-15.873,0.029c-1.9,0-3.068,0.921-3.981,2.151l-5.672,7.134
		c-0.748,0.74-2.34,0.734-4.104,0.734l-13.337-0.022c-0.531,0-0.957,0.428-0.957,0.957c0,0.541,0.426,0.973,0.957,0.973h10.885
		c1.932,0,4.188,0.446,3.37,1.355l-15.274,19.217c-0.46,0.527-1.938,0.671-2.851,0.671l-4.313-0.006
		c-0.539,0-0.969,0.43-0.969,0.957s0.43,0.957,0.969,0.957l3.599,0.014c1.117,0,1.125,0.544,0.679,1.049l-14.365,18.041
		c-0.738,0.694-2.17,0.841-3.565,0.841l-12.682-0.014c-0.519,0-0.949,0.426-0.949,0.965c0,0.522,0.43,0.957,0.949,0.957h10.881
		c1.653,0,2.928,0.294,2.058,1.406l-20.411,25.602c-3.835,4.885-22.309,7.373-25.907,7.373l69.021-129.144
		c0.657-1.483,3.226-3.75,5.868-3.75h14.657c6.917,0,6.714-4.601,0.71-4.601h-73.682c-5.998,0-6.24,4.601,0.663,4.601h13.647
		c3.871,0,5.116,2.34,4.125,4.256l-1.959,3.553c-0.641,1.152-1.562,1.614-5.303,1.614l-24.11-0.014
		c-0.531,0-0.957,0.422-0.957,0.957c0,0.531,0.428,0.961,0.957,0.961l24.049,0.008c1.304,0,3.259,0.339,2.03,2.685l-3.381,6.258
		c-0.57,0.951-2.044,1.403-3.743,1.403l-10.922-0.022c-0.541,0-0.965,0.438-0.965,0.957c0,0.544,0.422,0.969,0.965,0.969
		l10.871,0.014c1.555,0,1.598,1.016,0.697,2.457l-7.766,14.433c-0.663,1.231-1.924,1.397-4.39,1.397l-4.351-0.022
		c-0.537,0-0.968,0.428-0.968,0.965c0,0.527,0.432,0.957,0.968,0.957l4.292,0.008c1.636,0,2.068,0.914,1.333,2.474l-6.373,11.85
		c-0.951,1.683-2.302,2.354-6.542,2.354l-24.108-0.022c-0.539,0-0.965,0.438-0.965,0.965c0,0.531,0.426,0.965,0.965,0.965
		l24.043,0.006c2.715,0.042,3.717,1.231,2.656,3.179L85.222,396.22c-0.736,1.036-2.766,1.193-6.229,1.193l-24.106-0.029
		c-0.535,0-0.957,0.438-0.957,0.973c0,0.526,0.424,0.949,0.957,0.949l24.049,0.008c2.877,0,4.635,0.122,3.757,1.638l-7.156,13.489
		c-1.322,2.056-5.017,2.056-6.458,2.056l-7.649-0.021c-0.527,0-0.957,0.426-0.957,0.965c0,0.53,0.43,0.956,0.957,0.956l7.581,0.007
		c2.685,0,4.096,0.463,3.396,1.901l-9.581,18.006c-0.862,1.604-4.607,1.681-7.491,1.681l-37.268-0.031
		c-0.519,0-0.965,0.436-0.965,0.973c0,0.517,0.446,0.957,0.965,0.957l37.215,0.008c2.468,0,5.582,0.302,4.421,2.274l-6.097,11.493
		c-0.578,0.948-2.664,1.029-5.672,1.029l-7.639-0.014c-0.537,0-0.969,0.428-0.969,0.957c0,0.537,0.432,0.957,0.969,0.957h7.588
		c1.841,0,4.104,0.213,3.311,1.62l-3.824,7.337C46.137,469.38,44.908,471,41.95,471h-18.7c-6.917,0-6.674,4.604-0.671,4.604
		l109.818,0.065c3.212,0,3.313-0.429,4.826-2.8l16.289-28.394l83.24,0.008C242.765,444.496,241.218,439.965,237.696,439.849
		 M172.4,431.392c-0.815,4.685-5.528,7.778-11.459,9.356l-6.11,1.518l5.023-9.047c1.322-2.46-1.577-3.91-4.737-0.25
		c-21.251,24.769-28.038,36.614-60.819,36.703l-8.812,0.016c-2.664,0-5.589-1.04-3.78-3.587l11.595-21.608l44.055,0.009
		c6.012,0,4.469-4.532,0.937-4.648c-2.332-0.081-4.881-1.415-6.683-4.266c-0.509-0.787-1.604-3.927,0.11-6.344l16.871-22.425h28.046
		L172.4,431.392L172.4,431.392z M178.745,403.042h-27.354l34.606-45.645L178.745,403.042L178.745,403.042z"/>
	
		<path id="path3061" inkscape:connector-curvature="0" fill="#552582" stroke="#FFFFFF" stroke-width="2" stroke-miterlimit="10" d="
		M595.025,417.157c-0.449-2.256-1.261-0.882-2.748,1.959c-0.456,0.856-1.9,0.884-3.345,0.884l-4.392,0.016
		c-0.536,0-0.971,0.429-0.971,0.973c0,0.516,0.435,0.943,0.971,0.943h4.333c1.634,0,1.671,1.099,0.897,2.748
		c-3.034,6.454-6.151,10.778-10.299,15.966c-0.649,0.811-2.314,1.519-3.633,1.519l-4.427,0.03c-0.533,0-0.957,0.428-0.957,0.965
		c0,0.522,0.426,0.957,0.957,0.957h4.33c2.181,0-0.029,1.333-0.398,1.826c-7.677,10.248-12.972,14.823-18.608,19.413
		c-0.663,0.532-3.846,0.339-6.077,0.325l-4.362,0.014c-0.523,0-0.957,0.437-0.957,0.98c0,0.523,0.437,0.965,0.957,0.965h4.311
		c3.285,0,0.81,1.886,0.324,2.291c-11.979,9.976-29.794,13.18-37.955,12.163c-26.469-3.316-31.931-23.413-33.89-31.445
		c-0.396-1.679-1.673-5.128-2.093-7.249c-0.817-4.198,11.125-5.392,14.426-3.183c4.994,3.345,16.664,6.779,25.845,6.807
		c8.487,0.032,25.865-6.136,30.891-20.716c5.147-14.918-7.771-31.479-13.505-37.189c-7.278-7.294-14.176-18.897-11.264-27.415
		c2.186-6.428,5.842-9.34,13.681-9.34c10.129,0,17.488,6.513,17.488,15.75c0,0.833-0.493,1.805-1.164,1.805l-3.579,0.014
		c-0.53,0-0.965,0.446-0.965,0.973c0,0.531,0.437,0.965,0.965,0.965l3.358-0.008c0.951,0,1.547,0.718,1.296,1.878
		c-0.646,3.086-0.868,5.26-1.539,8.362c-0.404,1.793,2.233,3.038,3.147,1.73l15.92-28.423c1.156-2.145-1.409-2.719-3.293-2.052
		c-4.362,1.5-11.449,2.557-13.961,0.744c-5.954-4.27-11.384-7.006-19.679-7.006c-14.16,0-24.068,3.476-30.425,15.125
		c-0.496,0.914-1.887,0.899-3.074,0.899h-2.719c-0.531,0-0.957,0.413-0.957,0.957c0,0.527,0.428,0.957,0.957,0.957l2.314-0.022
		c0.986,0,1.649,0.28,1.156,1.433c-0.435,1.049-0.833,2.145-1.2,3.289c-1.605,5.047-1.083,12.122,1.442,18.421
		c0.162,0.422-0.381,0.618-1.355,0.618h-4.324c-0.537,0-0.965,0.438-0.965,0.973c0,0.531,0.428,0.957,0.965,0.957h4.324
		c1.959,0.008,2.431,0.213,3.242,1.354c2.241,3.145,4.523,5.477,7.396,9.139c0.913,1.141-2.954,1.464-5.01,1.45l-17.149-0.008
		c-0.544,0-0.956,0.442-0.956,0.965c0,0.53,0.412,0.965,0.956,0.965l17.364-0.023c2.792,0,7.581-0.038,8.119,0.573
		c4.19,4.856,9.273,12.32,10.146,18.604c0.242,1.819-0.437,2.579-2.67,2.579h-2.328c-0.53,0-0.957,0.42-0.957,0.957
		c0,0.532,0.429,0.957,0.957,0.957h2.056c1.774,0,2.734,0.294,2.32,1.621c-2.255,7.189-5.629,12.398-19.375,12.325
		c-14.41-0.082-17.34-14.211-13.126-28.953c0.825-2.924-0.037-4.192-1.357-1.879l-10.034,15.757
		c-0.243,0.375-1.208,1.274-2.741,1.274l-1.414-0.008c-0.545,0-0.957,0.436-0.957,0.965c0,0.528,0.434,0.957,0.957,0.957
		c1.269,0,1.768,0.679,1.269,1.385l-3.662,5.731c-6.076-13.864-16.229-30.942-21.644-37.157l0.095-0.3
		c13.371-0.814,33.079-13.332,36.321-24.526c5.599-19.416-13.263-26.592-23.548-26.592l-45.182,0.008
		c-6.004,0-6.445,4.558-0.685,4.558c3.115,0,5.834,2.721,4.465,5.477l-10.005,18.035c-0.825,1.48-3.94,1.389-7.971,1.389h-4.384
		c-0.523,0-0.957,0.43-0.957,0.977c0,0.527,0.436,0.959,0.957,0.959h4.311c2.881,0,6.055,0.166,4.979,2.231l-11.832,21.357
		c-0.566,0.994-2.104,1.075-6.128,1.075l-4.362,0.008c-0.536,0-0.971,0.456-0.971,0.986c0,0.51,0.435,0.957,0.971,0.957h4.258
		c3.183,0,4.362,0.42,3.449,2.056l-15.804,28.593c-1.887,2.046-4.134,2.437-7.993,2.437c-5.763,0-5.703,4.567,0.309,4.567h38.691
		c6.012,0,4.485-4.648,0.928-4.648c-2.069,0-4.279-3.829-2.887-6.122l19.752-37.417h2.011c8.781,0,10.91,14.416,12.554,30.146
		c0.124,1.135-2.019,1.18-6.402,1.18l-10.976,0.038c-0.537,0-0.965,0.426-0.965,0.957c0,0.522,0.428,0.965,0.965,0.965h10.852
		c2.896,0,6.925,0.029,7.029,0.942c0.752,6.912,1.318,12.988,2.651,18.528c0.407,1.725-2.673,1.452-5.966,1.452l-13.99,0.014
		c-0.537,0-0.965,0.444-0.965,0.957c0,0.545,0.428,0.973,0.965,0.973l13.977,0.017c4.39,0,6.658,0,6.909,0.897
		c6.012,22.073,31.826,39.452,56.919,38.493c21.541-0.817,39.739-12.537,49.036-20.003c12.406-9.943,30.596-30.765,38.016-45.897
		C593.339,423.185,595.533,419.625,595.025,417.157 M450.256,387.777c-3.021,2.464-7.771,5.327-8.693,4.419
		c-1.288-1.275-5.289-4.037-7.434-5.023l17.938-32.779c0.737-1.152,1.592-1.779,3.566-1.779c6.977,0,9.26,7.566,5.982,16.995
		C459.315,376.217,455.589,383.379,450.256,387.777"/>
	<path id="path3063" inkscape:connector-curvature="0" fill="#552582" d="M232.355,319.697c-3.64,4.694-8.45,5.894-13.846,5.894
		h-1.521l9.518-18.846c0.454-0.868,1.458-1.547,2.705-1.547c1.189,0,1.038-2.377-0.517-2.377h-15.011
		c-1.274,0-1.72,2.377-0.531,2.377c1.279,0,1.51,1.418,0.9,2.618l-8.523,16.794c-0.582,0.906-1.525,1.146-2.563,1.427
		c-1.269,0.323-2.137,2.586-0.704,2.586h23.954c1.853,0,2.285-0.679,2.774-1.342l4.822-7.463
		C234.502,318.924,233.048,318.796,232.355,319.697"/>
	<path id="path3065" inkscape:connector-curvature="0" fill="#552582" d="M304.511,303.487c-0.732,0.408-2.444,0.611-3.194-0.016
		c-1.908-1.584-5.665-2.806-7.631-2.806c-5.643,0-9.733,1.115-12.193,6.441c-2.089,4.55,0.056,8.354,5.031,10.652
		c2.159,1.002,5.018,2.309,3.922,4.895c-0.799,1.908-3.009,2.099-5.001,2.091c-2.671-0.033-6.698-2.044-7.316-5.816
		c-0.213-1.231-1.646-0.943-2.058-0.288l-3.412,6.795c-0.535,0.9,0.876,1.9,1.433,1.312c1.146-1.233,3.65-1.535,4.881-0.707
		c1.707,1.13,6.083,3.117,8.667,3.09c5.728-0.043,9.508-1.507,12.647-6.424c2.859-4.477,1.101-8.918-4.125-11.386
		c-2.762-1.288-5.124-3.591-3.893-6.124c0.814-1.644,3.259-1.29,4.479-1.087c2.34,0.4,5.327,2.596,5.672,4.526
		c0.15,0.821,1.191,0.986,1.661,0.25l1.793-4.194C306.287,303.882,304.965,303.249,304.511,303.487"/>
	<path id="path3067" inkscape:connector-curvature="0" fill="#552582" stroke="#FFFFFF" stroke-miterlimit="10" d="M470.722,310.239
		l2.093-3.837c0.914-1.691-0.575-3.615-2.969-3.615h-27.967c-2.011,0-1.437,2.098-0.612,2.098c1.798,0,2.328,2.196,1.237,4.052
		l-8.405,15.462c-1.253,1.488-2.056,2.123-3.853,2.123c-1.442,0-1.96,2.103,0.059,2.103h28.348c1.148,0,1.666-0.406,2.07-0.986
		l3.854-5.116c0.935-1.227-1.092-1.227-1.709-0.617c-4.885,4.891-10.123,4.763-13.926,4.763h-3.301l3.869-8.675h0.841
		c2.481,0,5.354-0.034,6.122,1.871c0.199,0.45,1.415,0.814,1.916,0l3.309-6.625c0.536-0.98-0.949-1.152-1.361-0.446
		c-1.297,2.332-7.052,1.707-8.547,1.707h-0.841l4.84-9.534h5.384c3.345,0,6.226,2.362,7.178,4.946
		C468.577,310.527,470.366,311.024,470.722,310.239"/>
	<path id="path3069" inkscape:connector-curvature="0" fill="#552582" d="M399.163,302.787h-9.951c-2.019,0-1.417,2.098-0.606,2.098
		c2.137,0,4.068,2.498,2.904,4.808l-4.127,7.542l-9.09-13.308c-0.605-0.815-2.032-1.215-3.271-1.215h-9.79
		c-2.012,0-1.547,2.093-0.729,2.093c2.077,0,1.547,1.555,1.031,2.664l-7.809,15.024c-0.501,1.201-2.616,1.367-3.287-0.158
		l-6.027-19.68c-0.251-0.777-3.786-0.734-4.684,0l-15.133,12.483h-7.853c-1.547,0-2.167,0.653-2.167,1.474
		c0,0.829,0.591,1.584,2.226,1.584l4.097-0.014l-4.097,3.386c-2.269,1.683-4.597,4.029-6.167,4.029h-0.936
		c-1.489,0-2.33,0.243-2.33,1.432c0,1.194,0.634,1.6,2.034,1.6h12.207c2.307,0,1.851-3.001,0.7-3.001
		c-1.269,0-3.359-1.606-1.414-3.867l3.727-3.563h7.346c4.354,0,7.404,5.047,4.804,6.618l-2.004,1.108
		c-0.949,0.492-1.361,2.709,0,2.709h23.847c1.784,0,1.417-2.332,0.591-2.332c-2.431,0-1.281-3.521-0.81-4.457l6.263-11.875
		l8.812,17.064c0.565,1.071,1.091,1.6,2.12,1.6h3.374c1.062,0,1.431-0.619,1.916-1.44l10.019-18.112
		c1.622-3.238,2.859-4.165,4.892-4.165C400.613,304.906,401.189,302.787,399.163,302.787 M332.44,315.134l9.329-7.61l0.043,7.61
		H332.44z"/>
	<path id="path3071" inkscape:connector-curvature="0" fill="#552582" d="M257.852,301.656c-8.391,0-17.029,4.133-18.763,12.937
		c-1.5,7.665,3.804,15.606,13.18,15.606c8.912,0,17.147-5.838,18.801-14.289C272.727,307.417,266.405,301.656,257.852,301.656
		 M260.235,317.797c-2.671,5.297-7.121,8.466-9.963,7.04c-2.83-1.426-2.965-6.88-0.302-12.189c2.648-5.304,7.105-8.466,9.948-7.04
		C262.747,307.035,262.883,312.49,260.235,317.797"/>
	<path id="path3073" inkscape:connector-curvature="0" fill="#552582" d="M427.527,314.5h-10.771c-2.013,0-1.423,2.107-0.612,2.107
		c0.854,0,1.649,0.446,1.649,1.81c0,4.354-1.843,6.029-5.599,6.029c-4.097,0-5.584-4.98-2.813-11.084
		c1.76-3.903,6.432-7.553,11.962-7.553c3.405,0,6.262,0.734,6.683,3.916c0.104,0.784,1.288,0.784,1.681,0.043l2.571-4.587
		c0.288-0.489-0.162-1.071-0.943-1.123c-0.655-0.043-2.137,0.807-3.094,0.093c-2.166-1.604-6.853-3.165-10.401-3.165
		c-5.797,0-13.88,1.308-19.332,10.791c-4.928,8.571,2.256,17.628,8.928,17.636c3.7,0.014,8.003-2.729,10.463-3.772l2.755,1.878
		c0.396,0.481,1.267,1.101,2.085,1.101h1.024c0.957,0,1.325-1.288,1.694-2.111l4.223-10.244
		C430.224,315.242,429.922,314.5,427.527,314.5"/>
	<path id="path3075" inkscape:connector-curvature="0" fill="#552582" stroke="#FFFFFF" stroke-miterlimit="10" d="M575.201,303.487
		c-0.723,0.408-2.444,0.611-3.183-0.016c-1.908-1.584-5.664-2.806-7.632-2.806c-5.643,0-9.74,1.115-12.192,6.441
		c-2.107,4.55,0.051,8.354,5.03,10.652c2.169,1.002,5.033,2.309,3.935,4.895c-0.809,1.908-3.034,2.099-5.025,2.091
		c-2.659-0.033-6.688-2.044-7.313-5.816c-0.201-1.231-1.636-0.943-2.04-0.288l-3.419,6.795c-0.537,0.9,0.87,1.9,1.43,1.312
		c1.156-1.233,3.66-1.535,4.899-0.707c1.692,1.13,6.047,3.117,8.671,3.09c5.704-0.043,9.49-1.507,12.613-6.424
		c2.873-4.477,1.107-8.918-4.109-11.386c-2.771-1.288-5.13-3.591-3.891-6.124c0.795-1.644,3.27-1.29,4.492-1.087
		c2.314,0.4,5.319,2.596,5.658,4.526c0.146,0.821,1.187,0.986,1.65,0.25l1.797-4.194
		C576.969,303.882,575.657,303.249,575.201,303.487"/>
	<path id="path3077" inkscape:connector-curvature="0" fill="#552582" stroke="#FFFFFF" stroke-miterlimit="10" d="M500.247,319.697
		c-3.618,4.694-8.442,5.894-13.853,5.894h-1.517l9.531-18.846c0.458-0.868,1.444-1.547,2.697-1.547c1.191,0,1.046-2.377-0.525-2.377
		h-15.004c-1.274,0-1.725,2.377-0.533,2.377c1.282,0,1.52,1.418,0.9,2.618l-8.523,16.794c-0.582,0.906-1.512,1.146-2.565,1.427
		c-1.267,0.323-2.129,2.586-0.692,2.586h23.952c1.849,0,2.297-0.679,2.784-1.342l4.804-7.463
		C502.414,318.924,500.947,318.796,500.247,319.697"/>
	<path id="path3079" inkscape:connector-curvature="0" fill="#552582" stroke="#FFFFFF" stroke-miterlimit="10" d="M536.377,304.961
		c3.336,0,6.23,2.362,7.176,4.946c0.213,0.62,2.004,1.117,2.379,0.332l2.086-3.837c0.897-1.691-0.59-3.615-2.978-3.615h-27.965
		c-2.019,0-1.431,2.098-0.606,2.098c1.806,0,2.345,2.196,1.245,4.052l-8.404,15.462c-1.253,1.488-2.072,2.123-3.861,2.123
		c-1.442,0-1.951,2.103,0.073,2.103h28.334c1.148,0,1.665-0.406,2.069-0.986l3.854-5.116c0.944-1.227-1.091-1.227-1.709-0.617
		c-4.891,4.891-10.137,4.763-13.925,4.763h-3.307l3.883-8.675h0.824c2.49,0,5.364-0.034,6.116,1.871c0.205,0.45,1.429,0.814,1.93,0
		l3.301-6.625c0.545-0.98-0.949-1.152-1.348-0.446c-1.32,2.332-7.052,1.707-8.568,1.707h-0.819l4.84-9.534h5.381V304.961z"/>
	<g id="g3081">
		<g>
			<defs>
				<path id="SVGID_1_" d="M289.929,572.316c95.761,0,173.389-78.797,173.389-176.006c0-97.193-77.628-176-173.389-176
					c-95.739,0-173.366,78.805-173.366,176C116.562,493.518,194.189,572.316,289.929,572.316"/>
			</defs>
			<clipPath id="SVGID_2_">
				<use xlink:href="#SVGID_1_"  overflow="visible"/>
			</clipPath>
			<path id="path3089" inkscape:connector-curvature="0" clip-path="url(#SVGID_2_)" fill="#552582" d="M368.965,414.319
				c-16.192,19.649-25.379,26.375-41.829,26.375c-5.6,0-8.516-1.261-6.941-3.972l19.509-39.24h7.44c8.311,0,7.16,7.002,4.898,16.477
				c-0.398,1.325,0.604,1.398,1.591,0.25l18.55-32.6c0.907-2.058-1.437-2.456-2.579-0.903c-9.29,12.613-19.072,11.676-23.192,11.676
				h-3.365l20.849-39.771h8.398c10.577,0.655,15.506,9.64,12.444,31.299h4.403l15.316-30.199c1.239-2.549-1.369-4.889-4.258-4.889
				l-103.982,0.029c-6.02,0-6.292,4.623-0.513,4.623c4.674,0,4.428,6.708,0.225,9.954l-44.14,35.05l8.918,41.382
				c0.649,3.123,2.664,4.61,6.11,4.61h85.98c3.546,0,5.01-1.442,6.152-2.918l15.566-26.89
				C376.673,410.792,371.676,411.043,368.965,414.319 M309.072,395.424l-7.57-0.043c-0.523,0-0.955,0.417-0.955,0.949
				c0,0.526,0.432,0.957,0.955,0.957l7.673-0.073c2.6,0,4.979,0.332,4.316,1.483l-19.884,37.967
				c-2.464,4.523-7.694,3.367-8.523-0.251l-9.847-50.881l34.628-26.848c3.433-2.954,10.058-7.77,13.439-7.716l7.543-0.043
				c4.589-0.03,6.232,2.121,5.142,4.903l-1.334,2.567c-0.864,1.44-3.575,1.614-5.885,1.614l-4.354,0.022
				c-0.537,0-0.965,0.422-0.965,0.965c0,0.537,0.428,0.957,0.965,0.957h4.295c1.856,0,4.185,0.047,3.33,1.44l-16.06,30.621
				C315.238,395.208,311.902,395.424,309.072,395.424"/>
		</g>
		<g>
			<defs>
				<path id="SVGID_3_" d="M289.929,572.316c95.761,0,173.389-78.797,173.389-176.006c0-97.193-77.628-176-173.389-176
					c-95.739,0-173.366,78.805-173.366,176C116.562,493.518,194.189,572.316,289.929,572.316"/>
			</defs>
			<clipPath id="SVGID_4_">
				<use xlink:href="#SVGID_3_"  overflow="visible"/>
			</clipPath>
			<path id="path3091" inkscape:connector-curvature="0" clip-path="url(#SVGID_4_)" fill="#552582" d="M237.696,439.849
				c-2.34-0.081-3.841-1.674-4.354-3.221c-0.74-2.209-0.671-6.136,0.217-7.874l40.121-71.138c0.649-1.316,2.277-4.059,4.27-4.059
				c3.543,0.006,5.075-4.656-0.929-4.656h-32.132c-6.004,0-6.063,4.571-0.31,4.571c2.346,0,3.281,2.303,2.612,3.706l-8.871,16.089
				c-1.111,1.764-3.569,1.9-6.16,1.9l-7.653-0.03c-0.531,0-0.957,0.438-0.957,0.965c0,0.531,0.426,0.977,0.957,0.977h7.588
				c2.052,0,3.688,0.62,2.506,3.001l-29.611,53.942c-2.133,2.969-6.38,3.632-6.14-2.057l10.53-78.998
				c0.416-2.468-0.233-4.141-2.873-4.141l-15.873,0.029c-1.9,0-3.068,0.921-3.981,2.151l-5.672,7.134
				c-0.748,0.74-2.34,0.734-4.104,0.734l-13.337-0.022c-0.531,0-0.957,0.428-0.957,0.957c0,0.541,0.426,0.973,0.957,0.973h10.885
				c1.932,0,4.188,0.446,3.37,1.355l-15.274,19.217c-0.46,0.527-1.938,0.671-2.851,0.671l-4.313-0.006
				c-0.539,0-0.969,0.43-0.969,0.957s0.43,0.957,0.969,0.957l3.599,0.014c1.117,0,1.125,0.544,0.679,1.049l-14.365,18.041
				c-0.738,0.694-2.17,0.841-3.565,0.841l-12.682-0.014c-0.519,0-0.949,0.426-0.949,0.965c0,0.522,0.43,0.957,0.949,0.957h10.881
				c1.653,0,2.928,0.294,2.058,1.406l-20.411,25.602c-3.835,4.885-22.309,7.373-25.907,7.373l69.021-129.144
				c0.657-1.483,3.226-3.75,5.868-3.75h14.657c6.917,0,6.714-4.601,0.71-4.601h-73.682c-5.998,0-6.24,4.601,0.663,4.601h13.647
				c3.871,0,5.116,2.34,4.125,4.256l-1.959,3.553c-0.641,1.152-1.562,1.614-5.303,1.614l-24.11-0.014
				c-0.531,0-0.957,0.422-0.957,0.957c0,0.531,0.428,0.961,0.957,0.961l24.049,0.008c1.304,0,3.259,0.339,2.03,2.685l-3.381,6.258
				c-0.57,0.951-2.044,1.403-3.743,1.403l-10.922-0.022c-0.541,0-0.965,0.438-0.965,0.957c0,0.544,0.422,0.969,0.965,0.969
				l10.871,0.014c1.555,0,1.598,1.016,0.697,2.457l-7.766,14.433c-0.663,1.231-1.924,1.397-4.39,1.397l-4.351-0.022
				c-0.537,0-0.968,0.428-0.968,0.965c0,0.527,0.432,0.957,0.968,0.957l4.292,0.008c1.636,0,2.068,0.914,1.333,2.474l-6.373,11.85
				c-0.951,1.683-2.302,2.354-6.542,2.354l-24.108-0.022c-0.539,0-0.965,0.438-0.965,0.965c0,0.531,0.426,0.965,0.965,0.965
				l24.043,0.006c2.715,0.042,3.717,1.231,2.656,3.179L85.222,396.22c-0.736,1.036-2.766,1.193-6.229,1.193l-24.106-0.029
				c-0.535,0-0.957,0.438-0.957,0.973c0,0.526,0.424,0.949,0.957,0.949l24.049,0.008c2.877,0,4.635,0.122,3.757,1.638l-7.156,13.489
				c-1.322,2.056-5.017,2.056-6.458,2.056l-7.649-0.021c-0.527,0-0.957,0.426-0.957,0.965c0,0.53,0.43,0.956,0.957,0.956
				l7.581,0.007c2.685,0,4.096,0.463,3.396,1.901l-9.581,18.006c-0.862,1.604-4.607,1.681-7.491,1.681l-37.268-0.031
				c-0.519,0-0.965,0.436-0.965,0.973c0,0.517,0.446,0.957,0.965,0.957l37.215,0.008c2.468,0,5.582,0.302,4.421,2.274l-6.097,11.493
				c-0.578,0.948-2.664,1.029-5.672,1.029l-7.639-0.014c-0.537,0-0.969,0.428-0.969,0.957c0,0.537,0.432,0.957,0.969,0.957h7.588
				c1.841,0,4.104,0.213,3.311,1.62l-3.824,7.337C46.137,469.38,44.908,471,41.95,471h-18.7c-6.917,0-6.674,4.604-0.671,4.604
				l109.818,0.065c3.212,0,3.313-0.429,4.826-2.8l16.289-28.394l83.24,0.008C242.765,444.496,241.218,439.965,237.696,439.849
				 M172.4,431.392c-0.815,4.685-5.528,7.778-11.459,9.356l-6.11,1.518l5.023-9.047c1.322-2.46-1.577-3.91-4.737-0.25
				c-21.251,24.769-28.038,36.614-60.819,36.703l-8.812,0.016c-2.664,0-5.589-1.04-3.78-3.587l11.595-21.608l44.055,0.009
				c6.012,0,4.469-4.532,0.937-4.648c-2.332-0.081-4.881-1.415-6.683-4.266c-0.509-0.787-1.604-3.927,0.11-6.344l16.871-22.425
				h28.046L172.4,431.392L172.4,431.392z M178.745,403.042h-27.354l34.606-45.645L178.745,403.042L178.745,403.042z"/>
		</g>
		<g>
			<defs>
				<path id="SVGID_5_" d="M289.929,572.316c95.761,0,173.389-78.797,173.389-176.006c0-97.193-77.628-176-173.389-176
					c-95.739,0-173.366,78.805-173.366,176C116.562,493.518,194.189,572.316,289.929,572.316"/>
			</defs>
			<clipPath id="SVGID_6_">
				<use xlink:href="#SVGID_5_"  overflow="visible"/>
			</clipPath>
			<path id="path3093" inkscape:connector-curvature="0" clip-path="url(#SVGID_6_)" fill="#552582" d="M595.025,417.157
				c-0.449-2.256-1.261-0.882-2.748,1.959c-0.456,0.856-1.9,0.884-3.345,0.884l-4.392,0.016c-0.536,0-0.971,0.429-0.971,0.973
				c0,0.516,0.435,0.943,0.971,0.943h4.333c1.634,0,1.671,1.099,0.897,2.748c-3.034,6.454-6.151,10.778-10.299,15.966
				c-0.649,0.811-2.314,1.519-3.633,1.519l-4.427,0.03c-0.533,0-0.957,0.428-0.957,0.965c0,0.522,0.426,0.957,0.957,0.957h4.33
				c2.181,0-0.029,1.333-0.398,1.826c-7.677,10.248-12.972,14.823-18.608,19.413c-0.663,0.532-3.846,0.339-6.077,0.325l-4.362,0.014
				c-0.523,0-0.957,0.437-0.957,0.98c0,0.523,0.437,0.965,0.957,0.965h4.311c3.285,0,0.81,1.886,0.324,2.291
				c-11.979,9.976-29.794,13.18-37.955,12.163c-26.469-3.316-31.931-23.413-33.89-31.445c-0.396-1.679-1.673-5.128-2.093-7.249
				c-0.817-4.198,11.125-5.392,14.426-3.183c4.994,3.345,16.664,6.779,25.845,6.807c8.487,0.032,25.865-6.136,30.891-20.716
				c5.147-14.918-7.771-31.479-13.505-37.189c-7.278-7.294-14.176-18.897-11.264-27.415c2.186-6.428,5.842-9.34,13.681-9.34
				c10.129,0,17.488,6.513,17.488,15.75c0,0.833-0.493,1.805-1.164,1.805l-3.579,0.014c-0.53,0-0.965,0.446-0.965,0.973
				c0,0.531,0.437,0.965,0.965,0.965l3.358-0.008c0.951,0,1.547,0.718,1.296,1.878c-0.646,3.086-0.868,5.26-1.539,8.362
				c-0.404,1.793,2.233,3.038,3.147,1.73l15.92-28.423c1.156-2.145-1.409-2.719-3.293-2.052c-4.362,1.5-11.449,2.557-13.961,0.744
				c-5.954-4.27-11.384-7.006-19.679-7.006c-14.16,0-24.068,3.476-30.425,15.125c-0.496,0.914-1.887,0.899-3.074,0.899h-2.719
				c-0.531,0-0.957,0.413-0.957,0.957c0,0.527,0.428,0.957,0.957,0.957l2.314-0.022c0.986,0,1.649,0.28,1.156,1.433
				c-0.435,1.049-0.833,2.145-1.2,3.289c-1.605,5.047-1.083,12.122,1.442,18.421c0.162,0.422-0.381,0.618-1.355,0.618h-4.324
				c-0.537,0-0.965,0.438-0.965,0.973c0,0.531,0.428,0.957,0.965,0.957h4.324c1.959,0.008,2.431,0.213,3.242,1.354
				c2.241,3.145,4.523,5.477,7.396,9.139c0.913,1.141-2.954,1.464-5.01,1.45l-17.149-0.008c-0.544,0-0.956,0.442-0.956,0.965
				c0,0.53,0.412,0.965,0.956,0.965l17.364-0.023c2.792,0,7.581-0.038,8.119,0.573c4.19,4.856,9.273,12.32,10.146,18.604
				c0.242,1.819-0.437,2.579-2.67,2.579h-2.328c-0.53,0-0.957,0.42-0.957,0.957c0,0.532,0.429,0.957,0.957,0.957h2.056
				c1.774,0,2.734,0.294,2.32,1.621c-2.255,7.189-5.629,12.398-19.375,12.325c-14.41-0.082-17.34-14.211-13.126-28.953
				c0.825-2.924-0.037-4.192-1.357-1.879l-10.034,15.757c-0.243,0.375-1.208,1.274-2.741,1.274l-1.414-0.008
				c-0.545,0-0.957,0.436-0.957,0.965c0,0.528,0.434,0.957,0.957,0.957c1.269,0,1.768,0.679,1.269,1.385l-3.662,5.731
				c-6.076-13.864-16.229-30.942-21.644-37.157l0.095-0.3c13.371-0.814,33.079-13.332,36.321-24.526
				c5.599-19.416-13.263-26.592-23.548-26.592l-45.182,0.008c-6.004,0-6.445,4.558-0.685,4.558c3.115,0,5.834,2.721,4.465,5.477
				l-10.005,18.035c-0.825,1.48-3.94,1.389-7.971,1.389h-4.384c-0.523,0-0.957,0.43-0.957,0.977c0,0.527,0.436,0.959,0.957,0.959
				h4.311c2.881,0,6.055,0.166,4.979,2.231l-11.832,21.357c-0.566,0.994-2.104,1.075-6.128,1.075l-4.362,0.008
				c-0.536,0-0.971,0.456-0.971,0.986c0,0.51,0.435,0.957,0.971,0.957h4.258c3.183,0,4.362,0.42,3.449,2.056l-15.804,28.593
				c-1.887,2.046-4.134,2.437-7.993,2.437c-5.763,0-5.703,4.567,0.309,4.567h38.691c6.012,0,4.485-4.648,0.928-4.648
				c-2.069,0-4.279-3.829-2.887-6.122l19.752-37.417h2.011c8.781,0,10.91,14.416,12.554,30.146c0.124,1.135-2.019,1.18-6.402,1.18
				l-10.976,0.038c-0.537,0-0.965,0.426-0.965,0.957c0,0.522,0.428,0.965,0.965,0.965h10.852c2.896,0,6.925,0.029,7.029,0.942
				c0.752,6.912,1.318,12.988,2.651,18.528c0.407,1.725-2.673,1.452-5.966,1.452l-13.99,0.014c-0.537,0-0.965,0.444-0.965,0.957
				c0,0.545,0.428,0.973,0.965,0.973l13.977,0.017c4.39,0,6.658,0,6.909,0.897c6.012,22.073,31.826,39.452,56.919,38.493
				c21.541-0.817,39.739-12.537,49.036-20.003c12.406-9.943,30.596-30.765,38.016-45.897
				C593.339,423.185,595.533,419.625,595.025,417.157 M450.256,387.777c-3.021,2.464-7.771,5.327-8.693,4.419
				c-1.288-1.275-5.289-4.037-7.434-5.023l17.938-32.779c0.737-1.152,1.592-1.779,3.566-1.779c6.977,0,9.26,7.566,5.982,16.995
				C459.315,376.217,455.589,383.379,450.256,387.777"/>
		</g>
		<g>
			<defs>
				<path id="SVGID_7_" d="M289.929,572.316c95.761,0,173.389-78.797,173.389-176.006c0-97.193-77.628-176-173.389-176
					c-95.739,0-173.366,78.805-173.366,176C116.562,493.518,194.189,572.316,289.929,572.316"/>
			</defs>
			<clipPath id="SVGID_8_">
				<use xlink:href="#SVGID_7_"  overflow="visible"/>
			</clipPath>
			<path id="path3095" inkscape:connector-curvature="0" clip-path="url(#SVGID_8_)" fill="#552582" d="M232.355,319.697
				c-3.64,4.694-8.45,5.894-13.846,5.894h-1.521l9.518-18.846c0.454-0.868,1.458-1.547,2.705-1.547c1.189,0,1.038-2.377-0.517-2.377
				h-15.011c-1.274,0-1.72,2.377-0.531,2.377c1.279,0,1.51,1.418,0.9,2.618l-8.523,16.794c-0.582,0.906-1.525,1.146-2.563,1.427
				c-1.269,0.323-2.137,2.586-0.704,2.586h23.954c1.853,0,2.285-0.679,2.774-1.342l4.822-7.463
				C234.502,318.924,233.048,318.796,232.355,319.697"/>
		</g>
		<g>
			<defs>
				<path id="SVGID_9_" d="M289.929,572.316c95.761,0,173.389-78.797,173.389-176.006c0-97.193-77.628-176-173.389-176
					c-95.739,0-173.366,78.805-173.366,176C116.562,493.518,194.189,572.316,289.929,572.316"/>
			</defs>
			<clipPath id="SVGID_10_">
				<use xlink:href="#SVGID_9_"  overflow="visible"/>
			</clipPath>
			<path id="path3097" inkscape:connector-curvature="0" clip-path="url(#SVGID_10_)" fill="#552582" d="M304.511,303.487
				c-0.732,0.408-2.444,0.611-3.194-0.016c-1.908-1.584-5.665-2.806-7.631-2.806c-5.643,0-9.733,1.115-12.193,6.441
				c-2.089,4.55,0.056,8.354,5.031,10.652c2.159,1.002,5.018,2.309,3.922,4.895c-0.799,1.908-3.009,2.099-5.001,2.091
				c-2.671-0.033-6.698-2.044-7.316-5.816c-0.213-1.231-1.646-0.943-2.058-0.288l-3.412,6.795c-0.535,0.9,0.876,1.9,1.433,1.312
				c1.146-1.233,3.65-1.535,4.881-0.707c1.707,1.13,6.083,3.117,8.667,3.09c5.728-0.043,9.508-1.507,12.647-6.424
				c2.859-4.477,1.101-8.918-4.125-11.386c-2.762-1.288-5.124-3.591-3.893-6.124c0.814-1.644,3.259-1.29,4.479-1.087
				c2.34,0.4,5.327,2.596,5.672,4.526c0.15,0.821,1.191,0.986,1.661,0.25l1.793-4.194
				C306.287,303.882,304.965,303.249,304.511,303.487"/>
		</g>
		<g>
			<defs>
				<path id="SVGID_11_" d="M289.929,572.316c95.761,0,173.389-78.797,173.389-176.006c0-97.193-77.628-176-173.389-176
					c-95.739,0-173.366,78.805-173.366,176C116.562,493.518,194.189,572.316,289.929,572.316"/>
			</defs>
			<clipPath id="SVGID_12_">
				<use xlink:href="#SVGID_11_"  overflow="visible"/>
			</clipPath>
			<path id="path3099" inkscape:connector-curvature="0" clip-path="url(#SVGID_12_)" fill="#552582" d="M470.722,310.239
				l2.093-3.837c0.914-1.691-0.575-3.615-2.969-3.615h-27.967c-2.011,0-1.437,2.098-0.612,2.098c1.798,0,2.328,2.196,1.237,4.052
				l-8.405,15.462c-1.253,1.488-2.056,2.123-3.853,2.123c-1.442,0-1.96,2.103,0.059,2.103h28.348c1.148,0,1.666-0.406,2.07-0.986
				l3.854-5.116c0.935-1.227-1.092-1.227-1.709-0.617c-4.885,4.891-10.123,4.763-13.926,4.763h-3.301l3.869-8.675h0.841
				c2.481,0,5.354-0.034,6.122,1.871c0.199,0.45,1.415,0.814,1.916,0l3.309-6.625c0.536-0.98-0.949-1.152-1.361-0.446
				c-1.297,2.332-7.052,1.707-8.547,1.707h-0.841l4.84-9.534h5.384c3.345,0,6.226,2.362,7.178,4.946
				C468.577,310.527,470.366,311.024,470.722,310.239"/>
		</g>
		<g>
			<defs>
				<path id="SVGID_13_" d="M289.929,572.316c95.761,0,173.389-78.797,173.389-176.006c0-97.193-77.628-176-173.389-176
					c-95.739,0-173.366,78.805-173.366,176C116.562,493.518,194.189,572.316,289.929,572.316"/>
			</defs>
			<clipPath id="SVGID_14_">
				<use xlink:href="#SVGID_13_"  overflow="visible"/>
			</clipPath>
			<path id="path3101" inkscape:connector-curvature="0" clip-path="url(#SVGID_14_)" fill="#552582" d="M399.163,302.787h-9.951
				c-2.019,0-1.417,2.098-0.606,2.098c2.137,0,4.068,2.498,2.904,4.808l-4.127,7.542l-9.09-13.308
				c-0.605-0.815-2.032-1.215-3.271-1.215h-9.79c-2.012,0-1.547,2.093-0.729,2.093c2.077,0,1.547,1.555,1.031,2.664l-7.809,15.024
				c-0.501,1.201-2.616,1.367-3.287-0.158l-6.027-19.68c-0.251-0.777-3.786-0.734-4.684,0l-15.133,12.483h-7.853
				c-1.547,0-2.167,0.653-2.167,1.474c0,0.829,0.591,1.584,2.226,1.584l4.097-0.014l-4.097,3.386
				c-2.269,1.683-4.597,4.029-6.167,4.029h-0.936c-1.489,0-2.33,0.243-2.33,1.432c0,1.194,0.634,1.6,2.034,1.6h12.207
				c2.307,0,1.851-3.001,0.7-3.001c-1.269,0-3.359-1.606-1.414-3.867l3.727-3.563h7.346c4.354,0,7.404,5.047,4.804,6.618
				l-2.004,1.108c-0.949,0.492-1.361,2.709,0,2.709h23.847c1.784,0,1.417-2.332,0.591-2.332c-2.431,0-1.281-3.521-0.81-4.457
				l6.263-11.875l8.812,17.064c0.565,1.071,1.091,1.6,2.12,1.6h3.374c1.062,0,1.431-0.619,1.916-1.44l10.019-18.112
				c1.622-3.238,2.859-4.165,4.892-4.165C400.613,304.906,401.189,302.787,399.163,302.787 M332.44,315.134l9.329-7.61l0.043,7.61
				H332.44z"/>
		</g>
		<g>
			<defs>
				<path id="SVGID_15_" d="M289.929,572.316c95.761,0,173.389-78.797,173.389-176.006c0-97.193-77.628-176-173.389-176
					c-95.739,0-173.366,78.805-173.366,176C116.562,493.518,194.189,572.316,289.929,572.316"/>
			</defs>
			<clipPath id="SVGID_16_">
				<use xlink:href="#SVGID_15_"  overflow="visible"/>
			</clipPath>
			<path id="path3103" inkscape:connector-curvature="0" clip-path="url(#SVGID_16_)" fill="#552582" d="M257.852,301.656
				c-8.391,0-17.029,4.133-18.763,12.937c-1.5,7.665,3.804,15.606,13.18,15.606c8.912,0,17.147-5.838,18.801-14.289
				C272.727,307.417,266.405,301.656,257.852,301.656 M260.235,317.797c-2.671,5.297-7.121,8.466-9.963,7.04
				c-2.83-1.426-2.965-6.88-0.302-12.189c2.648-5.304,7.105-8.466,9.948-7.04C262.747,307.035,262.883,312.49,260.235,317.797"/>
		</g>
		<g>
			<defs>
				<path id="SVGID_17_" d="M289.929,572.316c95.761,0,173.389-78.797,173.389-176.006c0-97.193-77.628-176-173.389-176
					c-95.739,0-173.366,78.805-173.366,176C116.562,493.518,194.189,572.316,289.929,572.316"/>
			</defs>
			<clipPath id="SVGID_18_">
				<use xlink:href="#SVGID_17_"  overflow="visible"/>
			</clipPath>
			<path id="path3105" inkscape:connector-curvature="0" clip-path="url(#SVGID_18_)" fill="#552582" d="M427.527,314.5h-10.771
				c-2.013,0-1.423,2.107-0.612,2.107c0.854,0,1.649,0.446,1.649,1.81c0,4.354-1.843,6.029-5.599,6.029
				c-4.097,0-5.584-4.98-2.813-11.084c1.76-3.903,6.432-7.553,11.962-7.553c3.405,0,6.262,0.734,6.683,3.916
				c0.104,0.784,1.288,0.784,1.681,0.043l2.571-4.587c0.288-0.489-0.162-1.071-0.943-1.123c-0.655-0.043-2.137,0.807-3.094,0.093
				c-2.166-1.604-6.853-3.165-10.401-3.165c-5.797,0-13.88,1.308-19.332,10.791c-4.928,8.571,2.256,17.628,8.928,17.636
				c3.7,0.014,8.003-2.729,10.463-3.772l2.755,1.878c0.396,0.481,1.267,1.101,2.085,1.101h1.024c0.957,0,1.325-1.288,1.694-2.111
				l4.223-10.244C430.224,315.242,429.922,314.5,427.527,314.5"/>
		</g>
		<g>
			<defs>
				<path id="SVGID_19_" d="M289.929,572.316c95.761,0,173.389-78.797,173.389-176.006c0-97.193-77.628-176-173.389-176
					c-95.739,0-173.366,78.805-173.366,176C116.562,493.518,194.189,572.316,289.929,572.316"/>
			</defs>
			<clipPath id="SVGID_20_">
				<use xlink:href="#SVGID_19_"  overflow="visible"/>
			</clipPath>
			<path id="path3107" inkscape:connector-curvature="0" clip-path="url(#SVGID_20_)" fill="#552582" d="M575.201,303.487
				c-0.723,0.408-2.444,0.611-3.183-0.016c-1.908-1.584-5.664-2.806-7.632-2.806c-5.643,0-9.74,1.115-12.192,6.441
				c-2.107,4.55,0.051,8.354,5.03,10.652c2.169,1.002,5.033,2.309,3.935,4.895c-0.809,1.908-3.034,2.099-5.025,2.091
				c-2.659-0.033-6.688-2.044-7.313-5.816c-0.201-1.231-1.636-0.943-2.04-0.288l-3.419,6.795c-0.537,0.9,0.87,1.9,1.43,1.312
				c1.156-1.233,3.66-1.535,4.899-0.707c1.692,1.13,6.047,3.117,8.671,3.09c5.704-0.043,9.49-1.507,12.613-6.424
				c2.873-4.477,1.107-8.918-4.109-11.386c-2.771-1.288-5.13-3.591-3.891-6.124c0.795-1.644,3.27-1.29,4.492-1.087
				c2.314,0.4,5.319,2.596,5.658,4.526c0.146,0.821,1.187,0.986,1.65,0.25l1.797-4.194
				C576.969,303.882,575.657,303.249,575.201,303.487"/>
		</g>
		<g>
			<defs>
				<path id="SVGID_21_" d="M289.929,572.316c95.761,0,173.389-78.797,173.389-176.006c0-97.193-77.628-176-173.389-176
					c-95.739,0-173.366,78.805-173.366,176C116.562,493.518,194.189,572.316,289.929,572.316"/>
			</defs>
			<clipPath id="SVGID_22_">
				<use xlink:href="#SVGID_21_"  overflow="visible"/>
			</clipPath>
			<path id="path3109" inkscape:connector-curvature="0" clip-path="url(#SVGID_22_)" fill="#552582" d="M500.247,319.697
				c-3.618,4.694-8.442,5.894-13.853,5.894h-1.517l9.531-18.846c0.458-0.868,1.444-1.547,2.697-1.547
				c1.191,0,1.046-2.377-0.525-2.377h-15.004c-1.274,0-1.725,2.377-0.533,2.377c1.282,0,1.52,1.418,0.9,2.618l-8.523,16.794
				c-0.582,0.906-1.512,1.146-2.565,1.427c-1.267,0.323-2.129,2.586-0.692,2.586h23.952c1.849,0,2.297-0.679,2.784-1.342
				l4.804-7.463C502.414,318.924,500.947,318.796,500.247,319.697"/>
		</g>
		<g>
			<defs>
				<path id="SVGID_23_" d="M289.929,572.316c95.761,0,173.389-78.797,173.389-176.006c0-97.193-77.628-176-173.389-176
					c-95.739,0-173.366,78.805-173.366,176C116.562,493.518,194.189,572.316,289.929,572.316"/>
			</defs>
			<clipPath id="SVGID_24_">
				<use xlink:href="#SVGID_23_"  overflow="visible"/>
			</clipPath>
			<path id="path3111" inkscape:connector-curvature="0" clip-path="url(#SVGID_24_)" fill="#552582" d="M536.377,304.961
				c3.336,0,6.23,2.362,7.176,4.946c0.213,0.62,2.004,1.117,2.379,0.332l2.086-3.837c0.897-1.691-0.59-3.615-2.978-3.615h-27.965
				c-2.019,0-1.431,2.098-0.606,2.098c1.806,0,2.345,2.196,1.245,4.052l-8.404,15.462c-1.253,1.488-2.072,2.123-3.861,2.123
				c-1.442,0-1.951,2.103,0.073,2.103h28.334c1.148,0,1.665-0.406,2.069-0.986l3.854-5.116c0.944-1.227-1.091-1.227-1.709-0.617
				c-4.891,4.891-10.137,4.763-13.925,4.763h-3.307l3.883-8.675h0.824c2.49,0,5.364-0.034,6.116,1.871
				c0.205,0.45,1.429,0.814,1.93,0l3.301-6.625c0.545-0.98-0.949-1.152-1.348-0.446c-1.32,2.332-7.052,1.707-8.568,1.707h-0.819
				l4.84-9.534h5.381V304.961z"/>
		</g>
	</g>
	<path id="path3113" inkscape:connector-curvature="0" fill="#231F20" d="M426.223,282.329c-2.15-2.482-5.12-7.75-26.445-26.337
		c-31.377-27.34-72.936-39.815-111.978-39.815c-28.772,0-53.969,6.463-81.867,21.817c-35.54,19.566-50.262,42.054-53.898,46.633
		c-2.697,3.36-3.08,5.327-1.337,6.339c1.245,0.706,3.636-1.908,5.875-4.857c10.571-13.965,24.473-27.815,39.108-35.964
		c4.55,0.663,10.918,7.006,13.391,10.366c-9.352,5.104-24.877,16.93-30.753,21.482c-5.072,3.926-6.828,6.136-5.455,7.736
		c1.146,1.326,5.025-1.282,8.276-3.946c5.617-4.619,22.323-16.455,30.587-20.904c5.629,6.586,3.812,18.751,1.827,21.393
		c-1.071,1.418-1.231,2.924,0,3.621c1.146,0.655,2.413-1.014,4.052-3.382c3.824-5.536,2.293-18.941-0.998-23.771
		c10.082-6.262,24.558-10.447,33.33-12.424c0.74,1.403,11.372,32.448,13.395,38.088c1.101,3.086,2.202,6.781,4.457,6.088
		c1.511-0.452,0.513-3.845-0.74-7.235c-1.555-4.21-9.597-30.291-12.067-38.015c2.895-1.569,20.352-5.112,24.72-4.933
		c-2.145,11.353,5.897,16.001,14.965,21.969c4.836,3.168,35.506,20.797,41.928,24.757c3.656,2.269,6.499,3.706,7.272,2.64
		c0.908-1.224-1.576-3.786-4.958-5.765c-2.695-1.577-31.236-18.134-43.163-25.67c-8.539-5.393-13.136-11.173-11.092-18.761
		c2.815-0.819,11.416-0.884,20.355-0.819c60.849,0.493,109.647,35.374,115.1,40.965c2.769,2.837,6.615,5.272,8.104,4.126
		C429.154,287.028,427.527,283.82,426.223,282.329 M214.044,258.294c-1.636-2.74-9.372-9.802-13.557-11.191
		c9.763-7.241,32.417-17.589,41.017-19.416c1.478,2.468,5.455,13.006,6.773,17.449C240.675,246.778,220.494,254.013,214.044,258.294
		 M280.52,238.708c-7.927,0.505-22.322,3.621-27.446,5.108c-1.326-3.449-4.954-14.16-6.114-17.607
		c14.594-4.144,31.574-5.583,44.651-4.445C287.966,224.556,281.857,235.585,280.52,238.708 M320.049,238.219
		c-13.201-0.927-23.98-1.304-33.411-0.323c2.737-6.882,8.184-13.316,12.418-16.131c8.983,0.365,18.267,1.677,25.627,3.131
		c23.538,4.642,60.137,18.996,75.919,40.152C379.573,251.021,344.653,239.975,320.049,238.219"/>
	<path id="path3115" inkscape:connector-curvature="0" fill="#231F20" d="M439.396,490.683c2.255-4.142,4.088-6.499,2.15-7.574
		c-1.768-0.973-3.477,2.858-5.621,6.579c-7.11,12.355-14.874,22.536-32.416,38.509c-19.428,17.704-41.756,27.981-49.536,30.611
		c-6.607-18.596-31.826-97.791-32.497-100.054c-0.986-3.382-1.835-4.347-2.975-3.956c-1.283,0.464-0.493,2.322,0.169,5.275
		c0.663,2.954,30.685,96.692,31.671,99.979c-5.967,2.953-30.146,9.725-47.054,10.27c-15.058,0.501-32.748,0-41.68-2.057
		c-10.472-8.45-34.278-42.071-43.325-59.982c-10.646-21.085-17.7-40.481-19.515-48.725c-0.876-3.94-1.993-6.783-3.976-6.395
		c-2.129,0.406-0.906,3.514,0.339,7.744c3.198,10.844,8.425,26.211,19.515,48.123c11.755,23.206,32.74,50.428,38.858,57.844
		c-19.175-4.037-42.478-12.994-64.619-29.527c-19.077-14.202-35.458-32.319-43.709-45.513c-1.403-2.268-3.072-5.468-5.116-4.11
		c-0.921,0.604,0.213,3.183,1.646,5.754c11.972,21.503,41.161,51.931,78.562,68.624c43.587,19.464,91.116,18.426,133.625,1.973
		C391.074,549.677,423.415,520.061,439.396,490.683"/>
</g>
</svg>
