<?xml version="1.0" encoding="utf-8"?>
<!-- Generator: Adobe Illustrator 16.0.4, SVG Export Plug-In . SVG Version: 6.00 Build 0)  -->
<!DOCTYPE svg PUBLIC "-//W3C//DTD SVG 1.1//EN" "http://www.w3.org/Graphics/SVG/1.1/DTD/svg11.dtd">
<svg version="1.1"
	 id="svg3202" xmlns:sodipodi="http://sodipodi.sourceforge.net/DTD/sodipodi-0.dtd" xmlns:svg="http://www.w3.org/2000/svg" xmlns:dc="http://purl.org/dc/elements/1.1/" xmlns:cc="http://creativecommons.org/ns#" xmlns:rdf="http://www.w3.org/1999/02/22-rdf-syntax-ns#" xmlns:inkscape="http://www.inkscape.org/namespaces/inkscape" inkscape:version="0.48.1 r9760" sodipodi:docname="New document 5"
	 xmlns="http://www.w3.org/2000/svg" xmlns:xlink="http://www.w3.org/1999/xlink" x="0px" y="0px" viewBox="0 0 148.801 205.512" enable-background="new 0 0 148.801 205.512" xml:space="preserve">
<sodipodi:namedview  showgrid="false" fit-margin-left="0" inkscape:zoom="0.35" inkscape:cy="-134.38702" bordercolor="#666666" pagecolor="#ffffff" inkscape:cx="215.11503" fit-margin-top="0" borderopacity="1.0" id="base" inkscape:window-maximized="1" inkscape:current-layer="layer1" fit-margin-bottom="0" fit-margin-right="0" inkscape:window-y="25" inkscape:window-x="0" inkscape:pageopacity="0.0" inkscape:window-width="1280" inkscape:pageshadow="2" inkscape:window-height="949" inkscape:document-units="px">
	</sodipodi:namedview>
<g>
	<path id="path3095" inkscape:connector-curvature="0" fill="#1C2524" d="M145.391,49.085c-5.599-6.078-17.753-11.036-33.588-14.076
		c0-1.759,1.119-2.559,3.199-3.838c0.96-0.801,2.079-1.601,3.359-2.72c4.958-4.797-0.96-12.156-1.28-12.476l-3.199-3.999
		l0.799,5.118c0.48,3.52-0.799,4.799-4.637,7.358c-0.479,0.48-0.799,0.8-1.28,1.12c0.161-2.24,0.321-4.958-0.48-8.158
		c-0.799-3.358-2.399-4.639-2.399-4.639l-0.32,4.799c-0.16,0-0.479,3.679-5.438,8.158c0.48-0.479,0.959-0.96,1.279-1.44
		c2.4-3.518,1.759-7.517,0.8-12.154l-0.159-0.961c-0.801-4.798,0.48-7.837,1.279-8.316c0.96-0.959,2.559-2.719,2.559-2.719
		s-0.958-0.321-3.357,0c-3.04,0.48-8.159,2.239-7.999,6.398c0,1.919,0.64,3.678,1.12,5.277c0.639,1.601,1.119,3.2,0.639,3.999
		c-0.319,0.64-1.439,1.12-3.357,1.439c-7.198,1.28-12.795,4.798-15.516,9.597c-0.959,1.599-1.599,3.199-1.919,5.118
		c-17.914,0-35.028,2.239-48.143,6.398C12.635,42.848,4.479,49.085,3.839,56.283c-0.479,3.839,1.279,9.276,10.876,14.555h-0.161
		l2.72,1.28l0,0l1.439,0.8c4.319,1.918,9.437,3.518,15.195,4.957c-2.079,1.121-3.839,2.4-5.598,3.999
		c-9.118,7.517-14.395,18.713-14.395,30.709c0,10.556,3.998,20.474,11.516,27.991c7.517,7.516,17.593,11.675,28.149,11.675
		c18.713,0,35.028-13.275,38.867-31.669c3.199-9.596,2.879-19.832,2.719-23.831c-0.32-8.798,3.999-13.595,6.718-15.835
		c12.636-1.599,23.671-4.319,31.99-7.997l1.279-0.64l0,0l2.88-1.441c6.558-3.678,10.395-8.156,10.715-12.795
		C149.068,55.003,147.949,51.964,145.391,49.085L145.391,49.085z M132.435,56.922c1.12,1.12,1.12,1.919,1.12,2.239
		c-0.16,1.44-1.92,3.2-4.958,4.799c-6.397,3.199-17.273,5.758-30.07,7.037c0.48-0.32,1.12-0.64,1.76-0.959h0.32
		c3.679-1.599,7.837-3.198,7.998-9.436c0.159-0.959,0.159-3.839,0.64-4.958c0.799-1.439,2.559-3.519,3.998-4.159
		c0.16,0-2.559-0.48-2.559-0.48c-0.16,0-0.32,0-0.32,0c0.8-0.64,1.44-1.439,1.919-2.24
		C122.679,51.004,129.875,53.883,132.435,56.922L132.435,56.922z M19.033,58.362c0.479-5.119,18.714-11.676,48.305-12.795
		c-2.72,2.08-6.08,5.598-6.879,11.356l-0.32,2.239c-0.16,1.44-0.32,2.72-0.959,4.159c-1.12,2.879-4.319,5.438-7.677,7.197
		C39.667,69.078,29.59,66.52,23.832,63.48C20.633,61.721,18.873,59.801,19.033,58.362z"/>
	<path id="path3097" inkscape:connector-curvature="0" fill="#F59814" d="M110.362,34.85c0.32-3.518,3.68-4.317,6.877-7.357
		c4.319-3.999-1.119-10.557-1.119-10.557c0.639,4.479-1.441,6.078-5.279,8.797c-1.119,0.8-2.08,1.919-2.08,3.358
		c-0.159,1.76-0.319,3.519-0.64,5.278C108.923,34.53,109.724,34.69,110.362,34.85z"/>
	<path id="path3099" inkscape:connector-curvature="0" fill="#F59814" d="M98.846,28.612c-0.959,0.8-1.919,1.599-2.719,2.24
		c-0.64,0.64-1.28,1.279-1.92,1.919c3.68,0.32,7.358,0.64,10.718,1.119c2.239-3.999,3.357-8.477,1.919-16.314
		C106.844,17.576,106.523,22.854,98.846,28.612L98.846,28.612z"/>
	<path id="path3101" inkscape:connector-curvature="0" fill="#F59814" d="M78.373,31.971c4.16,0,8.318,0.16,12.316,0.48
		c0.161-0.16,0.321-0.32,0.48-0.48c2.56-2.879,6.879-5.278,8.958-8.478c2.239-3.358,1.439-7.357,0.639-12.156
		c-1.438-8.317,2.082-9.756,2.082-9.756s-7.039,0.959-6.879,4.958c0.16,5.437,5.757,10.555-2.719,12.156
		c-9.277,1.599-15.036,6.717-16.315,13.275C77.414,31.971,77.893,31.971,78.373,31.971L78.373,31.971z"/>
	<path id="path3103" inkscape:connector-curvature="0" fill="#FFFFFF" d="M39.667,179.44l4.958-20.792h-8.318l-5.119,20.792H39.667z
		"/>
	<path id="path3105" inkscape:connector-curvature="0" fill="#FFFFFF" d="M57.9,163.766l0.479,8.479h-4.319l4.479,7.196h7.517
		l-1.119-20.792H52.302L42.065,179.44h7.997L57.9,163.766L57.9,163.766z"/>
	<path id="path3107" inkscape:connector-curvature="0" fill="#FFFFFF" d="M38.547,198.474l-1.76,7.038h7.838l5.118-20.633h-7.838
		l-1.919,7.997h-5.917l1.918-7.997H28.15l-5.118,20.633h7.837l1.76-7.038H38.547L38.547,198.474z"/>
	<path id="path3109" inkscape:connector-curvature="0" fill="#FFFFFF" d="M57.261,200.873l0.64-2.879h9.597l1.279-4.479H59.02
		l0.64-3.04h9.757l1.599-5.597H53.262l-5.119,20.633h17.594l1.28-4.639H57.261L57.261,200.873z"/>
	<path id="path3111" inkscape:connector-curvature="0" fill="#FFFFFF" d="M107.802,179.44l5.119-20.792h-8.476l-5.119,20.792
		H107.802z"/>
	<path id="path3113" inkscape:connector-curvature="0" fill="#FFFFFF" d="M121.719,174.642c1.12,1.6,2.238,4.639-2.88,7.038
		c-6.077,2.719,0,9.598-8.156,9.598h-3.519l-3.359,14.235h-8.317l3.359-14.235h-5.598l1.759-6.398h14.556
		c8.636,0,2.558-6.077,6.877-6.878C119.479,177.521,121.398,176.88,121.719,174.642z"/>
	<path id="path3115" inkscape:connector-curvature="0" fill="#FFFFFF" d="M16.794,169.364l-1.439-10.716H5.118L0,179.44h7.677
		l2.72-10.876h0.16l1.439,10.876h4.479l6.238-10.876h0.16l-2.558,10.876h7.197l5.118-20.792h-9.917L16.794,169.364L16.794,169.364z"
		/>
	<path id="path3117" inkscape:connector-curvature="0" fill="#FFFFFF" d="M85.09,169.364l-1.439-10.716H73.416l-5.119,20.792h7.677
		l2.718-10.876h0.16l1.441,10.876h4.478l6.239-10.876h0.159L88.61,179.44h7.197l5.118-20.792H91.01L85.09,169.364L85.09,169.364z"/>
	<path id="path3119" inkscape:connector-curvature="0" fill="#FFFFFF" d="M83.811,189.838l0.48,8.477h-4.317l4.317,7.197h7.678
		l-1.119-20.633c0,0-12.796,0-12.637,0c0,0-10.396,20.633-10.236,20.633h7.997L83.811,189.838L83.811,189.838z"/>
	<path id="path3121" inkscape:connector-curvature="0" fill="#BF2F38" d="M15.355,115.303c1.119,5.278,3.998,11.517,9.916,15.674
		c1.92,1.28,3.839,2.24,5.918,3.039c-1.279-2.079-2.718-4.319-4.317-6.558c-2.88-4.159-5.758-8.638-7.678-13.275
		c-1.919-4.799-2.399-9.757-1.599-14.875c-1.439,4.159-2.399,8.478-2.399,13.275C15.195,113.383,15.355,114.343,15.355,115.303
		L15.355,115.303z"/>
	<path id="path3123" inkscape:connector-curvature="0" fill="#BF2F38" d="M21.753,113.224c1.759,4.317,4.639,8.636,7.357,12.635
		c2.24,3.199,4.319,6.237,5.758,9.276c1.759,0.48,3.679,0.8,5.438,0.8c-1.919-2.719-3.519-5.759-4.958-9.276
		c-5.438-13.756-4.638-30.709,2.081-40.467c3.518-5.118,7.836-8.477,13.275-11.516c4.639-2.559,7.517-3.199,10.555-4.958
		c3.2-2.079,4.958-5.278,2.88-12.476c-0.64-2.079-0.8-3.839-0.64-5.118c-0.799,1.439-1.279,3.199-1.599,5.118
		c-0.321,1.919-0.48,4.159-1.281,6.558c-2.878,7.517-16.793,11.676-18.553,12.156c-5.278,1.601-9.436,3.999-12.795,6.877
		C19.834,91.311,18.074,103.946,21.753,113.224L21.753,113.224z"/>
	<path id="path3125" inkscape:connector-curvature="0" fill="#BF2F38" d="M79.494,45.406c0.159,0.48,0.32,0.959,0.32,1.439
		c0.48,2.56-0.32,4.798-3.52,5.278c-3.358,0.479-4.479-2.399-4.798-4.639c0-0.959,0.16-1.599,0.16-2.079
		c-0.48,0-1.12,0.16-1.599,0.16c-1.12,0.479-2.559,1.439-3.839,2.879c-0.64,1.439-1.439,3.358-0.16,7.997
		c2.08,7.997,1.119,12.955-5.278,15.675c-8.317,3.678-13.595,5.757-20.792,14.714c-3.359,4.159-5.278,11.196-5.438,18.394
		c-0.32,6.877,1.12,14.235,3.518,20.313c1.601,3.998,3.519,7.518,5.759,10.557c2.239-0.16,4.478-0.48,6.718-0.96
		c-2.56-2.878-4-6.397-4.159-10.395c-0.799-13.117,6.238-18.555,17.114-27.352l4.799-4.159
		C87.81,76.755,82.052,59.961,84.291,45.566C82.692,45.566,81.092,45.566,79.494,45.406L79.494,45.406z"/>
	<path id="path3127" inkscape:connector-curvature="0" fill="#BF2F38" d="M87.33,45.726c-0.639,2.88-0.798,5.918-0.958,8.958
		c-0.8,12.476-0.48,26.71-16.315,40.785l-4.799,3.839c-10.557,8.478-16.634,13.755-16.155,25.271c0.16,3.839,1.76,7.198,4.479,9.756
		c2.879-0.799,5.758-2.079,8.638-3.677c13.755-7.839,22.392-19.514,25.75-34.549c2.079-9.437,2.079-17.114,1.919-23.352
		c0-3.04,0.48-9.277,0.48-9.277c0.481-3.838,1.121-9.276,5.599-16.315c0.16-0.32,0.16-0.48,0.319-0.799
		C93.568,46.206,90.53,45.886,87.33,45.726L87.33,45.726z"/>
	<path id="path3129" inkscape:connector-curvature="0" fill="#BF2F38" d="M91.969,85.873L91.969,85.873L91.969,85.873
		c-0.479,2.399-0.479,4.799-0.8,7.357c-0.159,0.959-0.319,1.92-0.319,2.72c-0.161,0.32-0.161,0.64-0.161,0.799
		c-3.518,15.834-12.476,27.991-27.03,36.308c-2.4,1.438-4.958,2.559-7.517,3.357c4.317,2.88,9.276,3.68,12.635,3.2
		c12.956-1.919,19.353-10.396,22.392-19.513c3.039-9.277,2.72-19.195,2.56-23.192c-0.48-13.755,10.076-18.874,10.076-18.874
		C95.647,77.556,92.929,81.234,91.969,85.873L91.969,85.873z"/>
	<path id="path3131" inkscape:connector-curvature="0" fill="#BF2F38" d="M83.331,136.574c-5.278,4.479-11.036,5.438-13.595,5.759
		c-5.119,0.8-11.196-0.32-16.635-4.638l-0.16-0.16c-2.398,0.64-4.639,0.959-6.877,1.119c5.278,5.759,12.156,8.797,21.433,9.436l0,0
		l0,0c6.397-2.399,11.836-6.558,15.994-11.676L83.331,136.574L83.331,136.574z"/>
	<path id="path3133" inkscape:connector-curvature="0" fill="#BF2F38" d="M35.028,146.012c0-2.879-0.799-5.758-2.079-8.638
		c-3.199-0.8-6.238-2.239-9.277-3.998c-1.759-1.12-3.198-2.719-4.479-4.159l0,0C22.553,136.414,28.15,142.173,35.028,146.012
		L35.028,146.012L35.028,146.012z"/>
	<path id="path3135" inkscape:connector-curvature="0" fill="#BF2F38" d="M61.419,150.01c-5.118-1.279-9.597-3.039-13.436-6.078
		c-1.919-1.439-3.838-3.198-5.438-5.119c-2.079,0-4.158-0.16-6.237-0.639c1.121,3.038,1.759,6.078,1.279,9.116l0,0
		c4.958,2.24,10.237,3.519,15.995,3.519c2.72,0,5.438-0.32,7.997-0.8C61.579,150.01,61.579,150.01,61.419,150.01z"/>
	<path id="path3137" inkscape:connector-curvature="0" fill="#BF2F38" d="M106.043,55.963c-0.958,2.878-3.839,2.559-4.799,0.959
		c-1.279-2.56-0.799-4.479,0.64-5.918c1.44-1.279,3.679-2.079,5.917-3.04l0,0c-2.559-0.479-5.276-0.799-8.156-1.119
		c-0.16,0-0.16,0-0.16,0c-0.32,0.32-0.48,0.64-0.8,0.959c-4.639,6.878-5.118,12.156-5.598,15.995l-0.16,1.279
		c-0.32,2.08-0.32,4.639-0.16,7.678c0,0.48,0,0.959,0,1.279c-0.16,1.12-0.16,2.079-0.16,3.2l0,0c0-0.481,0.16-0.641,0.16-0.321
		c1.279-4.158,3.679-6.717,7.038-8.157c3.679-1.439,7.197-2.879,7.357-8.157c0.16-2.24,0.32-4.479,0.799-5.598
		c0.961-2.08,2.56-2.56,2.56-2.56C108.762,52.284,106.844,53.083,106.043,55.963L106.043,55.963z"/>
	<path id="path3139" inkscape:connector-curvature="0" fill="#FFFFFF" d="M78.373,34.05C39.507,33.73,7.038,43.807,5.918,56.443
		c-0.479,5.118,4.159,9.916,12.315,13.755c4.958,2.4,11.356,4.479,18.715,6.078c1.599-0.64,3.038-1.119,4.637-1.599
		c1.28-0.479,3.679-1.279,6.398-2.398c-10.876-1.601-19.673-3.999-25.111-6.879c-3.999-2.239-6.237-4.637-5.917-7.197
		c0.64-8.636,27.831-15.194,60.619-14.874c32.789,0.32,58.86,7.517,58.06,15.994c-0.16,2.4-2.399,4.639-6.077,6.558
		c-6.877,3.519-18.874,6.399-33.589,7.678c-0.48,0.64-0.96,1.439-1.44,2.239c6.717-2.559,14.396,1.279,14.396,1.279
		s0.64,0.161,0.959,0.481c9.756-1.76,18.074-4.319,24.312-7.199c7.517-3.678,11.995-7.837,12.475-12.476
		C147.79,45.086,117.08,34.53,78.373,34.05L78.373,34.05z"/>
</g>
</svg>
