<?xml version="1.0" encoding="utf-8"?>
<!-- Generator: Adobe Illustrator 16.0.4, SVG Export Plug-In . SVG Version: 6.00 Build 0)  -->
<!DOCTYPE svg PUBLIC "-//W3C//DTD SVG 1.1//EN" "http://www.w3.org/Graphics/SVG/1.1/DTD/svg11.dtd">
<svg version="1.1" id="Layer_1" xmlns="http://www.w3.org/2000/svg" xmlns:xlink="http://www.w3.org/1999/xlink" x="0px" y="0px" viewBox="0 0 197.136 446.977" enable-background="new 0 0 197.136 446.977"
	 xml:space="preserve">
<g>
	<path fill-rule="evenodd" clip-rule="evenodd" fill="#FFFFFF" d="M183.599,13.608C175.248,5.256,163.583,0,150.839,0H46.296
		c-12.744,0-24.408,5.256-32.76,13.608C5.184,21.96,0,33.552,0,46.368v354.312c0,12.743,5.184,24.407,13.536,32.688
		c8.352,8.425,20.016,13.608,32.76,13.608h104.471c12.744,0,24.408-5.184,32.762-13.536c8.424-8.28,13.607-20.017,13.607-32.76
		V46.368C197.136,33.552,191.953,21.96,183.599,13.608z"/>
	<path fill-rule="evenodd" clip-rule="evenodd" fill="#D63F52" d="M124.919,81.937l0.145,1.512c3.168,1.872,4.824,3.384,8.064,5.472
		c8.496,5.4,18.936,14.977,17.639,47.88c2.449,7.2,3.529,21.24,5.689,25.704c4.393,8.856,7.416,14.616,8.711,22.896
		c0,0,1.297,12.96,2.953,13.896c8.783,2.017,6.264,2.88,7.488,4.464c1.367,1.729,6.479,1.656,6.479,6.408
		c1.801,2.376,3.17,4.752,4.105,7.344V46.368c0-19.584-15.84-35.424-35.354-35.424h-33.768c5.4,1.944,8.496,4.248,10.297,7.848
		c4.318,0.36,9.432,10.08,1.439,24.552c3.527,2.448,0.791,6.049-1.729,10.152c-0.791,1.296-1.584,3.672-3.959,3.528
		c-3.168,6.552-6.84,12.744-9.648,13.104c-0.791,1.008-1.369,3.816-0.145,5.112C117.431,77.112,122.4,79.561,124.919,81.937z"/>
	<path fill-rule="evenodd" clip-rule="evenodd" fill="#D63F52" d="M156.457,435.601l-0.361,0.072
		c15.48-9.433,5.904-27.288,2.953-37.8l0.576-1.801c0.791-1.44-0.863-4.824-0.863-4.824c-1.945-1.583-2.377-10.367-3.385-14.399
		c-1.656-6.552,2.951-18,2.951-21.888c0-3.889-2.951-9.217-8.279-15.984c-1.297-1.512-5.184-34.704-8.641-43.128
		c-4.824-11.592-6.264-9.721-12.023-23.616c-4.393-9.721-0.936-24.048-10.873-57.312l2.232-2.088c0,0-7.92-28.944-10.512-36.864
		c-2.52-7.92-7.199-8.424-7.199-8.424l0.287-4.104c0.361-1.225,9.648-25.345,10.441-26.137c0.07-0.504,13.391-9.647,13.607-8.279
		c1.08,5.903,6.264,35.928,8.496,40.68c2.23,4.824,9.936,19.512,13.463,28.656c-13.752,3.384-24.047,15.84-24.047,30.601
		c0,17.424,14.111,31.607,31.535,31.607c13.32,0,24.84-8.279,29.449-19.943l-0.072,160.056
		C186.193,418.393,173.449,433.008,156.457,435.601z"/>
	<g>
		<path fill-rule="evenodd" clip-rule="evenodd" fill="#046DB2" d="M120.599,411.553l-1.15-11.592h-4.033v36.071h35.424
			c-11.951-6.479-4.824-18.72-4.463-42.12l0,0c-5.689-5.111-1.873-7.2-2.088-9.287c-3.744-15.48-16.057-24.841-9.721-29.953
			c-1.584-5.184-4.752-11.52-4.607-11.447c-5.111-2.952-10.008-6.408-14.545-9.936v25.271h8.064l9.936,52.992H120.599
			L120.599,411.553z M115.416,391.608v-25.056h0.072v1.296l2.809,23.76H115.416z M115.416,399.961h-4.463l-1.297,11.592H97.56
			l9.721-52.992h8.135v-25.271c-12.383-9.577-21.671-19.657-23.688-21.601c-3.312-3.672-9-7.345-10.152-10.296
			c-0.072-0.072-0.144-0.145-0.216-0.216v57.384h1.368c8.856,0,13.176,3.384,13.176,12.456c0,5.615-0.792,10.512-6.696,12.527v0.072
			c5.904,1.08,8.064,5.544,8.064,12.168c0,8.928-3.312,15.769-14.184,15.769l0,0H81.36v24.479h34.055V399.961L115.416,399.961z
			 M115.416,366.553v25.056h-3.24l3.096-23.76v-1.296H115.416L115.416,366.553z M81.36,402.553v-14.4h0.504l0,0
			c3.816,0,4.248,3.528,4.248,7.128c0,5.256-0.432,7.272-4.536,7.272H81.36L81.36,402.553z M81.36,379.512v-11.951h0.432
			c3.024,0,3.744,2.088,3.744,5.76l0,0C85.536,376.632,85.176,379.512,81.36,379.512L81.36,379.512L81.36,379.512z M81.36,68.473
			V10.944h24.624c-11.52,4.464-13.104,9.432-13.536,25.416c-1.944,0.216-5.976-1.656-4.608,8.063c0,0,0.72,6.48,3.312,5.4
			C89.136,63.937,90.72,67.32,81.36,68.473z M81.36,10.944v57.528c-2.016,0.216-4.464,0.359-7.488,0.504l-0.936,1.296
			c-12.816,1.224-19.224,0.359-27.432,11.304V10.944c0.288,0,0.504,0,0.792,0H81.36L81.36,10.944z M81.36,301.177v57.384H65.376
			v52.992H81.36v24.479H46.296c-0.288,0-0.504,0-0.792,0v-38.159l3.816,13.68h11.952v-52.992H50.688v31.248h-0.144l-0.36-2.16
			l-4.68-15.983V252.793l3.672,0.504C54.216,264.889,76.248,296.136,81.36,301.177L81.36,301.177z M81.36,367.561h-3.384v11.951
			h3.384V367.561L81.36,367.561z M81.36,388.152h-3.384v14.4h3.384V388.152z M45.504,10.944v70.632
			c-3.168,4.176-6.552,10.08-10.728,18.504c0,0-3.816,9.432-4.968,13.32c-3.672,7.704-12.672,24.768-15.336,35.712
			c-0.864,3.744-2.52,4.896-0.144,10.296c3.528,7.776-2.304,9.792,17.712,9.216v4.608c0,0-5.328,4.607-6.48,7.344
			c-1.08,2.808-4.176,16.56-4.032,23.112c0.36,17.063,14.256,31.319,18.36,48.312l5.616,0.793v118.872l-3.744-13.104H29.808v52.992
			h10.584v-32.76h0.144l0.216,1.872l4.752,17.208v38.159c-19.152-0.432-34.632-16.128-34.632-35.352V46.368
			C10.872,27,26.352,11.376,45.504,10.944z"/>
	</g>
</g>
</svg>
