<?xml version="1.0" encoding="utf-8"?>
<!-- Generator: Adobe Illustrator 16.0.4, SVG Export Plug-In . SVG Version: 6.00 Build 0)  -->
<!DOCTYPE svg PUBLIC "-//W3C//DTD SVG 1.1//EN" "http://www.w3.org/Graphics/SVG/1.1/DTD/svg11.dtd">
<svg version="1.1" xmlns="http://www.w3.org/2000/svg" xmlns:xlink="http://www.w3.org/1999/xlink" x="0px" y="0px" viewBox="0 0 190.067 141.185" enable-background="new 0 0 190.067 141.185"
	 xml:space="preserve">
<g id="Layer_1">
</g>
<g id="Layer_2">
	<g>
		<path fill="#AE864A" d="M99.584,4.853c0.391-1.863,2.383-4.464,5.243-4.464s4.854,2.08,4.854,4.204s-1.474,3.813-3.597,3.813
			s-2.73-1.43-2.73-1.863s0.261-1.083,1.04-1.083s0.867,0.65,1.777,0.65s1.213-0.867,1.213-1.517s-0.649-1.863-2.427-1.863
			s-3.293,1.993-3.293,3.684s0.736,3.987,4.637,3.987s3.9-2.773,10.747-2.773s11.094,5.547,11.094,5.547
			c18.287,2.687,40.864,10.27,49.878,14.43s11.614,11.181,11.614,15.211s0,11.527,0,11.527h-0.606c0,0,1.04,1.343,1.04,4.16
			s0,7.541,0,7.541c0,4.724-3.25,11.05-9.577,13.693c-4.247,6.283-8.797,6.934-8.797,6.934l1.126,0.217
			c-5.027,6.89-10.963,7.367-10.963,7.367l1.126,0.477c-6.24,5.547-11.873,5.851-11.873,5.851
			c-7.28,22.101-27.908,40.604-56.033,40.604c-30.118,0-50.225-21.451-56.075-40.519c-7.15-1.04-11.917-5.894-11.917-5.894
			l0.78-0.562c-6.457-1.213-10.704-7.324-10.704-7.324l1.083-0.26c-6.5-2.123-8.451-6.803-8.451-6.803
			c-5.07-1.3-8.624-7.367-8.624-8.494s0-13.391,0-13.391S0,56.509,0,54.082s1.213-4.377,1.213-4.377v-6.197
			c0,0-1.17-0.867-1.17-3.077s0-6.89,0-6.89c17.161-8.797,37.398-16.337,61.622-20.324c0,0,4.594-5.547,11.137-5.547
			c6.11,0,7.324,2.817,10.66,2.817c2.037,0,4.811-0.606,4.811-3.813c0-2.427-1.647-3.987-3.164-3.987s-2.557,1.343-2.557,1.95
			s0.606,1.517,1.3,1.517s0.954-0.65,1.517-0.65s1.17,0.52,1.17,1.126s-0.78,1.777-2.817,1.777S80.3,6.673,80.3,4.593
			s2.037-4.247,4.637-4.247c4.247,0,5.46,4.507,5.46,4.507L95.034,0L99.584,4.853z M111.718,11.18c0,0,8.667,0.434,12.523,1.3
			C120.515,9.62,115.965,9.056,111.718,11.18z M65.696,12.523c0,0,6.847-0.953,12.61-1.343C73.453,9.143,69.163,9.836,65.696,12.523
			z"/>
		<path fill="#162047" d="M94.971,3.464c-2.799,2.621-4.11,4.616-4.199,6.88c0,0-2.561,0.447-3.097,2.8
			C61.883,13.889,36.358,19.905,12.71,30.18v1.4c0,0-1.667-0.685-2.561-0.298s-7.684,3.723-7.684,3.723s0,2.531,0,4.586
			c0,2.383,1.132,2.889,1.132,2.889v8.161c0,0-1.132,1.638-1.132,3.484c0,2.025,1.132,2.681,1.132,2.681v14.059
			c1.638,3.604,5.152,7.715,12.568,7.596c0,0-1.25,0.924-3.455,1.847c0,0,3.038,5.242,11.675,5.033l-3.872,2.024
			c0,0,4.05,5.54,12.896,5.391l-3.216,1.757c0,0,4.735,4.29,10.9,4.171c2.562,11.437,18.436,40.029,54.116,40.029
			c25.255,0,46.552-16.353,53.849-39.852c0,0,6.554-0.505,10.753-4.377l-3.246-1.697c0,0,7.953,0.535,12.837-5.511l-4.08-1.995
			c0,0,7.894,0.743,11.884-4.975l-3.396-1.787c9.322,0.148,13.85-7.773,13.85-12.449s0-3.365,0-7.327
			c0-4.349-3.604-9.322-3.604-9.322l3.187,1.399c0,0,0-3.604,0-8.19s-3.991-9.769-9.263-12.241s-35.919-16.173-75.56-17.305
			c0,0-0.328-1.906-3.098-2.77C99.086,7.069,96.843,5.369,94.971,3.464z"/>
		<path fill="#D71F33" d="M95.005,20.68c0.804-0.238,0.625-1.221,0.625-1.221s0.983-0.089,0.983-0.477
			c0-0.745-0.804-0.596-1.042-1.459h2.145v-1.072h-0.864c-0.119-0.625,0.149-1.43,0.923-1.43c0.775,0,1.162,0.536,0.774,1.311
			c1.34-0.179,1.608-1.013,1.608-1.757s-0.447-1.876-1.877-1.876s-2.263,1.608-2.322,3.812h-0.387
			c-0.18-3.306,1.311-3.961,1.311-5.689s-1.848-3.693-1.848-3.693h-0.029c0,0-1.847,1.965-1.847,3.693s1.489,2.383,1.311,5.689
			h-0.387c-0.06-2.204-0.893-3.812-2.323-3.812s-1.876,1.132-1.876,1.876s0.269,1.579,1.608,1.757c-0.387-0.774,0-1.311,0.774-1.311
			s1.042,0.805,0.923,1.43h-0.864v1.072h2.145c-0.238,0.864-1.042,0.715-1.042,1.459c0,0.387,0.983,0.477,0.983,0.477
			s-0.178,0.983,0.625,1.221H95.005z"/>
		<path fill="#D71F33" d="M76.891,105.051c0,0-5.15,2.328-11.44,2.328s-11.144-1.387-11.144-1.387l3.293-2.353
			c0,0-6.761,0.545-11.366-1.09c4.655,12.06,20.429,32.538,48.461,32.538c15.625,0,37.739-6.836,49.031-32.562
			c0,0-2.377,1.634-11.168,1.089l3.269,2.525c0,0-3.59,1.04-11.168,1.04s-8.865-1.239-11.218-2.13
			c-2.922,9.633-11.515,13.893-18.547,13.893C86.227,118.942,78.303,112.504,76.891,105.051z"/>
		<path fill="#FFFFFF" d="M89.873,19.008v-0.506c0,0-1.338-0.803-2.171-2.26c-32.447,0.832-61.118,11.45-63.378,12.461
			s-1.814,3.688-1.814,3.688C38.748,26.145,62.601,19.662,89.873,19.008z"/>
		<path fill="#FFFFFF" d="M100.186,19.008v-0.506c0,0,1.338-0.803,2.172-2.26c32.447,0.832,63.056,12.252,65.316,13.263
			c2.26,1.011,1.814,3.688,1.814,3.688C153.249,26.947,129.31,19.87,100.186,19.008z"/>
		<path fill="#FFFFFF" d="M95.007,65.936c0.49,0,0.382,3.406,0.654,4.904s0.98,1.362,1.471,0.49
			c1.989-3.679,3.651-4.767,5.204-4.304c-0.437,0.545-0.409,1.062-0.518,2.534c-0.109,1.472-1.635,2.343-2.697,2.343
			s-1.744,1.525-0.817,2.834c1.444-1.879,2.942-2.97,4.413-2.807c0,0,0.817-1.58,0.817-4.086c0-4.986-2.643-7.274-2.643-7.274
			l-0.327,0.49c-1.607-0.735-3.078-2.016-5.53-2.016h-0.055c-2.452,0-3.923,1.281-5.531,2.016l-0.327-0.49
			c0,0-2.643,2.288-2.643,7.274c0,2.506,0.817,4.086,0.817,4.086c1.471-0.163,2.969,0.928,4.413,2.807
			c0.926-1.309,0.245-2.834-0.817-2.834s-2.588-0.871-2.697-2.343c-0.109-1.471-0.082-1.989-0.518-2.534
			c1.553-0.463,3.215,0.625,5.204,4.304c0.49,0.872,1.198,1.008,1.471-0.49S94.517,65.936,95.007,65.936z"/>
		<path fill="#D71F33" d="M89.857,69.097l-0.572,0.218c0,0,0.027,1.307,0.735,1.471s0.981,0.055,0.981,0.055v-0.381
			C91.002,70.459,89.694,70.731,89.857,69.097z"/>
		<path fill="#D71F33" d="M100.155,69.097l0.571,0.218c0,0-0.026,1.307-0.734,1.471c-0.709,0.164-0.981,0.055-0.981,0.055v-0.381
			C99.011,70.459,100.318,70.731,100.155,69.097z"/>
		<path fill="#D71F33" d="M89.34,76.507c-0.463,0.272-0.408,1.146,0.327,4.169s2.779,13.513,2.779,13.513
			s-0.927-13.403-1.036-14.957S90.402,76.507,89.34,76.507z"/>
		<path fill="#D71F33" d="M100.676,76.507c0.463,0.272,0.408,1.146-0.327,4.169S97.57,94.188,97.57,94.188
			s0.926-13.403,1.035-14.957S99.613,76.507,100.676,76.507z"/>
		<path fill="#D71F33" d="M95.111,112.848c1.035-2.234,1.672-3.05,1.672-3.05s-0.898-1.635-0.898-8.255s0.735-13.947,1.226-19.614
			s0.272-5.912,0.272-5.912H97.22c-0.109,0.626-0.709,1.935-0.709,1.935s0-2.016,0-2.942s-0.845-1.635-1.308-1.635h-0.278
			c-0.463,0-1.308,0.708-1.308,1.635s0,2.942,0,2.942s-0.6-1.309-0.708-1.935h-0.164c0,0-0.218,0.245,0.272,5.912
			s1.226,12.994,1.226,19.614s-0.899,8.255-0.899,8.255s0.708,0.844,1.744,3.078L95.111,112.848z"/>
		<path fill="#FFFFFF" d="M79.621,53.935c-10.57,0-42.73,6.113-67.297,18.363c0,0,0.447,0.896,3.448,0.896
			c1.993,0,2.911-0.695,7.368-2.441c4.457-1.747,28.62-11.107,52.717-12.965c0,0-2.352,4.748-2.352,10.615
			c0,10.683,8.174,15.812,9.697,16.953l0.851-0.873c-5.33-4.882-7.48-9.562-7.48-14.557c0-6.495,4.099-12.43,5.129-13.751
			S82.557,53.935,79.621,53.935z"/>
		<path fill="#FFFFFF" d="M110.344,53.935c10.57,0,42.73,6.113,67.297,18.363c0,0-0.447,0.896-3.448,0.896
			c-1.993,0-2.911-0.695-7.368-2.441c-4.456-1.747-28.619-11.107-52.717-12.965c0,0,2.352,4.748,2.352,10.615
			c0,10.683-8.174,15.812-9.697,16.953l-0.851-0.873c5.33-4.882,7.479-9.562,7.479-14.557c0-6.495-4.099-12.43-5.129-13.751
			C107.232,54.853,107.408,53.935,110.344,53.935z"/>
		<path fill="#AE864A" d="M68.962,64.1c-13.205,1.948-24.624,4.695-36.441,8.804c0,0,1.227,3.655,7.522,3.655
			c4.962,0,6.616-1.921,28.705-6.75C68.749,69.809,68.669,66.82,68.962,64.1z"/>
		<path fill="#AE864A" d="M70.696,78.078c0,0-0.907-2.4-1.574-5.148c-10.324,1.974-22.97,5.762-29.105,8.243
			c0,0,2.588,3.015,8.217,3.015C52.502,84.188,54.556,82.533,70.696,78.078z"/>
		<path fill="#AE864A" d="M74.751,83.948c0,0-1.921-1.921-2.774-3.602c-8.243,2.721-18.594,6.242-22.542,7.736
			c0,0,1.734,2.348,6.109,2.348C58.504,90.431,62.026,89.203,74.751,83.948z"/>
		<path fill="#AE864A" d="M80.113,88.029c0,0-1.813-0.988-3.388-2.321c-6.323,2.802-13.899,6.162-16.567,7.63
			c0,0,1.387,1.067,5.815,1.067C69.842,94.405,74.484,92.271,80.113,88.029z"/>
		<path fill="#AE864A" d="M77.392,92.59c0,0-4.882,3.149-6.937,4.723c0,0,1.814,0.613,5.683,0.187
			C76.138,97.499,76.672,94.697,77.392,92.59z"/>
		<path fill="#AE864A" d="M121.047,64.1c13.205,1.948,24.623,4.695,36.441,8.804c0,0-1.227,3.655-7.523,3.655
			c-4.961,0-6.615-1.921-28.705-6.75C121.26,69.809,121.34,66.82,121.047,64.1z"/>
		<path fill="#AE864A" d="M119.312,78.078c0,0,0.907-2.4,1.574-5.148c10.324,1.974,22.97,5.762,29.105,8.243
			c0,0-2.588,3.015-8.217,3.015C137.507,84.188,135.453,82.533,119.312,78.078z"/>
		<path fill="#AE864A" d="M115.258,83.948c0,0,1.921-1.921,2.774-3.602c8.243,2.721,18.595,6.242,22.542,7.736
			c0,0-1.734,2.348-6.109,2.348C131.504,90.431,127.982,89.203,115.258,83.948z"/>
		<path fill="#AE864A" d="M109.896,88.029c0,0,1.812-0.988,3.387-2.321c6.323,2.802,13.899,6.162,16.567,7.63
			c0,0-1.387,1.067-5.815,1.067C120.166,94.405,115.525,92.271,109.896,88.029z"/>
		<path fill="#AE864A" d="M112.617,92.59c0,0,4.882,3.149,6.936,4.723c0,0-1.814,0.613-5.682,0.187
			C113.871,97.499,113.337,94.697,112.617,92.59z"/>
		<path fill="#AE864A" d="M89.095,85.027c-3.792,0.912-5.21,5.799-3.426,10.481s4.115,8.19,4.359,13.076
			c0,0,0.243,0.183,1.987,0.446c0,0,0.729-2.594,0.729-5.291C92.744,101.007,90.494,92.351,89.095,85.027z"/>
		<path fill="#FFFFFF" d="M90.258,90.667c-0.408-1.888-0.812-3.806-1.163-5.64c-3.377,0.812-4.872,4.776-3.897,8.942
			C85.198,93.97,86.879,91.72,90.258,90.667z"/>
		<path fill="#AE864A" d="M82.607,89.594c-3.082,4.136-3.487,6.304-3.487,7.562s2.128,7.218,8.434,10.441
			C86.155,99.55,82.283,98.354,82.607,89.594z"/>
		<path fill="#FFFFFF" d="M83.358,96.125c-0.532-1.721-0.854-3.742-0.751-6.531c-3.082,4.136-3.487,6.304-3.487,7.562
			c0,0.662,0.589,2.628,2.067,4.811C81.188,101.966,81.595,98.296,83.358,96.125z"/>
		<path fill="#AE864A" d="M79.019,102.955c0.933,3.73,2.412,7.237,6.751,10.319c0,0,1.581-0.952,1.946-3.061
			C84.229,109.038,81.756,106.463,79.019,102.955z"/>
		<path fill="#FFFFFF" d="M81.22,105.601c-0.731-0.807-1.456-1.691-2.201-2.646c0.68,2.721,1.651,5.322,3.81,7.727
			C82.829,110.682,81.616,108.266,81.22,105.601z"/>
		<path fill="#AE864A" d="M92.684,111.572c0,0-1.419-0.204-2.696-0.487c-0.264,0.913-0.345,1.703-2.129,3.406
			c0,0,2.312,1.398,5.92,1.581C93.92,113.6,93.657,113.397,92.684,111.572z"/>
		<path fill="#AE864A" d="M101.002,85.027c3.791,0.912,5.21,5.799,3.426,10.481s-4.115,8.19-4.359,13.076
			c0,0-0.242,0.183-1.986,0.446c0,0-0.729-2.594-0.729-5.291C97.353,101.007,99.603,92.351,101.002,85.027z"/>
		<path fill="#FFFFFF" d="M99.839,90.667c0.408-1.888,0.812-3.806,1.163-5.64c3.377,0.812,4.871,4.776,3.896,8.942
			C104.898,93.97,103.217,91.72,99.839,90.667z"/>
		<path fill="#AE864A" d="M107.489,89.594c3.081,4.136,3.487,6.304,3.487,7.562s-2.129,7.218-8.434,10.441
			C103.941,99.55,107.813,98.354,107.489,89.594z"/>
		<path fill="#FFFFFF" d="M106.738,96.125c0.532-1.721,0.854-3.742,0.751-6.531c3.081,4.136,3.487,6.304,3.487,7.562
			c0,0.662-0.59,2.628-2.068,4.811C108.908,101.966,108.502,98.296,106.738,96.125z"/>
		<path fill="#AE864A" d="M111.078,102.955c-0.934,3.73-2.412,7.237-6.752,10.319c0,0-1.58-0.952-1.945-3.061
			C105.867,109.038,108.341,106.463,111.078,102.955z"/>
		<path fill="#FFFFFF" d="M108.877,105.601c0.731-0.807,1.457-1.691,2.201-2.646c-0.68,2.721-1.651,5.322-3.811,7.727
			C107.268,110.682,108.48,108.266,108.877,105.601z"/>
		<path fill="#AE864A" d="M97.413,111.572c0,0,1.419-0.204,2.696-0.487c0.264,0.913,0.345,1.703,2.129,3.406
			c0,0-2.312,1.398-5.92,1.581C96.176,113.6,96.439,113.397,97.413,111.572z"/>
		<path fill="#FFFFFF" d="M15.945,32.172v20.134l-5.495-17.701l-4.749,2.237c0,0,0,1.236,0,1.845c0,1.04,1.138,0.922,1.138,0.922
			v11.244c0,0-1.177,0.745-1.177,1.942c0,1.374,1.197,1.119,1.197,1.119v15.994l3.238-1.629V48.027l5.436,17.583
			c0,0,0.118,0.354,2.218-0.647c1.472-0.628,1.491-1.119,1.491-1.884s0-14.796,0-14.796s1.08-0.667,1.08-1.785
			s-1.099-1.06-1.099-1.06V34.018c0,0,1.197-1.217,1.197-2.041s0-1.747,0-1.747L15.945,32.172z"/>
		<path fill="#FFFFFF" d="M21.812,35.352v2.237c0,0,0.333,0.432,1.119,0.589v8.772c0,0-1.119,0.706-1.119,1.942
			s1.138,1.099,1.138,1.099v12.933c0,0,9.303-3.316,10.5-3.709s1.06-1.237,1.06-1.786s0-7.497,0-7.497s-3.375,0.667-3.611,2.021
			v4.867l-4.259,1.55v-9.517l5.515-2.08v-3.179l-5.515,1.943v-8.634l4.258-1.59c0,0,0,3.866,0,4.69s1.04,0.844,3.591-0.196
			c0,0,0-7.496,0-8.085s-0.647-0.746-2.001-0.275S21.812,35.352,21.812,35.352z"/>
		<path fill="#FFFFFF" d="M41.024,28.956l-4.631,1.354c0,0,0,0.903,0,1.806s1.256,0.53,1.452,2.08s0.883,7.712,0.883,7.712
			s-0.981,0.53-0.981,1.589c0,1.236,1.413,1.158,1.413,1.158s1.433,11.676,1.472,11.931s0.274,0.412,2.806-0.255
			s3.002-0.373,3.336-2.198c0.353-2.021,3.199-18.349,3.199-18.349s2.983,16.779,3.081,17.446s0.667,0.609,3.218,0.157
			s2.905-0.53,3.042-1.727s1.354-11.931,1.354-11.931s1.374-0.489,1.374-1.667s-0.922-1.276-0.922-1.276l0.922-8.929
			c0,0,1.393-1.315,1.393-1.845s0-1.904,0-1.904l-4.788,1.021l-2.728,24.647c0,0-3.67-20.449-3.944-21.959
			c-0.274-1.727-3.905-1.06-4.16,0.51S43.89,52.506,43.89,52.506L41.024,28.956z"/>
		<path fill="#FFFFFF" d="M88.418,26.542c0,2.532,0,7.398,0,7.398s1.393,0.059,1.393,1.433s-1.433,1.511-1.433,1.511
			s0,4.239,0,7.889s-3.454,5.77-7.398,5.77s-6.181-2.041-6.181-4.69s0-8.046,0-8.046s-1.295-0.118-1.295-1.413
			s1.315-1.51,1.315-1.51s0-4.514,0-7.398s2.904-5.613,7.516-5.613C86.142,21.873,88.418,24.011,88.418,26.542z M81.805,25.071
			c-2.159,0-3.14,1.315-3.14,2.806s0,15.855,0,16.954s0.825,2.473,2.728,2.473s3.179-1.432,3.179-2.728s0-15.209,0-17.152
			S82.825,25.071,81.805,25.071z"/>
		<path fill="#FFFFFF" d="M90.557,23.246c0-0.432,0-1.452,0-1.452s5.946,0,8.556,0s5.672,2.041,5.672,5.436s0,2.728,0,4.631
			s-2.12,3.395-2.12,3.395s2.14,1.295,2.14,4.042s0,7.437,0,7.437s1.354,0.589,1.354,1.394s0,1.923,0,1.923
			s-1.138-0.177-2.865-0.157s-2.394-0.51-2.394-1.982s0-7.242,0-8.93s-1.55-2.08-3.336-2.08s-1.923,0.294-1.923,0.589
			s0,12.383,0,12.383h-3.788v-13.05c0,0-1.217-0.196-1.217-1.472c0-1.079,1.217-1.452,1.217-1.452v-8.792
			C91.852,25.109,90.557,24.286,90.557,23.246z M98.896,24.973c0,0-2.197,0-2.59,0s-0.647,0.294-0.647,0.824s0,6.987,0,7.418
			s0.392,0.628,0.902,0.628s1.336,0,2.355,0s1.981-0.962,1.981-2.434s0-3.611,0-4.376S100.054,24.973,98.896,24.973z"/>
		<path fill="#FFFFFF" d="M107.178,22.108c0,0,0,0.727,0,1.531c0,0.961,1.276,1.786,1.276,1.786v8.89c0,0-1.276,0.136-1.276,1.392
			s1.276,1.511,1.276,1.511v12.991c0,0,7.024,0.373,10.204,0.883c1.767,0.314,1.707-0.373,1.707-1.178s0-9.499,0-9.773
			s-3.729-0.942-3.729,0.471s0,7.104,0,7.104s-3.062,0.039-4.278-0.628V25.68c0,0,1.237-0.765,1.237-1.668s0-1.492,0-1.492
			L107.178,22.108z"/>
		<path fill="#FFFFFF" d="M121.876,23.463c0,0,0,0.392,0,1.472c0,1.472,1.335,2.061,1.335,2.061v8.792c0,0-1.315,0.157-1.315,1.295
			c0,1.295,1.296,1.629,1.296,1.629v12.972c0,0,9.146,1.413,10.48,1.766s1.394-0.431,1.394-1.393s0-7.045,0-7.241
			s-3.788-1.099-3.788,0.157s0,4.867,0,4.867l-4.258-0.726v-9.636c0,0,2.708,0.235,5.612,1.04v-3.14c0,0-0.274-0.471-5.672-1.158
			c0,0,0-7.614,0-8.104s0.354-0.647,1.472-0.451s2.846,0.549,2.846,0.549s0,2.964,0,4.278s1.138,1.883,3.807,2.119
			c0,0,0-7.751,0-8.203s0.001-0.667-2.354-1.119S121.876,23.463,121.876,23.463z"/>
		<path fill="#FFFFFF" d="M144.896,27.938c1.394,0.373,2.865,0.491,3.199,2.885s1.727,10.439,1.727,10.439
			c0.608,0.412,1.374,0.962,1.374,1.884s-0.903,1.217-0.903,1.217l2.336,13.776l-3.905-1.197l-0.942-7.261
			c-1.59-0.902-5.455-1.551-5.455-1.551l-1.178,6.947l-3.769-0.903l2.493-12.382c0,0-0.981-0.766-0.981-1.806s1.53-1.059,1.53-1.059
			l1.609-8.537c-1.079-0.981-1.138-1.334-1.138-2.001s0-1.433,0-1.433S143.503,27.565,144.896,27.938z M145.073,32.079
			l-2.237,12.696c0,0-0.059,0.432,4.416,1.295L145.073,32.079z"/>
		<path fill="#FFFFFF" d="M154.417,30.489c0,0,0,0.569,0,1.786c0,1.452,1.217,1.962,1.217,1.962v8.851c0,0-1.236,0.059-1.236,1.099
			c0,1.236,1.256,1.747,1.256,1.747v13.109l3.355,1.001V42.146c0,0,5.575,19.409,5.634,19.664s3.669,2.041,3.669,0.785
			s0-12.246,0-12.246s1.061,0.041,1.061-0.98c0-1.178-1.021-1.766-1.021-1.766v-8.968c0,0,1.158-0.648,1.158-1.158s0-1.629,0-1.629
			l-4.475-1.727v18.525c0,0-5.005-18.231-5.319-19.448s-1.433-1.354-2.826-1.805S154.417,30.489,154.417,30.489z"/>
		<path fill="#FFFFFF" d="M184.049,45.15c0,0,0-1.472,0-3.493c0-4.396-5.357-8.772-9.381-8.772c-1.785,0-3.062,1.157-3.062,3.473
			s0,3.454,0,5.71s1.041,3.964,4.416,7.398c-0.255,1.844,0.49,2.923,2.551,2.884c0,0,2.041,2.178,2.041,3.905s0,6.614,0,7.497
			s-1.471,1.628-3.218,0.569s-2.375-2.335-2.375-3.297s0-1.354,0-2.1s-1.923-2.139-3.729-2.551c0,0,0,1.256,0,3.002
			c0,5.417,6.378,9.106,10.048,9.106c2.649,0,3.042-1.904,3.042-3.375s0-4.768,0-7.417s-2.788-6.083-4.161-7.438
			c0.216-1.394-0.549-2.708-2.315-2.688c0,0-2.669-2.767-2.669-4.003s0-4.612,0-5.632s0.785-1.59,2.434-0.922
			s2.512,2.178,2.512,2.178s0,1.021,0,2.159S181.302,44.229,184.049,45.15z"/>
		<path fill="#FFFFFF" d="M67.314,113.379c1.812,1.797-0.984,4.203-2.328,2.953s-2.156-2.094-2.156-2.094l-1.594,1.688l-1.156-1.109
			l4.156-4.266C64.236,110.551,65.502,111.582,67.314,113.379z M66.236,113.879l-1.656-1.516l-1.031,1.094
			c0,0,1.125,1.094,1.672,1.594S66.986,114.598,66.236,113.879z"/>
		<polygon fill="#FFFFFF" points="76.252,119.566 71.471,116.66 68.252,121.848 73.221,124.863 73.861,123.848 70.189,121.598 
			70.893,120.504 74.236,122.551 74.846,121.504 71.486,119.504 72.143,118.426 75.658,120.535 		"/>
		<polygon fill="#FFFFFF" points="81.377,121.66 79.783,121.098 77.689,126.707 82.486,128.535 82.924,127.285 79.689,126.129 		"/>
		<polygon fill="#FFFFFF" points="89.596,123.395 87.971,123.348 86.986,129.348 88.627,129.551 		"/>
		<path fill="#FFFFFF" d="M99.018,125.863l1.641-0.5c0,0-0.75-1.734-3.438-1.734c-2.484,0-3.797,1.312-3.797,3.344
			s1.469,3.172,3.609,3.172s3.219-0.781,3.766-2.484h-1.75c0,0-0.375,1.219-1.906,1.219s-2.125-1.375-2.125-2.094s0.703-2,2.125-2
			S99.018,125.863,99.018,125.863z"/>
		<path fill="#FFFFFF" d="M112.08,126.848l-1.469,0.766l-1.031-1.125l-2.812,0.812l-0.078,1.328l-1.641,0.438l0.859-6.562
			l1.641-0.578L112.08,126.848z M107.236,123.754l-0.25,2.453l1.938-0.562l-1.625-1.875"/>
		<polygon fill="#FFFFFF" points="114.705,118.957 113.424,119.785 116.611,125.098 117.861,124.16 115.533,120.676 
			121.033,122.395 122.268,121.566 119.049,116.301 117.799,117.223 120.064,120.66 		"/>
		<path fill="#FFFFFF" d="M126.658,111.926l0.781-1.188c0,0-1.203-0.562-2.375,0.188c-1.174,0.751-1.578,1.391-1.938,2.031
			c-0.891,1.359,0.766,3.484,2.453,2.328s2.312-1.859,2.797-1.359s-0.578,2.547-2.766,2.312l-0.594,1.359
			c0,0,1.875,0.719,3.672-1.297s1.578-3.875-0.453-4.047c-1.641-0.016-3.156,2.609-3.891,1.781S125.658,111.598,126.658,111.926z"/>
	</g>
</g>
</svg>
