<?xml version="1.0" encoding="utf-8"?>
<!-- Generator: Adobe Illustrator 16.0.4, SVG Export Plug-In . SVG Version: 6.00 Build 0)  -->
<!DOCTYPE svg PUBLIC "-//W3C//DTD SVG 1.1//EN" "http://www.w3.org/Graphics/SVG/1.1/DTD/svg11.dtd">
<svg version="1.1"
	 id="svg7669" xmlns:svg="http://www.w3.org/2000/svg" xmlns:dc="http://purl.org/dc/elements/1.1/" xmlns:cc="http://creativecommons.org/ns#" xmlns:rdf="http://www.w3.org/1999/02/22-rdf-syntax-ns#"
	 xmlns="http://www.w3.org/2000/svg" xmlns:xlink="http://www.w3.org/1999/xlink" x="0px" y="0px" viewBox="52.354 87.586 708.662 448.306" enable-background="new 52.354 87.586 708.662 448.306"
	 xml:space="preserve">
<g>
	<g id="g5403" transform="matrix(7.8459447,0,0,-7.8459447,289.27063,247.05202)">
		<path id="path5405" fill="#C4CED4" d="M24.158,12.314l0.298-0.02l0.636-2.877l7.82-0.696V7.392l-8.754,0.731V12.314z
			 M60.126,0.367v12.559l-0.018,0.006c-0.092,0.031-7.159,2.504-11.277,3.431c-4.844,1.09-6.242-2.638-6.447-3.301v4.737
			c0,0-13.273,2.559-22.754,2.415c-1.636-0.025-4.095-0.616-4.875-4.054v4.165c0,0-9.115-0.26-12.5-0.57
			c-0.84-0.078-4.484-0.394-5.642-4.525l0.002,4.018c0,0-12.014-1.44-22.772-4.908c-1.562-0.504-4.039-2.323-4.039-5.056v-27.609
			l9.038,2.884v4.762l8.239,1.95l0.001-4.742c0,0,2.1,0.442,4.058,0.848c-4.161-3.55-7.546-8.031-9.639-12.976
			c5.468,4.697,10.907,9.255,18.991,11.441l-1.832-4.258c6.431,3.521,15.066,3.634,21.936,1.424l-0.519-1.138
			c-4.245,1.792-9.095,2.011-13.954,1.266c4.751-1.636,8.75-2.898,12.734-5.521c-0.265-7.411,5.817-14.494,13.656-14.428
			c12.605,0.096,18.408,14.869,11.368,23.993c0.721-0.555,1.6-0.948,2.931-1.352c4.448-1.248,13.314-3.87,13.314-3.87v11.79
			l-6.769,2.021l-0.74-3.293c-0.444,0.145-1.082,0.172-1.093,0.497c-0.006,0.162-0.002,8.884-0.003,13.312l0.537-3.433L60.126,0.367
			L60.126,0.367z"/>
	</g>
	<g id="g5407" transform="matrix(7.8459447,0,0,-7.8459447,507.78095,278.55882)">
		<path id="path5409" fill="#0C1E24" d="M24.158,12.314L24.911,7.5l6.518-2.007v0.001l0.015-0.004v10.882
			c0,0-6.492,2.277-10.672,3.225c-1.432,0.397-5.654,0.645-5.749-4.677V-3.471c0-3.169,1.673-5.283,4.838-6.115
			c4.816-1.265,11.583-3.338,11.583-3.338v10.09l-5.357,1.599l-0.737-3.28c-0.593,0.171-1.074,0.304-1.675,0.461
			c-0.659,0.172-0.799,0.525-0.826,0.876v15.859C22.938,12.657,23.972,12.369,24.158,12.314"/>
	</g>
	<g id="g5411" transform="matrix(7.8459447,0,0,-7.8459447,364.15465,199.78867)">
		<path id="path5413" fill="#0C1E24" d="M24.158,12.314V-16.99l1.465-0.127c0.44-0.054,3.961-0.636,4.386-0.725l2.001-0.507v29.451
			C32.025,11.147,27.114,11.958,24.158,12.314"/>
	</g>
	<g id="g5415" transform="matrix(7.8459447,0,0,-7.8459447,290.44043,331.69972)">
		<path id="path5417" fill="#0C1E24" d="M24.158,12.314V6.866c-0.151,0.01-0.878-0.049-0.96,0.433v5.086L24.158,12.314z
			 M24.947,23.858l0.639-2.892l6.487-0.578v8.943c0,0-9.447,0.896-12.09,0.896c-1.581,0-4.598-0.578-4.709-4.594V6.493
			c0-3.311,1.915-5.289,5.253-5.428c0,0,6.941-0.338,9.609-0.73l1.937-0.365v17.465v0.004l-8.875,0.713v5.804L24.947,23.858
			L24.947,23.858z"/>
	</g>
	<g id="g5419" transform="matrix(7.8459447,0,0,-7.8459447,139.3448,286.82154)">
		<path id="path5421" fill="#0C1E24" d="M24.158,12.314v5.571c0.017,0.35,0.822,0.316,0.934,0.323v-5.844
			C24.783,12.348,24.471,12.332,24.158,12.314 M21.417,24.022c-3.231-0.3-5.159-2.467-5.159-5.797l0.009-24.024l1.901,0.358
			c0.427,0.061,3.98,0.416,4.425,0.442l1.565,0.04V5.783c0.309,0.023,0.62,0.045,0.934,0.065v-10.78l1.791,0.206
			c0.385,0.03,3.872,0.161,4.46,0.161l1.69-0.093v29.225C33.033,24.567,24.932,24.345,21.417,24.022"/>
	</g>
	<g id="g5423" transform="matrix(7.8459447,0,0,-7.8459447,66.650547,199.98263)">
		<path id="path5425" fill="#0C1E24" d="M24.158,12.314c0,0-7.36-1.104-9.546-1.595c-0.504-0.114-0.984-0.302-1.433-0.555
			l-0.002,0.254c0,0-6.122-1.354-10.731-2.842C1.002,7.109-1.032,5.471-1.032,3.291v-26.424l7.417,2.35V1.225
			c0,0.402,0.352,0.713,1.046,0.925c0.034,0.01,0.078,0.021,0.13,0.033v-17.936l7.849,1.86V3.276
			c0.091,0.786,0.764,0.862,0.826,0.87v-22.569c0,0,6.099,1.227,6.446,1.271l1.475,0.129L24.158,12.314z"/>
	</g>
	<g id="g5427" transform="matrix(7.8459447,0,0,-7.8459447,528.41421,394.24194)">
		<path id="path5429" fill="#FFFFFF" d="M24.158,12.314l-0.736-3.276c-1.183,0.35-1.763,0.515-2.615,0.737
			c-0.831,0.217-1.329,0.695-1.485,1.424v16.762c0.276,0.948,1.509,0.146,3.048-0.167l0.754-4.82l4.73-1.456v8.931
			c0,0-5.878,2-9.932,2.972c-0.443,0.107-4.488,1.059-4.583-3.756V11.273c0-2.73,1.39-4.48,4.133-5.2
			C21.434,5.032,27.866,3.1,27.866,3.1v8.106L24.158,12.314z"/>
	</g>
	<g id="g5431" transform="matrix(7.8459447,0,0,-7.8459447,418.33793,215.5176)">
		<path id="path5433" fill="#FFFFFF" d="M24.158,12.314l-5.96,0.925v-27.357c0,0,4.818-0.727,5.122-0.799l0.841-0.213L24.158,12.314
			z"/>
	</g>
	<g id="g5435" transform="matrix(7.8459447,0,0,-7.8459447,284.92002,232.96133)">
		<path id="path5437" fill="#FFFFFF" d="M24.158,12.314c0.054,0,1.677-0.106,2.265-0.154l0.641-2.898l4.766-0.424v7.054
			c0,0-9.872,0.857-11.144,0.805c-1.182-0.048-3.595-0.251-3.763-3.649v-19.14c0-2.815,1.503-4.365,4.347-4.483
			c0,0,6.555-0.325,9.433-0.698l1.127-0.203v15.47v0.003l-7.211,0.581V0.695c0,0,0.965-0.07,1.201-0.087v-7.331
			c-0.9,0.061-2.79-0.145-2.864,1.424v16.922C23.021,11.933,23.262,12.314,24.158,12.314"/>
	</g>
	<g id="g5439" transform="matrix(7.8459447,0,0,-7.8459447,153.56479,292.98783)">
		<path id="path5441" fill="#FFFFFF" d="M24.158,12.314c-0.031-0.001-1.819-0.089-2.69-0.148v6.55
			c0.066,0.687,0.537,1.067,1.393,1.131c0,0,0.871,0.056,1.297,0.082V12.314z M19.685,23.934c-2.749-0.27-4.337-2.025-4.36-4.858
			h-0.002V-3.955l0.006,0.001v-0.001l0.099,0.019l0.933,0.166c0.788,0.095,4.079,0.423,4.382,0.435l0.725,0.018v10.7
			c0.872,0.069,1.772,0.132,2.69,0.186l0.008-10.716l0.817,0.08c0.281,0.028,3.907,0.166,4.547,0.166l0.813-0.043V24.45
			C30.343,24.45,23.285,24.287,19.685,23.934"/>
	</g>
	<g id="g5443" transform="matrix(7.8459447,0,0,-7.8459447,59.260477,208.59622)">
		<path id="path5445" fill="#FFFFFF" d="M24.158,12.314l-0.004-0.001v0.001c0,0-7.165-1.096-8.392-1.42
			c-0.974-0.257-1.69-0.643-2.544-1.601v1.049c0,0-4.973-1.093-9.539-2.568C2.54,7.406,0.856,6.076,0.856,4.389v-25.042l5.528,1.728
			L6.381,2.323c-0.03,1.786,2.557,2.014,3.067,2.101V-13.46l5.951,1.409c0,0,0.004,15.563,0.004,16.471
			c0.202,1.952,2.38,1.817,2.726,1.938l0.005-22.462l2.912,0.506l0.002,0.001l3.096,0.537v0.086l0.014,0.003V12.314z"/>
	</g>
	<g id="g5447" transform="matrix(7.8459447,0,0,-7.8459447,552.1121,406.84504)">
		<path id="path5449" fill="#0474BC" d="M24.158,12.314l-2.52,0.752l-0.736-3.275c-1.637,0.486-2.273,0.673-3.286,0.937
			c-0.965,0.251-1.944,0.934-2.035,2.395v16.269c0.191,1.257,1.025,1.482,2.03,1.208c0.009,0.018,1.075-0.294,2.34-0.674
			l0.755-4.824l3.452-1.063v7.536c-1.911,0.666-5.657,1.894-9.414,2.796c-2.406,0.577-3.75-0.642-3.75-3.1V12.88
			c0-2.464,1.228-3.917,3.629-4.547c4.904-1.289,9.546-2.712,9.546-2.712L24.158,12.314z"/>
	</g>
	<g id="g5451" transform="matrix(7.8459447,0,0,-7.8459447,376.87293,418.04403)">
		<path id="path5453" fill="#0474BC" d="M24.158,12.314c0.286-0.025,4.33-0.692,4.609-0.762v26.009
			c-1.384,0.246-2.616,0.455-4.609,0.72V12.314z"/>
	</g>
	<g id="g5455" transform="matrix(7.8459447,0,0,-7.8459447,293.83772,319.19642)">
		<path id="path5457" fill="#0474BC" d="M24.158,12.314c0.238-0.018,1.201-0.086,1.201-0.086V3.54
			c-0.712,0.055-1.425,0.103-2.132,0.149c-1.041,0.067-2.09,0.74-2.09,2.134c0,0.045-0.003,16.758-0.003,16.758
			c0.146,1.252,1.356,1.441,2.093,1.393c0,0.019,1.215-0.074,2.612-0.192l0.639-2.893l3.539-0.317v5.696h-0.019v0.001
			c-6.43,0.625-10.024,0.733-10.024,0.733c-0.754,0.034-1.888,0.032-2.668-0.721c-0.495-0.472-0.844-1.262-0.844-2.242V4.899
			c0-2.462,1.246-3.706,3.7-3.808c0.005,0.079,8.616-0.527,9.855-0.756v14.038v0.003c-2.06,0.202-3.24,0.322-5.859,0.476V12.314z"/>
	</g>
	<g id="g5459" transform="matrix(7.8459447,0,0,-7.8459447,126.62577,242.50514)">
		<path id="path5461" fill="#0474BC" d="M24.158,12.314c0.041,0.504,0.328,1.71,2.088,1.84c0.696,0.045,1.391,0.09,2.088,0.127
			V5.173c-1.389-0.071-2.785-0.129-4.176-0.241V12.314z M19.5,12.578c0,0,0.009-21.762,0.009-22.071
			c0.285,0.054,4.362,0.459,4.649,0.466v10.66c1.391,0.119,2.787,0.213,4.176,0.288V-8.762c0.29,0.033,4.413,0.185,4.699,0.169
			v25.845c-2.766-0.075-6.57-0.192-9.845-0.492C20.737,16.532,19.5,15.034,19.5,12.578"/>
	</g>
	<g id="g5463" transform="matrix(7.8459447,0,0,-7.8459447,-5.4560732,224.90825)">
		<path id="path5465" fill="#0474BC" d="M24.158,12.314c-1.707-0.384-2.993-2.006-3.367-3.955v3.223c0,0-4.068-0.89-8.656-2.372
			C11.219,8.914,9.78,7.791,9.78,6.468v-24.055c0.27,0.105,3.896,1.222,4.174,1.284V4.402c0,1.447,1.188,2.169,2.2,2.477
			c0.558,0.166,2.218,0.417,2.218,0.417v-17.815l4.614,1.084V6.604c0.165,1.209,0.828,2.006,2.048,2.296
			c1.168,0.198,2.019,0.327,2.019,0.327l0.004-22.381c0.28,0.072,4.371,0.768,4.657,0.793c0,5.162,0.012,25.97,0.012,25.97
			S26.312,12.798,24.158,12.314"/>
	</g>
	<g id="g5467" transform="matrix(7.8459447,0,0,-7.8459447,377.37664,404.02803)">
		<path id="path5469" fill="#0C1E24" d="M24.158,12.314c17.964-7.096,10.498-28.007-2.668-28.16
			C14.28-15.932,8.142-9.233,8.659-2.082C5.418,0.524,1.33,1.782-2.611,2.896C0.956,3.273,5.973,2.34,9.23,0.832l1.211,2.643
			C4.415,5.688-5.141,6.07-11.005,3.239l1.609,3.754c-6.223-1.375-13.176-5.212-18.309-10.028c3.598,6.9,11.751,13.89,19.194,16.213
			l-0.547-1.627c4.792,1.744,9.79,2.695,14.872,2.985c5.4,0.31,9.768,0.001,13.509-0.828c-0.671,0.869-1.752,2.42-1.752,2.42
			s2.901-0.738,3.458-0.88c0.298,0.483,0.885,1.43,0.885,1.43l0.904,1.47c0,0,0.442-3.04,0.517-3.569
			c0.506-0.164,3.302-1.084,3.302-1.084L24.158,12.314z"/>
	</g>
	<g id="g5471" transform="matrix(7.8459447,0,0,-7.8459447,393.02616,484.89148)">
		<path id="path5473" fill="#C4CED4" d="M24.158,12.314c0.679-0.903,1.401-1.965,1.945-2.96c1.295,0.878,2.414,1.795,3.428,2.981
			c-0.638,1.225-1.763,2.607-2.553,3.291C26.249,14.323,25.309,13.253,24.158,12.314 M26.533,8.485
			c0.317-0.722,0.597-1.455,0.84-2.206c1.109,0.365,2.175,0.551,3.331,0.617c0.03,1.667-0.195,2.889-0.733,4.446
			C28.914,10.251,27.797,9.328,26.533,8.485 M27.604,5.41c0.398-1.782,0.517-3.57,0.415-5.377c1.429,1.902,2.183,3.529,2.591,5.959
			C29.587,5.904,28.57,5.735,27.604,5.41 M26.835,4.997c-3.558-1.676-5.002-5.415-6.403-8.827c2.342,0.271,4.499,1.063,6.308,2.603
			C27.285,0.794,27.217,2.953,26.835,4.997 M26.551,5.935C26.34,6.649,26.079,7.34,25.79,8.022C20.734,5.053,14.81,3.583,8.96,3.627
			c1.698-4.473,5.655-7.441,10.481-7.493C20.974-0.089,22.668,4.032,26.551,5.935 M25.376,8.893
			c-0.552,1.036-1.241,1.999-1.955,2.925c-4.619-2.951-9.253-1.245-13.935,0.475C8.319,9.851,8.033,7.222,8.672,4.589
			C14.359,4.444,20.48,5.977,25.376,8.893 M22.912,12.547c-6.442,7.075-19.259,8.476-28.148,6.062
			c6.169,0.166,18.398-0.166,22.766-5.364c-1.409,0.783-4.263,2.1-5.956,2.002c-0.603-0.664-1.133-1.399-1.606-2.16
			C14.26,11.504,18.654,9.912,22.912,12.547 M23.612,13.042c1.126,0.885,2.118,1.891,2.8,3.136
			c-2.006,1.965-5.831,4.388-15.569,5.052c4.129-0.936,7.983-2.238,10.164-3.786c-1.782,0.681-2.891,0.87-2.891,0.87
			c-0.525-0.073-1.265-0.143-1.815-0.27C19.269,16.882,21.431,15.483,23.612,13.042"/>
	</g>
	<g id="g5475" transform="matrix(7.8459447,0,0,-7.8459447,341.64388,411.64927)">
		<path id="path5477" fill="#C4CED4" d="M24.158,12.314l1.999,0.699l1.519-1.723l-0.178,2.249l1.936,0.844l-2.107,0.692
			l-0.326,2.244l-1.125-1.822l-2.134,0.544l1.415-1.818L24.158,12.314z"/>
	</g>
	<g id="g5479" transform="matrix(7.8459447,0,0,-7.8459447,282.39677,498.40721)">
		<path id="path5481" fill="#0474BC" d="M24.158,12.314c3.062-1.436,5.487-1.496,8.609-1.642l-5.034-1.489
			c2.53-0.121,5.502,0.132,7.981,0.637c-5.426-2.708-12.001-2.509-12.001-2.509C23.222,8.976,23.453,11.051,24.158,12.314
			 M24.747,3.975c3.355,0.127,8.106,1.035,11.76,3.163c-2.11-2.137-4.361-3.306-7.788-5.086c3.753,0.634,5.6,2.111,8.059,3.939
			c-1.911-2.139-2.853-4.394-4.329-6.728C32.449-0.737,28.072-1.285,24.747,3.975 M35.854-1.139
			c2.114,0.734,3.201,1.578,3.648,1.934c0.328,0.71,0.48,2.233,0.459,4.075l-1.345-2.255l0.426,2.194
			C37.157,2.522,36.441,0.887,35.854-1.139"/>
	</g>
	<g id="g5483" transform="matrix(7.8459447,0,0,-7.8459447,258.06254,424.35091)">
		<path id="path5485" fill="#FFFFFF" d="M24.158,12.314l1.389,0.685l1.157-1.029l-0.226,1.53l1.338,0.778l-1.527,0.26l-0.329,1.51
			l-0.716-1.372l-1.542,0.157l1.082-1.106L24.158,12.314z"/>
	</g>
	<g id="g5487" transform="matrix(7.8459447,0,0,-7.8459447,135.55288,448.45177)">
		<path id="path5489" fill="#FFFFFF" d="M24.158,12.314l0.914,0.452l0.76-0.678l-0.148,1.006l0.878,0.513l-1.004,0.173l-0.216,0.992
			l-0.472-0.899l-1.014,0.1l0.713-0.727L24.158,12.314z"/>
	</g>
	<g id="g5491" transform="matrix(7.8459447,0,0,-7.8459447,362.00097,433.67566)">
		<path id="path5493" fill="#FFFFFF" d="M24.158,12.314c-0.174,0.09-0.349,0.177-0.532,0.259c2.818-0.836,4.717-1.924,5.78-2.751
			c-0.164-0.242-0.347-0.475-0.534-0.702C27.569,10.472,25.976,11.573,24.158,12.314 M32.839-3.466l-0.01,0.184
			c0.153,0.758,0.239,1.519,0.265,2.27c0.199,0.053,0.403,0.094,0.608,0.133C33.484-1.813,33.211-2.66,32.839-3.466 M34.016,1.477
			c-0.367-0.048-0.708-0.101-1.045-0.174c-0.075,0.545-0.184,1.085-0.323,1.615c0.366,0.307,0.716,0.619,1.071,0.954
			C33.922,3.087,34.008,2.352,34.016,1.477 M32.759,6.105c-0.313-0.337-0.615-0.635-0.923-0.914
			c-0.342,0.735-0.741,1.439-1.203,2.104c0.241,0.291,0.474,0.591,0.692,0.905C31.914,7.548,32.425,6.786,32.759,6.105"/>
	</g>
</g>
</svg>
