<?xml version="1.0" encoding="utf-8"?>
<!-- Generator: Adobe Illustrator 16.0.4, SVG Export Plug-In . SVG Version: 6.00 Build 0)  -->
<!DOCTYPE svg PUBLIC "-//W3C//DTD SVG 1.1//EN" "http://www.w3.org/Graphics/SVG/1.1/DTD/svg11.dtd">
<svg version="1.1"
	 id="svg47582" xmlns:svg="http://www.w3.org/2000/svg" xmlns:dc="http://purl.org/dc/elements/1.1/" xmlns:cc="http://creativecommons.org/ns#" xmlns:rdf="http://www.w3.org/1999/02/22-rdf-syntax-ns#"
	 xmlns="http://www.w3.org/2000/svg" xmlns:xlink="http://www.w3.org/1999/xlink" x="0px" y="0px" viewBox="43.218 41.6 454.366 454.345" enable-background="new 43.218 41.6 454.366 454.345"
	 xml:space="preserve">
<g>
	<g id="g14509" transform="translate(490.4181,287.8815)">
		<path id="path14511" fill="#0067B1" d="M-219.996-246.281c-125.465,0-227.204,101.698-227.204,227.163
			s101.739,227.183,227.204,227.183c125.444,0,227.162-101.718,227.162-227.183S-94.552-246.281-219.996-246.281"/>
	</g>
	<g id="g14513" transform="translate(495.7422,271.8822)">
		<path id="path14515" fill="#FFFFFF" d="M-116.048,98.092c12.581,19.067,23.377,37.231,31.751,53.753
			c-37.21,33.905-91.333,55.743-144.286,54.43c-0.636-46.959,21.53-92.379,36.41-112.637c-2.36-1.704-3.776-3.14-5.973-5.809
			c-15.475,20.114-41.972,67.648-41.294,117.974c-62.435-4.126-117.358-35.589-152.947-82.59
			c18.492-6.014,36.984-13.259,55.312-21.632c-1.868-1.827-6.978-3.653-9.995-4.516c-16.748,7.286-33.639,13.608-50.51,18.821
			c-22.166-32.038-35.691-70.562-37.046-112.145c12.91,3.058,27.749,3.653,44.517,2.237l-0.021-9.174
			c-16.666,1.416-31.936,0.923-44.62-2.114c0.657-64.959,30.91-122.714,77.89-160.705c28.795,18.267,73.6,60.218,115.51,106.069
			c-2.011,2.524-4.802,4.823-5.624,5.808l8.641,4.577c42.013-34.625,76.453-89.055,83.144-150.915
			c36.328,12.93,67.997,35.528,91.948,64.775C-99.013-84.143-148.661-32.483-205.246,11.582c0.349,3.038,1.786,5.85,3.468,7.532
			c56.934-43.942,107.199-95.376,144.47-147.179c23.5,31.525,38.217,69.865,40.864,111.529
			c-52.378,5.336-88.05,22.823-114.259,39.591c0.369,1.847,4.269,4.946,6.608,5.295C-99.136,12.568-65.271-3.524-16.136-8.573
			c0.041,1.786,0.205,3.633,0.205,5.459c0,57.529-23.172,109.702-60.67,147.549c-8.948-16.379-19.908-34.071-32.325-52.46
			l-7.02,6.609"/>
	</g>
	<g id="g14517" transform="translate(489.9792,279.8365)">
		<path id="path14519" fill="#FFFFFF" d="M-228.566-73.118c-43.081-46.98-85.073-86.612-114.751-106.726
			c34.686-25.532,77.397-40.659,123.761-40.659c21.243,0,41.747,3.181,61.039,9.072C-163.956-156.262-192.464-106.88-228.566-73.118
			"/>
	</g>
	<g id="g14521" transform="translate(485.0269,282.9667)">
		<path id="path14523" fill="#0067B1" d="M-325.256-140.494l1.663,5.234h5.603l-4.536,3.304l1.642,5.151l-4.372-3.161l-4.372,3.161
			l1.642-5.172l-4.536-3.284h5.583L-325.256-140.494z"/>
	</g>
	<g id="g14525" transform="translate(486.6294,282.0345)">
		<path id="path14527" fill="#0067B1" d="M-293.968-120.429l1.663,5.234h5.583l-4.536,3.284l1.663,5.172l-4.372-3.202l-4.392,3.202
			l1.663-5.172l-4.557-3.284h5.603L-293.968-120.429z"/>
	</g>
	<g id="g14529" transform="translate(485.9423,282.7542)">
		<path id="path14531" fill="#0067B1" d="M-307.384-135.92l1.642,5.234h5.624l-4.557,3.304l1.663,5.151l-4.351-3.181l-4.392,3.181
			l1.642-5.151l-4.536-3.304h5.603L-307.384-135.92z"/>
	</g>
	<g id="g14533" transform="translate(486.8898,281.1519)">
		<path id="path14535" fill="#0067B1" d="M-288.884-101.431l1.663,5.234h5.603l-4.516,3.304l1.642,5.151l-4.372-3.161l-4.372,3.161
			l1.663-5.151l-4.557-3.304h5.562L-288.884-101.431z"/>
	</g>
	<g id="g14537" transform="translate(486.7758,280.2202)">
		<path id="path14539" fill="#0067B1" d="M-291.11-81.378l1.683,5.213h5.562l-4.536,3.345l1.683,5.172l-4.372-3.223l-4.372,3.223
			l1.642-5.193l-4.536-3.325h5.562L-291.11-81.378z"/>
	</g>
	<g id="g14541" transform="translate(486.2607,279.4755)">
		<path id="path14543" fill="#0067B1" d="M-301.166-65.348l1.663,5.213h5.603l-4.536,3.325l1.642,5.152l-4.351-3.182l-4.392,3.182
			l1.663-5.152l-4.557-3.325h5.603L-301.166-65.348z"/>
	</g>
	<g id="g14545" transform="translate(485.4517,279.0599)">
		<path id="path14547" fill="#0067B1" d="M-316.961-56.403l1.683,5.234h5.583l-4.536,3.325l1.642,5.172l-4.351-3.202l-4.392,3.202
			l1.642-5.193l-4.536-3.304h5.603L-316.961-56.403z"/>
	</g>
	<g id="g14549" transform="translate(483.3974,282.1165)">
		<path id="path14551" fill="#0067B1" d="M-357.07-122.194l-1.683,5.213h-5.562l4.516,3.325l-1.642,5.151l4.351-3.181l4.413,3.181
			l-1.683-5.151l4.577-3.325h-5.603L-357.07-122.194z"/>
	</g>
	<g id="g14553" transform="translate(484.0669,282.7542)">
		<path id="path14555" fill="#0067B1" d="M-343.999-135.92l-1.663,5.234h-5.562l4.516,3.304l-1.642,5.151l4.351-3.181l4.392,3.181
			l-1.663-5.151l4.557-3.304h-5.603L-343.999-135.92z"/>
	</g>
	<g id="g14557" transform="translate(483.0862,281.2671)">
		<path id="path14559" fill="#0067B1" d="M-363.146-103.911l-1.642,5.234h-5.624l4.557,3.304l-1.663,5.193l4.351-3.202l4.392,3.202
			l-1.642-5.193l4.557-3.304h-5.603L-363.146-103.911z"/>
	</g>
	<g id="g14561" transform="translate(483.1685,280.3345)">
		<path id="path14563" fill="#0067B1" d="M-361.54-83.838l-1.683,5.234h-5.562l4.516,3.304l-1.642,5.172l4.351-3.182l4.413,3.182
			l-1.683-5.172l4.536-3.304h-5.583L-361.54-83.838z"/>
	</g>
	<g id="g14565" transform="translate(483.6833,279.5736)">
		<path id="path14567" fill="#0067B1" d="M-351.489-67.46l-1.663,5.234h-5.603l4.557,3.325l-1.663,5.11l4.351-3.181l4.413,3.181
			l-1.663-5.151l4.536-3.284h-5.583L-351.489-67.46z"/>
	</g>
	<g id="g14569" transform="translate(484.4928,279.0914)">
		<path id="path14571" fill="#0067B1" d="M-335.683-57.081l-1.663,5.254h-5.603l4.536,3.284l-1.642,5.151l4.351-3.161l4.413,3.161
			l-1.683-5.192l4.557-3.243h-5.603L-335.683-57.081z"/>
	</g>
	<g id="g14573" transform="translate(487.105,272.7885)">
		<path id="path14575" fill="#0067B1" d="M-284.682,78.584c-10.508,5.829-20.073,10.857-30.704,15.988
			c-0.534-2.155-1.211-5.931-1.211-8.436c9.543-4.659,19.067-9.564,28.487-14.818C-286.94,73.863-285.873,76.224-284.682,78.584"/>
	</g>
	<g id="g14625" transform="translate(495.7773,272.2524)">
		<path id="path14627" fill="#0067B1" d="M-115.362,90.123h-30.766v-7.738l5.541-0.841V57.489c0-8.641-1.149-12.725-7.225-12.725
			V37.95l21.817-6.362c2.483,4.844,3.284,10.406,3.612,15.927h0.226c2.176-6.588,4.905-15.763,12.048-15.763
			c6.239,0,9.011,4.823,9.011,10.714c0,5.952-2.606,10.837-7.184,10.837c-3.141,0-5.809-1.334-7.307-1.827
			c-4.002-1.355-5.296,16.009-5.296,19.621v10.447l5.521,0.841V90.123z"/>
	</g>
	<g id="g14629" transform="translate(498.295,274.5579)">
		<path id="path14631" fill="#0067B1" d="M-66.205,40.5c0,4.782-4.084,7.184-8.456,7.184c-5.274,0-9.03-4.31-9.975-9.462
			c-2.278,0-3.858,1.17-3.858,4.987c0,8.908,25.142,2.566,25.142,25.143c0,16.891-12.191,21.099-23.931,21.099
			c-7.184,0-19.662-0.923-19.662-11.842c0-4.926,2.729-8.702,7.635-8.702c7.655,0,8.969,7.019,10.241,11.965
			c0.391,1.313,1.519,1.54,2.586,1.54c4.023,0,6.938-1.683,6.938-4.331c0-10.16-25.819-6.219-25.819-28.18
			c0-13.998,16.501-20.298,24.444-20.298C-71.87,29.601-66.205,32.618-66.205,40.5"/>
	</g>
	<g id="g14633" transform="translate(489.2514,272.495)">
		<path id="path14635" fill="#0067B1" d="M-242.776,84.902c-10.96,0-10.508-14.018-10.508-30.212
			c0-16.193,1.539-30.211,10.508-30.211c11.001,0,11.555,14.018,11.555,30.211C-231.221,70.884-233.458,84.902-242.776,84.902
			 M-229.189,5.494c-9.79,0-19.826,3.899-25.101,12.13h-0.205l0.985-14.203c0.575-9.605,2.75-35.732,16.091-35.732
			c6.383,0,4.946,8.497,5.685,12.376c1.745,9.031,5.706,19.375,18.062,19.375c8.415,0,17.261-5.583,17.261-16.994
			c0-17.589-14.716-29.145-32.572-29.145c-45.893,0-64.282,34.994-64.282,77.397c0,36.8,14.306,68.592,53.691,68.592
			c25.594,0,46.323-18.205,46.323-48.807C-193.251,24.663-206.94,5.494-229.189,5.494"/>
	</g>
	<g id="g14637" transform="translate(482.5327,278.9433)">
		<path id="path14639" fill="#ED174F" d="M-373.953-53.893V0.722c30.602,4.536,67.114,1.498,92.934-36.246
			c1.088-1.601,1.724-0.472,1.026,0.944c-7.225,14.634-24.28,28.241-39.017,39.837c-14.182,11.124-52.193,51.003-51.68,86.079
			c0.021,2.668,0.124,1.95,2.483,0.185c11.535-8.559,34.132-8.826,48.006-2.196c1.929,0.903,2.094,0.636,1.868-1.847
			c-2.668-27.195,3.448-56.914,15.106-74.154c8.045-11.945,29.658-42.711,33.373-66.827c0.39-2.483-0.903-2.094-4.023,1.211
			c-24.485,25.86-68.756,25.224-97.326-2.217C-373.008-56.212-373.809-55.433-373.953-53.893"/>
	</g>
	<g id="g14641" transform="translate(492.8196,274.1113)">
		<path id="path14643" fill="#0067B1" d="M-173.109,50.112c0-4.392,0-12.458,4.782-12.458c4.475,0,5.541,6.793,5.541,10.549
			c0,4.474-2.113,5.562-5.213,6.362l-5.11,1.396V50.112z M-160.24,76.999c-6.794,0-10.796-6.198-11.474-12.458l29.145-7.881
			c-0.842-14.182-9.071-26.764-24.567-26.764c-16.461,0-27.379,12.807-27.379,31.751c0,14.757,8.456,28.241,26.312,28.241
			c10.221,0,20.093-4.823,25.389-13.833l-5.768-6.814C-151.394,73.592-154.678,76.999-160.24,76.999"/>
	</g>
</g>
</svg>
