<?xml version="1.0" encoding="utf-8"?>
<!-- Generator: Adobe Illustrator 16.0.4, SVG Export Plug-In . SVG Version: 6.00 Build 0)  -->
<!DOCTYPE svg PUBLIC "-//W3C//DTD SVG 1.1//EN" "http://www.w3.org/Graphics/SVG/1.1/DTD/svg11.dtd">
<svg version="1.1" id="Layer_1" xmlns="http://www.w3.org/2000/svg" xmlns:xlink="http://www.w3.org/1999/xlink" x="0px" y="0px" viewBox="-2.387 39.168 175.802 213.633"
	 enable-background="new -2.387 39.168 175.802 213.633" xml:space="preserve">
<g>
	<path fill="#FFFFFF" stroke="#050505" d="M76.968,168.331l7.353-7.374c-8.402-2.587-13.152-8.345-13.152-15.717
		c0-3.846,1.606-7.298,4.209-9.736l95.796-95.836h-5.36l-90.131,81.253l-7.724,6.96c-4.581,4.37-7.438,10.541-7.438,17.359
		c0,1.587,0.151,3.142,0.439,4.634C62.649,158.472,69.802,165.77,76.968,168.331"/>
	<path fill="#FFFFFF" stroke="#050505" d="M65.812,179.479l7.251-7.262c-11.24-5.721-17.495-15.25-17.495-26.978
		c0-7.877,3.146-14.998,8.257-20.226l85.273-85.343h-4.938l-79.786,70.485c-1.099,0.887-7.911,7.103-8.807,8.187
		c-6.609,7.029-10.649,16.485-10.649,26.897c0,1.852,0.151,3.643,0.421,5.41C47.15,163.252,55.027,173.908,65.812,179.479"/>
	<path fill="#FFFFFF" stroke="#050505" d="M54.452,190.835l7.372-7.352c-13.709-8.425-21.875-22.142-21.875-38.246
		c0-11.909,4.7-22.72,12.325-30.705l74.765-74.863h-4.512l-69.46,59.742c-2.214,1.774-8.098,7.226-9.924,9.388
		c-8.586,9.695-13.827,22.469-13.827,36.437c0,2.087,0.135,4.146,0.388,6.17C31.649,168.027,41.082,182.361,54.452,190.835"/>
	<path fill="#FFFFFF" stroke="#050505" d="M43.075,202.211l7.489-7.486c-16.092-11.106-26.201-29.014-26.201-49.483
		c0-15.947,6.222-30.438,16.346-41.177l64.288-64.392h-4.144L41.757,88.646c-3.312,2.675-8.282,7.366-11.021,10.628
		c-10.599,12.352-17.024,28.433-17.024,45.967c0,2.338,0.136,4.648,0.372,6.942C16.164,172.808,27.134,190.801,43.075,202.211"/>
	<path fill="#FFFFFF" stroke="#050505" d="M-1.567,152.939c2.214,24.639,14.756,46.312,33.269,60.647l7.605-7.589
		c-18.526-13.829-30.529-35.922-30.529-60.762c0-19.963,7.742-38.141,20.404-51.675l53.739-53.894h-3.719L30.448,77.87
		c-4.412,3.544-8.47,7.518-12.104,11.859C5.736,104.76-1.887,124.127-1.887,145.236C-1.889,147.845-1.788,150.412-1.567,152.939"/>
	<path fill="#D10600" stroke="#050505" d="M94.057,123.629l-7.37,7.364c8.417,2.596,13.185,8.344,13.185,15.716
		c0,3.835-1.658,7.294-4.242,9.737l-95.778,95.851h5.341l90.168-81.26l7.707-6.959c4.582-4.377,7.439-10.555,7.439-17.369
		c0-1.592-0.154-3.139-0.458-4.629C108.358,133.462,101.226,126.172,94.057,123.629"/>
	<path fill="#D10600" stroke="#050505" d="M105.197,112.463l-7.25,7.268c11.273,5.731,17.495,15.252,17.495,26.978
		c0,7.859-3.129,14.997-8.23,20.209l-85.298,85.379h4.952l79.784-70.495c1.101-0.903,7.913-7.114,8.828-8.196
		c6.59-7.022,10.631-16.499,10.631-26.896c0-1.834-0.135-3.649-0.422-5.4C123.859,128.684,115.999,118.056,105.197,112.463"/>
	<path fill="#D10600" stroke="#050505" d="M116.572,101.104l-7.352,7.374c13.658,8.439,21.842,22.139,21.842,38.237
		c0,11.89-4.667,22.71-12.34,30.708L43.99,252.297h4.529l69.442-59.756c2.196-1.788,8.08-7.237,9.904-9.382
		c8.621-9.706,13.847-22.456,13.847-36.444c0-2.092-0.135-4.172-0.408-6.162C139.378,123.929,129.928,109.584,116.572,101.104"/>
	<path fill="#D10600" stroke="#050505" d="M127.933,89.729l-7.473,7.506c16.11,11.101,26.202,29.009,26.202,49.477
		c0,15.94-6.238,30.443-16.363,41.182l-64.252,64.403h4.107l59.115-48.986c3.311-2.672,8.283-7.37,11.006-10.614
		c10.594-12.378,17.034-28.45,17.034-45.983c0-2.345-0.114-4.682-0.37-6.939C154.878,119.145,143.89,101.142,127.933,89.729"/>
	<path fill="#D10600" stroke="#050505" d="M172.577,139.004c-2.18-24.621-14.74-46.305-33.252-60.635l-7.607,7.583
		c18.527,13.84,30.545,35.917,30.545,60.766c0,19.96-7.775,38.136-20.401,51.692l-53.754,53.892h3.701l48.784-38.236
		c4.378-3.534,8.436-7.506,12.086-11.836c12.611-15.025,20.236-34.411,20.236-55.51
		C172.915,144.116,172.795,141.537,172.577,139.004"/>
</g>
</svg>
