<?xml version="1.0" encoding="utf-8"?>
<!-- Generator: Adobe Illustrator 16.0.4, SVG Export Plug-In . SVG Version: 6.00 Build 0)  -->
<!DOCTYPE svg PUBLIC "-//W3C//DTD SVG 1.1//EN" "http://www.w3.org/Graphics/SVG/1.1/DTD/svg11.dtd">
<svg version="1.1"
	 id="svg3201" xmlns:sodipodi="http://sodipodi.sourceforge.net/DTD/sodipodi-0.dtd" xmlns:svg="http://www.w3.org/2000/svg" xmlns:dc="http://purl.org/dc/elements/1.1/" xmlns:cc="http://creativecommons.org/ns#" xmlns:rdf="http://www.w3.org/1999/02/22-rdf-syntax-ns#" xmlns:inkscape="http://www.inkscape.org/namespaces/inkscape" inkscape:version="0.48.0 r9654" sodipodi:docname="Utah Jazz &apos;Script&apos; logo 2010.svg"
	 xmlns="http://www.w3.org/2000/svg" xmlns:xlink="http://www.w3.org/1999/xlink" x="0px" y="0px" viewBox="1 1 345.251 156.878" enable-background="new 1 1 345.251 156.878" xml:space="preserve">
<sodipodi:namedview  showgrid="false" fit-margin-left="1" inkscape:zoom="1.979899" inkscape:cy="71.294621" bordercolor="#666666" pagecolor="#ffffff" inkscape:cx="166.1158" fit-margin-top="1" borderopacity="1.0" id="base" inkscape:window-maximized="1" inkscape:current-layer="g3111" fit-margin-bottom="1" fit-margin-right="1" inkscape:window-y="-8" inkscape:window-x="-8" inkscape:pageopacity="0.0" inkscape:window-width="1366" inkscape:pageshadow="2" inkscape:window-height="706" inkscape:document-units="px">
	</sodipodi:namedview>
<g id="layer1" transform="translate(-130.0923,-145.78091)" inkscape:groupmode="layer" inkscape:label="Layer 1">
	<g id="g3286" transform="matrix(1.0577955,0,0,1.0577955,-7.5765248,-8.4832246)">
		<g id="g3083" transform="matrix(1.25,0,0,-1.25,367.86165,278.93211)">
			<path id="path3085" inkscape:connector-curvature="0" fill="#FFFFFF" d="M0,0h-15.53l0.065,0.149L8.777,55.598h15.85L0,0z
				 M-102.983,20.349l4.057,8.82l1.91-8.82H-102.983z M39.11,0.01l0.05,0.125l27.655,63.229l1.323,3.01H57.924l-0.011-0.024H13.482
				l0.01,0.024h-74.498l-0.617-1.102l-3.608-6.466l-1.782-3.202h37.019L-52.483,4.871l-18.154,59.97l-0.464,1.522H-81.14
				l0.006-0.015h-15.96l-0.564-1.287L-130.109-8.97l-1.32-3.013h15.055l0.537,1.361l7.142,18.07h14.653l5.285-17.894l0.457-1.537
				h30.841l-0.005,0.02H66.503l0.562,1.296l3.328,7.671l1.301,3.006H39.11L39.11,0.01z"/>
		</g>
		<g id="g3087" transform="matrix(1.25,0,0,-1.25,49.938281,423.43336)">
			<g>
				<defs>
					<rect id="SVGID_1_" x="22.852" y="83.561" width="345.251" height="156.878"/>
				</defs>
				<clipPath id="SVGID_2_">
					<use xlink:href="#SVGID_1_"  overflow="visible"/>
				</clipPath>
				<g id="g3089" clip-path="url(#SVGID_2_)">
					<g id="g3095" transform="translate(158.4662,221.3226)">
						<path id="path3097" inkscape:connector-curvature="0" fill="#FFFFFF" d="M0,0l-0.566-1.275
							C-2.68-6.03-26.819-59.657-27.063-60.198c-0.547-1.178-1.402-2.137-2.116-2.802c-0.418,0.581-0.853,1.151-1.304,1.702
							c-0.407,0.506-0.818,0.976-1.237,1.434c-0.025,0.027-0.049,0.061-0.075,0.089c-0.217,0.232-0.428,0.493-0.646,0.718
							l-0.607,0.586l-1.386,1.341l-0.041-0.033c-6.269,5.526-14.522,8.886-23.57,8.886c-19.605,0-35.498-15.748-35.498-35.185
							c0-19.43,15.893-35.183,35.498-35.183c19.603,0,35.492,15.753,35.492,35.183c0,0.465-0.015,0.92-0.033,1.377
							c3.54,7.888,18.661,41.08,19.476,43.235c0.692,1.847,1.15,2.677,4.727,2.993c0.87,0.068,5.531,0.189,26.797,0.189
							c12.913,0,27.018-0.05,29.866-0.08l1.265-0.011l-0.002-0.007h10.181l0.557,1.305L83.687-2.99L84.956,0H0z"/>
					</g>
					<g id="g3099" transform="translate(147.9427,133.8177)">
						<path id="path3101" inkscape:connector-curvature="0" fill="#0C2340" d="M0,0l8.148,17.719L11.988,0H0z M23.734,45.759H10.546
							l-32.347-73.791h10.303l7.677,19.433h17.722l5.743-19.433h26.343L23.734,45.759z"/>
					</g>
					<g id="g3103" transform="translate(254.4957,179.8228)">
						<path id="path3105" inkscape:connector-curvature="0" fill="#0C2340" d="M0,0h-59.901l-3.608-6.468h36.662l-29.954-67.569
							h51.283l3.363,7.667h-26.828L0,0z"/>
					</g>
					<g id="g3107" transform="translate(264.5417,179.8228)">
						<path id="path3109" inkscape:connector-curvature="0" fill="#00471B" d="M0,0h-5.49l-28.263-63.214h6.695L0,0z"/>
					</g>
					<g id="g3111" transform="translate(309.1231,179.8041)">
						<path id="path3113" inkscape:connector-curvature="0" fill="#0C2340" d="M0,0h-40.732l-3.131-6.458h17.01l-29.93-67.561
							h67.092l3.321,7.674h-42.62L0,0z"/>
					</g>
					<g id="g3115" transform="translate(319.1824,179.8228)">
						<path id="path3117" inkscape:connector-curvature="0" fill="#00471B" d="M-0.001,0h-5.513l-27.645-63.228h5.508L-0.001,0z"/>
					</g>
					<g id="g3119" transform="translate(133.8427,137.891)">
						<path id="path3121" inkscape:connector-curvature="0" fill="#FFFFFF" d="M0,0c0-18.2-14.885-32.957-33.246-32.957
							C-51.604-32.957-66.488-18.2-66.488,0c0,18.211,14.884,32.97,33.242,32.97C-14.885,32.97,0,18.211,0,0"/>
					</g>
					<g id="g3123" transform="translate(88.5233,138.9942)">
						<path id="path3125" inkscape:connector-curvature="0" fill="#0C2340" d="M0,0c-0.583,8.691-4.757,17.036-11.218,22.414
							c-0.273-0.241-0.757-0.771-0.737-0.741C-17.284,16.226-20.749,8.911-21.153,0H0z"/>
					</g>
					<g id="g3127" transform="translate(74.84,117.0551)">
						<path id="path3129" inkscape:connector-curvature="0" fill="#0C2340" d="M0,0l1.533-1.779l1.411-1.375
							C8.963,1.95,12.942,10.289,13.665,18.98H-7.423C-7.116,11.542-3.945,4.581,0,0"/>
					</g>
					<g id="g3131" transform="translate(79.3695,163.3407)">
						<path id="path3133" inkscape:connector-curvature="0" fill="#F9A01B" d="M0,0l-0.194-0.19l-0.159-0.161l-0.089-0.087
							C6.721-6.523,10.82-15.017,11.277-24.314h8.146V7.475C11.294,6.984,4.913,4.171,0,0 M0.212-50.971
							c5.584-4.619,13.091-7.262,19.222-7.401l-0.011,31.211H11.29C10.97-36.358,7.069-44.862,0.212-50.971"/>
					</g>
					<g id="g3135" transform="translate(123.3435,113.8023)">
						<path id="path3137" inkscape:connector-curvature="0" fill="#0C2340" d="M0,0l1.268,1.295c0,0,0.539,0.535,1.248,1.336
							c4.622,5.269,7.562,12.287,7.96,19.589h-21.052C-9.853,13.499-5.996,5.129,0,0"/>
					</g>
					<g id="g3139" transform="translate(109.9627,136.1501)">
						<path id="path3141" inkscape:connector-curvature="0" fill="#00471B" d="M0,0h-8.322l0.019-31.201
							c6.519,0.285,13.356,2.168,19.645,7.157C4.451-17.915,0.317-9.199,0,0 M11.885,26.839l0.134,0.147l-0.096,0.096l-0.281,0.236
							c-4.957,4.183-12.334,7.145-19.945,7.375l-0.019-0.962V2.844h8.339C0.478,12.157,4.746,20.793,11.885,26.839"/>
					</g>
					<g id="g3143" transform="translate(181.6441,179.8142)">
						<path id="path3145" inkscape:connector-curvature="0" fill="#00471B" d="M0,0h-5.548l20.632-68.077l3.273,7.451L0,0z"/>
					</g>
					<g id="g3147" transform="translate(159.866,219.1727)">
						<path id="path3149" inkscape:connector-curvature="0" fill="#0C2340" d="M0,0c-2.143-4.809-26.501-58.931-26.501-58.931
							c-1.35-2.896-3.998-4.624-4.139-4.717l-0.339-0.232l-0.634,0.964c-1.189,1.853-2.313,3.11-3.735,4.557l-0.54,0.559
							c-6.46-5.372-10.679-13.687-11.267-22.378h21.11c-0.008,0.572-0.014,0.907-0.014,0.907v0.226
							c0.214,0.437,18.588,40.592,19.537,43.101c1.004,2.675,2.225,3.995,6.551,4.377c3.872,0.313,51.628,0.177,56.872,0.116
							L70.289,0H0z"/>
					</g>
					<g id="g3151" transform="translate(240.1741,219.1727)">
						<path id="path3153" inkscape:connector-curvature="0" fill="#00471B" d="M0,0h-5.522l-13.394-31.469h5.509L0,0z"/>
					</g>
				</g>
			</g>
		</g>
	</g>
</g>
</svg>
