<?xml version="1.0" encoding="utf-8"?>
<!-- Generator: Adobe Illustrator 16.0.4, SVG Export Plug-In . SVG Version: 6.00 Build 0)  -->
<!DOCTYPE svg PUBLIC "-//W3C//DTD SVG 1.1//EN" "http://www.w3.org/Graphics/SVG/1.1/DTD/svg11.dtd">
<svg version="1.1"
	 id="svg2" xmlns:sodipodi="http://sodipodi.sourceforge.net/DTD/sodipodi-0.dtd" xmlns:svg="http://www.w3.org/2000/svg" xmlns:dc="http://purl.org/dc/elements/1.1/" xmlns:cc="http://creativecommons.org/ns#" xmlns:rdf="http://www.w3.org/1999/02/22-rdf-syntax-ns#" xmlns:inkscape="http://www.inkscape.org/namespaces/inkscape" inkscape:version="0.48.2 r9819" sodipodi:docname="Brooklyn Nets Logo.svg"
	 xmlns="http://www.w3.org/2000/svg" xmlns:xlink="http://www.w3.org/1999/xlink" x="0px" y="0px" viewBox="37.06 4.835 181.321 185.158" enable-background="new 37.06 4.835 181.321 185.158"
	 xml:space="preserve">
<sodipodi:namedview  showgrid="false" fit-margin-left="0" inkscape:zoom="2.8284271" inkscape:cy="105.68038" bordercolor="#666666" pagecolor="#ffffff" inkscape:cx="92.548433" fit-margin-top="0" showguides="true" borderopacity="1.0" id="base" inkscape:window-maximized="1" inkscape:current-layer="layer2" fit-margin-bottom="0" fit-margin-right="0" inkscape:window-y="-8" inkscape:window-x="-8" inkscape:pageopacity="0.0" inkscape:window-width="1920" inkscape:pageshadow="2" inkscape:window-height="1030" inkscape:guide-bbox="true" inkscape:document-units="px">
	<sodipodi:guide  orientation="0,1" position="616,-9" id="guide3020"></sodipodi:guide>
</sodipodi:namedview>
<g>
	
		<path id="path2997" inkscape:connector-curvature="0" sodipodi:nodetypes="scscscsscscscs" stroke="#000000" stroke-width="0.3195" d="
		M127.071,5.001C74.864,5.4,37.569,24.173,37.22,24.553c-0.075,37.031,5.993,71.222,20.592,99.116
		c16.1,30.761,46.817,59.315,69.908,66.156c28.098-9.337,55.756-37.34,70.274-66.09c14.052-27.826,20.207-61.498,20.226-98.953
		C185.858,9.629,154.417,4.792,127.071,5.001L127.071,5.001z M127.181,8.007c26.351-0.196,56.699,4.399,88.043,18.783
		c0.334,37.922-6.756,69.93-19.952,95.585c-16.294,31.679-44.705,56.953-67.424,64.565c-25.477-7.695-54.048-38.172-67.554-64.054
		C40.388,84.742,39.423,41.562,40.553,26.318C40.889,25.949,76.875,8.382,127.181,8.007L127.181,8.007z"/>
	<path id="path2997-1-7" inkscape:connector-curvature="0" sodipodi:nodetypes="ccscsc" stroke="#000000" stroke-width="0.2994" d="
		M212.46,28.25C160.393,4.249,88.456,5.449,43.093,28.429c-0.721,44.599,10.805,77.293,21.428,96.671
		c11.982,21.857,39.367,51.112,63.479,58.884c32.789-11.344,62.27-50.462,72.137-78.813C209.742,77.573,212.351,60.957,212.46,28.25
		z"/>
	<path id="path3825" inkscape:connector-curvature="0" fill="#FFFFFF" stroke="#000000" stroke-width="0.3195" d="M55.484,88.828
		l0.057-56.633c0,0-0.2-0.6,0.799-0.999s7.675-2.853,7.675-2.853s0.856-0.313,1.056,0.171s17.118,43.081,17.118,43.081l-0.342-47.36
		c0,0-0.021-0.856,0.813-1.049c0.834-0.192,5.893-1.289,5.873-1.289s0.747-0.121,0.747,0.686c0,0.807-0.1,56.8-0.1,56.8
		s-0.093,0.977-0.849,1.127s-8.252,1.926-8.224,1.926c0.029,0-0.913,0.229-1.227-0.57S62.274,39.499,62.274,39.499
		s0.256,47.161,0.228,47.189c-0.028,0.029,0.085,0.771-0.656,1.056s-5.506,1.912-5.506,1.912S55.484,89.627,55.484,88.828
		L55.484,88.828z"/>
	<path id="path3829" inkscape:connector-curvature="0" fill="#FFFFFF" stroke="#000000" stroke-width="0.3195" d="M95.455,21.325
		c0,0-0.285-0.828,1.17-0.999c1.455-0.171,9.044-1.911,28.445-2.425c0,0,1.312-0.285,1.312,0.627c0,0.913,0,3.766,0,3.995
		c0,0.228-0.086,0.913-0.828,0.913s-13.694-0.028-22.339,1.712l-0.057,19.686c0,0,6.02-1.284,18.345-1.427
		c0,0,0.679-0.407,0.679,0.642c0,1.049,0,3.833,0,3.833s0.081,1.089-0.807,0.968c-0.888-0.121-14.202,0.444-18.318,1.413
		l-0.04,22.231c0,0,7.222-1.291,22.353-1.614c0,0,0.968-0.282,0.968,0.847c0,1.13,0,3.551,0,3.551s0.242,1.13-0.968,1.13
		s-17.955,0.282-28.728,2.421c0,0-1.09,0.161-1.09-0.605L95.455,21.325z"/>
	
		<path id="path2996" inkscape:connector-curvature="0" sodipodi:nodetypes="cccscsc" fill="#FFFFFF" stroke="#000000" stroke-width="0.3195" d="
		M144.535,76.125l-0.041-52.049c0,0-7.989-0.868-13.577-0.646c0,0-0.787,0.081-0.787-0.747s-0.021-4.176-0.021-4.176
		s-0.201-0.681,0.747-0.646c1.011,0.038,18.901,0.172,35.103,3.228c0,0,0.847,0.162,0.847,0.847c0,0.686,0,3.954,0,3.954
		s-0.121,1.049-0.928,0.888c-0.807-0.161-6.657-1.291-13.678-2.058v51.807c0,0,0.202,1.009-0.727,0.928l-6.012-0.484
		C145.463,76.973,144.575,77.054,144.535,76.125L144.535,76.125z"/>
	
		<path id="path3009" inkscape:connector-curvature="0" sodipodi:nodetypes="cscccccccccccccccscccccccccc" fill="#FFFFFF" stroke="#000000" stroke-width="0.3195" d="
		M194.324,46.873c0,0-0.686-0.363-0.646-0.887c0.041-0.525,0.041-7.707,0.041-7.707s-0.121-3.914-5.084-6.617
		c0,0-3.228-2.058-8.513-1.896c-0.202,0.041-3.147,0.121-3.349,4.398c0,0-0.242,5.043,1.856,7.828c0,0,3.269,4.357,7.384,8.473
		l6.698,7.021c0,0,5.851,6.052,7.585,9.643c0,0,1.735,2.623,1.937,9.159c0,0,0.767,9.603-6.94,10.006c0,0-5.81,1.17-16.906-3.51
		c0,0-10.289-3.631-11.136-13.274l-0.081-8.958c0,0-0.041-0.888,0.847-0.847l6.092,1.17c0,0,0.682,0,0.686,0.888l0.041,8.634
		c0,0,0.282,7.908,14.243,10.006c0,0,5.608,1.251,5.528-4.075l0.04-4.519c0,0-0.121-4.237-6.294-10.289l-13.436-13.476
		c0,0-4.812-4.795-5.729-11.136c0,0-0.444-6.052,1.654-9.482c0,0,4.519-7.868,20.739-0.161c0,0,8.271,3.147,9.28,11.459l0.444,9.603
		c0,0-0.081,0.968-0.928,0.807C199.529,48.971,194.324,46.873,194.324,46.873L194.324,46.873z"/>
	
		<path id="path2999" inkscape:connector-curvature="0" sodipodi:nodetypes="cscscscc" fill="none" stroke="#000000" stroke-width="0.3195" d="
		M123.073,103.493c0,0-0.286-0.085-0.286,0.342s0,18.002-0.028,18.002c0,0-0.028,0.314,0.314,0.314s4.508-0.028,4.508-0.028
		s4.793-0.628,4.793-4.879s0-9.729,0-9.729c0.136-4.493-3.739-4.019-4.936-4.051L123.073,103.493z"/>
	
		<path id="path3001" inkscape:connector-curvature="0" sodipodi:nodetypes="ccsscccc" fill="none" stroke="#000000" stroke-width="0.3195" d="
		M123.073,128.457c0,0-0.286-0.028-0.314,0.342c0,0,0.028,22.254,0,22.254s0,0.371,0.428,0.399c0.428,0.028,6.477,0.085,6.477,0.085
		c0.544-0.302,5.003,0.79,5.021-6.276v-11.212c-0.108-0.955-0.504-5.722-7.932-5.592H123.073z"/>
	
		<path id="path3772" inkscape:connector-curvature="0" sodipodi:nodetypes="cccccccccccccccccccccc" fill="#FFFFFF" stroke="#FFFFFF" stroke-width="0.3195" d="
		M115.797,87.059c-4.964,1.084-15.121,5.763-22.425,15.692c9.187-1.427,16.719,3.595,19.515,4.793l0.057,2.967
		c-9.586-4.907-15.35-5.42-20.941-5.363c-2.054,1.883-6.578,13.305-6.02,24.308c1.55,0.93,2.796,7.361,26.847,12.953l-0.057,3.595
		c0,0-17.547-1.871-26.505-13.626c1.041,10.112,9.021,26.794,24.109,31.885c13.26,1.89,21.078-2.459,33.055-8.425
		c12.981-6.869,12.847-7.302,17.064-9.317c1.076-4.156,1.221-7.515,1.221-7.515c-7.182,3.591-17.302,5.551-17.302,5.551
		l-0.041-2.945c8.796-1.614,17.511-5.689,17.511-5.689c0.075-5.496-0.553-8.92-0.553-8.92c-6.277,3.766-17.175-0.171-18.83-0.57
		c-1.312-2.168-1.883-2.111-1.883-2.111c1.37-1.769,0.97-2.396,0.97-2.396c5.192,2.739,13.751,4.279,18.944,1.883
		C154.599,99.384,133.03,84.663,115.797,87.059L115.797,87.059z"/>
	<path id="path3002" inkscape:connector-curvature="0" sodipodi:nodetypes="ccc" fill="#FFFFFF" d="M113.857,166.202
		c5.846,4.253,39.041,5.588,45.905-16.804C144.915,158.629,130.926,168.644,113.857,166.202L113.857,166.202z"/>
	<path id="path3003" inkscape:connector-curvature="0" sodipodi:nodetypes="cccc" fill="#FFFFFF" d="M158.455,155.329
		c0,0,5.528-6.173,5.689-8.433c-0.451-0.439-1.293,0.278-1.896,0.686C162.667,147.757,160.239,152.483,158.455,155.329z"/>
	<path id="path3010" inkscape:connector-curvature="0" sodipodi:nodetypes="ccccc" fill="#FFFFFF" d="M164.648,137.253
		c-0.061,1.009,0.202,1.554-1.473,8.029c1.13-0.323,1.251-0.403,2.098,0.484c2.811-4.972,3.717-10.482,3.954-13.557
		C167.17,136.204,164.648,137.253,164.648,137.253L164.648,137.253z"/>
	<path id="path2998" inkscape:connector-curvature="0" stroke="#000000" stroke-width="0.3195" d="M115.888,98.721
		c0.032,19.304,0.044,38.608,0.088,57.912c0.828,2.207,4.004,0.745,5.887,1.14c3.489-0.085,6.996,0.11,10.475-0.156
		c4.467-0.671,8.628-4.307,8.846-8.993c0.034-5.578,0.024-11.161-0.016-16.739c-0.405-3.114-2.667-6.027-5.656-7.051
		c2.981-1.635,3.878-5.232,3.645-8.394c-0.089-3.691,0.121-7.399-0.224-11.077c-0.319-3.351-2.437-6.699-5.861-7.519
		c-2.917-0.787-5.965-0.332-8.948-0.443c-2.478,0.037-4.973-0.052-7.438,0.065C116.144,97.607,115.855,98.191,115.888,98.721
		L115.888,98.721z"/>
	<path id="path3777" inkscape:connector-curvature="0" fill="#FFFFFF" stroke="#000000" stroke-width="0.3195" d="M122.958,103.493
		c0,0-0.257,0.057-0.257,0.314c0,0.256,0.028,18.031,0.028,18.031s-0.028,0.256,0.286,0.228c0.313-0.028,4.536,0,4.536,0
		s4.765-0.028,4.793-5.079l0.029-9.957c0,0,0.371-3.48-3.738-3.509L122.958,103.493z"/>
	
		<path id="path3779" inkscape:connector-curvature="0" sodipodi:nodetypes="ccsccccc" fill="#FFFFFF" stroke="#000000" stroke-width="0.3195" d="
		M122.759,128.371l-0.028,22.739c0,0-0.029,0.399,0.542,0.399c0.57,0,6.733-0.029,6.733-0.029s4.593,0.542,4.565-6.02l-0.028-12.068
		c0,0-0.514-5.079-7.532-5.021H122.759z"/>
	<path id="path3793" inkscape:connector-curvature="0" sodipodi:nodetypes="ccccc" fill="#FFFFFF" d="M168.15,116.56
		c1.969,4.279,1.512,10.984,1.512,10.984c-1.312,3.595-2.938,5.678-5.078,7.047c0.028-6.249-0.97-9.529-0.97-9.529
		C167.409,121.724,168.15,116.56,168.15,116.56L168.15,116.56z"/>
	
		<path id="path3795" inkscape:connector-curvature="0" sodipodi:nodetypes="ccc" fill="#FFFFFF" stroke="#FFFFFF" stroke-width="0.3195" d="
		M165.783,111.538c-2.739-13.866-21.74-28.416-41.94-26.305c24.291,2.557,35.879,26.122,39.03,36.462
		C166.239,119.983,165.783,111.538,165.783,111.538L165.783,111.538z"/>
</g>
</svg>
