<?xml version="1.0" encoding="utf-8"?>
<!-- Generator: Adobe Illustrator 16.0.0, SVG Export Plug-In . SVG Version: 6.00 Build 0)  -->
<!DOCTYPE svg PUBLIC "-//W3C//DTD SVG 1.1//EN" "http://www.w3.org/Graphics/SVG/1.1/DTD/svg11.dtd">
<svg version="1.1" id="Layer_1" xmlns:sketch="http://www.bohemiancoding.com/sketch/ns"
	 xmlns="http://www.w3.org/2000/svg" xmlns:xlink="http://www.w3.org/1999/xlink" x="0px" y="0px" width="512px" height="512px"
	 viewBox="0 0 512 512" enable-background="new 0 0 512 512" xml:space="preserve">
<title>brooklyn-nets</title>
<desc>Created with Sketch.</desc>
<g sketch:type="MSShapeGroup">
	<path stroke="#000000" stroke-width="0.32" d="M256.83,69.002c-81.627,0.624-139.939,29.956-140.485,30.55
		c-0.118,57.861,9.37,111.284,32.196,154.868c25.172,48.064,73.201,92.68,109.304,103.37
		c43.933-14.59,87.176-58.345,109.877-103.266c21.971-43.477,31.595-96.09,31.623-154.613
		C348.746,76.233,299.587,68.676,256.83,69.002L256.83,69.002z M257.002,73.698c41.201-0.307,88.651,6.874,137.659,29.348
		c0.523,59.253-10.563,109.266-31.195,149.352c-25.477,49.499-69.897,88.989-105.42,100.884
		c-39.834-12.023-84.506-59.644-105.623-100.084c-31.124-59.602-32.633-127.07-30.866-150.888
		C122.083,101.734,178.347,74.284,257.002,73.698L257.002,73.698z"/>
	<path stroke="#FFFFFF" stroke-width="5" d="M390.338,105.328c-81.409-37.502-193.885-35.626-264.811,0.279
		c-1.127,69.686,16.894,120.77,33.503,151.049c18.734,34.152,61.551,79.863,99.252,92.006
		c51.266-17.725,97.361-78.848,112.789-123.145C386.089,182.396,390.167,156.433,390.338,105.328L390.338,105.328z"/>
	<path fill="#FFFFFF" stroke="#000000" stroke-width="0.32" d="M144.901,199.981l0.089-88.489c0,0-0.312-0.936,1.249-1.56
		c1.561-0.624,12-4.458,12-4.458s1.338-0.49,1.651,0.267c0.312,0.758,26.765,67.314,26.765,67.314l-0.535-74.001
		c0,0-0.033-1.337,1.271-1.638c1.305-0.301,9.213-2.014,9.182-2.014c-0.032,0,1.167-0.189,1.167,1.072
		c0,1.261-0.156,88.751-0.156,88.751s-0.145,1.527-1.327,1.761c-1.182,0.234-12.903,3.009-12.858,3.009s-1.427,0.357-1.918-0.892
		c-0.491-1.248-25.962-66.199-25.962-66.199s0.401,73.689,0.357,73.733c-0.045,0.045,0.134,1.204-1.026,1.649
		c-1.16,0.446-8.609,2.987-8.609,2.987s-1.338-0.045-1.338-1.293L144.901,199.981z M207.397,94.508c0,0-0.446-1.293,1.829-1.56
		c2.275-0.267,14.141-2.987,44.474-3.789c0,0,2.052-0.446,2.052,0.981v6.241c0,0.357-0.134,1.427-1.294,1.427
		s-21.412-0.045-34.928,2.675l-0.089,30.759c0,0,9.412-2.006,28.683-2.229c0,0,1.061-0.637,1.061,1.002v5.989
		c0,0,0.126,1.702-1.262,1.513c-1.388-0.189-22.206,0.693-28.641,2.207l-0.063,34.737c0,0,11.292-2.017,34.949-2.522
		c0,0,1.514-0.441,1.514,1.324v5.548c0,0,0.379,1.765-1.514,1.765s-28.073,0.441-44.917,3.783c0,0-1.703,0.252-1.703-0.946
		L207.397,94.508L207.397,94.508z M284.135,180.134l-0.062-81.327c0,0-12.491-1.355-21.229-1.009c0,0-1.229,0.126-1.229-1.166
		s-0.032-6.525-0.032-6.525s-0.314-1.064,1.167-1.009c1.581,0.059,29.552,0.269,54.885,5.043c0,0,1.325,0.252,1.325,1.324v6.178
		c0,0-0.189,1.639-1.451,1.387c-1.262-0.252-10.409-2.017-21.386-3.215v80.948c0,0,0.315,1.576-1.136,1.45l-9.4-0.757
		c0,0-1.388,0.126-1.451-1.324V180.134z M361.983,134.427c0,0-1.072-0.567-1.01-1.387c0.063-0.82,0.063-12.041,0.063-12.041
		s-0.189-6.115-7.949-10.339c0,0-5.047-3.215-13.311-2.963c-0.315,0.062-4.921,0.188-5.236,6.872c0,0-0.379,7.88,2.902,12.231
		c0,0,5.109,6.809,11.545,13.239l10.472,10.97c0,0,9.147,9.457,11.86,15.067c0,0,2.713,4.098,3.027,14.311
		c0,0,1.199,15.004-10.851,15.635c0,0-9.084,1.828-26.433-5.485c0,0-16.088-5.674-17.412-20.741l-0.126-13.996
		c0,0-0.063-1.387,1.324-1.324l9.526,1.828c0,0,1.066,0,1.072,1.387l0.062,13.491c0,0,0.442,12.357,22.27,15.635
		c0,0,8.769,1.954,8.643-6.367l0.063-7.061c0,0-0.189-6.62-9.841-16.076l-21.008-21.057c0,0-7.523-7.492-8.958-17.4
		c0,0-0.693-9.457,2.586-14.815c0,0,7.066-12.294,32.427-0.252c0,0,12.933,4.917,14.51,17.904l0.694,15.004
		c0,0-0.126,1.513-1.451,1.261S361.983,134.428,361.983,134.427L361.983,134.427z"/>
	<path fill="none" stroke="#000000" stroke-width="0.32" d="M250.578,222.895c0,0-0.446-0.134-0.446,0.535
		c0,0.669,0,28.129-0.045,28.129c0,0-0.045,0.49,0.491,0.49c0.535,0,7.048-0.045,7.048-0.045s7.494-0.981,7.494-7.623V229.18
		c0.213-7.021-5.847-6.279-7.718-6.33L250.578,222.895L250.578,222.895z M250.578,261.9c0,0-0.446-0.045-0.491,0.535
		c0,0,0.045,34.771,0,34.771s0,0.58,0.669,0.624c0.669,0.045,10.126,0.134,10.126,0.134c0.853-0.473,7.823,1.234,7.851-9.807v-17.52
		c-0.168-1.492-0.786-8.94-12.4-8.736h-5.754V261.9z"/>
	<path fill="#FFFFFF" stroke="#FFFFFF" stroke-width="0.32" d="M239.203,197.217c-7.762,1.694-23.642,9.005-35.062,24.518
		c14.364-2.229,26.14,5.617,30.512,7.489l0.089,4.636c-14.988-7.668-23.999-8.47-32.743-8.381
		c-3.212,2.942-10.284,20.789-9.412,37.981c2.424,1.453,4.372,11.502,41.976,20.239l-0.089,5.617c0,0-27.435-2.924-41.442-21.291
		c1.626,15.8,14.105,41.867,37.695,49.822c20.732,2.952,32.957-3.843,51.683-13.166c20.296-10.732,20.087-11.41,26.68-14.559
		c1.682-6.494,1.909-11.742,1.909-11.742c-11.229,5.611-27.054,8.674-27.054,8.674l-0.062-4.602
		c13.753-2.521,27.379-8.889,27.379-8.889c0.117-8.588-0.863-13.938-0.863-13.938c-9.814,5.884-26.854-0.268-29.442-0.893
		c-2.052-3.387-2.944-3.298-2.944-3.298c2.141-2.764,1.518-3.745,1.518-3.745c8.119,4.28,21.5,6.687,29.62,2.942
		C299.87,216.474,266.146,193.471,239.203,197.217L239.203,197.217z"/>
	<path fill="#FFFFFF" d="M236.169,320.879c9.141,6.646,61.042,8.73,71.775-26.257C284.729,309.045,262.857,324.693,236.169,320.879z
		 M305.9,303.889c0,0,8.643-9.646,8.895-13.176c-0.704-0.686-2.021,0.436-2.965,1.072
		C312.486,292.059,308.689,299.443,305.9,303.889z M315.583,275.645c-0.095,1.576,0.315,2.428-2.303,12.547
		c1.766-0.504,1.956-0.631,3.279,0.757c4.396-7.769,5.813-16.378,6.183-21.183C319.525,274.006,315.582,275.645,315.583,275.645
		L315.583,275.645z"/>
	<path stroke="#000000" stroke-width="0.32" d="M239.344,215.438c0.05,30.163,0.069,60.326,0.138,90.488
		c1.295,3.448,6.26,1.164,9.205,1.781c5.456-0.133,10.939,0.172,16.377-0.244c6.985-1.049,13.49-6.73,13.83-14.052
		c0.054-8.716,0.039-17.438-0.024-26.155c-0.634-4.865-4.17-9.418-8.843-11.017c4.66-2.555,6.063-8.176,5.699-13.115
		c-0.141-5.768,0.188-11.561-0.351-17.308c-0.499-5.235-3.81-10.467-9.164-11.748c-4.562-1.229-9.327-0.519-13.991-0.692
		c-3.873,0.057-7.775-0.082-11.629,0.102C239.744,213.699,239.293,214.611,239.344,215.438L239.344,215.438z"/>
	<path fill="#FFFFFF" stroke="#000000" stroke-width="0.32" d="M250.399,222.895c0,0-0.401,0.089-0.401,0.49l0.045,28.174
		c0,0-0.045,0.401,0.446,0.357c0.491-0.045,7.093,0,7.093,0s7.45-0.045,7.494-7.935l0.045-15.558c0,0,0.58-5.439-5.844-5.483
		L250.399,222.895L250.399,222.895z M250.087,261.768l-0.045,35.528c0,0-0.045,0.624,0.848,0.624c0.892,0,10.528-0.045,10.528-0.045
		s7.182,0.848,7.137-9.406l-0.045-18.857c0,0-0.803-7.935-11.777-7.846h-6.646L250.087,261.768z"/>
	<path fill="#FFFFFF" d="M321.059,243.312c3.078,6.687,2.364,17.163,2.364,17.163c-2.052,5.617-4.595,8.871-7.939,11.012
		c0.045-9.764-1.518-14.889-1.518-14.889C319.899,251.381,321.059,243.313,321.059,243.312L321.059,243.312z"/>
	<path fill="#FFFFFF" stroke="#FFFFFF" stroke-width="0.32" d="M317.357,235.466c-4.282-21.665-33.992-44.4-65.574-41.102
		c37.979,3.996,56.098,40.815,61.023,56.972C318.071,248.661,317.357,235.466,317.357,235.466L317.357,235.466z"/>
	<path stroke="#000000" stroke-width="0.32" d="M159.355,405.934c0.347-0.368,4.933-2.622,4.818-8.023l0.032-14.35
		c0.133-4.315-3.56-8.69-8.574-8.748l-16.407-0.117l-0.002,0.002l0.058,66.989c0,0,0,0.803,0.268,0.803h17.13
		c0.572,0.02,9.792-2.319,9.814-10.521v-18.099C166.342,410.786,163.554,406.525,159.355,405.934z M145.599,381.023
		c0-0.41,0.22-0.348,0.252-0.41l6.466,0.062c5.836,0.096,5.268,4.319,5.268,4.319l0.032,12.451
		c-0.095,6.115-7.255,5.769-7.255,5.769h-4.448c-0.347,0-0.252-0.284-0.252-0.284L145.599,381.023z M154.022,436.723l-8.107-0.031
		c-0.221,0-0.189-0.284-0.189-0.284l-0.032-26.825c0,0-0.063-0.158,0.252-0.473v0.001l6.025,0.031
		c8.895-0.031,8.233,7.755,8.233,7.755L160.236,429C160.299,437.007,154.022,436.723,154.022,436.723z"/>
	<g>
		<polygon stroke="#000000" stroke-width="0.32" points="170.326,374.923 170.328,374.923 170.328,374.922 		"/>
		<path stroke="#000000" stroke-width="0.32" d="M189.159,409.913c1.134-0.024,8.775-3.482,8.737-9.598v-16.076
			c0,0-0.757-9.394-11.955-9.33l-15.613,0.014l0.268,66.765c0,0,0.089,0.802,0.446,0.713c0.357-0.09,5.085,0,5.085,0
			s0.714-0.09,0.714-0.893c0-0.802,0.089-31.026,0.089-31.026l5.531-0.09l12.024,31.998l5.877,0.017c0,0,0.468-0.104,0.531-0.451
			v-1.04L189.159,409.913z M176.89,404.476l-0.032-23.831h0.001l8.832,0.031c6.088-0.062,5.552,6.21,5.552,6.21l-0.032,12.294
			c0.063,5.107-4.637,5.296-4.637,5.296H176.89z"/>
	</g>
	<path stroke="#000000" stroke-width="0.32" d="M230.549,388.281c0.185-19.975-28.549-18.635-28.46,0.178v0.001l0.089,40.923
		c0.149,18.62,28.526,18.942,28.46,0.178L230.549,388.281z M224.303,429.205c-0.089,10.968-15.88,10.522-15.791,0v-41.637
		c0.112-10.285,15.786-9.938,15.791,0.445V429.205z"/>
	<path stroke="#000000" stroke-width="0.32" d="M263.023,388.146c0.186-19.976-28.548-18.635-28.459,0.178v0.001l0.089,40.923
		c-0.029,18.62,28.527,18.942,28.46,0.178L263.023,388.146z M256.777,429.07c-0.088,10.968-15.879,10.522-15.791,0v-41.637
		c0.112-10.285,15.787-9.938,15.791,0.445V429.07z"/>
	<path stroke="#000000" stroke-width="0.32" d="M272.837,374.284l-4.996-0.046c-0.09,0.068-0.903-0.157-0.758,0.803l0.089,66.422
		c0,0-0.021,0.697,0.58,0.713c0.758,0.021,5.041,0,5.041,0c0.052-0.035,0.876,0.174,0.803-0.758v-25.276l3.479-6.308l11.53,31.718
		c0,0,0.067,0.558,0.647,0.58h5.442c0,0,0.602,0.089,0.625-0.468c0.021-0.557-0.022-1.204-0.022-1.204l-13.94-38.739l13.873-26.324
		c0,0,0.291-1.069-0.535-1.047h-5.933c-0.187,0.021-0.354,0.069-0.424,0.266l-14.676,28.776l-0.067-28.419
		c0,0,0.111-0.713-0.468-0.691h-0.29L272.837,374.284z M304.007,374.561l-5.235-0.062c0,0-0.758,0-0.758,1.135l0.037,65.902
		c0,0,0.35,0.657,0.729,0.657l22.451,0.025c0,0,0.567-0.171,0.567-0.863v-4.254c0,0,0.189-0.692-0.757-0.692h-16.213l-0.062-61.153
		c0,0-0.252-0.757-0.758-0.692L304.007,374.561z M319.021,374.561H314.1c0,0-0.883,0.441-0.693,1.198
		c0.188,0.757,13.122,37.196,13.122,37.196l0.126,28.685c0,0-0.126,0.63,0.314,0.694c0.442,0.063,5.11,0,5.11,0s0.694,0,0.694-0.693
		v-28.622l13.753-37.448c0,0,0.505-1.135-0.757-1.071c-1.263,0.063-5.174,0-5.174,0s-0.693,0-0.945,0.946l-9.716,28.622
		l-9.715-28.812c0,0-0.379-0.693-1.198-0.693V374.561z M356.121,374.551h-6.87c0,0-0.669,0.045-0.714,0.893
		c-0.045,0.847-0.045,66.244-0.045,66.244s-0.223,0.758,0.535,0.758l4.861,0.037c0,0,0.804,0.008,0.849-0.93
		c0.045-0.936-0.224-54.296-0.224-54.296l13.473,54.563c0,0,0.359,0.543,0.895,0.587h7.146c0,0,0.657,0.126,0.657-0.766v-66.378
		c0,0-0.045-0.58-0.892-0.623l-4.862-0.045c0,0-0.714-0.046-0.714,0.668l0.851,56.666l-14.132-56.771
		C356.935,375.159,356.883,374.541,356.121,374.551L356.121,374.551z"/>
</g>
</svg>
