<?xml version="1.0" encoding="utf-8"?>
<!-- Generator: Adobe Illustrator 16.0.4, SVG Export Plug-In . SVG Version: 6.00 Build 0)  -->
<!DOCTYPE svg PUBLIC "-//W3C//DTD SVG 1.1//EN" "http://www.w3.org/Graphics/SVG/1.1/DTD/svg11.dtd">
<svg version="1.1" id="Layer_1" xmlns="http://www.w3.org/2000/svg" xmlns:xlink="http://www.w3.org/1999/xlink" x="0px" y="0px" viewBox="12.24 192.946 587.52 406.109"
	 enable-background="new 12.24 192.946 587.52 406.109" xml:space="preserve">
<g>
	<path fill="#4B90CD" d="M149.991,297.363c43.102-26.585,68.064-26.891,68.064-26.891l1.814,2.144l95.996-79.67l92.285,77.961
		l3.146-3.102c0,0,25.016,3.892,55.876,23.163c42.377,26.458,70.475,55.332,70.475,55.332h-21.608l15.163,18.869l-0.962,4.125
		c0,0,21.88-0.446,33.202,1.596c8.996,1.625,18.671,8.365,18.671,8.365l12.815-4.436v89.925h-35.34c0,0,15.844,9.488,21.234,15.862
		c2.95,3.486,5.941,6.809,7.961,10.911c2.296,4.676,5.293,10.817,5.293,21.439v47.22c0,4.663-2.843,14.734-5.398,18.876
		c-4.975,8.052-11.477,14.14-20.35,17.271c-9.803,3.46-24.931,3.146-33.756,0.299c-4.979-1.608-13.192-7.586-13.192-7.586
		l-7.623,6.681l-17.699-9.599v12.12h-56.568l-16.984-13.345v13.345h-77.998c0,0-6.059-7.665-9.231-12.12
		c-6.198,4.609-12.517,10.387-20.991,11.721c-6.042,0.947-11.832,1.019-17.557,0.105c-6.451-1.03-12.079-3.854-17.396-7.904
		c-4.108-3.129-7.594-7.79-11.06-11.438c-10.739,6.598-23.271,16.018-31.822,18.737c-5.236,1.669-19.3,1.818-26.504-1.256
		c-10.169-4.341-21.3-17.714-21.3-17.714s-25.442,18.008-33.107,19.631c-7.66,1.623-16.103,1.479-23.315-1.2
		c-5.88-2.181-10.213-5.466-15.055-9.608c-7.408,4.451-17.895,10.96-17.895,10.96H64.71l-1.843-2.132l-3.594,2.132H12.769v-45.43
		c0,0,5.804-0.284,5.804-5.352V422.333c0-5.163-6.333-5.256-6.333-5.256v-46.189h90.282l-6.047-12.612l11.308-12.02h-19.2
		C88.583,346.257,116.062,318.291,149.991,297.363"/>
	<path fill="none" stroke="#FDB827" stroke-width="0.8663" d="M521.471,365.307c0,0-14.216-20.257-48.703-46.654
		c-34.49-26.394-57.782-41.432-57.782-41.432l-6.052,5.831l6.052-5.831c0,0,21.882,3.346,55.058,25.166
		c27.527,18.107,47.19,35.513,47.19,35.513h-21.477 M105.825,359.474c0,0,23.895-24.554,46.585-40.512
		c22.686-15.961,60.801-40.512,60.801-40.512l5.447,5.832l-5.447-5.832c0,0-29.946,4.914-66.554,30.079
		c-35.312,24.277-38.936,30.076-38.936,30.076h20.14"/>
	<polygon fill="#002D62" points="315.16,202.028 137.286,347.194 500.293,357.021 	"/>
	<polygon fill="#FFFFFF" points="228.034,280.902 315.16,209.394 405.002,285.815 350.248,263.409 349.946,286.736 328.771,266.79 
		316.673,299.015 301.244,265.869 283.395,279.37 277.045,261.568 	"/>
	<path fill="#002D62" d="M22.333,378.761h110.716c0,0,108.902-26.348,176.665-26.348c67.761,0,187.551,20.255,187.551,20.255
		l58.688,4.296l10.137,79.795h-35.696l41.29,52.174l-6.656,50.947l-39.324,15.964l-12.401,9.508l-32.671-15.347l-33.878,21.178
		l-5.449,0.008l-29.944-21.795l-64.059,21.795l-16.105-22.104l-49.009-9.207l-42.348,27.933l-37.816-26.399l-43.259,26.658
		l-33.878-20.213l-29.951,23.332l-20.568-17.192l-20.267,17.192l-18.759-25.176l-7.261-174.011L22.333,378.761z"/>
	<path fill="none" stroke="#000000" stroke-width="0.1245" d="M22.333,378.761h110.716c0,0,108.902-26.348,176.665-26.348
		c67.761,0,187.551,20.255,187.551,20.255l58.688,4.296l10.137,79.791h-35.696l41.29,52.176l-6.656,50.948l-39.324,15.963
		l-12.401,9.509l-32.671-15.347l-33.878,21.178l-5.449,0.007l-29.944-21.794l-64.059,21.794l-16.105-22.103l-49.009-9.207
		l-42.348,27.932l-37.816-26.399l-43.259,26.659l-33.878-20.213l-29.951,23.331l-20.568-17.192l-20.267,17.192l-18.759-25.175
		l-7.261-174.011L22.333,378.761z"/>
	<path fill="#FDB827" d="M18.776,378.81h30.176l25.109,117.849l0.306-70.794c0,0,0.149-8.237-2.117-10.538
		c-2.272-2.299-5.144-5.317-5.144-5.317v-31.2h34.184v31.203c0,0-3.028,3.784-4.536,5.316c-1.516,1.538-1.819,10.539-1.819,10.539
		v165.325H69.829l-23.9-115.1v65.374c0,0,1.163,8.817,2.722,11.657c1.516,2.766,5.447,5.838,5.447,5.838v32.23H18.776v-32.23
		c0,0,2.648-1.532,4.766-3.687c2.118-2.151,2.418-10.436,2.418-10.436V425.865c0,0-1.209-8.08-2.717-10.538
		c-1.515-2.45-4.467-5.317-4.467-5.317V378.81z"/>
	<path fill="none" stroke="#FFFFFF" stroke-width="0.7468" d="M18.776,378.808h30.176l25.109,117.852l0.306-70.794
		c0,0,0.149-8.237-2.117-10.538c-2.272-2.299-5.144-5.317-5.144-5.317v-31.202h34.184v31.205c0,0-3.028,3.784-4.536,5.316
		c-1.516,1.538-1.819,10.539-1.819,10.539v165.325H69.829l-23.9-115.1v65.374c0,0,1.163,8.817,2.722,11.657
		c1.516,2.766,5.447,5.838,5.447,5.838v32.23H18.776v-32.23c0,0,2.648-1.532,4.766-3.687c2.118-2.151,2.418-10.436,2.418-10.436
		V425.865c0,0-1.209-8.08-2.717-10.538c-1.515-2.45-4.467-5.317-4.467-5.317V378.808z"/>
	<path fill="#FDB827" d="M104.312,428.83v31.303c0,0,2.776,0.2,4.238,1.843c2.72,3.072,1.814,9.824,1.814,9.824v84.402
		c0,0,2.722,35.293,33.878,35.293c31.161,0,33.883-35.907,33.883-35.907V444.182c0,0-0.306-11.969,1.51-14.123
		c1.814-2.146,4.842-6.44,4.842-6.44v-32.534c0,0-8.169,2.453-21.175,7.98c-13.006,5.521-16.639,7.056-16.639,7.056v32.226
		c0,0,3.028,1.229,3.028,3.067v98.522c0,0,0.146,8.132-5.601,8.132c-5.746,0-5.594-5.685-5.594-7.831v-86.851
		c0,0-0.604-6.759,0.607-8.6c1.209-1.843,2.419-5.522,2.419-5.522v-30.989c0,0-9.075,3.99-21.477,11.05
		C107.639,426.377,104.312,428.83,104.312,428.83"/>
	<path fill="none" stroke="#FFFFFF" stroke-width="0.7468" d="M104.312,428.83v31.303c0,0,2.776,0.2,4.238,1.843
		c2.72,3.072,1.814,9.824,1.814,9.824v84.397c0,0,2.722,35.298,33.878,35.298c31.161,0,33.883-35.907,33.883-35.907V444.182
		c0,0-0.306-11.969,1.51-14.123c1.814-2.146,4.842-6.44,4.842-6.44v-32.534c0,0-8.169,2.453-21.175,7.98
		c-13.006,5.521-16.639,7.056-16.639,7.056v32.226c0,0,3.028,1.229,3.028,3.067v98.517c0,0,0.146,8.133-5.601,8.133
		c-5.746,0-5.594-5.68-5.594-7.826v-86.851c0,0-0.604-6.759,0.607-8.6c1.209-1.843,2.419-5.522,2.419-5.522V408.27
		c0,0-9.075,3.995-21.477,11.055C107.639,426.377,104.312,428.83,104.312,428.83z"/>
	<path fill="#FDB827" d="M254.83,395.557l5.124-2.893v64.831h-29.494V431.29c0,0,0.903-7.98-5.447-7.98
		c-7.261,0-6.656,7.361-6.656,7.361v107.803c0,0-0.604,9.743,6.358,9.743c6.955,0,5.748-9.743,5.748-9.743V501h-4.539v-24.596
		h34.032v87.771c0,0-11.041,27.312-35.545,27.312s-34.786-25.779-34.786-30.078V415.019c0,0,3.932-34.375,36.603-34.375
		C244.979,380.651,254.83,395.557,254.83,395.557"/>
	<path fill="none" stroke="#FFFFFF" stroke-width="0.7468" d="M254.83,395.557l5.124-2.893v64.831h-29.494V431.29
		c0,0,0.903-7.98-5.447-7.98c-7.261,0-6.656,7.361-6.656,7.361v107.803c0,0-0.604,9.743,6.358,9.743
		c6.955,0,5.748-9.743,5.748-9.743V501h-4.539v-24.596h34.032v87.771c0,0-11.041,27.312-35.545,27.312s-34.786-25.779-34.786-30.078
		V415.019c0,0,3.932-34.375,36.603-34.375C244.979,380.651,254.83,395.557,254.83,395.557z"/>
	<path fill="#FDB827" d="M340.416,384.022v73.474h-29.794v-34.184c0,0,0.606-9.829-6.355-9.829c-6.955,0-6.046,8.287-6.046,9.521
		v115.472c0,0-0.609,9.743,6.35,9.743c6.96,0,6.351-9.743,6.351-9.743v-37.474h-5.144v-24.595h34.634v87.771
		c0,0-10.734,27.139-34.938,27.139c-29.342,0-37.011-29.905-37.011-29.905V403.055c0,0,3.133-32.335,36.559-32.335
		c18.306,0,28.974,15.763,28.974,15.763L340.416,384.022z"/>
	<path fill="none" stroke="#FFFFFF" stroke-width="0.7468" d="M340.416,384.022v73.474h-29.794v-34.184c0,0,0.606-9.829-6.355-9.829
		c-6.955,0-6.046,8.287-6.046,9.521v115.472c0,0-0.609,9.743,6.35,9.743c6.96,0,6.351-9.743,6.351-9.743v-37.474h-5.144v-24.595
		h34.634v87.771c0,0-10.734,27.139-34.938,27.139c-29.342,0-37.011-29.905-37.011-29.905V403.055c0,0,3.133-32.335,36.559-32.335
		c18.306,0,28.974,15.763,28.974,15.763L340.416,384.022z"/>
	<path fill="#FDB827" d="M347.3,373.591c0,0,7.491-0.306,33.504,4.908c26.015,5.217,33.275,7.983,33.275,7.983v71.014h-22.382
		c0,0,0.903-25.897-3.028-32.346c-2.57-4.22-6.35-6.142-6.35-6.142v57.398h16.333v24.543h-16.943v51.871
		c0,0,7.266-1.841,9.075-11.358c1.513-7.93,0.913-23.939,0.913-23.939h22.382v73.665h-66.776V558.65c0,0,5.976-1.54,5.976-10.128
		V418.091c0-6.14-5.976-10.434-5.976-10.434v-34.066H347.3z"/>
	<path fill="none" stroke="#FFFFFF" stroke-width="0.7468" d="M347.3,373.591c0,0,7.491-0.306,33.504,4.906
		c26.015,5.219,33.275,7.986,33.275,7.986v71.014h-22.382c0,0,0.903-25.897-3.028-32.346c-2.57-4.22-6.35-6.142-6.35-6.142v57.398
		h16.333v24.543h-16.943v51.871c0,0,7.266-1.841,9.08-11.358c1.508-7.93,0.908-23.939,0.908-23.939h22.382v73.665h-66.776V558.65
		c0,0,5.976-1.54,5.976-10.128V418.091c0-6.14-5.976-10.434-5.976-10.434v-34.066H347.3z"/>
	<path fill="#FDB827" d="M422.853,388.938c0,0,14.825,2.764,43.257,16.265c28.434,13.503,38.421,19.643,38.421,19.643v32.651
		h-18.154c0,0,0.345-6.58-1.209-11.17c-1.812-5.371-6.052-8.595-6.052-8.595v104.042c0,0,0,7.366,2.419,10.742
		c2.421,3.373,5.141,5.831,5.141,5.831v32.845h-45.371v-32.23c0,0,3.324-1.532,5.143-4.294c1.814-2.762,3.327-12.59,3.327-12.59
		V432.776c0,0-6.955,2.193-6.955,11.094v13.624h-19.966V388.938z"/>
	<path fill="none" stroke="#FFFFFF" stroke-width="0.7468" d="M422.853,388.938c0,0,14.825,2.761,43.257,16.265
		c28.434,13.503,38.421,19.643,38.421,19.643v32.651h-18.154c0,0,0.345-6.58-1.209-11.17c-1.812-5.371-6.052-8.595-6.052-8.595
		v104.042c0,0,0,7.366,2.419,10.742c2.421,3.373,5.141,5.831,5.141,5.831v32.845h-45.371v-32.23c0,0,3.324-1.532,5.143-4.294
		c1.814-2.762,3.327-12.59,3.327-12.59V432.776c0,0-6.955,2.193-6.955,11.094v13.624h-19.966V388.938z"/>
	<path fill="#FDB827" d="M579.549,387.706l6.958-2.761v71.817h-28.128v-29.464c0,0,0.299-12.585-8.773-12.585
		c-9.082,0-7.87,12.585-7.87,12.585v26.132c0,3.376,2.421,9.467,8.778,14.074c17.824,12.915,24.193,17.493,27.527,21.178
		c3.319,3.679,7.865,12.886,7.865,18.107v57.389c0,2.762-5.449,27.004-36.301,27.004c-16.037,0-28.744-11.662-28.744-11.662
		l-7.56,5.828v-62.908h27.831v20.411c0,0-0.908,10.271,8.167,10.271c9.079,0,8.169-10.271,8.169-10.271v-25.324
		c0,0-1.514-9.207-6.052-11.969c-14.108-8.585-25.415-17.185-30.25-22.096c-3.929-3.99-8.169-14.731-8.169-23.633V411.65
		c0-5.22,1.973-16.421,8.773-23.327c6.52-6.612,16.336-11.665,29.951-11.665C569.87,376.658,579.549,387.706,579.549,387.706"/>
	<path fill="none" stroke="#FFFFFF" stroke-width="0.7468" d="M579.549,387.706l6.958-2.761v71.812h-28.128v-29.459
		c0,0,0.299-12.585-8.773-12.585c-9.082,0-7.865,12.585-7.865,12.585v26.132c0,3.376,2.416,9.467,8.773,14.074
		c17.824,12.915,24.193,17.493,27.527,21.178c3.319,3.679,7.865,12.886,7.865,18.105v57.393c0,2.762-5.449,27.004-36.301,27.004
		c-16.037,0-28.744-11.662-28.744-11.662l-7.56,5.829v-62.911h27.831v20.411c0,0-0.908,10.271,8.167,10.271
		c9.079,0,8.169-10.271,8.169-10.271v-25.324c0,0-1.514-9.207-6.052-11.969c-14.108-8.585-25.415-17.185-30.25-22.096
		c-3.929-3.99-8.169-14.731-8.169-23.633v-48.184c0-5.215,1.973-16.417,8.773-23.322c6.52-6.617,16.336-11.665,29.951-11.665
		C569.87,376.658,579.549,387.706,579.549,387.706z"/>
	<path fill="#4B90CD" d="M105.825,359.474c0,0,85.002-47.881,204.193-47.881c119.186,0,211.45,54.015,211.45,54.015l-28.135,41.744
		c0,0-73.509-45.731-183.315-45.731c-109.811,0-177.875,40.818-177.875,40.818L105.825,359.474"/>
	<path fill="none" stroke="#FDB827" stroke-width="0.8663" d="M105.825,359.474c0,0,85.002-47.881,204.193-47.881
		c119.186,0,211.45,54.015,211.45,54.015l-28.135,41.744c0,0-73.509-45.731-183.315-45.731
		c-109.811,0-177.875,40.818-177.875,40.818L105.825,359.474"/>
	<path fill="#FFFFFF" d="M158.153,374.144l8.556-2.957c7.138-2.467,8.884-6.886,7.261-11.726c-1.623-4.842-5.665-7.256-12.806-4.791
		l-8.556,2.957L158.153,374.144z M140.824,356.107c-0.176-0.512-0.509-0.837-2.232-0.375l-0.228-0.681l22.363-7.728
		c12.392-4.282,20.367,0.208,23.214,8.69c2.617,7.804-1.374,17.188-13.897,21.516l-21.621,7.471l-0.233-0.683
		c1.648-0.695,1.714-1.166,1.542-1.672L140.824,356.107z"/>
	<path fill="#FFFFFF" d="M234.367,348.854l-0.837,0.174c-0.36-0.722-0.967-1.214-2.36-0.923l-12.969,2.673l1.094,5.483l22.387-4.617
		c0.764-0.157,0.987-0.512,0.901-2.029l0.833-0.171l2.056,10.257l-0.837,0.171c-0.409-0.96-0.747-1.195-1.515-1.038l-34.793,7.177
		l-0.142-0.707c1.719-0.475,1.846-0.933,1.738-1.464l-5.5-27.472c-0.103-0.529-0.395-0.901-2.167-0.661l-0.142-0.707l34.793-7.175
		c0.771-0.157,0.989-0.509,0.928-1.91l0.837-0.171l2.051,10.257l-0.837,0.171c-0.475-1.312-0.817-1.55-1.586-1.393l-22.382,4.62
		l0.981,4.891l12.97-2.673c1.393-0.292,1.76-0.979,1.824-1.787l0.833-0.171L234.367,348.854z"/>
	<path fill="#FFFFFF" d="M267.851,325.329c-0.03-0.539-0.267-0.947-2.047-0.967l-0.039-0.717l17.116-0.977l0.044,0.725
		c-1.633,0.151-1.966,0.533-1.946,0.893c0.034,0.661,12.935,11.011,18.162,15.352l-0.886-16.032
		c-0.037-0.722-0.622-0.989-1.552-0.994l-0.04-0.725l13.002-0.737l0.039,0.72c-1.772,0.223-1.961,0.654-1.93,1.195l1.548,27.985
		c0.029,0.541,0.264,0.95,2.046,0.969l0.039,0.72l-13.496,0.769l-0.044-0.722c1.28-0.071,1.625-0.333,1.599-0.756
		c-0.042-0.781-1.86-1.459-21.591-18.11l1.038,18.859c0.029,0.539,0.267,0.95,2.049,0.969l0.042,0.72l-13.496,0.766l-0.044-0.717
		c1.77-0.22,1.961-0.656,1.934-1.192L267.851,325.329z"/>
	<path fill="#FFFFFF" d="M344.603,354.753l0.076-0.717c0.856-0.029,1.084-0.186,1.113-0.423
		c0.057-0.539-10.046-26.083-11.272-29.361c-0.495-1.388-0.747-1.716-1.447-1.855l0.068-0.715l14.51,1.582l-0.076,0.717
		c-1.138-0.062-1.449,0.147-1.493,0.563c-0.049,0.477,0.861,2.029,7.979,19.266c10.093-14.872,11.407-16.485,11.483-17.202
		c0.044-0.421-0.149-0.622-0.992-0.773l0.079-0.715l12.169,1.327l-0.076,0.717c-0.58,0.057-0.876,0.147-1.144,0.661
		c-0.913,1.838-17.167,26.262-17.253,27.099c-0.037,0.301,0.294,0.576,0.933,0.646l-0.086,0.778L344.603,354.753z"/>
	<path fill="#FFFFFF" d="M421.413,357.27l-0.827-0.21c-0.02-0.81-0.362-1.518-1.745-1.87l-12.833-3.253l-1.341,5.427l22.156,5.621
		c0.764,0.191,1.109-0.029,1.677-1.435l0.83,0.206l-2.504,10.154l-0.828-0.208c0.04-1.045-0.161-1.405-0.923-1.599l-34.445-8.734
		l0.176-0.705c1.751,0.323,2.062-0.034,2.191-0.561l6.702-27.192c0.128-0.526,0.018-0.989-1.677-1.542l0.172-0.7l34.443,8.737
		c0.756,0.191,1.108-0.032,1.643-1.32l0.83,0.206l-2.5,10.154l-0.827-0.211c0.122-1.393-0.081-1.755-0.845-1.946l-22.159-5.618
		l-1.188,4.844l12.835,3.254c1.378,0.352,2.008-0.108,2.409-0.815l0.822,0.21L421.413,357.27z"/>
	<path fill="#FFFFFF" d="M464.41,364.482l11.119,4.458c3.901,1.566,5.659,0.59,6.293-1.031c0.627-1.623,0.008-3.555-3.896-5.121
		l-11.116-4.458L464.41,364.482z M458.437,379.812c-0.188,0.504-0.148,0.974,1.467,1.75l-0.26,0.671l-13.63-5.471l0.262-0.668
		c1.691,0.553,2.047,0.24,2.242-0.262l10.159-26.071c0.193-0.502,0.154-0.975-1.464-1.748l0.262-0.671l24.216,9.714
		c9.792,3.929,12.825,8.509,10.341,14.889c-1.998,5.148-7.036,6.294-13.033,5.381l4.188,12.416c0.315,0.967,0.8,1.484,1.527,1.777
		l-0.26,0.673l-13.765-5.523l0.262-0.673c0.952,0.318,1.589,0.25,1.848-0.421c0.199-0.501-3.812-11.035-4.21-12.556l-6.482-2.6
		L458.437,379.812z"/>
	<polygon fill="#002D62" points="589.004,590.831 586.681,590.831 586.681,590.014 592.218,590.014 592.218,590.831 
		589.917,590.831 589.917,597.174 589.004,597.174 	"/>
	<polygon fill="#002D62" points="595.971,597.174 594.047,591.355 594.047,597.174 593.113,597.174 593.113,590.014 
		594.408,590.014 596.438,596.106 598.475,590.014 599.76,590.014 599.76,597.174 598.832,597.174 598.832,591.355 596.903,597.174 
			"/>
</g>
</svg>
