<?xml version="1.0" encoding="utf-8"?>
<!-- Generator: Adobe Illustrator 16.0.4, SVG Export Plug-In . SVG Version: 6.00 Build 0)  -->
<!DOCTYPE svg PUBLIC "-//W3C//DTD SVG 1.1//EN" "http://www.w3.org/Graphics/SVG/1.1/DTD/svg11.dtd">
<svg version="1.1" xmlns="http://www.w3.org/2000/svg" xmlns:xlink="http://www.w3.org/1999/xlink" x="0px" y="0px" viewBox="0 0 639.668 521.334" enable-background="new 0 0 639.668 521.334"
	 xml:space="preserve">
<g id="Layer_1">
</g>
<g id="Layer_2">
</g>
<g id="Layer_4">
</g>
<g id="Layer_6">
</g>
<g id="Layer_3">
</g>
<g id="Layer_5">
</g>
<g id="Layer_7">
	<g>
		<polygon fill="#D1D7DC" points="629.174,111 321.435,515.5 13.695,111 		"/>
		<path fill="#0092CA" d="M0,107l321,414.334L639.668,107H0z M320.927,504.334L20.07,116h599.527L320.927,504.334z"/>
		<path fill="#0092CA" d="M113.674,68.875L30.341,252.104l64.667,65.947l25.242-14.025l2.5-11.514l7.25,5.744l46.5-20.504
			l0.542-2.667l1.958-0.252V277l36.333-11.416L431.8,269.5l27.867,8.167l1.792-2.75L463,275v4c0,0,29.335,7.834,80.335,41.5
			l44.166-45.168l22.167-23.166l-44.833-100.501l-21.665-15.166l8-15.334l-23.832-52.29L461.84,44.83l-16.166,11.834l-3.833,10.167
			l-31.666-7.167l-3.834,16.833l-3.165-17.5l-71.5-6.667L314.51,69.664l-1.166,10.167l-3.167-27l-35.167,1.167l-1.166,12.499
			l-3.167-11.833l-33.167,4.833l-3.666,21.167l-4.5-20.167l-30,8.001l-5.5-11.833L166.51,43.331l-7.167,17.833l-3.667-9.333
			L113.674,68.875z"/>
		<polygon points="171.875,123.75 149.25,145 166.5,173.375 176.25,137.25 		"/>
		<polygon points="120.875,171 100.75,189.125 110.125,203.625 121.281,171.469 		"/>
		<polygon points="350,85.938 372.125,86.969 363.875,160 354,160 		"/>
		<polygon points="425.334,183 420.834,159.333 426.001,153.25 432.001,159.375 426.418,183 		"/>
		<polygon points="525.875,186.25 520,171.125 477.5,157.75 473.125,167.625 466,144 471.125,130.5 532.5,174.125 		"/>
		<polygon points="510.375,107.875 546.375,120 538.75,134.5 507.625,113.75 		"/>
		<path d="M498.334,226l-28,50.167c0,0,47.5,20.334,72.5,38.167l43.835-45C586.669,269.334,542.333,240.667,498.334,226z"/>
		<path d="M483.671,220.665l-25.333,51.001l-34.672-8l21.005-54.166C444.671,209.5,482.171,219.665,483.671,220.665z"/>
		<polygon points="390.501,198.832 384.167,227.164 405.411,245.648 412.501,248.332 425.875,204.938 		"/>
		<polygon points="334,194.334 334,209.584 379.084,223.582 384.167,197.584 		"/>
		<polygon points="317,209.667 330,210.084 330,192 317,179.417 		"/>
		<polygon points="301,210 301,194 266.084,197.002 269.166,221.002 		"/>
		<polygon points="249.5,199.752 256,228.084 227.914,248.918 214.082,206.168 		"/>
		<polygon points="195.02,210.584 214.082,261.25 181.875,272.439 156.625,221.75 		"/>
		<polygon points="141.875,225.25 170.25,275.625 134.5,291.75 98.75,242.5 		"/>
		<polygon points="74.25,253.875 114.875,301.375 97,312.5 52,268.125 		"/>
		<ellipse fill="#0092CA" cx="320.75" cy="338.25" rx="130.73" ry="130.23"/>
		<ellipse fill="#FC8344" cx="320.75" cy="338.25" rx="125.232" ry="124.753"/>
		<path fill="#0092CA" d="M245.749,436.168c0,0,5.749,8.916,7.417,10.083c1.666,1.167-11.084-6.166-11.084-6.166l-1.916-4.75
			L245.749,436.168z"/>
		<path fill="#0092CA" stroke="#0092CA" d="M283,219.5c0,0,12.75,7,15.25,8s25.704,9.424,53.75,12.25c32.25,3.25,66,19.75,79.25,38
			l14.5,34.75c0,0-11.961-32.142-39.25-50.5c-27.5-18.5-80-18.25-106-30.25c0,0-17-5.75-25.25-12.25
			C275.25,219.5,277.078,216.286,283,219.5z"/>
		<path fill="none" stroke="#0092CA" stroke-width="5" d="M234.373,243.439c0,0,49.127-4.439,108.127,42.561
			c60.957,48.559,73.625,94.5,80.5,126.5l0.666,1.67"/>
		<path fill="none" stroke="#0092CA" stroke-width="5.5" d="M243.334,437.501c0,0-15.463-32.538-17.168-57.166
			c-1.5-21.665-5.164-62.001,25.836-106.335s67.001-53,87.334-62"/>
		<path fill="none" stroke="#0092CA" stroke-width="5.5" d="M200,297.334c0,0,25.334-27.667,43.334-24.667
			s25.345,9.862,35.345,25.196s15.987,54.801,16.987,57.468s12.333,49,28.333,74s22,31,22,31"/>
		<path fill="#0092CA" d="M342.906,452.25c0,0,6.844,9.969,9.969,7.594l-9.281,2.906l-1.938-8.188L342.906,452.25z"/>
		<polygon fill="#FC8344" points="117,72 147.5,60.25 120.75,128 149.5,103.75 169.166,49.999 189.508,59.666 173.084,117 
			144.125,144.25 157.875,167.125 141.5,221.75 103.125,237 125.625,171.5 120.625,165.625 98.125,185.5 73.125,250.125 49.875,265 
			35.75,251.25 		"/>
		<polygon fill="#FC8344" points="225.666,66.666 233.998,105.5 240.998,64 265.165,60.666 249.164,195.332 217.498,201.332 
			224.164,163.165 214.331,112.331 193.332,207.164 159.332,216.497 197.665,73.663 		"/>
		<polygon fill="#FC8344" points="304.83,57.826 300.163,189.994 267.83,192.327 279.496,58.66 		"/>
		<polygon fill="#FC8344" points="379.414,164.91 382.04,193.534 332.938,190.521 319,175.667 319,72 333.667,57.826 
			367.334,59.667 369.834,82.833 346.167,82 349.834,163.002 		"/>
		<polygon fill="#FC8344" points="374.834,60.67 399.334,63.836 410.501,124.336 425.834,104.503 415.834,66.67 442.001,72.003 
			452.325,110.004 440.825,125.68 461.326,143.172 481.325,215.838 446.48,205.505 436.158,157.338 424.658,147.338 
			416.991,157.672 424.325,200.005 392.158,194.838 		"/>
		<path fill="#FC8344" d="M523.656,72.171l18.5,41.667l-32.833-10l-8.167-20.5l-20.5-7.167l11.334,31.833l68.833,45.834
			l43.833,96.668l-15,16.166c0,0-38.831-25.334-88.664-43.834l-18-58.166l33.834,9.5l9.166,25.666l25.834,12l-15.667-40
			l-64.833-46.167l-20.5-66.333l11.667-9.167L523.656,72.171z"/>
		<polygon fill="#0092CA" points="203.25,59.5 214.998,16.417 224.165,13.5 227.5,20.75 229.582,12.083 239.498,9.583 229.332,54 
			219,55.75 223.5,37.5 220.665,30.916 212.832,57.826 		"/>
		<polygon fill="#0092CA" points="245.666,8.5 237.5,52.375 257.286,49.884 258.5,40.417 249.584,41.5 250.75,32.588 
			259.834,31.917 261.416,23.167 252.227,23.747 253.5,14.833 263,13.333 264,5.167 		"/>
		<polygon fill="#0092CA" points="269.414,3.334 264,44.168 267.83,48 279,48 283,44 286.33,46.833 296.166,46.667 301.666,40.75 
			304,1 296,1 293.527,36.104 288.334,36.333 291,2 282.834,2.167 279,37.333 273.666,37.667 277.83,2.751 		"/>
		<polygon fill="#0092CA" points="319,0 319,28.583 325,35 325,46 334,46 334,34.792 340,29.417 340,0 332,0 331.875,25.25 
			327,25.375 327,0 		"/>
		<path fill="#0092CA" d="M366.748,7.938L361.998,2L349.5,1.417L344.998,5.5l2,35.375l5,6.125h14.625l3.688-6.031L366.748,7.938z
			 M355.561,38l-1.562-28l0,0h5l1.585,28H355.561z"/>
		<path fill="#0092CA" d="M400.875,36.125l-3.294-3.746l1.731-1.629l-2.25-16.188l-6.125-7.812L373,3.917V4.25l6.082,44.583
			l9.23,1.292l-1.812-13.042l5.75,0.083l1.937,13.646l9.438,1.104L400.875,36.125z M384.25,25.375l-1.562-11.062L386.377,15l1.936,1
			l1.604,9.579L384.25,25.375z"/>
		<polygon fill="#0092CA" points="402.625,9.585 412.188,53.667 421.281,55.793 418.375,43 424.227,43.825 427.125,56.75 
			437.375,60 431.875,39.375 428.08,35.625 430.125,32.375 425.75,16.375 417.25,13.625 421.432,32.411 415.976,31.631 411.25,12 		
			"/>
	</g>
</g>
</svg>
