<?xml version="1.0" encoding="utf-8"?>
<!-- Generator: Adobe Illustrator 16.0.4, SVG Export Plug-In . SVG Version: 6.00 Build 0)  -->
<!DOCTYPE svg PUBLIC "-//W3C//DTD SVG 1.1//EN" "http://www.w3.org/Graphics/SVG/1.1/DTD/svg11.dtd">
<svg version="1.1" id="Layer_1" xmlns="http://www.w3.org/2000/svg" xmlns:xlink="http://www.w3.org/1999/xlink" x="0px" y="0px" viewBox="0 0 415.321 264.703" enable-background="new 0 0 415.321 264.703"
	 xml:space="preserve">
<g>
	<path fill="#44256C" d="M243.151,64.235c12.745,0,17.925-22.17,34.435-29.246c16.509-7.076,41.037,0,41.037,0
		s-17.924,0-23.113,13.68c-5.188,13.68,11.321,16.509,23.585,7.547c12.265-8.962,39.151-8.019,48.113-3.773
		c8.963,4.246,19.34,4.245,28.773,0.943s19.34-10.849,19.34-10.849s-4.717,21.698-21.227,33.962s-36.32,8.019-42.924,9.906
		s-11.321,9.434-10.85,14.623s7.075,10.377,14.151,10.377c7.075,0,17.452-2.359,17.452-2.359s2.359,14.151-16.037,29.717
		c-18.396,15.566-42.453,9.905-42.453,9.905l-88.973,16.022l0.539,6.147l-17.34-3.122l-17.34,3.122l0.539-6.147l-88.973-16.022
		c0,0-24.056,5.661-42.453-9.905c-18.396-15.566-16.038-29.717-16.038-29.717s10.377,2.359,17.453,2.359S74.528,106.217,75,101.028
		s-4.246-12.735-10.849-14.623S37.736,88.764,21.227,76.5S0,42.537,0,42.537s9.906,7.547,19.34,10.849s19.811,3.302,28.773-0.943
		s35.849-5.189,48.113,3.773s28.774,6.133,23.585-7.547S96.698,34.99,96.698,34.99s24.528-7.076,41.038,0
		s21.689,29.246,34.434,29.246c16.509,0,17.453-22.642,17.453-22.642s-3.773,0.943-8.962,0c-5.189-0.943-10.377-2.83-10.377-2.83
		s8.962-2.831,12.736-5.661s7.075-8.49,7.075-8.49s-2.83,0-6.604-1.416s-7.547-5.188-7.547-5.188s10.85-0.472,22.642-8.962
		s15.565-8.49,18.867-8.49s5.189,0.943,7.076,2.358s1.887,1.415,1.887,1.415s8.018-3.773,16.98-4.245s17.453,0.943,20.755,6.604
		c0,0-5.659,0.944-12.264,4.717s-12.265,8.962-12.265,8.962s3.772-0.943,7.547-1.415s10.85-0.472,10.85-0.472
		s-18.795,9.987-24.585,23.113C225.944,58.575,233.943,64.235,243.151,64.235z"/>
	<g>
		<path fill="#636A6F" d="M16.509,59.518c0,0,3.774,4.717,15.095,4.717S50,57.16,68.396,57.16s33.019,11.793,38.208,16.981
			c0,0-1.887-3.774-17.925-3.774s-18.868,7.547-37.736,7.547S24.528,68.952,16.509,59.518z"/>
		<path fill="#636A6F" d="M122.17,39.707c0,0,8.962-2.359,17.924,5.66s5.661,12.736,16.038,19.34c0,0-11.321,1.415-19.812-6.132
			S133.491,46.311,122.17,39.707z"/>
		<path fill="#636A6F" d="M398.453,59.518c0,0-3.774,4.717-15.095,4.717c-11.321,0-18.396-7.076-36.793-7.076
			c-18.396,0-33.019,11.793-38.207,16.981c0,0,1.887-3.774,17.925-3.774c16.037,0,18.868,7.547,37.735,7.547
			C382.886,77.915,390.434,68.952,398.453,59.518z"/>
		<path fill="#636A6F" d="M292.792,39.707c0,0-8.962-2.359-17.924,5.66c-8.963,8.019-5.661,12.736-16.038,19.34
			c0,0,11.32,1.415,19.812-6.132C287.131,51.028,281.471,46.311,292.792,39.707z"/>
		<path fill="#636A6F" d="M193.868,60.461c0,0,0.001-13.679,14.151-31.132s35.377-23.113,35.377-23.113s-8.49,5.189-13.207,10.377
			s-10.378,12.264,4.717,12.264c0,0-11.793,4.245-22.642,12.736S193.868,60.461,193.868,60.461z"/>
	</g>
	<path fill="#EFA71F" d="M323.755,81.688c10.849-3.302,16.98-2.83,16.98-2.83s-13.679-5.188-25-3.773
		c-11.32,1.415-16.509,10.849-25,15.566c-8.49,4.717-20.283,0.943-21.227-9.906s7.076-13.208,7.076-13.208
		s-7.075-0.472-14.623,4.245c-7.547,4.717-22.642,5.66-33.962,0.943c-3.761-1.567-7.145-3.654-10.004-5.743
		c-2.148-2.257-4.218-5.651-5.261-9.823c-1.415-5.661,2.83-11.321,2.83-11.321s-9.905,6.14-15.094,14.623
		s-12.265,11.321-12.265,11.321l0.021,0.086c-0.626,0.298-1.26,0.587-1.908,0.857c-11.32,4.717-26.415,3.774-33.962-0.943
		s-14.623-4.245-14.623-4.245s8.019,2.358,7.076,13.208s-12.736,14.623-21.227,9.906s-13.679-14.151-25-15.566s-25,3.773-25,3.773
		s6.132-0.472,16.981,2.83s15.095,10.377,15.095,17.925s-3.774,12.264-8.962,12.264s-10.849-4.246-10.849-4.246
		s0.472,8.962,7.076,15.566s14.151,6.132,14.151,6.132l100.085-0.859l100.085,0.859c0,0,7.547,0.472,14.15-6.132
		c6.604-6.604,7.076-15.566,7.076-15.566s-5.661,4.246-10.85,4.246s-8.962-4.717-8.962-12.264S312.907,84.99,323.755,81.688z"/>
	<polygon fill="#EFA71F" points="91.34,205.688 127.358,218.009 285.377,218.952 322.114,205.802 295.754,188.764 107.076,186.877 	
		"/>
	<path fill="#636A6F" d="M105.925,185.914l-17.137,20.487l38.316,13.105l158.529,0.947l39.845-14.264l-29.274-18.922l-189.823-1.898
		L105.925,185.914z M107.771,188.384c1.406,0.015,186.673,1.867,187.535,1.875c0.64,0.414,19.347,12.506,23.444,15.154
		c-4.827,1.728-33.175,11.875-33.628,12.037c-0.527-0.003-157.022-0.937-157.509-0.939c-0.431-0.147-30.074-10.287-33.721-11.535
		C96.143,202.284,106.99,189.316,107.771,188.384z"/>
	<circle fill="#44256C" cx="207.087" cy="168.714" r="95.989"/>
	<g>
		<path fill="#D5632C" d="M244.673,103.238c5.999-1.316,10.5-4.787,14.031-10.58c-12.331-9.066-27.32-14.727-43.589-15.573
			c4.396,3.073,8.924,6.381,11.771,8.849C231.488,89.92,238.279,95.911,244.673,103.238z"/>
		<path fill="#D5632C" d="M197.169,90.179c10.852,4.173,27.229,11.659,37.724,13.331c-3.329-3.936-8.908-10.017-15.554-15.218
			c-5.459-4.272-11.035-8.186-15.229-11.02c-10.81,0.892-21.01,3.904-30.195,8.627C181.049,86.428,190.451,87.595,197.169,90.179z"
			/>
		<path fill="#D5632C" d="M264.617,97.45c-1.35,2.164-3.064,4.453-5.183,6.408c-2.719,2.509-6.271,4.554-9.384,6.054
			c1.465,1.982,2.865,4.028,4.151,6.142l1.459-1.347l9.905,56.604l-4.245,32.075c0,0-4.745,13.406-10.278,24.672
			c24.311-13.954,40.697-40.15,40.697-70.19C291.74,133.838,281.251,112.266,264.617,97.45z"/>
		<path fill="#D5632C" d="M184.906,199.141c9.434-19.811,19.34-23.585,19.34-23.585l-5.188,28.302c0,0-11.978,17.113-21.298,27.827
			c10.103,4.535,21.293,7.079,33.084,7.079c5.531,0,10.932-0.559,16.15-1.616c5.813-7.694,16.687-23.429,22.063-39.894
			c7.547-23.113,2.358-48.113,2.358-48.113l-1.887-28.773l2.025-1.87c-2.325-1.577-5.218-3.896-7.716-5.99
			c-0.578,0.206-0.914,0.312-0.914,0.312l-25-6.132c0,0-15.095-6.604-39.623-8.962c-7.388-0.71-14.643-0.69-21.181-0.32
			c-16.664,14.818-27.173,36.408-27.173,60.461c0,27.627,13.858,52.007,34.992,66.602
			C169.763,220.753,178.441,212.717,184.906,199.141z"/>
	</g>
	<path fill="#EFA71F" d="M222.598,263.456l4.342-0.809c0.3-0.276,28.528-26.454,36.542-60.865l-2.436-0.566
		C253.211,234.863,222.892,263.186,222.598,263.456z"/>
	<path fill="#EFA71F" d="M152.193,247.468l4.105,2.713c25.265-3.887,43.705-43.724,44.551-45.438l-3.586-1.772
		C197.066,203.372,175.405,243.896,152.193,247.468z"/>
	<path fill="#EFA71F" d="M139.688,99.945l-3.361,3.747c0.14-0.046,15.94-5.176,31.089-4.717c15.621,0.474,40.469,5.209,59.085,11.26
		l0.773-2.378c-18.813-6.115-43.956-10.901-59.783-11.381C151.882,96.003,140.274,99.75,139.688,99.945z"/>
	<path fill="#EFA71F" d="M206.192,72.119c0.137,0.087,16.325,10.434,22.321,15.507c5.971,5.052,15.192,15.858,15.284,15.971
		l2.218-0.634c-0.379-0.468-9.736-12.041-15.887-17.246c-6.126-5.184-17.814-12.633-18.379-12.992L206.192,72.119z"/>
	<path fill="#EFA71F" d="M256.404,96.091c-8.465-5.106-21.026-11.102-21.026-11.102s10.972,8.777,17.135,14.739
		C253.625,98.927,255.168,97.662,256.404,96.091z"/>
	<path fill="#EFA71F" d="M259.819,102.787c-3.418,3.681-12.475,8.072-12.535,8.1l3.995,0.693c0.269-0.122,6.609-3.04,10.372-7.092
		c3.727-4.013,6.759-10.381,6.864-10.609l-2.007-1.795C266.484,92.136,263.272,99.068,259.819,102.787z"/>
	<path fill="#EFA71F" d="M277.359,118.952c-3.705-7.411-8.781-13.451-14.769-18.58c-0.045,0.051-3.298,3.706-4.928,4.927l0,0
		c4.441,5.16,8.847,10.823,8.847,10.823S281.132,126.5,277.359,118.952z"/>
	<path fill="#44256C" d="M323.553,130.637v74.052H90.34v-74.052c0,0,57.106-21.939,115.321-21.939S323.553,130.637,323.553,130.637z
		"/>
	<path fill="#636A6F" d="M89.802,129.236l-0.962,0.37v76.583h236.213V129.59l-0.982-0.361c-0.6-0.221-60.597-22.031-118.41-22.031
		C147.836,107.198,90.375,129.016,89.802,129.236z M205.661,110.198c53.292,0,108.502,18.721,116.393,21.497
		c0,2.014,0,68.656,0,71.494c-2.942,0-227.271,0-230.213,0c0-2.838,0-69.522,0-71.509
		C99.472,128.88,152.425,110.198,205.661,110.198z"/>
	<g>
		<path fill="#010101" d="M161.631,129.942c-2.976-2.591-7.894-3.702-13.155-2.971c-9.454,1.313-38.309,11.043-39.533,11.456
			l-1.02,0.345v12.007c0,0,3.229-0.358,4.577-0.508c0,2.873,0,27.089,0,29.675c-1.439,0-4.882,0-4.882,0v12.764h32.495v-14.696
			c0,0-4.396,0-6.103,0c0-2.01,0-7.45,0-9.322c2.993-0.249,10.595-0.907,18.247-1.773c11.997-1.357,12.265-11.545,12.265-12.413
			c0-0.034,0-0.054-0.001-0.058l0.001,0.047v-18.307C164.523,133.748,163.523,131.589,161.631,129.942z M133.808,155.937
			c0-2.371,0-9.281,0-11.077c1.628-0.299,6.37-1.173,8.595-1.582c0,2.486,0,9.643,0,11.528
			C140.687,155.031,135.954,155.654,133.808,155.937z"/>
		<path fill="#010101" d="M225.302,121.742c-9.832-0.781-16.205-0.319-16.472-0.299l-1.388,0.104c0,0,0,24.361,0,27.039
			c-0.278,0-9.644,0-9.922,0c0-2.678,0-27.147,0-27.147h-1.5c-0.06,0-6.102,0.009-15.876,0.785
			c-6.882,0.546-12.897,1.847-13.15,1.902l-1.181,0.257v15.501c0,0,4.381,0,6.084,0c0,2.672,0,34.425,0,37.097
			c-1.703,0-6.084,0-6.084,0v15.728h31.707c0,0,0-24.866,0-27.549c0.278,0,9.644,0,9.922,0c0,2.683,0,27.549,0,27.549h31.707
			v-15.728c0,0-4.382,0-6.085,0c0-2.68,0-35.417,0-38.097c1.703,0,6.085,0,6.085,0v-15.133l-1.189-0.252
			C237.727,123.451,232.179,122.288,225.302,121.742z"/>
		<path fill="#010101" d="M300.095,179.01c-0.79-1.148-10.838-15.742-11.993-17.419c1.278-1.446,9.386-10.621,10.445-11.82
			c1.188,0.355,5.692,1.707,5.692,1.707v-13.043l-0.777-0.428c-3.18-1.749-19.947-6.463-21.849-6.995l-1.904-0.533
			c0,0,0,8.868,0,9.937c-0.545,0.545-2.271,2.271-3.585,3.584c-1.716-2.52-11.68-17.148-11.68-17.148l-22.18-3.144v1.728v14.717
			c0,0,4.765,0.145,5.856,0.178c0.778,1.1,12.895,18.213,14.051,19.846c-1.228,1.544-12.555,15.795-13.358,16.806
			c-1.107,0-6.549,0-6.549,0v15.728h27.183c0,0,0-7.642,0-8.553c0.483-0.604,3.729-4.663,5.297-6.622
			c1.868,2.615,10.842,15.175,10.842,15.175h19.901V179.01C305.488,179.01,301.186,179.01,300.095,179.01z"/>
	</g>
	<g>
		<path fill="#FFFFFF" d="M166.023,152.493c0,0,0-12.917,0-18.307c0-5.899-7.018-8.747-14.34-7.73
			c-9.422,1.309-39.259,11.391-39.259,11.391v9.255l4.577-0.508v32.851h-4.882v9.764h29.495v-11.696h-6.103v-12.204
			c0,0,9.745-0.77,19.579-1.882C166.329,162.155,166.023,152.493,166.023,152.493z M146.903,154.121l-11.595,1.525v-14.035
			l11.595-2.137V154.121z"/>
		<path fill="#FFFFFF" d="M240.65,135.385v-12.417c0,0-5.607-1.186-12.467-1.73c-9.829-0.78-16.24-0.298-16.24-0.298v27.147h-2.156
			h-8.609h-2.156v-27.147c0,0-5.929,0-15.758,0.78c-6.859,0.544-12.949,1.872-12.949,1.872v12.793h6.084v40.097h-6.084v12.728
			h28.707V161.66h2.156h8.609h2.156v27.549h28.707v-12.728h-6.085v-41.097H240.65z"/>
		<path fill="#FFFFFF" d="M246.765,136.697v-13.262l19.813,2.808l12.326,18.098l5.305-5.305v-8.581c0,0,18.41,5.149,21.53,6.865
			v10.141l-4.681-1.404l-11.857,13.418l13.105,19.034h4.681v10.699h-17.63l-11.546-16.16l-6.864,8.581v7.579h-24.183v-12.728h5.772
			l14.51-18.254l-15.134-21.374L246.765,136.697z"/>
	</g>
	<g>
		<path fill="#636A6F" d="M151.477,124.971c-9.454,1.313-38.309,11.043-39.533,11.456l-1.02,0.345v12.007
			c0,0,3.229-0.358,4.577-0.508c0,2.873,0,27.089,0,29.675c-1.439,0-4.882,0-4.882,0v12.764h32.495v-14.696c0,0-4.396,0-6.103,0
			c0-2.01,0-7.45,0-9.322c2.993-0.249,10.595-0.907,18.247-1.773c11.997-1.357,12.265-11.545,12.265-12.413
			c0-0.034,0-0.054-0.001-0.058l0.001,0.047v-18.307c0-2.438-1-4.598-2.892-6.245C161.656,125.351,156.738,124.24,151.477,124.971z
			 M151.89,127.942c4.348-0.604,8.476,0.263,10.772,2.262c1.235,1.076,1.862,2.416,1.862,3.982l0,18.347
			c0.008,0.339,0.073,8.309-9.602,9.403c-9.695,1.097-19.431,1.869-19.528,1.877l-1.382,0.109v15.09c0,0,4.396,0,6.103,0
			c0,1.944,0,6.752,0,8.696c-2.558,0-23.937,0-26.495,0c0-1.759,0-5.005,0-6.764c1.439,0,4.882,0,4.882,0v-36.026
			c0,0-3.229,0.358-4.577,0.508c0-1.927,0-5.16,0-6.499C119.087,137.203,143.652,129.086,151.89,127.942z"/>
		<path fill="#636A6F" d="M146.631,138l-12.823,2.361v16.995l14.595-1.92v-17.763L146.631,138z M145.403,141.277
			c0,2.486,0,9.643,0,11.528c-1.716,0.226-6.449,0.849-8.595,1.131c0-2.371,0-9.281,0-11.077
			C138.436,142.561,143.178,141.687,145.403,141.277z"/>
		<path fill="#636A6F" d="M211.831,119.443l-1.388,0.104c0,0,0,24.361,0,27.039c-0.278,0-9.644,0-9.922,0c0-2.678,0-27.147,0-27.147
			h-1.5c-0.06,0-6.102,0.009-15.876,0.785c-6.882,0.546-12.897,1.847-13.15,1.902l-1.181,0.257v15.501c0,0,4.381,0,6.084,0
			c0,2.672,0,34.425,0,37.097c-1.703,0-6.084,0-6.084,0v15.728h31.707c0,0,0-24.866,0-27.549c0.278,0,9.644,0,9.922,0
			c0,2.683,0,27.549,0,27.549h31.707v-15.728c0,0-4.382,0-6.085,0c0-2.68,0-35.417,0-38.097c1.703,0,6.085,0,6.085,0v-15.133
			l-1.189-0.252c-0.233-0.049-5.781-1.211-12.658-1.757C218.47,118.961,212.097,119.423,211.831,119.443z M228.064,122.732
			c4.87,0.387,9.111,1.105,11.086,1.472c0,1.737,0,7.624,0,9.68c-1.703,0-6.085,0-6.085,0v44.097c0,0,4.382,0,6.085,0
			c0,2.022,0,7.705,0,9.728c-2.546,0-23.161,0-25.707,0c0-2.683,0-27.549,0-27.549h-15.922c0,0,0,24.866,0,27.549
			c-2.546,0-23.161,0-25.707,0c0-2.022,0-7.705,0-9.728c1.703,0,6.084,0,6.084,0v-43.097c0,0-4.381,0-6.084,0
			c0-2.083,0-8.319,0-10.066c2.073-0.402,6.634-1.213,11.568-1.604c6.879-0.546,11.821-0.705,14.139-0.753
			c0,2.713,0,27.125,0,27.125h15.922c0,0,0-24.663,0-27.222C215.816,122.271,221.084,122.179,228.064,122.732z"/>
		<path fill="#636A6F" d="M245.265,123.436v14.717c0,0,4.765,0.145,5.856,0.178c0.778,1.1,12.895,18.213,14.051,19.846
			c-1.228,1.544-12.555,15.795-13.358,16.806c-1.107,0-6.549,0-6.549,0v15.728h27.183c0,0,0-7.642,0-8.553
			c0.483-0.604,3.729-4.663,5.297-6.622c1.868,2.615,10.842,15.175,10.842,15.175h19.901V177.01c0,0-4.302,0-5.393,0
			c-0.79-1.148-10.838-15.742-11.993-17.419c1.278-1.446,9.386-10.621,10.445-11.82c1.188,0.355,5.692,1.707,5.692,1.707v-13.043
			l-0.777-0.428c-3.18-1.749-19.947-6.463-21.849-6.995l-1.904-0.533c0,0,0,8.868,0,9.937c-0.545,0.545-2.271,2.271-3.585,3.584
			c-1.716-2.52-11.68-17.148-11.68-17.148l-22.18-3.144V123.436z M248.265,125.163c2.752,0.39,16.329,2.314,17.447,2.473
			c0.701,1.03,12.973,19.048,12.973,19.048l7.024-7.025c0,0,0-4.875,0-7.219c5.457,1.555,15.218,4.436,18.53,5.836
			c0,1.223,0,4.887,0,7.171c-1.333-0.4-3.669-1.102-3.669-1.102l-13.27,15.016l14.218,20.649c0,0,2.583,0,3.969,0
			c0,1.856,0,5.843,0,7.699c-2.391,0-14.072,0-15.358,0c-0.829-1.16-12.25-17.146-12.25-17.146l-8.432,10.54c0,0,0,4.676,0,6.605
			c-2.465,0-18.718,0-21.183,0c0-2.022,0-7.705,0-9.728c1.644,0,4.996,0,4.996,0l15.661-19.702l-16.217-22.902
			c0,0-2.943-0.09-4.44-0.135C248.265,133.272,248.265,127.447,248.265,125.163z"/>
	</g>
</g>
</svg>
