<?xml version="1.0" encoding="utf-8"?>
<!-- Generator: Adobe Illustrator 16.0.4, SVG Export Plug-In . SVG Version: 6.00 Build 0)  -->
<!DOCTYPE svg PUBLIC "-//W3C//DTD SVG 1.1//EN" "http://www.w3.org/Graphics/SVG/1.1/DTD/svg11.dtd">
<svg version="1.1" id="Layer_1" xmlns="http://www.w3.org/2000/svg" xmlns:xlink="http://www.w3.org/1999/xlink" x="0px" y="0px"
	 width="512px" height="512px" viewBox="0 0 512 512" enable-background="new 0 0 512 512" xml:space="preserve">
<g>
	<path fill="#C62036" d="M242.128,0.614c27.97-1.51,56.123,1.573,83.167,8.803c63.217,17.361,118.846,60.241,151.964,116.765
		c27.026,45.376,39.088,99.372,34.615,151.949c-3.423,35.817-13.831,71.158-31.608,102.516
		c-34.769,62.817-97.152,109.92-167.461,124.999c-25.732,5.921-52.345,7.2-78.617,5.21c-45.747-3.639-90.213-20.304-127.387-47.134
		c-28.061-20.195-51.945-46.193-69.846-75.78C8.586,340.992-4.072,284.714,1.617,230.118c3.96-36.958,15.587-73.284,34.907-105.108
		c25.625-43.093,64.217-78.542,109.64-99.818C175.938,10.296,209.025,2.727,242.128,0.614L242.128,0.614z"/>
	<path fill="#050505" d="M221.854,16.188c20.644-2.961,41.629-2.622,62.365-1.002c31.594,4.224,62.877,13.413,90.584,29.418
		c42.401,23.327,76.938,60.116,98.849,103.148c10.993,23.204,19.534,47.812,22.728,73.376c4.81,34.892,2.587,70.911-7.557,104.706
		c-11.749,39.148-33.766,74.947-62.829,103.627c-0.03,0.033-0.109,0.093-0.138,0.124c-20.831,20.291-45.396,36.448-71.837,48.476
		c-40.396,17.191-85.248,24.035-128.851,18.27c-29.355-4.314-58.467-12.797-84.4-27.443C96.98,445.297,61.07,407.725,38.898,363.253
		c-11.039-23.527-19.55-48.411-22.495-74.33c-3.099-23.374-2.652-47.181,0.602-70.507c10.792-72.776,57.48-139.121,122.082-174.214
		C164.388,29.339,193.051,20.982,221.854,16.188L221.854,16.188z"/>
	<path fill="#FFFFFF" d="M239.646,42.645c2.882-2.915,5.749-5.828,8.574-8.804c7.832-0.108,15.68,0.031,23.512-0.093
		c3.099,3.053,6.181,6.137,9.281,9.205c-0.044,15.526-0.062,31.039-0.015,46.563c-2.867,3.038-5.86,5.936-8.836,8.865
		c-8.062-0.045-16.142,0.016-24.206-0.061c-2.697-2.838-5.474-5.598-8.266-8.327C239.662,74.222,239.755,58.433,239.646,42.645
		L239.646,42.645z"/>
	<path fill="#FFFFFF" d="M303.586,103.979c7.711-19.921,16.853-39.271,24.747-59.114c5.01,1.727,9.93,3.747,14.71,6.044
		c-0.107,11.902-0.123,23.789,0.03,35.693c3.808-10.346,8.31-20.429,12.504-30.622c4.192,1.665,8.359,3.422,12.411,5.444
		c-9.001,19.426-16.942,39.315-25.301,59.022c-3.409-1.573-6.828-3.084-10.36-4.318c-2.098-10.623-1.142-21.509-2.483-32.225
		c-0.355-2.852-0.74-5.704-1.125-8.558c-3.532,11.61-9.019,22.512-13.829,33.614C311.188,107.125,307.395,105.506,303.586,103.979
		L303.586,103.979z"/>
	<path fill="#FFFFFF" d="M154.429,59.913c9.143-4.177,18.517-7.8,27.597-12.088c3.997,1.62,8.002,3.207,12.043,4.75
		c3.299,7.323,6.367,14.754,9.73,22.048c-1.063,3.362-2.021,6.753-2.854,10.162c6.059,5.827,12.073,11.654,18.147,17.451
		c-4.209,1.806-8.34,3.794-12.611,5.46c-6.662-4.164-11.302-11.194-17.886-15.666c-1.186,0.602-3.562,1.836-4.748,2.437
		c2.558,6.506,5.21,12.983,8.325,19.243c-3.993,1.741-7.972,3.529-11.962,5.287C171.391,99.399,163.263,79.496,154.429,59.913
		L154.429,59.913z"/>
	<path fill="#050505" d="M254.047,49.599c3.699-1.713,7.956-0.647,11.888-0.556c0.833,11.026,0.216,22.11,0.355,33.167
		c-0.648,0.445-1.931,1.356-2.575,1.802c-3.407-0.384-7.727,1.173-10.038-2.188C253.584,71.107,252.921,60.252,254.047,49.599
		L254.047,49.599z"/>
	<path fill="#050505" d="M172.161,68.178c4.161-1.527,8.218-4.702,12.874-3.422c0.896,3.483,3.793,7.029,2.158,10.7
		c-3.051,1.85-6.414,3.099-9.651,4.579C175.783,76.056,173.994,72.11,172.161,68.178L172.161,68.178z"/>
	<path fill="#FFFFFF" d="M390.686,92.754c3.347-3.47,6.645-6.984,9.99-10.454c8.927,8.82,17.854,17.64,26.829,26.412
		c-3.452,3.285-6.878,6.584-10.13,10.069c-2.821-2.714-5.643-5.444-8.559-8.064c-11.501,12.165-23.372,24.006-35.308,35.756
		c-3.129-3.517-6.397-6.878-9.743-10.162c11.962-11.595,23.42-23.683,35.215-35.432C396.237,98.151,393.508,95.407,390.686,92.754
		L390.686,92.754z"/>
	<path fill="#FFFFFF" d="M93.186,109.129c4.812-6.013,10.887-10.917,15.789-16.868c4.257-0.077,8.527-0.109,12.783-0.031
		c11.364,10.515,22.048,21.74,33.427,32.226c0.309,4.255,0.386,8.525,0.339,12.795c-5.705,5.382-10.762,11.365-16.298,16.901
		c-4.409,0.061-8.805,0.061-13.197-0.063c-10.917-10.963-22.079-21.679-33.088-32.518C93.016,117.424,92.679,113.262,93.186,109.129
		L93.186,109.129z"/>
	<path fill="#050505" d="M108.852,117.163c-1.759-4.056,3.454-6.506,5.582-9.236c3.222-1.388,5.119,1.897,7.184,3.7
		c6.029,6.229,12.767,11.795,18.303,18.472c-0.324,3.607-3.979,5.582-5.905,8.341c-1.204,0.046-2.42,0.108-3.624,0.154
		C123.361,131.301,115.775,124.548,108.852,117.163L108.852,117.163z"/>
	<path fill="#8B888A" d="M200.7,131.531c13.259-5.38,26.596-11.964,41.213-12.272c27.599-3.098,55.168,9.667,74.069,29.296
		c5.241,5.057,10.36,10.331,14.308,16.482c2.915,4.595,6.984,8.789,7.665,14.432c-10.056,0.895-20.06-0.787-29.403-4.502
		c-0.509-0.879-1.527-2.637-2.035-3.516c-5.212-0.275-9.251-3.407-12.581-7.155c-4.273-2.374-8.479-4.902-13.154-6.443
		c-1.864,0.8-3.728,1.587-5.581,2.388c-5.872-3.022-11.687-6.12-17.669-8.896c-5.92-0.971-11.965-0.417-17.933-0.585
		c-2.62-2.42-5.072-5.151-8.218-6.893c-9.311-0.538-18.639-2.436-27.983-1.557c-12.119,3.33-23.467,9.19-35.848,11.734
		C176.832,144.282,188.781,137.561,200.7,131.531L200.7,131.531z"/>
	<path fill="#8B888A" d="M282.633,119.952c15.34,2.236,29.743,8.527,43.525,15.374c7.094,3.993,14.232,8.063,20.383,13.46
		c4.982,4.285,10.778,8.079,13.924,14.046c-2.665,6.86-8.618,13.075-16.158,14.169c-12.442-20.137-28.075-39.471-49.616-50.279
		C290.651,124.501,285.501,123.899,282.633,119.952L282.633,119.952z"/>
	<path fill="#FFFFFF" d="M399.858,163.048c13.955-6.832,28.17-13.136,42.049-20.153c3.913,1.497,8.049,2.514,11.776,4.472
		c3.577,6.97,6.694,14.17,10.207,21.17c-1.401,3.809-2.806,7.601-4.115,11.424c-13.938,6.971-27.968,13.754-42.215,20.061
		c-4.012-0.586-7.681-2.465-11.564-3.546c-3.731-7.14-7.108-14.448-10.67-21.662C396.868,170.911,397.778,166.717,399.858,163.048
		L399.858,163.048z"/>
	<path fill="#FFFFFF" d="M64.106,148.877c4.533,1.85,8.991,3.871,13.538,5.705c-1.726,3.532-3.346,7.125-4.841,10.762
		c15.187,6.846,30.481,13.414,45.67,20.229c-1.788,4.271-3.732,8.479-5.628,12.72c-15.527-6.323-30.635-13.568-45.961-20.352
		c-1.542,3.591-3.177,7.155-4.842,10.715c-4.316-1.988-8.635-4.009-12.998-5.89C54.286,171.574,59.142,160.195,64.106,148.877
		L64.106,148.877z"/>
	<path fill="#050505" d="M435.602,161.521c2.45-1.001,5.071-3.099,7.8-1.65c1.819,2.638,2.989,5.629,4.423,8.482
		c-1.154,1.71-2.512,3.359-4.5,4.099c-8.31,3.702-16.481,7.663-24.671,11.611c-0.785-0.262-2.326-0.757-3.114-1.002
		c-1.573-3.176-3.363-6.382-3.392-10.021C419.872,169.014,427.872,165.545,435.602,161.521L435.602,161.521z"/>
	<path fill="#8B888A" d="M364.828,166.315c13.139,15.25,23.746,33.443,27.753,53.302c-10.331-4.471-21.616-4.779-32.688-4.209
		c-4.007-11.116-7.678-22.357-12.55-33.148C354.559,178.697,360.543,173.116,364.828,166.315L364.828,166.315z"/>
	<path fill="#8B888A" d="M238.937,171.604c13.276-1.927,26.828-2.853,40.104-0.478c6.337-0.23,11.888,3.021,16.406,7.154
		c9.912-0.678,18.563,5.043,28.263,5.843c6.013,0.726,12.086,0.232,18.1-0.154c5.829,9.668,9.175,20.599,12.135,31.439
		c-3.792,1.373-7.833,1.434-11.793,1.543c-6.186,0.153-12.291,2.312-18.473,1.093c-6.153-1.141-12.23-3.607-18.61-2.59
		c-3.655,0.678-7.046-1.218-10.606-1.649c-7.74,1.495-14.418,6.058-21.851,8.449c-6.32,0.631-12.718,0-19.042,0.709
		c-1.34-1.141-2.667-2.281-3.993-3.423c-7,3.516-14.278-1.218-21.508,0.309c-5.599,3.994-9.946,9.482-14.834,14.277
		c-8.001,0.463-15.987-0.37-23.976-0.077c-3.421,2.329-6.877,4.611-10.267,6.97c-6.831,0.909-15.326-0.094-19.428,6.707
		c-5.35,0.354-11.195,1.094-15.233,5.025c-7.293,7.187-14.139,14.817-21.417,22.036c-0.894-6.122-2.297-12.32-0.91-18.504
		c0.742-14.184,1.466-28.817,6.816-42.168c11.547-8.482,22.88-17.269,34.768-25.302c8.064,2.944,16.235-2.067,24.239,1.002
		c5.225-3.454,9.82-7.771,14.847-11.502c7.478,0.031,14.958,0.292,22.434,0.154C230.18,177.34,233.973,173.131,238.937,171.604
		L238.937,171.604z"/>
	<path fill="#8B888A" d="M360.988,220.126c9.899-0.494,20.093-0.015,29.512,3.377c1.681,0.801,4.104,1.48,4.396,3.668
		c3.763,16.544,3.961,33.811,1.201,50.543c-7.522-10.148-18.625-17.022-30.975-19.537
		C365.737,245.335,362.716,232.754,360.988,220.126L360.988,220.126z"/>
	<path fill="#8B888A" d="M331.941,224.351c7.433-2.929,15.525-3.129,23.403-3.254c2.499,12.257,4.566,24.654,3.843,37.222
		c-9.64,1.093-18.813,4.161-27.494,8.386c-2.097-0.449-4.194-0.878-6.273-1.249c-3.593,6.476-14.325,3.038-15.775,11.086
		c-4.562,2.883-9.789,4.01-15.154,3.575c-4.595,3.41-13.09,2.13-13.446,9.626c-8.078,4.024-16.403,7.522-24.451,11.638
		c-2.639,4.672-5.475,9.236-8.529,13.646c-5.365,0.385-5.614,5.551-5.673,9.789c-4.549,4.628-9.405,8.928-14.124,13.384
		c-4.378,4.071-6.921,9.562-9.929,14.619c-7.525,0.845-15.403,0.814-22.373,4.176c-4.039,2.021-8.462-0.155-12.55-0.879
		c-2.281,0.649-4.625,2.265-7,1.034c-5.242-2.019-10.638-3.64-15.849-5.705c-8.034-6.537-13.354-15.667-19.058-24.146
		c-1.896-3.038,2.975-4.625,4.457-6.753c3.576-0.062,7.154-0.17,10.73-0.276c2.791-6.43,5.49-12.908,7.879-19.507
		c6.074-4.732,12.503-8.987,18.516-13.797c2.978-2.392,7.031-2.1,10.518-3.224c2.405-1.835,4.316-4.196,6.352-6.413
		c6.814-0.126,14.414,1.805,20.259-2.792c5.644-4.286,12.705-5.011,19.366-6.54c6.675-7.323,13.152-14.86,19.688-22.322
		c9.792,1.849,18.797-2.977,26.166-8.942c2.979-2.838,7.246-2.099,10.964-2.915c3.901-2.267,7.276-5.351,10.915-8.019
		C315.506,225.662,324.168,227.852,331.941,224.351L331.941,224.351z"/>
	<path fill="#8B888A" d="M326.114,277.112c9.466-7.244,21.03-12.181,32.995-13.028c0.846,16.375-3.055,32.518-7.494,48.137
		c-4.609,15.882-13.013,30.358-22.559,43.742c-9.649,11.408-20.149,22.712-33.673,29.544c-9.39,5.055-19.997,7.149-30.497,8.307
		c-8.373,1.342-16.777-0.616-25.162-0.815c3.544-6.555,14.383-5.783,15.141-14.138c8.541-3.779,11.655-13.122,16.944-20.108
		c6.089-7.476,6.199-17.499,9.142-26.303c2.669-1.342,5.351-2.668,8.018-4.023c1.866-9.839,4.287-19.72,8.619-28.771
		c4.378-4.011,10.253-5.98,14.603-10.038c2.759-3.066,4.55-6.828,6.722-10.296C321.334,278.672,323.815,278.164,326.114,277.112
		L326.114,277.112z"/>
	<path fill="#8B888A" d="M365.737,264.084c11.628,2.373,23.545,9.145,28.711,20.228c-0.647,7.172-3.224,14.048-5.289,20.91
		c-8.571,20.905-21.648,40.056-38.562,55.119c-12.35,9.853-25.533,19.274-40.812,23.93c-1.126,0.109-3.361,0.31-4.488,0.401
		c5.276-4.087,11.117-7.479,15.789-12.288c20.692-20.397,34.013-47.443,40.027-75.705
		C364.059,286.026,363.873,274.907,365.737,264.084L365.737,264.084z"/>
	<path fill="#FFFFFF" d="M53.083,341.208c19.228-9.423,37.853-20.03,57.172-29.312c4.594,8.56,9.205,17.115,13.384,25.874
		c0.077,4.423-2.453,8.509-3.302,12.826c-7.106,3.839-14.338,7.448-21.553,11.086c-3.377-0.956-6.832-1.479-10.3-1.834
		c-5.289,6.413-10.808,12.627-15.942,19.164c-2.237-4.286-4.427-8.586-6.832-12.766c4.841-5.858,9.792-11.643,14.648-17.47
		c-0.91-1.896-1.835-3.791-2.792-5.657c-6.213,3.423-12.441,6.829-18.871,9.837C57.016,348.964,55.086,345.062,53.083,341.208
		L53.083,341.208z"/>
	<path fill="#FFFFFF" d="M405.671,316.075c3.965-1.292,7.988-2.375,11.996-3.546c2.822,2.005,7.186,2.606,9.035,5.519
		c-1.864,4.195-4.286,8.11-6.581,12.074c-1.034-0.678-3.101-2.02-4.149-2.699c-1.771,3.655-3.64,7.278-5.365,10.963
		c2.512,2.606,5.703,4.533,9.465,4.041c2.714-4.843,5.352-9.715,7.85-14.665c4.179-1.126,8.25-3.159,12.643-3.238
		c6.461,2.933,12.488,6.724,18.825,9.93c1.112,3.872,2.331,7.727,3.562,11.563c-3.622,6.97-7.321,13.91-10.824,20.94
		c-4.101,1.279-8.106,3.223-12.44,3.454c-3.377-1.237-6.43-3.179-9.56-4.92c2.066-4.041,4.164-8.064,6.076-12.183
		c1.649,0.771,3.328,1.59,4.995,2.423c1.741-3.251,3.715-6.413,5.148-9.838c-0.138-3.146-3.468-4.148-5.52-5.812
		c-6.523,2.021-7.278,10.223-10.623,15.326c-4.336,0.986-8.527,3.345-12.981,3.345c-6.415-2.882-12.444-6.519-18.75-9.603
		c-1.356-4.073-3.221-8.082-3.562-12.413C397.868,329.552,402.173,322.999,405.671,316.075L405.671,316.075z"/>
	<path fill="#050505" d="M91.629,336.166c3.871-2.067,7.757-4.103,11.58-6.259c1.589,3.173,3.268,6.306,4.934,9.435
		c-0.355,0.862-1.095,2.559-1.463,3.422c-2.669,1.188-5.259,2.592-8.049,3.469C94.914,344.139,94.004,339.451,91.629,336.166
		L91.629,336.166z"/>
	<path fill="#FFFFFF" d="M349.056,386.37c8.001-6.403,15.51-13.371,23.621-19.63c4.009,0.74,8.097,1.077,12.165,1.386
		c5.18,6.017,10.237,12.137,15.372,18.182c0.014,3.437,0.03,6.89,0.092,10.344c7.586,3.809,15.251,7.527,22.528,11.919
		c-3.747,3.008-7.402,6.106-11.026,9.252c-6.596-3.794-13.491-7.031-20.229-10.547c-1.496,1.34-2.974,2.682-4.44,4.038
		c4.503,5.32,9.112,10.563,13.538,15.96c-3.36,2.836-6.613,5.812-10.254,8.277C376.964,418.886,362.56,402.987,349.056,386.37
		L349.056,386.37z"/>
	<path fill="#FFFFFF" d="M91.26,403.819c19.395-11.5,38.591-23.403,58.112-34.675c3.622,2.899,6.828,6.275,10.438,9.221
		c-10.069,20.384-19.937,40.877-30.144,61.181c-3.361-3.283-7.013-6.291-10.129-9.807c1.094-3.33,2.776-6.428,4.117-9.652
		c-4.394-3.977-8.697-8.048-13.091-12.008c-2.975,1.83-5.965,3.653-8.973,5.458C98.136,410.295,94.714,407.044,91.26,403.819
		L91.26,403.819z"/>
	<path fill="#050505" d="M368.406,389.02c3.037-2.312,5.628-5.413,9.205-6.906c3.501,1.695,7.833,5.472,7.616,9.729
		c-2.513,2.774-5.646,4.901-8.481,7.322C373.865,395.866,371.119,392.458,368.406,389.02L368.406,389.02z"/>
	<path fill="#050505" d="M122.312,400.521c5.595-2.528,10.932-5.61,16.128-8.896c-2.977,5.317-5.706,10.775-8.574,16.156
		C127.832,405.069,122.56,403.898,122.312,400.521L122.312,400.521z"/>
	<path fill="#FFFFFF" d="M186.205,396.699c9.037,3.251,17.979,6.893,26.767,10.793c2.93,3.36,3.592,8.279,5.519,12.286
		c-3.359,6.94-5.704,14.34-9.326,21.139c-2.437,2.391-5.907,3.425-8.836,5.105c-5.905-2.268-11.78-4.641-17.545-7.232
		c-3.331,7.325-6.168,14.882-9.607,22.157c-3.729-1.711-7.522-3.252-11.332-4.765C169.215,436.045,178.575,416.727,186.205,396.699
		L186.205,396.699z"/>
	<path fill="#FFFFFF" d="M325.402,399.148c3.748,1.621,7.525,3.194,11.271,4.828c4.164,10.253,8.018,20.612,11.979,30.946
		c1.453,4.345,3.009,8.663,4.905,12.823c-1.79,3.902-2.59,8.606-5.613,11.734c-6.893,3.273-14.369,5.243-21.399,8.266
		c-3.762-1.496-7.416-3.219-11.195-4.642c-6.291-14.354-10.607-29.496-17.036-43.788c1.649-3.993,3.453-7.906,5.212-11.84
		C310.819,404.7,318.203,402.157,325.402,399.148L325.402,399.148z"/>
	<path fill="#FFFFFF" d="M242.361,413.859c12.395,0.229,24.775-0.186,37.171-0.293c-0.062,4.579-0.045,9.143,0.018,13.724
		c-3.948,0.26-7.91,0.416-11.859,0.601c0.233,8.664-0.259,17.346,0.279,25.995c0.603,5.595,0.91,11.254,0.047,16.836
		c0.123,2.327,0.386,4.64,0.785,6.94c-4.811,0.474-9.638,0.492-14.446,0.399c-0.062-16.776-0.771-33.534-0.571-50.325
		c-3.839-0.109-7.68-0.046-11.487,0.246C242.406,423.279,242.406,418.561,242.361,413.859L242.361,413.859z"/>
	<path fill="#050505" d="M187.67,426.794c1.405-4.103,3.131-8.062,4.857-12.039c2.729,1.187,5.49,2.327,8.279,3.373
		c0.462,0.789,1.387,2.36,1.851,3.163c-1.712,2.912-2.004,7.184-5.365,8.742C193.854,430.047,190.847,427.86,187.67,426.794
		L187.67,426.794z"/>
	<path fill="#050505" d="M314.872,422.603c-1.386-4.534,4.506-5.351,7.556-6.539c2.838-1.141,4.902,1.712,5.52,4.133
		c2.868,8.309,6.309,16.419,9.112,24.744c0.494,4.828-5.937,4.796-8.941,6.756c-3.701-1.65-4.164-5.877-5.612-9.174
		C320.086,435.831,317.108,429.354,314.872,422.603L314.872,422.603z"/>
	<path fill="#8B888A" d="M425.856,429.586c0.028-0.031,0.107-0.091,0.138-0.124C425.964,429.495,425.885,429.555,425.856,429.586
		L425.856,429.586z"/>
</g>
</svg>
