<svg version="1.1" id="Layer_1" xmlns="http://www.w3.org/2000/svg" xmlns:xlink="http://www.w3.org/1999/xlink">
<path fill="#C62135" d="M94.378,0.146c10.915-0.589,21.901,0.614,32.455,3.436c24.67,6.775,46.379,23.508,59.303,45.566
	c10.548,17.708,15.254,38.779,13.509,59.297c-1.336,13.978-5.397,27.769-12.335,40.006c-13.568,24.514-37.913,42.896-65.351,48.78
	c-10.042,2.311-20.427,2.81-30.68,2.033c-17.853-1.42-35.205-7.924-49.712-18.394c-10.951-7.882-20.271-18.027-27.257-29.573
	C3.24,132.976-1.7,111.014,0.521,89.708C2.066,75.285,6.604,61.109,14.143,48.69c10-16.817,25.061-30.65,42.787-38.954
	C68.548,3.924,81.46,0.97,94.378,0.146L94.378,0.146z"/>
<path fill="#040404" d="M86.466,6.223c8.057-1.155,16.246-1.023,24.338-0.391c12.329,1.648,24.537,5.235,35.35,11.48
	c16.547,9.104,30.024,23.46,38.575,40.253c4.29,9.056,7.623,18.659,8.869,28.635c1.877,13.616,1.01,27.672-2.949,40.861
	c-4.585,15.277-13.177,29.248-24.519,40.439c-0.012,0.013-0.042,0.036-0.054,0.049c-8.129,7.918-17.715,14.224-28.033,18.917
	c-15.765,6.709-33.268,9.38-50.284,7.13c-11.456-1.685-22.816-4.994-32.937-10.71c-17.088-9.206-31.102-23.869-39.754-41.223
	c-4.308-9.182-7.629-18.893-8.779-29.007c-1.209-9.122-1.035-18.412,0.235-27.516c4.212-28.4,22.431-54.291,47.642-67.985
	C64.041,11.355,75.227,8.094,86.466,6.223L86.466,6.223z"/>
<path fill="#FEFEFE" d="M93.41,16.548c1.125-1.137,2.244-2.274,3.346-3.436c3.057-0.042,6.119,0.012,9.176-0.036
	c1.209,1.191,2.412,2.395,3.622,3.592c-0.018,6.059-0.024,12.112-0.006,18.171c-1.119,1.186-2.287,2.316-3.448,3.46
	c-3.146-0.018-6.299,0.006-9.446-0.024c-1.053-1.107-2.136-2.185-3.225-3.25C93.416,28.871,93.452,22.709,93.41,16.548L93.41,16.548
	z"/>
<path fill="#FEFEFE" d="M118.362,40.483c3.009-7.774,6.576-15.325,9.657-23.069c1.955,0.674,3.875,1.462,5.74,2.359
	c-0.042,4.645-0.048,9.284,0.012,13.929c1.486-4.038,3.243-7.973,4.88-11.95c1.637,0.65,3.262,1.336,4.844,2.125
	c-3.514,7.581-6.612,15.343-9.874,23.033c-1.33-0.614-2.665-1.204-4.043-1.685c-0.818-4.146-0.445-8.394-0.969-12.575
	c-0.139-1.113-0.289-2.226-0.439-3.339c-1.378,4.531-3.52,8.785-5.396,13.117C121.329,41.711,119.848,41.079,118.362,40.483
	L118.362,40.483z"/>
<path fill="#FEFEFE" d="M60.154,23.287c3.568-1.63,7.226-3.044,10.77-4.717c1.559,0.632,3.123,1.251,4.699,1.853
	c1.288,2.858,2.485,5.758,3.797,8.604c-0.415,1.312-0.789,2.635-1.113,3.965c2.365,2.274,4.711,4.548,7.082,6.811
	c-1.643,0.705-3.255,1.48-4.922,2.13c-2.599-1.625-4.41-4.368-6.979-6.113c-0.463,0.235-1.39,0.716-1.854,0.951
	c0.999,2.539,2.034,5.066,3.249,7.509c-1.558,0.68-3.11,1.377-4.668,2.063C66.773,38.696,63.602,30.929,60.154,23.287L60.154,23.287
	z"/>
<path fill="#040404" d="M99.029,19.262c1.444-0.668,3.105-0.252,4.639-0.217c0.325,4.303,0.084,8.628,0.139,12.943
	c-0.253,0.174-0.753,0.529-1.005,0.704c-1.33-0.15-3.015,0.458-3.917-0.854C98.849,27.655,98.59,23.419,99.029,19.262L99.029,19.262
	z"/>
<path fill="#040404" d="M67.074,26.512c1.625-0.596,3.207-1.835,5.024-1.335c0.349,1.359,1.48,2.743,0.842,4.176
	c-1.191,0.722-2.503,1.209-3.766,1.787C68.488,29.586,67.79,28.046,67.074,26.512L67.074,26.512z"/>
<path fill="#FEFEFE" d="M152.352,36.103c1.306-1.354,2.593-2.726,3.898-4.08c3.483,3.442,6.968,6.884,10.47,10.307
	c-1.348,1.282-2.684,2.569-3.953,3.929c-1.102-1.059-2.202-2.124-3.34-3.147c-4.488,4.748-9.121,9.369-13.779,13.954
	c-1.221-1.372-2.496-2.684-3.802-3.965c4.669-4.525,9.14-9.242,13.742-13.827C154.518,38.209,153.453,37.138,152.352,36.103
	L152.352,36.103z"/>
<path fill="#FEFEFE" d="M36.255,42.493c1.877-2.347,4.248-4.26,6.161-6.583c1.661-0.03,3.328-0.042,4.988-0.012
	c4.435,4.104,8.604,8.484,13.045,12.576c0.12,1.661,0.15,3.327,0.132,4.994c-2.227,2.1-4.2,4.435-6.36,6.595
	c-1.721,0.024-3.436,0.024-5.151-0.024c-4.26-4.278-8.616-8.46-12.912-12.69C36.188,45.73,36.057,44.106,36.255,42.493
	L36.255,42.493z"/>
<path fill="#040404" d="M42.368,45.628c-0.686-1.583,1.348-2.539,2.178-3.604c1.257-0.542,1.998,0.74,2.804,1.444
	c2.353,2.431,4.982,4.603,7.142,7.208c-0.126,1.408-1.552,2.178-2.304,3.255c-0.47,0.018-0.945,0.042-1.414,0.06
	C48.03,51.146,45.07,48.51,42.368,45.628L42.368,45.628z"/>
<path fill="#8B888A" d="M78.211,51.235c5.174-2.1,10.379-4.669,16.083-4.789c10.77-1.209,21.528,3.772,28.905,11.432
	c2.045,1.974,4.043,4.031,5.583,6.432c1.138,1.793,2.726,3.43,2.991,5.632c-3.924,0.349-7.828-0.307-11.475-1.757
	c-0.198-0.343-0.596-1.029-0.794-1.372c-2.034-0.108-3.61-1.33-4.91-2.792c-1.667-0.926-3.309-1.913-5.133-2.515
	c-0.728,0.312-1.455,0.62-2.178,0.932c-2.292-1.179-4.561-2.388-6.896-3.472c-2.31-0.379-4.669-0.163-6.998-0.229
	c-1.023-0.944-1.979-2.01-3.207-2.689c-3.634-0.21-7.274-0.951-10.92-0.608c-4.729,1.3-9.158,3.586-13.99,4.579
	C68.897,56.211,73.56,53.588,78.211,51.235L78.211,51.235z"/>
<path fill="#8B888A" d="M110.185,46.717c5.986,0.873,11.606,3.328,16.985,5.999c2.769,1.559,5.554,3.147,7.954,5.253
	c1.944,1.672,4.206,3.153,5.434,5.481c-1.04,2.677-3.363,5.103-6.306,5.529c-4.855-7.858-10.956-15.403-19.362-19.621
	C113.314,48.492,111.304,48.257,110.185,46.717L110.185,46.717z"/>
<path fill="#FEFEFE" d="M155.931,63.535c5.446-2.666,10.993-5.126,16.409-7.865c1.527,0.584,3.141,0.981,4.596,1.745
	c1.396,2.72,2.612,5.53,3.983,8.261c-0.547,1.486-1.095,2.966-1.606,4.458c-5.438,2.72-10.914,5.367-16.474,7.828
	c-1.565-0.229-2.997-0.962-4.513-1.384c-1.456-2.786-2.774-5.638-4.164-8.454C154.764,66.603,155.12,64.966,155.931,63.535
	L155.931,63.535z"/>
<path fill="#FEFEFE" d="M24.907,58.005c1.769,0.722,3.508,1.51,5.283,2.226c-0.674,1.378-1.306,2.78-1.89,4.2
	c5.927,2.672,11.896,5.235,17.823,7.895c-0.698,1.667-1.457,3.309-2.196,4.964c-6.06-2.467-11.956-5.295-17.937-7.942
	c-0.602,1.402-1.24,2.792-1.89,4.182c-1.685-0.776-3.37-1.564-5.072-2.298C21.074,66.862,22.97,62.421,24.907,58.005L24.907,58.005z
	"/>
<path fill="#040404" d="M169.879,62.938c0.956-0.391,1.979-1.209,3.044-0.644c0.71,1.029,1.167,2.196,1.727,3.31
	c-0.451,0.667-0.98,1.311-1.757,1.6c-3.242,1.444-6.432,2.99-9.627,4.531c-0.307-0.102-0.908-0.295-1.216-0.391
	c-0.613-1.239-1.312-2.491-1.323-3.911C163.742,65.863,166.864,64.509,169.879,62.938L169.879,62.938z"/>
<path fill="#8B888A" d="M142.261,64.81c5.127,5.951,9.267,13.051,10.83,20.801c-4.031-1.745-8.436-1.865-12.756-1.643
	c-1.563-4.338-2.996-8.725-4.897-12.936C138.253,69.642,140.588,67.463,142.261,64.81L142.261,64.81z"/>
<path fill="#8B888A" d="M93.133,66.874c5.181-0.752,10.469-1.113,15.65-0.187c2.473-0.09,4.64,1.179,6.402,2.792
	c3.868-0.265,7.244,1.968,11.029,2.28c2.347,0.283,4.717,0.09,7.063-0.06c2.274,3.773,3.58,8.039,4.735,12.269
	c-1.479,0.536-3.057,0.56-4.603,0.602c-2.413,0.06-4.796,0.902-7.208,0.427c-2.401-0.445-4.772-1.408-7.263-1.011
	c-1.427,0.265-2.75-0.476-4.14-0.644c-3.021,0.583-5.626,2.364-8.526,3.297c-2.467,0.246-4.964,0-7.431,0.276
	c-0.523-0.445-1.041-0.89-1.558-1.336c-2.732,1.372-5.572-0.475-8.394,0.121c-2.185,1.559-3.881,3.7-5.789,5.572
	c-3.123,0.181-6.239-0.145-9.356-0.03c-1.335,0.909-2.684,1.799-4.007,2.72c-2.666,0.355-5.981-0.036-7.582,2.618
	c-2.088,0.138-4.368,0.427-5.944,1.961c-2.846,2.805-5.518,5.782-8.358,8.599c-0.349-2.389-0.896-4.808-0.355-7.221
	c0.289-5.535,0.572-11.246,2.66-16.456c4.506-3.31,8.929-6.739,13.568-9.874c3.147,1.149,6.336-0.807,9.459,0.391
	c2.04-1.348,3.833-3.033,5.794-4.489c2.918,0.012,5.837,0.114,8.755,0.06C89.715,69.112,91.195,67.47,93.133,66.874L93.133,66.874z"
	/>
<path fill="#8B888A" d="M140.762,85.809c3.863-0.193,7.841-0.006,11.518,1.318c0.655,0.312,1.601,0.578,1.715,1.432
	c1.468,6.457,1.546,13.195,0.469,19.724c-2.936-3.96-7.269-6.643-12.088-7.624C142.616,95.646,141.437,90.737,140.762,85.809
	L140.762,85.809z"/>
<path fill="#8B888A" d="M129.427,87.458c2.9-1.143,6.059-1.221,9.133-1.27c0.976,4.783,1.782,9.621,1.499,14.525
	c-3.761,0.427-7.341,1.624-10.729,3.272c-0.818-0.175-1.637-0.343-2.448-0.487c-1.402,2.527-5.59,1.186-6.156,4.326
	c-1.78,1.125-3.82,1.564-5.914,1.396c-1.793,1.33-5.108,0.831-5.247,3.756c-3.152,1.57-6.401,2.936-9.542,4.542
	c-1.029,1.823-2.136,3.604-3.328,5.325c-2.094,0.15-2.19,2.166-2.214,3.82c-1.775,1.806-3.67,3.484-5.511,5.223
	c-1.709,1.589-2.702,3.731-3.875,5.705c-2.937,0.33-6.011,0.318-8.73,1.63c-1.577,0.788-3.303-0.061-4.898-0.343
	c-0.891,0.253-1.805,0.884-2.731,0.403c-2.046-0.788-4.152-1.42-6.186-2.227c-3.135-2.551-5.211-6.113-7.437-9.423
	c-0.74-1.186,1.161-1.805,1.739-2.635c1.396-0.024,2.792-0.066,4.188-0.108c1.089-2.509,2.142-5.037,3.075-7.612
	c2.371-1.847,4.879-3.507,7.226-5.384c1.162-0.934,2.744-0.819,4.104-1.258c0.938-0.716,1.685-1.638,2.479-2.503
	c2.659-0.049,5.625,0.704,7.906-1.09c2.203-1.672,4.958-1.955,7.558-2.552c2.605-2.857,5.132-5.799,7.683-8.711
	c3.821,0.722,7.335-1.162,10.211-3.49c1.162-1.107,2.828-0.819,4.278-1.137c1.522-0.885,2.84-2.088,4.26-3.129
	C123.013,87.969,126.394,88.824,129.427,87.458L129.427,87.458z"/>
<path fill="#8B888A" d="M127.153,108.047c3.694-2.827,8.207-4.753,12.876-5.084c0.331,6.39-1.191,12.689-2.925,18.785
	c-1.798,6.197-5.077,11.847-8.803,17.069c-3.766,4.452-7.863,8.863-13.141,11.529c-3.664,1.973-7.804,2.791-11.901,3.242
	c-3.267,0.523-6.546-0.24-9.819-0.318c1.384-2.558,5.613-2.257,5.909-5.518c3.333-1.475,4.548-5.12,6.613-7.847
	c2.376-2.918,2.419-6.829,3.567-10.265c1.041-0.523,2.088-1.041,3.129-1.57c0.728-3.839,1.673-7.695,3.363-11.228
	c1.709-1.564,4.001-2.334,5.698-3.917c1.077-1.197,1.775-2.665,2.623-4.019C125.288,108.656,126.256,108.458,127.153,108.047
	L127.153,108.047z"/>
<path fill="#8B888A" d="M142.616,102.963c4.537,0.926,9.188,3.568,11.204,7.894c-0.253,2.799-1.258,5.482-2.063,8.16
	c-3.346,8.158-8.448,15.631-15.049,21.51c-4.819,3.845-9.964,7.521-15.927,9.338c-0.439,0.043-1.312,0.121-1.751,0.157
	c2.059-1.595,4.338-2.919,6.161-4.796c8.075-7.96,13.273-18.514,15.62-29.543C141.96,111.526,141.888,107.187,142.616,102.963
	L142.616,102.963z"/>
<path fill="#FEFEFE" d="M20.605,133.06c7.503-3.677,14.771-7.816,22.311-11.438c1.793,3.34,3.592,6.679,5.223,10.097
	c0.03,1.727-0.957,3.321-1.288,5.006c-2.773,1.498-5.596,2.906-8.412,4.326c-1.317-0.373-2.666-0.577-4.019-0.716
	c-2.064,2.503-4.218,4.928-6.222,7.479c-0.873-1.672-1.727-3.351-2.666-4.981c1.889-2.286,3.821-4.543,5.716-6.817
	c-0.354-0.74-0.716-1.479-1.089-2.208c-2.425,1.336-4.855,2.665-7.365,3.839C22.139,136.086,21.387,134.564,20.605,133.06
	L20.605,133.06z"/>
<path fill="#FEFEFE" d="M158.2,123.252c1.547-0.505,3.117-0.927,4.682-1.384c1.101,0.782,2.804,1.017,3.525,2.153
	c-0.728,1.638-1.673,3.165-2.568,4.712c-0.403-0.265-1.21-0.788-1.619-1.054c-0.691,1.427-1.42,2.841-2.094,4.278
	c0.98,1.018,2.226,1.77,3.694,1.577c1.059-1.89,2.088-3.791,3.062-5.723c1.631-0.439,3.22-1.233,4.934-1.264
	c2.521,1.144,4.874,2.624,7.347,3.875c0.434,1.511,0.909,3.015,1.39,4.513c-1.413,2.72-2.857,5.428-4.224,8.172
	c-1.601,0.499-3.164,1.257-4.855,1.348c-1.317-0.482-2.509-1.24-3.73-1.92c0.807-1.577,1.625-3.147,2.371-4.754
	c0.644,0.301,1.3,0.62,1.949,0.945c0.68-1.27,1.45-2.503,2.01-3.839c-0.054-1.228-1.354-1.619-2.154-2.269
	c-2.545,0.788-2.84,3.989-4.146,5.981c-1.691,0.384-3.327,1.305-5.066,1.305c-2.503-1.125-4.855-2.544-7.316-3.748
	c-0.529-1.589-1.257-3.153-1.391-4.844C155.155,128.511,156.834,125.955,158.2,123.252L158.2,123.252z"/>
<path fill="#040404" d="M35.647,131.092c1.511-0.807,3.027-1.601,4.519-2.442c0.62,1.238,1.275,2.461,1.925,3.682
	c-0.138,0.337-0.427,0.999-0.571,1.336c-1.042,0.464-2.052,1.012-3.141,1.354C36.929,134.204,36.574,132.375,35.647,131.092
	L35.647,131.092z"/>
<path fill="#FEFEFE" d="M136.106,150.684c3.122-2.498,6.053-5.218,9.218-7.66c1.564,0.289,3.159,0.421,4.747,0.541
	c2.021,2.348,3.995,4.736,5.999,7.095c0.006,1.342,0.012,2.689,0.036,4.037c2.96,1.486,5.951,2.937,8.791,4.651
	c-1.462,1.173-2.889,2.383-4.303,3.61c-2.574-1.48-5.265-2.744-7.895-4.116c-0.583,0.523-1.16,1.047-1.732,1.576
	c1.757,2.076,3.557,4.122,5.283,6.229c-1.312,1.106-2.581,2.268-4.002,3.23C146.997,163.374,141.376,157.169,136.106,150.684
	L136.106,150.684z"/>
<path fill="#FEFEFE" d="M35.503,157.495c7.569-4.488,15.06-9.134,22.678-13.532c1.414,1.132,2.665,2.449,4.073,3.598
	c-3.929,7.955-7.78,15.952-11.763,23.876c-1.312-1.281-2.737-2.455-3.953-3.827c0.427-1.3,1.083-2.509,1.606-3.767
	c-1.715-1.552-3.394-3.141-5.109-4.687c-1.161,0.715-2.328,1.426-3.501,2.13C38.187,160.021,36.851,158.752,35.503,157.495
	L35.503,157.495z"/>
<path fill="#040404" d="M143.658,151.718c1.185-0.902,2.195-2.112,3.592-2.695c1.366,0.662,3.057,2.136,2.973,3.797
	c-0.981,1.083-2.203,1.913-3.31,2.857C145.788,154.39,144.716,153.06,143.658,151.718L143.658,151.718z"/>
<path fill="#040404" d="M47.621,156.207c2.184-0.986,4.266-2.189,6.293-3.471c-1.161,2.075-2.226,4.205-3.346,6.305
	C49.775,157.982,47.717,157.525,47.621,156.207L47.621,156.207z"/>
<path fill="#FEFEFE" d="M72.555,154.715c3.526,1.269,7.016,2.689,10.446,4.212c1.143,1.311,1.402,3.23,2.154,4.795
	c-1.312,2.708-2.226,5.596-3.64,8.249c-0.951,0.933-2.305,1.336-3.448,1.992c-2.304-0.885-4.597-1.812-6.847-2.822
	c-1.3,2.858-2.407,5.807-3.749,8.646c-1.456-0.668-2.936-1.27-4.422-1.859C65.924,170.07,69.577,162.531,72.555,154.715
	L72.555,154.715z"/>
<path fill="#FEFEFE" d="M126.875,155.671c1.463,0.632,2.937,1.246,4.398,1.884c1.625,4.001,3.129,8.044,4.675,12.076
	c0.566,1.696,1.174,3.381,1.914,5.005c-0.698,1.522-1.011,3.358-2.19,4.579c-2.689,1.276-5.607,2.046-8.352,3.226
	c-1.468-0.584-2.894-1.257-4.368-1.812c-2.455-5.602-4.14-11.511-6.648-17.088c0.644-1.559,1.348-3.086,2.034-4.62
	C121.184,157.837,124.066,156.845,126.875,155.671L126.875,155.671z"/>
<path fill="#FEFEFE" d="M94.469,161.412c4.837,0.09,9.668-0.072,14.506-0.114c-0.024,1.787-0.018,3.568,0.007,5.355
	c-1.541,0.102-3.087,0.162-4.628,0.234c0.091,3.382-0.102,6.769,0.108,10.145c0.235,2.184,0.355,4.393,0.019,6.57
	c0.048,0.908,0.15,1.811,0.307,2.708c-1.878,0.186-3.761,0.192-5.638,0.156c-0.024-6.547-0.301-13.087-0.223-19.64
	c-1.498-0.042-2.997-0.018-4.482,0.097C94.487,165.088,94.487,163.247,94.469,161.412L94.469,161.412z"/>
<path fill="#040404" d="M73.126,166.459c0.548-1.601,1.222-3.146,1.896-4.698c1.065,0.463,2.142,0.908,3.231,1.316
	c0.181,0.308,0.542,0.921,0.722,1.234c-0.668,1.137-0.782,2.804-2.094,3.412C75.539,167.729,74.366,166.875,73.126,166.459
	L73.126,166.459z"/>
<path fill="#040404" d="M122.766,164.824c-0.541-1.77,1.758-2.088,2.948-2.552c1.107-0.445,1.913,0.668,2.154,1.613
	c1.119,3.242,2.461,6.407,3.556,9.656c0.193,1.884-2.316,1.871-3.489,2.636c-1.444-0.644-1.625-2.293-2.19-3.58
	C124.8,169.986,123.638,167.458,122.766,164.824L122.766,164.824z"/>
<path fill="#8B888A" d="M166.077,167.549c0.012-0.013,0.042-0.036,0.054-0.049C166.119,167.513,166.088,167.537,166.077,167.549
	L166.077,167.549z"/>
</svg>