<?xml version="1.0" encoding="utf-8"?>
<!-- Generator: Adobe Illustrator 16.0.4, SVG Export Plug-In . SVG Version: 6.00 Build 0)  -->
<!DOCTYPE svg PUBLIC "-//W3C//DTD SVG 1.1//EN" "http://www.w3.org/Graphics/SVG/1.1/DTD/svg11.dtd">
<svg version="1.1"
	 id="svg50002" xmlns:svg="http://www.w3.org/2000/svg" xmlns:dc="http://purl.org/dc/elements/1.1/" xmlns:cc="http://creativecommons.org/ns#" xmlns:rdf="http://www.w3.org/1999/02/22-rdf-syntax-ns#"
	 xmlns="http://www.w3.org/2000/svg" xmlns:xlink="http://www.w3.org/1999/xlink" x="0px" y="0px" viewBox="3.543 3.589 531.495 406.678" enable-background="new 3.543 3.589 531.495 406.678"
	 xml:space="preserve">
<g id="g40053" transform="matrix(1.25,0,0,-1.25,760.6144,644.14414)">
	<path id="path40055" fill="#E31837" stroke="#FFFFFF" stroke-miterlimit="10" d="M-180.974,485.694
		c-0.812,3.334-2.45,6.233-4.609,8.581c-0.507,0.565-1.363,0.667-2.03,0.058c-2.754-2.957-5.073-5.305-12.22-6.537l0.87-6.03
		l16.582,2.406c0.769,0.072,1.189-0.159,1.696-0.768C-180.177,482.795-180.959,485.578-180.974,485.694"/>
</g>
<g id="g40073" transform="matrix(1.25,0,0,-1.25,760.2394,645.38939)">
	<path id="path40075" fill="#E31837" stroke="#FFFFFF" stroke-miterlimit="10" d="M-185.022,472.251
		c0.551-0.406,0.754-1.029,0.768-1.435c0.029-0.58,0.087-0.739,0.913,0.566c0,0,2.711,3.638,3.174,9.581
		c0.116,1.667-1.565,2.45-2.623,2.276l-15.611-2.276l0.754-5.262C-192.588,476.135-186.993,473.729-185.022,472.251"/>
</g>
<g id="g39961" transform="translate(484.0092,166.2395)">
	<path id="path39963" fill="#002B5C" stroke="#FFFFFF" stroke-miterlimit="10" d="M-367.428,83.623
		c-0.036-0.163-0.054-0.308-0.091-0.471c-3.968-19.732-4.222-40.061-1.069-59.938c0.036-0.236,0.091-0.489,0.127-0.761
		c-9.15,9.531-18.935,16.47-28.574,20.058c-1.884,18.753,0.707,35.387,1.812,43.468c1.087,7.664,5.254,22.449,6.523,26.852
		c7.773-5.871,16.162-11.795,24.841-17.43L-367.428,83.623z"/>
</g>
<g id="g39965" transform="translate(482.194,165.73)">
	<path id="path39967" fill="#002B5C" stroke="#FFFFFF" stroke-miterlimit="10" d="M-398.502,93.364
		c-2.99-14.387-4.494-26.979-2.899-47.907c-8.878,2.809-13.716,0.326-16.307-2.555c-0.235-0.271-0.398-0.543-0.616-0.833
		c-0.036,0.181-0.072,0.362-0.09,0.525c-4.748,24.696-4.004,50.081,2.881,74.378l5.146,15.655
		c5.49-4.928,11.741-10.146,18.536-15.456C-392.595,114.871-396.382,103.492-398.502,93.364"/>
</g>
<g id="g39969" transform="translate(484.4745,166.9046)">
	<path id="path39971" fill="#E31837" stroke="#FFFFFF" stroke-miterlimit="10" d="M-359.462,70.907
		c0.906,4.113,1.993,2.971,1.993,2.971c38.104-23.917,73.454-37.017,84.308-40.768c-3.135-8.842-10.98-31.074-11.795-33.375
		c-10.908,4.711-21.58,9.53-31.817,14.839c0,0,12.248-27.649,23.047-39.645c-7.556-21.344-13.789-38.847-16.851-47.526
		c-10.871,11.596-62.51,70.99-49.627,139.443L-359.462,70.907z M-117.573-53.498c-11.343,16.289-24.117,37.814-36.365,61.659
		l84.941-16.416l49.501-64.485C-33.375-70.62-70.827-64.478-117.573-53.498 M-167.093,35.303c-0.271,0.525-0.525,1.087-0.797,1.631
		c-21.671,47.291-38.739,98.893-39.083,134.515L-91.12,20.572L-167.093,35.303z M-423.639,155.142
		c-20.003,22.612-38.829,49.574-54.176,81.608c-2.12,4.258-3.117,6.613-3.117,6.613l56.079-47.127
		c3.297-2.881,15.473-12.774,16.071-13.208c32.143-24.696,71.987-45.424,131.543-64.25c11.198-3.823,21.525-6.976,30.748-9.585
		c-5.001-14.405-11.668-33.375-18.844-53.741C-320.506,70.001-382.781,112.943-423.639,155.142 M-170.807-68.193l-5.29,4.403
		l1.214-6.504l-6.052-3.352l6.957-0.924l1.486-6.486l3.099,5.925l7.012-0.688l-5.073,4.62l2.862,6.07L-170.807-68.193z
		 M-134.624-98.832c0,0,11.65,7.012,17.576,11.813c0,0-6.541-15.184-14.024-27.214c0,0-40.568,14.966-72.023,61.351l38.576-7.936
		C-156.475-74.716-149.681-83.739-134.624-98.832"/>
</g>
<g id="g39973" transform="translate(484.6345,160.4056)">
	<path id="path39975" fill="#002B5C" stroke="#FFFFFF" stroke-miterlimit="10" d="M-356.723,195.161
		c-2.102,1.902-3.243,4.367-3.406,7.465c-0.163,2.954,0.562,6.143,1.739,9.078c0.199,0.145,0.417,0.254,0.616,0.399
		c14.912,9.875,31.509,17.159,49.012,21.761c0.598,0.181,1.214,0.344,1.812,0.489C-327.063,224.477-343.478,210.526-356.723,195.161
		"/>
</g>
<g id="g39977" transform="translate(484.4006,160.6877)">
	<path id="path39979" fill="#002B5C" stroke="#FFFFFF" stroke-miterlimit="10" d="M-360.727,189.767
		c-3.678-4.584-7.048-9.223-10.201-13.934c-5.599,3.461-10.926,7.012-16.017,10.636c6.342,7.03,13.245,13.444,20.656,19.098
		c0.127,0.09,0.272,0.217,0.417,0.326c-0.163-1.414-0.253-2.809-0.163-4.204C-365.854,198.066-364.658,193.482-360.727,189.767"/>
</g>
<g id="g39981" transform="translate(488.668,160.6479)">
	<path id="path39983" fill="#002B5C" stroke="#FFFFFF" stroke-miterlimit="10" d="M-287.674,190.528
		c-1.033-0.417-2.065-0.852-3.098-1.268c-25.639-6.197-52.835-4.639-64.594,2.21c19.514,22.214,45.968,41.167,81.3,47.942
		c0.888,0.019,1.757,0.019,2.627,0.037c36.655,0.869,74.94-9.096,109.62-30.984c8.806-5.562,17.031-11.668,24.696-18.228
		C-182.294,209.662-240.329,208.973-287.674,190.528"/>
</g>
<g id="g39985" transform="translate(493.0754,166.896)">
	<path id="path39987" fill="#002B5C" stroke="#FFFFFF" stroke-miterlimit="10" d="M-212.223,71.071
		c-8.353-31.672-0.308-64.594-0.308-64.594c-14.64,18.753-30.385,69.269-30.385,69.269c-3.389-45.352,12.683-78.31,25.33-104.691
		c-20.71,6.704-44.029,15.039-68.508,25.385c13.698,38.702,29.298,82.967,38.829,110.435c4.204-1.214,7.936-2.247,11.433-3.153
		l0.163-0.616c0,0,2.99-19.442,9.222-33.085c0.616,14.224,4.004,30.549,4.004,30.549c4.022-0.833,8.262-1.685,13.173-2.591
		c6.867-21.217,15.709-43.213,25.384-64.431c14.55-31.798,31.02-61.641,45.986-84.253c-6.088,1.395-18.862,4.457-36.329,9.078
		C-208.944,19.831-212.223,71.071-212.223,71.071"/>
</g>
<g id="g39989" transform="translate(504.9864,175.2468)">
	<path id="path39991" fill="#002B5C" stroke="#FFFFFF" stroke-miterlimit="10" d="M-8.319-88.588l-9.729-4.276
		c-6.994,5.218-9.676,13.861-9.676,13.861l-4.439,1.323l-16.035,20.656C-1.38-70.885,2.679-79.909,9.891-103.608
		C0.613-95.201-4.532-89.62-8.319-88.588"/>
</g>
<g id="g39993" transform="translate(493.7715,172.4487)">
	<path id="path39995" fill="#002B5C" stroke="#FFFFFF" stroke-miterlimit="10" d="M-200.307-35.091
		c3.406-3.135,14.151-8.045,14.151-8.045l-13.952,3.787C-200.107-39.349-200.379-36.595-200.307-35.091"/>
</g>
<g id="g39997" transform="translate(494.5948,174.3383)">
	<path id="path39999" fill="#002B5C" stroke="#FFFFFF" stroke-miterlimit="10" d="M-186.213-71.218l5.272-4.421l6.233,3.08
		l-2.845-6.07l5.055-4.621l-7.012,0.689l-3.099-5.943l-1.504,6.505l-6.958,0.942l6.07,3.316L-186.213-71.218z"/>
</g>
<g id="g40001" transform="translate(494.7501,173.208)">
	<path id="path40003" fill="#002B5C" stroke="#FFFFFF" stroke-miterlimit="10" d="M-183.555-49.607l7.719-2.646l-1.069-11.234
		l-31.672,8.208l-1.105,5.327c-0.833-2.5-0.906-3.279-1.667-3.37c-2.754-0.271-1.685,2.537-1.902,3.099
		c-0.236,0.598,1.087,5.979,2.844,6.631l0.145,4.566l7.936-2.482l3.316-2.736l13.97-2.863L-183.555-49.607z M-187.233-53.812
		l-10.038-0.398l10.799-3.75C-185.402-56.257-186.236-54.355-187.233-53.812"/>
</g>
<g id="g40005" transform="translate(484.0889,170.2974)">
	<path id="path40007" fill="#002B5C" stroke="#FFFFFF" stroke-miterlimit="10" d="M-366.064,6.04
		c0.091-0.326,0.145-0.616,0.217-0.96c11.162-45.986,40.478-88.04,83.438-112.5c-9.241,2.5-19.17,4.983-34.245,12.43
		c-13.481,6.649-25.802,14.658-36.945,23.681c-0.471,0.363-0.96,0.743-1.413,1.105C-378.874-39.33-391.774-1.498-396.25,30.954
		C-385.94,26.388-375.485,17.654-366.064,6.04"/>
</g>
<g id="g40009" transform="translate(481.3708,168.7672)">
	<path id="path40011" fill="#002B5C" stroke="#FFFFFF" stroke-miterlimit="10" d="M-412.594,35.296
		c3.225,2.192,6.704,2.301,12.774-0.181c3.225-26.726,11.958-57.147,27.541-84.833c-0.417,0.453-0.815,0.906-1.214,1.395
		c-20.637,23.011-34.988,50.189-42.072,78.673c-0.054,0.235-0.145,0.471-0.199,0.707C-415.204,32.65-414.243,34.19-412.594,35.296"
		/>
</g>
<g id="g40013" transform="translate(484.1335,161.6361)">
	<path id="path40015" fill="#002B5C" stroke="#FFFFFF" stroke-miterlimit="10" d="M-365.3,171.635
		c3.117,4.602,6.45,9.186,10.11,13.68c9.839-6.541,28.52-8.878,48.251-7.157c-0.236-0.145-0.507-0.29-0.779-0.417
		c-10.545-6.161-20.167-13.39-28.537-21.634C-346.728,161.126-356.367,166.29-365.3,171.635"/>
</g>
<g id="g40017" transform="translate(489.4292,176.4582)">
	<path id="path40019" fill="#002B5C" stroke="#FFFFFF" stroke-miterlimit="10" d="M-274.643-111.748
		c-7.411,2.645-21.326,9.059-34.499,23.247c1.051,2.971,3.117,8.77,5.907,16.615l3.026-3.533c0,0,12.955-3.896,18.808-5.943
		l-2.138-16.706l7.701-8.262L-274.643-111.748z"/>
</g>
<g id="g40049" transform="translate(504.7362,178.311)">
	<path id="path40051" fill="#E31837" stroke="#FFFFFF" stroke-miterlimit="10" d="M-12.602-147.172
		c-1.703-1.214-0.471-3.551-1.849-1.304l-0.162,0.29c-1.83,2.954-2.863,6.197-3.298,9.73c-0.218,3.877,0.996,5.49,2.608,5.345
		l20.222-2.935l-1.069-7.52C-6.098-142.353-12.602-147.172-12.602-147.172"/>
</g>
<g id="g40057" transform="translate(506.5016,178.6464)">
	<path id="path40059" fill="#E31837" stroke="#FFFFFF" stroke-miterlimit="10" d="M17.619-153.584
		c1.485-1.413,2.845-0.344,1.83-1.214c-0.108-0.091-0.562-0.435-0.562-0.453c-4.512-3.424-10.074-5.164-15.963-4.82
		c0,0-0.417,0.037-0.888,0.109l1.957,13.499C10.787-147.732,14.556-150.432,17.619-153.584"/>
</g>
<g id="g40061" transform="translate(505.4523,178.9707)">
	<path id="path40063" fill="#E31837" stroke="#FFFFFF" stroke-miterlimit="10" d="M-0.344-159.785
		c-4.366,1.069-8.172,3.261-11.125,6.179c-1.359,1.323-1.396,3.624,0.453,4.674c4.04,1.975,9.549,2.972,13.807,2.5L0.834-160.02
		C0.435-159.948,0.037-159.875-0.344-159.785"/>
</g>
<g id="g40065" transform="translate(505.0427,176.7058)">
	<path id="path40067" fill="#E31837" stroke="#FFFFFF" stroke-miterlimit="10" d="M-7.356-116.482
		c-1.522,1.558-2.355,0.634-2.573,0.852c-0.163,0.217,1.088,1.015,1.088,1.015c4.275,3.28,9.566,5.019,15.147,4.892
		c0,0,1.032-0.018,1.884-0.109l-1.993-13.734C0.236-122.552-3.388-120.523-7.356-116.482"/>
</g>
<g id="g40069" transform="translate(506.0851,176.37)">
	<path id="path40071" fill="#E31837" stroke="#FFFFFF" stroke-miterlimit="10" d="M10.489-110.062
		c0.996-0.235,1.993-0.543,2.953-0.906c2.736-1.051,5.399-2.718,7.339-4.458c1.92-1.721,1.141-3.787-0.037-4.457
		c-2.627-1.522-7.12-4.186-13.335-3.66l1.993,13.734C9.764-109.881,10.127-109.972,10.489-110.062"/>
</g>
<g id="g40077" transform="translate(504.5616,177.4046)">
	<path id="path40079" fill="#E31837" stroke="#FFFFFF" stroke-miterlimit="10" d="M-15.591-129.843
		c-1.033,0.109-1.449-0.507-1.775-0.906c-0.436-0.562-0.309,0.308,0.09,1.812c0.997,3.986,2.845,7.483,5.382,10.328
		c0.743,0.743,2.428,0.743,3.171,0.036c3.406-3.787,7.609-6.45,15.111-7.755l-0.961-6.577L-15.591-129.843z"/>
</g>
<g id="g40081" transform="translate(493.5073,178.0795)">
	<path id="path40083" fill="#E31837" stroke="#FFFFFF" stroke-miterlimit="10" d="M-204.83-142.745l-37.452,10.092l13.191-23.772
		l-22.866,17.883l6.432-35.948l-12.991,30.784l-12.756-18.137l6.523,27.559l-29.643-4.095l25.548,13.807l-9.893,11.198l-1.196,5.436
		l14.024-3.153l-0.761,26.436l14.169-27.505l16.434,18.083l-9.548-25.059L-204.83-142.745z"/>
</g>
</svg>
