<?xml version="1.0" encoding="utf-8"?>
<!-- Generator: Adobe Illustrator 16.0.4, SVG Export Plug-In . SVG Version: 6.00 Build 0)  -->
<!DOCTYPE svg PUBLIC "-//W3C//DTD SVG 1.1//EN" "http://www.w3.org/Graphics/SVG/1.1/DTD/svg11.dtd">
<svg version="1.1" id="Layer_1" xmlns="http://www.w3.org/2000/svg" xmlns:xlink="http://www.w3.org/1999/xlink" x="0px" y="0px" viewBox="40.549 121.691 530.895 548.626"
	 enable-background="new 40.549 121.691 530.895 548.626" xml:space="preserve">
<g>
	<path fill="#FFFFFF" d="M563.847,382.4l-13.576-6.064c0.343-2.621,0.559-5.87,0.375-9.563
		c-0.614-12.362-5.483-23.993-14.067-33.631L522.6,317.457l0.612,20.667c-0.032,0.444-0.276,3.044-1.83,7.022
		c-1.27,3.251-3.641,7.98-8.004,13.469l-3.055-1.548l-7.578-19.683l31.425-65.889l2.408,11.477l10.055-16.351
		c0.261-0.42,2.587-4.3,4.545-10.867c2.345-7.852,3.223-16.455,2.567-25.015l6.857-13.983l0.91-1.852l-0.146-2.057
		c-0.04-0.541-3.826-54.035-4.273-63.031c-0.221-4.406-4.207-11.271-9.693-16.694c-5.276-5.215-14.271-11.431-27.146-11.431
		c-4.776,0-9.358,0.78-13.618,2.323c-3.174,1.147-5.526,2.512-6.575,3.334c-1.017,0.795-13.285,10.297-30.27,23.447
		c-49.689,38.476-98.509,76.285-109.682,85.023c-0.269,0-0.548-0.003-0.846-0.003c-4.656,0-14.345,0.29-26.896,2.238
		c-14.61,2.267-28.849,6.08-42.315,11.335c-17.572,6.86-33.631,16.12-47.731,27.529c-16.667,13.488-30.733,30.097-41.821,49.383
		L46.454,450.085l-5.905,4.744l4.686,5.95c0.551,0.699,1.293,1.719,2.158,2.9c4.747,6.503,13.581,18.607,27.564,29.064
		c17.285,12.926,37.207,19.48,59.215,19.48c6.046,0,12.325-0.501,18.664-1.496l0.114-0.019l0.115-0.023l29.772-5.594
		c1.051,4.108,2.597,9.803,4.694,16.679c6.239,20.459,17.873,50.665,37.848,78.392c11.08,15.377,23.655,28.493,37.372,38.974
		c16.05,12.264,33.934,21.13,53.153,26.351l17.783,4.83l-9.135-16.006c-0.104-0.186-10.872-19.254-18.232-44.958
		c-5.021-17.532-9.207-41.009-5.276-63.581c2.751,6.737,6.229,14.425,10.443,22.208c7.185,13.264,15.039,24.067,23.353,32.101
		c11,10.633,22.878,16.521,35.304,17.5l18.903,1.493l-12.527-14.138c-0.349-0.415-9.289-11.144-14.531-29.658
		c-5.974-21.098-5.04-43.446,2.765-66.606c2.268,2.882,4.971,6.021,8.105,9.161c6.396,6.407,13.296,11.54,20.502,15.25
		c9.217,4.744,18.924,7.16,28.856,7.179l15.835,0.034l-9.815-12.426c-2.605-3.297-4.803-7.65-7.291-13.169
		c-8.544-18.919-10.774-40.967-6.261-60.122l81.917,3.135l1.698,0.063l1.562-0.657l39.477-16.599l2.445-1.029l1.282-2.326
		l24.353-44.088l4.026-7.285L563.847,382.4z"/>
	<g>
		<path d="M51.249,456.04c7.791,9.896,35.943,57.222,100.405,47.124c36.922-6.935,36.922-6.935,36.922-6.935
			s1.937,9.09,6.272,23.307c12.064,39.546,44.886,117.337,123.062,138.567c0,0-44.471-77.929-17.338-136.63
			c0,0,23.664,84.812,70.178,88.484c0,0-39.78-45.594-7.805-117.658c0,0,21.114,40.24,59.287,40.314
			c-3.175-4.018-5.687-9.055-8.263-14.765c-8.533-18.903-13.099-45.643-5.047-71.145l87.976,3.369l39.475-16.602l24.353-44.087
			l-19.178-8.568c0,0,7.448-22.234-10.683-42.584c0,0-0.077,13.235-15.606,29.911l-11.016-5.585l-9.819-25.499l41.105-86.191
			c0,0,3.635,7.189,4.593,11.743c0,0,8.007-13.02,5.813-33.317l7.805-15.912c0,0-3.826-54.008-4.284-63.188
			c-0.159-3.217-9.919-20.858-29.197-20.858c-9.252,0-14.973,3.632-15.476,4.028c-3.521,2.754-137.905,106.743-142.099,110.16
			c-9.371-0.458-106.067-1.07-156.251,87.822L51.249,456.04z"/>
	</g>
	<path fill="#EFE1C6" d="M133.397,482.561c8.262-1.836-8.568-7.649-11.602-23.356c4.563,3.57,22.21,10.198,26.188,6.934
		c2.983-2.982-6.426-13.006-2.754-35.496c3.81-23.341,16.981-27.082,10.404-30.905c-7.344-1.225-75.582,55.08-75.582,55.08
		l10.71,17.747C90.76,472.563,126.666,485.927,133.397,482.561z"/>
	<polygon fill="#8E0028" points="509.562,431.789 531.402,422.636 525.051,407.846 	"/>
	<path fill="#8E0028" d="M346.272,503.88c-0.509,3.366,3.978,5.202,5.609,1.325c1.631-3.877,10.605-29.578,14.075-29.885
		c1.325-0.117,2.948,7.334,7.547,14.894c7.437,12.218,21.523,26.928,29.378,26.928c3.48,0,4.053-0.474,4.053-0.474l-8.53-12.621
		l-24.9-69.121l-15.301,22.95L346.272,503.88z"/>
	<path fill="#8E0028" d="M313.02,456.04c0,0,33.838,126.287,31.648,123.712c-35.773-42.079-37.358-88.727-37.358-88.727
		s-23.094,27.406-23.759,73.029l-8.219-0.611l17.088-69.153L313.02,456.04z"/>
	<path fill="#EFE1C6" d="M533.773,382.983c0,0,5.201-18.054-0.609-30.983c-3.215,11.17-9.792,18.36-15.34,23.333l-19.776-9.601
		l40.084,25.946l-24.175,5.71l-22.133-7.956c0,0,4.338-23.461-1.352-31.582c-0.313,1.799-1.671,4.455-2.408,6.234
		c-4.281,10.33-13.541,18.781-13.541,18.781l-21.356-7.714l-17.543-46.001l64.156-103.633c0,0,7.089,7.139,10.606,15.808
		c4.284-13.36-1.938-30.089-1.938-30.089l7.65-12.344l18.612-13.515l3.417,16.984l-30.6,84.863l24.277-52.326
		c0,0,1.184,1.072,2.855,3.47c1.742,2.504,4.002,6.407,5.201,9.587c2.855-7.243-1.122-26.723-1.122-26.723l7.038-12.956
		l-8.568-31.619l-32.514,22.453l-95.852,109.356c0,0-21.729,8.411-36.798,19.812c-3.22,2.438-5.986,5.162-8.339,7.804
		c0,0,25.297,4.795,27.543,21.726c0,0-8.183,4.792-20.3,13.922c-44.109,33.245-142.149,120.995-103.529,217.209
		c7.033,17.521,18.7,35.052,35.956,52.888c0,0-48.705-82.466,9.843-176.078c0.021,2.174-0.184,88.165,38.404,121.66
		c-27.591-65.178,20.371-142.824,20.371-142.824c-8.743,40.059,34.938,72.074,34.938,72.074
		c-20.476-43.183-2.982-83.114-2.982-83.114l92.888,3.698l12.72-5.46l15.976-15.731l5.864,6.578l17.977-32.46L533.773,382.983z
		 M421.955,328.031l29.172-35.903l-20.934,35.701l17.261,47.124L421.955,328.031z"/>
	<path fill="#8E0028" d="M542.341,155.856c-2.831,3.518-7.064,18.206-7.064,18.206s-0.431-12.163-6.168-19.812
		c-5.391-7.185-12.088-0.918-16.755-7.573c-2.137-3.044-2.065-7.496-2.065-7.496l-13.006,9.792c0,0-3.518,14.076-2.752,31.364
		c0,0-7.804-6.12-12.242-18.206c0,0-3.058,7.038-3.212,33.048c0,0-8.416-7.65-13.312-20.044c0,0-3.826,16.218-3.365,35.956
		c0,0-7.345-5.508-14.843-22.032c0,0-3.672,19.278-3.366,39.628c0,0-11.934-10.861-16.523-25.552c0,0-57.147,43.758-61.126,46.818
		c-3.976,3.06-28.687,29.988-34.961,58.983c0,0-0.689-14.305,1.327-27.923c0,0-24.339,17.314-38.007,32.207
		c0,0-0.343-18.336,9.829-33.66c0,0-3.613,2.325-8.147,5.891c-2.858,2.249-5.628,4.752-9.526,8.222
		c-9.792,8.719-21.827,20.071-29.299,27.731c0,0,20.425-38.556,51.533-60.538c0,0-79.917,17.798-107.915,105.749
		c-0.766-0.841,1.378-20.273,1.378-20.273L65.971,454.922c31.212,43.045,82.62,37.128,88.333,36.108
		c16.998-3.036,69.946-11.349,69.946-11.349s-8.645-21.88-6.809-36.337c0,0,5.814,28.227,25.805,45.746l-43.657,6.019
		c0,0,2.317,8.908,6.221,22.056c9.855,33.202,35.06,95.704,97.563,124.673c0,0-5.276-5.477-12.878-14.55
		c-21.505-25.669-58.262-84.275-20.731-161.147c-29.988,7.142-34.477-13.259-34.477-13.259
		c39.985,27.946,127.346-88.791,106.003-116.483c0,0,36.491-29.604,62.35-33.277L504.698,199.12l30.573-17.045l10.505,26.215
		L542.341,155.856z M150.124,480.522c-3.619,0.708-9.156,1.03-11.218,1.02c-12.921-0.064-42.766-4.484-53.957-24.07l106.693-85.579
		c-72.828,71.807,6.628,95.166,16.729,98.532C208.367,470.425,161.906,478.227,150.124,480.522z"/>
	<polygon fill="#8E0028" points="476.322,332.416 489.783,312.68 482.442,332.57 489.632,351.082 	"/>
	<path fill="#EFE1C6" d="M314.485,271.753c0,0,10.313-2.525,24.797-1.836c0.981-2.909-3.686-3.521-7.357-3.521
		c5.852-4.207,15.108-7.115,15.108-7.115l5.048-5.965C336.938,254.54,314.485,271.753,314.485,271.753z"/>
</g>
</svg>
