<?xml version="1.0" encoding="utf-8"?>
<!-- Generator: Adobe Illustrator 16.0.4, SVG Export Plug-In . SVG Version: 6.00 Build 0)  -->
<!DOCTYPE svg PUBLIC "-//W3C//DTD SVG 1.1//EN" "http://www.w3.org/Graphics/SVG/1.1/DTD/svg11.dtd">
<svg version="1.1" id="Layer_1" xmlns="http://www.w3.org/2000/svg" xmlns:xlink="http://www.w3.org/1999/xlink" x="0px" y="0px" viewBox="0 0 582.419 431.674" enable-background="new 0 0 582.419 431.674"
	 xml:space="preserve">
<metadata><?xpacket begin="﻿" id="W5M0MpCehiHzreSzNTczkc9d"?>
<x:xmpmeta xmlns:x="adobe:ns:meta/" x:xmptk="Adobe XMP Core 5.3-c011 66.145661, 2012/02/06-14:56:27        ">
   <rdf:RDF xmlns:rdf="http://www.w3.org/1999/02/22-rdf-syntax-ns#">
      <rdf:Description rdf:about=""
            xmlns:dc="http://purl.org/dc/elements/1.1/">
         <dc:format>image/svg+xml</dc:format>
         <dc:title>
            <rdf:Alt>
               <rdf:li xml:lang="x-default">Web</rdf:li>
            </rdf:Alt>
         </dc:title>
      </rdf:Description>
      <rdf:Description rdf:about=""
            xmlns:xmp="http://ns.adobe.com/xap/1.0/"
            xmlns:xmpGImg="http://ns.adobe.com/xap/1.0/g/img/">
         <xmp:CreatorTool>Adobe Illustrator CS6 (Macintosh)</xmp:CreatorTool>
         <xmp:CreateDate>2014-01-25T15:53:39-07:00</xmp:CreateDate>
         <xmp:ModifyDate>2014-01-25T15:53:39-07:00</xmp:ModifyDate>
         <xmp:MetadataDate>2014-01-25T15:53:39-07:00</xmp:MetadataDate>
         <xmp:Thumbnails>
            <rdf:Alt>
               <rdf:li rdf:parseType="Resource">
                  <xmpGImg:width>256</xmpGImg:width>
                  <xmpGImg:height>192</xmpGImg:height>
                  <xmpGImg:format>JPEG</xmpGImg:format>
                  <xmpGImg:image>/9j/4AAQSkZJRgABAgEASABIAAD/7QAsUGhvdG9zaG9wIDMuMAA4QklNA+0AAAAAABAASAAAAAEA&#xA;AQBIAAAAAQAB/+4ADkFkb2JlAGTAAAAAAf/bAIQABgQEBAUEBgUFBgkGBQYJCwgGBggLDAoKCwoK&#xA;DBAMDAwMDAwQDA4PEA8ODBMTFBQTExwbGxscHx8fHx8fHx8fHwEHBwcNDA0YEBAYGhURFRofHx8f&#xA;Hx8fHx8fHx8fHx8fHx8fHx8fHx8fHx8fHx8fHx8fHx8fHx8fHx8fHx8fHx8f/8AAEQgAwAEAAwER&#xA;AAIRAQMRAf/EAaIAAAAHAQEBAQEAAAAAAAAAAAQFAwIGAQAHCAkKCwEAAgIDAQEBAQEAAAAAAAAA&#xA;AQACAwQFBgcICQoLEAACAQMDAgQCBgcDBAIGAnMBAgMRBAAFIRIxQVEGE2EicYEUMpGhBxWxQiPB&#xA;UtHhMxZi8CRygvElQzRTkqKyY3PCNUQnk6OzNhdUZHTD0uIIJoMJChgZhJRFRqS0VtNVKBry4/PE&#xA;1OT0ZXWFlaW1xdXl9WZ2hpamtsbW5vY3R1dnd4eXp7fH1+f3OEhYaHiImKi4yNjo+Ck5SVlpeYmZ&#xA;qbnJ2en5KjpKWmp6ipqqusra6voRAAICAQIDBQUEBQYECAMDbQEAAhEDBCESMUEFURNhIgZxgZEy&#xA;obHwFMHR4SNCFVJicvEzJDRDghaSUyWiY7LCB3PSNeJEgxdUkwgJChgZJjZFGidkdFU38qOzwygp&#xA;0+PzhJSktMTU5PRldYWVpbXF1eX1RlZmdoaWprbG1ub2R1dnd4eXp7fH1+f3OEhYaHiImKi4yNjo&#xA;+DlJWWl5iZmpucnZ6fkqOkpaanqKmqq6ytrq+v/aAAwDAQACEQMRAD8A9U4q7FXYq7FXYq7FXYq7&#xA;FXYq7FXYq7FXYq7FXYq7FXYq7FXYq7FXYq7FXYq7FXYq7FXYq7FXYqkHm/zppPlixE12TNeTHjZW&#xA;EW807k0AUb0Fep/jtlWXKIDd2HZ3ZuTVTqO0R9UjyDzPU7Lza+veWtU1e7kg8w6xqUbWmmxMRDaW&#xA;UO8isndqOOVfeu5NMOQnxRJ+on5B6nBl0ww5seOIOHHjNyPOUzy3+Gz2vNi8M7FXYq7FXYq7FXYq&#xA;7FXYq7FXYq7FXYq7FXYq7FXYq7FXYq7FXYq7FXYq7FXYq7FXYq7FWmZVUsxCqoqzHYADucUgWwPW&#xA;vzLa6vW0XyVbfpvV+klwv+8cA6cnk2DfQae9dsxp6izUNz9jv9N2LwR8XVHwsfd/FL3D8e5imh2s&#xA;snnFLW2vBrvm5mEms6+4Eltp8Kn4o7VGHAyfsg0oOgA3pRAeugbl1Pd7nb6rIBpuKUfC0/8ABj5S&#xA;yHvl1rr5/JkuhEeZfzQ1HWh8em+XIv0dYv8AstcvX1nX/VBZfkVy2HryGXSOzq9V/gughi/jzHjl&#xA;/V6foPzZpqGv6Jp1zb2t9fQW1zdMEtoJHVXcseI4qTXrtXMmU4jYl0mHSZckTKETKMeZrkj8k47s&#xA;VdirsVdirsVdirsVdirsVdirsVdirsVdirsVdirsVdirsVdirsVdirsVdiqTav5z8qaQG/SOq20D&#xA;r1iMgaT/AJFryf8ADK5ZYx5lzdP2bqM30Qkfht8+TF3/ADWn1RzB5P0K71l68ReSL9XtAelTI/6m&#xA;45T+Zv6AS7UdgjFvqckcfl9Uvl/akfmKzvGhF1+ZXmVLS0Yc4/LumErzA6A0q779dj/rDKsgPPJL&#xA;4Bz9HkiDw6HDxS/1SfT9A+z3MYbzbrHmSRPKX5f6b+h9KeokMfwyunRpLiUV4LTruSelTWmU+KZ+&#xA;jGKDtB2fi0w/M6yfiZPs90R1+4dwZleWdr+XflOHQdDH1nzXrhEEUi7SPKw4tL/kpFy+D3/2RzII&#xA;GKPDH6i6XHkl2jqDmy+nT4t/IDu956/2J/bton5aeRY1unDtAtX47Pc3cm7Ba77np4KN+mWisMN3&#xA;XzGXtPVnhHP/AGMR+PiXnfm/y3qc3lK780eY1r5j1u4t4LG2NaWkLSckjUb0Yqu/cfMtmJlxngMp&#xA;fUfsek7P1uMamOnwf3OKMjI/zjXP8fqe75s3gHYq7FXYq7FXYq7FXYq7FXYq7FXYq4kAVOwHU4qx&#xA;LW/zU8laTMbZr367eVoLWxU3Dk/y1X4AfYtlE9TCPW3cabsLVZhxcPDHvl6f2/Yl3+P/ADrf/wDH&#xA;F8l3ZRqlJtQlS027Hg4H/Esh48zyifi5P8k6XH/e6iPuiOL7R+psah+dUxqml6Nar/LPJLIevSsb&#xA;0x4s3dFHg9lx5zyy9wA+8NrB+dxUE3GgqSKlSLmo9tkOGs39FTLsruzf7H9bmg/O4KSLjQWIFQoF&#xA;zU+26DGs39FRLsruzf7H9bSz/ncFANvoLEdWJuan7nGN5v6KmPZXfm/2P6m2ufzuCki00FiBsoNz&#xA;U+27jG839FRDsr+dm/2P6lEX/wCeZIH6N0Qe/Kb/AKrYOLN3RZ+F2T/PzfZ/xKsbj87iKfVtAHvW&#xA;6/5rw3m/o/aw4Oyu/P8A7H9S02X52SgctQ0W2FDvGkztU+IdCNsFZu+KfE7LH8OaXv4f1oS50rzy&#xA;a/pX8wbWwjHVYYLdO4H2mMTZExn1nTdDPpP8npZT98pftSO/sPy8QE+YfP17q1PtRRXRljPtwhEx&#xA;+45XKOP+KZLn4sutP9zpoY/fGj8zSTv54/KLQz/uA8snUbhPsz3n2a/zAzGZ/wDhRkPGxR+mNuYO&#xA;y+0s/wDfZuAd0f2cI+0pNrX50ed9UH1azlTS7dvgSGySj06Aeo3Jwf8AUplc9XOXLZzdN7N6XF6p&#xA;AzPfL9XL52ivKv5OebPMdwL/AFppNPtJTzknuatcyfJGPLfxen04cellPc7NWv8AaPT6aPBiqch0&#xA;H0j4/qetzHyd+WnlpjBEI67Rx1BubuYCgFaVY777UXwzOPBhj+N3j4/me08+5v8A3MR+PiWPadNF&#xA;oIn8/wDnl+OuXylNM0xRWSCE/ZhiQ78yD8R7Dqak5VE8P7yfMuxzROorR6Qfuo/VLpI95Pd3d/Tk&#xA;EFI1+95B5x84w89Rlb0/KXlYGpDvTgzqf2qkFmI26nfioibvjnz/AIQ3gQETptMfQN8uXy61+gdf&#xA;mUKdT1DzRrnlrR57n67btqUl+0lPgeKyB5yr3EUk3rJGOyqvfI8RnKI87+X4Lb4ENLizZQOE+GI+&#xA;4z5D3iPCZeZL2nNi8Q7FXYq7FXYq7FXYq7FXYq7FXYqxvzd580fy2scMoa81W4oLPS7ccp5GJouw&#xA;rxUnuforlOXMIe/udn2f2Vl1NkenGOcjyDF5vLnmvzNC1/541IaHoQHL9C2sgjHDt9ZmO3zG/wDs&#xA;TlJxynvM1HudrHWafSng0kPFy/z5C/8ASj8fFLpPzN/K/wAoRm18sacLuZfhaS3Xgpp/PcS1kf50&#xA;YZD8xjx7RDkx7E1+sPFnnwjz/REbD7GL6p/zkB5vuWIsLe1sIv2TxM0g+bOeJ/4DKZa2Z5bO1wey&#xA;Wmj9ZlM/IfZv9rHJ/wAz/wAw71+J1m55t0WALEfHYRKuVHUZD1dnDsPRQH93H47/AHtR6v8AmpPV&#xA;orzXJO54SXZG/wDqnHiynrL7Vlp+z4844R8ILXf80HYs7a2zHqxN2ScH7z+l9qQNAOXg/wCwXRQf&#xA;mnLX0o9ckp14i8NPuw1l/pfaiUuzxzOH/YL/AKj+bf8Ayz6//wABe/0xrL/S+1j4vZ3fg/2DTaf+&#xA;bLKVa215lOxBS8IP4Y8OX+l9qRm7OHXD84KX6B/M1vhOn60Qdt4bqn4jBwZO6X2s/wA3oP5+L5xa&#xA;/wAA/mFcEI+j37U3AkRwPvbbHwch6Ff5W0cdxkh80Vb/AJRfmLPTjozqDvWSWGOg/wBk4OSGlyHo&#xA;1T9odFH/ACn2SP6E3svyE88zkeu1paDv6kpY/dGr/ryY0Uz3OHl9q9JHlxS9w/WQyrSP+cdrBGV9&#xA;X1aScdTDaxiIfLm5kJ/4EZfHQjqXU6j2wmdscAPORv7BX3vRPL3kTyn5fo2l6dFFOBT6y4Mk3v8A&#xA;vH5MK+A2zKhhjHkHm9Z2rqNR/eTJHdyHyCXeevzM0LynA0cjC71ZlrDYRn4t+jStvwX8T2GRzaiM&#xA;Pe5PZXYmbVmx6cfWX6u95j5f1XzH5k1f9OwaZJr3mDpaTTqYtL04VqOPIjm6+5G+45HfMKEpTPFX&#xA;FL7A9Tq8GDTY/CMxiw9QN8mT9Q/GwTO9vNJ8u6sLzVbk+cfzAkbhbWkVXt7WSvwqqAfCVPQAcvAL&#xA;1yZIgbPrm4uLHk1OPhxj8toxzJ+qQ/Hw8zyY5qF1repa89pcXi3Pmq/V4r+6Df6NpdoATNFGfsgi&#xA;Pl6rKfhFV3YscqkSZVfqP2OzwwxYsPFGPDp4bxH8WSXQn4/SOpo7ABn35QaRFdXd/wCZkhMVhwXT&#xA;NCRxQi0t6BpD7yMoLH+blmVpY2TLpyDz3tDqDGMcBNz+uf8AWPT4fdT0/Mx5V2KuxV2KuxV2KuxV&#xA;2KuxV2KsQ87ec7rTp4NA0GEXvmjUB/o0PVIEPWaXsAOoB+Z260ZspHpjvIu57M7NjkBzZjw4Icz3&#xA;+QYteXXl38tLeTUNTm/TnnfUFLySsfj+KvQmvpRDpXq3hTYUExw7neZdtjx5u05CGMeFpYfj4y+7&#xA;7+T655o83+ddTSK4eW7kdv8ARdOt1b01P+REtd6ftGp8TmFPJPIXrtLodNocdxqI6yPP4n9HJm/l&#xA;j/nH/VbpUn8wXYsImAJtIKST/JnP7tD8uWZGPRE/Vs6LXe1uOG2GPGe87D9Z+x6To/5S+QtLVeGl&#xA;pdyjrLeEzk/NW/d/cuZkdNAdHmNR7QazLzmYj+jt+37WVWtlZ2kfp2kEdvHt8ESKg26bKBlwAHJ1&#xA;OTLKZuRJPmsn1TTIH4T3cMT/AMryIp+4nAZAdWUcGSQsRJ+CinmHQHrw1K1biaNSeM0PgaNjxx72&#xA;Z0mYc4S+RREOoWE9PQuYpamg4OrVP0HCJAtcsM48wR8FfC1uxV2KuxV2KtPIkal3YIo6sxoPvOKQ&#xA;CeSX3PmXy5a1+tarZwU2Pq3ESUoaftMMgckRzIciGizz+mEz7olIb/8ANr8vrIHnq8czDosCyTV+&#xA;lFK/ecrlqcY6uwxez+snyxke+h97zjWvzN/LQ6nNqFh5WGp6lO3J7i8CKjPSgYKfW/4iMxJ6jHdi&#xA;Nl6XTdia7wxCebggOkfxH7ypat5h/MHVdOS51q7j8oeWpPgjWNGjklWn2YogTPJt7qmCU8khueGL&#xA;PT6PR4Z8OKJ1Gf32B7z9I+2TFYdbVZF0XyTZTRXF4fRfUZKNqFxy6qpX4YEPdU7dWygT6QH63bS0&#xA;23i6qQIjvw/wR/4o+/4BlWm+TWtZk8kaZIJtb1BVfzVqce6WloCG+rRnxbbl4mg6dL44q9A5nme7&#xA;ydTm7S4x+byCsUP7qJ/il/OP6O77+56bp9ppthb2FnGIrW1jWKGMdlUUHzPic2UYgCg8HmzSyzM5&#xA;G5SNlEYWp2KuxV2KuxV2KuxV2KuxVJPOXmi28s+X7jVJhzkWkdrB3lnfZEH6z7A5XlyCEbc7s3Qy&#xA;1WYYxy6nuHUsJtmHkLyre+bdfpdebdYPJxJ9r1JBWO3X+VEAq9PCnZcxh+6iZy+ou9mP5Q1EdNh9&#xA;Onx/cOcveen7S8f0jSPMnnvzO6qxuL66Yy3l3J9iNK0LtToq9FUfIZgRjLJLzey1GowaDB3RjsB3&#xA;/j9r6P8AJvkTQfKliILCLndOB9ZvpADLIfn+yvgo2+nfNviwxgNnzTtLtXNq53M+npHoP2+aO1/z&#xA;PoXl+0+taveJaxn7Ctu7kdkQVZvoGSnkjEWS0aTQ5tRLhxxMj+OZeQ+Zv+cg76Vmh8u2S28W4F3d&#xA;fHIfdYweK/SWzAya0/wh7HReyMBvnlZ7o8vn/Y871Dzb5y16b07rUbu8aTpbozBD8oo6L9y5iyyz&#xA;lzJekw9n6bTi4wjHz/ad1sHkXzpOvKPQr8r1DG2lUH5EqK4Bhn3FMu1NLHnkh/pgq/8AKvfPP/Vi&#xA;vf8AkQ/9MPgT7iw/lfSf6rD5hTk8iedo2o2gagTSvw2szD71U4+DPuLMdq6U/wCVh/pgqQ+VfzAg&#xA;p6Gj6tFxrx4W1ytK9aUXEY8g6FhLX6OXPJiP+dFFRaV+akVfSs9djr14x3grT5DJcOXul9rVLP2e&#xA;ecsPzgv+o/m3/wAs+v8A/AXv9May/wBL7WPi9nd+D/YLG0X80ppKvZa2zttyeO7/ABJGPBl7pfay&#xA;Gp0AG0sPzg23lD8zpyEk07VHFdg4lpX/AGWwx8LIehQO0NBHcTx/YuT8rfzFuXLHRpy5IBaRo1Ph&#xA;1dhj+XyHop7d0UR/eR+F/oCJH5R+ZoZFTVbnTtHZhyAvbyJTx8aIZMP5aXWh8Wr/AEQYJC8YyZP6&#xA;sD+mkHZ6Z+XlpdSR6vq17eei7Iy6dbxiN+JpVJpZDyVux4DAI4wdyfg3ZM+tnEHHCEb/AJ8jfxAH&#xA;6U1k/MPy5oqmPyZoEVpLxZRqt/8Av7sEinNByZUI69SPbJ+PGP0D4lxB2Pnz76rKZD+bHaPx7/vS&#xA;nT7Lzz+YGqR25nn1B4vtT3Dt6Fur9ST9lK06KKmnQ5CInlPe5mbLpOz8ZlQhfQc5fr/Q9IttN0/y&#xA;Yw8teU0Gq+e79OFzfsPhtI2ALO3URqOoX6WrsDliIx+mO8z9jzM809b+/wBR+70kOUf5x7vP3/Lq&#xA;XoPkrydaeWdMaESG61G5b1tSv3qXmmNSSSamgrsP4k5lYcQgPN5ztPtGWqyXXDCO0Y9AGQ5a652K&#xA;uxV2KuxVC6lqmm6Zatd6jcx2lsn2pZmCLXw36n2yMpACy24cE8suGAMpeTCpfzVbUZWt/KGiXeuu&#xA;p4m6I+r2oP8AxkcfgwXMc6m/oBk7yPYPhi9Tkji8vql8h+1wsPzk1T4rjUtO0GJv9120RuZVHv6n&#xA;Ja/JsazS6iK+L2Zi+mGTKfM8I+z9Tm/LrzA689R88aoQN3a3YWq/gzU3x8CXWZUdsYRtDTY/j6v0&#xA;KZ/L1qHj561kN+yTfVFfcV3x8D+nL5sv5X/6BsX+kVLT8sr6TWNNv9W8x3GtWGnSG4gs7lKgyEfA&#xA;/qBzXi1D9nEac2CZWAxydtwGKcMeKOKcxRI7uoqmLfnpoHnPVdStZrOwlutGs4qRm3/eN6rmsjNG&#xA;tX6BRWlNsp1kJyOw2dt7LavS4oSEpCOWR67bDlvyZ7+WvkuDyr5cit2QfpK5Al1CXqTIRsgP8sda&#xA;D6T3zJ0+Lgj5vP8AbXaR1ecy/gjtH3d/xS78y/zRs/KkH1KzCXWuTLVISapCp6PLT8F7/LI6jUCG&#xA;w5uT2L2HLVnil6cQ69/kP1vn9n8zebtc39bVNVujsBuaew2VEX6FGav1Tl3l9DAwaPF0x44/j4n7&#xA;S9a8r/kTpNhbjUPNt0spjX1JLVH9O3jA3PqS/CzU704j55nY9GBvN5DXe1OTJLg00a8+cj7h/am+&#xA;tfmf+X3k+1S18v21vfSt/ujTzGkQA7yTKGFT9Jyc9Rjxio7+5w9N2HrNZLizGUR3zu/gP7GPXX/O&#xA;RshjT6poapL+2Zbgso9hxjX78qOv7g7HH7Gi/Vk28o/tZp5I/Nry95pnSx4vYaq4JW0lIZX4iren&#xA;INmoB0IBzIw6mM9uRdJ2n7P5tKOP68feOnvH9rHfM350+YNB1yS1u/LTQ2aMyxmeRkeUA7OkgRo6&#xA;H2DfPKsmrlGVGLstD7NYdRiEo5rl5Dl5EXf3IDSv+cilMsw1bSCsJqYDavyYeCuJOIP+sCPlkY67&#xA;vDfn9jth4c9+vEPur7vtQl1/zkXqrW5Fro8EVx6tVeWR5E9Lf4SqiM8/8rlT2yJ1x6Bvh7HYwfVk&#xA;kRXQAb/bt5faiD53/ODzXMi+X9MfTLNk4PKUHAser+vOoGw7Lv8APD42Wf0imr+TOzdIP30+OV9/&#xA;2cMf0vQfKNnqnlzSHTzVr6Xt1I3qF53CrEKbqskhDMNiakDMrEDAeovO9oZMepyXp8RjEdw5/Acn&#xA;mPm/8+tSvIjaeX4G00rJ8V8zpK7otRxVChVa7GtTmHl1pO0dnqezvZSEDxZjx7fTuPttiGo/mp5+&#xA;1CxNnc6vJ6RZWLRLHBJ8PQc4lRqfTlEtTMiiXc4ewtHjnxRgL87I+RtjFxc3FzM09zK80z7vLIxd&#xA;ifdjUnKSbdpCEYioigrabpWp6nci2061lu7g/wC64UZzTxNBsPfDGJOwYZs+PFHinIRHm9V8ofkF&#xA;fTsl15nm+qw7H6hAwaVvZ5BVV/2NfozNxaIneTyXaPtZCPpwDiP848vgOvxp6Zq58r+V/LUunW1/&#xA;B5ciKcYJUCtIpbbmsZq8je+575mS4YRoHheX0/j6rOJyjLMb37vdfIPPvLflPSoLPUdZ0Tz9JHAn&#xA;x6neLbgN3I9RpG5mprQdzmLjxgAmM/e9HrdfklKGLLpgT/COL7qFM4/KrV9d1byw13q0rXH+kSJY&#xA;3UkfpSTWy04SOAaVJ5Dbw6nMjTSlKNl0Pb2nxYc/DjFekcQuwJdzMcyHSuxV2KuxVg+v/mHPJqTa&#xA;B5QtRrGuDaeWv+i2vYtK/QkeAP012zGnn34Ybl32k7HAh42pl4eLp/Ol7h+PlulzeR9FsV/xD+Yu&#xA;rjVLtdwtw3CziJ39OKEU5/KlD/LkfBA9WQ39zkjtTLk/c6KHhx8vqPmT0/G6Tat+ekIddM8m6Q10&#xA;4+CB5EIX2EdvF8RHhuPllctZ0gHN0/ssa8TVZOHv3++R2+9B/or8+vMw53F22k27/ZVpFtAAexWA&#xA;Gb/gsjw55+X2N3j9kaX6Y+JL3cX+69PybH/OP2u3jCTVPMKtLvVhHJcHf3d4zj+SkeZX/Rbihtjx&#xA;be8R+4Fef+cbzTbzDv2/0P8A6/4fyH9L7GP+jP8A2r/Z/wDHUK35E+dNNYy6LrkQcbgq81s527FA&#xA;+/05H8nMci2j2p0uTbLjP2S++m11j89PKZ5X1vJqljHuxkVbtePcmSI+qv8AsjjxZoc9wp0/ZOr+&#xA;gjHL/S/YfT8mb6h+Zj2X5dQ+Z7uzFpfXqlLGyL8+UjVCNWi/DRefy98yZaisfERuXRYexOPWnTxl&#xA;xRj9UvLr8envfPthZa35q8wrBEWu9U1GUs8jnud2dj2VRufbNUAZy8y+iZcuLSYbPpxwH4D6a8j+&#xA;RdI8paYLa1US3kgBvL5gA8reH+Sg/ZX+O+bjDhEBs+XdqdqZNXk4pbRHKPQft82C/m7dfmPf3txo&#xA;ekabPJoTxx+pNbwlzMTRmBfegB2oKZjao5CeED0u/wDZ7HoscRlyTiMtnYnl8Hmdr+Vv5gXRAj0S&#xA;4Wv+/eEP/JxkzEGnyHo9Rk7d0ceeSPw3+5OYfya1O2t5LzzBq1jpFnB/fsZPXlXen2EopNdqcsmN&#xA;KRvIgODL2kxyIjhhPJI8tqHz/Yjf03+W/k2ygvfKpGv+YWNFu71JVSAAbuIisQqei9/fxlx48YuP&#xA;qk0/ltdrZmOo/dYe6Neryvf9Xkkt7+cnn+8Ro5L2ERMamL6rbutPCkiPlZ1Uz1c3F7OaOBsRN/1p&#xA;foIS6Lz1dCb1bjR9Iuz1KyWEKA/P0RET9+RGY9w+Tky7LjVRyZY+6Z/TbNvLf52aHYuguvK1ragd&#xA;Z9NSOMj5Rso/4nmRj1cRziPg6PW+zOXIPTmlLynZ+39j0P8AT3lT8wdKFhpuuT2NwXEnp28gt7sF&#xA;QfhKsCWTep4ffmVxxyigaec/Kajs7JxzxiUfMcUf7ff8nmWt/kR51/SEr211DqUUh5C6lkKSt/xk&#xA;V+W/yY5iT0c723eo0vtVpeACQMD3AWPhX6kLB+QnnuVqObOAfzSTMR/wiPkRop+TbP2r0g5cZ+H6&#xA;yE4i/IGKygN3r/mGCztY6eo6oAgrtvLK0YX/AIHLPyVbyk4cvawzPDhxSlL8dAChZ0/JDy1qcdpJ&#xA;Fd+YWQBpLuOWOaBSwqAPTeFH9xvT3ORPgwNbybYntXVYzIGOHyog/aCQnerfnX5b0SG0t/J+nQS2&#xA;rqWuY/Ta1EbVAC8QoBJHcVyyWrjH6A4On9mc+cylqZyEum/Ff2sA80fmr5t1u/mmhvZ9Ns5OISyt&#xA;pWVV4qAfiXiTUiuY2TUykedPQ6HsHT4IAGInIfxELtG8iXVzanzB5qum0nQ6hjcT1NzcnssEbVZi&#xA;R+0fxxhhJHFLYI1PasYy8HTx8TL3D6Y/1j+h6H5a8my+aobYS2TaL5FtX9Wx0oEi4vXFP31y3U8v&#xA;Hw2X+bMrHi4+lQ7u95zW9ojSE1LxdVLaUukP6Mfx7+565DDFDEkMKLHFGoSONQAqqooAAOgAzPAe&#xA;OlIyNncldih2KuxV5vrnmDWfOOszeV/K0xt9KtyF1vXk3oD1hgYHcnp7+y7nEnM5Dwx5dS9NpdJi&#xA;0WIajUC8h+jH+mX4+1R8webfKX5Y6SuiaHbpPqpUEwVqeRG0t04oanqF+7iME8sMI4Y8/wAc2ek7&#xA;P1PamTxcprH3/oiP0/eWOaD+W/mzzzdpr3nO8lt7OT4oLb7MrId6RoRxhT6Knw75TDBLIeKZdnqu&#xA;2dPoI+DpYgy6np8T/Efx5PXNA8reX/L9t6GkWUdqtKPIorI/+vI1Wb6TmfDHGPIPHavX5tRK8kjL&#xA;7vgOSa5NxGndEUs7BVHViaAffikAnkpreWjMFWeNmOwAZSSfvwWGRxyHQquFg7FXzt+fHmGS/wDN&#xA;q6Uj1ttKjVeI6etKA7n/AIEqv0ZqtZO513PpHsroxj03iH6sh+wbD9LPfyO8mJpWg/py6j/3Iaqo&#xA;MRI3jtq1QD/jJTmfbjmTo8XDHiPMvP8AtR2kcubwon0Y/tl+zl82N/mp+buorf3egaBPGlqgEc+o&#xA;wsTKX6usbg0UD7JI398p1OqN8MXZ9g+z0DCObMDxdInl5WHm9n5485WcnO31u9U+DTyOp+auWU/d&#xA;mIM0x1L02TsvTTFSxw+QZx5a/P3zDZusWuwpqdt+1MgWGcf8CBG3y4j55k49bIfVu6LW+yeGYvCe&#xA;CXdzH6/xyTvXPI3lb8wdIm8yeTybbU/Uka6hkDL60zAOyOGYqj/FUMvwmu/iLJ4Y5RxQ5uBpe1NR&#xA;2dkGDU+qFCiOg5WO8eR3eayflr59jXk2h3ZHT4U5H7lrmJ+Xn3F6cdtaQ/5SPzU/+Ve+ef8AqxXv&#xA;/Ih/6YPAn3Fl/K+k/wBVh8wiYPys/MGcgJok4JofjKRjf3dlyQ0+Q9GqXbujjzyR+0/cnVh+RHnu&#xA;43uUtrFf2vWmDkD5QiXLI6OZ8nCy+1Wkj9PFP3D9dK+iaD+VWjXMV9qnmt726tmEsUFjDKi+oh5A&#xA;c+L13HWq4YQxR3Mvk16nV9oZomGPAIxltciOR8rH6Ubff85EeZHnY2Om2cMFTxWf1ZXp2qyvEPwy&#xA;R10ugDTi9j8AHrnMnyofoLFdb/NTzrquow3xv2sXgXjHFZM8UXUmrKWbkTWnxdsonqZyN3TtdN2D&#xA;pcUDDh4r/nUSxu91TUr5ma8upbgu7St6jsw5sSWahNKknKjInm7THghj+kAdFCGCaeVYoI2llc0W&#xA;NAWYn2A3wAM5SERZNBnflz8lvOmrlZLmAaVaHrLdVElP8mEfHX/W45k49JOXk6DWe0ulw7RPiS/o&#xA;8vny+Vs2uvI+neRLaKbStAufNWuuhZLqWIyW0LL+16SV37gbt/lDMg4Rj5Dik6PH2pPXyIyZY4MX&#xA;cDUj8T/Z5Jd5avtNu/Mlve/mLDqJ1maT07BNQtjDp0LNuiIpPU/5S07nxyGMgyvJd+fJydbinDAY&#xA;aI4/DAuXDK5n8e+/ue45sng3Yq7FXYqwPz/rupX2oW/kny/Jw1XUV56hdrX/AEW0/aYkdGYf57jM&#xA;bPMk8EeZ+wPQdk6WGOB1WYfu4fSP50v2fjkUo85ebNJ/Lfy9b+W/LqKdVdKqTRjHy+1PL/M7n7I/&#xA;gADXlyjFHhjzczs7QZO0sxz5v7u/n/RHkOv60L+V/wCVk3rDzP5qRp9Rnb1ra0n+JlZt/Wm5dXPU&#xA;KenU79I6fTfxS5tvbnbor8vp9oDYkfdHy+/3c+u5nvHMJ86/mz5b8sF7UN+kNUXY2UDD4D/xbJuE&#xA;+W59sx82pjDbmXe9mdgZ9V6vox956+4dfueSaj+an5k+Z7o2ulGW3DfZtNMjYyU8TIOUv0ggZgS1&#xA;OSZofY9fh7C0OljxZKPnM7fLkti/KL8ztXYT30JRm3El7cKz7+IDSOPpGI0uSXNlL2h0GHaB/wBL&#xA;H+wK7fkH56CkhrNiOiiZqn70Aw/kp+TWPazSf0/l+1CyeWvzf8qD1LdL6GBN+VnKZ4qDuyRs4p/r&#xA;Lg8PLDvbRrezdXseAn+kKPzNfYWY/lf+bvmTWPMNp5f1iOK5+s+oFvFX0pVMUTSfEqjg1eFNgMv0&#xA;+qlKXCXS9uez+DDhlmxEx4a25jcge/r5vOdat5Nd/Mu8tasTfas9up7hGuDGP+BXMSY4shHeXpdN&#xA;MYNDGX8zED/sbfSXme0vP8KX9npDRW1wbYwWzyt6ccSkcCeQrx4pWmbfIDwkB8y0OSP5iMslyHFZ&#xA;rcnr9pfPMH5XXs0/oL5g0ISd1+vqSP8AYqrN+Gaoac98fm+jy7djEX4Wav6n7WTaf/zjvrEwVrvW&#xA;LWKNgDyt0efb25ejXLo6E9S6vN7YYh9OORPnQ/Wm2qflj5K8kaR+m9UtbzzD6TqksYKpEnKvGRkU&#xA;r8PKimrN1G2Tlp4YxxG5OJg7b1WuyeFjlDDY+Puvv+AYl5i/ObXZ2jtfLSLoOkwpwjtoUjLE9zy4&#xA;/D7BaZTPVSO0fSHb6P2bxRuWf97kPU3+v72MXXnvzpdf3+uXzA9VWeRF/wCBUgZSc0z1LtcfZWlh&#xA;yxw/0oS/9N60f+P+5/5HSf1yHGe9yPyuL+bH5BMtN8/edNNYG01m7ULSkbyGVNv8iTmv4ZOOaY5F&#xA;xc3ZOly/Vjj8qPzG71j8tvzQ8869qENpeaSL6yLBLjUoEMXpV/bck+kf9UUPhmbp9RORoiw8j212&#xA;HpNPAyjPhl0id793X72a+cvy80HzPpj2skUdpdg8re+ijX1Eb3px5qRsVJ/HMnLgjMU6Ps3tjNpc&#xA;nECZR6xJ2P6nnU//ADjtBbwvNP5mWGGMcpJZLQKqjxLG4oMxDoa/i+z9r0sPbAyNDDZ/rf8AHVOx&#xA;/JfyU1TN5uiuAtOfoNAlOvjJLTANJD+cyy+0uqHLAR7+L9QStZ/yH0i4eM22pa0Y2K+qSOBptUUe&#xA;2DDbwyF4I95cox7XzRu8eK/x3SRlz+dOjaQ6R+TdAt7S2K0nNxCsUjHtvA5r/sjkjqxH6A0w9msu&#xA;YE6rLKUulGx/sgkl7+eXn+4eUxXEFokmypDCh4f6pk5tv7k5WdZkLnY/ZfRxAsGVd55/KmS+RfPH&#xA;5k3MR1XV9Qgh8s25rc6hfwqAwB3jh9IRPI56Cn9mXYc2Q7k+nzdZ2p2XoYnw8cSc55RiftldgD8e&#xA;bJNOh1b8w9ZtNZvYpLHyfp0on0y0f4ZbuaM/DNIN/g/2h3OWxBymztAcnWZpY+zsUsUSJamYqR6R&#xA;B6Dz/t7g9LzMeXdirsVS7zFrdpoeiXmrXX9zaRlytaFm6Kg92YgDITmIgkuTo9LLPljjjzkXnmkX&#xA;x8m+Tb/zrroE3mPXmEyxNsSZKmCAfyqq/Gw7Db9kZixPhwM5fVJ6PUYvzupjpcO2HFt8vql+gftS&#xA;n8pvJNzr+oyed/Mlbl5ZTJZJIP7yUHeYjpxQiiD29hlemwmR45OZ2/2nHTwGkwbUPVXQd3vPX9r2&#xA;rNi8O8c/Nn83JbWWby/5dm43CVS/1BDuh6GKIj9oftN26Dfpr9Tqa9MXtOwPZ8TAzZxt/DH9J8u4&#xA;dWJ+Xfy4sbbSh5n883LafpLENBZiv1m5J+ID+ZQ//BHr8I3ynHgAHFPYO31nbM5ZPA0g48nU/wAM&#xA;f7Pl73an+b91a2503ybYQ6Bpi7K6or3D9uTseSgkfM/5WMtURtAcITg9noyPHqpHLP8A2I/HwHkg&#xA;fzT1LULjVrAT3MsiyaZZSOrOxUu8IZmpWlSdzkNRIkj3Bv7CwwjjlQA/eT+9JPI1ybbznoc1aBb6&#xA;3DHf7LSKrdPY5XhNTHvc7tSHFpcg/oS+5OdR87ecvLnmrVrax1W4SO3vbiMQSMZoqLKw2SXku47g&#xA;ZZLLOEjR6uFh7M02p08JThGzCO42PLvD0r8tPMFv5u1SPWNU0GK21XTyyw65B+6jlkkQxmJlJBd+&#xA;DE0+Kn+T3zNPPjNkbjq8x21pJaPGcWPKZY584HcgA3fkL93xYJ5bs1b88WtwCyxateMO5/dNKwJ/&#xA;4HMbGP33xLv9bkrsq+/FD7eFkX/OQ3mBzcadoUFx+7VWuby3X+YkCHmfkGIH0+GW66fKLrfZDSDh&#xA;nmI8gfv/AEPGc172yY6T5j17R5A+l6hPZmtSsUjKp/1krxb6Rk45JR5FxtRo8OYVkjGXvD2v8rvz&#xA;B8weamfR9e0v9IWboyyamIR6Oyk8LhaekeVKCn3d82GnzyntIW8P252Rh0n73DPgl/Nvf3x67fgp&#xA;B50/Lj8u49TuHs/NFrpUpc89OfjMsb91+BucYr2INMqy4Md7Sp2HZvbOtOMCWGWQfzuV/MUWNR/l&#xA;jFcScbLzXoUtegkumjc+HwlGOVfl75Sj83aHtsxHqwZh/m3+lkel/wDOPWqXASS71m1SBt+dqrz1&#xA;+Rb0h9OWx0JPMusz+1+OO0ccr/pUP1rrrT/ye8ka41tqEOo6vqNoVZo5EjaEMQGBCn0FYb9+QxMc&#xA;WOVGyUQzdpa7FxQOPHCXdd/76vsUPNf58avcS/V/LEQ02wVQqyyxo05Pei1eNB2AFfngyawn6dg2&#xA;aD2VxxHFqDxz8ia/QSwebz753mkMj69qAZuoS5lRfoVGVR92Y5zT7y72PZWlAoYof6UFRvvOHmrU&#xA;LNrK+1a7urR6c4ZZndW4kEcgSa0IrvgllkRRJZ4uztPjlxwhGMu8AJPlbmuxVkehfl/5r1pPXtrJ&#xA;obIDk9/dEQW6qOrc3pUD/JrlsMEpchs63Vdr6fAalK5fzY7y+Q/SyXR/LvlPT7sW1nFJ528xDpaW&#xA;qldOiPSskpFZAPH7Pjl0YRB29cvsdXqNZqMkeKRGmw98vrPuHT73pOk/lxqOq3cOqed7hLt4P94t&#xA;DtxxsbcdhxGz0/2y2ZkcBkbn8ujzGo7ZhiicekBjf1TP1y/V+OT0JEVFCIAqKAFUCgAHQAZlPOk3&#xA;uW8UOxV2KvPfzCB17zV5f8nL8VrI51LVl7GCGoRW9nIYfOmYuf1SEPiXo+yP8H0+XU/xVwQ955/L&#xA;ZLvzf8maxr+q6EY7hV0wzxWQt1B5o8zM0s3TjRY41+7IarEZEdzk+z3aWLT48lj95Rlfuqo/MvTb&#xA;KztrKzgs7ZBHbW0axQxjoqIOKj7hmYBQoPLZckpyMpbyJssJ/N7zy3lry/8AV7N+OrajyityD8Ua&#xA;AfvJfmK0X3Ne2Y+qzcEduZd77Pdl/ms1yH7uG58z0H63lv5e+XtM0/S5/PnmVeenWTU0y1b7Vzcg&#xA;7EV6gNsPepOy5hYIADjlyer7X1mTJkGjwfXL6j/Nj/Z+N0um/NfzHd6vc3WpCO/0y8olxosw5W3p&#xA;D7Kxg7oy9nG9dzXIHUyJs7jucmPYGCGMRhcJx5TH1X5948uSnf8AlDTtWtJNW8myPdQxjneaLLve&#xA;2viVA/voq9GXfx74yxCQuHy6ssXaM8Mhj1Q4T0mPol/xJ8mR+b/y88xaveadfL9XsbBdMsojd30y&#xA;QIJEgAZaGr1H+rluXBKRB5Cg63s/tjDhjOHqlPxJmognbi+X2pNZ/lrdRXcM1r5k0C6nhdZEghvw&#xA;zsVYGgDIBlY05vaUfm5uTtqJiRLDniCOZh+1PfOfkS2tvNes+ZPMTva+W/rAkhWKjT3kkihvTiAP&#xA;witeTt/tW5cNSMpfT97r+ze1ZS0+PBg9Wbh3vlADqe/3Br8u9evvMv5i6VGsK2WjaTHPLZ6XBUQw&#xA;oImQMaU5OXkBZ23JwYJmeQdw6J7Y0kNLopm+LLkIBkeZ3v5UNgpfl6ov/wA7ru8jFUS51G523AWT&#xA;1EHb/izHBvmv3s+1z4fZUYn+bjHyr9Sj5w1/8vPMfm+7m1b9I2npObZbu1aGWF0hJVX9NkDry67F&#xA;sGWeOczds+ztJrdNpojH4cr9VSsHfpd19zJfLn5PflnrVv8AWdP1q61CMfaWOSJCte0iGLmp+dMu&#xA;x6XHLcG3V6z2i12A8M8cYH3H7DdJ1qnk38vPJVomov5cn1SFSTcThfrfoqorzkjldUC+4XJyxY8Y&#xA;vhtwsHaWt10jAZYwPQfTfkCBbCfOP54T31hPpPly0bTLNuKxXgb05wi0JCJH8MdSKbMdsx8ursVE&#xA;U7zs72YGOYyZ5ccu7mPjfP5c3lZJJJJqTuScwnrGsUproGpeZrW7WPQbi7jupD8MNmZOTn/UT7X3&#xA;ZOEpA+m3E1eHBON5hHh75V95e5aHpeq655ekX80LezjhoBY3E/CC8FftMzqVVO1BsT+0M2UImUf3&#xA;tfpeD1WfHgzD8gZk/wAQFmP7fxTCH/JCa81GddF1/Tbmx5H6sTMXn4+DrGrLUeIP0DMb8pZ2Ip3o&#xA;9pxCA8XFkjPrtt8LKKi/5x28wH++1W0Tw4LI+30hckNDLvDTL2ww9IS+xER/kJpcBkOoeaIoxD/f&#xA;KsSJwHX4meXbbxGH8kBzk1n2rySrgwnfluf+JVJfI35KaGIpNW1570yniqJMJFqOtVtUZ1HuWw+D&#xA;hjzP4+DGPanamexjxcNeVf7o0yfynq35Kx6klhoa2kd9ULbyywyc2Y9knuF5Vr25b9q5dilhuo1b&#xA;q+0NP2oYceXi4etEfbGP6mPatoWpf45s9O/MC+udU0fUpPT0iWB/RtmmJAVJoIwOBPID4T17kVpV&#xA;KB4wMhsHk7HT6qH5SU9HGOPJAeuxcq7xI8/i9d0vR9K0m1W1020itLdf91xKFB9zTqfc5nRiIig8&#xA;dn1GTNLiySMj5ovJNLsVdirsVdirAPJQOp/mH5u1x91tZI9KtT2Ah/vgD/rop+nMXFvklL4PRdp/&#xA;utFgxD+IGZ+PL7Cz1443Kl1DFDySoBo3So998ynngSOS7FD5p883d150/M9tPtnrH9YXTrQ9QqRt&#xA;xd/ly5v8s1GYnJkoe59P7Lxx0Wg45c+HjPvPIfcGU/mHYabr5j8peXbv077yyvpxaQ9FS6AjXkYX&#xA;25TR7gq3XenfLs4EvRHnHo6nsjLPT3qc8fTn/j/m7nmP5p/U8beGZJjC6MsysUaMghgwNCpHWtcw&#xA;Ke1EgRYOz0JZbT8uLWJljS588XUXNjJ8UenRSrsvHo0zKd69Pl9rK2xD+n9zzhjLtKR34dLE/HIR&#xA;/vfx7pV5w8uW/nfWI7KNJ4PMMNhbzrf8WeylEkfMxzcRSBq14t0PTwy7Lj8Q1/FXwdT2drJaHEZE&#xA;xOEzkOHlIUasfzvMJNon5PaxpNnPrOt6YdTuLY/6HodvIjeq388zA/3a/wAqVY/LK4aUxFyF+Tm6&#xA;n2ixZpDFinwCXOZHLyHn5nYL/PHnrzHo3ma2klQS6fqem2k97oV0rG3o6Ukj9KQVjIZT03r1r0w5&#xA;s0oy8iBsjsvsvBmwEDacMkhGcfq2Oxsc/wAUn/lS38reXvLWt+ftFMkdvd2pS0s5x8VvMGKtCHP2&#xA;1abhQ5bjEYxMw6/Xz1Goz49HloyjLcj+Id9dDw2xP8vEl0HyX5l85S1WeSH9H6ZIftGSVgHcV60c&#xA;of8AYnKMHphKfwdv2uRqNVh0o5A8cvcOX2X8w84t7a5uZBFbxPNIeiRqWb7hXMQC3pZzjEXI0GY+&#xA;Vvy4/Mme9iutNs7jS5ENVvJ2a14++9JCP9VTl+PBkJsCnTa7tnQxiYzlGfkPV+z7Xs2va55e0ryp&#xA;+ifPWpwahdyxrHewwDhLJyPJWESNzFKD4th326ZsJzjGNTNvEaTS5suo8TSQlCINxJ5D4nb4bvN0&#xA;/L/8rNccHQvNn1J5D8Nteqpap/ZUSfV2P45ieBil9Mnpz2t2hg/vsHF5x/ZxfoTW2/5xyYsGuNeH&#xA;p+EVtUkf6xl2+45MaDzcSftl/NxfOX7Ebqf5bfll5J05dT1xLzVfi4rFWvJqV2SP0gB/rvTJSwY8&#xA;YuVlowdta/XT8PFwY/x3m/sCQTfnTpWmWstt5S8uQaY0ilRdNwDezMka/ER/lOcqOrAFQjTsI+zW&#xA;TLIS1OUzrpv95/U8xv8AUb/ULlrm+uJLq4c1aWVi7Gvucw5SJ3L1OLDDHHhgBEeSHBINRsR0OBtT&#xA;aw83+atP4iz1e8gVaUjWeTht0+CvE/dlkcshyJcPL2dp8n1Y4H4BUttB83eY7uS7gsbvUJ7hi8ty&#xA;I2ZWZjuWkI4j78RCczdEsZ6rTaaIiZRgB0v9DLLL8ldUggF75o1K00CxH2/VkWSXbsACI6n/AFyf&#xA;bLxpCN5ERDp8vtLjkeHTwlll5Ch+v7GQeXW8uWFx9X/LzQZvMGrRni2vXwK28TeIZggFPYKT4nLY&#xA;cI/uxxHvLrtYM+QcWtyjDj/1OP1H7/0/Bm3l38vrwarF5h82X51fXIt7aMfDa21e0SbVI8aDxpXf&#xA;MiGA3xSNydHrO14+GcOnj4eI8/50vefx8tmb5kuidirsVdirsVdirAvyWBk8p3F+ftalqF1dM3jy&#xA;YJ4n+TMXSfTfeXoPaXbUCH8yEY/j5s9zKefQuq3n1LS7y9pX6tBJNT/jGhb+GRkaBLbgx8eSMf5x&#xA;A+b57/I22SbzrNqNxuunWc9yXPXkxEZO/wDkyNmr0Y9d9wfRvaiZjpRCP8cgP0/oDGYNI8463qsu&#xA;qWGn3st1PO1z9Zhjk+GR358hKAANz1rlIjORsAu0lqNNgxjHOUBECqJHLlyeu+WPKV7quo2mr+bt&#xA;OjtPMGlUlE/rQ0vFVaRNdRIzlHjfiedN+46ZnY8RkbmPUPt97x2u7QjihLHppmWHJtVH0d/CTVgi&#xA;9mKH8u9N1TzlLp2t+ZfV8xXczvcWlrazNQ0MjEyy8EVQo22O3TKfAEp0Zer3O3/lieLTCeLDWGIF&#xA;GUh7uQsvW/Nvm/RPI+iQSXKtK5Ahs7VCPUlMagVJOwCinJszsuUY4vH9n9n5ddlIjt1J6C/xsGA6&#xA;b/zkVbyXqpqOjmCzY0aaGb1XQePAonL78xY67fcPQZvY4iNwyXLuIr9JZl518qaX5o0qHWNPsbPU&#xA;9SWJDYS3JmEUkDnnxrDJCejFlr0PzzIzYxMWACXS9ma/JpchxTlOEL9XDVg/EH4sb88aJc6zLpvk&#xA;PQo0tNI01Uudau0HGCAUJRfiP2qFn4liTUEnYnKc0OKoR5Dm7PsvUxwCeszHiyT2gOsvxyv3+5A+&#xA;c9V87eTjDbaBZQzeS4LdI7X90tzE3wgyPOy/EGLkmtQp69a5HLKeP6R6HI7N0+l1tyzSI1JkSd+E&#xA;+Qj5V8QxmD8+fNtvBHFBZadEFarcIXUMOw4rIAPoykayY6B2cvZXTSJJlkPxH6kh1n80PO2panJf&#xA;jVLiyD0CWtpLJFAgApsnLfxqcrnqJk3dOw03YelxYxDgjLzkAT82OX1/e6hdyXl9O9zdSkGSeViz&#xA;tQACpPgBTKTIk2XZ4sUccRGAEYjoEZoXljX9euBBpNjLdtWjOi0jX/XkNEX6TkoY5S5Bo1Wuw6cX&#xA;kkI/f8BzeteXPM2g/ltoMlreau2uapNLR9Ns5BJDbFAQwBY0XfZj32+HauZ2PJHDGibLyGs0WbtP&#xA;MJRh4WMD6pCjL8dPvYtqf56+d7i/nmspIrOzeghtfSjl4Ady7ryZj37eAGUy1kydna4PZbSxgBIG&#xA;Uupsi/gjbD82fK13aMPM/lW0vL5fs3NvDEOfjy5jkp+RNfDJR1MSPVEW0ZewNRCX+D5pRh3En9Ca&#xA;WuvfkDeRwPc6X9Tmk+GSJknpH7sYmKke4yYngPMOLk0vbECRGfEB5x3+aaaHJ+QV9cXEUFvbQPAS&#xA;a3pkjR1T9qMyuVI706+2Th4BcXVDtjGASZG/5tGvfQ/Yy/RP+VayS/V/L36Ha+KFoktxA0h9yE+M&#xA;0PXL4eH/AA8Num1P54DizeLwX14q/UwzUvM/5jT+a08tarqFr5XW52tLuCAzJcCtAI5JCfiP+x8O&#xA;uY8smQy4SeF3eHQ6KOn8fHCWfh5gmuH3gftZNp/5R+XEuRe61Nc+YL8b+tqErSKPlGNqezVy6Olj&#xA;zPqPm6rN7QZzHhxCOGHdAV9v6qZpb29vbQpBbxJDBGOMcUahUUeAUUAzIAp0k5mRuRslUwsXYq7F&#xA;XYq7FXYq7FXnv5P3X1T8roboqXEH1uXgDQtwkdqVPjTMXSmsV+96P2ihx68x7+EfYEm1H/nIjQ0i&#xA;/wBx2mXMs3MD/SOEaenUVPws5rToKZXLXR6BzcPsflJ9c4gV0s7/ACDeqfmHY+aL7VLLRZJJLFPL&#xA;momQOGjrPIqEfC1KlAlK+5pjLOJkgcuEowdkT0sITygCfj4/PYX9/wChi35EzvFeeYWhJFyunNJD&#xA;QVNUbtse5GU6M7n3O29qYgxxX9PibsK1Hzx5w1LkLzWLuVG+1GJWSP8A4BCq/hmNLNM8yXeYey9N&#xA;i+nHEfDf5807/L4vJo3nKJG/0htJeWvcpG4Mn4HLMHKXucHtfbLpyeXigfMbMz/JXzFd63q6w6nZ&#xA;/XLvS7Zltta/3bHE5C+jM1fjB/YJ3G/atMjSTMjuOXV0ntLo44Md45cMZy3h0J7x3efRDf8AORVl&#xA;ejUtJviCbIwvArdllDciD4FlI+7BrgbB6NvsdljwTh/Fd/B49mA9m+q/yws7yx8gaPBfArOsLSEN&#xA;sVSSRpEBHaiMM3WnBGMW+S9uZI5NZkMOV/cAD9rBPJ/5zQ6r5mu9N1qK3tdF1EslnVAArMaBZyah&#xA;vUU0YnavtmNi1XFKpci7/tH2bOLBGeIyllhz/wCO+7ohvM2m+bvyxvzqnlyd5/K88nKSxlrJFCzH&#xA;7Dr+yp/ZdaHsfcZIzwm4/S26LNpu1IeHnFZwPqGxPmP0g+8eRWfzi0K/1iOTVfKWnvprACflHHPc&#xA;Bqmsiu6KpFD9kr/ssh+aiTvEU5X+hzLjxEY88+PpuRH3UD9v2Mo82R+SNP0uy1nS/Jtvrei3CNJJ&#xA;f2pESxCoHxqqM3z5Up065dl4AARGw6rs86rJkliyaiWLKD9Mt792/wB3N51dfmNYxzudI8raPZw7&#xA;CB5rf6xOlO/NiEJ/2GYhzjpEPSY+xpkDxM2WR61LhHy5/aznyX+fFgLZ7XzJbramIVt57KM+mw/k&#xA;MQJ4nwI2+XfJxawcpOh7S9lZ8XFgPFfMSO/vtkthc/lP+YDyxra2819Ul0kj+r3TAftB0Kuw+TGn&#xA;fLonFl97rMsO0ez6PFIR9/FH9Q+SWap/zj55XuCW0+9urFj0RuM8Y+QIR/8AhshLQxPI05WD2u1E&#xA;frjGX2H9X2Mcu/8AnHbU4g7Q61btGoJ5yxPFsPGhkoKZUdCe92WP2wxnnjlfkb/UlifkpKAzTeZd&#xA;KjVRWolLfOteNMh+U/pByj7TDphyfJoflLoEQre+d9LgXenBo3JAHYGVK4/lo9ZBP+iDMfo0+Q/M&#xA;f70ozTNK/KDy7qFveNrt3rOo20qyW8FlGQpdDUfZWh3H+/MMY4oG7JLTnz9pamBj4cccJCiZH8f7&#xA;llXmA+b/AMw7Mabb+XxpOjs6SfpLVNrhaGvKGIfErEbdwR3Fcvnx5RVUPN1Gk/LdnS8SWXxMn82H&#xA;0/E/2e56hbRGG3ihZ2laNFQyv9piopyNO5zMAeVnLikTVWqYWLsVdirsVdirsVdirsVeeflPbh/K&#xA;ms6G/wALWWoXtky9KA07dt2OYmmHpMfMvSdvzrUY8o/ihCT5wkjeORo3HF0JVlPYjYjNS+lggiwy&#xA;z8q7uKHzpaW0zcbfUklsJvcXEZRR/wAHxy/TH1gd+zqO3sZlpZSHOFSH+af1Wmv5OXh0b8xRp94A&#xA;jXST6fMrdA4IYKa+LxccnpTw5KPucT2jx+NouOP8NTHu/sKG1P8AKjVbPUbmCXUdMs4Y3f0/rV7F&#xA;G3p8iELKasOS774JaYg8x82zB2/jnAEQySJH8MCd+qdeQPLEGh+ZoJbjzFo13DdI1nc2NtcvPJKl&#xA;yvD01Cx0J5EHY9ssw4+GX1RcLtbXHPgIjiyxMfUJSjQHD15pvrGlaF5NtrDQoPM66PcW9wuoXcr2&#xA;k80tzIGPpcvSHH0kUU41oT13ycoxx1HirrycLT58utlLMcPiAx4B6ogRHXn1Pe9Dsdb8m+ddFkjM&#xA;kV/YPN9VdJkaIPMEDjgslHrQ1Wm/3ZlicMg7w85l02p0WUGjCdcW2+3Letveg7H8p/y80q5GoLpy&#xA;8oP3ga4lkkjTjvyKyMV2/wArIjTY47035e39bljwcfPuABPyFrNU/NPQILS4vtPk+vWWm3VvBqU8&#xA;Q5IEuOS1ib9rgVB8D0BxlqYgWN6Tg7CzSkITHDKcZGIP9GufdbyH8y/y5OjONd0Qi68tXpEkUkXx&#xA;CD1N1Ukf7rNfgb6Dv1wNRg4fVH6S9l2L2z4w8HL6c8dt+tfp7x8fdLfyy/Niyv7MeW/NjxmqelBe&#xA;T8fRkiC09OcsacqDZj9rvv1v0+pBHDJ0/bfYEscvH0995A5g98fxt7uRX59/JaWFDrHlH/TdOkHq&#xA;GxQ+o6qRUNC1T6qHsPtfPIZtJ1huHL7K9pRI+FqfTMbcXL/Tdx+z3Md/L/8AM/U/JourKS2+u2Mp&#xA;LfVHcxGOYbclPFqV6MKf21YNQce3MOx7W7Dx63hkDwzHXnY/HJlUTflH500pr7UTF5Z1pWVLj0nE&#xA;as7miuqEcHQn7RoCO5pvlw8LILPpLqZDtHRZOCF58XS9/h3g93Q9B0SrWPyE80QD1tHubfVrZgGi&#xA;4sIZGUioNHPp/wDJTIS0Uhy3cvT+1enltlEscvmPs3+xis/kPz5p0wc6LfJJEeSywRO/ErvyDxcg&#xA;KeNcoOGY6F20e1dJkFeJCj3kD7CmKecPzTsL2C8mudR9SzXgFuEkKFWNaSKwo1a9W36b9Mn4uUG9&#xA;3GPZ3Z+SJiBjqXcR9nd8Ga+V/wA2Nf1aWbS/MuiSajp1/WF2s7eTkiyDiysgrzWh7HkPfMjHqZS2&#xA;kLBdJruwMOEDJgyCE4b+qQ6efQ/Z7lDVPIGi+SdWN1q+mDWfKN3IF+t1kFxZMxovPgyh036039js&#xA;wlhGM2RcfuZ4O1suux8OOfh6iI5bcM/dfI/j3dKsvy9/L1o47m20azlilVXikKCRWVgGVhy5AgjM&#xA;wYMfMAPMZe19ZZjLJMEfBPbHSNJ08cbCygtBSlIIkiFP9gBlgiByDgZdRkyfXKUveSUXkml2KuxV&#xA;2KuxV2KuxV2KuxV2KvP/ACwf0R+aPmXR2+GLVootVtK7VI+CanuXc/8AA5i4/TlkO/d6LXfvtBhy&#xA;9cZMD+j7PveJ/mZox0jzxq1sF4xSTG4g8OE/7wU9lLFfozXaiHDMh7nsTU+NpIS6gUfhsxy0uZrS&#xA;6huoG4TwOssTeDoQyn7xlQNG3ZZICcTE8iKZn+YIa18x2Hm7Sv3dtrKx6naOP913KEeslf5klFT8&#xA;8yM+0hMdd3SdkevBLTZN5Y7gfOPQ/EJx+aen2/mDR9O8/wClIDDdxpBq8a7mKdPhUt8vsV9l8cnq&#xA;Y8QGQfFwuwsx0+Sejyc4m4eY/G/z7km0CNfKfl4+aJwBrOoh4PL0LDeNacZrwg/yg8Y/ffplcPRH&#xA;i6nl+tztWfzeb8uP7qFHIe/uh+ktaP5p0bWNJi8u+cWk9G3LfovW0BkntS3VJF6yRHw6j7uLHIJD&#xA;hn8D3LqNDlw5Dm01WfqhyEvMd0vx75j5b/LK4uvK2qaXJqEF3pEt1bX1pqNi3r81jDiZVjHxCXhQ&#xA;cSOuZGPT3Ei9nTa3tsQ1EMgiY5BGUTGW3OuHf+baTahefmfLrVs3l/RtU0vTdPUwaZaGCYIIq1Jn&#xA;9QcHaSlX5VyuRyX6QQByc3Dj0AxHxsmPJOe8jxDn/RrcAdKZvpflTRbry/qcPmKzttCvr9rWXVLG&#xA;1uowh9CUtG/CrCD1Wk4EA08KHMiOMGJ4hwk8/wAdHRZ9fljmgcEpZYQ4hGUonqNxf8XDV/sYXqn5&#xA;l+cdA8xPY6hpcdtoscYtl8uyIPQNqPhHCSh5ErtzFVPhTbKJaicZURt3O7wdi6bUYeOEzLLd+J14&#xA;vd+jn5oS/wDIejeaLaXWPIUvNlHO88vzMFuIT39Kp+JfDf5HtkZYRMXD5N2LtXLpZDFrB7sg+k+/&#xA;z/FdV3kP80dW8libRdYs5p7NG+C3cmOa3YkcgA4+yRU8fH5nHDqDj2IR2r2Fj1tZcUgJd/MS+X3s&#xA;w/Mlvy81jy9D5mSza+glnFvcapp7CO4hYqSDLG68X3oCJKHcUO+ZGfw5R4qvzDpuxhrcOY4DLhIF&#xA;iM94n3Hp8Hl3+D7O/avl/WbW+LfYs7oixuq9acZj6TH/AFJDmF4QP0m/seq/lGWP++xyj5x9cfs3&#xA;HxiyTy9q/wCb3ku2exg0i4msyaxxT28s8UbE1JjeIinLw5U+nLoSy4xVOs1en7N1shMziJeUgCfe&#xA;C9c8kec9Q8z6LdSvpzabqtr8BinV/RZ2UlGUkK3HkPiXqPHM7DlMxyovH9p9mw0uWIE+PHLuq/Ni&#xA;/l3zn+bWvPfQ2tposN1ps31e8trgXKSI29DQSMKGhoa9spx5csroR2drrOzeztOImUspjMWCOGj9&#xA;icFfzun+HloVoO7qLlj9APqZZ++P81wgeyo/6tL/AEv7FKf8vfOOuRmHzP5qkeyfaWw0+JIEZepU&#xA;vQch/rIcBwTl9Uvkzj2vpsBvT4Rxfzpm/s/UWd2FlbWFjb2NsvC2tYkggSpNEjUKoqdzQDMmIoUH&#xA;QZcsskzOX1SNn3lXwtbsVdirsVdirsVdirsVdirsVdirz/8AM9JdIvtD86W6lho8/oaiF6taXB4N&#xA;X/VJoPdsxdR6SJ9z0XYZGaGTSn/KRuP9aP4+xj/59+W1vtKsfNFkBILYCG5kTcNbynlE9R2V2p/s&#xA;sq1uOwJB2PsprfDyS08tuLce8cx8vueF5rXvWd+Sbm08w6JP5H1GVYppXNz5euX2Ed1Q8oSf5Zf1&#xA;+9MycREhwH4Og7ThLT5Rq4CwNsg749/vj+Nm/IvmyTynql75e8x27Pol4zW+qWcgJ9J/smQL8tmp&#xA;1G46DHDl4CYy5dUdqaAavHHNgP72O8SOvl+pG/m/5Z1ddQTzBbyLfeW5ooo9Pnt6GK3hUUjhotQq&#xA;+B6GvjktVjN8XOLT7Pa3GYeCRw5gTxA85Hqfx9zC/Lfl2+1/U1sbTiihTJc3Mm0UEKCryyN2VR/T&#xA;MfHAyNB3et1kNPj45e4DqT0AejeXfM1q76t5W8ss9tpVtpV41ldKTHcXN9EFk+tO60YV9MhR2X7s&#xA;y4ZBvGPKj8+95rWaGQENRnqWQ5YcQ5xjA2OH7d/N59N5184zRelLrl+8dKFGuZiCOu/xb/TmKcs+&#xA;8vRR7M00TYxwv+qP1Jv5GYz6T5wt3IZpNJe4PKpJMM0bVr/sssw7iXucPtQcOTAe7LXziVHQfOdw&#xA;1rFoOt2h13RieEFq1frMDNsDayirqf8AJ6Hpghl24TuPxyZ6rs0cRzYpeFl6n+E/1hy+PNn9toHl&#xA;n8slk8z3M81zf3MZGh6VOqxzp6ifF6wUkVWvFm6D5kDMkQjh9R59A89PV5+1KwRAjCJ9chuNv5vv&#xA;6fqY/oXmvUtfF9f+cIbXUfL1irSXMs8KiZXkr6dvaSx+m4d26DlQLucqhkMrM94j8bOx1Wghp+GG&#xA;mMoZpcqO23OUwbFD7SnnlTzZ+T1pY6lYM19Y6fqiBbrT7xTPCCAfijaISyBt+tfDwy3HkxAEbgFw&#xA;NfoO0pzhP0Snj5SjsfjdB5pNoNveeaRo/ly5OpwXMyx2M/B4yyvv8auqkcP2jSm1emYZhcqju9RH&#xA;Vyhp/FzjgMR6hYPyrv6PffMGoXHknyxonl7QAlxq91JFY2CzAsGNQZZXUHpU7+HLwGbScvDiIx5v&#xA;nukwjXZ8mbNtjiDKVfYPx3NNY/nXMPTbUdFtVPWaFJncfJZE441m74qMvZcd+DNLyJiPuKbeSPJT&#xA;eXP0hdXd++patqsiy3926hFJTlxCoCaAcz/Zk8OLgsk2S4nafaf5nhjGIhjxioj9vwZPlzqnYq7F&#xA;XYq7FXYq7FXYq7FXYq7FXYq7FXYqhdU0201TTrnTrxOdrdxtFKvfiwpUeBHUHIyiCKLbgzSxTE4/&#xA;VE2wTyHPxg1L8uvMQ9a409Gjty+wudPkFFK/6oansKeBzGwnnjl0+56DtWO8Nbh2jPc/0Zj9f45v&#xA;D/O/lG98ra/Ppk9Whrzs7giglhJ+Fvn2b3zXZsRhKnuuzO0I6vCMg59R3H8ckhR2Rg6EqykFWBoQ&#xA;R0IOVOwIvYvRIr3SvzBs4bPUpo7DzlAojtdQkosN8qiixTH9mXwbv+GZYIyijtP73nJYsnZ0jLGD&#xA;PTHnHrDzH9FB6F5v82+Qb6bRtStTLYkkXWkXY+Bg3Vo2owHLxFVPgcjDLLEaPLubtV2fpu0IDLCV&#xA;T6Tjz+P4sMwib8u/M+g3GleWtRj8rXeoSiW9tLhOPrED4YebMB6fLcKjf7HL/wB3ONRPDbpZDW6X&#xA;MMmeBzxgKiR086rn5kfFR8m/lL5w8v8AnCwvpkt7vTQZEuZoJhT0pomjJKv6bH7ddgcGLTTjMHo2&#xA;dpdv6bUaaUAZRntQI6gg9LYgfye/MMzvHHpDMqkhZGlgQEA0r8Ugyj8rk7nc/wCiLRVZn9kv1Mw8&#xA;nflhqvl5NUuvMt9Z6XY6hp1xp7l5VLL64X4t6R/Dxr9vL8WnMbMiACKdL2j25j1BhHBGeScMkZ8u&#xA;77fsS/8Axb+XvklGTyjanWdboVOsXY/doSKH0xRD/wACBX+Y5HxceP6Nz3uT/J+t1xvUy8PF/Mjz&#xA;Pv8A237gxiDTda81XE/mTzHfNbaUjUudVnGxpWkNtHtzfwRdh3ykRM/VI7d7tJZsWkAwYI8WTpEf&#xA;7qR6DzKB8z+ZYtRWDTdMg+paBYE/UrTYuzHZp52H2pX7+HQZHJkvYbRDkaHRHHc8h4s0/qP+9j3R&#xA;H280gyp2D3n8lfIqaRpz+atXAiuLiIm0ElAIbYirSsT0Lj7l+ebPSYeEcRfP/aXtQ5p/l8e4B3rr&#xA;Lu+H3+5NfJgk83eb7vzpOpGlWIax8vowpyAJEs9D3NSPpp+zk8XrmZ9BsHE7SrR6aOlH95L1ZP0R&#xA;/HdfV6NmW807FXYq7FXYq7FXYq7FXYq7FXYq7FXYq7FXYq7FXYqw78wfKl9qCWuvaE3peZdHPqWb&#xA;jb1o+rwP4ht6V9x3OY+fGT6o/UHddka+GO8ObfBk5+R/nfj9CWXEGgfmp5SKMPqes2ZKujA+raXI&#xA;2ZWU0Jjfj9P+sNoERzQ8/ucqEs3ZOpv6scvlKP6x+Ni+f9e0HVNC1SbTNThMN1Cdx1VlPR0P7St2&#xA;OaycDE0X0PSavHqMYyYzcT+KKX5ByWZ6X+YZlsY9J812S69pcY4wySHjeQA/76n+1t4N8q0zIjn2&#xA;qQ4h9rpM/Y9TOTTy8LJ1/my98VdvJfk7WT6nlnzJDbyPuNN1gfVpVJ/ZEwBRz8h9OHwoS+mXzax2&#xA;lqcO2fESP52P1D5cwqxeQvzb0hQdNS6WA/Yl0+7BRh4gRSA/hhGHLHl9hYy7V7OzfXw3/Tj+sKh0&#xA;/wDPKcGItrNF+E1mlQGu32uQ5Y8OY/zmPjdkx3/dfIfqQN1+XXmkymfzJf2mlk7tLqV4jSkddkQy&#xA;yE+1MicEv4iB7y3w7Y09VgjLJ/Uga+2go+r+X+hUa3WTzPqKGqvOpttPUjofTr60tPAlQcFwj/SP&#xA;2M+HWaj6qwQ8vVP5/TH7SkmveZNX1y4SXUJuaxDhbW6ARwwp/JFGtFUbdvpyueQy5ufpdFjwCoDn&#xA;zPMn3nqleQcp6l+Uf5WSaxPHrutQldIiIa1t3H+9Lg7Eg/7qH/DfKuZum0/F6jyeT9oO3RhBw4j+&#xA;8PM/zf2/czrzbqt55x1k+SdAlKWERB8xanHuscYP+86N0LMdiPo6BsycsjkPBHl1dD2fgjo8X5rM&#xA;PWf7uPef5x8vx3PQNO06z02wgsLKMQ2tsgjhjHQKv+e+ZUYgCg89mzSyzM5G5S5ojC1OxV2KuxV2&#xA;KuxV2KuxV2KuxV2KuxV2KuxV2KuxV2KuxVgvmzybqttqh81+UHEGtqP9NsTtDeoNyrioAf37+x3z&#xA;Gy4iDxQ5/e7/AEHaWOWP8vqd8X8MusP2fjkhS/k/80NKexvoWsddswRJbPRbu1kGzceQHOOvXb5g&#xA;GmR9GYUdpNtansvJxwPHil1/hkP0H8bh4z50/LjzF5UmLXUX1jTyaRahCCYj4B/5G9j9BOYGXBKH&#xA;Pk9t2b2zg1Y9Jqf808/h3sVyh2zsVVre9vLaptp5Ia9fTdkr9xGEEhrnijL6gCiJdc1uZeM2oXMi&#xA;040eaRhQdtz0wmZ72EdLijyjEfAIIkk1O5PU5FvaxVVtrW5urhLe1iee4lPGOGNS7sfBVFScIF8m&#xA;E5xgDKRoDqXsv5f/AJICIpq3m0KFQepHplRQU3rcN0p/kD6fDM/BpOs/k8V2t7T3ePTf6b/if1/L&#xA;vZFrHmzU/NV2/lnyOfTtE/d6n5gUUhgj6FLcinJqbCn+x2+IXSyGZ4YfN1un0GPSR8fV/Vzjj6yP&#xA;9Ly/B7mYeVfK2leWdIj03TkIQHnNM325ZCAGdz4mn0ZfjxiAoOm1+vyarIck/gOgHcE4yxwnYq7F&#xA;XYq7FXYq7FXYq7FXYq7FXYq7FXYq7FXYq7FXYq7FXYqxbzb+X2l6/Kl/DI+ma7BQ22q23wyAjoHA&#xA;K8x9NffKcuAS35S73bdn9r5NOOAjjxHnA8vh3JD/AIz80eWVNl55003unEFF12xT1ImXp+/i241+&#xA;Q+RyrxZQ2mLHe7D+TdPqvVpJ8M/5kjR/zT+Pel97+WP5becoWvvLN8lpOwq31Qh4wT/vy2YqyfIc&#xA;cgdPjybxLkY+29dojwZ4mQ/pc/hLr9rCdY/IfzvZEtZCDUo+3oyCN6e6y8B9zHMeWjmOW7vdP7Va&#xA;Wf1cUD5i/utjN1+X3ni1YiXQr006mOF5Rt7xhhlJwTHQu0x9r6SXLJD5gfehYvKHmyVuMWi37t1o&#xA;ttMTT6FweFLuLbLtDTjnkh/ph+tONP8Ayl/MG+YcNIkgQ9XuGSED5h2DfcMnHTZD0cLN7QaPHzmD&#xA;7rP3M20L/nHe4JWTXtTWNBu1vZgsxH/GWQAD/gDmTDQ/zi6LVe2EeWGF+cv1D9bJ49b/ACy8iL9R&#xA;0SAX2ryfALeyH1m6kb+V5d+O/wCzX5Ll3Hjx7R3Lqzpdfr/XlPDj75emI9w/T9rX+H/PHndg/mWQ&#xA;6D5eajDRbZq3Ey9QJ5O3y/4UHfHgnk+r0x7l/N6TQ7YB4ub+efpH9Ufj3ln2k6RpukWMdhptulra&#xA;RD4IoxQV7k9yT3J3zJjERFB5/UaieaZnM8Uii8k0uxV2KuxV2KuxV2KuxV2KuxV2KuxV2KuxV2Ku&#xA;xV2KuxV2KuxV2KuxVplVlKsAVIoQdwQcVBYhrH5U+T9RnN3BBJpV/XkLvT3MDg+PEVT/AIWuY89N&#xA;A78j5O603b2pxjhJGSHdMX+37UAPKf5n6YaaT5rS/hH2YNUh5H5NMvqSH8Mj4WQcpX72/wDlDQZf&#xA;7zAYHvgf0bBcNT/Oe3IWXR9Kvabc4Jni+n94/wDDHizDoEeB2XLlkyx94B+4NnXfzgpt5Zsa9v8A&#xA;S1/5qw8eX+aPmv5Xs3/Vp/6X9i0j8674gFtH0mPuyiWaQfQfUQ/hg/fHuCf9a4f6rkPwA/QVh/K/&#xA;VdV381eZ73U4zu9nb0tbc+zIvIEfIDH8uZfVIlP8uY8X+L4YQPefVL8fNlWg+UvLegR8NIsIrUkU&#xA;aUDlKw/ypG5OfpOXQxRjyDqdX2hn1BvJIy+75ck3yxw3Yq7FXYq7FXYq7FXYq7FXYq7FXYq7FXYq&#xA;7FXYq7FXYq7FXYq//9k=</xmpGImg:image>
               </rdf:li>
            </rdf:Alt>
         </xmp:Thumbnails>
      </rdf:Description>
      <rdf:Description rdf:about=""
            xmlns:xmpMM="http://ns.adobe.com/xap/1.0/mm/"
            xmlns:stRef="http://ns.adobe.com/xap/1.0/sType/ResourceRef#"
            xmlns:stEvt="http://ns.adobe.com/xap/1.0/sType/ResourceEvent#">
         <xmpMM:DocumentID>xmp.did:753A0BE6ED2068118C14AA67A7D64CFF</xmpMM:DocumentID>
         <xmpMM:InstanceID>xmp.iid:753A0BE6ED2068118C14AA67A7D64CFF</xmpMM:InstanceID>
         <xmpMM:DerivedFrom rdf:parseType="Resource">
            <stRef:instanceID>uuid:0D7A0E4E642CDD11A596E91009E71A2B</stRef:instanceID>
            <stRef:documentID>uuid:0C7A0E4E642CDD11A596E91009E71A2B</stRef:documentID>
            <stRef:originalDocumentID>uuid:0C7A0E4E642CDD11A596E91009E71A2B</stRef:originalDocumentID>
         </xmpMM:DerivedFrom>
         <xmpMM:OriginalDocumentID>uuid:0C7A0E4E642CDD11A596E91009E71A2B</xmpMM:OriginalDocumentID>
         <xmpMM:History>
            <rdf:Seq>
               <rdf:li rdf:parseType="Resource">
                  <stEvt:action>saved</stEvt:action>
                  <stEvt:instanceID>xmp.iid:753A0BE6ED2068118C14AA67A7D64CFF</stEvt:instanceID>
                  <stEvt:when>2014-01-25T15:53:39-07:00</stEvt:when>
                  <stEvt:softwareAgent>Adobe Illustrator CS6 (Macintosh)</stEvt:softwareAgent>
                  <stEvt:changed>/</stEvt:changed>
               </rdf:li>
            </rdf:Seq>
         </xmpMM:History>
      </rdf:Description>
      <rdf:Description rdf:about=""
            xmlns:illustrator="http://ns.adobe.com/illustrator/1.0/">
         <illustrator:StartupProfile>Web</illustrator:StartupProfile>
      </rdf:Description>
      <rdf:Description rdf:about=""
            xmlns:xmpTPg="http://ns.adobe.com/xap/1.0/t/pg/"
            xmlns:stDim="http://ns.adobe.com/xap/1.0/sType/Dimensions#"
            xmlns:xmpG="http://ns.adobe.com/xap/1.0/g/">
         <xmpTPg:MaxPageSize rdf:parseType="Resource">
            <stDim:w>8.089159</stDim:w>
            <stDim:h>5.995470</stDim:h>
            <stDim:unit>Inches</stDim:unit>
         </xmpTPg:MaxPageSize>
         <xmpTPg:NPages>1</xmpTPg:NPages>
         <xmpTPg:HasVisibleTransparency>False</xmpTPg:HasVisibleTransparency>
         <xmpTPg:HasVisibleOverprint>False</xmpTPg:HasVisibleOverprint>
         <xmpTPg:PlateNames>
            <rdf:Seq>
               <rdf:li>Cyan</rdf:li>
               <rdf:li>Magenta</rdf:li>
               <rdf:li>Yellow</rdf:li>
               <rdf:li>Black</rdf:li>
            </rdf:Seq>
         </xmpTPg:PlateNames>
         <xmpTPg:SwatchGroups>
            <rdf:Seq>
               <rdf:li rdf:parseType="Resource">
                  <xmpG:groupName>Default Swatch Group</xmpG:groupName>
                  <xmpG:groupType>0</xmpG:groupType>
               </rdf:li>
            </rdf:Seq>
         </xmpTPg:SwatchGroups>
      </rdf:Description>
   </rdf:RDF>
</x:xmpmeta>
                                                                                                    
                                                                                                    
                                                                                                    
                                                                                                    
                                                                                                    
                                                                                                    
                                                                                                    
                                                                                                    
                                                                                                    
                                                                                                    
                                                                                                    
                                                                                                    
                                                                                                    
                                                                                                    
                                                                                                    
                                                                                                    
                                                                                                    
                                                                                                    
                                                                                                    
                                                                                                    
                           
<?xpacket end="w"?>
	</metadata>
<g>
	<path fill="#FFFFFF" d="M535.947,144.76c-19.447,17.004-41.541,27.967-65.601,35.945c-22.903,7.597-46.53,11.104-70.266,10.139
		c-2.993-0.122-4.933-5.273-7.986-7.093c-2.508-1.495-6.178-0.976-9.441-1.461c-1.244-0.191-1.428-2.603-0.61-2.862
		c5.05-1.644,10.459-1.02,15.898-1.905c2.441-0.41,2.617-3.567,4.369-4.352c7.126-3.176,15.096-2.052,22.823-2.801
		c1.933-0.173,0.949-3.629,2.263-4.221c2.852-1.263,5.83,0.983,8.956,1.714c2.705,0.669,2.721-3.499,4.131-3.089
		c5.526,1.549,7.84,0.27,11.772-2.923c0.714-0.6,2.444-0.054,3.656,0.27c1.252,0.322,3.264,1.068,3.923-0.549
		c4.186-10.355,15.289-0.39,21.718-2.412c1.681-0.512-0.989-3.365,0.287-4.219c4.474-2.891,9.799,0.938,14.368-1.19
		c1.74-0.826,0.071-3.411,1.034-4.482c1.48-1.671,4.082,0.575,5.969-0.33c1.42-0.68,3.778-1.444,4.867-1.498
		c5.239-0.148,8.877-2.601,13.999-3.443c0.828-0.122,1.34-1.516,2.175-1.705c3.994-0.949,11.214,0.356,11.695,0.634
		C536.528,143.281,537.138,143.716,535.947,144.76 M501.654,187.798c2.516,0.592,7.22,1.567,6.44,2.21
		c-39.706,32.56-91.026,38.803-138.738,39.28c-4.665-6.241-12.529-8.932-19.386-12.791c-0.41-0.219-0.392-2.107,0-2.31
		c5.594-2.758,11.834-1.669,17.958-2.617c2.262-0.339,2.907-3.69,5.012-4.325c7.107-2.177,14.029-4.908,21.547-4.604
		c6.308,0.271,12.469,0.801,18.795,0.506c1.896-0.095,1.089-3.891,2.872-4.229c7.059-1.279,13.707,1.516,20.814,0.071
		c1.426-0.279,1.767-3.115,2.357-3.368c7.726-3.114,16.732-0.477,24.911-3.296c-0.845-0.749-2.104-1.871-1.232-2.559
		c1.373-1.069,3.801-0.522,5.347-0.356c3.239,0.338,6.946,0.746,10.104-1.575c2.123-1.566,5.508,0.765,7.96-0.053
		c2.619-0.854,5.067-2.403,7.739-1.532C497.148,187.233,499.184,187.233,501.654,187.798z M397.975,255.167
		c-27.07,5.071-52.55,4.384-78.63-2.263c-1.33-0.356,2.246-2.994,4.144-3.674c6.214-2.19,13.009-2.636,19.254-4.882
		c1.308-0.483,2.342-2.48,3.333-3.479c2.552-2.602,6.952-3.42,10.29-4.421c10.214-3.046,20.956,0.405,31.828,1.999
		c4.306,0.639,8.388,1.105,12.67,2.368c0.53,0.163,2.349-0.551,2.529-1.782c0.213-1.41,0.245-3.169,1.551-3.203
		c3.438-0.078,7.197,1.297,10.322,0.088c4.011-1.567,8.423-0.479,12.685-1.09c1.124-0.163,0.271-1.783,1.41-2.052
		c4.343-1.008,8.895,1.001,12.807-0.818c2.977-1.383,9.608,2.688,10.896,4.316C436.009,245.864,417.816,251.458,397.975,255.167z
		 M397.924,278.007c-17.265,5.333-34.711,5.257-52.289,5.271c-17.924,0.045-34.679-5.255-52.287-10.101
		c-1.047-0.279-0.89-1.654-0.604-1.833c2.475-1.386,5.6-0.603,8.215-1.708c1.41-0.573,1.706-2.462,2.94-3.211
		c1.619-1,5.24-0.869,6.787-1.802c2.262-1.348,2.925-2.976,5.154-4.308c2.069-1.232,4.608,0.804,7.585,0.159
		c6.012-1.261,10.357,4.063,15.967,5.697c2.246,0.645,4.229-1.33,6.204-1.008c2.265,0.357,4.013,2.436,6.345,3.113
		c1.817,0.532,3.142,0.594,5.012-0.32c2.634-1.279,5.237,2.278,8.179,1.585c0.991-0.227,0.977-2.317,2.16-2.422
		c4.751-0.375,7.874,4.646,12.521,4.576c0.485-0.019,0.879-0.938,1.442-1.175c2.48-0.94,4.777,1.229,7.754,0.358
		c3.674-1.087,7.023,1.783,9.445,4.61C399.584,276.779,399.299,277.599,397.924,278.007z M343.509,303.119
		c1.648,1.244,2.501,3.317,1.95,3.493c-10.798,3.19-28.531,1.372-41.661,0.197c-11.679-1.053-22.694-4.296-33.415-8.638
		c-7.171-2.908-14.097-5.673-20.858-9.808c-1.818-1.105-4.576-1.514-4.848-3.997c-0.034-0.274,0.522-1.102,0.629-1.154
		c3.94-1.958,8.38,0.845,12.383-0.442c1.409-0.463,2.411-2.872,3.567-2.856c2.924,0.035,6.11,1.106,8.807-0.887
		c1.975-1.496,4.882-0.443,6.944,0.514c2.767,1.287,7.22,7.415,10.71,6.726c0.967-0.201,6.771-1.356,7.752-0.791
		c5.44,3.262,14.237,9.736,20.337,10.081c1.193,0.082,1.975-3.504,3.49-2.721c3.69,1.941,6.081,4.691,9.11,5.236
		c0.976,0.184,2.759-1.349,3.896-1.173c2.23,0.32,3.531,1.975,5.972,3.705C339.328,301.336,341.825,301.813,343.509,303.119z
		 M298.89,325.979c-39.06,0.914-74.649-21.84-100.276-52.156c-0.375-0.443-0.407-1.871,0.558-1.82
		c4.49,0.322,8.015,3.246,12.007,5.099c4.368,1.995,9.303,7.998,13.791,4.491c0.932-0.732,0.375-2.158,1.358-1.889
		c5.884,1.549,9.963,6.483,14.237,10.729c3.672,3.674,5.577,8.812,10.337,11.139c2.07,0.991,3.637-3.69,5.255-2.279
		c3.569,3.111,6.038,6.198,9.859,9.048c1.583,1.195,2.531-2.407,3.168-2.703c1.679-0.765,5.543,3.097,7.482,4.647
		c2.444,1.938,5.08,4.557,8.144,6.395c1.514,0.896,2.854-1.278,4.264-0.703c2.281,0.937,4.458,2.312,6.937,3.009
		c1.546,0.427,2.913,3.707,4.114,5.202C301.657,326.06,299.802,325.963,298.89,325.979z M215.773,398.569
		c-17.779,10.3-36.277,15.695-56.359,17.55c-9.382,0.86-18.535,0.234-27.819-1.141c-64.244-9.492-115.462-67.804-114.52-131.959
		c0-0.131,0.965,2.229,2.174,2.653c1.461,0.496,2.052-0.693,2.991-1.75c1.342-1.51,2.84,1.716,4.623,1.092
		c0.549-0.211,1.026-1.212,1.367-1.124c3.445,0.815,3.499-3.334,6.256-2.656c1.661,0.408,1.189,2.977,2.159,4.56
		c0.983,1.628,2.707,1.852,4.117,1.22c5.167-2.271,3.333-8.415,6.36-12.375c1.357,7.145,0.051,14.299,1.661,21.563
		c2.419,10.834,4.97,20.832,9.657,30.671c8.319,17.482,21.363,31.223,38.244,41.865c47.136,29.757,109.901,13.947,139.46-30.625
		c4.264,0.882,9.606,2.64,14.67,3.354c2.776,0.39,5.542,0.39,8.319,0c0.54-0.087,2.16-0.583,2.001-0.802
		c-4.229-5.989-13.105-13.043-13.836-22.074c8.72,3.286,19.336,6.84,29.994,10.459C263.215,357.061,243.774,382.347,215.773,398.569
		z M25.698,224.528c8.682-16.614,20.092-30.543,34.058-43.248c18.003-16.358,38.138-27.158,62.085-32.491
		c28.768-6.377,55.499-5.021,83.56,7.293c1.221,0.513-2.28,7.856-3.149,7.518c-47.328-17.979-102.93-10.565-138.808,26.218
		c-13.705,14.027-28.792,28.688-31.663,48.538c-2.332-3.115,0.208-7.677-2.941-10.296c-1.391-1.122-2.672,2.246-3.829,1.036
		C23.886,227.931,25.01,225.866,25.698,224.528z M302.05,75.262c54.638-1.157,122.229,1.532,159.656-8.728
		c32.075-8.771,54.634-17.238,79.428-41.061c3.861-3.726,5.151-3.046,2.722,0.965c-15.286,25.339-41.693,43.891-78.051,54.046
		c-40.897,11.441-118.993,6.986-163.753,8.734c-49.957,1.94-87.182,20.919-102.879,54.638l-11.626-4.655
		C201.625,97.536,248.535,76.399,302.05,75.262z M184.752,296.759c-3.35-3.726-3.472-9.231-1.287-13.583
		c1.34-2.655,5.708-5.806,7.448-3.829c1.731,1.94,2.566,5.188,3.994,7.107c1.141,1.534,2.889,1.732,4.062,3.473
		c1.191,1.765,2.334,4.959,3.891,6.205c1.122,0.931,2.67,1.339,3.706,2.497c0.802,0.871,0.957,2.208,1.706,2.94
		c0.748,0.714,2.07,0.799,2.906,1.548c1.461,1.279,2.481,4.37,4.264,4.849c0.991,0.251,2.619-0.804,3.454-0.322
		c1.532,0.931,2.811,2.159,4.029,3.533c1.278,1.453,2.488,3.044,3.794,4.488c1.191,1.314,2.332,3.222,3.829,4.117
		c1.069,0.618,3.142-0.981,3.994-0.27c1.122,0.912,1.654,3.264,2.803,3.941c1.549,0.924,3.812,0.069,4.683,1.669
		c1.105,1.984,3.027,6.579,4.847,9.182C222.474,330.294,201.165,315.092,184.752,296.759z M151.339,193.41
		c-47.92,0-86.771,38.852-86.771,86.79c0,47.917,38.852,86.77,86.771,86.77c28.854,0,54.419-14.078,70.194-35.743l11.6,4.129
		c-17.734,26.227-47.736,43.48-81.794,43.48c-54.48,0-98.64-44.16-98.64-98.64c0-54.48,44.16-98.659,98.64-98.659
		c14.382,0,30.082,3.674,43.855,10.076v13.661C182.325,197.743,167.341,193.41,151.339,193.41z M187.319,244.063
		c-3.707-3.728-7.891-6.772-12.426-9.131l20.961-17.875c0.122,9.129-2.295,20.372-6.186,29.282L187.319,244.063z M151.495,330.513
		c7.735,0,15.186-1.767,21.936-5.031l2.175,30.474c-7.587,2.407-15.697,3.722-24.112,3.722c-1.498,0-3.01-0.05-4.49-0.121
		l-4.56-29.892C145.405,330.206,148.432,330.513,151.495,330.513z M141.002,320.347l-1.889-12.452
		c3.229,1.444,6.769,2.351,10.478,2.568L141.002,320.347z M137.851,331.261l4.255,27.854c-8.092-0.969-15.81-3.106-22.972-6.31
		L137.851,331.261z M110.852,309.978c1.479,1.983,3.064,3.925,4.845,5.708c5.457,5.449,11.94,9.439,19.013,11.92l-20.031,23.062
		c-7.752-4.048-14.741-9.34-20.726-15.596L110.852,309.978z M107.534,306.365l-16.881,25.049
		c-5.734-6.767-10.372-14.504-13.609-22.952L107.534,306.365z M101.479,271.969c-0.392,2.566-0.61,5.202-0.61,7.893
		c0,7.697,1.75,15.096,4.969,21.828L75.4,303.797c-2.348-7.525-3.627-15.541-3.627-23.852c0-0.764,0.035-1.528,0.069-2.296
		L101.479,271.969z M101.331,267.121l-29.203,5.631c0.802-8.962,3.064-17.483,6.587-25.339L101.331,267.121z M122.894,238.11
		c-8.729,5.985-15.506,14.662-19.117,24.827l-22.903-19.979c4.49-8.538,10.478-16.151,17.603-22.514L122.894,238.11z
		 M128.54,234.744c-0.408,0.211-0.834,0.406-1.244,0.635l-25.035-18.08c7.805-6.153,16.769-10.896,26.549-13.774L128.54,234.744z
		 M121.274,284.535c0.051,0.373,0.141,0.728,0.191,1.083l-10.189,15.151c-3.315-6.388-5.1-13.495-5.1-20.908
		c0-2.673,0.269-5.292,0.714-7.876L121.274,284.535z M128.349,259.979c-0.643,0.727-1.228,1.512-1.801,2.313l-18.107,3.451
		c2.175-6.679,5.9-12.807,11.016-17.943c2.46-2.458,5.186-4.556,8.074-6.356l0.959,0.677L128.349,259.979z M120.988,277.956
		l-9.164-7.979l11.661-2.246C122.11,270.901,121.241,274.335,120.988,277.956z M128.524,300.125l-11.6,0.804l6.31-9.355
		C124.52,294.706,126.296,297.593,128.524,300.125z M133.369,304.582c0.149,0.102,0.306,0.191,0.453,0.302l2.707,17.742
		c-6.342-2.228-12.173-5.802-17.073-10.702c-1.873-1.87-3.552-3.906-5.047-6.047L133.369,304.582z M141.053,251.205
		c-2.854,1.036-5.524,2.48-7.909,4.28l0.085-9.945L141.053,251.205z M165.809,252.919c-2.619-1.392-5.455-2.444-8.466-3.025
		l7.445-6.353L165.809,252.919z M165.026,201.398c10.457,1.802,20.238,5.596,28.888,11.035l-23.833,20.326
		c-0.564-0.225-1.138-0.427-1.722-0.618L165.026,201.398z M161.92,308.681c3.672-1.324,7.022-3.334,9.895-5.867l0.93,12.872
		L161.92,308.681z M151.495,296.315c-9.066,0-16.429-7.359-16.429-16.452c0-9.067,7.36-16.448,16.429-16.448
		c9.094,0,16.454,7.379,16.454,16.448C167.951,288.953,160.588,296.315,151.495,296.315z M155.915,310.463l15.509,10.054
		c-6.004,2.977-12.757,4.68-19.929,4.68c-2.62,0-5.221-0.262-7.771-0.695L155.915,310.463z M133.336,232.601l0.253-30.349
		c5.779-1.314,11.765-2.045,17.907-2.045c2.941,0,5.83,0.208,8.668,0.513l3.235,29.959c-3.846-0.93-7.821-1.461-11.903-1.461
		C145.099,229.218,138.991,230.428,133.336,232.601z M151.495,234.526c4.298,0,8.5,0.626,12.513,1.785l0.157,1.512l-13.539,11.544
		c-1.191,0.039-2.349,0.169-3.516,0.324l-13.827-9.981v-1.356C138.957,235.866,145.118,234.526,151.495,234.526z M173.771,258.978
		c-0.871-0.948-1.819-1.821-2.793-2.638l-1.801-16.54l1.279-1.09c4.812,2.212,9.249,5.249,13.103,9.093l3.986,3.978l-3.097,6.38
		L173.771,258.978z M175.841,261.881l7.248-0.232l-3.062,7.02C179.087,265.928,177.478,264.215,175.841,261.881z M177.608,316.877
		l-1.358-18.941c2.566,3.603,5.865,8.762,8.964,11.392C182.594,312.525,180.995,314.466,177.608,316.877z M202.843,340.867
		c-6.681,5.629-14.262,10.243-22.564,13.436l-2.105-29.402L202.843,340.867z M180.958,321.01c2.243-1.601,4.375-3.352,6.36-5.324
		l3.134-2.891l23.451,16.665c-1.939,2.334-4.221,5.1-7.37,8.127L180.958,321.01z M501.732,101.653
		c24.112-5.9,44.282-18.499,60.373-36.286c1.174-1.548,5.187-6.377,5.97-7.925c0.767-1.551,1.559-1.551,0.967,0.199
		c-0.577,1.725-4.543,8.111-5.526,10.052c-10.033,16.428-26,26.583-42.306,34.929c-23.844,12.138-49.436,19.335-75.845,20.796
		c-47.049,2.638-93.881,0.871-140.877,1.053c-17.213,0.069-33.447,5.396-48.705,15.036c-16.193,10.251-27.668,24.329-35.318,41.133
		c-6.48,14.219-6.002,30.063-7.327,45.865c-1.738,20.929-12.226,39.411-27.33,47.832c6.683-12.209,13.687-26.279,15.983-40.68
		c2.313-14.472,0.053-25.912,0.637-38.687c1.338-29.447,20.047-54.837,45.718-69.344c18.177-10.285,37.275-16.662,57.751-17.428
		c16.07-0.592,32.023,0.749,48.119,1.836c19.623,1.33,39.097,1.261,58.579,0.712c2.314-0.051,5.379,0.019,7.709-0.051
		C447.694,109.78,474.447,108.336,501.732,101.653z M336.031,135.537c3.48-1.34,8.305,3.646,12.24,0.21
		c2.262-1.977,6.668,1.155,9.996,2.652c3.466,1.566,5.864-0.783,8.721-2.619c1.87-1.21,4.775,2.393,8.064,1.602
		c1.123-0.262,0.862-2.761,1.984-2.897c3.848-0.452,7.231,3.169,10.751,1.618c1.259-0.565,2.636-2.758,4.009-3.584
		c1.687-1.026,3.983,1.358,5.222,0.253c3.628-3.28,7.283-1.907,10.651-1.41c0.714,0.112,1.409,2.907,0.557,3.445
		c-14.229,8.832-28.357,11.206-44.621,13.008c-7.852,0.889-23.46-0.575-33.005-6.135
		C325.199,138.566,333.107,136.694,336.031,135.537z M342.861,209.065c-15.029,3.472-29.197,2.507-43.858-1.019
		c-3.052-0.73-4.773-3.706-7.203-5.812c-0.53-0.461-3.062-0.192-3.147-0.496c-1.021-2.992-1.785-4.21-4.211-6.152
		c-0.375-0.306-0.671-2.263,0.539-2.368c3.741-0.305,7.413-0.747,11.122-1.21c1.901-0.234,1.991-3.584,3.635-4.28
		c3.846-1.585,8.197-1.785,12.452-2.228c10.998-1.141,21.727-2.905,32.755-2.089c11.083,0.845,21.373,4.437,32.048,7.703
		c1.365,0.408,3.79,1.271,2.602,3.158c-1.465,2.297-4.568,2.315-6.989,3.951c-3.213,2.158-7.806,1.34-10.694,4.08
		c-4.082,3.908-9.573,4.21-14.83,4.882C345.635,207.386,344.459,208.682,342.861,209.065z M282.462,244.349
		c-4.968-1.25-12.383-2.852-13.54-5.901c0.67,0.193,1.957-1.658,2.01-2.191c0.157-2.315-4.421-2.803-6.004-4.369
		c-0.41-0.388-0.73-2.383,0.53-2.401c2.446-0.061,7.613,2.064,11.157,0.245c0.965-0.478,1.018-1.873,2.48-2.475
		c1.463-0.608,3.419,0.21,4.368-0.286c0.903-0.521,2.366-0.679,3.043-1.609c0.498-0.688-0.304-2.621,0.427-3.335
		c1.21-1.208,2.889-0.635,4.725-1.826c1.175-0.746,2.263-2.683,3.203-3.229c1.782-1.036,4.139-1.156,6.169-1.306
		c5.759-0.409,11.544-0.156,17.391,0.594c4.974,0.629,9.784,1.106,14.682,2.53c8.023,2.319,15.896,4.065,23.005,8.406
		c-4.322,5.867-11.432,6.169-17.352,9.231c-4.778,2.48-9.908,2.733-14.882,4.229C310.243,244.775,296.165,247.786,282.462,244.349z
		 M215.157,261.561c2.113,0.358,3.792-0.835,5.524-0.406c2.331,0.565,3.299,0.783,5.09,1.703c1.156-0.729,2.906-0.989,3.498-1.173
		c3.265-1.034,7.021,1.002,10.443,0.749c1.67-0.124,1.566-3.674,2.837-4.256c4.717-2.142,10.923,0.99,15.906-0.253
		c0.575-0.156,0.149-2.758,2.342-4.367c0.904-0.671,4.829-0.732,6.09-1.23c0.139-0.512,0.287-1.668,1.444-2.26
		c3.775-1.873,9.127,1.244,14.453,2.103c3.741,0.618,7.432,1.959,11.156,3.187c2.885,0.949,7.246,3.621,6.306,4.588
		c-15.026,15.27-38.529,17.107-59.204,15.627c-12.165-0.882-25.391-1.036-35.241-9.039c-2.271-1.822,0.618-5.598,3.254-6.997
		C210.944,258.533,213.171,261.222,215.157,261.561z M243.115,234.881c5.899,2.785,12.12,5.168,16.732,9.762
		c-10.286,6.208-21.718,8.095-33.534,10.035c-4.316,0.714-8.841,1.465-13.192-0.264c2.531-9.022,5.847-17.748,9.076-26.52
		C229.557,229.071,236.344,231.688,243.115,234.881z M262.77,152.243c3.368-1.175,7.613-2.115,7.093-6.682
		c-0.122-1.062,1.645-1.688,2.585-1.812c2.566-0.34,5.08-0.435,7.595-1.087c2.028-0.522,2.864-2.636,4.432-3.76
		c5.471-3.958,12.319-0.079,17.646-2.358c2.444-1.068,4.933-1.636,7.075-0.39c5.34,3.142,13.209,4.352,14.828,10.833
		c-19.084,11.156-41.716,14.227-63.479,13.957C260.647,157.734,259.49,153.41,262.77,152.243z M273.874,168.324
		c6.987,1.514,12.367,5.151,18.621,7.605c2.428,0.948,7.613,3.741,5.256,5.116c-19.797,11.354-42.767,12.801-65.097,12.668
		c0.234-3.382,1.922-5.751,2.688-8.908c0.981-4.031,7.222-5.039,7.126-10.616c-0.035-3.072,6.014-2.48,7.917-5.17
		c0.765-1.07,1.532-2.715,2.55-2.891C260.012,164.956,266.73,166.792,273.874,168.324z M227.285,207.115
		c1.444-2.132,2.428-5.037,3.655-5.734c9.007-5.17,20.833-2.854,31.012-0.017c8.78,2.436,17.838,4.506,24.287,11.293
		c0.356,0.374,0.304,1.68,0.034,1.802c-19.474,8.929-40.845,12.67-61.886,10.373c-0.607-0.071,0.157-4.545-0.234-7.466
		c-0.287-2.038,1.681-3.213,3.264-5.116C228.268,211.213,226.223,208.725,227.285,207.115z M399.369,168.612
		c-28.688,11.111-59.737,11.111-89.977,9.406c-1.248-0.069-1.538-2.428-2.409-3.603c-1.104-1.551-3.603-1.959-4.933-2.942
		c-1.071-0.802-0.965-2.158-2.124-3.097c-1.087-0.905-4.013-0.679-5.769-1.462c-0.661-0.27-1.495-2.42-0.661-2.907
		c3.758-2.193,9.571,1.626,11.956-1.479c3.958-5.116,9.048-1.315,13.65-3.082c1.409-0.539,1.087-2.366,1.726-3.158
		c3.958-4.812,11.265-5.431,17.574-5.577c5.188-0.122,11.363,0.051,15.916,0.626c12.671,1.977,23.86,3.925,35.068,9.319
		c3.112,1.516,6.681,2.264,9.423,4.995C399.931,166.758,398.957,167.714,399.369,168.612z M572.136,59.955
		c-0.765,3.099-1.689,5.951-2.848,9.25c-8.537,24.198-27.199,39.704-47.406,54.464c-18.943,13.827-38.009,22.52-60.555,27.739
		c-17.141,3.96-33.578,7.501-50.788,6.275c-3.96-0.288-7.007-2.891-10.695-4.708c-1.583-0.766-4.274-0.53-5.882-1.437
		c-1.774-1.018-0.94-3.297,1.234-3.69c2.568-0.469,5.447,0.584,7.432-0.538c5.021-2.846,10.528-1.689,15.498-3.28
		c2.941-0.923,0.079-5.074,2.271-5.751c2.829-0.914,5.935-1.229,8.895-2.02c1.418-0.376,1.667-3.811,2.383-4.021
		c4.063-1.183,11.068,0.549,16.497,0.443c1.716-0.017,0.557-3.14,2.679-3.177c6.806-0.069,6.195,0.768,10.783-2.295
		c4.202-2.811,14.391,1.141,14.268-5.326c8.589-1.426,17.789,1.122,25.524-4.567c1.261-0.908,3.574,0,5.311-1.106
		c0.998-0.634,0.928-2.262,2.156-2.619c3.228-0.973,6.648-0.938,9.657-2.331c1.769-0.818,1.465-3.846,2.385-4.256
		c18.752-8.519,34.276-19.978,45.106-37.783c2.124-3.472,4.492-8.311,5.084-9.859C571.694,57.815,572.624,58.05,572.136,59.955z
		 M547.903,136.033c-7.668-0.61-15.308,0.191-22.975-0.408c-1.226-0.088-0.92-2.054-0.532-2.36
		c30.388-24.18,53.036-56.628,53.411-95.088c0-0.479-0.808-1.069-1.165-0.603c-21.023,27.708-46.028,53.124-81.079,57.396
		c-1.656,0.219-1.767-2.687-0.479-3.522c31.969-20.814,55.354-48.65,63.156-86.076c0.088-0.427-0.73-1.036-1.156-0.592
		c-22.867,23.868-50.278,40.618-81.786,49.852C418.546,71.285,360.629,65.639,303.103,65.82c-22.78,0.071-45.734,2.046-66.74,11.887
		c-25.949,12.148-48.224,31.77-60.198,58.126l-0.374,0.698c-8.074-1.41-16.375-2.107-24.861-2.107
		c-80.8,0-146.325,65.496-146.325,146.316c0,80.811,65.523,146.327,146.325,146.327c61.981,0,114.939-38.531,136.276-92.958
		l2.062-0.035c7.17,0.288,15.079,0.557,22.154-2.278c0.853-0.357,3.333-1.978,2.413-3.76c-1.148-2.175-4.657-6.565-5.744-9.503
		c-0.253-0.636-0.41-1.907,0.609-1.921c17.748-0.127,36.834,1.016,53.156-5.429c-4.131-6.815-13.599-11.853-18.803-18.554
		c-1.175-1.524,1.124-2.356,1.905-2.356c24.79-0.09,47.899-0.106,69.735-11.227c0.82-0.426,0.835-1.319,0.357-1.819
		c-4.829-5.041-10.8-9.8-16.392-13.758c27.615-5.522,58.003-19.354,66.738-27.191c0.923-0.836,0.323-1.644-0.165-2.192
		c-2.315-2.759-8.503-6.918-9.657-8.074c-0.39-0.392-0.277-1.689-0.051-1.804c24.558-9.404,48.815-20.151,66.453-41.069
		c0.802-0.981-0.302-2.28-1.279-2.479c-7.107-1.358-13.889-1.681-20.892-1.585c0-0.931-0.281-2.297,0.129-2.55
		c18.37-10.678,34.639-21.886,48.501-38.071C548.852,137.971,549.126,136.119,547.903,136.033z"/>
	<path fill="#EC2024" d="M548.431,138.45c-13.861,16.186-30.133,27.394-48.501,38.07c-0.41,0.254-0.128,1.618-0.128,2.551
		c7.005-0.096,13.784,0.227,20.892,1.585c0.977,0.2,2.08,1.497,1.278,2.479c-17.638,20.918-41.895,31.665-66.452,41.069
		c-0.225,0.114-0.339,1.409,0.051,1.803c1.154,1.157,7.344,5.316,9.657,8.075c0.487,0.551,1.087,1.356,0.165,2.192
		c-8.735,7.838-39.123,21.669-66.738,27.191c5.592,3.958,11.562,8.717,16.392,13.758c0.477,0.498,0.465,1.394-0.357,1.819
		c-21.834,11.12-44.943,11.137-69.735,11.227c-0.781,0-3.08,0.832-1.905,2.356c5.204,6.701,14.67,11.737,18.803,18.554
		c-16.322,6.444-35.406,5.304-53.156,5.428c-1.021,0.017-0.863,1.288-0.61,1.922c1.088,2.938,4.597,7.328,5.745,9.503
		c0.92,1.782-1.561,3.402-2.414,3.76c-7.076,2.837-14.985,2.565-22.154,2.278l-2.062,0.034
		c-21.336,54.43-74.292,92.959-136.275,92.959c-80.801,0-146.325-65.515-146.325-146.327c0-80.818,65.522-146.316,146.325-146.316
		c8.486,0,16.787,0.697,24.861,2.106l0.373-0.697c11.975-26.356,34.25-45.979,60.198-58.126
		c21.006-9.841,43.96-11.815,66.741-11.887c57.525-0.182,115.443,5.465,172.194-11.189c31.508-9.231,58.919-25.983,81.785-49.852
		c0.427-0.444,1.244,0.165,1.157,0.592c-7.804,37.426-31.188,65.262-63.156,86.075c-1.288,0.837-1.176,3.742,0.479,3.523
		c35.052-4.271,60.056-29.69,81.08-57.396c0.357-0.467,1.165,0.122,1.165,0.602c-0.375,38.461-23.023,70.909-53.411,95.089
		c-0.388,0.306-0.693,2.272,0.532,2.36c7.666,0.6,15.306-0.202,22.975,0.408C549.126,136.119,548.852,137.971,548.431,138.45
		 M548.274,131.429c-4.043-0.314-8.054-0.261-11.922-0.21c-0.781,0.019-1.566,0.019-2.331,0.019
		c23.235-20.23,47.988-51.47,48.398-93.03c0.021-2.261-1.529-4.378-3.758-5.141c-2.106-0.714-4.386-0.028-5.707,1.722
		c-16.412,21.632-36.616,44.106-64.117,52.626c29.151-22.051,47.278-49.276,53.923-81.125c0.444-2.228-0.71-4.543-2.815-5.665
		c-2.097-1.105-4.577-0.714-6.179,0.948c-22.347,23.304-49.188,39.67-79.769,48.632c-44.333,12.993-90.443,12.165-135.029,11.381
		c-11.755-0.21-23.913-0.424-35.886-0.392c-21.081,0.08-45.732,1.594-68.681,12.33c-27.731,12.98-49.364,33.499-61.249,57.948
		c-7.327-1.087-14.775-1.66-22.226-1.66C67.708,129.812,0,197.511,0,280.738c0,83.224,67.706,150.936,150.927,150.936
		c30.935,0,60.678-9.303,85.998-26.903c23.885-16.577,42.253-39.368,53.358-66.043c6.899,0.268,15.216,0.408,22.852-2.675
		c0.408-0.165,3.864-1.644,5.106-4.996c0.626-1.703,0.504-3.539-0.33-5.167c-0.558-1.055-1.375-2.278-2.34-3.69
		c-0.21-0.298-0.427-0.637-0.661-0.975c0.914,0,1.54,0,1.54,0c15.892,0.034,32.31,0.085,47.094-5.76
		c1.252-0.495,2.228-1.531,2.678-2.812c0.425-1.287,0.28-2.716-0.434-3.87c-2.636-4.369-6.843-7.858-10.923-11.242
		c-1.087-0.912-2.158-1.804-3.19-2.688c22.728-0.166,44.325-1.127,65.104-11.712c1.669-0.853,2.81-2.368,3.111-4.187
		c0.308-1.785-0.257-3.619-1.512-4.916c-2.601-2.713-5.646-5.489-9.084-8.293c24.878-6.444,50.521-18.264,59.181-26.053
		c2.121-1.905,3.043-5.308,0.287-8.567c-1.338-1.6-3.438-3.37-5.508-4.972c22.413-8.858,45.161-19.77,62.232-40.062
		c1.351-1.592,1.726-3.707,1.027-5.691c-0.765-2.15-2.707-3.827-4.95-4.272c-3.169-0.609-6.378-1.036-9.799-1.321
		c13.812-8.587,27.8-18.872,40.164-33.336c1.465-1.716,1.889-4.515,1.02-6.648C552.14,132.892,550.366,131.596,548.274,131.429z"/>
	<path fill="#EC2024" d="M520.936,107.004c-0.92,0.41-0.616,3.438-2.385,4.256c-3.011,1.391-6.43,1.358-9.657,2.331
		c-1.229,0.357-1.156,1.985-2.156,2.619c-1.736,1.106-4.047,0.2-5.311,1.106c-7.735,5.689-16.936,3.142-25.524,4.567
		c0.123,6.465-10.067,2.513-14.268,5.326c-4.588,3.062-3.978,2.226-10.783,2.295c-2.122,0.037-0.965,3.16-2.679,3.177
		c-5.429,0.104-12.434-1.626-16.497-0.443c-0.717,0.211-0.965,3.646-2.383,4.021c-2.96,0.791-6.067,1.105-8.895,2.02
		c-2.191,0.679,0.671,4.828-2.271,5.751c-4.97,1.593-10.478,0.435-15.498,3.28c-1.984,1.122-4.863,0.069-7.432,0.538
		c-2.175,0.392-3.011,2.673-1.234,3.69c1.607,0.906,4.297,0.671,5.882,1.437c3.69,1.819,6.735,4.42,10.695,4.708
		c17.212,1.229,33.647-2.315,50.788-6.275c22.546-5.22,41.609-13.912,60.555-27.739c20.207-14.76,38.871-30.264,47.406-54.464
		c1.156-3.299,2.083-6.151,2.848-9.25c0.485-1.907-0.444-2.14-1.01-0.594c-0.592,1.549-2.96,6.388-5.084,9.859
		C555.212,87.026,539.688,98.487,520.936,107.004"/>
	<path fill="#EC2024" d="M398.812,165.654c-2.742-2.731-6.311-3.482-9.423-4.996c-11.208-5.394-22.397-7.345-35.068-9.319
		c-4.551-0.573-10.728-0.746-15.916-0.626c-6.31,0.149-13.616,0.765-17.574,5.577c-0.639,0.792-0.314,2.619-1.726,3.158
		c-4.604,1.767-9.692-2.036-13.649,3.082c-2.385,3.105-8.201-0.714-11.957,1.479c-0.834,0.487,0,2.636,0.661,2.907
		c1.757,0.783,4.682,0.557,5.77,1.462c1.158,0.938,1.053,2.296,2.123,3.097c1.33,0.983,3.829,1.392,4.933,2.942
		c0.871,1.175,1.159,3.533,2.409,3.603c30.239,1.705,61.288,1.705,89.977-9.406C398.957,167.714,399.931,166.758,398.812,165.654"/>
	<path fill="#EC2024" d="M224.153,217.366c0.392,2.923-0.373,7.395,0.234,7.466c21.041,2.297,42.412-1.444,61.886-10.373
		c0.27-0.122,0.322-1.428-0.034-1.802c-6.449-6.787-15.509-8.857-24.287-11.293c-10.179-2.838-22.005-5.151-31.012,0.017
		c-1.226,0.695-2.209,3.603-3.655,5.734c-1.063,1.609,0.983,4.098,0.13,5.135C225.833,214.155,223.866,215.33,224.153,217.366"/>
	<path fill="#EC2024" d="M324.021,146.988c-1.619-6.481-9.486-7.693-14.828-10.833c-2.143-1.244-4.631-0.679-7.075,0.39
		c-5.326,2.279-12.175-1.599-17.646,2.358c-1.567,1.122-2.403,3.235-4.432,3.76c-2.515,0.652-5.028,0.747-7.595,1.087
		c-0.94,0.123-2.707,0.749-2.585,1.812c0.522,4.568-3.725,5.509-7.093,6.682c-3.28,1.167-2.124,5.491-2.228,8.702
		C282.305,161.215,304.937,158.145,324.021,146.988"/>
	<path fill="#EC2024" d="M252.937,166.131c-1.018,0.174-1.784,1.82-2.55,2.891c-1.905,2.689-7.952,2.098-7.917,5.17
		c0.096,5.575-6.145,6.585-7.126,10.616c-0.765,3.158-2.454,5.526-2.688,8.908c22.328,0.131,45.3-1.313,65.097-12.668
		c2.358-1.375-2.828-4.168-5.256-5.116c-6.256-2.454-11.634-6.092-18.621-7.605C266.73,166.792,260.012,164.956,252.937,166.131"/>
	<path fill="#EC2024" d="M213.121,254.416c4.35,1.729,8.876,0.978,13.192,0.264c11.816-1.94,23.25-3.827,33.534-10.035
		c-4.612-4.594-10.833-6.977-16.732-9.761c-6.771-3.193-13.558-5.812-20.918-6.987C218.967,236.666,215.652,245.394,213.121,254.416
		"/>
	<path fill="#EC2024" d="M209.055,259.535c-2.636,1.399-5.524,5.175-3.254,6.997c9.851,8.003,23.076,8.157,35.241,9.039
		c20.675,1.48,44.178-0.357,59.204-15.627c0.94-0.967-3.421-3.639-6.306-4.588c-3.727-1.228-7.415-2.568-11.156-3.187
		c-5.326-0.858-10.678-3.976-14.453-2.103c-1.159,0.591-1.306,1.748-1.444,2.26c-1.261,0.496-5.186,0.557-6.09,1.23
		c-2.192,1.609-1.767,4.208-2.342,4.367c-4.983,1.242-11.189-1.889-15.906,0.253c-1.271,0.582-1.166,4.132-2.837,4.256
		c-3.419,0.253-7.179-1.783-10.443-0.749c-0.592,0.184-2.34,0.443-3.498,1.173c-1.791-0.92-2.759-1.138-5.09-1.703
		c-1.732-0.429-3.411,0.765-5.524,0.406C213.171,261.222,210.944,258.533,209.055,259.535"/>
	<path fill="#EC2024" d="M338.76,236.43c5.918-3.062,13.029-3.364,17.353-9.231c-7.109-4.341-14.984-6.087-23.006-8.406
		c-4.897-1.424-9.71-1.903-14.682-2.529c-5.847-0.749-11.632-1.002-17.391-0.594c-2.03,0.148-4.387,0.269-6.169,1.306
		c-0.94,0.546-2.028,2.482-3.203,3.229c-1.836,1.191-3.517,0.618-4.725,1.826c-0.73,0.714,0.069,2.647-0.427,3.335
		c-0.679,0.931-2.14,1.088-3.043,1.61c-0.949,0.493-2.905-0.322-4.368,0.285c-1.463,0.602-1.516,1.997-2.48,2.475
		c-3.541,1.819-8.711-0.306-11.156-0.245c-1.261,0.019-0.938,2.012-0.531,2.401c1.583,1.566,6.161,2.055,6.004,4.37
		c-0.051,0.532-1.34,2.385-2.009,2.19c1.156,3.048,8.571,4.649,13.539,5.901c13.703,3.438,27.783,0.427,41.416-3.689
		C328.852,239.163,333.983,238.91,338.76,236.43"/>
	<path fill="#EC2024" d="M372.602,198.223c2.421-1.637,5.524-1.654,6.988-3.951c1.189-1.888-1.235-2.75-2.601-3.158
		c-10.676-3.267-20.965-6.858-32.049-7.703c-11.025-0.816-21.756,0.948-32.754,2.089c-4.255,0.442-8.606,0.643-12.452,2.228
		c-1.646,0.696-1.736,4.046-3.635,4.28c-3.709,0.463-7.381,0.905-11.122,1.21c-1.21,0.104-0.914,2.062-0.539,2.368
		c2.426,1.939,3.192,3.158,4.211,6.152c0.085,0.304,2.617,0.035,3.147,0.496c2.43,2.105,4.151,5.081,7.203,5.812
		c14.663,3.525,28.829,4.49,43.858,1.019c1.599-0.384,2.774-1.68,4.216-1.879c5.256-0.672,10.749-0.976,14.831-4.882
		C364.796,199.562,369.389,200.381,372.602,198.223"/>
	<path fill="#EC2024" d="M363.605,147.814c16.264-1.802,30.393-4.176,44.621-13.008c0.853-0.54,0.155-3.333-0.557-3.445
		c-3.366-0.498-7.021-1.87-10.651,1.41c-1.235,1.105-3.533-1.279-5.222-0.253c-1.373,0.826-2.75,3.019-4.009,3.584
		c-3.52,1.548-6.903-2.07-10.751-1.618c-1.122,0.139-0.86,2.636-1.984,2.897c-3.289,0.791-6.194-2.812-8.064-1.602
		c-2.856,1.836-5.255,4.186-8.721,2.619c-3.33-1.495-7.734-4.629-9.996-2.652c-3.936,3.436-8.76-1.55-12.24-0.21
		c-2.926,1.157-10.835,3.029-5.431,6.143C340.145,147.239,355.753,148.703,363.605,147.814"/>
	<path fill="#EC2024" d="M412.592,110.745c-19.482,0.549-38.956,0.618-58.579-0.712c-16.096-1.087-32.049-2.428-48.119-1.836
		c-20.476,0.765-39.574,7.145-57.751,17.428c-25.669,14.507-44.378,39.896-45.718,69.344c-0.584,12.774,1.677,24.215-0.637,38.687
		c-2.297,14.402-9.303,28.471-15.983,40.68c15.104-8.421,25.592-26.903,27.33-47.832c1.323-15.802,0.847-31.648,7.327-45.865
		c7.65-16.804,19.127-30.882,35.318-41.133c15.256-9.641,31.492-14.967,48.705-15.036c46.996-0.182,93.828,1.585,140.877-1.053
		c26.407-1.461,51.999-8.658,75.845-20.796c16.306-8.346,32.272-18.501,42.306-34.929c0.983-1.942,4.949-8.33,5.526-10.052
		c0.592-1.748-0.2-1.748-0.967-0.199c-0.783,1.548-4.796,6.377-5.969,7.925c-16.092,17.787-36.26,30.386-60.374,36.286
		c-27.285,6.683-54.036,8.127-81.429,9.041C417.971,110.764,414.908,110.694,412.592,110.745"/>
	<path fill="#EC2024" d="M213.902,329.46l-23.452-16.665l-3.133,2.891c-1.985,1.975-4.117,3.724-6.361,5.324l25.574,16.577
		C209.683,334.56,211.962,331.792,213.902,329.46"/>
	<path fill="#EC2024" d="M180.279,354.301c8.301-3.192,15.881-7.807,22.564-13.436l-24.668-15.967L180.279,354.301"/>
	<path fill="#EC2024" d="M176.251,297.936l1.359,18.941c3.384-2.411,4.985-4.352,7.604-7.55
		C182.115,306.697,178.818,301.536,176.251,297.936"/>
	<path fill="#EC2024" d="M175.841,261.881c1.637,2.336,3.246,4.047,4.187,6.787l3.062-7.02L175.841,261.881"/>
	<path fill="#EC2024" d="M187.545,251.78l-3.986-3.978c-3.855-3.844-8.291-6.881-13.103-9.093l-1.279,1.09l1.801,16.54
		c0.976,0.816,1.922,1.689,2.793,2.638l10.678-0.817L187.545,251.78"/>
	<path fill="#EC2024" d="M133.283,239.712l13.827,9.981c1.165-0.154,2.322-0.287,3.516-0.324l13.539-11.544l-0.157-1.512
		c-4.011-1.159-8.213-1.785-12.513-1.785c-6.377,0-12.538,1.341-18.211,3.829V239.712"/>
	<path fill="#EC2024" d="M163.4,230.679l-3.235-29.959c-2.838-0.305-5.727-0.513-8.668-0.513c-6.143,0-12.128,0.73-17.907,2.045
		l-0.253,30.349c5.654-2.173,11.763-3.382,18.158-3.382C155.577,229.218,159.552,229.749,163.4,230.679"/>
	<path fill="#EC2024" d="M151.495,325.196c7.17,0,13.923-1.703,19.929-4.68l-15.509-10.054l-12.19,14.038
		C146.274,324.935,148.875,325.196,151.495,325.196"/>
	<path fill="#EC2024" d="M167.951,279.861c0-9.067-7.362-16.448-16.454-16.448c-9.066,0-16.429,7.378-16.429,16.448
		c0,9.092,7.36,16.452,16.429,16.452C160.588,296.315,167.951,288.953,167.951,279.861"/>
	<path fill="#EC2024" d="M171.815,302.813c-2.87,2.533-6.223,4.543-9.895,5.867l10.824,7.005L171.815,302.813"/>
	<path fill="#EC2024" d="M193.917,212.431c-8.65-5.438-18.432-9.23-28.889-11.034l3.333,30.743c0.584,0.191,1.157,0.392,1.722,0.618
		L193.917,212.431"/>
	<path fill="#EC2024" d="M157.343,249.894c3.011,0.581,5.847,1.636,8.466,3.025l-1.021-9.38L157.343,249.894"/>
	<path fill="#EC2024" d="M133.145,255.485c2.384-1.8,5.055-3.244,7.909-4.28l-7.821-5.665L133.145,255.485"/>
	<path fill="#EC2024" d="M119.458,311.926c4.898,4.9,10.729,8.475,17.073,10.702l-2.707-17.742
		c-0.147-0.112-0.304-0.202-0.453-0.302l-18.96,1.298C115.907,308.02,117.585,310.056,119.458,311.926"/>
	<path fill="#EC2024" d="M128.524,300.125c-2.228-2.532-4.002-5.419-5.29-8.552l-6.31,9.355L128.524,300.125"/>
	<path fill="#EC2024" d="M120.988,277.956c0.253-3.619,1.122-7.055,2.497-10.225l-11.661,2.246L120.988,277.956"/>
	<path fill="#EC2024" d="M119.458,247.801c-5.116,5.137-8.841,11.263-11.016,17.943l18.107-3.451
		c0.573-0.802,1.157-1.585,1.801-2.313l0.139-17.858l-0.959-0.677C124.644,243.245,121.918,245.343,119.458,247.801"/>
	<path fill="#EC2024" d="M106.178,279.861c0,7.413,1.783,14.521,5.1,20.908l10.189-15.151c-0.051-0.355-0.141-0.712-0.191-1.083
		l-14.382-12.551C106.449,274.569,106.178,277.19,106.178,279.861"/>
	<path fill="#EC2024" d="M127.296,235.379c0.41-0.227,0.836-0.424,1.244-0.635l0.27-31.222c-9.78,2.881-18.744,7.621-26.549,13.774
		L127.296,235.379"/>
	<path fill="#EC2024" d="M80.874,242.958l22.903,19.979c3.61-10.165,10.388-18.842,19.117-24.827l-24.417-17.666
		C91.351,226.807,85.364,234.422,80.874,242.958"/>
	<path fill="#EC2024" d="M72.128,272.752l29.203-5.631l-22.615-19.708C75.192,255.269,72.928,263.79,72.128,272.752"/>
	<path fill="#EC2024" d="M71.773,279.945c0,8.311,1.279,16.326,3.627,23.852l30.438-2.107c-3.219-6.732-4.969-14.131-4.969-21.828
		c0-2.69,0.216-5.326,0.61-7.893l-29.637,5.681C71.808,278.417,71.773,279.182,71.773,279.945"/>
	<path fill="#EC2024" d="M107.534,306.365l-30.49,2.097c3.235,8.448,7.875,16.186,13.609,22.952L107.534,306.365"/>
	<path fill="#EC2024" d="M134.711,327.605c-7.075-2.48-13.558-6.471-19.013-11.92c-1.783-1.783-3.366-3.725-4.845-5.708
		l-16.899,25.094c5.987,6.255,12.974,11.547,20.727,15.597L134.711,327.605"/>
	<path fill="#EC2024" d="M137.851,331.261l-18.717,21.547c7.163,3.201,14.88,5.341,22.972,6.31L137.851,331.261"/>
	<path fill="#EC2024" d="M139.114,307.895l1.889,12.452l8.589-9.884C145.882,310.247,142.34,309.339,139.114,307.895"/>
	<path fill="#EC2024" d="M151.495,359.679c8.415,0,16.525-1.316,24.112-3.722l-2.175-30.474c-6.752,3.265-14.2,5.031-21.936,5.031
		c-3.062,0-6.09-0.307-9.05-0.847l4.56,29.892C148.485,359.629,149.997,359.679,151.495,359.679"/>
	<path fill="#EC2024" d="M195.854,217.06l-20.961,17.875c4.535,2.356,8.719,5.401,12.426,9.131l2.35,2.278
		C193.559,237.432,195.976,226.188,195.854,217.06"/>
	<path fill="#EC2024" d="M151.339,181.541c-54.48,0-98.64,44.179-98.64,98.659c0,54.478,44.16,98.64,98.64,98.64
		c34.058,0,64.06-17.254,81.794-43.48l-11.6-4.129c-15.775,21.663-41.341,35.743-70.194,35.743c-47.92,0-86.771-38.853-86.771-86.77
		c0-47.938,38.852-86.79,86.771-86.79c16.002,0,30.985,4.333,43.855,11.869v-13.662
		C181.421,185.216,165.721,181.541,151.339,181.541"/>
	<path fill="#EC2024" d="M242.028,325.125c-0.871-1.6-3.134-0.745-4.683-1.669c-1.148-0.678-1.679-3.027-2.803-3.941
		c-0.853-0.714-2.925,0.888-3.994,0.27c-1.497-0.894-2.636-2.803-3.829-4.117c-1.306-1.444-2.516-3.035-3.794-4.487
		c-1.219-1.377-2.497-2.604-4.029-3.533c-0.834-0.479-2.462,0.573-3.454,0.322c-1.782-0.479-2.803-3.57-4.264-4.85
		c-0.836-0.748-2.158-0.834-2.906-1.548c-0.749-0.732-0.904-2.071-1.706-2.94c-1.036-1.156-2.584-1.566-3.706-2.496
		c-1.559-1.247-2.699-4.441-3.891-6.206c-1.175-1.742-2.924-1.938-4.062-3.472c-1.428-1.92-2.265-5.168-3.994-7.107
		c-1.74-1.978-6.108,1.173-7.448,3.829c-2.185,4.351-2.062,9.856,1.287,13.582c16.412,18.331,37.722,33.533,62.122,37.546
		C245.053,331.702,243.133,327.107,242.028,325.125"/>
	<path fill="#EC2024" d="M302.05,89.219c44.76-1.748,122.857,2.707,163.753-8.734c36.354-10.155,62.765-28.707,78.051-54.046
		c2.43-4.011,1.14-4.69-2.722-0.965c-24.792,23.822-47.353,32.291-79.428,41.061c-37.428,10.262-105.017,7.57-159.656,8.728
		c-53.516,1.14-100.425,22.274-114.505,63.939l11.626,4.655C214.869,110.138,252.093,91.159,302.05,89.219"/>
	<path fill="#EC2024" d="M28.839,228.06c3.15,2.619,0.61,7.181,2.941,10.296c2.871-19.848,17.96-34.511,31.663-48.538
		c35.877-36.781,91.479-44.194,138.808-26.218c0.869,0.339,4.37-7.005,3.149-7.518c-28.062-12.313-54.792-13.67-83.56-7.293
		c-23.948,5.335-44.083,16.133-62.085,32.491c-13.966,12.705-25.374,26.637-34.058,43.248c-0.688,1.338-1.812,3.402-0.688,4.565
		C26.167,230.304,27.446,226.938,28.839,228.06"/>
	<path fill="#EC2024" d="M261.134,340.668c0.157,0.216-1.463,0.714-2.001,0.802c-2.774,0.389-5.543,0.389-8.319,0
		c-5.063-0.715-10.406-2.473-14.67-3.354c-29.56,44.572-92.324,60.382-139.46,30.625c-16.879-10.645-29.923-24.382-38.244-41.865
		c-4.69-9.839-7.238-19.839-9.657-30.671c-1.609-7.267-0.304-14.419-1.661-21.563c-3.027,3.96-1.193,10.104-6.36,12.375
		c-1.41,0.635-3.134,0.408-4.117-1.22c-0.967-1.583-0.496-4.151-2.159-4.56c-2.758-0.678-2.811,3.472-6.256,2.656
		c-0.341-0.088-0.818,0.914-1.367,1.124c-1.783,0.624-3.28-2.602-4.623-1.092c-0.938,1.059-1.53,2.248-2.991,1.75
		c-1.209-0.424-2.174-2.784-2.174-2.653c-0.94,64.153,50.278,122.465,114.52,131.959c9.284,1.375,18.439,1.999,27.819,1.141
		c20.082-1.853,38.58-7.25,56.359-17.55c28.001-16.221,47.439-41.508,61.52-69.518c-10.658-3.619-21.274-7.173-29.994-10.459
		C248.029,327.624,256.905,334.678,261.134,340.668"/>
	<path fill="#EC2024" d="M296.012,318.982c-2.48-0.698-4.657-2.072-6.937-3.009c-1.409-0.575-2.75,1.599-4.264,0.703
		c-3.063-1.836-5.699-4.457-8.144-6.395c-1.939-1.553-5.806-5.412-7.482-4.647c-0.637,0.298-1.583,3.898-3.168,2.703
		c-3.821-2.848-6.289-5.935-9.859-9.048c-1.618-1.409-3.185,3.272-5.255,2.279c-4.76-2.326-6.667-7.465-10.337-11.139
		c-4.271-4.245-8.354-9.18-14.237-10.729c-0.983-0.27-0.427,1.154-1.358,1.889c-4.488,3.507-9.423-2.499-13.791-4.492
		c-3.994-1.852-7.519-4.775-12.007-5.098c-0.967-0.051-0.933,1.377-0.557,1.82c25.626,30.316,61.216,53.072,100.275,52.156
		c0.912-0.017,2.767,0.079,1.234-1.795C298.925,322.689,297.558,319.409,296.012,318.982"/>
	<path fill="#EC2024" d="M332.303,296.899c-1.14-0.176-2.923,1.356-3.896,1.173c-3.027-0.547-5.42-3.295-9.11-5.236
		c-1.516-0.783-2.297,2.803-3.49,2.721c-6.098-0.345-14.896-6.821-20.337-10.081c-0.981-0.565-6.787,0.589-7.752,0.791
		c-3.49,0.689-7.943-5.438-10.71-6.726c-2.062-0.957-4.97-2.01-6.944-0.514c-2.696,1.992-5.883,0.92-8.807,0.887
		c-1.156-0.016-2.158,2.396-3.567,2.856c-4.003,1.287-8.442-1.516-12.383,0.442c-0.106,0.053-0.661,0.882-0.629,1.154
		c0.271,2.483,3.029,2.891,4.848,3.997c6.76,4.133,13.688,6.899,20.858,9.808c10.721,4.342,21.736,7.587,33.415,8.638
		c13.13,1.175,30.863,2.995,41.661-0.198c0.551-0.175-0.302-2.248-1.95-3.492c-1.685-1.306-4.182-1.783-5.234-2.513
		C335.834,298.874,334.534,297.22,332.303,296.899"/>
	<path fill="#EC2024" d="M389.011,270.881c-2.977,0.871-5.273-1.299-7.754-0.358c-0.562,0.236-0.957,1.156-1.442,1.175
		c-4.645,0.069-7.771-4.951-12.521-4.576c-1.183,0.104-1.167,2.193-2.16,2.422c-2.939,0.693-5.545-2.864-8.179-1.585
		c-1.87,0.914-3.194,0.853-5.012,0.32c-2.334-0.678-4.08-2.758-6.345-3.113c-1.975-0.322-3.958,1.654-6.203,1.008
		c-5.61-1.634-9.956-6.958-15.968-5.697c-2.977,0.643-5.516-1.394-7.584-0.159c-2.232,1.332-2.894,2.96-5.155,4.308
		c-1.547,0.933-5.168,0.802-6.787,1.802c-1.234,0.749-1.53,2.638-2.939,3.211c-2.615,1.105-5.741,0.322-8.216,1.708
		c-0.285,0.182-0.442,1.556,0.604,1.834c17.609,4.845,34.363,10.146,52.287,10.1c17.578-0.015,35.024,0.062,52.289-5.271
		c1.375-0.408,1.66-1.228,0.532-2.516C396.036,272.664,392.685,269.794,389.011,270.881"/>
	<path fill="#EC2024" d="M442.167,231.958c-3.912,1.821-8.464-0.189-12.807,0.818c-1.141,0.269-0.288,1.889-1.41,2.052
		c-4.262,0.61-8.674-0.476-12.685,1.09c-3.123,1.209-6.885-0.166-10.322-0.088c-1.306,0.036-1.338,1.793-1.551,3.202
		c-0.181,1.232-1.999,1.946-2.529,1.783c-4.282-1.263-8.364-1.729-12.67-2.368c-10.869-1.594-21.614-5.047-31.828-1.999
		c-3.338,1.001-7.738,1.819-10.29,4.421c-0.989,0.999-2.025,2.996-3.333,3.479c-6.247,2.246-13.042,2.689-19.254,4.882
		c-1.899,0.68-5.476,3.317-4.144,3.674c26.08,6.648,51.56,7.336,78.63,2.263c19.841-3.707,38.034-9.303,55.088-18.893
		C451.776,234.646,445.144,230.575,442.167,231.958"/>
	<path fill="#EC2024" d="M486.416,187.782c-2.452,0.817-5.837-1.514-7.96,0.053c-3.158,2.321-6.865,1.913-10.104,1.575
		c-1.546-0.168-3.974-0.715-5.347,0.356c-0.871,0.688,0.388,1.81,1.232,2.559c-8.179,2.817-17.186,0.182-24.911,3.296
		c-0.591,0.256-0.932,3.091-2.357,3.368c-7.107,1.444-13.756-1.351-20.814-0.071c-1.783,0.339-0.978,4.136-2.872,4.229
		c-6.326,0.295-12.487-0.235-18.795-0.506c-7.518-0.305-14.438,2.427-21.547,4.604c-2.104,0.635-2.749,3.986-5.012,4.325
		c-6.124,0.948-12.364-0.139-17.958,2.617c-0.392,0.202-0.41,2.091,0,2.31c6.856,3.859,14.721,6.55,19.386,12.791
		c47.712-0.478,99.032-6.721,138.738-39.28c0.779-0.646-3.925-1.618-6.44-2.21c-2.47-0.564-4.506-0.564-7.499-1.548
		C491.483,185.379,489.035,186.929,486.416,187.782"/>
	<path fill="#EC2024" d="M535.947,142.924c-0.481-0.277-7.701-1.583-11.695-0.634c-0.835,0.191-1.347,1.583-2.175,1.705
		c-5.125,0.845-8.76,3.297-13.999,3.443c-1.089,0.054-3.445,0.818-4.867,1.498c-1.887,0.905-4.488-1.341-5.969,0.33
		c-0.963,1.069,0.706,3.655-1.034,4.481c-4.569,2.13-9.895-1.697-14.368,1.191c-1.276,0.854,1.396,3.707-0.287,4.219
		c-6.429,2.02-17.534-7.943-21.718,2.411c-0.659,1.618-2.671,0.871-3.923,0.549c-1.212-0.324-2.942-0.871-3.656-0.269
		c-3.936,3.192-6.248,4.472-11.772,2.923c-1.41-0.41-1.426,3.758-4.131,3.089c-3.124-0.73-6.102-2.977-8.956-1.714
		c-1.315,0.592-0.33,4.046-2.263,4.221c-7.725,0.749-15.695-0.375-22.823,2.801c-1.75,0.783-1.926,3.943-4.369,4.352
		c-5.439,0.888-10.85,0.261-15.898,1.905c-0.817,0.259-0.636,2.673,0.61,2.862c3.264,0.487,6.934-0.035,9.441,1.461
		c3.054,1.817,4.993,6.971,7.986,7.093c23.737,0.967,47.364-2.542,70.266-10.139c24.06-7.979,46.153-18.941,65.601-35.945
		C537.138,143.716,536.528,143.281,535.947,142.924"/>
</g>
</svg>
