<?xml version="1.0" encoding="utf-8"?>
<!-- Generator: Adobe Illustrator 16.0.4, SVG Export Plug-In . SVG Version: 6.00 Build 0)  -->
<!DOCTYPE svg PUBLIC "-//W3C//DTD SVG 1.1//EN" "http://www.w3.org/Graphics/SVG/1.1/DTD/svg11.dtd">
<svg version="1.1" id="Layer_1" xmlns="http://www.w3.org/2000/svg" xmlns:xlink="http://www.w3.org/1999/xlink" x="0px" y="0px" viewBox="0 0 575.849 467.667" enable-background="new 0 0 575.849 467.667"
	 xml:space="preserve">
<g>
	<path id="path2644_1_" fill="#FFFFFF" d="M498.271,339.166c-6.578-14.197-7.558-17.033-7.558-17.033s-5.598-24.662-10.127-30.087
		c-4.523-5.433-12.341-8.767-12.341-8.767s-0.866-1.099-2.434-3.012c6.905-11.767,18.363-32.731,28.299-57.729
		c15.428-38.828,21.907-55.415,16.667-53.54c-5.25,1.881-41.027,20.038-62.94,29.115c-21.896,9.081-36.401,15.66-38.554,18.473
		c-0.96,1.253-1.613,2.312-2.32,3.25c-20.869-17.887-46.386-37.223-72.386-53.445c-34.14-21.287-38.658-23.373-54.709-24.626
		c-16.04-1.253-44.4,0.392-58.08,2.156c-5.192,0.672-10.878,2.036-16.185,3.565c-52.437,10.732-72.201,43.321-72.201,43.321
		s-3.138,30.674,11.309,63.874c9.665,0,17.28-1.457,23.447-1.669c33.305,19.376,28.823,28.031,18.525,33.422
		c15.553,11.043,41.413,31.606,46.238,33.182c7.713,2.537,15.292,5.851,19.043,7.801c10.172,5.327,30.84,19.413,50.584,31
		c19.744,11.586,60.762,38.833,70.323,40.399c9.56,1.563,23.161,3.823,30.564,3.509c7.393-0.306,11.817-2.045,11.817-2.045
		s10.027,2.923,19.894,2.923c9.878,0,17.012-3.771,17.012-3.771s7.402,4.381,23.441,5.637c0,0,10.51,0.847,20.382,0.727
		c10.193,0.224,17.607-1.506,18.754-2.889C516.61,400.644,504.854,353.358,498.271,339.166"/>
	<path id="path2628" fill="#FFFFFF" d="M378.908,391.563c-0.997-1.472-3.381-2.191-4.337-4.749
		c-0.441-1.154-0.722-2.607-1.708-3.106c0,0-3.887,5.816-2.038,14.474c3.966,0.949,7.978-3.027,7.978-3.027
		S379.604,392.59,378.908,391.563 M355.024,383.893c-4.817,1.83-6.355,5.298-6.355,5.298s0.982,0.743,1.913,2.079
		c0.932,1.335,1.172,3.229,1.232,3.82c0.06,0.586,5.168-0.098,5.168-0.098c1.442-0.353,5.419-10.811,5.419-10.811
		s0.842-2.333,0.451-2.832C362.456,380.846,359.852,382.055,355.024,383.893"/>
	<path id="path2630" fill="#020202" stroke="#FFFFFF" stroke-miterlimit="10" d="M491.865,117.046l-28.035,5.458
		c-1.122,0.22-113.232,21.796-183.906,21.796c-69.803,0-179.755-20.91-184.402-21.801l-35.612-6.632l219.774,346.841
		l220.024-347.414L491.865,117.046z"/>
	<path id="path2632" fill="#F18F22" d="M465.447,131.265c-4.647,0.9-114.635,21.957-185.523,21.957
		c-70.604,0-181.312-21.057-185.99-21.952l-15.645-3.028l201.395,313.516l201.394-313.536L465.447,131.265z"/>
	<path id="path2634" fill="#0B545E" d="M465.933,133.926L465.933,133.926c-4.653,0.9-114.795,22.006-186.01,22.006
		c-70.849,0-181.828-21.111-186.516-22.006l-9.485-1.839l195.761,304.75l195.76-304.765L465.933,133.926z"/>
	<path id="path2636" fill="#FFFFFF" d="M459.663,141.698c-18.63,3.399-114.86,20.358-179.739,20.358
		c-64.854,0-160.829-17.413-179.414-20.901l-2.294-0.43l181.473,282.31l182.264-281.752L459.663,141.698z"/>
	<path id="path2638" fill="#020202" d="M71.282,123.302l79.067,123.16c0,0-5.825-50.098,22.01-62.653
		c27.835-12.561,61.239-37.111,61.239-37.111L71.282,123.302z"/>
	<path id="path2642" fill="#0B545E" d="M154.181,254.449c0.596,1.565,2.083,4.007,3.24,6.696c9.33,0,16.111-1.58,22.07-1.785
		c0,0,26.112,26.492,26.643,16.846c0.531-9.631-16.151-29.314-31.105-27.143C160.07,251.241,152.127,247.479,154.181,254.449"/>
	<path id="path2644" fill="#020202" d="M496.505,337.858c-6.351-13.847-7.297-16.615-7.297-16.615s-5.403-24.056-9.775-29.348
		c-4.367-5.298-11.914-8.551-11.914-8.551s-0.837-1.071-2.35-2.939c6.666-11.476,17.729-31.926,27.319-56.31
		c14.894-37.874,21.149-54.054,16.091-52.225c-5.068,1.834-39.608,19.546-60.763,28.399c-21.139,8.858-35.142,15.276-37.22,18.02
		c-0.927,1.223-1.558,2.255-2.239,3.17c-20.147-17.448-44.781-36.309-69.882-52.132c-32.958-20.764-37.32-22.798-52.815-24.021
		c-15.485-1.223-42.864,0.382-56.07,2.104c-5.013,0.655-10.502,1.986-15.625,3.478c-50.622,10.468-69.702,42.257-69.702,42.257
		s-3.03,29.92,10.917,62.306c9.33,0,16.682-1.423,22.636-1.629c32.152,18.9,27.825,27.343,17.884,32.601
		c15.015,10.771,39.979,30.83,44.637,32.367c7.447,2.475,14.764,5.707,18.385,7.61c9.82,5.194,29.773,18.935,48.833,30.238
		c19.061,11.3,58.659,37.879,67.89,39.405c9.229,1.525,22.36,3.731,29.507,3.424c7.137-0.299,11.408-1.996,11.408-1.996
		s9.681,2.852,19.206,2.852c9.535,0,16.422-3.678,16.422-3.678s7.146,4.274,22.631,5.498c0,0,10.146,0.826,19.677,0.709
		c9.841,0.22,16.998-1.468,18.104-2.817C514.208,397.827,502.861,351.702,496.505,337.858"/>
	<path id="path2646" fill="#FFFFFF" d="M418.206,389.827c-7.562,0.006-21.144,0.016-26.623-0.963l-2.394-0.421l2.099-1.267
		c3.125-1.898,6.721-4.148,9.02-5.968c-8.864,0.366-23.228-0.099-27.534-1.204l-1.588-0.405l1.202-1.149
		c1.156-1.11,2.895-2.494,4.732-3.952c1.974-1.57,4.087-3.272,5.569-4.7c-6.466,0.694-16.236,1.501-21.039,1.311l-1.963-0.074
		l1.688-1.838c1.438-1.561,4.137-4.51,5.429-6.937c-0.07,0.015-0.271,0.049-0.271,0.049c-5.233,0.905-12.4,2.152-15.415,2.04
		l-1.652-0.059l0.946-1.385c1.353-1.947,2.725-3.986,3.636-5.518c-0.666,0.127-1.352,0.265-1.352,0.265
		c-3.781,0.797-8.479,1.8-11.013,0.997l-1.202-0.376l0.746-1.037c1.442-2.015,2.038-3.399,2.323-4.329
		c-2.779,0.715-7.251,1.58-9.766,0.523l-1.236-0.514l0.946-0.979c0.716-0.733,1.357-1.932,1.732-2.934
		c-10.707-0.104-16.857,1.746-16.857,1.746c16.677,0.611,33.55,25.855,37.922,30.536c4.366,4.681,17.468,10.796,33.949,12.624
		c12.535,1.395,21.319-0.254,23.844-0.831C415.426,392.2,416.798,391.114,418.206,389.827"/>
	<path id="path2648" fill="#FFFFFF" d="M404.534,373.548c-18.064-9.562-28.986-18.317-50.821-22.593
		c-6.261-1.229-11.845-1.766-16.612-1.912c-0.315,1.031-0.852,2.112-1.422,2.982c2.293,0.274,5.864-0.405,8.784-1.266l1.142-0.328
		v1.213c0,0.832-0.391,2.627-2.129,5.404c2.364,0.152,6.015-0.592,8.854-1.197l4.903-0.949l-0.671,1.584
		c-0.506,1.204-1.844,3.287-3.666,5.979c3.455-0.255,9.265-1.258,13.336-1.962l3.285-0.567l-0.38,1.389
		c-0.691,2.539-3.401,5.732-5.409,7.969c5.323-0.035,14.389-0.793,21.119-1.58l1.948-0.225l-1.112,1.652
		c-1.207,1.82-4.387,4.354-7.467,6.799c-1.182,0.944-2.248,1.811-3.205,2.617c5.909,0.855,19.872,1.258,27.699,0.705l2.169-0.147
		l-1.433,1.673c-1.518,1.766-5.198,4.227-9.029,6.594c6.391,0.626,17.679,0.616,24.144,0.611l4.082-0.005l-1.532,1.565
		c-0.691,0.719-2.209,2.25-4.202,3.775c2.975,0.611,8.488,1.658,11.844,1.806c5.555,0.229,12.11,0.812,19.062-0.812
		C438.083,389.846,422.598,383.121,404.534,373.548"/>
	<path id="path2650" fill="#0B545E" d="M260.792,205.584c0,0,10.321,7.738,21.044,21.986c10.728,14.254,17.868,25.249,15.886,26.473
		c-1.983,1.223-9.927-2.446-9.927-2.446s17.269,10.966,33.154,25.215c15.875,14.259,24.019,22.427,24.019,22.427
		s25.816-0.41,28.591,6.109c2.784,6.516,3.977,9.362,5.959,13.031c1.983,3.663,14.299,21.986,15.881,21.986
		c1.593,0,6.396-0.024,7.587-1.248c1.192-1.227,3.136-5.268,3.136-5.268s1.593,8.961-1.588,13.437
		c3.135,2.46,32.583,21.884,58.204,32.948c22.301,9.621,42.308,17.428,44.291,15.389c1.988-2.035-8.789-42.639-15.14-56.48
		c-6.354-13.843-7.302-16.616-7.302-16.616s-5.403-24.056-9.775-29.349c-4.362-5.297-11.909-8.555-11.909-8.555
		s-19.451-24.883-41.692-46.057c-22.23-21.175-54.402-47.187-87.351-67.956c-32.963-20.769-37.325-22.803-52.814-24.021
		c-15.485-1.223-40.1,1.174-53.201,3.615c-13.106,2.445-30.584,8.956-30.584,8.956s17.874,8.555,36.534,23.62L260.792,205.584z"/>
	<path id="path2686_1_" fill="#FFFFFF" d="M171.309,253.983c0,0-25.588,2.701-73.042,4.6c-47.455,1.898-98.023,2.327-98.256,3.295
		c-0.922,3.791,61.166,32.927,136.114,53.262c80.902,21.944,91.566,25.74,136.866,24.794c-4.622-6.636-9.856-12.005-18.793-19.277
		C245.257,313.388,201.814,270.416,171.309,253.983"/>
	<path id="path2652" fill="#F18F22" d="M361.054,313.693c0,0,6.945,6.516,11.117,12.62c4.172,6.113,11.118,17.311,11.118,17.311
		s-9.335-4.275-11.909-5.703c-2.579-1.429-4.763-3.053-4.763-3.053s-2.979-6.922-3.776-11.196
		C362.045,319.391,361.054,313.693,361.054,313.693"/>
	<path id="path2654" fill="#0B545E" d="M311.855,295.023l4.717,6.661c0,0-5.163,21.508-4.542,27.92
		C312.03,329.604,308.224,314.197,311.855,295.023"/>
	<path id="path2656" fill="#0B545E" d="M300.331,284.081l4.713,7.65c0,0-4.327,23.816-3.235,31.901
		C301.808,323.632,296.71,306.083,300.331,284.081"/>
	<path id="path2658" fill="#0B545E" d="M288.927,274.127l4.713,6.662c0,0-3.721,24.936-2.624,35.628
		C291.016,316.417,285.192,297.639,288.927,274.127"/>
	<path id="path2684" fill="#0B545E" d="M262.976,235.309c0,0-41.097-26.472-68.095-34c-27.003-7.533-29.382-8.555-30.975-7.327
		c-1.587,1.218-6.15,4.681-6.15,4.681s3.966-8.144,5.955-8.144s18.665,2.852,42.288,12.213
		C229.176,211.923,248.688,225.331,262.976,235.309"/>
	<path id="path2688_1_" fill="#FFFFFF" d="M268.088,189.561c0,0,5.784-25.985,34.147-20.549
		c28.358,5.431,30.499-25.084,33.39-26.921c5.045-3.188,9.79,3.524-28.297-42.778C273.342,57.994,224.409,16.01,188.176,0.037
		c-3.931-1.735,30.563,57.839,44.737,97.14c14.18,39.306,11.816,45.848,11.816,45.848s35.831,11.423,11.886,17.174
		c-23.95,5.753-38.442,21.435,8.822,31.982"/>
	<path id="path2686" fill="#020202" d="M179.562,255.77c0,0-25.154,2.611-71.807,4.445c-46.652,1.835-96.365,2.25-96.595,3.185
		c-0.906,3.664,60.131,31.823,133.812,51.477c79.535,21.209,90.018,24.878,134.551,23.963c-4.544-6.413-9.689-11.603-18.476-18.631
		C252.26,313.184,209.55,271.652,179.562,255.77"/>
	<path id="path2688" fill="#020202" d="M250.763,205.91c0,0,23.523-4.28,50.332,0.915c26.803,5.189,72.837,22.016,75.571,20.26
		c4.768-3.047-34.761-81.23-70.759-125.483C273.785,62.114,227.536,21.99,193.291,6.724c-3.716-1.658,28.886,55.277,42.283,92.838
		c13.402,37.565,11.168,56.568,11.168,56.568s-32.011-1.834-54.643,3.664C169.462,165.292,206.091,195.829,250.763,205.91"/>
	<path id="path2690" fill="#020202" stroke="#FFFFFF" stroke-miterlimit="10" d="M375.502,369.606
		c-0.11-0.127-2.339-1.996-3.711-4.001c-0.07-1.281-0.326-4.064-1.362-5.009c-0.211-1.258-2.113-1.707-4.282-1.683
		c-3.741,0.044-4.737-1.164-10.041-0.304c-5.313,0.866-16.316,3.199-45.273,3.097c0,0-39.388,0.21-59.1-1.203
		c-19.712-1.419-28.396-2.944-29.963-1.907c-1.562,1.017-30.885,23.136-47.857,40.681c-16.958,17.551-30.76,35.668-39.133,46.067
		c-8.368,10.379-11.859,16.474-11.648,17.281c0.11,0.415,2.133,3.565,2.398,4.235c0.411,1.008,15.75-0.763,28.156-1.096
		c12.405-0.327,28.756-0.494,29.337-1.311c0.586-0.812,9.23-23.122,26.368-42.086c17.158-18.963,36.273-37.741,38.236-37.556
		c1.979,0.176,49.229-1.325,71.275-3.57c22.03-2.245,50.762-5.375,52.52-6.599C373.178,373.412,376.894,371.206,375.502,369.606"/>
	<path id="path2708" fill="#FFFFFF" d="M206.665,391.387c-7.808-0.494-13.877-0.709-18.57-0.764
		c-4.342,3.889-8.509,7.837-12.125,11.568c-0.821,0.856-1.638,1.712-2.444,2.563c11.764-1.354,31.726-3.111,44.607-1.291
		c2.313-2.539,4.663-5.072,6.971-7.519C221.579,393.848,215.885,391.979,206.665,391.387"/>
	<path id="path2710" fill="#FFFFFF" d="M171.599,406.81c-3.886,4.162-7.567,8.31-11.038,12.331
		c4.883-0.484,11.964-0.92,22.576-1.253c9.064-0.273,16.051,0.274,20.769,1.595c0.611-0.763,1.167-1.413,1.643-1.941l0.22-0.245
		c3.2-3.639,6.966-7.88,10.883-12.208C204.066,403.645,184.509,405.25,171.599,406.81"/>
	<path id="path2712" fill="#FFFFFF" d="M183.192,419.713c-12.074,0.371-19.532,0.89-24.369,1.452
		c-1.252,1.487-2.474,2.931-3.671,4.363c3.541-0.606,8.398-1.315,14.969-2.04l2.128-0.244c11.944-1.32,23.363-2.593,29.788-1.354
		c0.23-0.309,0.446-0.606,0.671-0.886C198.883,420.055,192.808,419.415,183.192,419.713"/>
	<path id="path2714" fill="#FFFFFF" d="M165.77,444.018c10.792-0.479,15.51-0.689,21.449,0.636c1.663-2.935,3.391-5.806,5.108-8.55
		c-3.781-1.551-9.295-2.9-17.113-2.979c-10.056-0.098-19.181,0.054-26.628,0.426c-2.564,3.169-4.943,6.162-7.111,8.906l-3.325,4.158
		c6.455-1.027,15.149-2.045,24.354-2.451L165.77,444.018z"/>
	<path id="path2716" fill="#FFFFFF" d="M172.435,425.059l-2.124,0.235c-7.938,0.88-13.376,1.741-16.962,2.416
		c-1.106,1.34-2.188,2.666-3.24,3.957c7.177-0.322,15.741-0.46,25.116-0.357c8.298,0.084,14.107,1.526,18.099,3.214
		c2.669-4.187,5.278-7.978,7.517-11.035C194.486,422.599,182.932,423.885,172.435,425.059"/>
	<path id="path2718" fill="#FFFFFF" d="M190.86,388.165c-0.25,0.225-0.511,0.439-0.761,0.674c4.412,0.084,9.881,0.309,16.677,0.734
		c8.619,0.558,15.179,2.24,19.611,5.014c0.506-0.523,0.997-1.047,1.498-1.565c-1.277-0.602-2.669-1.159-4.111-1.653
		C218.649,389.626,199.714,388.575,190.86,388.165"/>
	<path id="path2720" fill="#FFFFFF" d="M205.348,375.926c-3.957,3.223-8.258,6.809-12.515,10.506
		c9.535,0.465,26.478,1.507,31.496,3.209c1.643,0.558,3.315,1.237,4.878,2.01c4.051-4.167,7.788-7.816,10.767-10.345
		c-3.05-1.658-8.093-3.214-16.366-4.231C216.105,376.146,210.125,375.852,205.348,375.926"/>
	<path id="path2722" fill="#FFFFFF" d="M194.19,436.471c0.141,0.836,0.286,1.673,0.421,2.47c2.259-3.526,4.612-6.872,7.042-10.042
		c-0.141-0.865-0.301-1.844-0.471-2.842C199.038,429.041,196.634,432.602,194.19,436.471"/>
	<path id="path2724" fill="#FFFFFF" d="M205.278,424.394c0.932-1.101,1.863-2.206,2.814-3.258c0.12-0.132,3.932-4.339,9.165-9.895
		c-0.12-0.979-0.301-2.23-0.506-3.586c-3.07,3.404-6.305,7.029-9.666,10.854l-0.235,0.264c-0.606,0.675-1.337,1.556-2.168,2.603
		C204.832,422.129,205.053,423.235,205.278,424.394"/>
	<path id="path2726" fill="#FFFFFF" d="M226.597,397.012c0.291,1.125,0.616,2.353,0.921,3.521c0.471-0.483,0.947-0.963,1.417-1.447
		c-0.155-1.208-0.335-2.617-0.516-4.001C227.824,395.711,227.213,396.352,226.597,397.012"/>
	<path id="path2728" fill="#FFFFFF" d="M239.909,383.684c-2.609,2.371-5.97,5.678-9.906,9.763c0.155,1.267,0.345,2.694,0.516,4.055
		c3.391-3.399,6.686-6.584,9.5-9.103C239.989,386.868,239.949,385.175,239.909,383.684"/>
	<path id="path2730" fill="#FFFFFF" d="M193.193,441.215c-0.14-0.836-0.285-1.673-0.416-2.475c-1.407,2.284-2.814,4.661-4.167,7.053
		c0.135,0.856,0.265,1.747,0.396,2.603C190.364,445.936,191.761,443.539,193.193,441.215"/>
	<path id="path2732" fill="#FFFFFF" d="M225.16,398.539c-2.169,2.304-4.458,4.783-6.856,7.415c0.175,1.218,0.361,2.485,0.521,3.62
		c2.269-2.393,4.728-4.975,7.247-7.558C225.746,400.774,225.425,399.561,225.16,398.539"/>
	<path id="path2734" fill="#FFFFFF" d="M203.24,423.245c-0.195,0.265-0.386,0.533-0.586,0.802c0.155,0.988,0.326,1.996,0.491,2.97
		c0.225-0.284,0.436-0.577,0.676-0.861C203.61,425.113,203.41,424.086,203.24,423.245"/>
	<path id="path2736" fill="#F18F22" d="M371.19,369.053c-1.021-0.484-2.559-1.223-2.8-3.272l-0.064-1.271
		c-0.045-2.089-0.176-2.152-1.353-2.143c-1.562,0.015-2.729-0.171-3.751-0.333c-1.623-0.259-3.02-0.484-6.045,0.01l-1.442,0.245
		c-5.653,0.958-17.423,2.97-44.096,2.871c-0.396,0-39.689,0.19-59.235-1.213l-17.879-1.511c-5.664-0.529-10.126-0.939-11.083-0.627
		c-0.861,0.598-7.402,5.488-15.846,12.302c4.447,0.029,9.786,0.357,16.221,1.154c8.038,0.993,13.927,2.603,17.644,4.818
		c2.023-1.6,3.565-2.499,4.397-2.427c2.899,0.206,50.241-0.547,71.916-2.764l38.607-3.82c7.142-0.68,9.055-0.865,9.565-1.065
		l0.15-0.063h0.155c1.477-0.01,3.855-0.146,5.909-0.328C371.872,369.411,371.556,369.229,371.19,369.053"/>
	<path id="path2738" fill="#F18F22" d="M165.844,445.837l-3.26,0.143c-10.427,0.454-19.827,1.688-26.127,2.759
		c-5.524,6.901-7.968,10.707-9.04,12.722c3.185-0.146,8.188-0.444,12.52-0.704l14.068-0.743c7.877-0.226,22.802-0.689,26.007-1.018
		c1.748-4.104,3.926-8.433,6.29-12.693C180.878,445.163,176.296,445.364,165.844,445.837"/>
	<path id="path2740" fill="#020202" stroke="#FFFFFF" stroke-miterlimit="10" d="M574.658,197.459
		c0.691-5.141,0.691-9.988,0.691-9.988s-8.564-2.294-13.657-2.426c-5.093-0.122-13.652,1.213-13.652,1.213
		s-4.777,6.995-5.899,10.003c-0.3,0.768,1.268,8.218,1.268,8.218s-7.332,13.397-12.405,23.336
		c-5.063,9.939-13.377,25.43-25.171,44.222c-10.637,16.944-18.614,29.745-18.614,29.745l3.655,8.677l3.436-2.582l0.872-0.338
		l2.975,0.25c0,0,5.424-6.262,12.405-13.441c6.99-7.172,22.546-32.088,32.512-46.258c9.951-14.17,19.537-35.159,19.537-35.159
		s4.942-0.528,7.771-1.819c2.83-1.296,3.491-5.586,3.491-5.586S574.052,201.994,574.658,197.459"/>
	<path id="path2742" fill="#F18F22" d="M555.672,195.425c0,0,10.387,0.215,11.077,0.225c0.712-0.792,2.86-3.277,4.272-5.865
		c-2.158-0.259-6.525-0.739-10.121-0.827c-4.077-0.103-9.506,1.271-11.118,1.712c-0.937,1.282-2.594,3.683-3.666,5.674
		C548.571,195.802,551.791,195.366,555.672,195.425"/>
	<path id="path2744" fill="#F18F22" d="M496.347,295.922l1.316-1.271l-0.65,1.947c0,0.112-0.166,0.943-0.432,1.521
		c0.616-0.187,2.539-1.18,2.539-1.18s-3.004,5.464-3.841,6.618c0.23-0.146,2.875-2.284,3.105-2.427
		c2.874-2.02,18.62-23.942,32.897-47.886c6.596-11.074,22.136-38.563,30.72-51.985c-1.518-0.186-3.781-0.313-5.749-0.42
		c-3.211-0.181-4.938,0.533-6.476,1.154l-1.858,0.65c-0.676,0.768-2.398,3.918-2.398,3.918c-0.056,0.083-7.127,13.221-12.145,23.068
		c-4.903,9.616-14.819,27.558-24.505,43.626c-6.34,10.516-13.562,20.725-18.555,26.359
		C491.324,298.75,495.75,296.495,496.347,295.922"/>
	<path id="path2746" fill="#F18F22" d="M495,299.899c-0.516,0.156-0.991,0.289-1.042,0.304c-1.522,1.306-3.511,1.731-4.252,2.034
		c0.246,0.51,1.943,4.021,2.199,4.564c0.391-0.293,1.132-0.852,1.362-1.022c-0.15-0.436-0.336-0.979-0.546-1.648
		C493.492,302.77,494.333,300.809,495,299.899"/>
	<path id="path2748" fill="#020202" d="M356.982,394.993c0,0-5.108,0.684-5.168,0.098c-0.061-0.592-0.301-2.485-1.232-3.82
		c-0.931-1.336-1.913-2.079-1.913-2.079s1.538-3.468,6.355-5.298c4.828-1.838,7.432-3.047,7.828-2.543
		c0.391,0.499-0.451,2.832-0.451,2.832S358.424,394.64,356.982,394.993"/>
	<path id="path2750" fill="#F18F22" d="M360.267,383.546c-0.525,0.206-1.097,0.426-1.662,0.646l-2.905,1.125
		c-2.714,1.032-4.161,2.622-4.853,3.58c0.391,0.392,0.832,0.891,1.277,1.531c0.375,0.533,1.337,2.167,1.548,2.75
		C355.8,390.287,359.777,385.489,360.267,383.546"/>
	<path id="path2752" fill="#020202" d="M509.032,321.67c0,0,4.447-2.597,4.092-3.18c-0.351-0.596-1.452-2.538-1.643-4.387
		c-0.181-1.84,0.08-3.17,0.08-3.17s-3.546-2.279-8.554-0.953c-5.013,1.335-7.867,1.854-7.822,2.572
		c0.029,0.719,0.681,2.676,0.681,2.676S507.669,322.262,509.032,321.67"/>
	<path id="path2754" fill="#F18F22" d="M498.691,312.989c0.545-0.156,1.142-0.299,1.732-0.45l3.035-0.782
		c2.804-0.748,5.013-0.186,6.205,0.283c-0.03,0.617-0.041,1.365,0.05,2.25c0.07,0.738,0.255,1.463,0.48,2.143
		C506.573,315.063,501.97,313.493,498.691,312.989"/>
	<path id="path2756" fill="#020202" d="M378.908,391.563c-0.997-1.472-3.381-2.191-4.337-4.749
		c-0.441-1.154-0.722-2.607-1.708-3.106c0,0-3.887,5.816-2.038,14.474c3.966,0.949,7.978-3.027,7.978-3.027
		S379.604,392.59,378.908,391.563"/>
	<path id="path2758" fill="#F18F22" d="M376.343,394.284l0.245-0.216l-0.22-0.317c-0.812-1.224-1.983-3.131-2.97-5.391l-0.346-0.773
		l-0.226,0.729c-0.521,1.693-1.076,4.383-0.767,7.616l0.046,0.489l1.457-0.396C374.446,395.667,375.381,395.081,376.343,394.284"/>
</g>
</svg>
