<?xml version="1.0" encoding="utf-8"?>
<!-- Generator: Adobe Illustrator 16.0.4, SVG Export Plug-In . SVG Version: 6.00 Build 0)  -->
<!DOCTYPE svg PUBLIC "-//W3C//DTD SVG 1.1//EN" "http://www.w3.org/Graphics/SVG/1.1/DTD/svg11.dtd">
<svg version="1.1"
	 id="Layer_1" xmlns:sodipodi="http://sodipodi.sourceforge.net/DTD/sodipodi-0.dtd" xmlns:svg="http://www.w3.org/2000/svg" xmlns:dc="http://purl.org/dc/elements/1.1/" xmlns:cc="http://creativecommons.org/ns#" xmlns:rdf="http://www.w3.org/1999/02/22-rdf-syntax-ns#" xmlns:inkscape="http://www.inkscape.org/namespaces/inkscape" inkscape:version="0.48.2 r9819" sodipodi:docname="AJAX.svg"
	 xmlns="http://www.w3.org/2000/svg" xmlns:xlink="http://www.w3.org/1999/xlink" x="0px" y="0px" viewBox="28.125 108.319 405.795 383.48" enable-background="new 28.125 108.319 405.795 383.48"
	 xml:space="preserve">
<sodipodi:namedview  guidetolerance="10" showgrid="false" fit-margin-left="0" inkscape:zoom="0.65658057" inkscape:cy="179.71096" bordercolor="#666666" pagecolor="#ffffff" inkscape:cx="-44.97061" fit-margin-top="0" objecttolerance="10" gridtolerance="10" borderopacity="1" id="namedview252" inkscape:window-maximized="1" inkscape:current-layer="g236" fit-margin-bottom="0" fit-margin-right="0" inkscape:window-y="-8" inkscape:window-x="-8" inkscape:pageopacity="0" inkscape:window-width="1280" inkscape:pageshadow="2" inkscape:window-height="1004">
	</sodipodi:namedview>
<g>
	<path id="path244" inkscape:connector-curvature="0" fill="#003E7E" stroke="#FFFFFF" stroke-width="2" stroke-miterlimit="10" d="
		M432.921,280.092c0-40.762-25.336-80.941-70.311-105.628l-17.229,13.671c30.731,19.334,48.82,48.236,48.82,81.038
		c0,76.546-94.599,145.883-199.869,145.883c-10.801,0-21.404-0.795-31.632-2.312l-35.527,26.292
		c22.431,7.589,47.458,11.614,73.62,11.614C325.76,450.649,432.921,366.283,432.921,280.092"/>
	<path id="path246" inkscape:connector-curvature="0" fill="#003E7E" stroke="#FFFFFF" stroke-width="2" stroke-miterlimit="10" d="
		M273.977,308.552l-64.292,12.579l142.603-117.183l-66.391,8.898l129.041-102.344l-150.22,39.53
		c-1.98-0.041-3.977-0.073-5.974-0.073C135.633,149.958,31,233.62,31,321.893c0,43.319,23.327,77.768,59.485,100.093l-55.512,63.5
		L273.977,308.552z M48.164,308.844c0-79.154,99.054-145.882,199.869-145.882c0.698,0,1.379,0.017,2.077,0.024L152.643,272.03
		l56.044-8.867L98.262,369.952l44.784-8.083l-31.28,35.789C73.747,379.656,48.164,348.608,48.164,308.844"/>
</g>
</svg>
