<?xml version="1.0" encoding="utf-8"?>
<!-- Generator: Adobe Illustrator 16.0.4, SVG Export Plug-In . SVG Version: 6.00 Build 0)  -->
<!DOCTYPE svg PUBLIC "-//W3C//DTD SVG 1.1//EN" "http://www.w3.org/Graphics/SVG/1.1/DTD/svg11.dtd">
<svg version="1.1" id="Layer_1" xmlns="http://www.w3.org/2000/svg" xmlns:xlink="http://www.w3.org/1999/xlink" x="0px" y="0px"
	 width="579.194px" height="650px" viewBox="0 0 579.194 650" enable-background="new 0 0 579.194 650" xml:space="preserve">
<g>
	<path fill="#9CA0A6" d="M283.255,0h12.629c55.549,0.845,111.013,10.433,163.384,29.048c25.35,8.964,49.973,19.981,73.554,32.903
		c3.231,1.957,6.806,3.413,9.783,5.753c2.521,5.259,4.335,10.861,6.422,16.315c18.343,50.921,28.717,104.761,30.167,158.886v18.564
		c-1.021,40.768-7.769,81.627-22.445,119.782c-12.351,33.014-28.587,64.616-48.71,93.567
		c-19.638,28.341-42.979,54.041-68.882,76.778c-24.569,21.618-51.467,40.41-78.845,58.272c-16.068,10.38-32.48,20.247-49.282,29.394
		c-7.066,3.704-13.995,7.74-21.399,10.737h-0.181c-2.51-0.917-4.895-2.113-7.268-3.321c-26.618-13.572-52.175-29.146-76.993-45.773
		c-17.966-12.193-35.724-24.759-52.533-38.524c-18.635-15.27-36.146-31.941-52.104-49.999
		c-31.285-35.313-56.206-76.16-73.801-119.912c-8.144-19.863-14.735-40.391-19.032-61.438
		c-10.068-48.763-9.679-99.275-2.353-148.388c5.792-38.376,15.769-76.135,29.971-112.262c0.67-1.561,1.099-3.478,2.743-4.316
		c36.075-20.696,74.795-36.764,114.901-47.769C195.375,6.571,239.302,0.695,283.255,0L283.255,0z"/>
	<path fill="#FDFEFE" d="M303.704,20.806c0.046-1.404-0.383-3.919,1.781-3.737c6.318,0.137,12.636,0.527,18.935,1.034
		c3.185,0.065,2.145,4.049,2.457,6.123c-1.813-0.137-3.627-0.279-5.44-0.41c-0.098-0.884-0.183-1.761-0.254-2.646
		c-3.971-0.156-7.93-0.507-11.901-0.559c0.013,0.5,0.025,1.501,0.038,2.002c4.979,1.508,9.933,3.126,14.886,4.719
		c0.962,0.357,2.009,0.63,2.795,1.326c0.487,2.542,0.865,5.272,0.078,7.787c-6.552-0.202-13.085-0.787-19.637-0.916
		c-1.105-0.137-2.574,0.059-3.224-1.079c-0.293-1.833-0.26-3.699-0.325-5.545c1.897,0.098,3.796,0.169,5.701,0.215
		c0,1.007,0.019,2.015,0.025,3.022c4.095,0.234,8.196,0.364,12.292,0.689c-0.039-0.604-0.117-1.813-0.156-2.418
		c-5.544-1.924-11.18-3.549-16.764-5.324C303.126,24.583,303.886,22.21,303.704,20.806L303.704,20.806z"/>
	<path fill="#FDFEFE" d="M259.673,17.732c1.911-0.169,3.828-0.299,5.752-0.403c3.484,5.98,7,11.94,10.537,17.895
		c-1.989,0.149-3.978,0.221-5.961,0.208c-0.552-1.033-1.104-2.066-1.657-3.093c-4.199,0.214-8.405,0.435-12.597,0.78
		c-0.676,1.144-1.365,2.268-2.054,3.406c-1.924,0.137-3.848,0.286-5.772,0.417C251.789,30.504,255.806,24.167,259.673,17.732
		L259.673,17.732z"/>
	<path fill="#FDFEFE" d="M204.859,23.816c5.804-0.773,11.57-2.125,17.433-2.333c1.45,1.469,0.163,3.88,0.306,5.74
		c-1.813,0.247-3.634,0.507-5.447,0.767c0.065-0.891,0.144-1.775,0.228-2.659c-3.958,0.559-7.91,1.144-11.836,1.859
		c-0.058,0.513-0.175,1.546-0.234,2.06c5.428,0.734,10.92,1.144,16.29,2.249c1.02,1.976,0.097,4.635-0.059,6.832
		c-0.208,1.833-2.398,1.735-3.757,2.021c-6.104,0.754-12.135,1.982-18.213,2.841c-0.26-0.156-0.773-0.462-1.027-0.611
		c-0.071-1.898,0.306-3.77,0.5-5.648c1.833-0.384,3.679-0.709,5.532-1.001c-0.118,1.014-0.228,2.035-0.338,3.048
		c4.017-0.644,8.034-1.287,12.064-1.892c0.065-0.812,0.137-1.625,0.227-2.438c-5.589-0.884-11.238-1.3-16.828-2.151
		c0.194-2.32,0.227-4.68,0.844-6.935C201.381,24.05,203.396,24.187,204.859,23.816L204.859,23.816z"/>
	<path fill="#9CA0A6" d="M257.821,29.562c1.554-2.632,3.068-5.285,4.608-7.93c1.346,2.483,2.717,4.953,4.102,7.416
		C263.625,29.166,260.72,29.341,257.821,29.562L257.821,29.562z"/>
	<path fill="#FDFEFE" d="M374.931,24.446c2.861-0.137,5.649,0.63,8.451,1.119c4.64,0.936,9.346,1.676,13.916,2.938
		c2.509,1.469,1.625,5.018,2.243,7.449c-1.854-0.37-3.692-0.786-5.506-1.287c-0.138-1.105-0.254-2.204-0.378-3.309
		c-4.361-1.027-8.775-1.813-13.168-2.671c0.455,3.861,0.936,7.716,1.358,11.569c4.413,0.911,8.84,1.755,13.246,2.717
		c-0.123-1.196-0.233-2.392-0.35-3.581c1.812,0.396,3.626,0.812,5.434,1.248c0.233,2.165,0.844,4.316,0.662,6.5
		c-0.26,0.117-0.786,0.351-1.046,0.468c-6.116-1.131-12.155-2.71-18.291-3.744c-1.424-0.338-3.022-0.357-4.231-1.254
		c-0.768-1.027-0.677-2.411-0.891-3.607C375.944,34.145,375.068,29.328,374.931,24.446L374.931,24.446z"/>
	<path fill="#FDFEFE" d="M168.803,31.057c1.761-0.462,3.543-0.884,5.33-1.254c-1.007,6.506-1.924,13.019-3.022,19.506
		c-1.774,0.429-3.549,0.871-5.317,1.313c-3.706-3.217-7.345-6.526-11.031-9.77c-0.917,4.505-1.723,9.029-2.613,13.533
		c-1.878,0.553-3.744,1.112-5.622,1.658c1.293-6.721,2.678-13.429,3.997-20.144c1.755-0.514,3.517-1.008,5.278-1.482
		c3.634,3.126,7.267,6.253,10.933,9.334C167.438,39.52,168.121,35.289,168.803,31.057L168.803,31.057z"/>
	<path fill="#FDFEFE" d="M423.012,34.723c1.781,0.494,3.556,1.014,5.337,1.541c1.339,6.656,2.756,13.292,4.043,19.955
		c-1.866-0.552-3.725-1.118-5.577-1.696C425.599,47.912,424.24,41.327,423.012,34.723L423.012,34.723z"/>
	<path fill="#FDFEFE" d="M450.729,43.134c7.812,2.464,15.516,5.259,23.152,8.203c0.39,1.456,0.773,2.906,1.163,4.355
		c-3.198-1.241-6.396-2.515-9.612-3.711c1.462,5.688,2.795,11.408,4.191,17.114c-1.892-0.78-3.771-1.592-5.636-2.431
		c-1.268-5.544-2.534-11.089-3.815-16.627c-2.859-1.059-5.752-2.041-8.639-3.029C451.261,45.721,450.987,44.428,450.729,43.134
		L450.729,43.134z"/>
	<path fill="#FDFEFE" d="M111.967,49.562c1.248-2.223,4.173-2.288,6.246-3.334c1.879,5.694,3.562,11.453,5.396,17.167
		c-1.664,0.598-3.328,1.203-4.985,1.813c-0.312-1.02-0.624-2.034-0.937-3.048c-3.686,1.339-7.338,2.769-10.978,4.225
		c-2.431,0.748-2.704,3.744-4.518,5.187c-1.794,0.975-3.744,1.619-5.623,2.418C101.71,65.852,106.877,57.733,111.967,49.562
		L111.967,49.562z"/>
	<path fill="#FDFEFE" d="M87.904,94.315c77.74-36.244,165.354-51.688,250.725-42.387c57.844,6.267,114.628,22.952,166.445,49.459
		c8.905,4.608,17.667,9.516,26.058,15.015c0.729,0.507,1.567,0.995,1.899,1.885c20.761,51.188,32.85,106.444,30.726,161.851
		c-1.489,43.335-11.915,86.255-29.946,125.658c-14.735,32.352-34.379,62.349-57.271,89.499c-20.093,23.81-42.642,45.486-66.743,65.2
		c-24.667,20.106-50.966,38.201-78.54,54.08c-13.623,7.781-27.494,15.191-41.931,21.354c-17.088-7.274-33.384-16.27-49.374-25.676
		c-36.972-22.086-71.708-48.021-102.862-77.785c-35.289-33.702-65.884-72.761-87.503-116.642
		c-11.628-23.427-20.612-48.191-26.507-73.679c-9.204-39.396-10.712-80.456-5.402-120.529
		c4.667-35.484,14.495-70.188,27.911-103.331c0.41-1.046,1.501-1.54,2.353-2.171C60.65,107.79,74.202,100.834,87.904,94.315
		L87.904,94.315z"/>
	<path fill="#9CA0A6" d="M114.067,52.76c0.149-0.032,0.455-0.09,0.611-0.123c0.78,2.054,1.313,4.186,1.97,6.279
		c-2.795,1.06-5.584,2.126-8.373,3.218C110.245,59.026,111.961,55.77,114.067,52.76L114.067,52.76z"/>
	<path fill="#FDFEFE" d="M76.998,63.986c2.405-2.893,6.344-3.549,9.626-5.012C81.281,64.825,75.84,70.59,70.53,76.486
		c3.126,1.638,6.324,3.126,9.438,4.79c-2.177,1.085-4.381,2.113-6.571,3.172c-2.756-1.352-5.499-2.736-8.243-4.127
		c-1.02,3.276-1.995,6.565-2.951,9.861c-2.047,1.164-4.115,2.282-6.188,3.393c2.535-8.021,5.122-16.029,7.754-24.024
		c1.775-0.916,3.562-1.807,5.363-2.665c-0.799,2.75-1.631,5.486-2.457,8.223C70.101,71.383,73.598,67.73,76.998,63.986
		L76.998,63.986z"/>
	<path fill="#FDFEFE" d="M491.808,58.877c2.613,1.228,5.486,2.041,7.878,3.685c3.087,3.718,5.629,7.872,8.69,11.622
		c1.547-1.827,3.075-3.679,4.575-5.551c1.802,0.91,3.582,1.852,5.344,2.834c-2.184,2.963-4.518,5.824-6.779,8.729
		c0.845,3.016,1.703,6.033,2.554,9.048c-1.884-1.001-3.763-2.009-5.647-2.997c-0.955-2.743-1.145-5.765-2.535-8.34
		C501.194,71.565,496.469,65.241,491.808,58.877L491.808,58.877z"/>
	<path fill="#022B5D" d="M132.683,90.363c46.644-16.783,95.94-26.377,145.522-27.638c59.891-1.514,119.938,9.374,175.89,30.654
		c14.84,5.655,29.413,12.032,43.557,19.247c8.216,4.264,16.496,8.521,24.153,13.728c18.35,45.624,29.36,94.633,29.01,143.949
		c-0.117,43.407-9.601,86.69-27.248,126.328c-14.729,33.317-34.964,64.044-58.571,91.721
		c-20.638,24.167-43.855,46.064-68.691,65.864c-24.83,19.728-51.266,37.428-78.962,52.865c-9.191,5.076-18.48,9.996-28.048,14.319
		c-16.01-7.365-31.421-15.978-46.514-25.058c-44.012-26.845-84.929-59.137-119.71-97.279
		c-33.072-36.263-60.372-78.286-76.921-124.65c-11.713-32.682-18.031-67.327-18.317-102.05
		c-0.767-47.879,9.542-95.452,26.54-140.049c0.812-1.989,1.404-4.075,2.418-5.973c2.112-1.651,4.531-2.86,6.806-4.271
		C85.545,109.336,108.834,98.989,132.683,90.363L132.683,90.363z"/>
	<path fill="#FDFEFE" d="M255.201,83.727c14.612-1.254,29.302-1.729,43.96-1.3c1.501-0.02,3.002,0.753,3.718,2.099
		c0.564,2.327,0.338,4.751,0.39,7.125c0.098,4.017,0.312,8.046,0.117,12.07c-0.553,1.755-2.612,2.314-4.264,2.236
		c-2.951-0.065-5.896-0.273-8.847-0.137c6.591,4.277,12.987,8.854,19.552,13.176c-4.484-0.091-8.957-0.371-13.442-0.391
		c-0.936,0.026-1.683-0.618-2.431-1.079c-8.768-5.856-17.673-11.511-26.351-17.504c8.197-0.436,16.406-0.462,24.616-0.41
		c0-3.626,0-7.26,0-10.888c-8.769-0.078-17.537,0.039-26.292,0.508c-0.409,9.886-0.481,19.786-0.806,29.672
		c-3.763,0.305-7.534,0.487-11.296,0.78C254.226,107.698,254.675,95.707,255.201,83.727L255.201,83.727z"/>
	<path fill="#FDFEFE" d="M312.661,82.953c16.939,0.865,33.826,2.873,50.512,5.902c0.156,2.139,0.352,4.277,0.571,6.415
		c-6.616-1.118-13.233-2.255-19.896-3.067c0.74,10.03,1.657,20.046,2.365,30.076c-3.736-0.462-7.475-0.911-11.219-1.307
		c-0.599-10.029-1.417-20.046-2.073-30.076c-6.663-0.682-13.345-1.163-20.026-1.612C312.836,87.171,312.707,85.065,312.661,82.953
		L312.661,82.953z"/>
	<path fill="#FDFEFE" d="M232.185,85.897c2.496-0.065,5.798-1.684,7.65,0.76c0.403,1.17,0.163,2.431,0.13,3.641
		c-0.741,9.132-1.411,18.278-2.165,27.41c-0.059,2.374-2.366,3.842-4.524,4.037c-15.282,1.872-30.459,4.563-45.48,7.936
		c-1.515,0.572-3.705-0.389-3.256-2.261c1.346-10.01,2.729-20.021,4.101-30.031c0.163-2.476,2.418-4.172,4.693-4.66
		C206.152,89.771,219.146,87.62,232.185,85.897L232.185,85.897z"/>
	<path fill="#FDFEFE" d="M373.156,90.311c3.601,0.76,7.202,1.488,10.79,2.308c1.541,12.259,3.056,24.524,4.693,36.77
		c-3.789-0.825-7.572-1.683-11.388-2.353C375.848,114.796,374.561,102.55,373.156,90.311L373.156,90.311z"/>
	<path fill="#022B5D" d="M199.223,97.688c9.783-2.008,19.63-3.679,29.523-5.057c-0.786,7.963-1.488,15.938-2.242,23.901
		c-10.134,1.397-20.208,3.172-30.225,5.238C197.208,113.737,198.274,105.723,199.223,97.688L199.223,97.688z"/>
	<path fill="#FDFEFE" d="M397.929,95.986c2.977,0.786,5.96,1.553,8.931,2.353c0.903,0.273,1.904,0.475,2.561,1.229
		c10.861,11.154,21.178,22.841,31.968,34.067c-1.593-8.62-3.322-17.212-4.934-25.825c3.464,1.234,6.896,2.555,10.328,3.875
		c2.496,12.531,5.018,25.057,7.514,37.589c-2.763-1.04-5.499-2.132-8.28-3.12c-1.021-0.41-2.172-0.676-2.919-1.541
		c-10.861-11.446-21.404-23.198-32.429-34.502c1.287,8.671,2.828,17.297,4.147,25.961c-3.731-1.021-7.456-2.048-11.199-3.016
		C401.712,120.698,399.826,108.342,397.929,95.986L397.929,95.986z"/>
	<path fill="#FDFEFE" d="M131.695,111.436c13.442-5.466,27.261-9.958,41.223-13.884c1.378-0.644,3.686-0.046,3.27,1.853
		c-0.741,6.325-1.813,12.609-2.698,18.921c-0.24,2.47-2.463,4.134-4.705,4.745c-7.092,2.047-14.151,4.225-21.145,6.61
		c-2.477-1.15-4.914-2.366-7.39-3.51c7.54-2.737,15.132-5.356,22.834-7.599c0.741-4.225,1.436-8.457,2.08-12.694
		c-8.027,2.509-16.062,5.025-23.939,7.995c-0.917,0.228-0.774,1.397-1.034,2.106c-1.904,9.847-3.899,19.682-5.791,29.529
		c-3.64,1.392-7.267,2.795-10.881,4.251C126.222,136.981,128.952,124.208,131.695,111.436L131.695,111.436z"/>
	<path fill="#FDFEFE" d="M78.648,135.792c11.439-6.41,23.277-12.104,35.282-17.369c0.962-0.506,2.769-0.93,2.938,0.63
		c-0.364,3.231-1.43,6.338-2.002,9.536c-3.464,1.502-6.929,3.01-10.341,4.628c0.409-1.794,0.825-3.582,1.241-5.375
		c-7.949,3.633-15.866,7.39-23.465,11.713c-0.962,1.969-1.326,4.179-2.002,6.26c10.251-2.763,20.644-4.973,31.096-6.812
		c1.261,1.833-0.026,3.984-0.292,5.96c-1.164,4.218-0.956,9.757-5.473,12.012c-13.202,5.993-26.098,12.643-38.694,19.819
		c-1.131,0.539-2.288,1.534-3.614,1.066c-0.507-0.76,0.013-1.677,0.137-2.47c0.845-2.925,1.709-5.85,2.515-8.781
		c3.4-2.015,6.792-4.03,10.25-5.947c-0.578,2.028-1.17,4.049-1.716,6.084c8.274-4.375,16.478-8.892,24.98-12.818
		c0.533-2.23,1.053-4.453,1.56-6.689c-10.179,1.931-20.241,4.472-30.193,7.332c-1.468,0.572-1.105-1.346-0.819-2.112
		c1.034-3.51,2.067-7.02,3.146-10.517C74.001,139.204,76.185,137.111,78.648,135.792L78.648,135.792z"/>
	<path fill="#FDFEFE" d="M461.811,120.139c-0.488-1.586,1.397-2.313,2.6-1.605c12.532,5.395,24.726,11.544,36.725,18.044
		c2.106,1.085,3.939,2.873,4.687,5.174c0.897,2.768,1.554,5.609,2.398,8.398c-3.229-1.827-6.467-3.647-9.69-5.467
		c-0.352-1.424-0.723-2.841-1.066-4.264c-8.015-4.304-16.179-8.308-24.427-12.123c2.073,8.736,4.218,17.453,6.402,26.169
		c8.547,4.017,16.979,8.281,25.252,12.843c-0.812-3.171-1.703-6.317-2.646-9.451c-3.23-1.853-6.629-3.406-9.821-5.317
		c-2.132-2.392-3.737-5.207-5.648-7.774c7.994,3.972,15.866,8.203,23.634,12.616c1.566,5.837,3.12,11.674,4.713,17.504
		c0.253,0.839,0.299,1.697,0.149,2.568c-1.476,0.552-2.854-0.696-4.147-1.249c-11.96-6.734-24.252-12.876-36.815-18.415
		c-2.366-1.013-4.635-2.873-5.031-5.557C466.62,141.543,464.228,130.838,461.811,120.139L461.811,120.139z"/>
	<path fill="#98B3D5" d="M50.841,209.457c36.186-21.905,75.523-38.533,116.363-49.499c12.389,13.852,24.524,27.924,36.491,42.134
		c-57.252,11.375-112.431,33.695-160.888,66.319C42.833,248.501,46.265,228.774,50.841,209.457L50.841,209.457z"/>
	<path fill="#FDFEFE" d="M332.552,184.269c10.172-7.56,22.665-12.006,35.359-12.338c9.698-0.494,19.396,2.185,27.756,7.06
		c5.459,3.191,10.568,7.377,13.715,12.96c3.139,5.525,3.809,12.364,1.962,18.421c-1.507,4.979-5.914,8.665-10.854,9.984
		c-6.76,1.898-13.917,1.327-20.793,0.514c-1.061,0.058-0.8-1.508-0.02-1.749c4.303-3.165,7.013-8.294,7.104-13.644
		c1.092-10.303-8.412-20.436-18.831-19.598c-7.261-0.071-14.651,3.185-18.947,9.133c-3.121,4.517-3.017,10.452-1.71,15.58
		c2.152,8.021,6.377,15.275,10.745,22.269c5.791,9.003,12.206,17.602,19.11,25.786c8.43,10.153,16.945,20.228,25.414,30.349
		c9.074,11.2,17.511,23.049,23.882,36.023c14.039,28.444,15.307,63.037,2.651,92.195c-7.526-2.58-14.917-5.855-21.464-10.405
		c4.044-12.324,4.596-25.715,1.918-38.384c-3.022-14.631-9.665-28.268-17.635-40.806c-5.023-8.184-11.582-15.236-17.458-22.79
		c-9.198-11.394-18.376-22.808-27.58-34.202c-8.268-10.023-15.84-20.735-21.521-32.461c-4.596-9.731-7.969-20.645-6.143-31.487
		C320.506,197.834,325.421,189.644,332.552,184.269L332.552,184.269z"/>
	<path fill="#98B3D5" d="M45.277,305.422c54.06-38.538,117.416-63.531,182.929-73.794c11.915,14.488,23.68,29.106,35.36,43.784
		c-55.568,5.063-110.331,20.358-159.919,46.04c-16.946,8.735-33.248,18.713-48.776,29.771
		C50.724,336.174,47.565,320.853,45.277,305.422L45.277,305.422z"/>
	<path fill="#FDFEFE" d="M398.24,276.198c14.917-4.218,30.797-5.401,46.117-2.775c9.64,1.735,19.162,5.239,26.949,11.304
		c6.156,4.829,11.005,11.7,12.39,19.5c1.026,5.921-0.69,12.727-5.694,16.425c-5.48,3.998-12.597,4.4-19.13,4.264
		c-2.541-0.208-5.2,0.09-7.645-0.715l-0.429-0.546c1.379-1.56,3.114-2.776,4.323-4.485c3.88-5.291,4.374-12.733,1.579-18.616
		c-2.808-6.305-8.905-10.725-15.567-12.188c-8.594-1.865-17.557-2.093-26.233-0.688c-2.055,0.273-3.992,1.202-6.064,1.241
		c-2.373-1.826-4.018-4.388-5.987-6.61C401.275,280.299,399.417,278.493,398.24,276.198L398.24,276.198z"/>
	<path fill="#FDFEFE" d="M354.477,303.485c5.901,6.24,11.023,13.169,16.633,19.669c0.807,1.092,2.334,2.17,1.671,3.711
		c-2.718,11.187-2.6,23.036,0.194,34.196c2.711,10.153,6.715,20.046,12.707,28.724c7.45,11.037,17.395,20.521,29.231,26.709
		c8.95,4.791,18.96,7.325,29.016,8.32c13.91,1.299,28.574-1.073,40.371-8.879c0.663-0.437,2.042-1.359,2.295,0.07
		c-3.965,8.672-12.766,13.924-21.307,17.316c-10.484,4.108-21.841,5.109-32.994,5.44c-23.114-0.136-45.767-9.47-62.998-24.732
		c-16.653-14.286-26.182-35.522-28.964-57.024C338.538,338.267,343.152,318.688,354.477,303.485L354.477,303.485z"/>
	<path fill="#98B3D5" d="M66.331,383.818c64.792-46.409,143.734-71.591,223.113-75.088c0.007,15.314,0,30.635,0,45.948
		c-72.241,4.141-144.001,26.033-204.295,66.47C78.038,409.155,71.739,396.675,66.331,383.818L66.331,383.818z"/>
	<path fill="#98B3D5" d="M104.343,450.411c55.347-35.041,119.938-54.379,185.101-59.001c0.007,14.782,0,29.562,0.007,44.35
		c-55.484,4.505-110.376,19.773-159.205,46.734C121.113,472.219,112.396,461.558,104.343,450.411L104.343,450.411z"/>
	<path fill="#FDFEFE" d="M378.896,454.936c3.666-3.823,6.728-8.158,10.218-12.123c6.317,3.088,13.032,5.324,19.941,6.623
		c-2.964,4.284-6.552,8.086-10.283,11.701c-18.85,19.182-43.582,32.35-69.9,37.726c-2.561,0.441-5.103,1.24-7.708,1.235
		c-1.326,0.005-0.216-1.658,0.474-1.769C342.925,487.155,362.659,472.739,378.896,454.936L378.896,454.936z"/>
	<path fill="#98B3D5" d="M157.298,510.503c41.366-19.975,86.496-31.661,132.138-36.178c0.02,14.222,0,28.443,0.014,42.665
		c-33.437,3.601-66.489,11.147-97.968,23.029C179.646,530.698,168.309,520.773,157.298,510.503L157.298,510.503z"/>
	<path fill="#98B3D5" d="M231.567,569.036c18.96-5.266,38.343-8.996,57.876-11.388c-0.007,14.897,0.025,29.795-0.02,44.693
		C269.384,592.624,250.189,581.23,231.567,569.036L231.567,569.036z"/>
	<path fill="#9CA0A6" d="M406.944,596.388c4.596-0.007,9.197-0.007,13.8,0.007c0,0.644,0,1.924,0,2.567
		c-1.781-0.006-3.563,0-5.338-0.006c-0.052,4.667-0.006,9.327-0.025,13.993c-0.975-0.019-1.943-0.019-2.905-0.013
		c-0.007-4.653,0.006-9.307,0-13.962c-1.847-0.013-3.687-0.026-5.525-0.019C406.95,598.312,406.944,597.031,406.944,596.388
		L406.944,596.388z"/>
	<path fill="#9CA0A6" d="M422.407,596.395c1.424-0.014,2.847-0.02,4.277-0.014c1.352,4.284,2.678,8.574,4.056,12.851
		c1.358-4.276,2.619-8.585,4.004-12.851c1.391,0,2.788,0,4.186,0.014c0.026,5.512,0.007,11.024,0.014,16.542
		c-0.917-0.006-1.833,0-2.736,0.013c-0.033-4.342,0.071-8.689-0.098-13.025c-1.268,4.361-2.652,8.684-3.972,13.032
		c-0.93-0.02-1.846-0.032-2.763-0.025c-1.391-4.499-2.795-8.99-4.205-13.48c-0.065,4.504-0.026,9.002-0.032,13.506
		c-0.917-0.025-1.833-0.032-2.743-0.025C422.4,607.419,422.375,601.906,422.407,596.395L422.407,596.395z"/>
</g>
</svg>
