<?xml version="1.0" encoding="utf-8"?>
<!-- Generator: Adobe Illustrator 16.0.0, SVG Export Plug-In . SVG Version: 6.00 Build 0)  -->
<!DOCTYPE svg PUBLIC "-//W3C//DTD SVG 1.1//EN" "http://www.w3.org/Graphics/SVG/1.1/DTD/svg11.dtd">
<svg version="1.1" id="Layer_1" xmlns:sketch="http://www.bohemiancoding.com/sketch/ns"
	 xmlns="http://www.w3.org/2000/svg" xmlns:xlink="http://www.w3.org/1999/xlink" x="0px" y="0px" width="512px" height="512px"
	 viewBox="0 0 512 512" enable-background="new 0 0 512 512" xml:space="preserve">
<title>atlanta-braves</title>
<desc>Created with Sketch.</desc>
<g sketch:type="MSLayerGroup">
	<path sketch:type="MSShapeGroup" fill="#0F437C" stroke="#FFFFFF" stroke-width="5" stroke-miterlimit="10" d="M498.886,311.585
		c0.017-0.354,0.045-0.597,0.045-0.998c0-1.321-0.109-2.95-0.52-4.815c-1.102-5.14-3.854-8.902-5.884-11.646l-1.59-2.314
		c0,0.017-0.709-1.746-0.709-1.746c-0.283-0.764-0.615-1.668-1.038-2.66c4.343-3.59,6.104-7.562,6.812-10.264
		c1.481-5.773-0.155-11.748-4.405-15.957c-4.219-4.186-10.464-6.084-17.516-5.579c-0.219-9.16-4.454-14.353-6.829-17.051
		c-0.016-0.448-0.016-0.921-0.016-0.921c-0.047-5.35-0.127-15.265-8.073-23.253c-1.714-1.723-1.933-2.251-2.61-3.973
		c0,0-0.817-1.927-1.039-2.463c-0.439-1.07-1.62-3.572-5.413-6.406l-8.986-6.696l-6.121,9.53
		c-3.382,5.225-3.807,10.308-4.092,13.675c0,0-0.142,1.33-0.22,1.88c-0.268,0.291-0.738,0.771-0.738,0.771l-2.896,3.163
		l-0.314,0.393c-4.124,5.154-4.816,9.512-4.816,19.971c0,0-0.016,0.511-0.047,1.007c-0.284,0.346-0.645,0.804-0.645,0.804
		c-3.462,4.47-3.588,9.851-3.683,13.761c0,0-0.172,3.202-0.172,3.251c-10.025,1.449-208.063,30.002-212.497,30.642
		c-12.701,1.699-18.566,11.739-17.633,20.326c1.608,14.801,12.05,19.217,21.299,18.42c5.861-0.502,149.755-21.968,200.85-29.601
		c-0.408,2.03-0.708,4.162-0.708,6.451c0,2.801,0.472,5.792,1.526,8.853c-0.804,1.864-1.465,3.902-1.747,6.256
		c-0.172,1.387-0.252,2.676-0.252,3.896c0,8.206,3.511,12.763,6.674,15.204c5.021,3.879,11.755,4.178,19.859,1.314
		c8.419,1.559,17.658,0.701,26.013-2.486c7.836,1.494,15.814-3.141,19.781-5.541l0.109-0.07l0.379,0.008l5.477-0.158l0.896-0.182
		c3.618-0.675,10.34-1.934,13.376-8.749c0.896-1.983,1.228-3.942,1.228-5.792C502,317.132,499.799,313.197,498.886,311.585"/>
	<path sketch:type="MSShapeGroup" fill="#CD1141" d="M494.856,313.943l-0.329-0.596c0,0-0.175-0.205-0.347-0.371l0.017-0.205
		c0.045-0.59,0.094-1.338,0.094-2.187c0-1.063-0.08-2.33-0.393-3.787c-0.896-4.114-3.211-7.261-5.052-9.788l-1.919-2.816
		l-1.039-2.453c-0.566-1.575-1.307-3.598-2.881-5.825c5.839-3.304,7.838-7.411,8.513-9.993c1.057-4.092-0.109-8.311-3.13-11.298
		c-3.746-3.707-9.71-5.054-16.49-3.944c-0.315-0.425-0.6-0.842-0.912-1.25c0,0-1.23-1.826-1.496-2.242
		c0.016-0.323,0.033-0.653,0.033-0.968c0-8.018-3.684-12.182-5.932-14.747l-0.882-1.054c-0.016-0.622-0.11-2.754-0.11-2.754
		c-0.032-4.966-0.096-13.266-6.656-19.852c-2.425-2.424-2.897-3.619-3.666-5.594l-1.07-2.541c-0.268-0.544-0.896-1.897-3.621-4.117
		l-5.129-4.155l-3.605,5.602c-2.723,4.225-3.068,8.397-3.319,11.449l-0.394,3.036c-0.205,0.851-0.644,1.346-1.999,2.668
		l-2.471,2.676l-0.362,0.464c-2.911,3.636-3.746,6.295-3.746,16.924c0,2.33-0.234,2.911-0.234,2.95l-0.63,0.788l-0.85,1.054
		c-2.504,3.218-2.582,7.294-2.676,10.891l-0.219,3.893c-0.252,1.739-0.583,2.81-0.945,3.548
		c-4.517,0.653-213.581,30.807-215.539,31.08c-10.945,1.473-14.167,10.004-13.617,15.053c1.512,13.937,11.913,14.557,16.316,14.188
		c5.98-0.521,167.458-24.621,207.617-30.634c-1.164,3.525-2.486,7.64-2.486,12.221c0,2.942,0.534,6.036,1.999,9.248
		c-1.086,2.046-1.952,4.09-2.236,6.484c-0.141,1.156-0.204,2.242-0.204,3.24c0,6.295,2.502,9.664,4.8,11.428
		c5.556,4.287,13.046,1.912,17.011,0.266c8.136,1.725,17.136,0.653,25.258-2.627c6.577,2.408,14.257-2.212,18.253-4.648l0.912-0.535
		c0.426-0.26,0.771-0.276,2.297-0.149l4.233-0.11l0.959-0.182c3.353-0.63,7.964-1.502,9.978-6.042
		c0.581-1.267,0.818-2.549,0.818-3.793c-0.002-2.993-1.34-5.812-2.52-7.89"/>
	<path sketch:type="MSShapeGroup" fill="#0F437C" stroke="#FFFFFF" stroke-width="5" stroke-miterlimit="10" d="M412.413,209.983
		c-1.557-3.896-6.011-15.06,0.867-24.629c2.627-3.194,1.416-6.649,0.976-7.617c-0.439-0.968-2.25-4.147-6.798-4.067h-0.252
		l-0.269,0.023c-13.988,1.385-21.73,17.753-29.931,35.064c-0.849,1.77-1.872,3.666-2.848,5.532c-0.378-0.072-0.739-0.213-1.119-0.26
		c-1.352-0.149-2.627,0.008-3.918,0.149c-0.045-0.229-0.033-0.44-0.094-0.669c-0.3-0.827-0.959-1.463-1.543-2.132
		c1.133-0.284,2.549-0.653,2.549-0.653c3.84-1.007,5.241-4.988,5.667-6.672c0.282-1.125,0.423-2.259,0.423-3.384
		c0-2.557-0.724-5.035-2.156-7.208c-2.265-3.431-6.011-5.729-10.273-6.287c-8.2-1.086-17.105,5.776-20.757,15.185
		c-2.942,3.345-6.312,5.729-9.586,7.357c-0.832-6.696-4.987-11.527-11.095-12.613c-6.641-1.189-13.437,2.463-16.192,8.654
		l-0.269,0.788c-1.336-2.298-3.13-4.202-5.538-5.162c-17.607-7.05-31.017,14.242-42.838,33.016
		c-4.722,7.492-9.169,14.565-13.447,19.396c-0.362,0.401-0.528,0.487-0.818,0.755c0.11-1.236,0.401-2.746,1.262-4.603
		c0.09-0.219,16.156-38.327,16.156-38.327l-22.195,2.218c0,0-0.248,0.644-0.413,1.095c-2.021-1.023-4.216-1.866-6.782-2.195
		c-19.8-2.519-32.001,15.085-36.831,32.394c-0.282,0.904-1.999,4.352-3.595,7.192c-6.43,11.433-11.939,14.62-14.1,14.817
		c-0.17-0.615-0.331-1.214-0.331-2.188c0-6.066,2.985-18.414,6.303-26.604c0.511-1.416,0.712-2.676,0.712-3.761
		c0-2.903-1.448-4.636-2.242-5.367c-1.706-1.59-4.73-2.668-8.097-0.929c-3.76,2.251-7.518,3.564-11.041,4.415
		c0.039-0.559,0.196-1.181,0.196-1.706c0-1.543-0.196-2.936-0.644-4.139c-2.113-5.673-6.338-9.403-11.586-10.244
		c-5.291-0.843-10.7,1.416-14.151,5.892c-2.263,2.928-3.414,6.42-3.414,10.119c0,2.314,0.448,4.706,1.365,7.081
		c0.878,2.234,2.408,4.344,4.233,6.31c-2.029,4.164-4.339,8.648-6.645,12.701c-6.743,11.891-12.962,20.413-21.457,29.381
		c-0.354,0.369-0.614,0.729-0.882,1.094c0.229-0.615,0.468-1.229,0.681-1.865c1.79-5.375,2.647-10.803,2.647-16.146
		c0-11.189-3.969-21.827-11.172-30.585c11.101-8.79,17.868-21.536,17.868-34.89c0-2.629-0.315-5.272-0.835-7.9
		c1.628-0.536,3.253-1.07,5.008-1.606c6.18-1.59,5.673-7.145,5.595-7.767c-0.086-0.63-0.964-6.105-7.539-6.011
		c-3.261,0.047-6.42,0.26-9.517,0.575c-6.53-8.837-17.842-15.768-35-15.713c-18.392,0.401-29.372,10.183-35.356,18.318
		c-8.194,11.134-10.747,23.993-9.024,30.925l0.908,3.66l3.734,1.352c2.285,0.716,4.726,0.158,6.526-1.494
		c5.438-4.423,8.742-5.618,9.525-5.698l0.806-0.08c-9.304,12.591-14.961,28.282-20.399,43.5
		c-5.704,15.934-11.09,30.994-19.736,39.037l-2.698,2.519L11.655,303c0.724,4.146,1.258,13.006,0.874,21.939
		c-0.047,3.123,1.346,5.643,3.707,6.908c2.357,1.275,5.127,1.008,7.4-0.669c14.607-10.946,24.482-40.812,33.183-67.167
		c3.611-10.897,7.066-21.309,10.264-28.484c-0.413,1.905-0.428,3.91,0.016,5.878c2.042,7.767,8.541,11.842,16.207,10.324
		l1.571-0.716c2.349,3.587,3.623,8.804,3.623,14.533c0,4.462-0.759,9.223-2.334,13.7c-2.048,5.798-8.484,19.237-24.139,18.899
		c-3.398-0.095-6.915-1.588-7.604-1.951c-4.002-2.344-7.631-0.621-9.27,1.983c-1.688,2.707-1.541,6.841,1.995,9.499
		c-0.362-0.293,0.209,0.219,0.209,0.219c3.41,3.078,11.416,10.291,27.285,9.672c13.29-0.573,25.718-9.963,32.496-24
		c-0.018,0.19-0.068,0.386-0.068,0.56c0,2.071,0.976,3.597,1.459,4.219c1.751,2.281,5.417,3.943,9.996,1.093
		c2.57-1.596,6.009-3.862,9.722-7.279c6.295-5.782,12.502-13.756,19.523-25.069c0.327-0.528,3.903-6.334,7.4-13.604
		c0.763,0.008,1.563-0.033,2.349-0.08c-1.749,5.131-3.58,11.361-3.58,17.248c0,6.58,2.293,12.639,9.568,15.927
		c8.175,3.707,21.481,0.614,34.086-12.906c2.958,3.92,7.042,6.47,12.177,6.974c5.078,0.172,10.499-2.322,14.607-5.226
		c3.026,2.179,7.175,4.256,12.715,3.666c8.108-0.833,16.164-7.128,24.658-19.208l4.988-7.642c4.988-7.844,12.463-19.506,18.3-25.636
		c-0.423,1.156-0.912,2.416-1.872,4.029c-4.896,8.253-9.553,16.816-9.553,24.188c0,1.723,0.253,3.392,0.834,4.972
		c1.291,3.612,4.123,6.312,7.947,7.578c15.657,5.217,32.195-8.229,44.85-35.841c1.588-0.456,3.163-0.984,4.722-1.637
		c-1.811,3.887-2.975,7.578-2.975,10.788c0,5.469,2.235,9.851,5.271,12.802c7.819,7.54,21.526,7.12,31.708-0.252
		c4.376,2.478,9.505,3.999,14.951,4.084c11.786,0.188,22.173-5.202,28.482-14.763c6.25-9.448,7.366-21.628,3.007-32.566
		L412.413,209.983z M59.034,207.254c-0.09-1.52-0.286-9.364,4.39-14.275c3.005-3.141,7.705-4.587,13.963-4.313
		c1.467,0.063,3.805,0.544,6.287,1.606c-9.442,4.233-17.676,10.236-24.595,17.775L59.034,207.254L59.034,207.254z M70.593,228.931
		l0.235-0.379l1.287-1.778c4.108-5.721,8.922-12.37,22.893-19.578c-0.047,3.542-0.933,11.237-6.984,18.727l-0.078,0.102
		c-0.209,0.268-0.493,0.503-0.771,0.747c-5.399-2.69-11.123-2.392-15.387,1.039C71.365,228.159,70.972,228.537,70.593,228.931
		L70.593,228.931z M395.244,219.166c-0.521,11.007-6.987,14.682-12.95,15.887c4.059-6.199,7.523-12.661,10.591-18.414
		c0.63-1.142,1.258-2.306,1.889-3.462c0.219,1.338,0.535,2.605,0.535,4.147C395.309,217.913,395.293,218.529,395.244,219.166
		L395.244,219.166z M354.552,239.853c-1.465,0.52-2.85,0.739-3.556,0.119c-0.473-0.401-0.677-1.048-0.677-1.874
		c0-1.142,0.426-2.619,1.258-4.217c0.597-1.172,1.493-2.306,2.516-3.376c-0.158,0.998-0.63,2.013-0.63,3.022
		C353.463,235.675,353.889,237.783,354.552,239.853L354.552,239.853z M363.601,208.781l0.614,0.669
		c-1.4-0.379-2.85-0.653-4.705-0.016l0.127-0.023c-0.08,0.008-0.174-0.041-0.268-0.072l-0.047-0.229
		c0-1.471,0.817-2.983,1.794-3.799c0.362-0.291,0.583-0.417,0.865-0.591C362.167,206.719,363.049,208.165,363.601,208.781
		L363.601,208.781z M304.762,226.767c0.488-1.078,0.676-1.927,1.022-2.92c0.174,0.346,0.237,0.755,0.409,1.07
		c0.804,1.455,2.028,2.424,3.163,3.495c-4.908,8.9-9.613,14.645-12.525,16.509c1.007-3.666,3.824-9.583,5.571-13.203
		L304.762,226.767L304.762,226.767z M216.209,258.73c-0.256,0.11-0.483,0.213-1.164-0.086c-0.346-0.158-1.342-2.651-0.282-7.996
		c2.05-10.214,8.67-18.506,11.905-18.506c0.409,0,0.471,0.102,0.516,0.172c0.231,0.346,0.436,1.109,0.436,2.339
		c0,1.731-0.428,4.391-1.845,8.073c-5.063,13.217-8.601,15.593-9.564,16.003H216.209z"/>
	<path sketch:type="MSShapeGroup" fill="#CD1141" d="M406.388,212.533c-1.59-3.965-7.586-18.35,1.653-31.185
		c0.52-0.644,0.487-0.976-0.473-0.96c-10.183,1.009-16.774,14.557-24.705,31.326c-1.683,3.509-3.619,7.206-5.68,10.866
		c-2.816-2.386-12.067-4.249-15.94,5.004c-2.25,5.375-1.275,10.498,1.732,14.565c-0.787,0.771-1.59,1.526-2.377,2.173
		c-9.41,7.586-21.714-0.307-14.761-13.636c3.414-6.539,11.833-11.67,15.06-12.959c1.559-0.606,3.24-2.793,0.69-1.913
		c-3.083,1.078-7.473-0.63-8.372-3.838c-1.321-4.603,0.755-9.356,3.808-11.906c7.74-6.437,12.241-0.205,11.439,3.501
		c-0.439,1.363,0.536,0.354,0.929-1.203c1.117-4.421-2.25-7.963-6.516-8.53c-5.679-0.739-12.666,5.311-14.667,12.63
		c-6.577,7.703-15.687,11.936-22.911,12.685c1.164-3.462,1.874-6.516,1.716-8.143c-0.835-9.804-12.085-9.066-15.012-2.447
		c-2.881,6.437-1.984,16.092,6.152,17.28c-6.105,12.622-16.412,28.492-24.202,26.737c-9.269-2.118-0.565-16.847,4.926-28.713
		c4.374-9.434,2.55-14.809-0.978-16.218c-18.223-7.286-33.912,33.513-49.112,50.683c-9.71,10.954-15.599,0.243-10.246-11.284
		l11.637-27.627l-7.212,0.724l-2.33,6.005c-0.937-2.4-4.646-6.011-10.252-6.727c-15.771-2.007-25.724,13.078-29.765,27.572
		c-0.552,1.966-3.388,7.192-4.221,8.702c-8.273,14.723-17.234,20.451-23.282,17.531c-7.833-3.785,0.583-30.27,3.498-37.47
		c0.518-1.449,0.227-1.919-0.704-1.449c-6.821,4.1-15.493,6.484-22.351,6.144c1.743-4.822,2.672-9.017,1.858-11.181
		c-4.476-12.077-20.46-4.518-15.63,7.938c1.033,2.699,3.196,5.272,6.254,7.081c-2.703,5.845-6.137,12.604-9.1,17.831
		c-7.797,13.73-14.513,22.332-22.42,30.679c-1.974,2.087-0.256,1.433,0.657,0.876c2.737-1.717,5.636-3.699,8.738-6.539
		c5.964-5.492,11.931-13.299,18.365-23.676c2.482-3.998,6.07-10.67,8.914-17.17c2.604,0.591,5.559,0.747,8.883,0.149
		c1.854-0.329,5.342-1.888,6.743-2.525c0.385-0.18,0.499,0.315,0.499,0.315c-0.704,6.729-14.323,30.249-1.189,36.204
		c7.336,3.321,21.189-1.611,33.294-19.379c0.869,7.041,4.327,12.258,10.945,12.889c4.91,0.166,11.86-4.319,13.965-7.2
		c3.955,3.604,13.811,15.272,32.13-10.811c4.394-6.265,15.716-25.763,24.419-34.614c9.143-9.285,16.082-1.048,7.836,12.818
		c-5.979,10.095-13.437,23.811-4.326,26.838c15.028,4.988,29.585-14.98,38.315-35.21c9.883-1.526,21.749-10.623,24.99-13.96
		c0.234,2.322,1.51,5.5,3.635,6.539c-4.169,3.139-8.593,6.506-11.078,9.741c-15.107,21.45,8.953,31.348,23.604,18.766
		c0.644-0.542,1.244-1.156,1.874-1.747c3.84,3.296,9.268,5.389,15.297,5.483c20.316,0.327,32.75-19.478,25.354-38.055H406.388z
		 M143.314,235.753c-4.705-7.734,7.711-12.495,7.455-3.838c-0.035,1.117-1.037,3.926-2.576,7.537
		C146.08,238.681,144.369,237.478,143.314,235.753z M231.839,245.195c-5.528,14.432-11.674,23.04-19.372,19.61
		c-11.878-5.279,0.917-39.384,14.198-39.375C232.477,225.429,237.095,231.481,231.839,245.195z M320.718,208.126
		c3.007,1.15,3.007,4.399,0.362,11.079c-1.15-0.133-2.218-0.362-3.146-0.747C312.834,216.379,315.886,206.293,320.718,208.126z
		 M364.024,228.79c3.366-6.885,8.323-3.362,9.804-0.653c-2.375,3.752-4.863,7.302-7.426,10.324
		C363.458,235.942,362.231,232.472,364.024,228.79L364.024,228.79z M401.743,219.685c-0.788,17.194-13.502,21.561-20.237,22.434
		c-4.311,0.552-8.341-0.072-11.534-1.463c12.95-15.193,20.96-37.777,27.35-43.215C396.898,201.713,402.609,208.156,401.743,219.685
		L401.743,219.685z M110.147,193.491c3.447-1.236,7.097-2.478,11.168-3.738c0.929-0.235,1.649-0.622,0-0.597
		c-3.768,0.055-8.112,0.315-12.754,0.96c-5.229-9.387-15.78-16.147-31.827-16.092c-30.289,0.653-40.387,31.553-38.081,40.838
		c0.041,0.158,0.276,0.379,0.516,0.158c5.657-4.603,10.395-7.136,13.363-7.374c-0.468-8.168,2.361-26.723,25.143-25.7
		c5.11,0.235,13.836,3.061,19.241,10.584c-12.625,3.533-26.127,10.584-36.946,24.486c-19.478,25.055-23.05,67.253-41.899,84.785
		c0.882,5.074,1.358,14.588,0.972,23.434c-0.02,0.951,0.495,0.691,0.779,0.479c21.264-15.941,33.601-84.573,45.804-101.214
		c5.485-7.492,11.007-16.894,34.053-26.888c0.804,1.999,1.416,4.194,1.739,6.672c0.571,4.556-0.235,15.856-8.392,25.943
		c-1.858,2.4-5.076,4.391-6.011,4.219c-1.193-0.976-1.045-0.669-2.373-1.582c-7.062-3.769-12.392,1.792-11.197,6.987
		c0.917,3.495,3.764,6.224,8.64,5.272c1.496-0.299,4.006-2.541,4.493-2.14c16.901,13.982,8.372,62.603-24.683,61.881
		c-5.012-0.133-9.791-2.289-10.618-2.778c-0.802-0.487-0.818-0.243-0.295,0.149c2.68,2.33,9.071,9.166,23.427,8.608
		c26.764-1.155,45.919-45.866,16.819-71.227C109.835,229.56,116.361,208.945,110.147,193.491"/>
	<path sketch:type="MSShapeGroup" fill="#0F437C" d="M490.449,316.598c-1.543-1.646-1.479-2.582-1.338-4.259
		c0.08-1.142,0.207-2.557-0.205-4.405c-0.63-2.99-2.424-5.408-4.14-7.752l-2.265-3.359l-1.385-3.242
		c-0.739-2.021-1.493-4.123-3.918-6.609l-0.583-0.652l-2.044-2.58c6.624-1.952,11.015-5.256,12.021-9.174
		c0.583-2.244-0.061-4.478-1.747-6.146c-2.408-2.4-7.713-4.045-15.421-1.811l-0.047-0.103c-0.614-1.299-1.526-2.612-2.469-3.912
		l-0.299-0.44c-0.536-0.779-1.259-1.879-1.762-2.739c-0.283-0.606-0.503-1.164-0.471-1.612c0.487-7.05-2.424-10.371-4.563-12.793
		c-0.943-1.07-1.762-1.999-2.014-2.958c-0.284-1.054-0.284-2.58-0.299-4.35c-0.033-4.667-0.08-11.065-5.115-16.108
		c-3.163-3.188-3.951-5.139-4.83-7.388l-0.944-2.226c-0.329-0.818-1.653-1.88-2.203-2.291l-0.788-0.581l-0.534,0.827
		c-1.984,3.091-2.252,6.224-2.488,8.961l-0.503,3.871c-0.581,2.408-1.966,3.769-3.446,5.209l-1.999,2.156l-0.409,0.518
		c-1.839,2.314-2.582,3.644-2.582,13.581c0,4.651-0.755,5.541-2.077,7.153l-0.755,0.937c-1.416,1.819-1.496,4.689-1.56,7.719
		l-0.283,4.548c-0.078,0.589-0.175,1.133-0.269,1.637l-0.536,2.125l-0.016,0.024v0.024c-0.597,1.881-1.352,2.942-2.218,3.707
		l-0.269,0.181c-0.581,0.088-6.405,0.921-15.831,2.282l-1.572,0.205l-0.048,0.033c-5.931,0.85-13.14,1.897-21.213,3.061L385,277.857
		l-4.249,0.623c-45.477,6.561-115.521,16.649-151.51,21.834l-0.219-0.039l-4.642,0.748c-11.338,1.637-18.255,2.627-18.255,2.627
		c-7.332,0.983-9.536,6.201-9.208,9.262c0.278,2.555,1.121,10.361,10.814,9.52c1.019-0.08,6.806-0.89,15.835-2.195l0.133,0.025
		l4.812-0.747c31.271-4.534,91.326-13.465,136.678-20.224l0.426-0.039l2.438-0.385l44.564-6.649l0.219,0.017l7.034-1.086
		l0.033-0.023c1.101-0.166,2.028-0.293,2.705-0.401c-0.22,2.298-0.928,4.73-1.794,7.325c-1.179,3.471-2.425,7.216-2.425,11.167
		c0,2.929,0.771,5.979,2.69,9.151c-0.094,0.197-0.252,0.623-0.252,0.623c-1.731,2.801-2.469,4.603-2.721,6.674
		c-0.11,0.936-0.158,1.816-0.158,2.643c0,3.329,0.929,5.745,2.754,7.146c2.689,2.085,7.207,1.739,13.376-0.97
		c8.294,2.203,18.02,1.119,26.264-2.862c4.407,3.028,11.41-1.156,15.25-3.486l0.943-0.565c1.888-1.119,3.588-0.969,5.241-0.842
		l2.895-0.025l0.979-0.188c2.77-0.52,5.363-0.997,6.293-3.085c0.712-1.594,0.236-3.767-1.493-6.826L490.449,316.598z
		 M223.054,318.375c-8.848,1.275-14.493,2.061-15.481,2.148c-6.989,0.597-8.388-3.865-8.818-7.83l-0.016-0.379
		c0-1.897,1.303-5.932,7.617-6.769l15-2.165c1.24,0.938,2.289,3.21,2.754,6.085C224.687,313.04,224.255,316.525,223.054,318.375
		L223.054,318.375z M357.508,298.498c-42.142,6.277-94.333,14.029-124.761,18.467c1.103-2.707,1.107-6.345,0.665-9.025
		c-0.401-2.504-1.203-4.541-2.23-5.974l124.706-17.978C356.817,287.932,357.635,292.359,357.508,298.498L357.508,298.498z
		 M366.178,290.887c-0.312-3.068-0.849-5.712-1.43-8.174l8.165-1.181L366.178,290.887L366.178,290.887z M373.291,296.145
		l5.479-7.726c0.22,2.071,0.347,4.312,0.3,6.862C377.179,295.562,375.26,295.844,373.291,296.145L373.291,296.145z M387.927,293.956
		c0.045-2.533-0.08-4.767-0.299-6.821l6.279,5.932C391.972,293.352,389.973,293.659,387.927,293.956L387.927,293.956z
		 M398.958,285.105l-6.876-6.344l12.402-1.785C402.766,279.486,399.68,284.043,398.958,285.105z M411.798,290.393l-7.128,1.063
		l6.69-8.914C411.673,284.766,411.861,287.332,411.798,290.393z M483.572,269.801c0.896,0.896,1.369,1.975,1.369,3.139
		c0,0.371-0.048,0.756-0.142,1.133c-0.849,3.305-5.082,6.232-11.283,7.949c-0.535-0.724-1.038-1.725-1.465-2.754
		c-0.188-0.449-0.346-0.896-0.471-1.307l-0.062-0.102c-0.393-1.07-0.677-2.039-0.835-2.654c-0.268-1.125-0.439-2.165-0.535-3.083
		c-0.062-0.835-0.078-1.614-0.078-2.267l-0.095-0.631v-0.549l-0.047-0.221C476.869,266.447,481.526,267.771,483.572,269.801z
		 M468.435,273.467c0.078,0.605,0.188,1.213,0.347,1.85l0.016,0.045v0.041l0.017,0.062c0.141,0.608,0.312,1.229,0.503,1.858
		c-1.197-0.025-2.298-0.26-3.305-0.686C466.812,275.616,467.614,274.562,468.435,273.467L468.435,273.467z M466.105,264.788
		c-1.92,2.715-4.187,5.635-6.846,8.476c-2.093-1.125-5.523-3.793-7.791-5.964c0.771-0.112,1.543-0.229,2.314-0.348L466.105,264.788
		L466.105,264.788z M462.768,283.939c-1.101,0.008-2.14-0.032-3.052-0.127c0.269-0.275,0.552-0.535,0.835-0.81
		C461.259,283.373,461.997,283.688,462.768,283.939L462.768,283.939z M434.726,276.622c-0.172-1.771-0.58-3.358-1.178-4.579
		c-0.141-0.291-0.331-0.52-0.503-0.802c2.644-0.867,5.428-1.582,8.292-2.179c3.635,3.69,8.844,7.803,11.913,9.865
		c-0.896,0.732-1.827,1.432-2.784,2.118l-2.36-0.81C444.279,278.896,439.134,277.143,434.726,276.622L434.726,276.622z
		 M440.501,286.396c-2.77,1.076-5.745,1.949-8.955,2.502c0.99-1.638,1.716-3.228,2.22-4.777c1.653,0.246,3.258,0.867,4.801,1.512
		C439.196,285.906,439.841,286.159,440.501,286.396z M429.124,260.083c0.063-2.707,0.11-5.264,1.15-6.57l0.724-0.896
		c1.637-1.983,2.502-3.265,2.502-8.389c0-9.655,0.724-10.559,2.173-12.362l0.426-0.55l1.84-1.952
		c1.51-1.496,3.242-3.188,3.965-6.138l0.536-4.164c0.204-2.32,0.564-4.706,1.777-7.067c0.347,0.315,0.63,0.614,0.691,0.755
		c0.033,0.055,0.929,2.179,0.929,2.179c0.929,2.345,1.794,4.556,5.256,8.018c4.484,4.501,4.516,10.189,4.548,14.762
		c0.017,1.897,0.033,3.533,0.362,4.824c0.348,1.416,1.371,2.549,2.439,3.761c1.857,2.101,4.124,4.681,4.124,9.962
		c0,0.439,0,0.913-0.047,1.408v0.221l-8.623,1.479c2.155-5.241,0.63-11.755-1.56-16.074c-0.234-0.473-0.788-0.644-1.258-0.393
		c-0.442,0.235-0.614,0.818-0.378,1.283c2.156,4.272,3.633,10.835,0.929,15.572l-1.543,0.26c-7.271,1.076-14.729,2.226-21.229,4.366
		L429.124,260.083L429.124,260.083z M422.185,288.841c-0.408,0.063-0.929,0.134-1.51,0.237c0.078-5.801-0.693-9.962-1.7-14.189
		l4.075-0.58l0.174,0.069c1.117,0,1.825,0.448,2.266,1.416C426.796,278.652,425.19,284.884,422.185,288.841L422.185,288.841z
		 M490.26,322.63c-0.534,1.156-2.66,1.56-4.94,1.993l-0.99,0.188h-2.392c-1.762-0.148-3.935-0.312-6.312,1.078l-0.959,0.581
		c-3.353,2.03-10.307,6.248-13.644,3.384l-0.458-0.4l-0.551,0.26c-3.007,1.51-13.784,6.152-25.776,2.84l-0.313-0.078l-0.299,0.133
		c-5.585,2.502-9.662,2.959-11.817,1.308c-1.716-1.33-2.33-4.022-1.841-8.026c0.207-1.755,0.865-3.345,2.424-5.878l0.771-2.087
		l-0.313-0.172c-4.39-6.782-2.313-13.023-0.299-19.059c13.03-0.588,22.156-3.446,29.695-8.59c7.758,1.957,17.86,1.652,24.548-0.725
		c1.401,1.741,2.013,3.282,2.582,4.871l1.51,3.509l2.424,3.589c1.589,2.18,3.243,4.424,3.808,7.004
		c0.174,0.842,0.234,1.574,0.234,2.252c0,0.565-0.045,1.102-0.077,1.58c-0.048,0.457-0.08,0.912-0.08,1.362
		c0,1.322,0.299,2.66,1.811,4.202c0.912,1.682,1.401,3.066,1.401,4.059C490.4,322.126,490.355,322.395,490.26,322.63L490.26,322.63z
		 M441.149,244.786c0.204,0.481,0.016,1.048-0.472,1.275c-1.89,0.921-3.494,3.163-3.965,5.588c-0.458,2.345,0.141,4.618,1.698,6.412
		c0.348,0.394,0.314,0.99-0.062,1.353c-0.378,0.348-0.962,0.315-1.307-0.086c-1.966-2.242-2.721-5.107-2.156-8.065
		c0.598-3.022,2.565-5.745,5.004-6.932C440.362,244.111,440.914,244.316,441.149,244.786 M470.75,292.479
		c0.503,0.033,0.896,0.472,0.882,0.998c-0.062,1.197,1.43,2.4,3.163,3.809c3.036,2.472,7.205,5.854,5.46,12.086
		c-0.141,0.503-0.661,0.788-1.149,0.652c-0.504-0.148-0.771-0.683-0.631-1.188c1.401-4.979-1.761-7.56-4.83-10.04
		c-2.046-1.667-3.98-3.241-3.872-5.428C469.805,292.848,470.23,292.445,470.75,292.479 M480.441,313.346
		c-0.282,1.258-0.691,1.543-1.023,1.637l-1.919-0.03l-2.093-0.113c-1.308,0.149-2.613,0.718-3.621,1.534l-3.241,2.59l-0.755,0.314
		c-1.369,0.313-2.723,0.213-4.124-0.322c-0.487-0.182-1.007,0.062-1.195,0.559c-0.174,0.495,0.078,1.045,0.565,1.229
		c1.747,0.677,3.431,0.804,5.162,0.4l1.463-0.652l3.272-2.611c0.741-0.607,1.733-1.031,2.677-1.145l1.622,0.104l2.721-0.024
		c1.732-0.521,2.156-2.416,2.297-3.037c0.11-0.51-0.205-1.022-0.691-1.142c-0.501-0.116-1.005,0.205-1.116,0.708V313.346z
		 M454.066,296.186c2.031,3.265,2.173,7.481,0.426,11.558c-0.378,0.856,0.016,1.753,1.369,3.202c0,0,0.473,0.434,0.393,0.856
		c-0.078,0.417-0.11,0.771-0.534,0.81c-0.299,0.025-0.788,0.062-1.196-0.346c-0.883-0.953-2.755-2.936-1.747-5.297
		c1.525-3.486,1.414-7.05-0.269-9.763c-0.284-0.442-0.158-1.039,0.269-1.33C453.234,295.594,453.801,295.729,454.066,296.186
		 M434.76,299.145c1.794,1.825,1.197,4.532-0.346,6.27l-2.281,1.968c-2.062,1.526-3.29,2.565-2.739,4.485
		c0.142,0.52-0.141,1.039-0.63,1.187c-0.503,0.142-1.007-0.139-1.149-0.651c-0.943-3.32,1.479-5.123,3.414-6.571l2.028-1.716
		c0.521-0.59,1.606-2.385,0.394-3.612c-0.362-0.37-0.362-0.968,0-1.338C433.814,298.771,434.396,298.771,434.76,299.145
		 M430.306,321.199c0.818,2.22,3.102,3.511,5.177,2.936l2.645-1.195l2.77-1.266c1.102-0.348,2.092-0.016,2.976,0.284
		c0.708,0.235,1.305,0.44,1.809,0.267l0.771-0.244l-0.033,0.033c0.033-0.033,1.275-0.486,1.606-0.174
		c0.882,0.835-0.409,1.432-0.033,1.182l-1.463,0.937l-0.222,0.062c-1.101,0.408-2.124,0.062-3.021-0.244
		c-0.708-0.234-1.322-0.439-1.856-0.275l-2.438,1.136c0,0-3.022,1.353-3.036,1.353c-2.991,0.824-6.232-0.977-7.379-4.101
		c-0.19-0.495,0.045-1.048,0.534-1.235C429.597,320.47,430.131,320.705,430.306,321.199 M447.206,223.8
		c0.473,0.219,0.677,0.788,0.473,1.266c-0.882,2.054-0.804,4.847,0.188,7.288c0.771,1.872,1.952,3.227,3.272,3.738
		c0.474,0.18,0.725,0.73,0.536,1.228c-0.172,0.495-0.708,0.739-1.178,0.567c-1.827-0.708-3.367-2.408-4.343-4.783
		c-1.181-2.92-1.244-6.287-0.158-8.798C446.2,223.809,446.732,223.588,447.206,223.8"/>
	<path sketch:type="MSShapeGroup" fill="#EEB210" d="M452.384,261.557l0.062-0.009c3.337-0.567,9.585-1.637,10.497-1.794
		l0.109,0.196c0.44,1.015,1.133,2.054,1.905,3.132c-2.297,0.385-11.44,1.975-11.44,1.975c-2.187,0.322-4.376,0.668-6.579,1.022
		c-3.179,0.511-4.894,0.827-5.521,1.039c-3.32,0.694-6.579,1.479-9.615,2.541c-1.007-1.007-2.201-1.638-3.539-1.849
		c0.11-0.434,0.205-0.867,0.299-1.33c6.528-2.28,14.274-3.453,21.795-4.578l2.028-0.348 M475.373,287.749
		c-5.917,1.888-14.084,2.204-20.992,0.81c0.19-0.141,0.409-0.322,0.597-0.48l0.805-0.622c0.817-0.661,1.637-1.353,2.297-1.991
		c3.649,0.788,11,0.235,14.634-1.07c0.724,1.078,1.575,2.166,2.549,3.235L475.373,287.749 M408.149,276.451
		c0.644-0.08,1.385-0.166,1.919-0.229c0.127,0.566,0.439,1.906,0.677,2.855c0.061,0.293,0.11,0.613,0.188,0.913
		c-0.661,0.856-8.466,11.274-8.891,11.842c-0.614,0.094-5.098,0.755-5.808,0.849c-0.581-0.541-8.419-7.963-9.032-8.537
		c-0.269-1.558-0.581-3.037-0.912-4.483c1.103-0.175,2.864-0.435,3.417-0.511c0.597,0.55,8.811,8.104,8.811,8.104
		c0.175,0.18,0.442,0.26,0.71,0.234c0.269-0.032,0.503-0.188,0.661-0.408c0,0,6.735-9.907,7.113-10.457 M384.387,279.882l0.896,4.22
		c0.473,2.635,0.804,5.477,0.804,8.914v1.178c-1.022,0.158-3.824,0.591-5.16,0.804l0.015-0.937c0-3.054-0.252-5.658-0.643-8.072
		c-0.033-0.385-0.141-1.03-0.284-1.752c-0.109-0.512-0.207-1.016-0.299-1.504c-0.174-0.771-0.329-1.51-0.471-2.1
		c0.456-0.072,1.101-0.166,1.794-0.268 M357.73,283.768c1.274-0.188,4.045-0.588,5.145-0.754c0.835,3.51,1.59,7.373,1.684,12.377
		v2.055c-1.022,0.141-3.873,0.535-5.191,0.716l0.016-0.99C359.383,291.605,358.595,287.475,357.73,283.768 M366.416,297.169
		c0.016-0.856,0.016-1.692-0.014-2.494v-0.903c0.346-0.474,8.623-11.97,9.062-12.59l1.919-0.236
		c0.221,1.039,0.835,4.076,0.979,4.793c-0.487,0.717-7.193,10.176-7.617,10.765c-0.349,0.056-1.528,0.243-2.69,0.435
		L366.416,297.169 M413.657,290.118l0.016-0.874c0-3.619-0.348-6.516-0.818-9.018c0.017-0.086,0.017-0.166,0-0.26
		c-0.408-2.021-0.693-3.218-0.896-3.998c1.275-0.188,4.059-0.589,5.16-0.746c0.944,3.934,1.732,7.774,1.732,13
		c0,0.361-0.016,0.738-0.032,1.125c-1.433,0.219-3.146,0.471-5.162,0.769 M462.567,280.809l0.346-0.391l1.968-2.253
		c1.526,0.724,3.241,1.125,5.082,1.056c0.219,0.553,0.471,1.109,0.724,1.676c0.205,0.449,0.427,0.875,0.661,1.291l0.11,0.205
		l0.062,0.133c-2.785,0.496-6.357,0.418-9.537-1.056L462.567,280.809 M443.289,285.184c-1.307-0.214-2.627-0.73-4.028-1.322
		c-1.559-0.653-3.196-1.221-4.94-1.521c0.299-1.321,0.439-2.571,0.456-3.776c4.169,0.543,9.049,2.203,12.715,3.485l0.976,0.321
		c-1.604,1.007-3.304,1.936-5.082,2.785L443.289,285.184 M454.76,277.639c-2.582-1.668-7.428-5.453-11.156-9.033
		c0.977-0.181,1.95-0.347,2.929-0.512c0.802-0.133,1.682-0.268,2.705-0.414c1.968,2.131,5.868,5.319,8.642,6.947l-2.565,2.518
		c0,0-0.207,0.182-0.408,0.385l-0.144,0.109 M427.679,269.708c1.306,0.142,2.486,0.755,3.382,1.872l0.047,0.061
		c0.282,0.373,0.551,0.789,0.788,1.26c0.659,1.361,1.037,3.101,1.055,5.061v0.158c0,0.763-0.078,1.549-0.205,2.375l-0.047,0.299
		c-0.472,2.66-1.604,5.562-3.605,8.425c-0.391,0.048-0.802,0.121-1.211,0.158l-0.205,0.008c-0.992,0.095-2.015,0.127-3.052,0.158
		v-1.063l-0.033,0.008c1.856-3.006,3.21-6.854,3.21-10.117c0-1.258-0.189-2.424-0.63-3.393c-0.378-0.802-0.912-1.408-1.559-1.838
		C426.466,272.25,427.143,271.131,427.679,269.708 M423.775,294.761c0.315-1.084,0.567-2.165,0.711-3.227v-0.054
		c1.305-0.032,3.807-0.127,5.365-0.426l0.127-0.078c5.068-0.66,9.598-2.015,13.643-3.865c1.274-0.369,5.32-2.598,7.522-4.248
		l0.017-0.023c1.465-1.015,2.85-2.102,4.154-3.21l0.188-0.088l1.039-0.968l0.078-0.094c4.312-3.873,7.76-8.106,10.561-12
		c0.299,0.455,0.598,0.959,0.771,1.494c0.094,0.275,0.172,0.551,0.172,0.803v1.936l-0.078,0.127
		c-11.661,16.139-22.001,24.637-44.802,25.865c0.186-0.609,0.374-1.26,0.531-1.946 M228.834,302.234
		c1.236,0.938,2.285,3.164,2.758,6.02c0.17,1.078,0.256,2.165,0.256,3.18c0,2.446-0.524,4.555-1.408,5.844
		c-0.618,0.103-3.494,0.545-5.346,0.818c0.696-1.666,1.125-3.563,1.125-5.523c0-1.203-0.11-2.385-0.28-3.424
		c-0.426-2.668-1.381-4.603-2.529-6.049C225.223,302.818,228.197,302.338,228.834,302.234"/>
</g>
</svg>
