<?xml version="1.0" encoding="utf-8"?>
<!-- Generator: Adobe Illustrator 16.0.4, SVG Export Plug-In . SVG Version: 6.00 Build 0)  -->
<!DOCTYPE svg PUBLIC "-//W3C//DTD SVG 1.1//EN" "http://www.w3.org/Graphics/SVG/1.1/DTD/svg11.dtd">
<svg version="1.1"
	 id="svg31568" xmlns:svg="http://www.w3.org/2000/svg" xmlns:dc="http://purl.org/dc/elements/1.1/" xmlns:cc="http://creativecommons.org/ns#" xmlns:rdf="http://www.w3.org/1999/02/22-rdf-syntax-ns#"
	 xmlns="http://www.w3.org/2000/svg" xmlns:xlink="http://www.w3.org/1999/xlink" x="0px" y="0px" viewBox="10.002 6.984 379.998 305.757" enable-background="new 10.002 6.984 379.998 305.757"
	 xml:space="preserve">
<g id="layer4">
	<path id="path16452" fill="#FFFFFF" d="M230.73,7.002c-3.22,0-7.22,0.711-12.46,1.983c-9.83,2.346-15.01,7.732-20,12.903
		c-2.5,2.578-4.85,5.007-7.72,7.039l-4.51,3.436c-2.07,1.686-2.38,1.933-7.06,3.09c-12.92,3.205-30.81,11.582-31.56,11.929
		c0.18-0.166-1.32,0.512-1.32,0.512c-5.14,2.016-11.54,4.527-19.31,9.12c-2.72,1.603-6.26,2.957-11.06,4.213
		c-5.21,1.239-10.72,2.941-15.47,3.073c-12.599-0.892-25.616-2.908-38.445-4.51l-1.75-0.166c-4.182-0.396-6.308-0.479-9.375,1.719
		c-0.938,0.214-2.119,0.974-3.501,2.247c-1.508,0.214-3.829,0.776-4.844,2.775c-4.705,1.206-8.5,1.107-8.594,5.205
		c0,3.288,3.993,4.824,7.251,6.08c1.102,1.09,3.19,2.214,6.969,2.825c1.457,0.925,3.473,1.305,5.5,1.47
		c2.13,1.9,7.149,4.478,18.595,4.362c13.462-1.189,25.889-2.065,37.254-2.808c0.63,0.247,2.57,1.024,5.16,2.032
		c-3.44,1.768-7.14,4.213-9.63,7.963c-0.39,0.612-1.28,1.917-1.28,3.47c0,0.661,0.16,1.355,0.56,2.065
		c1.63,2.871,4.95,4.031,29.32,2.941c1.56,0.28,10.22,1.82,20.12,2.94c0,0.4-0.12,0.73-0.12,0.73v0.16c0,4.32,2.66,6.4,3.54,7.11
		c-0.14-0.17,1.15,0.81,1.15,0.81l3.88,2.38c0,0,6.65,3.63,9.4,5.15c-4.98,3.8-8.45,7.32-9.37,12.81c-3.52,4.74-3.9,9.58-1.7,14.45
		c0,0.17-4.08,10.41-5.77,15.19c-0.42-1.51-1.07-2.91-2.16-3.97c-1.64-1.65-4.37-4.77-5.07-5.95c-1.21-2.05-3.15-3.42-5.4-3.8
		c-2.48-0.41-5.05,0.38-7.25,2.22c-3.8,3.15-8.4,3.85-15.41,2.28c-6.6-1.52-11.02,0.16-13.12,4.94c-0.81,2.11-1.31,3.81-1.94,5.96
		c-2.32-27.74-13.692-38.05-23.503-41.57c-9.964-3.6-20.097-2.67-28.502,2.6c-6.934,4.36-12.246,11.4-14.565,19.34
		c-1.154,2.13-2.014,4.45-2.687,6.78c-6.959,7.78-12.699,17.34-16.565,27.82c-4.373,9.47-7.18,20.04-8.031,30.38
		c-0.241,2.96-0.375,5.84-0.375,8.66c0,15.78,3.81,29.08,11.189,38.78c5.45,7.2,14.41,12.03,23.345,12.65
		c10.168,0.73,19.676-2.74,28.284-10.27c16.571-16.57,26.613-40.45,30.31-61.98c2.32-1.22,4.75-2.74,7.16-4.66
		c-0.9,2.04-1.84,4.02-2.62,6.07c-4.67,10.27-7.6,21.41-7.6,28.78v1.39c0.53,9.23,4.11,15.15,10.6,17.64
		c5.43,2.07,13.13,0.89,18.75-2.84c2.27-1.52,7.64-5.48,12.97-11.3c4,3.68,9.02,3.87,10.93,3.87c9.85,0,22.15-8.22,31.1-19.98
		c3.27,2.94,7.14,5.07,11.68,5.44c12.21,0.9,23.45-7.16,28.8-15.02c3.4-5.04,5.67-9.52,7.43-14.29c0.96,3.17,2.42,6.19,4.78,8.47
		c3.2,3.17,7.57,4.83,12.26,4.68c-20.59,7.37-91.19,32.58-91.19,32.58c-37.55,13.43-75.103,26.83-112.644,40.28
		c-0.85,0.31-1.615,1.07-1.97,1.93l-2.655,6.41c-0.438,1.14-0.289,2.08,0.375,3.19c1.676,2.33,3.338,4.66,5,6.99
		c0.57,0.83,1.531,1.32,2.531,1.37c15.322,0.23,36.599,4.68,47.755,12.57c1.33,0.95,3.126,0.75,4.248-0.42
		c16.67-15.95,34.7-23.86,55.98-34.04c6.87-3.27,99.03-41.49,154.16-63.68c26.85-10.73,48.03-19.26,52.16-21.18
		c5.35-2.47,23.03-11.88,25.91-29.37c0.59-2.1,0.97-4.74,0.97-7.44c0-8.69-5.27-15.61-14.64-19.87v0.18
		c-0.86-4.59-3.381-10.77-8.46-20.36c-1.07-2-2.46-4.23-2.46-6.37c0.199-2.45,1.04-4.81,1.699-7.27
		c0.351-1.19-0.239-2.32-0.81-3.159c-0.8-0.842-1.99-1.156-3.12-0.875c-6.46,1.602-12.93,3.204-19.39,4.804
		c-1.09,0.38-1.641,0.98-2.351,1.79c-2.71,3.12-5.6,8.42-9.979,18.34c0,0-0.83,1.72-1.931,3.98c-0.17-1.72-0.229-3.44-0.659-5.04
		c-2.7-9.35-12.25-15.07-21.32-12.72c-4.16,1.07-8.16,3.29-11.81,6.38c1.21-4.12,2.2-8.28,2.63-12.54c0.16-1.01,0.16-2.021,0.16-3
		c0-5.927-2.03-10.768-6.01-14.088c-4.48-3.751-11.32-2.627-14.31-1.504c-13.8,5.254-26.29,26.932-32.78,43.902l-5.19,13.73
		c0,0-0.77,2.79-1.57,5.63c-0.67-2.1-1.38-3.95-2.13-5.57c-3.77-8.44-9.83-11.46-14.06-13.03c-7.52-2.73-16.14-1.32-23.69,3.93
		c-2.38,1.65-4.31,3.75-5.87,6.03c-0.77,0.94-1.61,2.3-2.41,3.67c0.2-0.45,0.17-0.96,0.22-1.34c0-0.63-0.33-1.19-0.68-1.75
		c0.43-0.88,0.53-1.11,0.96-1.97c0.23-0.16,0.63-0.2,0.63-0.2c1.85-0.79,4.64-4.29,5.53-5.86c0.58-1.04,0.81-2.12,0.81-3.14
		c0-1.03-0.41-1.79-0.78-2.6c0.17-0.84,0.22-1.73,0.22-1.73c-0.4-1.39-1.57-5.63-18.19-14.18c-0.17-0.16-2.51-1.42-4.15-2.36
		c0.38-0.26,0.96-0.58,1.69-0.91c0.62-0.16,2.13-0.31,2.13-0.31l5.27-0.56c44.46-4.96,50.79-25.925,54.57-38.482l0.16-0.529
		c0.95-3.122,1.43-6.575,1.43-10.194v-1.487l-0.25-6.377v-0.909c0,0,0.21-3.783,0.21-3.816c0,0.347,2.61-3.09,2.61-3.09
		c2.61-3.205,5.64-7.071,6.43-10.938c1.21-0.677,3.02-1.652,3.02-1.652l11.78-4.758c1.14-0.463,1.95-1.537,2.05-2.743v-0.314
		c0-1.14-0.53-2.18-1.5-2.792c-3.83-2.412-5.85-2.693-9.82-3.238c-0.26,0-5.32-0.562-5.32-0.562c-0.16,0-2.09-0.297-3.43-0.512
		c-1.08-1.271-2.94-3.09-6.53-4.989c-2.18-1.173-4.61-1.735-7.85-1.702L230.73,7.002z M275.34,151.77L275.34,151.77
		c-0.64,2.84-1.07,5.8-1.19,8.94c-4.2,5.46-8.19,9.68-10.76,11.31c-0.95,0.61-1.61,0.88-2.14,1.09c-0.17-0.53-0.17-1.1-0.17-1.78
		c0-1.62,0.27-3.75,0.7-6.31c5.07-4.2,9.53-8.64,13.49-13.25H275.34z M67.691,153.15c0.67,0,1.362,0.24,2.033,0.62
		c3.142,1.83,5.186,15.13,5.186,22.56h-0.03c-6.997-3.04-11.969-11.4-12.094-18.3c-0.05-1.8,0.396-2.68,1.687-3.88
		c1.006-0.66,2.103-1.06,3.22-1H67.691z M330.44,167.81c1.6,3.72,5.63,5.57,8.81,6.77c-5.19,1.87-12.38,4.45-21.13,7.57
		C323.39,177.49,327.58,173.03,330.44,167.81L330.44,167.81z M175.3,180.4c0.2,0,0.21,1.34-0.17,4.69
		c-0.19,2.45-0.94,4.25-0.94,6.43l-1.24,5.98c-2.8,3.6-3,4.86-4.31,5.62c2.28-5.37,5.83-22.69,6.59-22.72H175.3z M148.42,180.56
		c-1.26,3.56-2.16,6.13-2.16,6.13s-4.98,14.46-5.75,16.66c-2.56,3.83-6.08,7.35-8.78,9.5c0.32-3.04,1.05-6.41,2.44-10.31
		C137.92,194.53,143.4,186.08,148.42,180.56z M201.45,183.85c2.2,0.85,4.3,1.51,6.53,1.89c-0.2,1.07-0.31,1.47-0.66,2.24
		c-1.39,3.21-3.87,6.08-4.43,6.08c-0.48,0-1.62-3.9-1.62-8.24C201.27,185.19,201.44,184.51,201.45,183.85z M282.77,184.27
		c3.74,3.28,8.38,5.17,13.92,5.65c-9.97,3.56-20.95,7.5-32.67,11.68C270.99,197.25,277.74,190.79,282.77,184.27L282.77,184.27z
		 M45.19,192.44c7.262,7.01,16.101,10.71,26.876,11.01c-1.164,6.31-2.864,13.1-5.032,19c-3.397,7.3-7.257,12.75-10.781,15.13
		c-2.587,1.74-3.605,1.87-6,1.37c-6.631-1.37-9.377-13.91-9.377-25.57C41.303,206.57,41.967,198.94,45.19,192.44L45.19,192.44z"/>
</g>
<g id="layer2">
	<path id="path16680" d="M230.35,10.224c-2.86,0.165-6.51,0.694-11.27,1.85c-13.58,3.255-17.46,12.987-26.6,19.43
		c-6.95,4.957-5.02,5.172-12.62,7.038c-12.75,3.173-30.97,11.714-30.97,11.714c-5.41,2.132-12.08,4.61-20.41,9.501
		c-3.27,1.949-7.2,3.337-11.85,4.543c-5.21,1.371-10.94,3.106-16.24,3.189h-0.696c-1.546-0.165-3.152-0.265-4.812-0.413
		c-12.018-1.19-26.845-3.619-33.285-4.147c-5.894-0.529-6.725-0.925-9.439,1.272c0,0-1.596-0.165-3.625,2.379
		c-0.939,0.165-5.286,0.479-2.343,2.66c-16.53,0.876-6.115,4.395-3.313,5.502c0,0,0.727,1.834,6.469,2.561
		c0,0,0.396,1.123,5.657,1.338c0,0,2.613,4.411,17.063,4.246c12.208-0.71,19.881-1.536,25.879-2.032
		c4.095-0.396,8.045-0.446,11.905-0.743c4.51,1.933,9.39,3.7,13.66,5.287c0,0-10.98,2.461-15.88,9.83
		c-1.87,2.842-2.15,4.61,26.04,3.354c0,0,11.6,2.097,23.9,3.337c-1.26,2.92-1.19,6.34,1.51,8.34c5.03,3.44,10.45,6.1,16.02,9.14
		c1.97,1.31,1.13,2.23-0.28,3.27c-6.21,3.41-8.44,7.17-9.61,12.26c-1.01,1.46-1.77,3.06-2.28,4.74c-1,3.37-0.68,6.64,0.84,9.12
		c-5.58,13.24-10.51,27.92-14.64,39.95c-1.93,5.79-3.84,11.37-5.5,16.06c-3.77,5.75-9.56,10.77-12.59,12.58
		c-1.18,0.67-2.03,0.71-2.15,0.62c-0.13-0.16-0.56-0.86-0.54-2.81c0-4.16,1.11-8.95,2.88-13.89c4.53-9.73,10.94-19.12,16.16-24.42
		c2.12-2.2,4.92-7.73,4.4-10.51c0.12-1.68-0.56-3.32-1.66-4.41c-1.62-1.63-4.65-5.01-5.59-6.56c-0.72-1.22-1.81-2.01-3.12-2.25
		c-1.51-0.23-3.12,0.27-4.57,1.51c-4.63,3.83-10.28,4.74-18.28,2.92c-5.01-1.15-7.98-0.2-9.34,3.08c-2.06,4.92-3.18,8.97-3.88,12.7
		c-0.89,1.11-2.41,2.3-3.87,3.19c0.17-34.37-11.615-46.06-21.818-49.71c-9.002-3.26-18.112-2.4-25.629,2.31
		c-6.45,4.05-11.184,10.52-13.251,17.73c-1.242,2.26-2.229,4.69-2.875,7.17c-6.972,7.66-12.579,17.13-16.345,27.36
		c-4.272,9.23-6.995,19.36-7.844,29.52c-1.533,18.77,1.968,34.38,10.157,45.16c4.868,6.47,12.922,10.82,20.97,11.35
		c9.242,0.67,17.956-2.51,25.878-9.47c9.49-9.29,16.92-20.87,21.447-32.43c3.926-9.37,6.776-20.18,8.12-29.16
		c5.81-2.83,11.97-7.72,15.06-12.82c1.2,0.33,2.47,0.49,3.72,0.52c-3.37,5.49-6.13,11.37-8.22,16.97
		c-5.11,11.24-7.76,22.39-7.4,28.83c0.18,2.89,0.7,11.78,8.5,14.74c4.42,1.69,11.03,0.66,15.75-2.49
		c2.82-1.89,9.14-6.51,14.81-13.54c3.07,5.54,8.72,5.52,10.91,5.52c9.72,0,22.43-9.02,30.69-21.31c2.97,4.01,7.25,6.43,12.34,6.82
		c10.89,0.81,21.01-6.49,25.82-13.6c3.12-4.59,5.75-9.21,7.72-15c1.93-3.96,3.38-8.19,4.52-13.56c0.19-0.17,0.35-0.3,0.53-0.43
		c-0.56,4.41-0.64,9.15-0.41,12.37c0.36,3.87,2.13,7.62,4.89,10.31c2.61,2.56,6.15,3.89,10,3.75c10.44-0.41,25.08-12.55,33.06-24.35
		c3.78,4.76,8.95,7.25,15.63,7.57c10.39,0.46,19.84-5.85,28.88-19.38c1.4-2.07,2.74-4.4,4.061-6.88c0.43,2.98,1.8,5.82,3.75,7.79
		c2.43,2.41,7.3,4.99,13,4.28c9.5-1.21,16.76-7.271,19.899-15.96c2.72,2.32,3.101,4.56,3.101,5.15c-2.181,2.63-5.12,4.79-7.75,6.41
		c-4.851,2.99-11.301,5.37-14.73,6.66c-12.86,4.77-101.35,36.35-179.43,64.22c-42.64,15.22-85.874,30.7-122.362,43.72l-2.657,6.44
		l4.97,6.99c20.583,0.16,35.261,3.55,47.315,11.73l2.188,1.57l1.876-1.97c12.8-13.26,37.38-25.09,55.58-33.02
		c49.27-21.52,101.15-42.27,153.87-63.53c26.801-10.77,47.98-19.28,52.011-21.13c9.97-4.6,21.88-14,24.029-26.9
		c0.57-2.13,0.891-4.4,0.891-6.91c0-7.83-5.22-14.07-14.41-17.71c-0.16-4.82-6.62-17.74-10.36-24.27
		c-0.989-2.15-1.109-4.97-0.43-7.45l1.29-5.22l-19.16,4.87c-3.29,2.2-7.7,12.82-10.13,18.28c-2.27,5.15-6.08,12.67-9.14,18.68
		l-0.16,0.17c-7.521,14.82-12.46,20.44-18.2,20.68c-0.52,0-1.07,0-1.53-0.16c5.57-3.57,9.28-7.45,11.6-10.51
		c3.38-4.38,6.29-10.09,7.66-15.55c1.84-5.09,2.18-10.34,0.859-14.88c-2.18-7.69-9.93-12.38-17.28-10.45
		c-7.299,1.9-14.089,7.56-19.149,16c-1.07,1.77-3.27,5.73-5.1,11c-2.48,5.12-5.57,13.37-5.67,22.5
		c-4.05,5.39-8.76,10.64-12.16,12.81c-3.42,2.13-5.16,2.05-5.42,1.92c-0.78-0.43-1.45-0.95-1.75-2.95c-0.37-2.61,0-6.01,0.69-10.34
		c9.57-7.7,17.2-16.16,22.64-25.16c2.95-4.84,5.75-10.76,7.89-16.75c2.5-6.07,4.07-12.35,4.75-18.76
		c0.67-6.159-0.98-11.099-4.68-14.205c-3.07-2.545-8.38-1.917-11-0.909c-12.53,4.742-24.57,25.424-30.92,41.964
		c-2.09,4.76-3.84,9.4-5.08,13.5c-1.26,4.13-2.28,7.75-3.23,11.45c-1.05,0.78-2.06,1.54-3.04,2.18c-0.56-5.88-2.08-9.71-3.61-13.15
		c-3.24-7.24-8.2-9.81-12.16-11.29c-6.5-2.39-14.23-0.97-20.87,3.69c-3.52,2.46-5.64,5.24-7.34,9.43c-1.93,3.69-3.33,7.44-3.6,11.29
		c-2.59,4.14-12.18,21.56-9.98,41.24c-3.05,4.04-5.86,7.48-10.09,8.84c-0.65,0.21-2.33,0.16-2.73-0.29
		c-0.73-0.72-0.54-2.41-0.26-3.56c2.26-9.32,12.6-39.61,18.68-55.42l2.28-5.95l-1.53,0.42c0.33-0.71,0.44-1.59,0.56-2.28
		c0.99-1.42,1.8-2.98,2.28-4.66c0.71-0.17,1.29-0.28,1.57-0.4c0.74-0.31,3-2.77,4-4.49c0.97-1.75-0.2-3.47-0.2-3.47
		c2.54-4.13-15.4-13.1-16.64-13.77c-5.29-2.79-6.08-3.5-6.2-3.61c-1.61-2.35,1.84-4.45,4.47-5.64c2.69-0.39,5.38-0.66,8.06-0.96
		c42.94-4.771,48.19-24.283,51.94-36.691c0.61-2.064,1.44-5.518,1.26-10.508c-0.38-10.872-0.46-3.833,0-11.549
		c0.16-2.594,9.71-10.392,9.27-15.795c0,0,4.11-2.362,8.13-3.998c2.19-0.892,5.35-2.231,8.57-3.387
		c-3.12-1.95-5.17-2.346-7.58-2.677c-3.85-0.528-6.56-0.594-11.04-1.255c0,0-1.12-2.611-6.23-5.337
		c-1.75-0.942-3.86-1.371-6.76-1.289L230.35,10.224z M278.53,108.26c0.16,3.01-0.68,5.47-1.79,8.03
		c-2.99,6.93-7.3,14.06-11.97,20.01c1.27-3.85,2.57-7.89,4.28-11.73C271.36,119.38,274.94,110.79,278.53,108.26z M344.91,131.74
		c0.55,1.57,1.229,3.16,1.92,4.729c-2.311,0.71-4.18,1.67-5.68,2.67C342.4,136.48,343.66,133.91,344.91,131.74L344.91,131.74z
		 M309.29,134.11c1.479,1.04,0.88,3.43,0.12,5.07c-1.67,3.38-5.29,5.71-9.96,8.13c0.16-1.51,0.62-3.19,1.27-4.66
		c1.95-4.36,4.19-6.83,5.43-7.62C307.05,134.45,308.41,133.49,309.29,134.11z M67.723,149.97c12.039-0.66,10.792,26.2,10.618,30.73
		c-4.194-0.5-7.89-2.32-11.213-5.52c-4.691-4.56-8.448-12.61-7.022-20.97C61.263,152.11,63.275,150.1,67.723,149.97z M209.73,151.06
		c1.08-0.19,2.22,0.19,3.19,0.87c1.98,1.37,3.19,5.69,2.84,11.57c-2.79-0.17-4.81-1.72-6.59-3.54c-1.77-2.26-2.66-4.81-2.63-7.19
		C207.42,151.77,208.56,151.25,209.73,151.06z M352.54,153.29c-0.56,0.71-2.11,1.45-4.21,1.45c-1.04,0-1.93-0.36-2.49-1.021
		c1.7-0.729,4.34-1.07,7.04-0.99C352.78,152.94,352.78,152.99,352.54,153.29L352.54,153.29z M198.61,179.28
		c4.3,2.28,9.14,3.6,13.63,3.71c-0.53,2.07-0.84,4.22-1.78,6c-3.78,7.12-5.8,8.18-8.03,8.31c-4.86-1.98-4.68-13.08-3.8-18.02H198.61
		z M44.47,187.11c7.987,9.48,18.224,13.71,31.596,13.05c-1.062,7.35-3.306,16.12-5.967,23.34c-4.268,9.17-10.971,20.48-20.535,18.56
		c-11.382-2.38-13.066-24.26-11.468-37.44C38.829,197.93,40.997,192.28,44.47,187.11z"/>
	<path id="path3840" d="M353.37,206.93V201h-2.11v-1.22h5.681V201h-2.11v5.93H353.37z"/>
	<path id="path3842" d="M358.36,206.93v-7.15h2.17l1.29,4.89l1.279-4.89h2.19v7.15h-1.36v-5.63l-1.42,5.63h-1.39l-1.42-5.63v5.63
		H358.36z"/>
</g>
<g id="layer6">
	<path id="path16496" fill="#F1491C" d="M206.16,96.485c14.09-4.858,19.75-13.218,23.65-20.19c0.54-0.958,0.94-1.884,1.3-2.792
		c4.18-10.574,4.64-16.059,3.47-20.388c-0.16-1.025-0.53-1.884-0.94-2.28c0,0,1.88,4.659-4.91,10.128
		c-1.34-0.364-2.94-1.008-4.92-2.132c0,0,3.15-0.165,5.38,0.595c0,0-4.08-4.362-10.72-7.782c0,0,2.69-0.462,4.38-0.71
		c-1.92-0.925-6.13-1.421-11.47-5.155c-3.3-3.651-2.51-5.634-2.51-5.634c-2.05,3.734-0.63,6.229-0.63,6.229s2.43,1.867,3.31,2.742
		c3.19,3.09,3.37,4.065,3.37,4.065c-2.76-2.462-13.32-4.659-13.32-4.659l4.2,2.627c-4.63-1.719-10.61-2.247-10.61-2.247l2.3,1.619
		c-7.17-0.347-11.17,0.628-13.33,1.569c-1.69,0.711-2.2,1.24-2.2,1.388c-0.17,0.165-0.17,0.182-0.17,0.182s0.43,0,1.08-0.165
		c2.19,0.198,6.51,0.628,7.04,0.776l-1.09-1.288c0,0,3.46-0.942,7.88,0.611l-1.11-1.173v-0.165c0.16,0,4.18,0.314,7.8,2.197
		l-1.18-1.404l-0.16-0.166c0.51,0.166,9.04,2.28,11.85,5.453c-2.78-1.388-8.51-3.354-16.11-0.711l1.62-1.982
		c0,0-4.51,0.545-10.91,3.271l1.34-1.437c-2.4,1.04-5.44,2.131-7.14,4.741c-1.07,1.636,0.43,4.709,3.75,3.734
		c0.33,1.933,2.27,2.908,4.2,2.28c0.69,1.983,2.56,3.272,5.47,2.231c2.06,4.097,5.71,2.412,6.8,1.702
		c0.53,1.321,2.2,1.553,3.06,1.701c-1.72,3.734-4.92,5.552-8.76,6.725c-2.79,5.171-16.67,10.045-32.91,14.374
		c-7.87,1.652-15.89,3.188-16.32,3.519c-0.34,0.248-0.18,0.71,0.51,0.842c0.52,0.166,5.42,1.224,8.05,1.574
		c0.6,0.16,1.72,0.16,2.33,0.24c0,0-1.16,2.23-1.15,4.45c0,2.61,2.14,4.13,2.88,4.49l3.44-0.48c-0.23-0.71-0.38-1.52,0.33-2.72
		c2.18-3.75,10.55-4.51,12.78-4.78C184.62,101.21,193.83,100.73,206.16,96.485L206.16,96.485z"/>
	<path id="path16500" fill="#F1491C" d="M130.19,77.848c1.05-3.271,6.93-6.295,6.93-6.295c8.66-10.557,28.93-14.638,28.93-14.638
		c-1.95-2.181-9.01-2.677-9.01-2.677c0.12-0.512-0.13-3.568-0.13-3.568c-15.62,2.28-22.61,7.352-27.81,10.342
		c-5.4,3.123-10.16,4.048-17.51,6.196c-1.88,0.562-7.93,1.256-10.81,1.536l-0.7,0.397l5.82,1.636l-6.994,0.495
		c3.394,0.166,10.104,0.893,10.104,0.893c-0.59,0.165-7.72,0.776-7.72,0.776c1.55-0.182,14.18,2.33,14.18,2.33
		c-0.57,0.264-8.26,0.627-8.26,0.627c5.56,0.166,14.02,1.95,14.02,1.95c-0.5,0.165-7.59,1.206-7.59,1.206
		c0.82-0.281,10.81,4.345,10.81,4.345c1.16-2.098,5.72-5.551,5.72-5.551"/>
	<path id="path16548" fill="#F1491C" d="M56.698,77.022c2.827,0,28.875,1.603,46.902,1.19c0,0-43.798-1.702-55.801-2.694
		C47.799,75.518,53.288,76.989,56.698,77.022"/>
	<path id="path16552" fill="#F1491C" d="M39.522,71.487c0,0,2.838,1.619,7.135,1.851c4.323,0.247,36.205,2.263,52.568,2.759
		C99.225,76.097,51.538,72.726,39.522,71.487"/>
	<path id="path16556" fill="#F1491C" d="M93.522,70.727c0,0-35.747-3.569-42.542-3.238c-1.963,0.165-1.469,0.826-1.469,0.826
		C52.4,68.001,93.522,70.727,93.522,70.727"/>
	<path id="path16560" fill="#F1491C" d="M65.253,64.416c-6.184-0.628-6.54,0-6.54,0c5.907,0.264,38.13,4.626,38.13,4.626
		s-25.416-3.949-31.59-4.593"/>
	<path id="path16564" fill="#F1491C" d="M66.242,80.459c6.199,0.214,30.513-0.562,30.513-0.562s-31.616-0.314-37.485-0.859
		C59.27,79.038,60.081,80.277,66.242,80.459"/>
	<path id="path16568" fill="#F1491C" d="M94.498,69.686c0,0-22.526-2.924-30.854-3.75c-12.093-1.239-10.636,0.165-10.636,0.165
		c5.033-0.231,41.49,3.684,41.49,3.684"/>
	<path id="path16668" fill="#F1491C" d="M171.57,104.15c-6.46,1.32-5.75,5.27-5.75,5.27l2.74-0.44
		C167.72,106.1,171.57,104.15,171.57,104.15"/>
	<path id="path16676" fill="#F1491C" d="M187.76,127.56c0,0,0.91,1.36,0.48,2.88c0,0.53,0,1.1,0,1.65c1.62-1.64,2.86-3.39,2.08-4.49
		c0,0,4.54-4-22.04-16.84c0,0-0.84,0.18-1.95,0.28l4.84,2.78c2.94,1.58,19.15,9.61,16.6,13.74"/>
	<path id="path16712" fill="#F1491C" d="M355.19,155.04c-1.82,1.96-3.83,2.86-6.891,2.86c-6.149,0-8.76-7.16-4.01-11.72
		c2.87-2.71,7.76-3.62,13.79-2.95C359.02,148.91,357.35,152.69,355.19,155.04 M307.36,125.93c2.13-1.37,4.96-2.18,6.56-0.85
		c1.73,1.42,2.08,3.75,1.47,7.17c-1.689,9.5-7.63,15.3-19.61,20.19C295.78,139.76,303.71,128.32,307.36,125.93 M220.17,166.01
		c-6.39,2.1-10.47-0.99-13.25-3.83c-2.39-2.47-3.68-5.74-3.53-9.24c0.16-4.41,2.29-8.54,5.55-10.52c2.53-1.52,5.83-1.52,8.52,0.38
		C222.09,146.07,222.8,156.13,220.17,166.01 M206.38,199.43c-1.44,0.94-3.31,1.26-4.64,0.98c-7.14-1.51-7.77-13.8-6.35-21.18
		c0.73-3.94,1.37-8.25,3.27-11.95c6.33,4.94,14.54,6.81,20.27,5.75C216.9,183.8,212.03,195.72,206.38,199.43 M83.139,183.95
		c-8.15,0.53-13.614-2.01-18.228-6.49c-5.299-5.14-8.595-12.59-8.595-19.41c0-6.75,2.791-12.79,7.29-15.78
		c3.396-2.27,7.377-2.61,11.307-0.99C84.433,145.26,85.155,166.9,83.139,183.95 M74.482,221.37c-3.055,7.41-8.088,17.12-14.642,21.5
		c-3.993,2.69-6.767,3.19-10.912,2.31c-13.628-2.87-15.82-25.81-13.983-40.97c1.267-10.33,5.667-20.82,12.182-28.83
		c8.543,12.11,19.484,16.57,35.252,14.77C81.505,199.55,78.272,212.24,74.482,221.37 M277.72,100.53c6.28-6.028,7.85,0.56,5.93,6.76
		c-4.36,13.96-14.6,31.71-25.24,40.12C261.21,133.73,272.65,105.39,277.72,100.53 M369.15,140.53c1.029-4.38-5.341-16.55-8.08-21.71
		c-0.86-1.62-1.53-2.87-1.95-3.75c-1.34-2.89-1.55-6.18-0.71-9.37l-13.18,3.28c-2.79,3.18-6.15,10.32-8.961,16.7
		c-2.329,5.29-6.13,12.75-9.319,19.02c-7.17,14.15-12.87,22.07-20.851,22.4c-4.85,0.23-7.379-2.41-10.01-7.67
		c9.19-3.62,15.91-8.94,20.16-14.5c5.47-7.14,6.95-15.3,5.27-21.15c-1.619-5.67-7.489-9.8-13.449-8.25
		c-6.541,1.72-12.69,6.98-17.23,14.59c-4.26,7.06-8.43,18.18-7.5,28.95c-3.56,5.22-10.87,14.89-16.48,18.39
		c-3.2,2.03-6.51,3.12-8.59,2.01c-1.83-0.95-2.97-2.42-3.38-5.27c-0.58-4.26,0.28-9.78,1.96-17.74
		c21.91-16.7,32.04-35.52,33.99-54.04c0.46-4.2-0.2-8.628-3.57-11.454c-1.88-1.553-5.98-1.09-7.85-0.363
		c-13.05,4.957-26.32,30.267-31.41,46.927c-2.13,6.98-3.43,12.19-4.67,17.72c0,0-7.57,6.12-10.23,6.73c0-8.38-1.69-12.91-3.57-17.1
		c-2.72-6.08-6.79-8.3-10.37-9.62c-5.82-2.13-12.31-0.63-17.77,3.17c-3.96,2.8-7.94,8.07-7.05,15.32c-5.01,5.95-9.3,16.87-10,25.34
		c-0.44,5.29-0.44,10.56,0.42,14.86c-2.63,4.87-10.08,15.16-16.1,16.04c-2.23,0.31-4.37,0-5.51-1.42c-1.23-1.54-1.51-3.67-0.86-6.36
		c2.33-9.57,12.72-40.05,18.82-55.86c-1.74,0.49-13.07,4.14-14.97,4.67c-5.24,13.02-13.96,40.27-18.95,53.83
		c-3.88,6.74-10.82,13-14.7,15.28c-3.23,1.9-7.53,2.04-7.52-4.9c0.13-15.47,13.35-37.57,22.68-47.06c1.28-1.34,0.83-3.15,0.12-3.91
		c-1.44-1.44-4.84-5.19-6.04-7.21c-0.18-0.28-0.47-0.62-0.98-0.72c-0.53-0.17-1.27,0.18-2,0.81c-5.37,4.47-12.04,5.6-20.98,3.6
		c-5.11-1.17-5.57,0.43-6.03,1.95c-0.43,1.52-0.82,5.57-1.16,7.48c-0.93,5.06-7.25,9.52-12.548,11.82
		c1.167-29.26-5.92-47.22-19.572-52.13c-8-2.86-16.074-2.26-22.881,2.01c-7.187,4.52-12.371,12.73-12.865,21.65
		c-14.097,13.81-21.854,33.8-23.273,51.2c-1.472,17.96,1.826,32.85,9.518,42.97c4.514,5.98,11.878,9.67,18.673,10.15
		c8.365,0.61,16.301-2.37,23.565-8.73c15.63-13.68,25.581-40.85,26.556-60.61c7.047-2.12,16.617-9.41,18.617-15.57
		c4,2.68,9.74,1.21,15.02,0.25c-14.63,14.59-22.8,39.98-22.23,50.06c0.28,4.59,1.33,10,6.46,11.98c3.51,1.34,9.09,0.31,12.88-2.21
		c5.65-3.79,12.82-10.12,17.85-18.06c0.87,9.229,6.2,9.53,9.64,9.53c9.07,0,23.08-10.1,30.87-24.55c2.31,6.49,6.97,9.63,12.37,10.06
		c9.5,0.71,18.57-5.68,22.98-12.19c5.34-7.9,8.78-15.55,10.31-27.76c0,0,5.83-3.57,9.83-6.72c-1.39,4.01-2.39,14.14-1.95,19.34
		c0.28,3.34,1.8,6.28,3.89,8.33c1.95,1.93,4.61,2.96,7.66,2.84c10.21-0.43,26.44-14.55,33.18-27.26c3.78,7.7,9.43,10.16,15.79,10.48
		c9.391,0.41,17.8-5.54,26.09-17.98c4.08-6.05,7.83-14.49,11.24-21.74c3.68-8.1,7.36-16.29,10.93-19.7
		c-0.159,5.64,6.28,17.57,8.561,20.89c-15.1-0.99-20.7,7.88-21,12.73c-0.2,3.28,1.22,6.55,2.96,8.25c1.87,1.87,5.82,3.95,10.38,3.37
		c8.78-1.12,16.8-7.45,18.58-17.86c6.74,3.4,8.23,8.08,8.16,10.42c-0.24,7.26-7.05,12.26-12.141,15.42
		c-5.1,3.14-11.75,5.62-15.319,6.94c-12.9,4.76-101.37,36.35-179.42,64.2c-56.54,20.19-106.146,37.89-118.328,42.3l1.686,2.35
		c25.415,1.35,36.609,4.64,47.392,12.16c14.02-14.61,36.48-24.23,56.01-33.46c7.44-3.57,100.22-42,154.53-63.81
		c26.75-10.74,47.92-19.28,51.85-21.06c10.59-4.9,20.4-11.26,20.4-24.42c0-8.55-7.33-13.25-14.271-15.52"/>
	<path id="path16716" fill="#F1491C" d="M173.88,143.29c4.46,0,9.25-4.11,10.74-9.22c1.52-5.05-0.89-9.17-5.35-9.17
		c-4.45,0-9.27,4.12-10.78,9.17C167.01,139.18,169.42,143.29,173.88,143.29"/>
</g>
<g id="layer7">
	<path id="path16508" fill="#B0B7BB" d="M164,64.862c-2.51,0.628-6,1.834-7.73,3.965c0,0,5.32,2.445,16.62-0.793
		c-10.48,2.743-15.37,0.463-15.37,0.463C158.99,66.696,161.67,65.556,164,64.862z"/>
	<path id="path16512" fill="#B0B7BB" d="M163.29,72.511c-11.78,1.289-17.62,0-17.62,0c1.27-1.718,2.5-2.18,3.75-2.94
		c-1.58,0.644-3.86,1.883-4.95,3.535c0,0,5.64,1.289,17.61,0c-1.96,1.074-3.48,2.462-3.48,2.462
		c12.24,1.553,20.98-2.049,23.24-3.123c-3.5,1.355-11.3,3.85-22.07,2.561C159.77,75.006,161.39,73.602,163.29,72.511L163.29,72.511z
		"/>
	<path id="path16516" fill="#B0B7BB" d="M173.6,78.757c6.3-0.142,11.71-1.861,12.68-5.128C184.44,77.161,177.72,78.358,173.6,78.757
		z"/>
	<path id="path16520" fill="#B0B7BB" d="M190.75,75.37c-2.27,3.866-6.83,5.336-10.25,5.667
		C183.61,81.202,188.67,80.128,190.75,75.37z"/>
	<path id="path16524" fill="#B0B7BB" d="M196.15,76.559c-1.84,3.784-5.55,6.477-9.9,5.998
		C189.53,82.607,193.26,80.856,196.15,76.559z"/>
	<path id="path16528" fill="#B0B7BB" d="M143.34,90.058c-12.08,1.9-16.96,0.297-16.96,0.297s0.44-0.661,1.41-1.338
		c-1.64,0.859-2.83,2.148-2.83,2.148s4.96,1.338,17.04-0.562c20.73-3.271,28.26-6.477,30.21-7.468
		C169.02,84.506,160.96,87.282,143.34,90.058"/>
	<path id="path16532" fill="#B0B7BB" d="M139.65,77.088c-0.77,0.413-2.41,1.404-3.37,2.792c0,0,4.71,2.082,18.61-0.396
		c-13.32,2.197-17.4-0.182-17.4-0.182C138.09,78.377,138.9,77.65,139.65,77.088L139.65,77.088z"/>
	<path id="path16540" fill="#B0B7BB" d="M208.97,73.486c0.84-0.215,1.99-0.707,3.81-2.573c3.02-3.09,3.58-4.726,4.71-6.568
		c-1.04,1.326-3.24,4.026-4.93,5.548c-1.93,1.737-2.99,2.4-4.26,2.846c-3.14,7.575-9.3,9.091-9.62,9.163
		c-1.14,3.482-13.26,8.019-29.29,11.878c11.35-2.018,28.94-6.978,29.93-11.025C201.64,82.243,206.74,79.5,208.97,73.486z"/>
	<path id="path16572" fill="#B0B7BB" d="M203.67,71.95c3.35-2.148,6.25-6.624,7.19-8.321c-2.74,3.598-5.79,6.404-8.46,7.924
		c-3.18,1.818-5.24,0.529-6.38-1.305C196.48,72.032,199.11,74.858,203.67,71.95L203.67,71.95z"/>
	<path id="path16580" fill="#B0B7BB" d="M183.18,65.362c0.66,0.562,1.29,1.02,3.17,0.706c1.09-0.264,3.52-1.735,4.83-2.759
		c0.92-0.727,2-1.768,2.97-2.941c-1.7,1.751-3.5,2.954-4.21,3.416c-2.21,1.422-3.52,1.623-3.82,1.673
		c-2.18,0.38-3.45-0.715-3.75-1.805C182.37,64.197,182.65,64.883,183.18,65.362L183.18,65.362z"/>
	<path id="path16584" fill="#B0B7BB" d="M198.65,61.821c-2.93,3.118-5.49,5.33-8.2,5.866c-1.61,0.318-2.92,0.138-4.01-1.712
		c0.16,0.694,0.56,1.712,1.8,2.29c0.61,0.248,2.26,0.413,3.5-0.297C193.89,66.729,196.9,64.613,198.65,61.821L198.65,61.821z"/>
	<path id="path16596" fill="#B0B7BB" d="M239.83,16.486l1.48,3.8c0,0-1.57,1.784-3.42,5.089c0,0,11.02-4.015,21.74-4.974
		c0,0-0.71-0.413-1.46-0.611c-1.75-0.462-7.27-1.421-13.68-1.454c-0.66,0-1.7-0.429-2.46-0.908
		C240.69,16.585,239.83,16.486,239.83,16.486L239.83,16.486z M243.65,19.559c1.14,0,2.43,0.165,3.4,0.248l-4.92,1.454
		C242.13,21.261,241.21,19.559,243.65,19.559z"/>
	<path id="path16600" fill="#B0B7BB" d="M242.15,26.25c0,0-0.43,1.785-0.5,2.858c3.55-2.544,9.83-5.567,16.97-8.079
		c-7.34,1.702-13.6,3.255-20.24,5.634C239.69,26.498,242.15,26.25,242.15,26.25z"/>
	<path id="path16612" fill="#B0B7BB" d="M231.42,23.937c0.3-0.529,0-0.595-0.28-0.165c-0.92,1.074-2.38,1.619-3.65,1.702
		c-1.6,0.165-2.89-1.405-2.94-3.007c-0.16-3.189,2.83-4.164,4.76-3.189c1.21,0.611,1.7,1.256,2.41,2.396
		c0.84,0.165,1.77-0.166,2.28-0.265c-0.79-0.925-3.05-3.04-5.35-3.221c-4.68-0.727-5.65,4.361-5.65,4.361
		c0.87,2.941,3.01,3.933,4.31,3.916c2.35,0,3.67-1.85,4.11-2.561V23.937z"/>
	<path id="path16592" fill="#B0B7BB" d="M190.55,67.984c0.55,1.768,1.64,2.793,3.29,2.908c1.09,0,2.41-0.214,3.52-0.925
		c2.97-1.966,6.16-4.89,7.75-7.022c-2.7,2.859-5.06,4.478-7.79,6.179C193.69,71.405,191.51,69.736,190.55,67.984z"/>
	<path id="path16544" fill="#B0B7BB" d="M206,73.932c0.1-0.24,0.1-0.307,0.27-0.712c-1.78,0.109-3.28-0.639-3.7-1.192
		C203.07,73.482,205.07,73.8,206,73.932z"/>
	<path id="path16536" fill="#B0B7BB" d="M130.99,84.919c0.26-0.846,0.98-1.512,1.71-2.263c-0.92,0.661-2.25,1.784-2.57,2.875
		c0.82,0.604,6.85,2.065,36.41-4.461C155.86,83.234,139.49,86.413,130.99,84.919z"/>
</g>
<g id="layer8">
	<path id="path16608" fill="#FFFFFF" d="M228.83,22.202h1.06c0,0-0.28-2.081-2.65-1.883C227.24,20.319,228.7,20.484,228.83,22.202"
		/>
	<path id="path16616" fill="#FFFFFF" d="M241.12,21.707c0,0-1.09,1.437-1.6,2.412c0,0,8.06-2.974,16.64-4.048
		C250.99,20.236,249.15,19.741,241.12,21.707L241.12,21.707z"/>
	<path id="path16620" fill="#FFFFFF" d="M259.64,20.418c0,0-0.72-0.446-1.47-0.628c-0.43-0.165-5.81-1.404-13.69-1.503
		c0,0-1.42-0.248-2.75-1.107c-1.3-0.843-1.91-0.694-1.91-0.694l0.49,1.14c0,0,1.82,1.867,4.45,1.553
		C247.24,18.865,254.56,18.931,259.64,20.418z"/>
	<path id="path16624" fill="#FFFFFF" d="M168.11,63.937c0,0-1.88,0.264-4.11,0.925c-2.33,0.694-5.04,1.834-6.51,3.635
		c0,0,4.94,2.28,15.4-0.463c0.97-0.264,2-0.529,3.07-0.909c0,0-11.98,2.726-15.94,0.876C160.02,68.001,161.67,65.771,168.11,63.937"
		/>
	<path id="path16628" fill="#FFFFFF" d="M162.38,74.279l3.34-2.726c0,0-14.04,1.999-16.84-0.23c0,0,0.76-1.388,3.3-2.842
		c0,0-1.27,0.364-2.71,1.058c-1.42,0.693-3.03,1.668-3.88,3.007c0,0,5.64,1.272,17.62,0c-1.95,1.057-3.49,2.478-3.49,2.478
		c10.74,1.355,18.8-1.206,22.16-2.578c1.1-0.462,1.7-0.743,1.7-0.743c-14.39,4.081-21.2,2.561-21.2,2.561"/>
	<path id="path16636" fill="#FFFFFF" d="M190.76,75.337c-2.21,2.131-4.87,4.758-10.34,5.7
		C183.94,80.756,188.27,79.649,190.76,75.337z"/>
	<path id="path16640" fill="#FFFFFF" d="M196.15,76.51c-3.12,2.676-5.56,5.071-9.93,6.063C189.97,82.739,193.99,80.129,196.15,76.51
		z"/>
	<path id="path16644" fill="#FFFFFF" d="M126.22,90.388c0,0,5.04,1.57,17.12-0.33c17.62-2.792,25.67-5.552,28.89-6.923
		c1.32-0.578,1.8-0.909,1.8-0.909c-30.33,9.533-45.63,7.336-45.63,7.336c0-0.71,2.04-1.9,2.04-1.9c-0.99,0.281-1.91,0.81-2.65,1.355
		C126.83,89.711,126.22,90.388,126.22,90.388"/>
	<path id="path16648" fill="#FFFFFF" d="M141.24,76.08c0,0-0.72,0.364-1.57,1.008c-0.75,0.545-1.62,1.305-2.22,2.23
		c0,0,4.13,2.413,17.43,0.166c2.53-0.413,5.37-1.025,8.61-1.834c0,0-19.39,3.155-23.35,0.809
		C140.14,78.459,139.43,77.683,141.24,76.08"/>
	<path id="path16672" fill="#FFFFFF" d="M171.98,78.889L171.98,78.889c3.63-0.243,12.63-1.177,14.47-5.601
		c-3.46,3.057-9.05,5.072-14.49,5.601"/>
	<path id="path16652" fill="#FFFFFF" d="M168.56,80.657c0,0-40.36,7.022-34.16,0.677c0,0-0.95,0.595-1.85,1.438
		c-0.69,0.627-1.38,1.404-1.58,2.164c0.96,0.165,7.46,2.065,34.4-3.602"/>
	<path id="path16656-0" fill="#FFFFFF" d="M208.32,72.751c0.67-0.23,1.32-0.53,2-0.98c3.03-2.241,5.56-5.145,7.75-8.201
		c0,0-8.99,11.451-15.06,8.571c-0.26-0.12-0.52-0.28-0.75-0.45l0,0c0.13,0.17,0.28,0.38,0.49,0.55l0.13,0.13
		c0.74,0.53,1.9,0.95,3.36,0.87c-0.11,0.294-0.21,0.469-0.3,0.679c-2.41,5.244-8.88,6.676-8.88,6.676
		c-2.09,5.215-19.58,10.956-34.47,14.767c7.81-1.677,34.02-7.825,36.1-13.436C198.69,81.928,205.02,80.571,208.32,72.751z"/>
	<path id="path16660-9" fill="#FFFFFF" d="M198.75,61.74c0.29-0.28,0.47-0.46,0.47-0.46s-9.51,8.35-12.66,4.54
		c-0.13-0.14-0.18-0.206-0.28-0.386c0.77-0.137,1.55-0.472,2.18-0.752c2.74-1.51,4.5-3.122,5.36-3.962
		c0.39-0.39,0.59-0.62,0.59-0.62s-7.79,6.95-11.96,3.47l0,0l0,0l-0.1-0.109c0,0.06,0,0.126,0,0.189c0.2,0.699,1.09,2.27,3.85,1.802
		c0.12,0.318,0.23,0.49,0.31,0.641c0.47,0.92,1.49,2.24,4.1,1.596C194.55,66.719,197.65,62.77,198.75,61.74L198.75,61.74z"/>
	<path id="path16664-4" fill="#FFFFFF" d="M196.1,70.61c0.79,1.141,2.75,2.941,6.34,0.951c0.45-0.27,1.09-0.639,1.61-1.03
		c3.49-2.63,5.63-5.258,6.62-6.528c0.37-0.49,0.48-0.701,0.48-0.701s-10.16,10.899-14.66,7.449c-0.1-0.101-0.21-0.162-0.28-0.221
		c-0.18-0.165-0.33-0.38-0.49-0.61l0,0c0.33-0.12,1.03-0.42,2.07-1.04c3.15-1.87,6.35-4.9,7.54-6.05c0.29-0.31,0.47-0.49,0.47-0.49
		s-0.24,0.22-0.65,0.57c-0.13,0.13-0.34,0.27-0.66,0.54c-2.99,2.49-10.46,8.037-13.59,4.827c-0.21-0.213-0.36-0.457-0.47-0.637
		c0.1,0.297,0.14,0.53,0.27,0.77c0.57,1.041,2.39,2.494,5.01,1.51C195.71,69.92,195.88,70.337,196.1,70.61L196.1,70.61z"/>
</g>
</svg>
