<?xml version="1.0" encoding="utf-8"?>
<!-- Generator: Adobe Illustrator 16.0.0, SVG Export Plug-In . SVG Version: 6.00 Build 0)  -->
<!DOCTYPE svg PUBLIC "-//W3C//DTD SVG 1.1//EN" "http://www.w3.org/Graphics/SVG/1.1/DTD/svg11.dtd">
<svg version="1.1" id="Layer_1" xmlns:sketch="http://www.bohemiancoding.com/sketch/ns"
	 xmlns="http://www.w3.org/2000/svg" xmlns:xlink="http://www.w3.org/1999/xlink" x="0px" y="0px" width="512px" height="512px"
	 viewBox="0 0 512 512" enable-background="new 0 0 512 512" xml:space="preserve">
<title>cincinnati-reds</title>
<desc>Created with Sketch.</desc>
<g sketch:type="MSShapeGroup">
	<path fill="#FF0028" stroke="#FFFFFF" stroke-width="5" stroke-miterlimit="10" d="M280.842,386.409
		C387.774,386.409,449,316.893,449,253.796C449,178.239,364.253,125,273.759,125v0.005c-72.647,0-123.008,42.807-150.391,75.217
		C85.772,244.734,65,250.406,65,250.406c29.118,25.403,42.82,38.325,56.334,52.89C159.469,344.382,191.05,386.408,280.842,386.409
		L280.842,386.409z"/>
	<path d="M278.982,368.491c-77.683,0-108.227-33.177-144.197-71.216c-14.75-15.594-23.979-29.685-47.865-47.233l4.91,11.306
		c22.962,18.711,32.452,32.23,47.202,47.819c35.968,38.04,65.989,67.979,143.669,67.979c68.018,0,120.654-33.453,145.413-74.636
		l-3.727-8.661C399.634,335.029,346.989,368.491,278.982,368.491L278.982,368.491z M280.969,174.801
		c-75.97,0-105.801,50.29-105.801,74.369c0,13.966,4.087,26.239,11.038,36.698c-4.555-8.507-5.623-21.319-5.623-29.608
		c0-24.093,28.681-72.634,102.967-72.634c44.672,0,78.39,20.539,89.71,38.36h56.252c-1.031-2.034-3.545-8.83-3.545-8.83h-53.714
		C360.934,195.335,325.64,174.801,280.969,174.801L280.969,174.801z"/>
	<path fill="#FFFFFF" d="M134.785,297.273c35.972,38.041,66.516,71.217,144.197,71.217c68.007,0,120.651-33.463,145.405-74.643
		H371.27c-24.85,18.795-55.298,33.957-94,33.957c-35.726,0-73.048-14.837-91.062-41.938c-6.951-10.459-11.038-22.734-11.038-36.698
		c0-24.079,29.829-74.369,105.802-74.369c44.671,0,79.963,20.535,91.284,38.355h53.714c-24.912-48.987-89.223-78.511-153.533-78.511
		c-63.168,0-111.43,36.28-139.139,68.954c-36.711,43.304-46.377,46.445-46.377,46.445
		C110.806,267.592,120.035,281.684,134.785,297.273z"/>
	<path d="M312.621,244.253h-11.954v-5.7h-17.86v11.592h5.883v-5.736h11.776l6.082,5.707H318.5V234.29l-5.879-5.856V244.253z
		 M262.973,281.425l5.805,5.858h49.722v-15.471l-5.879-5.857v15.47H262.973L262.973,281.425z M282.809,260.079v11.583h5.883v-5.723
		h14.699V256l-5.884-5.856v9.935H282.809z M262.973,238.553l5.805,5.856h2.082v-5.856H262.973L262.973,238.553z M194.657,238.553
		l5.874,5.856h2.091v-5.856H194.657L194.657,238.553z M194.657,281.425l5.874,5.858h27.886v-9.751l-5.883-5.858v9.751H194.657z
		 M237.437,257.371l6.201,14.304h3.344l-3.666-8.446l8.852-7.228v-11.654l-5.881-5.853v11.65L237.437,257.371L237.437,257.371z
		 M214.566,259.957v11.717h5.881v-5.859h7.925l-2.523-5.858L214.566,259.957L214.566,259.957z M250.296,281.425h-15.184l5.881,5.858
		h15.186v-9.751l-5.883-5.858V281.425L250.296,281.425z M234.335,244.409v-3.346l-3.019-2.51h-16.75v11.641h5.881v-5.785H234.335
		L234.335,244.409z"/>
	<path fill="#FFFFFF" d="M282.809,238.553h17.859v5.7h11.954v-15.819h-49.726v10.119h7.965v33.109h-7.887v0.012h-0.078v9.751h49.726
		v-15.47h-11.954v5.707h-17.859v-11.583h14.698v-9.935h-14.698V238.553L282.809,238.553z M250.296,271.674h-6.656l-6.201-14.304
		l8.85-7.226v-11.65l-12.02-10.062h-39.612v10.119h7.964v33.124h-7.964v9.751h27.879v-9.751h-7.97v-11.717h11.284l2.524,5.858
		l6.738,15.609h15.184V271.674L250.296,271.674z M220.447,250.194h-5.883v-11.641h16.75l3.019,2.51v6.733l-2.88,2.399
		L220.447,250.194L220.447,250.194z"/>
	<path d="M325.24,238.553l5.796,5.856h2.085v-5.856H325.24L325.24,238.553z M362.931,244.409v-3.346l-3.013-2.51H345.07v33.109
		h5.877v-27.253H362.931L362.931,244.409z M374.877,271.611l-12.011,9.813h-37.627l5.796,5.858h33.964l15.76-12.861v-30.075
		l-5.883-5.853L374.877,271.611L374.877,271.611z M414.17,260.079h-15.068l-11.953-9.935l18.932,15.795h11.092v-3.366
		L414.17,260.079L414.17,260.079z M434.927,265.939l-5.877-5.86l0.071,11.397l-12.009,10.062h-14.953l-3.131-2.632v2.767h-11.882
		l5.882,5.858h11.877v-2.772l3.136,2.632h11.467l15.47-12.634l-0.052-8.815L434.927,265.939z M417.171,244.253v-3.183l-3.054-2.542
		l-11.77,0.016l-3.067,2.551v6.569l2.984,2.48h2.896v-3.197l3.064-2.544l8.767-0.014l6.06,5.727h11.876V234.29l-5.877-5.856v15.819
		H417.171L417.171,244.253z M401.94,271.579l3.192,0.022l-6.104-5.756v3.322L401.94,271.579L401.94,271.579z"/>
	<path fill="#FFFFFF" d="M374.877,271.611v-33.117l-12.011-10.062h-37.712v10.119h7.968v33.111h-7.883v0.014h-0.085v9.752h37.712
		l12.011-9.814V271.611z M350.946,271.662h-5.877v-33.109h14.848l3.013,2.51v28.203l-2.88,2.397L350.946,271.662L350.946,271.662z
		 M399.028,278.906l3.131,2.632h14.953l12.009-10.062l-0.071-11.397l-11.948-9.935h-14.837l-2.984-2.48v-6.569l3.067-2.551
		l11.77-0.016l3.054,2.542v3.183h11.879v-15.819h-11.879v2.578l-3.077-2.578h-14.748l-12.196,10.06v11.65l11.954,9.935h15.067
		l3.001,2.493v6.68l-2.899,2.418l-9.139-0.068l-3.192-0.023l-2.912-2.411v-3.323h-11.881v15.828h11.881v-2.768L399.028,278.906z"/>
	<path d="M417.274,351.591h-3.824v10.347h-2.581v-10.347h-3.815v-2.252h10.223v2.252H417.274z M434.566,361.928h-2.583v-10.021
		h-0.06l-3.664,10.021h-2.481l-3.54-10.021h-0.061v10.031h-2.588v-12.599h4.471l2.946,8.228h0.055l3.068-8.228h4.438
		L434.566,361.928L434.566,361.928L434.566,361.928z"/>
</g>
</svg>
