<?xml version="1.0" encoding="utf-8"?>
<!-- Generator: Adobe Illustrator 16.0.4, SVG Export Plug-In . SVG Version: 6.00 Build 0)  -->
<!DOCTYPE svg PUBLIC "-//W3C//DTD SVG 1.1//EN" "http://www.w3.org/Graphics/SVG/1.1/DTD/svg11.dtd">
<svg version="1.1" id="svg2562" xmlns:svg="http://www.w3.org/2000/svg"
	 xmlns="http://www.w3.org/2000/svg" xmlns:xlink="http://www.w3.org/1999/xlink" x="0px" y="0px" viewBox="0 0 233.858 161.444" enable-background="new 0 0 233.858 161.444" xml:space="preserve">
<g id="g8" transform="matrix(1.25,0,0,1.25,302.34967,479.91637)">
	<path id="path10" fill="#4C3576" d="M-199.744-315.945l-6.713,13.921h15.785l44.124-33.56l-37.039,33.436h2.734l35.051-25.108
		l-28.215,25.232h3.107l28.836-19.266l-21.999,19.142l3.108,0.124l25.852-15.288l-19.265,15.164l2.984,0.248l25.232-13.548
		l-18.52,13.3h56.678l-12.43-16.532l-4.972,0.746l-4.847-8.327l-24.859-22.373l-13.795-12.679l-16.78,21.379l-9.321-2.859
		l-15.537,24.734l-4.226-0.745l-1.863,3.232L-199.744-315.945z"/>
</g>
<g id="g12" transform="matrix(1.25,0,0,1.25,329.69467,485.976)">
	<path id="path14" fill="#FFFFFF" d="M-206.457-325.888l10.813-17.774l9.323,2.486l15.412-20.136l11.112,12.939l-0.497,1.367
		l-2.535-1.628l-2.859,2.611l-1.492-6.463l-3.604,4.35l-1.865-2.735l-14.915,12.43l-2.984-2.486l-7.83,9.571l-1.367-1.243
		L-206.457-325.888z"/>
</g>
<g id="g16" transform="matrix(1.25,0,0,1.25,416.86892,526.4985)">
	<path id="path18" fill="#FFFFFF" d="M-200.875-355.199l-3.285-6.113l-2.297,1.346c0,0,2.35,2.53,2.971,2.904
		C-202.863-356.691-200.875-355.199-200.875-355.199z"/>
</g>
<g id="g20" transform="matrix(1.25,0,0,1.25,259.00247,451.64)">
	<path id="path22" fill="#161413" stroke="#FFFFFF" stroke-miterlimit="10" d="M-57.734-285.369h36.35v-2.734
		c0,0-6.464-0.124-6.464,0c-0.882-9.544-8.564-36.178-33.741-54.83c-12.884-10.118-30.005-17.673-52.27-18.38
		c-28.463,0.994-39.773,9.073-51.581,16.655c-30.949,21.876-34.927,56.305-34.927,56.305h-6.091v2.858h37.608l1.354-2.733h-8.013
		c0,0,6.837-43.255,57.548-48.6c-0.124,0.125,3.978-4.474,3.978-4.474l4.474,4.474c0,0,6.836,0.746,11.311,2.113
		c4.474,1.367,8.7,3.231,8.7,3.231s-14.783,1.378-15.412,17.154c1.1,13.723,12.801,16.158,16.034,16.158
		c3.231,0,15.909-0.373,17.524-16.158c0-3.605-0.87-5.843-0.87-5.843s6.339,4.6,12.057,13.922
		c5.718,9.321,7.085,17.898,7.085,17.898h-6.876L-57.734-285.369z"/>
</g>
<g id="g24" transform="matrix(1.25,0,0,1.25,410.17392,557.21187)">
	<path id="path26" fill="#161413" stroke="#FFFFFF" stroke-miterlimit="10" d="M-206.457-359.075v-2.237h13.113v2.547
		c0,0-2.361-0.497-3.045,1.12c-0.684,1.616-0.497,10.751-0.497,10.751s-0.187,8.887,0.125,9.633c0.31,0.745,0.558,2.423,1.925,2.61
		c1.368,0.186,1.554,0.435,1.554,0.435v1.989h-13.112v-2.175c0,0,1.988-0.125,2.609-1.181c0.622-1.057,0.497-2.113,0.497-2.113
		v-9.509l-0.124-9.073c0,0,0.187-1.057-0.434-1.678C-204.467-358.578-205.338-359.075-206.457-359.075z"/>
</g>
<g id="g28" transform="matrix(1.25,0,0,1.25,302.34967,556.04687)">
	<path id="path30" fill="#161413" stroke="#FFFFFF" stroke-miterlimit="10" d="M-192.163-361.312c8.079,0,13.983,5.469,13.983,15.35
		c0,9.881-5.904,15.04-14.729,15.537c-8.701-0.497-13.548-5.904-13.548-15.661C-206.457-355.843-199.993-360.815-192.163-361.312z
		 M-199.62-345.216c1.118,11.994,5.966,12.243,8.389,12.243c2.424,0,7.582-3.605,6.029-14.481
		c-1.554-10.876-6.029-11.31-8.266-11.31C-195.27-358.515-200.739-357.211-199.62-345.216z"/>
</g>
<g id="g32" transform="matrix(1.25,0,0,1.25,264.82889,551.07437)">
	<path id="path34" fill="#161413" stroke="#FFFFFF" stroke-miterlimit="10" d="M-190.423-329.928v2.487h-16.034v-2.424
		c0,0,3.294-0.249,3.854-1.678c0.56-1.43,0.435-1.865,0.435-1.865s0-20.819,0-22.124c0-1.305-1.181-2.051-2.299-2.362
		c-1.119-0.31-1.927-0.31-1.927-0.31v-2.611c0,0,1.802,0.124,3.854,0c2.051-0.125,5.718-0.497,9.321-0.497
		c3.605,0,14.915,0.063,14.915,9.26c0.436,7.147-6.587,8.887-6.587,8.887s-0.186,0.808,0.497,1.181s0.87,0.746,0.87,0.746
		s2.548,4.598,2.921,5.283c0.373,0.682,1.988,4.287,2.921,4.971c0.932,0.683,3.293,1.119,3.293,1.119v2.485h-9.695l-8.327-13.733
		c0,0-0.933-0.373-1.306-0.373s-0.994,0.185-0.994,0.185l-0.124,7.645c0,0-0.186,2.05,0.808,2.859
		C-193.033-329.989-190.423-329.928-190.423-329.928z M-191.852-344.407c0.994-0.125,5.655-1.243,5.221-7.521
		c0-6.525-4.786-6.898-6.463-6.898s-1.74,0.249-1.74,0.249v14.294C-194.835-344.283-192.847-344.283-191.852-344.407z"/>
</g>
<g id="g36" transform="matrix(1.25,0,0,1.25,315.55642,536.62562)">
	<path id="path38" fill="#FFFFFF" d="M-200.739-360.69l-3.107-0.622l-2.611,3.977L-200.739-360.69z"/>
</g>
<g id="g40" transform="matrix(1.25,0,0,1.25,428.19642,537.55812)">
	<path id="path42" fill="#FFFFFF" d="M-206.457-360.443l3.605-0.869l2.486,3.355L-206.457-360.443z"/>
</g>
<g id="g44" transform="matrix(1.25,0,0,1.25,388.26767,491.8805)">
	<path id="path46" fill="#FFFFFF" d="M-191.169-361.312c0,0,5.469,0.248,8.328,2.735c6.711,5.096,5.469,9.695,5.469,9.695
		l-0.87,0.123c0,0-0.622-1.864-1.119-1.864c-0.497,0-0.559,0.373-0.559,0.373l0.311,1.119h-1.057c0,0-0.373-1.678-1.057-1.678
		c-0.683,0-0.434,0.683-0.434,0.683l-0.063,1.119l-0.87-0.062c0,0-0.807-1.988-1.43-1.429c-0.621,0.559-0.186,0.807-0.186,0.807
		s0.622,0.995-0.062,0.995c-0.683,0-1.305-0.808-1.305-0.808s-0.373-0.933-0.745-0.622c-0.373,0.311-0.311,0.746-0.311,0.746
		l0.497,0.994l-0.746,0.312c0,0-1.367-1.119-1.678-1.119s-0.994,0.497-0.559,0.746c0.434,0.248,0.87,0.497,0.87,0.807
		c0,0.311-0.436,0.436-0.436,0.436l-0.621,0.186c0,0-1.243-1.305-1.678-0.808c-0.435,0.497,0.187,0.994,0.187,0.994l0.435,0.622
		l-0.497,0.373c0,0-0.871-0.125-1.119-0.311c-0.249-0.188-0.807-0.498-0.995-0.125c-0.185,0.373,0.188,0.746,0.188,0.746
		l0.869,0.621l-0.994,0.621c0,0-1.243-0.745-1.491-0.497c-0.249,0.249-0.374,0.933-0.374,0.933l0.995,0.559l-0.187,0.497
		l-0.621,0.186c0,0-0.933-0.311-1.243-0.186c-0.311,0.124-0.311,0.932-0.311,0.932s0.435,0.497,0.684,0.497
		c0.248,0,0.933,0.062,0.497,0.436c-0.435,0.373-0.621,0.373-0.621,0.373s-1.554-0.373-1.803,0.311
		c-0.248,0.684,0.684,0.807,0.684,0.807s0.932-0.061,0.87,0.249c-0.063,0.311-0.311,0.621-0.311,0.621l-0.994,0.125
		c0,0-0.87,0.124-0.932,0.684c-0.063,0.559,0.683,0.621,0.683,0.621s1.057-0.187,0.87,0.434c-0.186,0.622-1.18,0.685-1.18,0.685
		s-0.808,0-0.808,0.497c0,0.497,0.372,0.745,0.372,0.745s1.43-0.124,1.306,0.436c-0.124,0.56-0.684,0.497-0.684,0.497
		s-8.327-3.357-8.327-11.994c-0.125-1.492-0.063-3.17-0.063-3.17s0.186-0.746,0.622-0.124c0.435,0.621,0.497,0.684,0.87,0.684
		s0.249-0.932,0.249-0.932l-0.125-0.746c0,0,0.31-0.248,0.622-0.248c0.31,0,0.87,1.554,1.242,1.554c0.373,0,0.871-0.373,0.871-0.373
		s-0.062-0.497-0.186-0.746c-0.125-0.248-0.374-0.621-0.374-0.621l0.932-0.373c0,0,0.497,0.622,0.746,0.87
		c0.248,0.249,0.684,0.497,0.933,0.373c0.248-0.124,0.124-0.621,0.124-0.621l-0.622-1.056l0.932-0.311c0,0,0.995,1.056,1.305,1.056
		c0.312,0,0.56-0.372,0.56-0.372s0.062-0.373-0.124-0.684c-0.187-0.311-0.746-0.498-0.187-0.932c0.56-0.435,0.932,0,0.932,0
		s0.622,0.746,0.932,0.746c0.311,0,0.808-0.56,0.497-0.994c-0.31-0.436-0.746-0.436-0.746-0.436l0.249-0.684
		c0,0,0.56-0.186,1.057,0.062c0.497,0.249,1.491,0.498,1.491-0.062c0-0.559-0.434-0.746-0.434-0.746l-0.56-0.248
		c0,0,0.063-0.684,0.373-0.684c0.311,0,0.621-0.186,1.057,0c0.434,0.187,0.497,0.248,0.87,0.124
		c0.372-0.124,0.248-0.684-0.249-0.994c-0.497-0.311-0.87-0.062-0.808-0.622c0.063-0.559,0.932-0.372,0.932-0.372l1.243,0.061
		l0.435-0.745c0,0-0.248-0.436-0.496-0.436c-0.25,0-0.871-0.124-0.871-0.56c0-0.434,0.497-0.434,0.932-0.434s1.305,0,1.367-0.249
		c0.063-0.248,0.063-0.808,0.063-0.808s-0.87,0.062-1.119-0.062C-191.107-360.877-191.169-361.312-191.169-361.312z"/>
</g>
<g id="g48" transform="matrix(1.25,0,0,1.25,272.51929,554.57062)">
	<path id="path50" fill="#C9CCD1" d="M-206.457-361.312h3.543v28.526h-3.543V-361.312z"/>
</g>
<g id="g52" transform="matrix(1.25,0,0,1.25,289.22217,554.57062)">
	<path id="path54" fill="#C9CCD1" d="M-206.457-361.312c0,0,6.339,0.745,6.339,6.774c0,6.028-6.215,7.209-6.215,7.209
		s1.927-1.74,1.927-7.271C-204.406-360.131-206.457-361.312-206.457-361.312z"/>
</g>
<g id="g56" transform="matrix(1.25,0,0,1.25,284.56029,575.31187)">
	<path id="path58" fill="#C9CCD1" d="M-206.457-360.628c0,0,1.989-0.684,2.611-0.684c0.622,0,1.616,0,1.616,0
		s1.802,1.803,2.237,2.734c0.434,0.933,5.22,9.012,5.22,9.012h-5.22L-206.457-360.628z"/>
</g>
<g id="g60" transform="matrix(1.25,0,0,1.25,304.21492,560.70687)">
	<path id="path62" fill="#C9CCD1" d="M-200.554-361.312c0,0-2.733,4.04-2.236,11.249c0,7.893,3.542,12.243,3.542,12.243
		s-7.209,0.062-7.209-11.435C-206.333-358.888-200.554-361.312-200.554-361.312z"/>
</g>
<g id="g64" transform="matrix(1.25,0,0,1.25,326.66479,559.93062)">
	<path id="path66" fill="#C9CCD1" d="M-206.457-361.312c0,0,7.271,1.741,7.271,11.372c0,9.633-5.469,12.493-5.469,12.493
		s1.74-2.3,1.74-12.244C-203.723-358.267-206.457-361.312-206.457-361.312z"/>
</g>
<g id="g68" transform="matrix(1.25,0,0,1.25,258.07108,597.52937)">
	<path id="path70" fill="#161413" stroke="#FFFFFF" stroke-miterlimit="10" d="M-206.457-361.312h185.942v3.108h-7.83v4.723
		h-170.157v-4.972h-7.955V-361.312z"/>
</g>
<g id="g72" transform="matrix(1.25,0,0,1.25,340.25979,556.27937)">
	<path id="path74" fill="#161413" stroke="#FFFFFF" stroke-miterlimit="10" d="M-206.457-345.713
		c0-8.701,5.469-15.599,15.599-15.599c3.854,0,6.276,1.429,6.276,1.429s1.43-0.931,1.803-0.931c0.373,0,0.373,0.497,0.373,0.497
		l0.373,9.508h-1.74c0,0-1.491-7.768-7.52-7.768c-6.029,0-8.515,6.4-8.515,12.74c0,6.339,3.48,12.429,8.7,12.429
		c5.221,0,8.204-6.899,8.204-6.899s0.186-0.434,0.621-0.434s0.995,0.186,0.995,0.186l0.062,0.621l-2.238,8.888
		c0,0-2.237-0.249-3.231-0.249c-0.995,0-6.463,0.621-7.334,0.621C-194.897-330.674-206.457-331.916-206.457-345.713z"/>
</g>
<g id="g76" transform="matrix(1.25,0,0,1.25,342.04692,561.09562)">
	<path id="path78" fill="#C9CCD1" d="M-202.791-349.566c0,6.774,3.543,11.248,3.543,11.248s-7.209-1.181-7.209-10.937
		c0-9.757,6.339-12.057,6.339-12.057s0.373,0.125,0.124,0.622C-200.243-360.193-202.791-356.34-202.791-349.566z"/>
</g>
<g id="g80" transform="matrix(1.25,0,0,1.25,416.27267,560.20187)">
	<path id="path82" fill="#C9CCD1" d="M-206.457-361.312h3.293v24.113h-3.293V-361.312z"/>
</g>
<g id="g84" transform="matrix(1.25,0,0,1.25,372.49855,557.13437)">
	<path id="path86" fill="#161413" stroke="#FFFFFF" stroke-miterlimit="10" d="M-206.457-359.013l0.124-2.237h13.113v2.299
		c0,0-2.921-0.062-3.107,1.554c-0.187,1.616-0.249,9.26-0.249,9.26l8.016-9.073c0,0,0.373-0.435,0.249-0.871
		c0-0.807-1.367-0.994-1.367-0.994v-2.237h10.689v2.424c0,0-3.169-0.125-4.413,0.932c-1.74,0.87-7.458,7.831-7.458,7.831
		s2.487,3.107,3.916,5.219c1.43,2.114,5.035,8.017,5.593,8.452c0.56,0.436,0.809,1.368,2.3,1.803c1.491,0.435,1.74,0.248,1.74,0.248
		v2.3h-14.045v-2.424c0,0,2.238,0.248,2.238-0.808c0-1.056-0.871-3.169-2.424-4.971c-1.554-1.803-3.791-4.848-4.848-4.973
		c-0.062,1.119,0,8.577,0,8.577s0.124,1.243,1.057,1.865c0.931,0.621,2.175,0.434,2.175,0.434v2.3h-13.238v-2.237
		c0,0,2.797,0,3.045-1.678c0.249-1.679,0.249-2.052,0.249-2.052v-18.519c0,0,0-1.492-1.181-1.927
		C-205.463-358.951-206.457-359.013-206.457-359.013z"/>
</g>
<g id="g88" transform="matrix(1.25,0,0,1.25,428.74017,557.28937)">
	<path id="path90" fill="#161413" stroke="#FFFFFF" stroke-miterlimit="10" d="M-206.084-358.951v-2.361h21.752l0.434,7.023h-2.05
		c0,0,0.559-3.916-2.238-3.916s-7.83,0-7.83,0v9.757c0,0,2.175,0.249,2.983,0.249c0.808,0,3.294-0.311,3.418-1.367
		c0.125-1.056,0.559-2.237,0.559-2.237h1.491v9.881h-1.615c0,0-0.214-2.882-1.864-3.169c-1.43-0.249-2.051-0.312-2.61-0.312
		c-0.56,0-2.3,0.373-2.3,0.373v8.639c0,0,0.311,1.118,1.616,1.118c1.305,0,5.469,0,5.904,0c0.435,0,2.05-0.372,2.486-1.056
		c0.435-0.684,1.553-3.792,1.553-3.792h1.802l-0.683,7.894h-23.181v-2.424c0,0,2.362,0.187,3.17-0.435
		c0.807-0.621,0.994-0.87,0.994-0.87l-0.124-20.011c0,0,0.186-1.927-1.181-2.611C-204.965-359.261-206.084-358.951-206.084-358.951z
		"/>
</g>
<g id="g92" transform="matrix(1.25,0,0,1.25,435.84892,560.04687)">
	<path id="path94" fill="#C9CCD1" d="M-206.457-361.312h3.293v24.486h-3.293V-361.312z"/>
</g>
<g id="g96" transform="matrix(1.25,0,0,1.25,459.27017,551.07437)">
	<path id="path98" fill="#161413" stroke="#FFFFFF" stroke-miterlimit="10" d="M-197.322-361.312c4.289,0,6.899,1.057,6.899,1.057
		s0.434,0.187,0.683,0c0.249-0.186,0.808-0.746,0.808-0.746h1.243l0.56,9.819l-2.175-0.186c0,0-0.995-7.085-7.334-7.085
		c-5.034,0.621-3.791,5.283-2.175,6.091c3.418,3.604,13.051,6.897,13.051,15.785c0,8.886-8.079,10.379-9.882,10.379
		c-1.802,0-6.712-1.306-7.395-1.368c-0.684-0.062-1.243,0.932-1.243,0.932h-1.056l-1.119-10.503l1.802-0.061
		c0,0,1.492,3.852,2.486,4.785c0.995,0.931,2.113,3.107,5.345,3.107c3.231,0,4.35-2.673,4.35-5.034c0-2.361-3.977-5.594-5.469-6.525
		c-1.492-0.933-8.204-3.791-8.204-11.187C-206.147-359.447-201.61-361.312-197.322-361.312z"/>
</g>
<g id="g100" transform="matrix(1.25,0,0,1.25,461.98892,557.36687)">
	<path id="path102" fill="#C9CCD1" d="M-204.841-361.312c0,0-0.124,2.486,1.864,4.599c3.107,4.226,13.113,6.774,13.113,14.481
		c-0.434,5.655-3.169,6.96-3.169,6.96s0.311-1.181,0.311-4.288c0-4.226-6.277-7.707-6.277-7.707s-7.458-4.225-7.458-9.322
		C-206.457-360.814-204.841-361.312-204.841-361.312z"/>
</g>
<g id="g104" transform="matrix(1.25,0,0,1.25,400.23017,508.03775)">
	<path id="path106" fill="#FFFFFF" d="M-206.394-346.21l0.124-0.435c0,0,1.305,0.621,1.429,0.373
		c0.125-0.249,0.063-0.932,0.063-0.932l-0.809-0.497c0,0-0.87,0-0.745-0.684c0.124-0.684,0.684-0.187,0.684-0.187l0.807,0.373
		v-1.305c0,0-0.994-0.373-0.994-0.87s0.311-0.497,0.311-0.497l0.994,0.683c0,0,0.497-0.124,0.497-0.434
		c0-0.311-0.061-0.56-0.061-0.56l-0.996-0.932c0,0-0.124-0.684,0.374-0.684c0.497,0,0.87,0.808,0.87,0.808s0.559-0.249,0.497-0.684
		c-0.062-0.435-0.373-0.808-0.373-0.808s-0.56-0.559-0.435-0.933c0.124-0.373,0.56-0.31,0.56-0.31s0.373,0.932,0.746,0.932
		c0.372,0,0.807-0.56,0.621-0.932c-0.187-0.372-0.684-1.181-0.684-1.181s0.063-0.497,0.372-0.497c0.312,0,0.933,0.994,0.933,0.994
		s0.684,0.249,0.684-0.311c0-0.56-0.187-1.182-0.187-1.182s-0.435-0.559,0.062-0.808c0.498-0.248,0.498,0.249,0.622,0.497
		c0.124,0.249,0.435,0.932,0.683,0.622c0.249-0.311,0.436-0.87,0.436-0.87s-0.249-0.436-0.249-0.87s0.249-0.622,0.249-0.622
		s0.497-0.621,0.558-0.248c0.063,0.373,0.063,0.995,0.125,1.181c0.062,0.187,0.808,0.187,0.87-0.124
		c0.062-0.311,0.124-0.497,0.124-0.497s-0.249-0.497-0.062-0.87c0.186-0.373-0.062-0.559,0.311-0.559s0.622,0.807,0.622,0.807
		s0,0.746,0.31,0.684c0.311-0.062,0.684-0.621,0.684-1.118c0-0.497,0.186-1.057,0.621-1.118c0.435-0.062,0.062,1.18,0.062,1.18
		s0.311,0.559,0.56,0.434c0.248-0.124,0.558-0.434,0.558-0.434l0.499-1.43h0.683c0,0-0.249,1.305,0.062,1.367
		c0.311,0.062,0.746-0.124,0.746-0.124s0.186-0.809,0.373-1.056c0.186-0.249,0.807-0.311,0.807-0.311s0.187,0,0.124,0.373
		c-0.061,0.372-0.497,0.994,0,1.118c0.497,0.124,0.933,0,0.933,0s0.311-1.616,0.994-1.554c0.684,0.062-0.124,1.119-0.124,1.119
		s0.063,0.559,0.497,0.684c0.436,0.124,0.994-0.684,0.994-0.684s0.311-0.622,0.684-0.498c0.373,0.125-0.373,1.119-0.373,1.119
		s0.746,0.995,0.746,1.305s-0.684,6.401-6.463,10.316C-198.937-343.165-206.394-346.21-206.394-346.21z"/>
</g>
<g id="g108" transform="matrix(1.25,0,0,1.25,388.88892,492.0355)">
	<path id="path110" fill="#FFFFFF" d="M-205.524-351.245c-0.249,0.312-0.622,0.249-0.622,0.249l-0.311-0.187
		c0,0,1.989-5.406,5.967-7.706c3.976-2.3,6.524-2.424,6.524-2.424l-0.434,0.932l0.186,0.56c0,0,1.057,0.621,0.621,1.057
		c-0.434,0.436-1.056-0.249-1.056-0.249s0-0.745-0.497-0.248c-0.497,0.497-0.124,1.181-0.124,1.181s0.932,0.807,0.497,1.243
		c-0.436,0.435-0.808-0.373-0.808-0.373s-0.311-0.684-0.684-0.311c-0.373,0.373-0.186,0.994-0.186,0.994s0.87,1.367,0.186,1.43
		c-0.683,0.062-0.994-1.243-0.994-1.243s-0.683,0.684-0.683,0.994s0.807,1.119,0.124,1.554c-0.684,0.436-0.808-0.684-0.808-0.684
		s-0.373-0.87-0.746-0.434c-0.373,0.434-0.124,1.118-0.124,1.118s0.248,1.18-0.312,1.18c-0.558,0-0.682-0.434-0.682-0.434
		s0.061-1.305-0.373-1.057c-0.436,0.248-0.498,0.932-0.498,0.932s0.373,1.491-0.435,1.491c-0.807,0-0.434-0.994-0.434-0.994
		s-0.125-0.995-0.56-0.809c-0.436,0.186-0.436,0.746-0.436,0.746l-0.186,1.306l-0.869,0.185c0,0,0.186-0.807,0.061-1.118
		c-0.124-0.311-0.31-0.436-0.621-0.436c-0.31,0-0.622,0.56-0.622,0.56S-205.276-351.555-205.524-351.245z"/>
</g>
<g id="g112" transform="matrix(1.25,0,0,1.25,404.81392,491.80237)">
	<path id="path114" fill="#161413" d="M-206.209-361.312c0,0,1.119,0.56,0.809,0.932c-0.311,0.373-0.684-0.062-0.684-0.062
		l-0.373-0.497L-206.209-361.312z"/>
</g>
<g id="g116" transform="matrix(1.25,0,0,1.25,446.84017,507.5715)">
	<path id="path118" fill="#C9CCD1" d="M-190.547-356.278c1.989,3.543,3.418,8.515-1.367,11.684
		c-4.786,3.17-9.819-0.373-11.249-3.294c-1.429-2.921-3.294-7.396,1.927-11.248C-197.197-361.312-192.536-359.82-190.547-356.278z"
		/>
</g>
<g id="g120" transform="matrix(1.25,0,0,1.25,449.48267,510.67937)">
	<path id="path122" fill="#161413" d="M-193.344-357.831c0.559,0.932,2.299,3.915-2.486,7.457c-4.786,3.543-8.329,0.684-8.763-0.559
		c-0.435-1.243-1.864-4.911,3.169-7.645C-196.39-361.312-193.904-358.764-193.344-357.831z"/>
</g>
<g id="g124" transform="matrix(1.25,0,0,1.25,427.65392,482.01362)">
	<path id="path126" fill="#C9CCD1" d="M-195.955-361.312c0,0,3.667,3.232,4.723,4.289c1.057,1.056,7.769,6.898,2.238,12.429
		c-5.532,5.532-12.43-1.802-13.114-2.548c-0.683-0.746-1.677-1.864-2.237-2.424c-0.559-0.559-2.112-1.927-2.112-1.927l0.497-0.684
		c0,0,0.931,0.746,1.18,0.809c0.25,0.062,0.871,0,0.871,0s7.084-6.401,7.519-6.898c0.435-0.497,0.311-1.367,0.311-1.678
		c0-0.312-0.497-0.995-0.497-0.995L-195.955-361.312z"/>
</g>
<g id="g128" transform="matrix(1.25,0,0,1.25,433.01267,487.06362)">
	<path id="path130" fill="#161413" d="M-205.711-353.42l7.519-6.96c0,0,0.56-0.932,1.245-0.311c0.682,0.622,3.479,2.734,3.106,5.78
		c-0.373,3.045-3.418,6.339-6.898,5.842c-3.48-0.497-4.972-2.859-4.972-2.859S-206.457-352.425-205.711-353.42z"/>
</g>
<g id="g132" transform="matrix(1.25,0,0,1.25,401.86267,467.56537)">
	<path id="path134" fill="#C9CCD1" d="M-193.842-361.312l2.673,1.615c0,0-1.243,13.176-1.181,13.486
		c0.062,0.311,0.124,0.746,0.497,1.181c0.372,0.434,0.559,0.434,0.559,0.434l-0.124,0.436l-6.587-2.921l0.372-0.808l1.181,0.621
		c0,0,1.056,0.311,1.18-0.684c0.125-0.994,0.187-3.542,0.187-3.542l-4.287-2.3l-2.549,2.3c0,0-0.559,0.745-0.185,1.181
		c0.372,0.435,1.366,0.932,1.366,0.932l-0.248,0.746l-5.469-2.485l0.497-0.746c0,0,0.994,0.931,2.299-0.187
		C-202.356-353.171-193.842-361.312-193.842-361.312z"/>
</g>
<g id="g136" transform="matrix(1.25,0,0,1.25,412.03892,471.60462)">
	<path id="path138" fill="#161413" d="M-202.914-361.312l-0.187,4.909l-3.356-1.615L-202.914-361.312z"/>
</g>
<g id="g140" transform="matrix(1.25,0,0,1.25,374.98392,457.69962)">
	<path id="path142" fill="#C9CCD1" d="M-200.056-352.239l1.429,0.187c0,0,0.249,0.186,0.498,0.621
		c0.248,0.436,2.361,4.848,2.361,4.848s0.871,1.118,2.113,1.305c1.243,0.186,3.729,0.373,3.729,0.373s0.124-0.434-0.498-0.808
		c-0.621-0.373-1.802-1.18-2.609-3.418c-0.994-1.803-1.803-3.17-1.803-3.17s3.481-0.559,3.791-3.169
		c0.311-2.611-1.448-4.223-4.412-4.848c-3.221-0.676-5.221-0.684-5.221-0.684l-3.728-0.311l-0.311,0.684l1.989,0.932
		c0,0-1.057,11-1.181,11.311c-0.124,0.312-1.243,0.684-1.616,0.684c-0.373,0-0.869-0.062-0.869-0.062l-0.062,0.621l7.83,1.057
		l0.125-0.684l-1.243-0.373c0,0-0.994,0-0.87-1.429C-200.491-350.001-200.056-352.239-200.056-352.239z"/>
</g>
<g id="g144" transform="matrix(1.25,0,0,1.25,383.21892,459.71862)">
	<path id="path146" fill="#161413" d="M-206.457-354.973l0.808-6.214c0,0,0.932-0.125,1.864,0.124
		c0.932,0.248,3.231,1.18,2.797,3.294c-0.436,2.112-1.244,3.294-3.356,3.169C-206.457-354.724-206.457-354.973-206.457-354.973z"/>
</g>
<g id="g148" transform="matrix(1.25,0,0,1.25,344.22092,458.25262)">
	<path id="path150" fill="#C9CCD1" d="M-201.049-359.579c3.352-1.732,9.757-1.305,11.373,2.61c1.616,3.915,1.118,8.203-4.04,10.564
		c-5.158,2.362-10.503-0.124-11.621-3.604C-206.457-353.489-204.903-357.591-201.049-359.579z"/>
</g>
<g id="g152" transform="matrix(1.25,0,0,1.25,348.02829,460.185)">
	<path id="path154" fill="#161413" d="M-202.294-360.815c1.803-0.497,5.096,0.249,6.527,4.164c1.429,3.915,0.559,7.271-1.928,8.079
		c-2.486,0.807-5.966,0.497-7.581-5.096C-206.457-358.64-204.095-360.318-202.294-360.815z"/>
</g>
<g id="g156" transform="matrix(1.25,0,0,1.25,317.80867,469.89562)">
	<path id="path158" fill="#C9CCD1" d="M-206.457-357.708l6.774-3.604l0.249,0.559c0,0-0.87,0.372-1.119,0.87
		c-0.248,0.497-0.435,0.745-0.435,0.745l5.406,10.13l4.102-2.299c0,0,0.995-0.684,1.057-1.181c0.062-0.497,0.436-2.673,0.436-2.673
		l0.497,0.124l0.621,3.667l-10.876,6.152l-0.311-0.807c0,0,1.616-0.684,1.18-1.864c-0.434-1.181-4.785-8.825-4.785-8.825
		s-0.311-0.808-0.932-0.808c-0.622,0-1.243,0.372-1.243,0.372L-206.457-357.708z"/>
</g>
<g id="g160" transform="matrix(1.25,0,0,1.25,294.58229,483.95575)">
	<path id="path162" fill="#C9CCD1" d="M-203.288-356.526c3.543-4.102,7.831-4.786,11.125-2.237c3.293,2.548,4.35,7.146,1.055,11.186
		c-3.294,4.04-7.457,4.6-11.248,2.3C-205.215-347.391-206.457-351.865-203.288-356.526z"/>
</g>
<g id="g164" transform="matrix(1.25,0,0,1.25,297.30079,487.29675)">
	<path id="path166" fill="#161413" d="M-204.593-358.578c1.216-1.903,4.226-2.734,7.645-0.56c3.418,2.175,5.096,6.029,2.734,8.452
		c-2.362,2.424-5.594,1.927-8.204-0.186C-205.027-352.984-206.457-355.657-204.593-358.578z"/>
</g>
<g id="g168" transform="matrix(1.25,0,0,1.25,278.57892,508.89225)">
	<path id="path170" fill="#C9CCD1" d="M-201.236-345.402c-3.561-1.251-5.221-6.278-3.232-10.876
		c1.741-3.232,2.486-3.169,2.983-3.729c0.062-0.436,0-0.684,0.125-0.994c0.124-0.312,3.666,1.491,3.666,1.491l-0.311,0.435
		c0,0-0.31,0.062-0.87,0.062c-0.559,0-2.61-0.435-4.475,3.045c-1.864,3.48,1.491,6.464,3.294,7.334
		c1.803,0.87,6.549,2.132,8.576-2.548c1.154-2.673-0.124-4.476-0.124-4.476l-0.746-1.055l0.435-0.809l2.859,2.673
		c0,0-0.621,0.994-0.746,1.491c-0.124,0.497-0.808,3.17-1.118,3.729C-191.23-349.069-194.4-342.917-201.236-345.402z"/>
</g>
<g id="g172" transform="matrix(1.25,0,0,1.25,484.02017,605.17562)">
	<path id="path174" fill="#161413" d="M-206.457-358.157c0-1.739,1.417-3.155,3.171-3.155c1.748,0,3.156,1.416,3.156,3.155
		c0,1.756-1.408,3.172-3.156,3.172C-205.04-354.985-206.457-356.401-206.457-358.157z M-200.51-358.157
		c0-1.532-1.243-2.774-2.776-2.774c-1.54,0-2.782,1.242-2.782,2.774c0,1.549,1.242,2.791,2.782,2.791
		C-201.753-355.366-200.51-356.608-200.51-358.157z M-201.711-356.385h-0.514l-1.011-1.631h-0.795v1.631h-0.43v-3.536h1.54
		c0.298,0,0.596,0.016,0.861,0.174c0.266,0.15,0.398,0.464,0.398,0.762c0,0.695-0.489,0.952-1.118,0.969L-201.711-356.385z
		 M-203.368-358.355c0.497,0,1.267,0.082,1.267-0.639c0-0.546-0.481-0.612-0.919-0.612h-1.011v1.251H-203.368z"/>
</g>
<g id="g176" transform="matrix(1.25,0,0,1.25,378.67404,560.04687)">
	<path id="path178" fill="#C9CCD1" d="M-206.457-361.312h3.294v24.3h-3.294V-361.312z"/>
</g>
<g id="g180" transform="matrix(1.25,0,0,1.25,387.49142,572.98187)">
	<path id="path182" fill="#C9CCD1" d="M-206.457-358.827l2.361-2.485c0,0,2.3,2.113,4.537,5.593c2.238,3.48,5.22,8.204,5.22,8.204
		h-4.848c0,0,0.187-1.99-2.112-4.786C-203.35-355.408-206.457-358.827-206.457-358.827z"/>
</g>
</svg>
