<?xml version="1.0" encoding="utf-8"?>
<!-- Generator: Adobe Illustrator 16.0.4, SVG Export Plug-In . SVG Version: 6.00 Build 0)  -->
<!DOCTYPE svg PUBLIC "-//W3C//DTD SVG 1.1//EN" "http://www.w3.org/Graphics/SVG/1.1/DTD/svg11.dtd">
<svg version="1.1" id="Layer_1" xmlns="http://www.w3.org/2000/svg" xmlns:xlink="http://www.w3.org/1999/xlink" x="0px" y="0px" viewBox="71.221 90.679 470.396 608.201"
	 enable-background="new 71.221 90.679 470.396 608.201" xml:space="preserve">
<path fill="#021540" stroke="#FFFFFF" stroke-width="6" stroke-miterlimit="10" d="M444.787,203.629
	c-22.994-14.289-57.858-14.796-83.005-2.854v87.988c28.625-13.589,56.532-13.589,83.005,2.864V203.629 M361.782,431.124
	c28.625,13.589,56.532,13.589,83.005-2.864v-94.429c-26.473-16.453-54.38-16.453-83.005-2.864V431.124z M361.782,590.655
	l32.934,15.74c14.313-8.585,35.755-18.604,50.071-22.886V471.888c-26.473,16.468-54.38,16.468-83.005,2.879V590.655z
	 M283.111,223.661v347.675l27.188,4.303V192.907C297.415,194.321,283.111,202.917,283.111,223.661z M144.324,107.048h274.715
	c67.241,0,113.036,45.795,113.036,108.745c0,60.083-17.192,297.596,5.704,396.321c-62.934-4.291-125.898,24.333-168.839,78.701
	c-44.343-24.326-72.953-27.19-123.029-27.19c-40.063,0-97.308,12.879-141.651,30.042c-16.889,6.541-11.447-2.151-1.437-16.44
	c25.75-36.799,77.264-82.28,131.629-103.754V204.341c-20.02,20.044-28.603,41.491-28.603,81.555v218.907
	c0,38.622-14.315,65.812-35.772,84.419c-21.471,18.596-48.649,24.324-62.95,27.186c-14.313,2.854-20.032,0-8.595-14.312
	c11.449-14.313,22.898-25.755,22.898-77.266V420.395c-11.447,4.276-25.339,16.002-32.906,27.178
	c-7.52,11.082-14.304,7.914-14.304-4.297c0-34.343,21.447-67.231,47.21-80.108v-25.763c-11.447,4.291-24.323,15.741-32.906,27.178
	c-7.98,10.641-14.304,8.438-14.304-4.289c0-34.335,21.447-67.242,47.21-80.118c0-52.938,21.459-71.545,55.805-90.138
	c-49.364-8.531-93.719-65.763-98.858-93.917C94.238,104.243,122.855,106.999,144.324,107.048z"/>
</svg>
