<?xml version="1.0" encoding="utf-8"?>
<!-- Generator: Adobe Illustrator 16.0.0, SVG Export Plug-In . SVG Version: 6.00 Build 0)  -->
<!DOCTYPE svg PUBLIC "-//W3C//DTD SVG 1.1//EN" "http://www.w3.org/Graphics/SVG/1.1/DTD/svg11.dtd">
<svg version="1.1" id="Layer_1" xmlns:sketch="http://www.bohemiancoding.com/sketch/ns"
	 xmlns="http://www.w3.org/2000/svg" xmlns:xlink="http://www.w3.org/1999/xlink" x="0px" y="0px" width="512px" height="512px"
	 viewBox="0 0 512 512" enable-background="new 0 0 512 512" xml:space="preserve">
<title>los-angeles-dodgers</title>
<desc>Created with Sketch.</desc>
<g sketch:type="MSLayerGroup">
	<path sketch:type="MSShapeGroup" fill="#FFFFFF" d="M395.027,163.551c-0.671,5.28-5.514,7.297-3.847,13.435
		c7.472,8.802,14.714,12.592,14.714,26.91c3.665-3.459,18.103-5.595,21.926,5.24c9.438,26.8-32.271,47.675-61.399,60.164
		c-31.363,13.435-61.392,24.979-78.174,32.183c-2.63,12.301-8.063,43.646-27.769,45.129c-10.932,0.826-12.21-18.811-5.822-31.75
		c-26.063,8.685-43.826,24.484-46.724,32.355c-23.291,2.49-27.027-0.662-27.114-0.826c17.96-26.824,61.47-42.867,83.813-50.945
		c0,0,10.954-16.146,17.407-23.883l1.152-7.621c-2.487,6.644-13.142,15.966-20.227,4.736c-1.492,4.318-3.988,14.499-11.973,14.83
		c-3.491,0.158-5.655-2.828-7.479-5.138c-1.461,4.633-6.69,15.792-16.009,14.476c-8.719-1.253-11.057-15.681-10.015-23.404
		c0,0.332-2.251,3.949-4.589,5.47c-0.19,27.864-15.362,43.135-31.26,32.56l-13.19,11.971c-1.888,0.173-3.601-0.512-4.462-2.058
		l12.913-18.454c-4.533-23.925,9.478-49.298,26.671-44.082c5.189,1.56,7.503,6.216,8.704,11.261
		c1.951-0.969,4.194-2.797,5.868-4.452c0.269-8.298,12.692-31.071,26.474-21.899c0.174-0.039,8.372-39.038,8.372-39.038
		s7.495-3.948,10.552-3.396c-3.058,15.5-12.084,58.178-11.223,72.66c0.182,2.932,6.642,0.048,8.001-10.653
		c-0.885-39.699,24.293-47.327,29.688-39.187l1.287-5.24c0,0,5.663-3.633,10.102-3.767c-1.123,8.613-3.674,25.744-5.672,38.525
		l8.814-14.271c1.011-30.653,19.287-42.481,28.156-35.838c8.459,6.32-3.31,31.016-16.246,32.797
		c-0.49,14.799,15.433,7.959,21.451-8.629c5.213-14.334,6.547-18.636,8.214-29.258c-2.22-4.373-2.394-13.514,2.046-16.036
		c5.576-3.16,3.183,6.225,6.547,6.083c5.276-0.221,11.356-1.97,14.58,1.324c5.529,5.681-3.444,16.895-5.11,23.12
		c-1.659,6.217-1.501,11.45,1.745,10.977c5.631-0.804,16.437-31.953,18.434-42.111c-4.746-21.804,12.029-24.924,10.671-14.271
		 M280.087,289.85c0,0,1.169-5.231,1.478-7.485c-0.774,1.261-3.934,6.366-5.877,9.251
		C277.078,291.126,280.087,289.85,280.087,289.85 M388.621,185.472c-2.82,9.48-12.566,52.922-28.314,48.352
		c-15.835-4.61-3.917-31.607-2.36-36.658c-1.524,0.047-3.634-0.236-5.244-0.575c-3.317,15.602-12.692,55.562-34.032,56.113
		c-6.729,0.173-9.809-4.87-11.8-8.187c-4.486,6.635-8.538,14.271-13.197,20.74c-1.137,6.446-2.354,15.201-3.19,21.071
		c86.245-31.291,115.879-42.71,126.675-59.021c2.583-3.901,6.84-13.774,0.932-17.888c-3.957-2.734-10.315,1.135-11.989,2.868
		c-5.449,5.666-10.859,11.261-19.002,9.874c-5.71-0.969-8.467-7.518-4.328-11.442c2.772-2.632,5.632,1.158,8.136-0.079
		C395.778,208.197,398.171,196.535,388.621,185.472 M325.873,208.126c-2.979-1.781-9.525,9.511-9.352,17.643
		C324.325,223.381,328.653,209.78,325.873,208.126 M282.877,226.345c-12.921,1.537-15.764,35.459-7.029,33.821
		c4.59-0.867,7.354-7.368,8.996-12.537c1.557-4.878,1.461-10.709,1.982-13.467C287.766,229.19,285.341,226.046,282.877,226.345
		 M240.157,246.407c-12.968-1.34-16.609,32.157-8.672,32.45c4.612,0.173,7.922-4.477,9.572-11.049
		c0.348-1.41,1.888-14.278,2.109-15.744C243.395,250.552,242.4,246.644,240.157,246.407 M194.452,266.131
		c1.824,3.365,10.488,4.192,9.801,2.309C204.656,259.197,193.986,258.023,194.452,266.131 M189.476,271.979
		c-5.379,7.352-4.747,24.9,1.777,26.162c7.985,1.56,13.814-12.451,13.182-20.142C199.981,278.172,192.383,277.273,189.476,271.979
		 M277.902,305.193c0,0-4.905,2.34-10.719,4.555c-4.438,6.911-6.99,22.71-1.658,20.378c6.516-2.853,9.358-10.653,12.375-24.933
		 M162.44,313.673c-16.815,30.567-44.402,23.002-53.051,23.183c-11.91,19.181-32.311,26.328-36.188,23.821
		c-5.11-3.278,3.112-26.335,28.875-30.141c8.317-9.952-2.709-70.959,32.429-88.76c0.829,0,1.99,0.331,1.493,1.497
		c-19.121,16.761-11.705,42.812-16.704,66.523c-2.219,10.513-4.352,17.368-5.576,20.142c5.544,0.221,7.874,0.883,13.971-0.229
		c16.207-2.931,23.346-18.794,26.774-33.837c4.589-20.189,3.902-46.161-11.642-54.916c-28.978-16.343-79.596,28.589-63.689,47.721
		c3.262,3.94,19.026,1.166,26.269-21.843c1.177,1.994,1.177,4.862-0.221,9.015c-8.609,25.76-24.27,27.801-31.094,24.286
		c-6.942-3.593-7.282-14.751-5.923-21.686c6.832-35.161,64.676-65.191,91.008-39.432c18.252,17.839,14.667,53.931,3.27,74.655
		 M84.954,348.13c4.881,1.048,11.144-4.972,13.971-9.96C91.935,339.384,85.672,342.536,84.954,348.13"/>
	<path sketch:type="MSShapeGroup" fill="#D92A2F" stroke="#DE2526" stroke-width="5" stroke-miterlimit="10" d="M275.602,98.265
		c0-19.038,15.465-34.467,34.547-34.467c19.073,0,34.537,15.429,34.537,34.467c0,19.03-15.464,34.459-34.537,34.459
		C291.066,132.724,275.602,117.295,275.602,98.265 M298.893,95.255c4.471-14.507-3.238-23.963-4.209-25.074
		c-9.937,5.445-16.666,15.973-16.666,28.084c0,5.508,1.406,10.685,3.847,15.208C283.861,112.906,294.588,109.249,298.893,95.255
		 M321.148,102.07c-4.297,13.948,2.464,22.978,3.831,24.609c10.259-5.358,17.288-16.059,17.288-28.415
		c0-5.256-1.295-10.205-3.546-14.578C337.229,84.08,325.604,87.618,321.148,102.07 M318.764,101.337
		c4.803-15.602,16.657-20.291,18.126-20.811c-5.758-8.621-15.583-14.31-26.741-14.31c-4.312,0-8.396,0.859-12.147,2.388
		c0.916,1.269,8.08,11.781,3.278,27.375c-4.573,14.877-15.235,19.724-17.471,20.598c5.806,8.29,15.426,13.735,26.341,13.735
		c4.052,0,7.914-0.788,11.491-2.151c-1.374-1.986-7.447-11.97-2.875-26.824 M144.828,338.977l-19.405,36.365
		c-0.324,0.615-0.087,1.355,0.529,1.678c0.608,0.332,1.358,0.103,1.682-0.512l19.405-36.357c0.316-0.607,0.079-1.363-0.513-1.678
		C145.91,338.148,145.144,338.377,144.828,338.977 M188.037,351.915l-13.869,30.834c-0.276,0.615,0,1.362,0.632,1.647
		c0.624,0.275,1.374,0,1.643-0.623l13.861-30.842c0.276-0.623,0.008-1.355-0.624-1.64
		C189.056,351.008,188.306,351.292,188.037,351.915 M238.079,332.137l-5.126,16.114c-0.213,0.653,0.15,1.347,0.806,1.56
		c0.656,0.205,1.358-0.149,1.564-0.812l5.126-16.106c0.213-0.654-0.15-1.355-0.806-1.561
		C238.987,331.111,238.285,331.49,238.079,332.137 M229.344,360.133l-27.366,86.207c-0.213,0.654,0.15,1.347,0.813,1.568
		c0.648,0.205,1.351-0.158,1.556-0.812l27.366-86.207c0.221-0.654-0.142-1.347-0.798-1.568
		C230.259,359.116,229.557,359.486,229.344,360.133 M266.307,350.299l-6.776,31.662c-0.15,0.67,0.284,1.332,0.956,1.475
		c0.679,0.149,1.343-0.285,1.477-0.953l6.792-31.67c0.134-0.67-0.284-1.332-0.948-1.467
		C267.12,349.195,266.464,349.622,266.307,350.299 M235.891,173.456l-34.443,61.393c-0.332,0.599-0.111,1.347,0.482,1.686
		c0.6,0.339,1.366,0.126,1.706-0.473l34.427-61.393c0.332-0.599,0.126-1.347-0.482-1.686
		C236.981,172.644,236.23,172.857,235.891,173.456 M331.875,132.307l-11.428,53.292c-0.158,0.741,0.315,1.466,1.05,1.623
		c0.75,0.158,1.469-0.307,1.635-1.048l11.428-53.3c0.143-0.741-0.315-1.474-1.058-1.631
		C332.767,131.101,332.033,131.558,331.875,132.307 M311.309,143.883l-12.272,51.638c-0.175,0.749,0.284,1.489,1.034,1.655
		c0.728,0.181,1.461-0.276,1.644-1.024l12.258-51.63c0.174-0.733-0.275-1.466-1.011-1.647
		C312.219,142.694,311.476,143.151,311.309,143.883 M298.656,142.535l-20.582,63.253c-0.229,0.717,0.158,1.489,0.885,1.726
		c0.719,0.236,1.493-0.158,1.723-0.883l20.59-63.253c0.221-0.717-0.158-1.481-0.893-1.726
		C299.66,141.423,298.895,141.81,298.656,142.535 M269.6,113.726l-26.75,46.665c-0.371,0.654-0.142,1.489,0.513,1.868
		c0.656,0.37,1.493,0.142,1.872-0.512l26.75-46.665c0.371-0.654,0.143-1.489-0.512-1.86
		C270.809,112.844,269.979,113.072,269.6,113.726 M285.206,135.743l-19.54,41.898c-0.324,0.686-0.023,1.489,0.663,1.812
		c0.687,0.323,1.509,0.016,1.832-0.67l19.524-41.882c0.323-0.686,0.023-1.505-0.656-1.828
		C286.334,134.766,285.52,135.057,285.206,135.743 M295.197,326.691l-6.366,34.356c-0.134,0.679,0.315,1.324,0.995,1.45
		c0.671,0.118,1.326-0.314,1.453-0.993l6.373-34.364c0.135-0.679-0.323-1.324-1.002-1.451
		C295.971,325.564,295.322,326.013,295.197,326.691"/>
	<path sketch:type="MSShapeGroup" fill="#263667" d="M437.487,233.518h-1.745v4.712h-1.161v-4.712h-1.738v-1.024h4.645V233.518z
		 M445.369,238.23h-1.177v-4.563h-0.024l-1.674,4.563h-1.146l-1.603-4.563h-0.024v4.563h-1.177v-5.737h2.038l1.343,3.743h0.017
		l1.405-3.743h2.022L445.369,238.23L445.369,238.23z"/>
</g>
</svg>
