<?xml version="1.0" encoding="utf-8"?>
<!-- Generator: Adobe Illustrator 16.0.4, SVG Export Plug-In . SVG Version: 6.00 Build 0)  -->
<!DOCTYPE svg PUBLIC "-//W3C//DTD SVG 1.1//EN" "http://www.w3.org/Graphics/SVG/1.1/DTD/svg11.dtd">
<svg version="1.1"
	 id="svg2447" xmlns:svg="http://www.w3.org/2000/svg" xmlns:dc="http://purl.org/dc/elements/1.1/" xmlns:cc="http://creativecommons.org/ns#" xmlns:rdf="http://www.w3.org/1999/02/22-rdf-syntax-ns#"
	 xmlns="http://www.w3.org/2000/svg" xmlns:xlink="http://www.w3.org/1999/xlink" x="0px" y="0px" viewBox="10.38 6.29 195.334 101.562" enable-background="new 10.38 6.29 195.334 101.562"
	 xml:space="preserve">
<g>
	<path id="path2475" fill="#FFFFFF" d="M37.362,6.29c-6.552,0-11.828,5.275-11.828,11.828v77.907
		c0,6.552,5.275,11.827,11.828,11.827h137.646l28.517-11.566l-8.176-89.943L37.362,6.29L37.362,6.29z"/>
	<path id="rect2470" fill="#FA012D" d="M193.887,6.29c6.552,0,11.827,5.275,11.827,11.828v77.907
		c0,6.552-5.275,11.827-11.827,11.827h-21.598l0.312-8.688c12.119,0.608,20.146-0.905,24.598-5.811
		c0.026-2.095,1.638-5.625-1.575-11.574c-1.759-3.258-3.886-7.243-11.027-12.114c-0.375-5.407-3.289-8.003-5.382-10.56
		c-2.342-2.86-3.982-5.411-6.39-6.594L144.552,6.343L193.887,6.29L193.887,6.29z"/>
	<path id="path2473" fill="#092668" d="M22.208,6.29c-6.552,0-11.828,5.275-11.828,11.828v77.907
		c0,6.552,5.275,11.827,11.828,11.827h69.679c-0.774-2.66-2.931-8.392-4.848-8.402c-1.534-0.131-7.363,0.595-8.375-0.517
		c4.411-32.451,10.084-30.057,15.814-34.276c1.044-0.769-0.714-1.724-0.02-2.701c0.862-1.212-0.943-2.409-0.29-3.585
		c1-1.798-6.911,0.265-6.286-1.519c1.225-3.493,2.658-5.768,3.529-8.77c0.722-2.488-0.077-1.343-0.073-2.465
		c0.006-1.679-12.673,0.913-12.286-0.684c0.713-2.935,11.069-5.859,10.929-8.761c-0.632-13.095,10.278-19.924,18.043-19.677
		c13.625-0.236,17.438,1.251,22.358,10.202c3.243,6.471,7.109,17.214,0.188,20.21c0.427,3.15,1.152,5.853,2.94,6.961
		c2.42-0.088,3.354,0.125,5.394,0.119c14.415-0.039,21.126,1.105,24.557,3.454l0.91-5.966L129.908,6.343L22.208,6.29L22.208,6.29z"
		/>
	<path id="path2529" fill="#FFFFFF" d="M41.85,83.57c0.002,4.317-3.497,7.817-7.813,7.819c-4.316,0.001-7.817-3.497-7.819-7.814
		c0-0.001,0-0.003,0-0.005c-0.001-4.316,3.497-7.817,7.813-7.819c4.317-0.001,7.817,3.497,7.819,7.813
		C41.85,83.567,41.85,83.569,41.85,83.57z"/>
</g>
</svg>
