<?xml version="1.0" encoding="utf-8"?>
<!-- Generator: Adobe Illustrator 16.0.0, SVG Export Plug-In . SVG Version: 6.00 Build 0)  -->
<!DOCTYPE svg PUBLIC "-//W3C//DTD SVG 1.1//EN" "http://www.w3.org/Graphics/SVG/1.1/DTD/svg11.dtd">
<svg version="1.1" id="Layer_1" xmlns:sketch="http://www.bohemiancoding.com/sketch/ns"
	 xmlns="http://www.w3.org/2000/svg" xmlns:xlink="http://www.w3.org/1999/xlink" x="0px" y="0px" width="512px" height="512px"
	 viewBox="0 0 512 512" enable-background="new 0 0 512 512" xml:space="preserve">
<title>oakland-athletics</title>
<desc>Created with Sketch.</desc>
<path fill="#FFFFFF" d="M257.684,431.744c96.243,0,174.273-78.024,174.273-174.274c0-96.243-78.03-174.274-174.273-174.274
	c-96.244,0-174.274,78.031-174.274,174.274C83.409,353.721,161.44,431.744,257.684,431.744"/>
<path fill="#00483A" d="M257.684,94.898c-89.645,0-162.583,72.937-162.583,162.573c0,89.651,72.938,162.58,162.583,162.58
	s162.572-72.929,162.572-162.58C420.256,167.836,347.327,94.898,257.684,94.898z M257.684,357.006
	c-54.886,0-99.536-44.642-99.536-99.535c0-54.877,44.649-99.526,99.536-99.526c54.876,0,99.534,44.65,99.534,99.526
	C357.218,312.364,312.56,357.006,257.684,357.006z"/>
<path fill="#FDC157" d="M257.684,89.957c-92.368,0-167.522,75.147-167.522,167.513c0,92.374,75.156,167.529,167.522,167.529
	c92.367,0,167.515-75.156,167.515-167.528C425.197,165.103,350.05,89.957,257.684,89.957L257.684,89.957z M257.684,420.051
	c-89.645,0-162.583-72.929-162.583-162.58c0-89.636,72.938-162.573,162.583-162.573s162.572,72.937,162.572,162.573
	C420.256,347.123,347.327,420.051,257.684,420.051L257.684,420.051z"/>
<path fill="#FFFFFF" d="M257.684,162.59c-52.322,0-94.883,42.568-94.883,94.883c0,52.32,42.559,94.889,94.883,94.889
	c52.322,0,94.882-42.568,94.882-94.889C352.565,205.156,310.004,162.59,257.684,162.59"/>
<path fill="#FDC157" d="M257.684,157.944c-54.886,0-99.536,44.65-99.536,99.526c0,54.894,44.649,99.535,99.536,99.535
	c54.876,0,99.534-44.642,99.534-99.535C357.218,202.594,312.56,157.944,257.684,157.944z M257.684,352.359
	c-52.322,0-94.883-42.567-94.883-94.889c0-52.313,42.559-94.882,94.883-94.882c52.322,0,94.882,42.568,94.882,94.882
	C352.565,309.794,310.004,352.359,257.684,352.359L257.684,352.359z"/>
<path fill="#00483A" d="M310.724,295.217c-2.617,1.889-5.686,3.163-8.583,2.618c-2.348-0.415-5.494-2.14-7.273-7.976
	c0,0-19.237-79.666-19.262-79.842c-1.465-9.682-6.6-15.008-10.66-17.763c-5.206-3.532-11.717-4.845-17.396-3.523
	c-8.873,2.065-12.159,6.672-13.383,10.284c3.724-1.857,7.64-1.025,10.115,0.577c1.586,0.969,5.286,3.26,2.844,9.812l-3.419,8.987
	l-1.843-0.52c-2.058-0.593-4.213-0.704-6.391-0.337c-3.748,0.64-6.383,2.115-7.816,4.373c-0.905,1.417-1.178,2.955-1.249,4.316
	c3.124-1.754,6.28-1.249,8.545,0.216c1.602,1.041,3.019,2.42,3.019,5.246c0,0.905-0.151,1.978-0.488,3.236l-20.431,68.397
	l-1.025,0.344c-10.443,3.499-13.246,9.266-13.951,12.959c3.172-1.827,8.313-4.165,15.513-4.878
	c2.979-0.296,6.574,0.626,10.059,1.506c2.819,0.704,5.726,1.449,7.841,1.394c2.675-0.063,4.701-0.834,6.03-2.289
	c1.385-1.506,1.762-3.461,1.802-5.119c-1.185-0.655-3.292-1.834-5.206-2.914c-0.456,0.672-1.033,1.232-1.714,1.625
	c-1.137,0.64-3.124,1.168-6.079,0.009l-1.778-0.69l8.065-28.096h29.728l1.618-0.039l5.343,20.895
	c3.571,14.554,14.151,18.037,22.112,16.603C302.996,313.261,308.434,305.893,310.724,295.217L310.724,295.217z M240.479,265.744
	l11.366-39.323l2.242-7.736l10.779,47.06L240.479,265.744L240.479,265.744z"/>
<path fill="#FDC157" d="M251.844,226.421l-11.366,39.323h24.387l-10.779-47.06L251.844,226.421L251.844,226.421z M246.02,261.571
	c1.025-3.539,5.07-17.53,7.6-26.27c2.019,8.826,5.237,22.866,6.022,26.27H246.02L246.02,261.571z M311.43,288.898
	c-2.088,2.713-5.789,5.343-8.554,4.838c-1.728-0.312-3.083-1.987-3.987-4.975c0.024,0.104-19.199-79.544-19.199-79.544
	c-1.273-8.538-5.693-15.85-12.404-20.406c-6.15-4.174-13.879-5.726-20.679-4.142c-18.981,4.429-17.307,19.549-17.282,19.71
	l0.656,5.205l3.09-4.244c3.156-4.325,7.016-3.493,8.625-2.451c1.201,0.745,2.074,1.281,2.074,2.666c0,0.601-0.16,1.362-0.545,2.379
	c0,0-1.417,3.748-2.146,5.646c-2.074-0.353-4.165-0.529-6.31-0.16c-4.981,0.85-8.57,2.964-10.668,6.296
	c-3.179,5.07-1.529,10.988-1.465,11.236l1.114,3.837l2.514-3.099c2.748-3.372,5.205-2.546,6.431-1.754
	c0.986,0.64,1.538,1.001,0.777,3.837c0.016-0.048-17.443,58.433-19.815,66.371c-14.296,5.263-15.962,14.929-15.962,18.933
	c0,1.098,0.121,1.771,0.121,1.794l0.665,3.443l2.716-2.234c0.064-0.048,6.367-5.15,16.794-6.191
	c2.267-0.216,5.494,0.601,8.625,1.394c3.092,0.786,6.287,1.603,8.987,1.522c3.78-0.097,6.895-1.354,8.994-3.638
	c2.13-2.315,3.131-5.517,2.915-9.267l-0.071-1.146l-11.861-6.631l-0.513,2.892c-0.057,0.368-0.24,1.017-0.713,1.289
	c-0.168,0.096-0.408,0.129-0.672,0.146c0.969-3.341,5.373-18.701,6.071-21.112h24.979c0.666,2.587,4.525,17.684,4.525,17.684
	c3.98,16.242,16.377,21.592,26.895,19.703c10.966-1.97,18.581-13.24,19.863-29.41l0.177-2.241h-2.251
	c-1.099-0.001-1.596,0.646-2.508,1.823L311.43,288.898z M273.3,298.02l-5.343-20.895l-1.618,0.039h-29.728l-8.065,28.096l1.778,0.69
	c2.955,1.159,4.942,0.633,6.079-0.009c0.681-0.395,1.258-0.953,1.714-1.625c1.914,1.08,4.021,2.258,5.206,2.914
	c-0.041,1.66-0.417,3.613-1.802,5.119c-1.329,1.457-3.356,2.226-6.03,2.289c-2.115,0.055-5.022-0.689-7.841-1.394
	c-3.484-0.88-7.08-1.802-10.059-1.506c-7.2,0.713-12.343,3.053-15.513,4.878c0.704-3.693,3.509-9.46,13.951-12.959l1.025-0.344
	l20.431-68.397c0.337-1.258,0.488-2.331,0.488-3.236c0-2.828-1.417-4.204-3.019-5.246c-2.267-1.465-5.421-1.969-8.545-0.216
	c0.073-1.362,0.344-2.899,1.249-4.316c1.433-2.258,4.069-3.732,7.816-4.373c2.178-0.367,4.334-0.256,6.391,0.337l1.843,0.52
	l3.419-8.987c2.443-6.551-1.258-8.841-2.844-9.812c-2.475-1.602-6.391-2.434-10.115-0.577c1.226-3.612,4.509-8.217,13.383-10.284
	c5.678-1.322,12.189-0.009,17.395,3.523c4.062,2.755,9.195,8.08,10.66,17.763c0.025,0.177,19.263,79.842,19.263,79.842
	c1.778,5.838,4.926,7.561,7.272,7.976c2.899,0.545,5.967-0.729,8.584-2.618c-2.29,10.676-7.728,18.043-15.312,19.404
	C287.451,316.055,276.871,312.572,273.3,298.02L273.3,298.02z"/>
<path fill="#00483A" d="M319.055,235.567c0,0-2.451-0.736-2.49-0.745c-1.866-0.609-5.351-1.738-5.351-5.045
	c0-2.932,2.899-4.678,5.703-4.678c1.969,0,3.907,0.745,5.71,1.826c0.72-1.41,1.522-2.971,2.274-4.413
	c-2.868-1.338-6.32-2.274-9.354-2.274c-6.68,0-11.148,4.348-11.148,10.804c0,5.822,2.547,7.137,9.146,9.01
	c2.338,0.649,6.68,1.882,6.68,5.655c0,3.124-2.571,5.31-6.248,5.31c-2.658,0-5.285-1.194-7.944-3.131l-2.539,4.79
	c3.349,2.042,7.096,3.3,10.819,3.3c3.741,0,7.105-1.096,9.46-3.099c2.161-1.841,3.269-4.781,3.269-8.746
	c0-4.35-2.38-6.913-7.986-8.561"/>
<path fill="#FDC157" d="M319.967,232.516l-2.451-0.738c-1.152-0.376-3.122-1.009-3.122-2.001c0-0.929,1.466-1.497,2.523-1.497
	c1.834,0,3.731,0.736,5.35,2.083l1.522,1.266l5.437-10.564l-1.328-0.754c-3.478-1.978-8.329-3.252-12.351-3.252
	c-8.449,0-14.335,5.758-14.335,13.983c0,8.802,5.927,10.493,11.156,11.974c1.834,0.52,4.669,1.33,4.669,2.691
	c0,2.074-2.748,2.13-3.059,2.13c-2.402,0-4.846-1.121-7.488-3.427l-1.506-1.33l-5.711,10.764l1.146,0.809
	c4.14,2.908,9.074,4.502,13.895,4.502c4.502,0,8.595-1.362,11.524-3.86c2.916-2.467,4.382-6.223,4.382-11.165
	C330.219,236.431,324.373,233.813,319.967,232.516L319.967,232.516z M323.773,252.874c-2.356,2.003-5.72,3.099-9.46,3.099
	c-3.725,0-7.473-1.258-10.82-3.3l2.539-4.79c2.659,1.937,5.286,3.131,7.944,3.131c3.677,0,6.248-2.186,6.248-5.31
	c0-3.773-4.341-5.006-6.68-5.655c-6.599-1.875-9.146-3.188-9.146-9.01c0-6.455,4.47-10.804,11.149-10.804
	c3.035,0,6.487,0.937,9.354,2.274c-0.754,1.442-1.555,3.003-2.274,4.413c-1.802-1.08-3.74-1.826-5.71-1.826
	c-2.804,0-5.703,1.746-5.703,4.678c0,3.307,3.483,4.437,5.351,5.045c0.039,0.009,2.49,0.745,2.49,0.745
	c5.606,1.65,7.986,4.212,7.986,8.561c0,3.965-1.107,6.904-3.268,8.746L323.773,252.874z"/>
<path fill="#00483A" d="M291.663,221.943c0.961-0.057,2.403-0.144,3.237,1.018c0.334,0.465,0.455,0.993,0.455,1.522
	c0,0.768-0.256,1.538-0.504,2.146c-0.554,1.362-1.058,2.099-1.586,2.748c0.639-0.376,1.289-0.777,1.608-1.057
	c1.53-1.313,2.915-3.564,2.915-6.264c0-1.041-0.2-2.146-0.682-3.307c-0.655-1.529-2.112-1.969-2.914-2.099
	c-1.42-0.209-2.933,0.2-3.59,0.977c-1.017,1.201-1.049,2.634-0.623,3.468C290.27,221.701,290.783,221.99,291.663,221.943"/>
<path fill="#FDC157" d="M291.656,225.131l0.344-0.016l-0.105,0.312c-0.896,2.242-1.273,2.411-2.281,2.876l-1.73,0.786l0.689,1.746
	l2.074,3.003l1.051-0.241c1.57-0.353,4.332-2.083,5.254-2.86c3.162-2.739,5.333-7.88,3.083-13.222
	c-0.905-2.162-2.868-3.621-5.357-4.004c-2.547-0.394-5.095,0.408-6.495,2.058c-1.699,2.003-2.131,4.79-1.058,6.943
	c0.871,1.746,2.569,2.73,4.53,2.618L291.656,225.131z M290.607,217.627c0.656-0.777,2.17-1.185,3.588-0.977
	c0.803,0.128,2.259,0.569,2.916,2.099c0.48,1.162,0.681,2.267,0.681,3.307c0,2.7-1.384,4.949-2.915,6.264
	c-0.32,0.28-0.969,0.681-1.609,1.057c0.529-0.649,1.033-1.385,1.586-2.748c0.248-0.609,0.506-1.377,0.506-2.146
	c0-0.529-0.121-1.057-0.457-1.522c-0.832-1.162-2.273-1.073-3.236-1.018c-0.88,0.048-1.393-0.241-1.68-0.848
	C289.559,220.263,289.59,218.829,290.607,217.627L290.607,217.627z"/>
<g>
	<path fill="#FFFFFF" d="M169.409,326.378l-23.457,28.513l-4.83-6.72l4.021-4.7l-4.589-6.377l-5.71,2.372l-4.501-6.256l34.294-13.47
		L169.409,326.378L169.409,326.378z M155.569,332.115l3.86-3.879l-0.057-0.079l-4.87,2.483l-8.698,4.196l3.196,4.445l6.567-7.168
		L155.569,332.115z M192.658,349.157l-4.302,5.038l-4.676-3.989l-18.877,22.112l-5.904-5.037l18.878-22.114l-4.639-3.949
		l4.302-5.044 M207.45,357.557l-5.789,12.703l7.151,3.268l5.79-12.709l7.064,3.227l-14.807,32.469l-7.065-3.22l6.264-13.733
		l-7.152-3.269l-6.262,13.75l-7.057-3.228l14.802-32.477 M242.682,404.45c0.112-0.545,1.065-6.455,1.065-6.455h-0.032
		c-0.232-0.064-8.001-1.329-8.001-1.329c0.016,0,4.669-28.664,4.669-28.664v-0.025l-7.672-1.248l-0.007,0.024l-0.032,0.241
		c-0.456,2.642-5.702,34.991-5.702,34.991c0.016,0.029,15.698,2.57,15.698,2.57l0.007-0.016L242.682,404.45L242.682,404.45z
		 M243.722,398.012l-0.007,0.046L243.722,398.012z M235.73,396.696l-0.016-0.007L235.73,396.696z M271.081,368.715l0.344,6.615
		l-7.856,0.408l0.4,7.761l6.92-0.369l0.336,6.622l-6.91,0.354l0.414,8.049l7.963-0.415l0.344,6.624l-15.705,0.807l-1.857-35.654
		 M299.129,361.538l1.921,6.344l-5.879,1.786l8.474,27.814l-7.424,2.258l-8.465-27.805l-5.831,1.769l-1.93-6.335 M316.053,353.553
		l-6.822,3.699c0.002,0.047,17.012,31.408,17.012,31.408c0.026,0.009,6.844-3.686,6.844-3.686c0-0.049-17.002-31.413-17.002-31.413
		l-0.014-0.018 M343.385,339.323c-0.904,0.472-1.697,0.985-2.435,1.643c-5.109,4.524-3.604,10.708,0.032,14.816
		c3.516,3.972,10.066,6.903,15.137,2.427c0.738-0.665,1.338-1.497,1.882-2.372l4.421,5.006c-0.569,1.072-1.345,2.011-2.282,2.843
		c-8.385,7.414-19.108,4.646-25.324-2.379c-5.863-6.632-7.05-17.725,0.865-24.717c1.009-0.904,2.146-1.593,3.404-2.138
		 M359.843,319.299c-1.897,0.602-3.851,1.596-5.052,3.363c-1.346,1.979-1.114,3.972,0.696,5.197
		c4.845,3.308,11.78-6.254,19.757-0.817c5.236,3.573,6.929,9.579,2.812,15.608c-1.232,1.803-3.268,3.692-5.246,4.486l-5.549-3.789
		c1.969-0.863,3.598-1.897,4.885-3.795c1.41-2.059,1.281-4.557-0.681-5.888c-2.267-1.552-4.477-0.16-6.879,0.851
		c-4.798,2.153-8.538,2.938-12.847,0c-4.645-3.18-6.656-8.898-2.892-14.401c1.41-2.058,3.18-3.571,5.327-4.685 M165.763,165.056
		c10.372,8.481,9.907,16.979,5.519,22.345c-4.382,5.357-12.622,7.504-22.994-0.977c-10.372-8.473-9.907-16.979-5.519-22.336
		C147.151,158.722,155.392,156.583,165.763,165.056L165.763,165.056z M166.228,183.26c3.268-3.989-3.507-9.995-5.702-11.79
		c-2.459-2.01-9.434-7.24-12.702-3.252c-3.26,3.989,3.259,9.787,5.71,11.798C155.736,181.81,162.968,187.256,166.228,183.26
		L166.228,183.26z M178.05,133.437l27.782,24.332l-6.871,4.63l-4.573-4.165l-6.519,4.389l2.194,5.774l-6.384,4.316l-12.405-34.71
		L178.05,133.437z M183.352,147.444l-3.748-3.972l-0.096,0.057l2.338,4.933l3.94,8.834l4.533-3.059L183.352,147.444L183.352,147.444
		z M211.838,117.571l4.646,15.265l0.096-0.039l1.538-17.14l7.577-2.298l-2.138,17.867l13.406,16.017l-7.809,2.372l-12.125-15.313
		l-0.087,0.023l5.278,17.404l-7.417,2.258l-10.387-34.166 M254.23,110.411l0.768,29.065l8.13-0.216l0.168,6.624l-15.882,0.424
		l-0.937-35.696 M297.016,115.793l0.439,36.913l-8.023-2.019l0.047-6.184l-7.623-1.914l-2.836,5.487l-7.48-1.882l17.548-32.396
		L297.016,115.793L297.016,115.793z M290.134,129.096l0.44-5.455l-0.09-0.025l-2.129,5.029l-3.94,8.834l5.31,1.329L290.134,129.096
		L290.134,129.096z M331.533,130.354l-3.188,23.402l0.146-0.025c0.497-1.698,1.345-3.339,2.329-4.909l8.505-13.615l6.573,4.109
		l-18.908,30.274l-6.239-3.885l3.284-23.345l-0.138,0.025l-1.586,3.243l-0.744,1.272l-8.675,13.895l-6.592-4.109l18.917-30.274"/>
	<path fill="#FFFFFF" d="M169.409,326.378l-23.457,28.513l-4.83-6.72l4.021-4.7l-4.589-6.377l-5.71,2.372l-4.501-6.256l34.294-13.47
		L169.409,326.378L169.409,326.378z M155.569,332.115l3.86-3.879l-0.057-0.079l-4.87,2.483l-8.698,4.196l3.196,4.445l6.567-7.168
		L155.569,332.115z M192.658,349.157l-4.302,5.038l-4.676-3.989l-18.877,22.112l-5.904-5.037l18.878-22.114l-4.639-3.949
		l4.302-5.044 M207.45,357.557l-5.789,12.703l7.151,3.268l5.79-12.709l7.064,3.227l-14.807,32.469l-7.065-3.22l6.264-13.733
		l-7.152-3.269l-6.262,13.75l-7.057-3.228l14.802-32.477 M242.682,404.45c0.112-0.545,1.065-6.455,1.065-6.455h-0.032
		c-0.232-0.064-8.001-1.329-8.001-1.329c0.016,0,4.669-28.664,4.669-28.664v-0.025l-7.672-1.248l-0.007,0.024l-0.032,0.241
		c-0.456,2.642-5.702,34.991-5.702,34.991c0.016,0.029,15.698,2.57,15.698,2.57l0.007-0.016L242.682,404.45L242.682,404.45z
		 M243.722,398.012l-0.007,0.046L243.722,398.012z M235.73,396.696l-0.016-0.007L235.73,396.696z M271.081,368.715l0.344,6.615
		l-7.856,0.408l0.4,7.761l6.92-0.369l0.336,6.622l-6.91,0.354l0.414,8.049l7.963-0.415l0.344,6.624l-15.705,0.807l-1.857-35.654
		 M299.129,361.538l1.921,6.344l-5.879,1.786l8.474,27.814l-7.424,2.258l-8.465-27.805l-5.831,1.769l-1.93-6.335 M316.053,353.553
		l-6.822,3.699c0.002,0.047,17.012,31.408,17.012,31.408c0.026,0.009,6.844-3.686,6.844-3.686c0-0.049-17.002-31.413-17.002-31.413
		l-0.014-0.018 M343.385,339.323c-0.904,0.472-1.697,0.985-2.435,1.643c-5.109,4.524-3.604,10.708,0.032,14.816
		c3.516,3.972,10.066,6.903,15.137,2.427c0.738-0.665,1.338-1.497,1.882-2.372l4.421,5.006c-0.569,1.072-1.345,2.011-2.282,2.843
		c-8.385,7.414-19.108,4.646-25.324-2.379c-5.863-6.632-7.05-17.725,0.865-24.717c1.009-0.904,2.146-1.593,3.404-2.138
		 M359.843,319.299c-1.897,0.602-3.851,1.596-5.052,3.363c-1.346,1.979-1.114,3.972,0.696,5.197
		c4.845,3.308,11.78-6.254,19.757-0.817c5.236,3.573,6.929,9.579,2.812,15.608c-1.232,1.803-3.268,3.692-5.246,4.486l-5.549-3.789
		c1.969-0.863,3.598-1.897,4.885-3.795c1.41-2.059,1.281-4.557-0.681-5.888c-2.267-1.552-4.477-0.16-6.879,0.851
		c-4.798,2.153-8.538,2.938-12.847,0c-4.645-3.18-6.656-8.898-2.892-14.401c1.41-2.058,3.18-3.571,5.327-4.685 M165.763,165.056
		c10.372,8.481,9.907,16.979,5.519,22.345c-4.382,5.357-12.622,7.504-22.994-0.977c-10.372-8.473-9.907-16.979-5.519-22.336
		C147.151,158.722,155.392,156.583,165.763,165.056L165.763,165.056z M166.228,183.26c3.268-3.989-3.507-9.995-5.702-11.79
		c-2.459-2.01-9.434-7.24-12.702-3.252c-3.26,3.989,3.259,9.787,5.71,11.798C155.736,181.81,162.968,187.256,166.228,183.26
		L166.228,183.26z M178.05,133.437l27.782,24.332l-6.871,4.63l-4.573-4.165l-6.519,4.389l2.194,5.774l-6.384,4.316l-12.405-34.71
		L178.05,133.437z M183.352,147.444l-3.748-3.972l-0.096,0.057l2.338,4.933l3.94,8.834l4.533-3.059L183.352,147.444L183.352,147.444
		z M211.838,117.571l4.646,15.265l0.096-0.039l1.538-17.14l7.577-2.298l-2.138,17.867l13.406,16.017l-7.809,2.372l-12.125-15.313
		l-0.087,0.023l5.278,17.404l-7.417,2.258l-10.387-34.166 M254.23,110.411l0.768,29.065l8.13-0.216l0.168,6.624l-15.882,0.424
		l-0.937-35.696 M297.016,115.793l0.439,36.913l-8.023-2.019l0.047-6.184l-7.623-1.914l-2.836,5.487l-7.48-1.882l17.548-32.396
		L297.016,115.793L297.016,115.793z M290.134,129.096l0.44-5.455l-0.09-0.025l-2.129,5.029l-3.94,8.834l5.31,1.329L290.134,129.096
		L290.134,129.096z M331.533,130.354l-3.188,23.402l0.146-0.025c0.497-1.698,1.345-3.339,2.329-4.909l8.505-13.615l6.573,4.109
		l-18.908,30.274l-6.239-3.885l3.284-23.345l-0.138,0.025l-1.586,3.243l-0.744,1.272l-8.675,13.895l-6.592-4.109l18.917-30.274"/>
</g>
<path fill="#FFFFFF" d="M335.897,177.566l27.342-22.937l3.782,4.502c0.865,1.041,12.692,12.333-2.579,25.14
	c-7.791,6.543-16.227,7.977-24.091-1.393L335.897,177.566L335.897,177.566z M359.499,178.295c3.477-2.915,7.977-8.746,3.869-13.647
	l-17.629,14.784C349.537,184.406,356.081,181.162,359.499,178.295z"/>
<path fill="#00483A" d="M390.829,395.616h-3.411v9.273h-2.308v-9.273h-3.411v-2.019h9.129L390.829,395.616L390.829,395.616z
	 M406.271,404.89h-2.315v-8.987h-0.048l-3.269,8.987h-2.226l-3.172-8.987h-0.058v8.987h-2.298V393.6h3.988l2.634,7.375h0.048
	l2.739-7.375h3.972v11.29h0.001H406.271z"/>
</svg>
