<?xml version="1.0" encoding="utf-8"?>
<!-- Generator: Adobe Illustrator 16.0.0, SVG Export Plug-In . SVG Version: 6.00 Build 0)  -->
<!DOCTYPE svg PUBLIC "-//W3C//DTD SVG 1.1//EN" "http://www.w3.org/Graphics/SVG/1.1/DTD/svg11.dtd">
<svg version="1.1" id="Layer_1" xmlns:sketch="http://www.bohemiancoding.com/sketch/ns"
	 xmlns="http://www.w3.org/2000/svg" xmlns:xlink="http://www.w3.org/1999/xlink" x="0px" y="0px" width="512px" height="512px"
	 viewBox="0 0 512 512" enable-background="new 0 0 512 512" xml:space="preserve">
<title>pittsburgh-pirates</title>
<desc>Created with Sketch.</desc>
<g sketch:type="MSLayerGroup">
	<path sketch:type="MSShapeGroup" display="none" fill="#FFFFFE" d="M190.187,119.779c39.379,0.077,78.758,0.006,118.137,0.033
		c6.229,0.416,12.536,2.2,17.533,6.054c6.367,4.668,9.921,12.528,9.988,20.339l-0.007,62.642
		c-0.061,5.566,0.451,11.325-1.516,16.664c-1.561,5.128-5.552,9.341-10.376,11.597c-5.008,2.428-10.649,3.159-16.156,3.315
		c-39.24-0.006-78.481,0.011-117.722-0.006c-0.017-32.513,0-65.02-0.006-97.534C190.147,135.188,189.903,127.444,190.187,119.779
		L190.187,119.779z"/>
	<g>
		<path fill="#FDB829" d="M363.202,209.487c-0.691-6.511-0.592-13.09-0.191-19.614c0.892-15.664,4.948-31.324,13.03-44.866
			c-5.62-1.462-11.066-3.576-16.15-6.374c-17.492-9.677-31.104-25.682-39.048-43.908c-0.705-1.174-1.012-2.509-1.315-3.823
			c-0.83-1.117-1.228-2.528-1.362-3.902h-0.171l0.043,0.292c-1.283,0.885-2.384,1.998-3.56,3.013
			c-3.781,3.078-7.971,5.723-12.563,7.418c-7.406,2.817-15.407,3.488-23.262,3.618c-13.217-0.005-26.428,0-39.64,0
			c-26.419-0.214-52.848-0.06-79.276-0.107c-2.285,0.093-4.636-0.177-6.879,0.126c-5.521,13.896-11.089,27.777-16.676,41.644
			c7.965,3.53,14.387,10.757,16.089,19.39c0.41,1.248,0.21,2.729,0.956,3.781c0.005,65.514-0.009,131.027,0.01,196.541
			c-0.378,0.503-0.62,1.058-0.611,1.709c-0.975,7.12-4.93,13.789-10.773,17.994c-1.721,1.412-3.814,2.267-5.68,3.403
			c5.671,13.347,11.052,26.817,16.695,40.178h47.294c5.499-13.471,11.178-26.878,16.63-40.368
			c-9.924-3.897-16.743-14.235-16.733-24.834c0.009-25.388,0-50.774,0.005-76.163c21.694-0.013,43.389,0.164,65.083,0.094
			c7.588,0.094,15.213-0.373,22.74,0.773c6.598,0.861,13.053,2.984,18.774,6.412c4.22,2.402,7.83,5.689,11.467,8.855
			c2.719-8.312,7.383-15.92,13.264-22.365c12.153-13.284,28.808-21.844,46.15-26.174v-0.708
			C369.997,238.684,364.629,224.374,363.202,209.487z M322.903,227.896c-1.31,4.309-4.663,7.846-8.716,9.742
			c-4.206,2.04-8.944,2.654-13.571,2.785c-32.962-0.005-65.924,0.01-98.886-0.005c-0.015-27.312,0-54.617-0.005-81.929
			c0.07-6.465-0.135-12.97,0.104-19.409v-0.001c33.078,0.065,66.157,0.006,99.235,0.029c5.233,0.349,10.531,1.848,14.728,5.084
			c5.35,3.922,8.334,10.524,8.391,17.086l-0.005,52.619C324.125,218.573,324.556,223.411,322.903,227.896z"/>
		<path fill="#FDB829" d="M214.029,411.816c0,0.792-0.009,1.588-0.018,2.384c1.278-0.027,2.556-0.013,3.834-0.032
			c0.009,3.416,0.018,6.84-0.01,10.258c0.877,0,1.759,0.009,2.64-0.01c0.036-3.418-0.066-6.839,0.046-10.253
			c1.268,0.022,2.536,0.018,3.805,0.022c-0.01-0.785-0.014-1.573-0.019-2.351C220.879,411.816,217.452,411.853,214.029,411.816z"/>
		<polygon fill="#FDB829" points="214.028,411.816 214.029,411.816 214.029,411.816 		"/>
		<polygon fill="#FDB829" points="226.62,411.811 226.621,411.811 226.621,411.809 		"/>
		<path fill="#FDB829" d="M237.094,411.834c-0.951,2.547-1.922,5.09-2.84,7.646l-0.541-0.168c-0.835-2.491-1.782-4.949-2.598-7.445
			c-1.496-0.093-2.998,0-4.494-0.057c-0.018,4.209,0.028,8.418-0.024,12.629c0.853-0.019,1.707-0.019,2.56,0.009l0.168-9.268
			c1.291,2.986,2.233,6.166,3.353,9.24c0.834,0.013,1.673,0.004,2.513,0.013c1.203-2.61,2.028-5.404,3.036-8.105l0.718-0.108
			c-0.01,2.73-0.01,5.463-0.005,8.196c0.878,0.019,1.758,0.009,2.64,0.014c-0.038-4.199,0-8.4-0.019-12.596
			C240.069,411.824,238.581,411.82,237.094,411.834z"/>
	</g>
</g>
</svg>
