<?xml version="1.0" encoding="utf-8"?>
<!-- Generator: Adobe Illustrator 16.0.4, SVG Export Plug-In . SVG Version: 6.00 Build 0)  -->
<!DOCTYPE svg PUBLIC "-//W3C//DTD SVG 1.1//EN" "http://www.w3.org/Graphics/SVG/1.1/DTD/svg11.dtd">
<svg version="1.1"
	 id="svg3067" xmlns:svg="http://www.w3.org/2000/svg" xmlns:dc="http://purl.org/dc/elements/1.1/" xmlns:cc="http://creativecommons.org/ns#" xmlns:rdf="http://www.w3.org/1999/02/22-rdf-syntax-ns#"
	 xmlns="http://www.w3.org/2000/svg" xmlns:xlink="http://www.w3.org/1999/xlink" x="0px" y="0px" viewBox="10 10 480 480" enable-background="new 10 10 480 480" xml:space="preserve">
<g>
	<path id="path3790-17" fill="#FFFFFF" d="M250,10C117.5,10,10,117.51,10,250s107.5,240,240,240c132.51,0,240-107.51,240-240
		S382.51,10,250,10z"/>
	<g id="layer5" transform="translate(-324.99,-325.01)">
		<path id="path3790" fill="#003DA5" d="M574.99,335.01c-132.5,0-240,107.5-240,239.99c0,132.49,107.5,240.01,240,240.01
			c132.51,0,240-107.52,240-240.01C814.99,442.51,707.5,335.01,574.99,335.01z M574.99,343.54c127.87,0,231.48,103.57,231.48,231.46
			c0,127.9-103.61,231.49-231.48,231.49c-127.88,0-231.45-103.59-231.45-231.49C343.54,447.11,447.11,343.54,574.99,343.54
			L574.99,343.54z"/>
	</g>
	<g id="layer6" transform="translate(-324.99,-325.01)">
		<path id="path4010" fill="#DA291C" d="M596.6,458.24l-5.22,6.76l5.9-0.34l3.47-5L596.6,458.24z"/>
		<path id="path4012" fill="#DA291C" d="M583.71,454.1c-0.28,0.46-6.01,7.55-6.01,7.55l2.95,5l4.43-0.1l-2.05-4.37l4.72-7.1
			L583.71,454.1z"/>
		<path id="path4014" fill="#DA291C" d="M570.37,450.11c0,0-1.04,1.83-1.68,2.86c-0.65,1.02-1.58,2.29-2.36,3.18
			c-0.78,0.9-2.47,2.32-2.47,2.32s1.06,1.18,1.5,1.93c0.45,0.76,0.97,1.8,1.32,2.71c0.35,0.92,0.62,1.89,0.78,2.77
			c0.17,0.88,0.28,2.28,0.28,2.28l4.94,0.19c0,0-0.13-1.46-0.38-2.44c-0.24-0.99-0.74-2.43-1.18-3.41
			c-0.43-0.97-0.97-1.83-1.37-2.44c-0.41-0.61-0.97-1.24-0.97-1.24s1.02-0.72,1.55-1.2c0.53-0.48,1.09-1.05,1.66-1.76
			c0.56-0.71,1-1.39,1.43-2.13c0.42-0.74,1.21-2.33,1.21-2.33L570.37,450.11z"/>
		<path id="path4115" fill="#DA291C" d="M557.71,447.61l4.46,0.91c0,0-1.6,2.26-2.4,3.22c-0.8,0.96-1.54,1.78-2.35,2.54
			c-0.81,0.77-2.5,2.07-2.5,2.07s1.11,1.32,1.58,2.16c0.48,0.83,0.92,1.77,1.21,2.83c0.28,1.06,0.36,2.39,0.43,3.5
			c0.1,1.12-0.1,3.02-0.1,3.02l-4.69-0.16c0,0,0.22-2.15,0.16-3.24c-0.1-1.09-0.17-2.34-0.43-3.31c-0.27-0.98-0.62-1.86-1.11-2.79
			c-0.49-0.92-1.87-2.54-1.87-2.54s1.43-1.14,2.11-1.73c0.68-0.59,1.45-1.35,2.12-2.06c0.67-0.71,1.26-1.43,1.87-2.21
			c0.6-0.78,1.49-2.21,1.49-2.21H557.71z"/>
		<path id="path4117" fill="#DA291C" d="M542.58,445.64c0.44,0.1,5.19,0.58,5.19,0.58s-1.23,2.31-1.83,3.31
			c-0.59,1-0.82,1.45-1.34,2.16c-0.52,0.71-1.17,1.45-1.63,1.92c-0.46,0.47-1.49,1.44-1.49,1.44s1.02,0.99,1.44,1.63
			c0.42,0.65,0.79,1.41,1.05,2.21c0.27,0.8,0.55,1.82,0.68,3.12c0.13,1.3,0,4.94,0,4.94l-5.14-0.18c0,0,0.12-2.87,0.1-3.94
			c-0.1-1.07-0.21-2.03-0.44-2.98c-0.229-0.94-0.91-2.35-1.05-2.59c-0.15-0.24-1.78-2.11-1.78-2.11s1.2-1.13,1.87-1.92
			c0.67-0.8,1.36-1.52,1.92-2.4c0.56-0.88,1.1-1.71,1.49-2.5C542.01,447.55,542.58,445.64,542.58,445.64L542.58,445.64z"/>
		<path id="path4119" fill="#DA291C" d="M486.41,479.4c0.1,0.24,3.4-2.05,3.4-2.05c-1.47-1.99-2.48-3.4-3.95-5.37
			c1.54-1.33,3.27-2.74,4.63-3.78l4.99,7.04l2.83-2.23l-4.35-7.49l5.53-3.84c0.82,0.82,2.49,2.59,3.16,3.85
			c0.68,1.28,0.82,2.17,0.98,3.14c0.16,0.98,0.23,2.32,0.23,2.32l4.48-0.92c0,0,0-1.25-0.22-2.4c-0.24-1.15-0.55-2.62-1.08-3.49
			c-0.52-0.86-1.17-1.86-1.77-2.68c-0.59-0.8-1.78-2.05-1.89-2.25c2.17-1.3,3.91-2.39,6.42-3.78c1.28-0.62,2.91-1.51,2.91-1.51
			s-0.48,2.03-0.89,2.91c-0.39,0.88-1.27,1.88-1.27,1.88s1.58,1.25,2.28,2.29c0.69,1.04,1.35,2.68,1.62,3.93s0.19,3.13,0.19,3.13
			l4.2-0.43c0,0,0.12-2.02,0-3.09c-0.1-1.07-0.3-1.73-0.58-2.54c-0.27-0.81-0.62-1.51-1.08-2.28c-0.45-0.77-1.65-2.33-1.65-2.33
			s0.76-1.22,1.11-1.93c0.35-0.72,0.74-1.54,0.97-2.35c0.22-0.79,0.5-1.83,0.5-1.83s5.56-2.44,8.17-3.43c0,0-0.1,1.59-0.38,2.61
			c-0.3,1.02-0.72,1.95-1.24,2.77c-0.52,0.82-1.8,2.11-1.8,2.11s0.95,1.12,1.5,1.96c0.56,0.84,1.31,2.03,1.76,3.1
			c0.46,1.06,0.81,2.24,0.98,3.23c0.16,1,0.1,2.67,0.1,2.67l4.72,0.1c0,0,0.1-2.21,0-3.27c-0.1-1.05-0.17-1.98-0.56-3.03
			c-0.39-1.06-1.19-2.28-1.81-3.15c-0.62-0.86-1.84-2.06-1.84-2.06c2.17-3.06,4.03-6.6,5.05-9.17c12.01-4,21.66-5.66,33.86-6.3
			c15.82-0.83,32.01,0.88,46.34,5.2c16.39,4.96,24.92,10.13,24.92,10.13l9.94-3.08c0,0-13.69-8.37-29.18-13.35
			c-13.55-4.36-28.64-6.86-45.73-6.9c-24.47,0.22-46.03,6.68-64.93,15.94c-13.22,6.61-29.6,18.71-47.14,39.6
			c-11.74,13.99-18.18,30.1-20.91,37.42l8.76-1.2c1.47-4.58,11.3-23.33,19.98-33.55l1.24,1.29l2.97-2.82l-1.49-1.7
			c1.26-1.43,2.85-3.19,4.11-4.55l1.88,3.2l3.08-2.24l-2.66-3.33c1.82-1.79,3.22-3.11,5.1-4.88L486.41,479.4z"/>
		<path id="path3061" fill="#DA291C" d="M656.46,650.88l2.61-2.03l3.27,2.39l-3.34,9.73l-4.359-0.14l3.13-8.5L656.46,650.88"/>
		<path id="path3065" fill="#DA291C" d="M665.1,642.53l3.779-3.12c0.19,0.96,0.46,1.91,0.79,2.83c0.36,1,0.811,1.98,1.46,2.83
			c0.551,0.72,1.24,1.33,1.96,1.89c0.57,0.44,1.16,0.84,1.771,1.21l-4.61,8.94l-4.439,0.25c0.67-1.48,1.359-2.95,2.08-4.4
			c0.62-1.26,1.27-2.51,1.93-3.75c-0.9-0.58-1.71-1.29-2.4-2.1c-0.6-0.71-1.109-1.49-1.52-2.33
			C665.551,644.06,665.28,643.31,665.1,642.53"/>
		<path id="path3069" fill="#DA291C" d="M676.53,637.57l3.67-0.78c0.22,1.1,0.5,2.19,0.86,3.26c0.34,1.03,0.75,2.03,1.21,3.01
			c0.34,0.72,0.71,1.44,1.2,2.07c0.369,0.48,0.819,0.91,1.31,1.27l-4.66,9.39h-3.569c0.6-1.28,1.22-2.55,1.869-3.8
			c0.591-1.15,1.21-2.3,1.86-3.42c0.3-0.51,0.6-1.02,0.91-1.52c-0.47-0.53-0.9-1.1-1.3-1.69c-0.5-0.75-0.95-1.54-1.341-2.36
			c-0.409-0.85-0.76-1.72-1.09-2.61C677.12,639.46,676.81,638.52,676.53,637.57"/>
		<path id="path3073" fill="#DA291C" d="M688.28,643.84c-0.49-0.72-0.88-1.51-1.14-2.34c-0.221-0.7-0.351-1.42-0.44-2.14
			c-0.11-0.82-0.17-1.64-0.18-2.46l3.39-0.1c0,0.82,0.16,1.63,0.36,2.43c0.16,0.61,0.359,1.22,0.7,1.76
			c0.35,0.55,0.83,1.01,1.39,1.33c2.6-4.96,5.01-10.01,7.22-15.15c1.2-2.78,2.34-5.59,3.42-8.42l7.84,0.1
			c-1.199,3.88-2.6,7.71-4.18,11.45c-2.57,6.08-5.63,11.96-9.05,17.61c-5.44,8.99-11.79,17.44-18.97,25.11
			c-5.87,6.26-12.29,12.01-19.19,17.12c-7.229,5.36-14.979,10.02-23.11,13.88c-8.029,3.81-16.43,6.85-25.049,9.04l5.75-9.33
			c5.23-1.76,10.35-3.85,15.32-6.26c7.18-3.48,14.04-7.61,20.58-12.19c7.28-5.09,14.17-10.76,20.35-17.14
			c6.44-6.65,12.07-14.08,16.75-22.07l-1.76-2.21l0,0"/>
		<path id="path3872" fill="#DA291C" d="M432.2,594.33l7.66,1.64l2.98,14.64l2.74,8.93l5.19,13.01l1.79-0.22l2.19,2.66l-1.47,2.73
			l1.95,3.51l2.05-3l2.61,2.81l-1.9,4.85l2.82,4.71l2.99-6.02l2.57,2.27l-2.61,7.96l5.29,6.92l-0.28-5.49l2.23-5.89l3.45,2.65
			l-1.89,3.03v9.79l5.05,5.36l2.06-3.49c-0.53-0.94-0.93-1.95-1.18-3c-0.3-1.29-0.38-2.63-0.29-3.96c0.11-1.71,0.5-3.41,1.13-5
			l3.92,2.4c-0.42,1.07-0.72,2.19-0.89,3.32c-0.17,1.11-0.22,2.24-0.17,3.36c0.1,1.68,0.39,3.35,0.93,4.94l-2.65,4.17l6.52,5.93
			l3.24-6.27c-0.71-1.51-1.25-3.11-1.6-4.74c-0.33-1.53-0.49-3.1-0.38-4.66c0.1-1.19,0.33-2.36,0.72-3.48l3.33,2.2l-0.55,3.7
			l0.16,4.28l1.69,3.83l-3.11,8.05l10.81,7.49c9.44,5.98,19.6,10.85,30.18,14.45c5.93,2.02,11.99,3.64,18.13,4.86l3.12,6.86
			c-7.84-1.22-15.58-3.07-23.11-5.55c-11.33-3.72-22.21-8.85-32.28-15.24c-9.38-5.95-18.07-12.99-25.84-20.92
			c-6.64-6.78-12.62-14.22-17.8-22.18c-6.78-10.41-12.18-21.72-15.99-33.54C435.13,610.96,433.28,602.7,432.2,594.33"/>
		<path id="path4004" fill="#DA291C" d="M499.29,665.54l4.21,1.24c0,0-0.2,5.6,0.13,7.37c0.32,1.76,0.59,2.18,1.16,3.2
			c0.56,1.02,2.25,2.53,2.25,2.53s-1.11,1.18-1.54,1.87c-0.42,0.7-0.76,1.14-0.99,2.27c-0.24,1.13,0,4.45,0,4.45h-3.8
			c0,0-0.26-2.56-0.18-3.74c0.1-1.16,0.46-2.22,0.79-3.18c0.34-0.94,1.22-2.44,1.22-2.44s-1.46-1.61-1.98-2.48
			c-0.53-0.87-0.83-0.92-1.24-2.77c-0.4-1.85-0.1-8.32-0.1-8.32L499.29,665.54z"/>
		<path id="path4006" fill="#DA291C" d="M511.26,669.05l4.12,0.99c0,0-0.1,4.16,0.34,5.79c0.43,1.62,1.09,2.74,1.85,3.83
			c0.77,1.09,2.62,2.66,2.62,2.66s-1.14,2.27-1.42,3.85c-0.28,1.58,0,5.54,0,5.54l-4.61,0.1c0,0-0.36-4.08,0-5.73
			c0.34-1.64,1.74-3.99,1.74-3.99s-1.54-0.95-2.14-1.54c-0.6-0.59-0.98-1.07-1.43-1.96c-0.45-0.88-0.83-1.77-1.07-3.37
			c-0.25-1.6,0-6.15,0-6.15V669.05z"/>
		<path id="path4008" fill="#DA291C" d="M524.55,671.17l4.65,0.54c0,0,0.22,3.02,0.71,4.43c0.49,1.42,0.91,2.6,1.92,3.77
			c1.01,1.18,3.01,2.63,3.01,2.63s-0.49,1.62-0.61,2.57c-0.12,0.95-0.2,2.06-0.22,3.28c0,1.22,0.17,4.05,0.17,4.05l-4.49-0.22
			c0,0-0.1-2.19-0.1-3.23s0-1.48,0.22-2.73c0.22-1.26,1.26-3.01,1.26-3.01s-1.12-0.68-2.03-1.31c-1.05-0.74-1.84-1.86-2.51-2.84
			c-0.68-0.99-1.14-1.63-1.53-2.96c-0.4-1.33-0.5-4.97-0.5-4.97H524.55z"/>
	</g>
	<g id="layer3" transform="translate(-324.99,-325.01)">
		<path id="path3790-1" fill="#003DA5" d="M575.24,348.57c-124.87,0-226.17,101.32-226.17,226.18
			c0,124.87,101.3,226.189,226.17,226.189s226.2-101.32,226.2-226.189C801.44,449.89,700.11,348.57,575.24,348.57z M575.24,357.09
			c120.25,0,217.63,97.39,217.63,217.66c0,120.27-97.38,217.67-217.63,217.67S357.6,695.02,357.6,574.75
			C357.6,454.48,454.99,357.09,575.24,357.09z"/>
		<path id="path3086" fill="#003DA5" d="M604.19,473.06L604.19,473.06c4.47-1.03,8.93-2.11,13.37-3.25c4.3-1.1,8.59-2.25,12.86-3.45
			c4.78-1.34,9.55-2.72,14.26-4.29c6.529-2.18,12.92-4.78,19.189-7.62c5.311-2.4,10.54-4.98,15.561-7.93
			c4.18-2.45,8.22-5.18,11.79-8.45c2.96-2.72,5.59-5.8,7.789-9.16c0.32,2.33,0.391,4.69,0.2,7.03c-0.149,1.87-0.47,3.72-0.84,5.55
			c-0.41,2.04-0.9,4.06-1.46,6.06l11.39-5.02c4.96-2.19,10.17-4.02,15.58-4.24l-2.409,2.15c-1.711,1.93-3.351,3.91-4.91,5.96
			c-1.61,2.1-3.141,4.27-4.601,6.48c-2.3,3.48-4.43,7.08-6.37,10.77l-4.289,9.51l2.93-2.3c1.689-1.01,3.399-1.98,5.12-2.93
			c1.72-0.95,3.47-1.86,5.33-2.51c1.52-0.53,3.109-0.88,4.71-1.04c1.42-0.14,2.859-0.14,4.279,0c-0.83,0.7-1.6,1.47-2.3,2.3
			c-1.399,1.67-2.5,3.59-3.239,5.64c-1.2,2.62-2.25,5.31-3.141,8.05c-1.24,3.81-2.16,7.72-3.13,11.61
			c-0.93,3.74-1.91,7.47-2.93,11.18l-15.16-24.98l-17.98,29.27l-17.14-6.79l3.86,38.88l-19.33-18.4l-5.86,14.01l-24.28-3.81v4.6
			c-3.62-0.36-7.23-0.76-10.84-1.21c-4.77-0.59-9.53-1.27-14.22-2.29c-4.01-0.87-7.97-1.99-11.91-3.14
			c-4.17-1.22-8.32-2.49-12.44-3.87c-4.1-1.38-8.16-2.87-12.26-4.24c-2.84-0.95-5.7-1.83-8.57-2.66c3.19-0.47,6.4-0.82,9.62-1.07
			c2.76-0.21,5.53-0.34,8.3-0.31c3.34,0,6.67,0.3,9.97,0.79c-4.4-1.58-8.89-2.9-13.44-3.96c-4.51-1.05-9.08-1.84-13.67-2.43
			c-3.82-0.49-7.67-0.83-11.52-0.97c-3.45-0.12-6.9-0.1-10.35,0.11c-3.3,0.18-6.6,0.48-9.83,1.15c-2.94,0.61-5.81,1.54-8.57,2.72
			c-1.62,0.69-3.2,1.48-4.73,2.35c-4.15,1.84-7.37,5.66-8.48,10.07c-0.81,3.21-0.51,6.69,0.82,9.72c-2.94,0.1-5.89-0.76-8.34-2.39
			c-1.81-1.2-3.33-2.81-4.62-4.56c-1.18-1.6-2.18-3.34-2.88-5.2c-1.12-2.99-1.41-6.34-0.44-9.38c0.61-1.92,1.7-3.66,2.98-5.22
			c1.27-1.56,2.73-2.96,4.17-4.36c2.92-2.84,5.79-5.73,9.02-8.21c4.07-3.13,8.64-5.56,13.38-7.54c6.31-2.63,12.94-4.49,19.7-5.5
			c8.68-1.41,17.4-2.65,26.13-3.71c8.32-1.01,16.66-1.87,24.97-2.93c9.83-1.25,19.63-2.78,29.38-4.59"/>
		<path id="path3003" fill="#041E42" stroke="#000000" stroke-width="0.2131" d="M467.9,517.52c0,0-4.03,1.58-5.79,2.72
			c-1.76,1.14-3.4,2.6-4.74,4.02c-1.35,1.42-2.29,3.08-3,4.2c-0.71,1.12-1.7,3.2-3.08,4.04c-1.37,0.84-8.2,1.66-13.19,2.52
			c-4.98,0.84-11.35,2.04-16.2,3.07c-4.83,1.03-8.7,1.9-12.85,2.97c-4.15,1.08-8.4,2.09-12.3,3.23c-3.88,1.13-7.93,2.45-11.04,3.54
			c-3.1,1.09-5.17,1.89-7.18,2.82c-2,0.94-3.27,1.78-4.38,2.47c-1.11,0.69-2.04,1.47-2.88,2.38c-0.83,0.92-1.32,2.23-1.32,2.23
			l103.99,0.32c0,0,0.98-1.39,1.57-2.02c0.59-0.62,1.12-1.14,2.48-1.88c1.35-0.74,3.04-1.32,4.78-1.74
			c1.74-0.41,3.42-0.49,5.13-0.52c1.71,0,3.48-0.1,5.51,0.42c2.04,0.49,4.15,1.33,5.81,2.23c1.65,0.9,3.09,2.01,4.25,2.92
			c1.15,0.93,2.13,2.14,3.28,3.08c1.15,0.94,2.19,1.83,3.54,2.77c1.36,0.94,2.98,2.13,4.59,2.85c1.61,0.73,3.05,1.16,4.72,1.48
			c1.67,0.31,3.37,0.42,5.28,0.4c1.91,0,4.3-0.34,6.25-0.93c1.94-0.59,3.73-1.57,5.31-2.51c1.58-0.93,2.93-2.01,4.17-3.02
			c1.25-1.01,2.17-1.99,3.33-3.01c1.16-1.02,2.26-2.22,3.64-3.13c1.38-0.92,2.96-1.63,4.45-2.16c1.49-0.53,2.8-0.89,4.41-1.07
			c1.61-0.17,57.12-0.1,57.12-0.1l-0.22-8.47c0,0-48.39,0.1-56.58,0c-1.63-0.14-2.87-0.45-4.01-0.8c-1.14-0.35-1.49-0.64-2.8-1.34
			c-1.31-0.71-2.71-1.63-4.17-2.75c-1.46-1.12-3.11-2.75-4.54-3.99c-1.44-1.25-2.66-2.48-4.06-3.47c-1.41-0.99-2.78-1.82-4.32-2.46
			c-1.55-0.64-3.21-1.11-4.89-1.34c-1.68-0.22-3.4-0.15-5.1,0c-1.71,0.16-3.27,0.33-5.1,0.95c-1.25,0.43-2.96,1.25-4,1.9
			c-1.81,1.15-3.22,2.43-4.93,3.72c-1.56,1.19-3.05,2.54-4.58,3.68c-1.71,1.28-3.14,2.44-5.14,3.58c-1.43,0.81-3.56,1.96-5.19,2.19
			c-2.06,0.28-3.11,0.3-4.69,0.18c-1.56-0.11-2.75-0.33-4.35-0.85c-1.6-0.51-3.23-1.22-4.85-2.25c-1.61-1.03-3.19-2.41-4.69-3.97
			c-1.49-1.56-3.05-3.41-4.19-5.41c-1.15-2-2.21-4.6-2.8-6.9c-0.59-2.3-0.46-6.81-0.46-6.81V517.52z M518.15,534.38v10.84h-5.75
			c0,0,0.26-2.96,0.68-4.37c0.31-1.04,0.75-2.08,1.33-3c0.54-0.87,1.22-1.65,1.98-2.33c0.53-0.47,1.76-1.17,1.76-1.17V534.38z"/>
		<path id="path4003" fill="#DA291C" d="M645.11,530.99l16.86,15.89c1.399,1.05,3.39,2.15,4.779,1.46c0.94-0.6,1.78-1.89,1.53-3.49
			c-0.99-10.84-3.42-35.95-3.42-35.95l12.72,5.35l16.561-25.43l15.729,25.6l12.55-5.02c0,0-1.989,24.15-2.77,35.42
			c0.1,1.38,0.31,2.26,1.609,3c1.82,0.69,2.5,0,4.48-1.08c6.78-5.5,11.3-10.4,17.07-16.57l4.239,11.45l22.03-3.44l-1.49,24.1
			l7.54,3.18l-46.689,40.49l7.35,9.6l-37.8-3.08l-4.021,6.36l-3.68-6.02l-38.82,2.51l7.86-8.87l-47.35-41.5l8.21-2.34l-1.51-24.76
			l22.25,3.51L645.11,530.99z"/>
		<path id="path4005" fill="#041E42" d="M370.04,560.56l31.8,1.12l25.94,1.81l23.01,2.59l15.77,2.32c0,0-0.1,2.18,0.25,3.71
			c0.32,1.53,0.99,3.67,1.9,5.34c0.91,1.67,2.2,3.18,3.53,4.57c1.33,1.38,2.46,2.29,4.4,3.7c1.93,1.41,4.69,3.15,7.32,4.57
			c2.63,1.42,5.51,2.54,8.45,3.88s6.43,2.9,9.22,4.14c2.79,1.23,4.17,1.65,7.5,3.27c3.32,1.62,8.69,4.49,12.32,6.63
			c3.63,2.15,6.46,4.01,9.48,6.13c3.01,2.11,5.4,3.89,8.62,6.54c3.21,2.66,6.91,6.05,10.6,9.49c3.68,3.42,7.66,6.92,11.46,11.11
			c3.8,4.19,7.8,9.31,11.2,14.05c3.4,4.74,6.76,10.04,9.22,14.3c2.45,4.26,4.33,8.2,5.69,11.12s2.67,6.29,2.67,6.29
			s3.02-4.41,4.84-7.36c1.81-2.95,4.7-6.59,6.76-10.23c2.07-3.65,5.22-7.71,7.9-11.22c2.69-3.51,6.08-7.44,8.62-10.51
			c2.54-3.07,4.45-5.47,6.63-7.93c2.19-2.47,5.66-6.09,5.66-6.09l-18.78-0.18c0,0,2.85-6.09,4.61-9.79
			c1.76-3.71,3.99-8.49,5.99-12.07c2.01-3.59,3.79-6.32,5.8-9.57c2.01-3.25,6.351-10.19,6.351-10.19l16.97,15.17l-12.061,14.74
			c0,0,6.12-0.32,10.961-0.54c4.85-0.21,11.529-0.72,16.13-1.05c3.069-0.21,11.52-1.26,11.52-1.26s-7.7,6.7-12.07,10.77
			c-4.369,4.08-10.54,9.39-14.079,13.71c-3.721,4.53-5.971,6.4-10.051,11.11s-9.85,11.54-14.3,17.24
			c-4.45,5.69-8.34,11.11-12.41,16.89c-4.07,5.77-8,11.59-11.98,17.75s-7.67,12.03-11.89,19.22c-4.23,7.19-13.36,23.95-13.36,23.95
			s-4.4-11.49-6.63-17.4c-2.24-5.909-4.18-12.08-6.79-18.08c-2.61-6-5.88-12.01-8.9-17.86c-3.02-5.85-6.21-11.88-9.22-17.23
			c-3.01-5.36-5.11-9.05-8.79-14.91c-3.68-5.87-9.03-14.14-13.44-20.17c-4.41-6.02-9.1-11.68-12.84-16.03
			c-3.74-4.34-5.96-6.82-9.39-10.16c-3.43-3.35-7.45-6.85-11.2-9.83c-3.76-2.98-7.53-5.78-11.3-8.1c-3.76-2.32-7.76-4.4-11.2-5.86
			s-6.28-2.16-8.94-2.98s-4.66-1.21-7.25-1.77c-2.58-0.57-6.34-1.37-10.34-2.17c-3.99-0.81-7.17-1.57-13.28-3.16
			c-6.11-1.6-15.65-4.12-21.63-5.95c-5.98-1.83-10.13-3.27-14.31-4.83c-4.17-1.55-7.98-3.16-10.77-4.39s-6.03-2.84-6.03-2.84
			s-3.55-2.19-4.48-3.19C370.49,561.88,370.04,560.56,370.04,560.56L370.04,560.56z"/>
	</g>
	<path id="path150-4" fill="#003DA5" d="M223.721,85.843c0.098,1.688-0.042,3.397-1.283,4.826l11.147-0.652
		c-1.057-1.108-1.164-2.375-1.321-4.6v-0.072l-0.934-16.378l25.283,19.857l-2.127-36.338c-0.072-1.475,0-3.043,0.835-4.293
		l-10.576,0.64c0.81,0.951,1.074,2.14,1.245,3.978l1.002,17.014l-25.381-19.857L223.721,85.843z"/>
	<path id="path154-8" fill="#003DA5" d="M94.912,134.531c4.02-5.418,11.992-6.599,17.405-2.583
		c5.414,4.033,6.594,11.983,2.583,17.41c-4.024,5.418-11.991,6.59-17.405,2.575C92.082,147.921,90.9,139.949,94.912,134.531
		 M92.418,158.762c9.208,6.838,22.291,4.838,29.17-4.438c6.889-9.272,4.996-22.376-4.194-29.193
		c-9.204-6.83-22.303-4.839-29.183,4.429C81.335,138.84,83.215,151.932,92.418,158.762"/>
	<path id="path158-8" fill="#003DA5" d="M277.296,58.372l5.904,1.189l-5.554,27.433c-0.422,2.097-1.189,3.423-2.609,4.254
		l12.093,2.456c-0.857-1.283-1.317-3.006-0.912-4.967l5.554-27.424l6.535,1.313c2.323,0.469,4.041,1.782,5.128,2.844l0.167-9.618
		l-28.697-5.823l-3.534,8.812C273.468,57.946,275.087,57.984,277.296,58.372"/>
	<path id="path162-2" fill="#003DA5" d="M67.11,186.241l2.276-5.572l25.901,10.611c2.088,0.84,3.137,2.012,3.657,3.44l4.723-11.514
		c-1.441,0.61-3.214,0.729-5.056-0.042l-25.909-10.606l2.523-6.156c0.899-2.187,2.502-3.645,3.747-4.515l-9.408-1.965
		l-11.092,27.096l7.971,5.12C65.984,189.924,66.309,188.338,67.11,186.241"/>
	<path id="path166-4" fill="#003DA5" d="M133.793,96.449c2.767-2.003,4.77-2.345,6.918-1.151c1.454,0.801,2.042,2.656,2.114,3.107
		c0.068,0.333,0.435,3.257-3.048,5.793l-2.984,2.17l-5.768-7.882L133.793,96.449z M121.878,100.252l19.144,26.631
		c0.469,1.015,0.793,2.281,0.567,3.653l9.783-7.132c-1.875-0.167-2.945-1.258-4.173-2.771l-8.295-11.404l21.498,7.614l9.212-6.71
		c-1.505-0.081-3.372-0.414-5.414-0.976l-14.161-4.838l0.26-0.682c1.705-4.344,0.891-7.545,0.712-8.138
		c-0.422-1.419-1.108-2.775-2.042-4.033c-1.253-1.727-2.771-3.044-4.519-3.931l-0.234-0.119c-1.407-0.648-2.634-1.023-3.977-1.198
		c-2.081-0.234-4.434,0.12-6.795,1.041c-0.473,0.175-2.758,1.198-4.553,2.502l-0.124,0.102L117.76,97.86
		C119.167,98.167,120.783,98.738,121.878,100.252"/>
	<path id="path170-5" fill="#003DA5" d="M176.762,73.062c4.024-5.418,11.983-6.586,17.401-2.575
		c5.41,4.012,6.599,11.975,2.57,17.394c-4.011,5.418-11.974,6.607-17.392,2.583C173.931,86.444,172.75,78.48,176.762,73.062
		 M174.264,97.302c9.208,6.821,22.294,4.83,29.17-4.438c6.889-9.272,5.009-22.377-4.203-29.214c-9.208-6.83-22.29-4.834-29.17,4.442
		C163.185,77.364,165.056,90.473,174.264,97.302"/>
	<path id="path174-5" fill="#003DA5" d="M319.25,80.412c4.024-5.418,11.996-6.6,17.422-2.583c5.405,4.02,6.586,11.996,2.566,17.401
		c-4.016,5.418-11.979,6.599-17.405,2.583C316.407,93.802,315.239,85.817,319.25,80.412 M316.77,104.634
		c9.199,6.846,22.281,4.855,29.166-4.429c6.884-9.272,5-22.368-4.19-29.193c-9.216-6.829-22.312-4.847-29.196,4.43
		C305.677,84.722,307.57,97.813,316.77,104.634"/>
	<path id="path178-1" fill="#003DA5" d="M157.204,381.103c0.2-0.324,0.303-0.49,0.303-0.49c1.552-2.426,3.534-3.606,6.578-3.461
		l-7.516-4.766l-20.031,31.585c-3.095,4.859-0.801,11.607,4.932,15.253c5.75,3.636,12.72,3.005,15.896-1.94l20.086-31.669
		l-7.503-4.753c1.654,2.677,1.334,4.753-0.35,7.422c0,0-10.657,16.805-16.284,25.681c-1.761,2.583-5.861,3.044-9.084,0.989
		c-3.231-2.029-4.548-5.973-2.997-8.667C143.06,403.406,157.14,381.196,157.204,381.103"/>
	<path id="path182-7" fill="#003DA5" d="M179.43,386.887l-19.711,31.078c-0.277,0.435-0.746,1.172-0.746,1.172
		c-3.449,5.453-11.799,6.34-18.633,1.995c-2.366-1.496-4.211-3.423-5.52-5.529c-0.047-0.072-0.094-0.119-0.141-0.213
		c-2.34-3.938-2.75-8.518-0.537-12.013c0,0,0.166-0.277,0.708-1.164l19.72-31.086l-7.494-4.762c1.449,2.528,1.56,4.365-0.337,7.418
		l-16.761,26.431c-5.669,9.075-2.895,18.519,7.366,25.079c10.026,6.398,20.53,5.269,26.268-3.756l16.752-26.431
		c1.825-2.767,4.062-3.79,6.522-3.504L179.43,386.887z"/>
	<path id="path186-1" fill="#003DA5" d="M393.772,390.357l-9.387-9.651l-10.222-30.404c-0.27-1.108-1.126-2.963,0.528-8.121
		l-6.591,6.331l11.6,34.795l14.468,15.053l0.043-0.043l6.948-6.688c-2.993,1.049-5.243,0.516-7.384-1.283"/>
	<path id="path190-1" fill="#003DA5" d="M345.705,370.07l-0.166,0.175l31.344,11.83l-10.665-31.743l-8.223,7.917
		c2.067-0.929,3.358-0.793,3.938-0.618c0.409,0.213,1.193,0.516,2.208,3.278l4.762,12.87l-12.622-5.167
		c-1.948-1.006-2.75-2.281-2.75-2.281c-0.793-1.419-0.11-2.907,0.277-4.05L345.705,370.07z"/>
	<path id="path194-5" fill="#003DA5" d="M343.65,372.057l-6.424,6.164c3.581-1.193,4.919-0.959,7.882-0.072l30.108,11.403
		l8.581,8.986c2.668,2.669,2.574,5.845,1.688,8.186l7.017-6.736l-14.498-15.04L343.65,372.057L343.65,372.057z"/>
	<path id="path198-2" fill="#003DA5" d="M304.343,434.505l-7.566-30.476c-0.866-3.769,1.995-7.137,1.995-7.137l-8.602,2.132
		l8.896,35.821c0,0,1.773,5.201-0.976,9.464c-1.961,2.984-4.996,5.286-9.157,6.31c-3.892,0.938-8.56,0.555-12.03-1.79
		c-1.534-1.023-2.272-1.663-3.904-3.24l-3.04,5.073c9.054,8.781,20.231,4.945,20.231,4.945c4.16-1.066,7.75-3.069,10.375-5.841
		c3.508-3.666,4.902-8.398,4.182-13.258C304.748,436.381,304.462,434.932,304.343,434.505"/>
	<path id="path202-7" fill="#003DA5" d="M287.501,443.5c-2.796,0.811-5.009-0.043-5.073-0.085c-3.142-1.066-4.651-5.883-4.651-5.883
		l-3.645,6.096c1.419,1.663,4.501,3.666,4.501,3.666c4.097,2.516,8.461,1.535,9.834,1.194c5.362-1.322,9.987-6.14,8.517-12.107
		c0-0.043-9.118-36.738-9.118-36.738l-8.598,2.11c1.875,0.307,4.365,2.318,5.115,5.375l7.49,30.233
		C292.569,440.218,290.297,442.732,287.501,443.5"/>
	<path id="path210-6" fill="#003DA5" d="M98.173,317.106l1.667,3.504c1.253,2.635,0.903,5.18-1.279,6.211
		c-2.681,1.266-4.77-1.262-5.571-2.971l-1.663-3.496L98.173,317.106z M100.974,331.908c4.527-2.14,6.053-8.074,3.449-13.471
		l-3.888-8.207l-15.402,7.311l3.896,8.202C91.723,331.43,96.647,333.967,100.974,331.908"/>
	<path id="path214-1" fill="#003DA5" d="M82.771,336.597c-0.55,0.537-1.577,1.134-2.383,1.236c-2.221,0.269-4.344,0.414-6.868-5.047
		l-1.539-3.287l9.267-4.391l1.552,3.257c2.076,4.383,1.385,6.868-0.042,8.232 M86.761,326.494L86.761,326.494l-3.768-7.938
		l-17.832,8.462l3.773,7.929c2.084,4.463,6.765,11.441,14.268,7.886C91.621,338.831,88.492,330.172,86.761,326.494"/>
	<path id="path218-4" fill="#003DA5" d="M66.803,335.961l-4.77-10.048l39.606-18.795l4.906,10.325
		c3.138,6.607,1.121,13.906-4.57,16.608c-3.38,1.594-6.837,1.032-10.576-1.744l-0.418-0.315l0.077,0.516
		c0.699,5.337-1.854,10.078-6.854,12.439C77.485,348.132,70.985,344.773,66.803,335.961 M86.638,350.042L86.638,350.042
		c4.08-1.927,7.085-5.222,8.125-10.15c0,0,3.875,1.812,9.549-0.865l0,0v-0.043c8.321-3.947,11.279-14.366,6.782-23.732
		l-8.722-18.382c0,2.417-1.151,4.745-4.186,6.109l-36.558,17.354c-3.444,1.556-6.156,1.215-8.364-1.074l8.96,18.864
		c7.204,15.159,19.093,14.413,24.413,11.911l0,0V350.042z"/>
	<path id="path222-2" fill="#003DA5" d="M92.149,377.419l36.566-32.565l-5.917-6.642c0.699,2.243,0.277,4.604-2.353,7.038
		c0,0-0.119,0.098-0.298,0.269c-0.072,0.063-26.885,23.945-30.031,26.75c-2.741,2.281-5.205,2.328-8.189,1.275l22.776,25.569
		l4.369-2.732h-0.042l-16.898-18.961H92.149z"/>
	<path id="path226-3" fill="#003DA5" d="M109.58,385.826c0,0-4.289-4.817-6.85-7.678c3.487-3.116,22.763-20.326,25.947-23.144
		c0.043,0,0.043,0,0.043,0c0.081-0.047,0.145-0.115,0.217-0.188c0,0,4.425-3.274,7.26-1.539l-5.887-6.633l-0.042-0.042
		l-34.802,31.005l15.577,17.478l7.366-4.578c0,0-4.795-0.248-8.653-4.493l-0.17-0.192L109.58,385.826z"/>
	<path id="path230-2" fill="#003DA5" d="M215.029,442.179c-0.094,0-13.019-3.112-13.019-3.112l2.336-9.779l9.127,2.148l0.128,0.043
		c4.322,1.151,5.248,4.391,5.248,4.391l1.722-7.222l-20.308-4.83l-4.527,19.001l24.908,5.883l3.47-8.015
		C222.105,441.88,219.85,443.159,215.029,442.179"/>
	<path id="path234-2" fill="#003DA5" d="M200.595,421.494l20.538,4.864l1.722-7.272c0,0-2.378,2.639-6.659,1.624l-9.544-2.259
		l1.812-7.623l11.488,2.732c6.241,1.484,7.746,4.869,7.746,4.869l0.545-8.126l-23.663-5.614L200.595,421.494L200.595,421.494z"/>
	<path id="path238-1" fill="#003DA5" d="M197.454,401.987c-9.459,39.808-9.37,39.467-9.429,39.723
		c-0.571,2.089-2.213,5.03-6.066,5.456l35.709,8.483l0,0l2.029-4.731l-27.013-6.395l10.132-42.677l25.556,6.074l0.333-5.133
		l-33.633-7.997C196.976,396.543,198.127,399.118,197.454,401.987"/>
	<path id="path250-6" fill="#003DA5" d="M329.145,423.293l1.188,18.331l0.158-0.085l8.841-4.646
		c-2.067-0.299-3.935-2.174-4.446-5.03l-0.426-6.446l12.337-6.471l5.357,4.156c1.36,1.126,3.491,3.309,1.296,6.364l8.914-4.685
		l0.188-0.103l-14.473-11.369L329.145,423.293L329.145,423.293z"/>
	<path id="path254-8" fill="#003DA5" d="M426.323,327.009c-11.241-6.339-19.14,1.117-22.938,4.715l-0.166,0.149
		c-3.713,3.487-5.456,4.353-7.2,3.534c-0.404-0.196-0.604-0.341-0.895-0.528c-1.944-1.364-2.127-3.773-0.478-6.356
		c0.358-0.545,3.662-5.333,9.697-2.297l0.103,0.055l-2.392-6.633h-0.067c-2.264-0.068-7.977,0.478-11.847,6.808
		c-3.295,5.389-1.939,10.862,3.359,13.842c4.979,2.814,8.7-0.499,11.974-3.432l0.167-0.141l1.496-1.224
		c0.256-0.234,0.541-0.464,0.822-0.703c3.014-2.575,5.857-5.022,10.048-4.89c0.311,0,3.107,0.175,5.729,1.761
		c2.647,1.607,4.391,3.772,5.137,6.45c1.02,3.551,0.448,7.495-1.556,11.075c-2.131,3.764-5.521,6.356-9.553,7.29
		c-1.696,0.405-2.694,0.516-4.971,0.618h-0.042l1.624,5.598h0.042c10.448-0.486,15.521-8.125,16.796-10.461
		c0.298-0.473,0.384-0.75,0.384-0.75c2.089-3.688,3.069-7.626,2.855-11.403c-0.341-5.581-3.282-10.363-8.116-13.075"/>
	<path id="path258-5" fill="#003DA5" d="M417.09,354.314c3.572-0.776,6.33-2.869,8.193-6.211c0.085-0.128,0.149-0.264,0.204-0.358
		l0.094-0.167c2.912-5.299,1.723-11.22-2.809-13.795c-3.525-2.012-6.659-2.059-9.596-0.149c-2.511,1.663-5.584,4.276-5.61,4.302
		c-5.038,4.455-9.365,7.601-15.328,4.344c-2.887-1.556-4.86-3.909-5.691-6.782c-0.942-3.266-0.35-7.004,1.727-10.5
		c1.078-1.846,5.222-7.899,12.891-7.725h0.043l-1.808-5v-0.047l0,0l-1.262,0.167c-5.295,0.729-11.22,4.945-14.102,10.056
		c-2.179,3.896-3.185,7.733-2.971,11.408c0.276,4.915,2.583,9.071,6.646,12.021c0.579,0.422,1.181,0.818,1.846,1.181
		c9.596,5.41,15.679-0.042,20.538-4.408l0.379-0.362c3.978-3.56,6.808-5.312,9.477-3.807c1.649,0.921,2.442,4.012,1.04,6.744
		c-1.159,2.243-2.877,3.121-3.376,3.338c-2.822,1.505-7.328-0.43-7.362-0.452l-0.076-0.042l1.956,6.778h0.056
		c1.795,0.213,4.864-0.533,4.911-0.541"/>
	<path id="path242-7" fill="#003DA5" d="M332.333,406.476l5.665,4.532l-5.103,2.686L332.333,406.476z M327.222,396.73l1.658,24.022
		l17.239-9.08L327.222,396.73z"/>
	<path id="path246-6" fill="#003DA5" d="M319.391,381.836l3.019,55.014c-0.056,5.201-0.87,8.228-2.242,10.146l7.907-4.178
		l-3.414-51.037l40.155,31.679l7.549-3.974c-3.12-0.094-6.078-1.961-9.198-4.041L319.391,381.836z"/>
</g>
</svg>
