<?xml version="1.0" encoding="utf-8"?>
<!-- Generator: Adobe Illustrator 16.0.4, SVG Export Plug-In . SVG Version: 6.00 Build 0)  -->
<!DOCTYPE svg PUBLIC "-//W3C//DTD SVG 1.1//EN" "http://www.w3.org/Graphics/SVG/1.1/DTD/svg11.dtd">
<svg version="1.1"
	 id="svg2" xmlns:sodipodi="http://sodipodi.sourceforge.net/DTD/sodipodi-0.dtd" xmlns:svg="http://www.w3.org/2000/svg" xmlns:dc="http://purl.org/dc/elements/1.1/" xmlns:cc="http://creativecommons.org/ns#" xmlns:rdf="http://www.w3.org/1999/02/22-rdf-syntax-ns#" xmlns:inkscape="http://www.inkscape.org/namespaces/inkscape" inkscape:version="0.48.2 r9819" sodipodi:docname="carolina_2012_logoslick.pdf"
	 xmlns="http://www.w3.org/2000/svg" xmlns:xlink="http://www.w3.org/1999/xlink" x="0px" y="0px" viewBox="0 0 368.179 200" enable-background="new 0 0 368.179 200" xml:space="preserve">
<sodipodi:namedview  guidetolerance="10" showgrid="false" fit-margin-left="0" inkscape:zoom="0.7639463" inkscape:cy="11.969538" bordercolor="#666666" pagecolor="#ffffff" inkscape:cx="495.13478" fit-margin-top="0" objecttolerance="10" gridtolerance="10" borderopacity="1" id="namedview4" inkscape:window-maximized="1" inkscape:current-layer="g422" fit-margin-bottom="0" fit-margin-right="0" inkscape:window-y="24" inkscape:window-x="65" inkscape:pageopacity="0" inkscape:window-width="1535" inkscape:pageshadow="2" inkscape:window-height="876">
	</sodipodi:namedview>
<g id="g422">
	<g id="g428" transform="matrix(2.1261114,0,0,2.1261114,335.24707,567.06676)">
		<path id="path430" inkscape:connector-curvature="0" d="M0.92-257.117c0.038-0.092,0.069-0.179,0.096-0.261
			c0.023-0.073,0.041-0.143,0.059-0.208c-0.001-0.004-0.002-0.007-0.004-0.011c-0.25-0.717-0.75-0.77-1.801-0.687
			c-1.534,0.292-2.952,0.477-4.145,0.597h0.001c-0.066,0.006-0.129,0.013-0.194,0.019c-0.046,0.004-0.094,0.01-0.139,0.013
			c-0.179,0.017-0.35,0.032-0.516,0.046c-0.025,0.003-0.049,0.004-0.073,0.006c-1.537,0.125-2.51,0.13-2.51,0.13
			c3.929,2.971,4.387,7.571,4.387,7.571l0.2-0.171C-0.702-252.262,0.92-257.117,0.92-257.117"/>
	</g>
	<g id="g432" transform="matrix(2.1261114,0,0,2.1261114,265.8193,525.51511)">
		<path id="path434" inkscape:connector-curvature="0" fill="#D1D3D4" d="M-7.244-213.144c1.949,5.74-1.332,13.429-1.332,13.429
			c4.305-3.69,7.687-11.275,7.687-11.275c7.073-1.435,10.969,0,10.969,0c0.921,5.535-1.13,10.044-1.13,10.044
			c4.101-3.279,5.946-11.993,5.946-11.993s-1.64-1.536-8.916-2.049C-1.299-215.501-7.244-213.144-7.244-213.144"/>
	</g>
	<g id="g436" transform="matrix(2.1261114,0,0,2.1261114,274.84125,488.17487)">
		<path id="path438" inkscape:connector-curvature="0" fill="#D1D3D4" d="M-6.183-173.628c0,0-2.137,5.949-4.333,8.145
			c0,0,2.836,1.555,7.779,1.098c4.941-0.457,6.133-2.286,6.59-4.118c0.457-1.83,0-4.394-0.825-6.315c0,0,0.368,4.85-3.02,7.322
			c0,0-3.649,0.763-6.029,0.031C-6.021-167.464-5.085-169.416-6.183-173.628"/>
	</g>
	<g id="g440" transform="matrix(2.1261114,0,0,2.1261114,255.02802,566.82015)">
		<path id="path442" inkscape:connector-curvature="0" fill="#D1D3D4" d="M-8.513-256.856c0.05,0.01,0.1,0.02,0.151,0.031
			C-8.412-256.836-8.463-256.846-8.513-256.856c-2.983-0.568-4.24,1.685-4.24,1.685c-0.945,1.399-0.585,2.069-0.585,2.069
			c9.191-0.161,14.147,1.322,14.147,1.322s-3.424-3.743-8.946-4.999L-8.513-256.856z"/>
	</g>
	<g id="g444" transform="matrix(2.1261114,0,0,2.1261114,317.49889,558.79131)">
		<path id="path446" inkscape:connector-curvature="0" fill="#D1D3D4" d="M-1.168-248.359c-1.208-1.128-3.788-2.58-6.611-2.016
			c-2.821,0.566-2.984,3.629-2.984,3.629C-7.699-249.568-1.168-248.359-1.168-248.359"/>
	</g>
	<g id="g448" transform="matrix(2.1261114,0,0,2.1261114,201.1366,548.52728)">
		<path id="path450" inkscape:connector-curvature="0" fill="#0099D8" d="M-14.85-237.497c0,0,15.147-2.9,32.474,1.193
			c0.622-0.559,1.34-1.127,2.171-1.705C19.795-238.009,3.907-242.417-14.85-237.497"/>
	</g>
	<g id="g452" transform="matrix(2.1261114,0,0,2.1261114,201.27484,538.46334)">
		<path id="path454" inkscape:connector-curvature="0" fill="#0099D8" d="M-14.834-226.846c0,0,13.278-3.31,29.465-1.078
			c0.309-0.614,0.726-1.26,1.273-1.93C10.063-230.524-1.796-231.048-14.834-226.846"/>
	</g>
	<g id="g456" transform="matrix(2.1261114,0,0,2.1261114,201.84909,528.72046)">
		<path id="path458" inkscape:connector-curvature="0" fill="#0099D8" d="M-14.766-216.536c0,0,12.546-3.875,28.366-2.781
			c-0.076-0.566-0.084-1.244,0.062-2.009C7.321-221.497-3.357-220.921-14.766-216.536"/>
	</g>
	<g id="g460" transform="matrix(2.1261114,0,0,2.1261114,138.9147,461.52362)">
		<path id="path462" inkscape:connector-curvature="0" fill="#0099D8" d="M-22.166-145.423h0.006
			c0.013,0.001,0.038,0.004,0.075,0.007c0.275,0.025,1.16,0.106,1.209,0.111c0.12,0.011,1.639,0.171,1.651,0.172
			c2.157,0.241,4.342,0.545,6.544,0.919v-0.001c4.964-18.166,18.929-27.876,18.929-27.876
			C-12.641-162.956-20.584-148.083-22.166-145.423"/>
	</g>
	<g id="g464" transform="matrix(2.1261114,0,0,2.1261114,290.40757,504.32798)">
		<path id="path466" inkscape:connector-curvature="0" fill="#0099D8" d="M-4.353-190.722c-1.181-5.48,1.941-9.233,1.941-9.233
			c-7.096,6.224-2.8,12.455-0.653,17.289c2.149,4.834,1.29,8.38-0.859,10.851c-2.149,2.473-8.058,2.686-12.033,1.935
			c-3.974-0.753-6.016-4.944-7.091-9.885c-1.073-4.941,0.86-13.645,0.86-13.645c-2.9,4.406-2.9,13.43-0.645,20.736
			c2.256,7.305,8.165,9.13,12.462,9.13c4.299,0,12.033-3.651,10.84-12.35C-0.722-184.591-3.17-185.243-4.353-190.722"/>
	</g>
	<g id="g468" transform="matrix(2.1261114,0,0,2.1261114,211.81735,496.77137)">
		<path id="path470" inkscape:connector-curvature="0" fill="#0099D8" d="M-13.594-182.725c-7.412-7.505-7.638-15.994-7.638-15.994
			s-2.544,9.898,3.497,17.31c6.041,7.414,20.752,8.222,20.752,8.222S-6.181-175.22-13.594-182.725"/>
	</g>
	<g id="g472" transform="matrix(2.1261114,0,0,2.1261114,275.58135,552.01541)">
		<path id="path474" inkscape:connector-curvature="0" fill="#0099D8" d="M-6.096-241.188c8.712,3.384,8.61,8.611,8.61,8.611
			c1.332-5.023,7.484-7.688,7.484-7.688s-3.179-1.538-7.586-1.845C-1.996-242.418-6.096-241.188-6.096-241.188"/>
	</g>
	<g id="g476" transform="matrix(2.1261114,0,0,2.1261114,255.02802,566.82015)">
		<path id="path478" inkscape:connector-curvature="0" fill="#0099D8" d="M-8.513-256.856c-5.249-1.044-10.286,1.06-10.54,1.167
			c-0.003,0.001-0.004,0.001-0.005,0.003c-0.003,0.001-0.004,0.001-0.005,0.001l-0.001,0.001c4.838,0.083,6.311,0.513,6.311,0.513
			S-11.496-257.423-8.513-256.856"/>
	</g>
	<g id="g480" transform="matrix(2.1261114,0,0,2.1261114,284.05052,450.85992)">
		<path id="path482" inkscape:connector-curvature="0" fill="#0099D8" d="M-5.1-134.138l-0.001,0.001
			c-0.056,0.02-3.137,1.106-6.952,0.42c0,0,5.046,4.884,10.171,15.564c0.002,0.006,0.005,0.011,0.007,0.017l0.197-0.015
			c-0.495-4.868-2.572-13.023-3.051-14.528L-5.1-134.138z"/>
	</g>
	<g id="g484" transform="matrix(2.1261114,0,0,2.1261114,293.36373,504.76809)">
		<path id="path486" inkscape:connector-curvature="0" d="M-4.005-191.188c0,0,2.051-4.509,1.129-10.045c0,0-3.896-1.434-10.969,0
			c0,0-3.381,7.585-7.687,11.275c0,0,3.281-7.688,1.334-13.427c0,0,5.944-2.357,13.223-1.845c7.277,0.513,8.917,2.05,8.917,2.05
			S0.096-194.467-4.005-191.188 M-8.704-175.3c3.387-2.471,3.021-7.323,3.021-7.323c0.824,1.923,1.281,4.485,0.824,6.316
			c-0.457,1.83-1.649,3.66-6.59,4.118c-4.942,0.456-7.779-1.098-7.779-1.098c2.196-2.198,4.332-8.145,4.332-8.145
			c1.099,4.211,0.163,6.163,0.163,6.163C-12.353-174.538-8.704-175.3-8.704-175.3 M-0.919-176.1
			c1.191,8.699-6.543,12.35-10.84,12.35c-4.298,0-10.208-1.825-12.463-9.13c-2.256-7.306-2.256-16.329,0.645-20.736
			c0,0-1.934,8.704-0.86,13.645c1.075,4.941,3.116,9.132,7.09,9.885c3.976,0.751,9.884,0.537,12.034-1.935
			c2.148-2.471,3.006-6.018,0.859-10.851c-2.149-4.834-6.445-11.065,0.652-17.289c0,0-3.124,3.752-1.941,9.233
			C-4.56-185.45-2.112-184.798-0.919-176.1 M-28.683-212.076c-16.186-2.231-29.464,1.079-29.464,1.079
			c13.037-4.201,24.895-3.678,30.737-3.008C-27.955-213.335-28.373-212.69-28.683-212.076 M-29.443-208.05
			c-15.82-1.095-28.366,2.78-28.366,2.78c11.409-4.385,22.087-4.961,28.427-4.79C-29.527-209.295-29.52-208.618-29.443-208.05
			 M-56.089-185.169c-6.04-7.412-3.498-17.311-3.498-17.311s0.225,8.489,7.638,15.994c7.412,7.505,16.614,9.539,16.614,9.539
			S-50.048-177.755-56.089-185.169 M-23.583-217.428c-0.831,0.577-1.55,1.146-2.173,1.705c-17.325-4.093-32.472-1.193-32.472-1.193
			C-39.47-221.835-23.583-217.428-23.583-217.428 M-37.094-226.498c0.001,0,0.003,0,0.005-0.001
			c0.001-0.001,0.003-0.001,0.005-0.003c0.26-0.11,5.534-2.316,10.916-1.091c5.522,1.258,8.948,5,8.948,5s-4.958-1.485-14.149-1.324
			c0,0-0.36-0.67,0.585-2.067c0,0-1.472-0.43-6.311-0.513L-37.094-226.498z M3.574-224.965c2.822-0.564,5.401,0.888,6.611,2.016
			c0,0-6.531-1.21-9.595,1.612C0.59-221.337,0.752-224.4,3.574-224.965 M12.86-210.647c-0.102-0.585-0.266-1.082-0.47-1.515
			c-0.001,0-0.165-0.412-0.66-1.059c-0.425-0.54-0.9-0.964-1.332-1.371c-0.943-0.89-2.642-1.419-2.642-1.419s-0.001,0-0.002-0.001
			c1.182,0.899,2.089,2.189,2.18,4.045c0.275,5.714-5.623,8.02-5.623,8.02c1.383-0.924,3.87-4.056,3.225-8.114
			c-0.645-4.055-5.901-5.981-5.901-5.981s-6.153,2.665-7.484,7.688c0,0,0.103-5.228-8.611-8.611c0,0,4.1-1.231,8.507-0.923
			c4.409,0.308,7.587,1.846,7.587,1.846s0.815-2.149,5.141-2.884c4.325-0.734,9.005,0.325,9.005,0.325
			c-0.865-1.578-1.86-3.876-6.209-5.654c-4.349-1.776-8.247-0.169-8.247-0.169s-0.284-2.099-3.444-4.144
			c-5.136-3.322-18.72-5.302-21.339-5.442c-2.619-0.14,1.96,1.546,3.797,2.592c2.085,1.189,4.421,3.208,4.62,5.123
			c0.051,0.514-0.07,0.964-0.301,1.336c-0.184-0.536-0.57-1.219-1.25-2.091c-3.719-4.78-13.163-6.846-20.245-6.374
			c-7.081,0.471-12.708,3.151-12.708,3.151c0.08,0.654-2.614,2.939-10.04,3.756c-7.077,0.776-12.071-0.518-13.869-0.783
			c-0.046-0.012-0.093-0.022-0.136-0.026c-0.729-0.092-1.275-0.057-1.504,0.466c-0.01,0.023-0.017,0.048-0.025,0.073
			c-0.005,0.031-0.01,0.064-0.015,0.095c-0.031,0.365,0.192,0.87,0.192,0.87c-0.041-0.079-0.076-0.145-0.104-0.197
			c0.505,0.969,3.516,6.516,7.483,9.366c0,0,2.371-0.503,5.185-0.804c0,0-43.474,21.156-61.086,54.214
			c7.675-0.899,17.771-1.479,28.734-0.514c-0.037-0.004-0.062-0.006-0.075-0.007h-0.006c1.583-2.66,9.525-17.533,28.415-26.668
			c0,0-13.966,9.709-18.93,27.876c6.315,1.074,12.765,2.735,19.08,5.192c20.304,7.914,37.416,16.185,56.708,16.014l3.281-0.143
			c-0.003-0.006-0.005-0.011-0.008-0.017c-5.124-10.68-10.17-15.564-10.17-15.564c3.815,0.686,6.896-0.401,6.953-0.421
			c0.29-0.104,0.537-0.208,0.744-0.302c6.308-3.401,7.364-9.158,7.88-13.284c0.595-4.769-0.253-7.821-0.253-7.821
			s10.92-14.336,13.695-25.619C12.585-206.519,13.226-208.559,12.86-210.647"/>
	</g>
	<g id="g488" transform="matrix(2.1261114,0,0,2.1261114,359.20556,525.55785)">
		<path id="path490" inkscape:connector-curvature="0" fill="#0099D8" d="M3.737-213.189c-6.384-3.484-13.625-4.566-19.177-4.781
			h-0.033h0.033c0.209-0.704,0.463-1.599,0.709-2.564c0.124-0.008,0.21-0.014,0.21-0.014c11.13-0.365,17.014,2.58,17.014,2.58
			l-0.56-0.431c-5.424-2.514-11.156-3.43-16.119-3.571h-0.201c0.173-0.771,0.394-2.337,0.439-2.335l0.115,0.004
			c8.564,0.09,13.233,2.12,13.233,2.12l-0.561-0.442c-4.248-1.812-8.592-2.633-12.658-2.904c0.024-1.584-0.241-2.889-0.841-4.016
			c3.14-2.725,4.3-6.876,4.466-8.515v-0.003c0-0.001,0.001-0.002,0.001-0.004c0.013-0.054,0.041-0.204,0.045-0.235
			c0.005-0.033,0.009-0.064,0.011-0.094c0.006-0.058,0.009-0.111,0.009-0.163c0-0.029,0-0.057-0.001-0.084
			c-0.002-0.05-0.007-0.096-0.014-0.142c-0.005-0.025-0.007-0.049-0.012-0.073c-0.011-0.042-0.023-0.085-0.036-0.124
			c-0.006-0.02-0.014-0.043-0.021-0.061c-0.017-0.039-0.034-0.074-0.053-0.107c-0.01-0.019-0.02-0.036-0.03-0.053
			c-0.021-0.033-0.042-0.061-0.065-0.093c-0.014-0.012-0.025-0.029-0.036-0.044c-0.025-0.026-0.05-0.051-0.076-0.076
			c-0.014-0.011-0.026-0.025-0.04-0.035c-0.029-0.022-0.056-0.044-0.085-0.065c-0.013-0.009-0.027-0.019-0.04-0.027
			c-0.03-0.019-0.06-0.035-0.089-0.051c-0.015-0.007-0.028-0.015-0.041-0.024c-0.03-0.014-0.06-0.028-0.091-0.039
			c-0.011-0.006-0.025-0.012-0.039-0.017c-0.028-0.011-0.057-0.021-0.086-0.031c-0.013-0.004-0.025-0.009-0.036-0.011
			c-0.029-0.009-0.055-0.016-0.083-0.022c-0.009-0.004-0.021-0.006-0.029-0.008c-0.027-0.007-0.05-0.011-0.074-0.016
			c-0.007-0.001-0.016-0.004-0.024-0.005c-0.023-0.004-0.04-0.008-0.059-0.009c-0.004,0-0.011-0.001-0.015-0.003
			c-0.043-0.006-0.068-0.008-0.068-0.008c-5.421,0.06-9.878-1.782-9.878-1.782c-0.121-0.045-0.244-0.086-0.365-0.131
			c-12.061-4.412-24.577-5.676-35.725-5.474l-0.003-0.01c-4.976,0.045-8.612,0.452-8.612,0.452
			c-16.001,1.352-27.473,5.185-27.473,5.185s-4.355,1.23-10.155,0.941c0,0-2.154-0.037-2.579,1.331
			c-0.365,0.872-0.414,1.912,0.407,4.187c0.945,2.621,4.728,7.55,4.756,7.589c-11.444,4.649-41.25,21.367-67.954,54.982
			c0,0,5.643-1.468,14.517-2.506v-0.001c17.614-33.058,61.086-54.214,61.086-54.214c-2.813,0.301-5.184,0.804-5.184,0.804
			c-3.966-2.85-6.978-8.397-7.483-9.365c0.028,0.052,0.062,0.119,0.104,0.198c0,0-0.224-0.506-0.192-0.871
			c0.003-0.032,0.007-0.064,0.015-0.095c0.006-0.025,0.015-0.05,0.025-0.072c0.228-0.524,0.775-0.559,1.504-0.466
			c0.042,0.004,0.089,0.014,0.136,0.026c1.798,0.265,6.791,1.56,13.869,0.782c7.426-0.818,10.12-3.101,10.04-3.756
			c0,0,5.626-2.679,12.708-3.15c7.082-0.474,16.525,1.593,20.244,6.373c0.681,0.872,1.067,1.556,1.251,2.091
			c0.231-0.371,0.353-0.821,0.301-1.336c-0.199-1.915-2.535-3.934-4.62-5.123c-1.838-1.046-6.416-2.732-3.797-2.593
			c2.617,0.14,16.202,2.12,21.337,5.442c3.161,2.045,3.445,4.144,3.445,4.144s3.899-1.606,8.246,0.169
			c4.35,1.778,5.345,4.076,6.21,5.654c0,0-0.459-4.6-4.387-7.571c0,0,0.972-0.005,2.51-0.13c0.023-0.003,0.047-0.004,0.073-0.006
			c0.166-0.014,0.338-0.029,0.516-0.046c0.045-0.003,0.092-0.009,0.139-0.012c0.065-0.006,0.128-0.013,0.194-0.019h-0.001
			c1.191-0.12,2.61-0.305,4.144-0.598c1.051-0.082,1.551-0.03,1.801,0.688c0.001,0.004,0.003,0.008,0.004,0.011
			c-0.018,0.065-0.036,0.135-0.059,0.208c-0.028,0.082-0.059,0.17-0.096,0.263c0,0-1.621,4.855-4.637,7.042l-0.2,0.171
			c0,0-4.68-1.059-9.005-0.325c-4.327,0.736-5.143,2.884-5.143,2.884s5.257,1.928,5.903,5.982c0.645,4.056-1.844,7.19-3.225,8.112
			c0,0,5.897-2.306,5.621-8.02c-0.091-1.856-0.996-3.146-2.179-4.044c0.001,0.001,0.003,0.001,0.003,0.001s1.697,0.528,2.642,1.417
			c0.431,0.407,0.906,0.831,1.331,1.371c0.495,0.647,0.659,1.06,0.66,1.06c0.204,0.431,0.367,0.929,0.47,1.514
			c0.365,2.089-0.275,4.127-0.275,4.127c-2.777,11.282-13.695,25.619-13.695,25.619c0.001-0.003,0.003-0.004,0.005-0.005
			c8.255-7.043,13.757-19.502,16.166-25.78c13.015,0.141,20.127,3.765,20.127,3.765L3.737-213.189z"/>
	</g>
	<g id="g616" transform="matrix(2.1261114,0,0,2.1261114,1035.5409,436.53566)">
	</g>
</g>
</svg>
