<?xml version="1.0" encoding="utf-8"?>
<!-- Generator: Adobe Illustrator 16.0.4, SVG Export Plug-In . SVG Version: 6.00 Build 0)  -->
<!DOCTYPE svg PUBLIC "-//W3C//DTD SVG 1.1//EN" "http://www.w3.org/Graphics/SVG/1.1/DTD/svg11.dtd">
<svg version="1.1" id="svg2" xmlns:svg="http://www.w3.org/2000/svg"
	 xmlns="http://www.w3.org/2000/svg" xmlns:xlink="http://www.w3.org/1999/xlink" x="0px" y="0px" width="700.859px" height="530px"
	 viewBox="65.575 72.084 700.859 530" enable-background="new 65.575 72.084 700.859 530" xml:space="preserve">
<g>
	<path id="path3192" fill="#FFFFFF" stroke="#000000" stroke-width="1.9426" d="M110.662,498.33
		c-2.694,15.32,0.875,31.848,7.458,44.055c3.926,7.281,6.789,13.709,6.938,20.988c0.85,41.432,89.866,8.461,95.57-5.377"/>
	<path id="path2409" fill="#DE6108" stroke="#000000" stroke-width="3.8853" d="M573.369,202.723
		c4.432,8.417-38.16,2.455-47.775,3.058c-4.768,0.298-15.568,1.409-8.705,18.094c5.684,13.814,6.314,20.474,10.57,29.892
		c11.525,25.506,2.457,35.993-13.867,37.614c-85.271,8.432-119.604,66.463-84.305,160.811
		c71.924,191.748-150.076,156.869-195.65,115.518c-17.624-15.992-38.78-24.193-63.135-15.264
		c-18.179,6.666-26.809,2.838-33.649-8.326C-124.955,116.845,428.68-71.979,573.369,202.723z"/>
	<path id="path2673" fill="#312821" d="M526.062,205.872l25.408,0.402c-43.455-82.74-133.068-138.378-256.95-125.894
		C398.184,79.313,481.27,127.137,526.062,205.872z"/>
	<path id="path3280" fill="#7F8180" stroke="#000000" stroke-width="1.9426" d="M580.031,209.112
		c2.697-1.472,23.057-9.812,23.057-9.812l26.738,49.549c17.586,32.591-23.031,36.364-29.436,18.151L580.031,209.112z"/>
	<path id="path3216" stroke="#000000" stroke-width="1.9426" d="M434.242,559.391c59.104,6.25,148.484-8.328,111.938-147.666
		c-7.832-29.938-12.867-85.214,30.908-100.08c22.627-7.684,32.643-17.044,21.586-49.059l-18.5-53.558l-52.635-3.35
		c-10.471-0.667-14.227,6.234-10.793,15.699l16.189,44.644c5.404,14.905-4.887,24.715-16.189,26.001
		c-102.562,11.666-114.883,80.63-86.918,158.949C445.16,493.779,449.949,528.822,434.242,559.391z"/>
	<path id="path2470" fill="#FFFFFF" d="M546.676,203.813l25.223,0.035C532.992,122.148,426.111,56.21,296.75,80.16
		C410.865,69.235,510.201,120.919,546.676,203.813z"/>
	<path id="path3284" fill="#FFFFFF" stroke="#000000" stroke-width="1.9426" d="M577.088,311.645
		c22.627-7.684,32.643-17.044,21.586-49.059l-18.5-53.558l-52.635-3.35c-10.471-0.667-14.227,6.234-10.793,15.699l16.189,44.644
		c5.404,14.905-4.887,24.715-16.189,26.001c-8.67,0.986-16.693,2.381-24.102,4.157C509.98,305.919,609.32,288.057,577.088,311.645z"
		/>
	<path id="path3286" fill="#FFFFFF" stroke="#000000" stroke-width="1.9426" d="M577.088,311.645
		c22.627-7.684,32.643-17.044,21.586-49.059l-18.5-53.558l-46.07-2.932c-10.471-0.667-14.227,6.234-10.793,15.699l16.189,44.643
		c5.404,14.905-4.539,29.225-15.844,30.511c-8.668,0.986-23.949,1.27-31.012-0.771C509.98,305.919,609.32,288.057,577.088,311.645z"
		/>
	<path id="path3234" fill="#D6D6D6" d="M465.711,309.27c-68.939,38.54-48.666,105.015-21.16,174.49
		C421.895,406.238,406.908,350.386,465.711,309.27z"/>
	<path id="path3290" fill="#FFFFFF" stroke="#000000" stroke-width="2.468" d="M257.698,537.07
		c1.104,6.766-3.323,12.254-9.886,12.254c-6.564,0-12.776-5.488-13.874-12.254c-1.104-6.768,3.323-12.256,9.887-12.256
		S256.602,530.303,257.698,537.07z"/>
	<path id="path3255" fill="#7F8180" stroke="#000000" stroke-width="1.9426" d="M578.627,249.951
		c2.154-1.866,36.332,0.838,39.719,2.082c9.885,3.626,8.727,17.799-1.041,15.61c-13.18-2.954-25.463-2.951-38.506-3.816
		L578.627,249.951z"/>
	<path id="path3218" fill="#FFFFFF" d="M447.672,491.738c0.619,19.531,1.584,38.977-7.979,61.055
		c60.455,8.373,142.086-30.904,94.01-147.779c-13.814-33.584-62.182-29.419-55.504,19.08
		C483.791,464.703,464.723,479.666,447.672,491.738z"/>
	<path id="path2411" d="M266.308,416.892c-16.557,0.085-29.629,13.032-29.747,30.292c-0.125,18.412,14.48,34.828,32.6,36.607
		c3.805,0.373,7.459,0.027,10.866-0.85l22.098-32.176c-1.322-17.291-15.321-32.008-32.479-33.691
		C268.515,416.963,267.412,416.886,266.308,416.892z"/>
	<path id="path3186" d="M198.354,538.297c20.226,8.205,43.355,25.59,63.246,33.461c130.658,51.707,206.236-31.881,154.576-125.691
		c38.992,127.527-58.416,159.75-154.599,121.852C239.673,559.289,223.046,544.367,198.354,538.297z"/>
	<path id="path3188" d="M226.563,500.521c25.537,36.299,77.495,35.689,97.626,8.83C292.853,530.605,258.723,527.961,226.563,500.521
		z"/>
	<path id="path3190" d="M178.827,555.914c9.855-1.52,17.423-1.123,27.752,2.428c1.546,0.533,4.008,1.559-2.775,4.857
		c-16.926,8.23-34.17,14.467-50.647,13.182c-3.066-0.238-5.75-3.688,0.347-6.244c7.249-3.039,10.823-7.705,10.06-15.264
		l12.141-3.816C174.884,553.166,173.747,556.697,178.827,555.914z"/>
	<path id="path3194" fill="none" stroke="#000000" stroke-width="1.9426" d="M124.017,535.795c4.716,4.926,7.942,9.354,8.326,17.691
		c0.998,21.676,28.956,9.941,27.578,1.908"/>
	<path id="path3222" fill="#FFFFFF" d="M551.822,324.155c3.631-4.309-1.26-5.815-3.68-3.434
		c-23.291,22.932-19.439,47.05-13.736,66.475c2.16,7.354,4.445,4.516,3.434-0.491C532.617,360.858,539.889,338.319,551.822,324.155z
		"/>
	<path id="path3447" fill="none" stroke="#000000" stroke-width="3.8853" d="M573.369,202.723c4.432,8.417-38.16,2.455-47.775,3.058
		c-4.768,0.298-15.568,1.409-8.705,18.094c5.684,13.814,6.314,20.474,10.57,29.892c11.525,25.506,2.457,35.993-13.867,37.614
		c-85.271,8.432-119.604,66.463-84.305,160.811c71.924,191.748-150.076,156.869-195.65,115.518
		c-17.624-15.992-38.78-24.193-63.135-15.264c-18.179,6.666-26.809,2.838-33.649-8.326
		C-124.955,116.845,428.68-71.979,573.369,202.723z"/>
	<path id="path3232" fill="#7F8180" stroke="#000000" stroke-width="1.9426" d="M543.59,349.337
		c27.584,42.425,58.393,69.927,168.766,54.29c11.541-1.636,19.316,1.611,22.895,12.141c17.088,50.279,26.855,94.631,30.18,146.043
		c0.846,12.982-15.432,17.686-17.691-0.346c-6.232-49.738-15.779-93.963-31.914-141.535
		c-108.629,25.367-156.979-19.412-174.836-45.27C541.057,366.219,541.252,357.778,543.59,349.337z"/>
	<path id="path3257" fill="#7F8180" stroke="#000000" stroke-width="1.9426" d="M532.662,224.801
		c-2.762-8.142-3.25-15.223,4.162-18.559l13.877-6.244c5.689-2.561,13.791-4.911,16.998,2.428l19.773,45.27
		c4.426,10.136,7.221,30.508-12.316,30.007l-13.527-0.347c-10.066-0.258-12.211-3.145-15.438-12.662L532.662,224.801z"/>
	<path id="path3259" fill="none" stroke="#000000" stroke-width="1.9426" d="M546.537,201.905
		c-7.154,3.221-9.953,9.213-6.938,18.906l13.877,37.638"/>
	<g id="g3214" transform="translate(273.144,-158.316)">
		<path id="path3236" fill="#7F8180" stroke="#000000" stroke-width="1.9426" d="M48.735,600.146
			c-5.542-3.533-6.012-8.725-2.775-13.876l13.398-19.818c3.469-5.13,6.648-4.389,12.143-1.041l44.402,27.058
			c20.721,12.627-6.281,55.08-26.018,41.975L48.735,600.146z"/>
		<path id="path3225" fill="#7F8180" stroke="#000000" stroke-width="1.9426" d="M47.968,588.611l19.854,8.236l-30.759,48.744
			c-8.351,13.232-26.35,0.018-18.642-11.775L47.968,588.611z"/>
		<path id="path3238" fill="#7F8180" stroke="#000000" stroke-width="1.9426" d="M48.92,607.277
			c-7.562-5.014-8.258-13.17-4.615-18.559l10.826-16.014c3.467-5.129,0.83-1.332,4.113-6.043l52.432,32.061
			c20.721,12.627-2.055,48.826-21.791,35.721L48.92,607.277z"/>
		<path id="path3212" opacity="0.97" fill="#7F8180" stroke="#000000" stroke-width="1.9426" enable-background="new    " d="
			M48.92,607.277c-7.562-5.014-8.258-13.17-4.615-18.559l6.365-9.414l5.678-8.025c-0.498,4.713,4.211,7.438,9.129,10.447
			l40.77,24.963c20.721,12.625,3.375,40.859-16.361,27.754L48.92,607.277z"/>
		<path id="path3220" fill="#7F8180" stroke="#000000" stroke-width="1.9426" d="M78.729,579.269
			c-4.27,4.268-21.023-6.412-18.363-11.02l56.174-84.553c20.387-31.191,45.643-46.064,75.059-54.945
			c28.127-8.492,56.326-12.299,84.381-17.661c12.123-2.317,17.252,12.507,0.982,16.189c-30.541,6.912-61.451,12.827-90.268,23.058
			c-25.545,9.068-43.564,27.172-59.852,52.983L78.729,579.269z"/>
		<path id="path3221" fill="#7F8180" stroke="#000000" d="M102.563,624.732c-1.777,3.822-6.83,5.32-11.578,3.33
			c-4.945-2.072-7.697-7.15-6.141-11.334c0.621-1.668,1.834-2.943,3.381-3.742"/>
		<path id="path3214" fill="#7F8180" stroke="#000000" d="M105.926,621.08c-1.557,4.186-6.836,5.898-11.783,3.826
			s-7.699-7.15-6.141-11.334c1.557-4.184,6.836-5.898,11.783-3.826S107.485,616.896,105.926,621.08z"/>
		<path id="path3223" fill="#7F8180" stroke="#000000" d="M87.432,613.525c-1.658,4.418-7.273,6.67-12.537,4.482
			c-5.262-2.189-7.752-7.412-6.531-11.969c0.662-2.475,4.457-6.498,4.744-6.498"/>
		<path id="path2441" fill="#7F8180" stroke="#000000" d="M90.147,610.179c-1.658,4.418-7.273,6.229-12.537,4.039
			c-5.262-2.188-8.189-7.551-6.531-11.969c1.656-4.418,7.273-6.229,12.535-4.039C88.877,600.398,91.803,605.759,90.147,610.179z"/>
		<path id="path3231" fill="#7F8180" stroke="#000000" stroke-width="1.5" d="M80.278,597.586l0.803,17.32"/>
	</g>
	<path id="path3224" fill="#7F8180" stroke="#000000" stroke-width="1.9426" d="M409.166,303.373l101.295,222.014
		c52.17,114.346,191.416,66.568,232.422,55.504c25.467-6.871,28.166-21.539-4.51-28.445c-41-8.666-73.566-30.363-89.154-68.34
		l-70.766-172.407c-2.068-5.037-20.557,1.794-17.346,9.366l68.686,162.001c17.566,41.43,48.398,77.25,83.949,80.48
		c8.902,0.807,36.93-2.576-20.467,9.018c-67.734,13.684-135.639,10.008-163.389-50.299l-106.15-230.687
		C421.74,287.24,405.998,296.426,409.166,303.373z"/>
	<path id="path3226" fill="#7F8180" stroke="#000000" stroke-width="1.9426" d="M357.795,376.402l44.152,44.152
		c23.906,23.906,58.648,39.176,127.062,31.398c80.258-9.125,137.887-20.191,186.424-28.945c8.146-1.469,9.959-20.521-5.889-17.66
		c-61.172,11.039-122.555,21.098-184.459,27.473c-62.16,6.375-92.041-4.48-110.383-24.039l-44.398-47.342
		C366.537,357.422,352.074,370.682,357.795,376.402z"/>
	<path id="path3228" fill="#7F8180" stroke="#000000" stroke-width="1.9426" d="M643.32,469.912
		c30.07,2.238,52.082-1.514,79.471-6.186c25.801-4.398,26.143,20.801,10.303,24.039c-58.729,12.01-115.646,24.371-179.064,30.416
		c-20.674,1.971-40.979,6.293-61.322,2.943l-185.564-30.539c2.434-1.785,7.244-9.682,11.896-17.17l168.271,29.066
		c21.803,3.768,43.871,0.705,66.719-2.451c60.562-8.369,118.227-17.197,173.178-30.418c-27.367,6.396-53.102,12.818-78.508,14.668
		 M630.488,484.758c-7-0.166-13.996-0.77-21.021-1.898l-54.768-8.801l-0.521-17.66l62.646,10.271
		c2.287,0.375,4.523,0.727,6.715,1.045"/>
	<path id="path3230" fill="#7F8180" stroke="#000000" stroke-width="1.9426" stroke-linecap="round" d="M694.793,593.342
		c3.246,3.16,16.006,1.811,16.174-4.125c2.07-72.67-14.76-128.32-38.506-176.571c-2.309-4.694-14.479-2.839-15.869,2.182
		c-1.393,5.021-0.064,1.096,6.424,17.276c6.488,16.182,11.814,32.256,16.109,47.904s-1.805-9.465,4.469,17.686
		s9.48,52.875,10.299,74.764"/>
	<path id="rect3263" d="M570.781,262.938h19.229c0.035,0,0.064,0.028,0.064,0.063v5.965c0,0.035-0.029,0.063-0.064,0.063h-19.229
		c-0.035,0-0.064-0.028-0.064-0.063v-5.965C570.717,262.967,570.746,262.938,570.781,262.938z"/>
	<path id="path3265" d="M559.582,208.669c-0.377,0.005-0.736,0.071-1.094,0.182c-2.9,0.907-3.895,5.167-2.186,9.47
		c1.709,4.304,5.477,7.039,8.379,6.131c2.9-0.907,3.895-5.167,2.186-9.47l-0.123-0.182
		C565.209,211.12,562.217,208.633,559.582,208.669z M559.096,210.004c1.887-0.028,4,1.856,5.1,4.735l0.061,0.182
		c1.223,3.367,0.559,6.696-1.518,7.406c-2.076,0.709-4.787-1.489-6.01-4.857c-1.223-3.367-0.498-6.635,1.578-7.345
		C558.562,210.039,558.826,210.008,559.096,210.004z"/>
	<path id="path3267" d="M565.955,223.846c-0.375,0.005-0.736,0.071-1.092,0.182c-2.902,0.907-3.895,5.166-2.186,9.47
		s5.477,7.039,8.377,6.131c2.902-0.907,3.895-5.166,2.186-9.47l-0.121-0.182C571.584,226.297,568.592,223.81,565.955,223.846z
		 M565.471,225.485c1.885-0.028,4.061,1.855,5.16,4.735l0.061,0.182c1.223,3.367,0.498,6.696-1.578,7.406
		c-2.078,0.71-4.727-1.489-5.949-4.856c-1.225-3.367-0.561-6.636,1.518-7.346C564.936,225.519,565.201,225.489,565.471,225.485z"/>
	<path id="path3282" fill="none" stroke="#000000" stroke-width="1.9426" d="M588.617,205.433l18.396,44.153"/>
	<path id="path3294" fill="#FFFFFF" stroke="#000000" stroke-width="1.9426" d="M252.026,538.051
		c0.703,4.369-2.113,7.912-6.289,7.912c-4.175,0-8.126-3.543-8.824-7.912c-0.703-4.369,2.114-7.912,6.289-7.912
		S251.328,533.682,252.026,538.051z"/>
	<path id="path3292" fill="#FFFFFF" stroke="#000000" stroke-width="1.9426" d="M248.424,542.588
		c0.703,4.369-2.113,7.912-6.288,7.912c-4.175,0-8.126-3.543-8.824-7.912c-0.703-4.367,2.113-7.91,6.288-7.91
		C243.775,534.678,247.727,538.221,248.424,542.588z"/>
	<path id="path3296" fill="#FFFFFF" stroke="#000000" stroke-width="1.9426" d="M378.891,519.285
		c0,7.654-6.205,13.859-13.859,13.859s-13.859-6.205-13.859-13.859s6.205-13.857,13.859-13.857S378.891,511.631,378.891,519.285z"/>
	<path id="path3298" fill="none" stroke="#000000" stroke-width="1.9426" d="M376.369,521.984c0,6.262-5.076,11.338-11.338,11.338
		s-11.338-5.076-11.338-11.338s5.076-11.338,11.338-11.338S376.369,515.723,376.369,521.984z"/>
	<path id="path3302" fill="none" stroke="#000000" stroke-width="1.9426" d="M373.658,524.695c0,4.764-3.863,8.627-8.627,8.627
		s-8.627-3.863-8.627-8.627s3.863-8.627,8.627-8.627S373.658,519.932,373.658,524.695z"/>
	<path id="path3261" fill="none" stroke="#000000" stroke-width="1.9426" d="M556.078,198.263
		c-10.262,2.696-8.291,10.372-4.336,19.946l15.783,34.517c4.857,10.62,5.232,18.333-3.99,24.629"/>
	<path id="path2421" fill="#FF00FF" stroke="#000000" stroke-width="1.9426" d="M649.219,484.105l-13.061-31.82 M618.449,456.311
		l11.344,26.756c0.729,1.719,1.48,3.428,2.254,5.125"/>
	<path id="path3201" fill="#7F8180" d="M677.535,481.51l4.875-1.012l2.496,16.166l-3.354,0.607L677.535,481.51z"/>
	<path id="path3203" fill="#7F8180" d="M654.857,415.854l3.988-0.629l5.441,16.022l-3.078,0.498l-6.938-14.721L654.857,415.854z"/>
	<path id="path3205" d="M372.764,522.764c0,3.777-3.5,6.84-7.818,6.84c-4.32,0-7.82-3.062-7.82-6.84c0-3.779,3.5-6.842,7.82-6.842
		C369.264,515.922,372.764,518.984,372.764,522.764z"/>
	<path id="path3207" d="M236.412,536.141c-3.328,5.197,9.094,11.969,11.274,9.02C248.319,539.434,243.896,533.207,236.412,536.141z"
		/>
	<path id="path3209" d="M315.418,479.598v12.141l-7.719-1.215L315.418,479.598z"/>
	<path id="path3211" d="M489.518,453.916c-4.502,2.082-7.471,5.236-7.359,10.547l-4.66-11.283L489.518,453.916z"/>
	<path id="path3213" d="M522.729,522.135c-4.502,2.082-8.426,6.189-8.314,11.5l-4.66-11.283L522.729,522.135z"/>
</g>
</svg>
