<?xml version="1.0" encoding="utf-8"?>
<!-- Generator: Adobe Illustrator 16.0.4, SVG Export Plug-In . SVG Version: 6.00 Build 0)  -->
<!DOCTYPE svg PUBLIC "-//W3C//DTD SVG 1.1//EN" "http://www.w3.org/Graphics/SVG/1.1/DTD/svg11.dtd">
<svg version="1.1" id="Layer_1" xmlns="http://www.w3.org/2000/svg" xmlns:xlink="http://www.w3.org/1999/xlink" x="0px" y="0px" viewBox="0 0 302 197.5" enable-background="new 0 0 302 197.5" xml:space="preserve">
<g>
	<ellipse fill="#F2C800" cx="151" cy="98.75" rx="151" ry="98.75"/>
	<ellipse fill="#313F36" cx="151" cy="98.75" rx="145.25" ry="94.75"/>
	<path fill="#FFFFFF" d="M216.5,116h-88V94h149.9c0,1.3,0.1,2.3,0.1,3.6c-0.1,49.4-62,82.4-125,82.4c-82.3,0-130.6-43-130.6-81.1
		c0-45.2,64.5-80.3,131.6-80.1c58.7,0,99.8,24.7,117.7,54.4h-57.5c-11.9-20.75-29.4-29.75-63.75-29.75
		c-44.25,0-76.25,25.917-76.25,52.75c0,29.8,22.9,50,72.5,50C193,146.2,211.3,135.7,216.5,116z"/>
</g>
</svg>
