<?xml version="1.0" encoding="utf-8"?>
<!-- Generator: Adobe Illustrator 16.0.4, SVG Export Plug-In . SVG Version: 6.00 Build 0)  -->
<!DOCTYPE svg PUBLIC "-//W3C//DTD SVG 1.1//EN" "http://www.w3.org/Graphics/SVG/1.1/DTD/svg11.dtd">
<svg version="1.1" id="Layer_1" xmlns="http://www.w3.org/2000/svg" xmlns:xlink="http://www.w3.org/1999/xlink" x="0px" y="0px" viewBox="0 0 508.104 696.394" enable-background="new 0 0 508.104 696.394"
	 xml:space="preserve">
<g>
	<path d="M228.198,190.587l-6.27,8.151c0,0-65.515,12.225-97.803-38.871c0,0-15.36-21.003-14.105-63.635
		c0,0,1.88-44.512-4.39-65.516c0,0-4.388-17.554-14.733-28.526c0,0-3.918-3.604-6.27-1.567c0,0-1.41,2.665,1.567,6.427
		c0,0,8.935,14.419,8.464,38.871c0,0-0.627,21.369-4.598,34.952c0,0-6.27,21.943-6.687,28.422c0,0-3.971,29.674,2.925,56.215
		c0,0,12.435,52.349,57.889,86.832c0,0,26.644,23.197,49.841,27.272c0,0-6.27,39.497-2.194,55.171c0,0-83.382,26.75-153.182,112.432
		c0,0-34.69,38.87-38.453,42.632c0,0-1.253,3.761,2.508,2.926c0,0,96.131-72.724,184.739-38.452c0,0,72.726,23.407,93.207,115.358
		c0,0,11.701,29.257-2.927,109.505c0,0-4.179,14.63,1.673,16.719c0,0,16.3,7.942,33.855-40.124c0,0,4.18-0.419,5.015-15.883
		c0,0,14.211-10.867,10.031-38.453c0,0,7.941-13.374,2.925-36.78c0,0,8.36-25.913,1.254-48.065c0,0,30.094-23.823,50.156-26.331
		c0,0,4.598,45.559-9.195,68.963c0,0-10.867,19.227-19.645,24.242c0,0,17.553,8.359,45.558-34.272c0,0,21.735-41.798,28.422-71.054
		c0,0,68.963-13.377,71.888-14.212c0,0,10.867-1.252,7.941-10.865c0,0-2.923-24.242-18.39-23.824l-5.851,0.835
		c0,0,10.866-27.586,4.597-25.495c0,0,3.342-4.179,11.702-4.179c0,0,5.435-18.81-13.374-32.184l3.345-1.254
		c0,0,4.597-5.016,3.76-13.793c0,0-12.12-1.253-13.374-9.194c0,0-1.674-18.809-5.016-24.242c0,0,21.734-3.344,21.734-37.198
		c0,0-9.195,11.284-22.153,12.539c0,0-39.286-154.229-210.651-163.005c0,0-5.433,18.807-6.27,20.479
		c0,0-38.452-10.449-50.155-70.636c0,0-6.27-44.304-40.542-66.038c0,0-5.433-3.761-6.687-0.626c0,0,0.417,1.88,2.716,3.552
		c0,0,22.989,20.898,24.242,50.364c0,0,1.254,25.495,0.626,40.333C187.864,109.503,184.939,167.391,228.198,190.587z"/>
	<path fill="#FFFFFF" d="M195.006,97.838c0,0,0.439,36.637,8.775,57.04c0,0,8.995,22.814,28.081,17.549
		c0,0,10.31-1.974,11.626-14.479c0,0,0-4.169-4.168-7.458l-4.168-3.291c0,0-22.377-17.111-29.177-50.238
		c0,0,0.219,12.504,3.07,24.132c0,0-4.606-4.169-9.213-29.398c0,0-2.852,14.04,3.291,35.102
		C203.123,126.797,198.296,122.848,195.006,97.838z M289.012,211.068c0,0-32.811-5.851-57.47-4.179c0,0-54.544,4.597-85.892-15.883
		c0,0-39.706-22.361-40.96-93.206c0,0-10.344,50.783,12.539,80.562c0,0-16.613-4.388-18.495-47.334l0.94-40.124
		c0,0-6.27,40.124-3.448,62.381c0,0,3.135,21.003,16.927,39.498c0,0-21.002-12.539-22.569-68.965c0,0-14.733,67.083,62.067,125.389
		c0,0,8.776,1.88,17.868,1.253c0,0,6.583,0,3.135,2.194l-5.016,1.881c0,0-4.702,2.194-1.567,2.821c0,0,5.956,0,11.284-1.567
		c0,0,6.897-2.507,5.016,0.627c0,0-2.194,2.194-4.075,2.821c0,0-4.702,3.135,0.94,2.194c0,0,5.329-1.88,10.031-3.135
		c0,0,3.295-0.826,4.261,0.138c0,0,1.378,2.344-1.93,3.31c0,0-6.755,2.067-2.758,3.032c0,0,2.344,0.551,12.684-2.619
		c0,0,7.583-2.896,8.823-1.103c0,0,2.345,2.619-5.238,4.688c0,0-5.515,1.655-7.17,3.447c0,0-1.654,2.482,0.69,2.482
		c0,0,2.758,1.24,12.684-3.861c0,0,5.376-2.619,8.133-2.619c0,0,2.895-0.69,2.895,0.551c0,0,0.414,3.447-5.514,4.136
		c0,0-9.925,1.931-9.512,4.412c0,0,1.241,2.896,9.099-0.137c0,0,9.926-3.31,13.786-5.791c0,0,3.308-2.344,4.548-1.379
		c0,0,1.517,3.309-4.55,5.239c0,0-10.753,3.309-10.339,6.756c0,0,0.552,5.79,21.369-5.377c0,0,4.824-3.584,7.168-3.171
		c0,0,2.483,1.518-0.688,3.723c0,0-4.414,3.169-8.55,5.1c0,0-4.687,2.206-3.723,3.171c0,0,1.241,3.169,12.27-2.482
		c0,0,7.859-3.722,9.927-4.825c0,0,3.723-1.379,4.136-0.552c0,0,2.758,2.068-4.55,5.79c0,0-8.822,3.724-8.409,6.618
		c0,0-0.138,1.793,5.652-0.827c0,0,8.962-3.585,13.65-6.755c0,0,5.652-2.344,6.617-0.552c0,0,1.24,3.032-3.172,4.825
		c0,0-8.962,3.447-8.134,6.756c0,0,0.827,2.62,8.271-1.655c0,0,7.722-4.825,11.168-4.825c0,0,6.068,0,2.069,2.619
		c0,0-5.379,3.998-9.652,5.515c0,0-2.62,0.276-2.068,2.62c0,0,0.966,1.792,5.516-0.689c0,0,7.72-3.586,11.718-5.654
		c0,0,3.86-1.378,4.137-0.137c0,0,2.068,1.103-3.723,4.273c0,0-8.409,4.826-7.306,6.894c0,0,2.342,2.481,7.582-2.206
		c0,0,4.413-3.583,6.618-2.481c0,0,1.79,1.792-1.518,4.273c0,0-5.516,4.274-4.137,6.066c0,0,0.966,1.104,4.964-1.929
		c0,0,6.481-4.551,7.996-3.31c0,0,1.792,0.828-0.552,3.034c0,0-4.272,3.859-4.135,5.238c0,0,0.672,2.287,4.276-0.713
		c0.044-0.037,0.09-0.075,0.136-0.114c3.722-3.171,4.687-3.585,6.065-3.722c0,0,4.548-0.276,2.066,3.033
		c0,0-2.755,2.756-1.515,3.859c0,0,1.792,0.552,4.687-1.792c0,0,3.31-2.205,5.377-0.965c0,0,1.518,1.516-0.275,3.033
		c0,0-0.414,1.931,1.379,0.689c0,0,23.956-9.609,24.792-48.479C348.361,262.896,349.615,222.354,289.012,211.068z"/>
	<path fill="#FFF200" stroke="#ED1C24" stroke-width="0.25" d="M269.785,138.76c0,0-10.867,35.945-37.826,59.769
		c0,0,65.831-0.627,93.833,17.763c0,0,27.378,16.301,30.095,43.677c0,0,62.693-4.18,95.295,4.18
		C451.182,264.149,422.76,158.822,269.785,138.76z M201.449,298.632l19.853-8.987l-17.554-4.39L201.449,298.632z"/>
	<path fill="#402F83" d="M455.873,269.587c0,0,9.387,23.895,9.387,27.309c0,0-59.314-14.083-107.958,0.426
		c0,0-5.121,35.845-40.111,41.392c0,0-32.429,10.666-59.312-23.043c0,0-27.736,0.854-54.618,15.361c0,0-8.108-10.241-1.707-24.75
		c0,0,19.202-8.533,28.163-11.52c0,0,15.789-8.535,38.404,9.813c0,0,36.27,32.003,68.273,5.548c0,0,18.773-16.642,19.201-42.245
		C355.595,267.879,407.655,261.479,455.873,269.587z"/>
	<path fill="#F6D4B5" d="M455.657,350.099c9.689-3.777,13.958,1.806,13.958,1.806c1.478,2.464-1.971,3.449-1.971,3.449
		c-1.642,0-6.075,0.657-6.075,0.657c-5.584,0.82-3.942,7.389-3.942,7.389c1.149,3.12,7.226,1.314,7.226,1.314
		c3.448-0.985,20.857-2.956,20.857-2.956c1.148-1.149,1.478-6.241,1.478-6.241c-7.205-0.343-10.682-8.6-10.682-8.6
		c-2.11-4.522-3.519-17.888-3.519-17.888c-0.802-10.652-9.346-9.949-9.346-9.949c-7.839,0-8.541,9.046-8.541,9.046l-1.105,0.1
		h-18.089c0,1.91,1.81,2.11,1.81,2.11c4.421,1.105,4.924,3.719,4.924,3.719v10.452c0,12.964-9.812,16.759-9.812,16.759
		c-5.583,2.626-11.495,10.51-11.495,10.51c-5.092,6.405-4.435,19.05-4.435,19.05C423.467,381.793,452.7,368,452.7,368
		C446.787,355.026,455.657,350.099,455.657,350.099z M437.806,349.414c0,0,2.507-10.24,0.209-14.629c0,0-11.913-2.717-15.883-5.643
		c0,0-3.763-3.135,2.089-4.388c0,0,11.494-2.299,21.734-2.299c0,0,5.854,0,3.554-3.135c0,0-10.45-8.359-30.512-1.253
		c0,0-10.03,4.179-12.121,6.269c0,0-2.483,1.826-4.191,0.706c0,0-1.592,0.001-0.531-6.065c0,0,2.062-10.365,2.062-14.782
		c0,0,0.117-2.826-2.239-2.708c0,0-5.064,0.059-6.537,3.475c0,0-13.431,37.87-26.282,46.648c0,0-1.357,1.672,1.568,1.776
		c0,0,15.987,0.836,19.122,30.302c0,0,3.029,25.392,1.985,33.959c0,0-0.418,2.926-1.568,2.926c0,0-1.881-0.104-1.881-3.03
		c0,0-1.462-20.584-3.135-31.974c0,0-2.402-21.733-21.42-27.795c0,0-11.284,9.301-13.689,11.076c0,0-7.941,5.539-9.509,20.794
		c0,0-1.358,10.136-1.567,11.599c0,0-0.625,3.762,0.419,3.865c0,0,2.402,0.313,5.225-2.09c0,0,2.612-1.777,4.18-0.313
		c0,0,1.566,0.941,0.208,6.375c0,0-1.567,4.283,0,17.763c0,0,0.837,27.585,35.214,24.973c0,0,8.146-34.48,27.165-55.378
		C411.473,396.435,403.95,366.132,437.806,349.414z M354.84,449.515c-10.972-8.151-10.972-31.348-10.972-31.348
		c0-5.015-4.074-5.643-4.074-5.643c-3.448-0.312-4.702,4.702-4.702,4.702l-7.837,39.811c12.853,23.511,4.074,54.23,4.074,54.23
		c14.733-14.732,50.783-31.346,50.783-31.346c-0.313-2.822,1.254-22.885,1.254-22.885
		C360.796,457.038,354.84,449.515,354.84,449.515z M436.656,460.172c0,0-4.075,8.778,3.135,8.778c0,0,29.467-2.509,43.259-9.719
		C483.05,459.232,452.957,457.979,436.656,460.172z M500.112,443.396c-3.252-9.466-8.576-10.501-8.576-10.501l-9.022,0.147
		c-6.358-0.147-4.142-5.028-4.142-5.028c0.741-2.957,5.177-13.163,5.177-13.163c2.959-6.951,0.148-7.691,0.148-7.691
		c-0.89-0.443-4.41,0.977-4.41,0.977c-24.763,12.854-39.183,45.767-39.183,45.767c16.013-1.176,57.791,2.36,57.791,2.36
		C504.845,455.966,500.112,443.396,500.112,443.396z"/>
	<path fill="#FFF200" d="M430.695,310.552c0,0,18.35,1.707,25.178,3.414c0,0,17.494,3.84,26.455-4.267c0,0,7.681-6.401,8.107-15.362
		c0,0-8.534,10.669-32.43,7.681c0,0-29.871-4.267-35.418-5.121c0,0-10.24,1.707-11.946,17.922
		C410.642,314.819,419.175,310.125,430.695,310.552z M290.104,501.309c-5.804-5.671-28.229-18.732-28.229-18.732
		c-6.992-3.824-12.005-0.132-12.005-0.132c-2.901,2.374-0.264,9.632-0.264,9.632c4.089,9.894,16.622,19.521,16.622,19.521
		c7.65,5.806,20.446,6.729,20.446,6.729C286.147,514.106,290.104,501.309,290.104,501.309z M266.86,477.309l2.089-22.987
		c-20.062,1.673-41.796-17.973-41.796-17.973C221.72,468.113,266.86,477.309,266.86,477.309z M305.54,540.633
		c-18.865-24.403-30.474-18.602-30.474-18.602c-4.485,1.32-1.186,11.74-1.186,11.74c5.013,15.039,25.854,20.844,25.854,20.844
		C299.735,550.526,305.54,540.633,305.54,540.633z M308.705,534.558c0,0,20.712-27.043,19.393-52.106c0,0-1.055-14.38-2.771-19.261
		c0,0-1.186-4.617-3.429-1.979c0,0-26.123,33.897-29.419,59.889C292.479,521.101,300.79,524.928,308.705,534.558z M116.394,398.524
		c0,0,44.095-36.781,99.265-56.634c0,0,25.287-8.985,33.855-11.285c0,0,6.479-1.463,6.06-4.388c0,0-1.045-4.388-13.374-1.045
		c0,0-70.218,17.137-147.123,76.905c0,0-45.14,38.453-69.382,66.039c0,0-5.851,6.06-4.597,8.149c0,0,2.09,0.627,3.761-1.254
		c0,0,14.211-9.613,24.033-14.629c0,0,7.732-3.135,10.031-4.389c0,0,5.852-2.508,10.659-9.196
		C69.582,446.797,92.988,418.167,116.394,398.524z M239.177,476.494c-26.378-14.961-19.292-46.062-19.292-46.062
		c-1.377-3.348-4.133-5.513-4.133-5.513c-4.134,9.252-26.772,23.229-26.772,23.229c29.528,9.056,48.032,31.3,48.032,31.3
		c2.559,3.346,4.134,1.379,4.134,1.379C242.13,477.675,239.177,476.494,239.177,476.494z M215.868,358.191
		c0,0,25.913-16.093,39.08-21.526c0,0,6.479-2.298,6.688-4.388c0,0-0.418-2.926-11.704,0.627c0,0-68.337,20.271-115.147,57.262
		c0,0-40.751,30.928-53.499,48.482c0,0-3.553,4.39-4.18,5.434c0,0-3.344,3.971-0.209,4.389c0,0,3.552-0.21,7.315-2.299
		c0,0,12.121-5.016,21.525-4.598c0,0,21.315,1.254,31.765-6.061c0,0,13.584-11.075,18.182-20.062
		C155.682,415.452,181.595,380.343,215.868,358.191z M297.229,589.728c-4.485-3.825-5.671,3.167-5.671,3.167l-0.133,10.156
		c0.66,6.992,14.907,16.622,14.907,16.622c1.716-0.791,7.255-9.103,7.255-9.103C308.971,599.754,297.229,589.728,297.229,589.728z
		 M213.389,419.603c-0.197-5.905-3.938-11.024-3.938-11.024c-13.583,19.686-35.827,32.679-35.827,32.679
		c-4.528,3.347,4.332,2.953,4.332,2.953C196.263,441.847,213.389,419.603,213.389,419.603z M313.455,572.958
		c0,0-13.589-15.302-23.086-16.226c0,0-4.484-0.66-3.957,5.013c0,0-0.265,10.159,2.507,12.533c0,0,9.763,11.212,15.829,13.454
		c0,0,2.638,1.846,4.617-1.187l3.826-5.805C313.191,580.742,316.356,575.596,313.455,572.958z M325.327,523.222
		c0,0-17.412,24.405-20.579,34.43c0,0,9.103,7.52,12.665,13.192c0,0,13.321-15.831,12.004-39.312
		C329.417,531.533,329.152,518.869,325.327,523.222z M337.332,376.652c-1.055-0.527-3.033,1.187-3.033,1.187l-6.417,5.43
		c-9.613,7.523-33.019,33.02-33.019,33.02c-23.406,30.929-22.987,63.529-22.987,63.529c5.909,1.594,21.265,15.029,21.265,15.029
		c1.318-7.651,10.685-18.732,10.685-18.732c3.957-5.542,12.665-18.468,12.665-18.468c10.026-18.336,11.344-45.509,11.344-45.509
		c0.131-6.068-1.582-8.442-1.582-8.442c-1.847-2.11-0.265-5.013-0.265-5.013c1.584-0.66,2.901,1.979,2.901,1.979
		c0.792,2.771,2.244,2.507,2.244,2.507c1.188,0,1.318-3.299,1.318-3.299c0.528-5.408,3.826-16.488,3.826-16.488
		C338.519,377.576,337.332,376.652,337.332,376.652z M391.829,302.184c0,0-25.911,1.253-30.51,2.507c0,0-7.105,33.438-40.124,40.542
		c0,0-23.824,6.688-42.633-3.343c0,0-12.121-8.777-25.078-0.836c0,0-43.885,21.315-79.413,60.604c0,0-24.659,28.003-26.75,30.929
		c0,0-5.432,7.523,4.599,7.523c0,0,14.21,2.927,31.765-14.21c0,0,22.151-20.48,28.838-33.02c0,0,0.002,49.319,58.097,54.752
		c0,0,7.524-29.257,33.855-54.752c0,0,22.569-20.063,35.944-29.257c0,0,28.84-19.646,40.124-37.617
		C380.545,326.007,390.993,309.288,391.829,302.184z M473.64,369.126c0,0-19.45,1.055-35.581,12.362
		c0,0-28.193,17.942-37.691,44.778c0,0-12.062,30.605-11.609,55.18c0,0-0.603,28.192-0.302,30.001c0,0-0.224,2.025,0.912,2.152
		c0,0,1.011,0.504,1.264-4.229c0,0,2.764-24.537,8.303-40.211c0,0,5.017-18.704,12.854-30.511c0,0,2.089-3.344,3.97-3.344
		c0,0,2.312,0.394-0.627,4.075c0,0-10.24,14.211-13.793,33.438c0,0-4.805,21.837-5.851,33.331c0,0-4.598,27.17-10.24,39.603
		l-3.135,7.523c0,0-1.16,2.498-0.187,3.03c0,0,1.02,0.752,2.7-1.771c0,0,7.726-15.054,11.696-29.682c0,0,5.119-18.077,7.314-25.077
		c0,0,2.822-10.136,4.181-14.524c0,0,4.284-13.479,7.21-18.182c0,0,2.819-5.119,4.597-4.492c0,0,1.462,1.464-1.673,5.539
		c0,0-4.179,6.685-8.463,22.464c0,0-7.001,28.213-8.986,33.542c0,0-3.865,13.061-13.061,30.72c0,0-6.061,11.285-12.853,18.809
		c0,0,9.195-4.809,20.166-25.914c0,0,9.403-20.168,12.644-29.78c0,0,6.479-17.345,10.136-28.629c0,0,7.419-23.617,11.599-31.454
		c0,0,16.717-34.69,39.078-50.154c0,0,16.642-12.598,28.645-12.359C496.855,395.36,495.199,367.467,473.64,369.126z
		 M325.195,572.038c-3.166,6.465-14.379,21.37-14.379,21.37c2.901,2.24,7.256,11.479,7.256,11.479
		c11.873-8.706,9.497-32.189,9.497-32.189C327.042,569.663,325.195,572.038,325.195,572.038z M293.141,650.694
		c-3.562-2.901-5.541,3.168-5.541,3.168c-0.396,1.978,1.056,3.429,1.056,3.429l1.846,1.055c6.465,4.748,8.312,11.609,8.312,11.609
		c0.263,2.243,1.451,1.582,1.451,1.582c3.166-0.527,1.583-5.408,1.583-5.408C300.396,659.004,293.141,650.694,293.141,650.694z
		 M285.225,673.52c-3.297,1.979-4.749,11.081-4.749,11.081c-1.451,6.464,1.583,8.442,1.583,8.442
		c5.408,0.264,10.95-9.498,10.95-9.498C292.744,679.455,285.225,673.52,285.225,673.52z M285.225,665.34
		c-0.79,3.692,2.242,4.749,2.242,4.749c5.41,3.299,6.992,9.497,6.992,9.497c0.396,1.979,2.507,0.924,2.507,0.924
		c2.639-4.091-5.014-14.643-5.014-14.643C286.808,659.667,285.225,665.34,285.225,665.34z M294.986,635.653
		c-4.881-2.242-5.673,3.165-5.673,3.165c-0.264,3.956,1.716,5.146,1.716,5.146c7.783,5.804,11.607,14.379,11.607,14.379
		c1.715,4.354,3.958,3.43,3.958,3.43c2.242-0.527,0.528-6.068,0.528-6.068C303.693,641.985,294.986,635.653,294.986,635.653z
		 M297.756,619.291c0,0-3.297-2.769-4.352-0.263c0,0-1.188,3.43-0.527,7.255c0,0,0.66,1.583,2.242,3.035
		c0,0,12.398,10.028,12.928,17.675c0,0,0.395,3.562,1.846,3.694c0,0,2.771,0.793,2.771-5.276
		C312.664,645.411,311.871,632.219,297.756,619.291z M323.744,607.673c0,0-12.138,12.399-14.379,16.226c0,0,5.673,8.31,6.201,11.871
		c0,0,9.894-9.497,10.156-26.646C325.723,609.124,326.118,605.299,323.744,607.673z"/>
</g>
</svg>
