<?xml version="1.0" encoding="utf-8"?>
<!-- Generator: Adobe Illustrator 16.0.4, SVG Export Plug-In . SVG Version: 6.00 Build 0)  -->
<!DOCTYPE svg PUBLIC "-//W3C//DTD SVG 1.1//EN" "http://www.w3.org/Graphics/SVG/1.1/DTD/svg11.dtd">
<svg version="1.1" id="svg2532" xmlns:svg="http://www.w3.org/2000/svg"
	 xmlns="http://www.w3.org/2000/svg" xmlns:xlink="http://www.w3.org/1999/xlink" x="0px" y="0px" viewBox="8.286 10.95 178.942 236.468" enable-background="new 8.286 10.95 178.942 236.468"
	 xml:space="preserve">
<g id="layer1" transform="translate(-265.04355,-337.88934)">
	<path id="path2555" fill="#003A73" d="M273.33,527.413l0.44-156.59c30.817,26.82,77.857-0.277,89.251-21.983
		c22.184,39.472,77.194,37.771,88.812,21.543l0.44,161.795c-0.22,35.557-68.329,18.58-89.459,53.129
		C341.371,547.714,274.675,569.127,273.33,527.413z"/>
	<path id="path3359" fill="#FFFFFF" d="M281.164,523.428l0.401-78.459l162.472-0.042l0.401,82.693
		c0.109,32.496-62.346,16.341-81.626,46.729C343.248,541.283,281.463,561.073,281.164,523.428z"/>
	<path id="path3345" fill="#FFFFFF" d="M341.829,436.062c2.09-10.249,5.027-19.368,8.743-27.448l-3.457-1.83l1.22-2.236
		c8.46,1.997,7.826,3.159,10.37,4.676l-1.626,2.847l-4.066-1.83c-5.38,8.458-7.069,17.444-8.743,26.432
		c22.167-1.154,52.754-18.597,38.225-57.134c-3.289,1.487-6.401,3.328-9.149,5.896l2.847,2.643l-2.033,1.83
		c-2.056-2.214-4.347-4.193-8.54-4.27l2.643-1.83l3.457,0.407c1.673-2.033,4.563-4.066,8.946-6.1
		C348.125,377.888,333.026,400.979,341.829,436.062z"/>
	<path id="path3327" fill="#FFFFFF" d="M300.271,410.123l-7.379-5.235l-7.333,5.3l2.698-8.636l-7.306-5.336l9.047-0.103l2.817-8.598
		l2.893,8.572l9.047,0.022l-7.259,5.4L300.271,410.123z"/>
	<path id="path3329" fill="#FFFFFF" d="M331.413,410.123l-7.379-5.235l-7.333,5.3l2.698-8.636l-7.306-5.336l9.047-0.103l2.817-8.598
		l2.893,8.572l9.047,0.022l-7.259,5.4L331.413,410.123z"/>
	<path id="path3333" fill="#FFFFFF" d="M300.271,437.632l-7.379-5.235l-7.333,5.3l2.698-8.636l-7.306-5.336l9.047-0.103l2.817-8.598
		l2.893,8.572l9.047,0.022l-7.259,5.4L300.271,437.632z"/>
	<path id="path3335" fill="#FFFFFF" d="M331.413,437.632l-7.379-5.235l-7.333,5.3l2.698-8.636l-7.306-5.336l9.047-0.103l2.817-8.598
		l2.893,8.572l9.047,0.022l-7.259,5.4L331.413,437.632z"/>
	<path id="path3337" fill="#FFFFFF" d="M409.268,410.123l-7.379-5.235l-7.333,5.3l2.698-8.636l-7.307-5.336l9.047-0.103l2.817-8.598
		l2.893,8.572l9.047,0.022l-7.259,5.4L409.268,410.123z"/>
	<path id="path3339" fill="#FFFFFF" d="M440.41,410.123l-7.379-5.235l-7.333,5.3l2.698-8.636l-7.307-5.336l9.047-0.103l2.817-8.598
		l2.893,8.572l9.047,0.022l-7.259,5.4L440.41,410.123z"/>
	<path id="path3341" fill="#FFFFFF" d="M409.268,437.632l-7.379-5.235l-7.333,5.3l2.698-8.636l-7.307-5.336l9.047-0.103l2.817-8.598
		l2.893,8.572l9.047,0.022l-7.259,5.4L409.268,437.632z"/>
	<path id="path3343" fill="#FFFFFF" d="M440.41,437.632l-7.379-5.235l-7.333,5.3l2.698-8.636l-7.307-5.336l9.047-0.103l2.817-8.598
		l2.893,8.572l9.047,0.022l-7.259,5.4L440.41,437.632z"/>
	<path id="path3347" fill="#003A73" d="M350.775,400.684c4.959,1.557,7.466,3.604,9.76,5.693l2.033-2.846
		c-2.477-2.81-6.505-4.068-10.573-5.287L350.775,400.684z"/>
	<path id="path3349" fill="#003A73" d="M354.842,395.601c4.959,1.557,7.466,3.604,9.76,5.693l2.033-2.846
		c-2.477-2.81-6.505-4.068-10.573-5.287L354.842,395.601z"/>
	<path id="path3351" fill="#003A73" d="M360.332,389.705c4.959,1.557,7.466,3.604,9.76,5.693l2.033-2.846
		c-2.477-2.81-6.505-4.068-10.573-5.287L360.332,389.705z"/>
	<path id="path3353" fill="#DA2127" d="M290.999,452.531l0.203,11.386l6.1,2.643l0.407,54.897l-6.71,2.644v8.54l24.195,6.1
		l-0.203-10.37l-4.676-4.879l-0.204-29.075l16.266,46.764l12.402,3.863l0.61-78.483l4.067-3.253v-10.776h-22.976v10.776l5.286,3.05
		l0.204,35.988l-16.266-50.017L290.999,452.531z"/>
	<path id="path3355" fill="#DA2127" d="M348.132,538.537l0.203,8.743l23.585,8.743v-10.166l-5.083-5.49v-39.241l7.523,0.203
		l3.66,4.677l6.1-0.204l0.203-21.552l-6.913-0.203l-2.846,4.676l-7.523,0.204v-23.382l9.353,0.407l3.457,7.93l9.149-0.204
		l0.204-20.739h-41.681l0.203,10.573l5.287,3.457l0.61,68.926L348.132,538.537z"/>
	<path id="path3357" fill="#DA2127" d="M393.27,452.735v10.979l4.27,2.439l0.61,62.42l-4.88,5.693l0.407,9.353l40.868-11.589
		l-0.407-25.822l-9.963-0.203l-1.423,15.452l-9.963,3.253l0.203-57.947l5.083-4.066l-0.203-10.167L393.27,452.735z"/>
</g>
</svg>
