<?xml version="1.0" encoding="utf-8"?>
<!-- Generator: Adobe Illustrator 16.0.4, SVG Export Plug-In . SVG Version: 6.00 Build 0)  -->
<!DOCTYPE svg PUBLIC "-//W3C//DTD SVG 1.1//EN" "http://www.w3.org/Graphics/SVG/1.1/DTD/svg11.dtd">
<svg version="1.1" id="Layer_1" xmlns="http://www.w3.org/2000/svg" xmlns:xlink="http://www.w3.org/1999/xlink" x="0px" y="0px" viewBox="11.571 82.249 588.857 627.5" enable-background="new 11.571 82.249 588.857 627.5"
	 xml:space="preserve">
<g id="Capa_x0020_1">
	<g id="_163354408">
		<path id="path14" fill="#F1C817" d="M367.718,542.646c128.522,0,232.71-103.052,232.71-230.194
			c0-127.139-104.188-230.203-232.71-230.203c-128.515,0-232.697,103.064-232.697,230.203
			C135.021,439.595,239.203,542.646,367.718,542.646L367.718,542.646z"/>
		<path id="path18" fill="#FFFFFF" d="M367.723,510.522c110.565,0,200.224-88.678,200.224-198.069
			c0-109.394-89.658-198.064-200.224-198.064c-110.571,0-200.209,88.678-200.209,198.064
			C167.505,421.846,257.151,510.522,367.723,510.522z"/>
		<path id="path22" fill="#010101" d="M241.681,293.686c0,0-16.359,39.196-15.655,70.171c0,0,5.091-11.603,6.89-9.62
			c0,0-14.71,48.81-3.564,76.745c0,0,2.373-7.751,6.398-12.455c0,0,6.165-9.618,8.559-17.36c0,0,1.169,3.283,1.875,9.15
			c0,0,5.465-6.801,6.638-11.505c0.923-3.668,3.325-7.73,4.988-12.435l1.888,0.954c0,0,11.159-13.387,15.421-25.597
			c0,0,3.319-0.454,1.668,9.164c0,0,9.252-8.922,9.49-22.77l1.884,2.125c7.827,9.618,7.827,24.407,7.608,33.552
			c-1.896,29.329-17.092,45.047-36.063,62.183l1.675,1.408c28.218-5.15,46.809-8.172,75.439,0
			c10.893,3.129,37.229,15.019,50.028,23.005c0,0,28.464,12.197,48.388,12.197c0,0,0.951,0.461,0.951-0.589
			c0,0-2.142-7.27-0.239-34.615c0,0,2.14-12.656,3.805-21.349c0,0,2.133-5.861,2.373-17.827c0.024-0.987-0.965-8.224,4.022-7.521
			c10.804,1.518,16.838-0.934,25.145-2.342c0,0,8.792-2.571,12.36-2.821c0,0,8.325,1.317,10.895,0.467
			c2.834-0.936,5.925-3.296,9.729-6.803c0,0,4.257-4.467,1.41-14.552c0,0-2.84-9.157-1.191-11.974c0,0,2.512-6.221,6.171-9.868
			c0,0,2.615-4.205-0.943-6.315c0,0-1.89-2.125,1.295-2.943c0,0,2.385,0.229,3.907-0.59c0,0,0.826-0.345,0.95-2.104
			c0.148-1.896,0.964-11.035-5.207-19.021c0,0,1.785,0.481,3.092,0.954c0,0,7.582,0.698,11.508-1.184
			c3.437-1.875,8.416-4.217,7.718-15.493c-1.934-9.375-5.713-15.019-9.517-25.572c-4.494-11.264-5.2-16.9-14.684-24.626
			c-5.698-2.592-8.313-6.809-4.042-11.039c3.316-4.94,2.127-13.841-3.779-19.946c-5.704-5.638-9.969-14.316-12.121-18.783
			c-2.834-4.684-5.928-9.854-8.761-12.906c-2.864-3.521-7.121-5.619-14.69-14.554c0,0-4.541-3.986-5.239-8.197
			c-6.411-9.855-24.207-23.711-44.602-25.118c-5.952-0.71-5.952-0.71-10.215-1.177c-7.102-2.58-29.406-3.296-44.588,0.94
			c-4.905,1.037-14.705,2.811-14.705,2.811c-5.208,1.644-12.562,3.065-20.63,7.98c-5.925,3.046-14.696,10.322-21.34,15.012
			c-7.135,7.053-23.015,17.381-31.792,23.244c-17.078,12.427-31.788,28.86-40.328,39.197c0,0-21.574,26.736-32.247,72.971
			c-0.713,7.041-2.6,13.843-1.436,21.592c0,0,9.508-20.413,18.288-26.768c0,0-1.21,3.769-1.908,9.855c0,0,4.494-8.206,6.384-9.62
			c0,0,3.325-3.519,8.079-9.137c0,0,9.976-12.916,12.809-14.322c-3.668,6.809-4.502,11.264-4.858,18.296
			c1.539-1.396,2.491-2.47,2.968-3.284c0,0,0.925-1.881,1.89-1.415C242.403,292.766,241.681,293.687,241.681,293.686
			L241.681,293.686z"/>
		<path id="path26" fill="#57211B" d="M527.876,314.226c2.477-5.163,2.012-10.212-1.547-16.311c-2.14-3.52-3.55-7.507-5.221-12.429
			c-0.704-2.001-2.127-6.105-3.777-9.618c-0.109-1.421-3.098-7.98-4.994-10.572c-4.76-6.803-8.655-7.392-11.262-10.208
			c0,0.015-0.943-0.064-0.989-0.025c-2.757,1.824-2.803,5.836-5.15,8.889c-0.239,0.332-1.028,0.735-1.572,0.491
			c-0.743-0.376-1.047-1.024-1.908-2.227c-0.782-1.146-1.402-0.326-2.257,0.622c-0.543,0-0.95,0.427-1.378,0.857
			c-0.737,0.76-0.161,1.157,0.428,2.016c0.595,0.882,0,0.882,0.374,1.336c-0.109,0.365-0.213,0.506-0.328,0.673
			c-0.312,0.467-1.074,0.352-1.638,0.248c-1.572-0.248-1.217-0.141-2.619-0.799c-1.721-0.812-2.549-3.046-3.883-3.738
			c-0.395-0.229-1.745-0.473-2.773,0.2c-0.765,0.504-1.101,1.611-0.454,2.202c1.119,1.003,1.992,2.187,3.183,3.077
			c1.616,1.196,3.383,2.08,3.598,3.756c0.284,2.138-2.906,2.912-4.414,1.787c-0.782-0.576-1.699-1.231-2.536-2.106
			c-0.134-0.122-0.265-0.838-0.446-0.966c-0.673-0.506-1.462-1.113-1.836-1.638c-0.673-1.003-1.565-2.067-2.781-2.54
			c-0.292-0.103-0.524-0.506-0.737-0.865c-0.556-0.967,0.045-2.092-0.355-2.989c-0.337-0.729-0.498-1.918-1.539-1.458
			c-0.971,0.946-0.842,0.946-1.929,0.851c-1.392-0.122-0.285-2.656-0.285-2.317c0.025,0.141-0.058-0.051,0.407-0.882
			c-0.95-0.301-2.379-1.063-1.287-2.451c0.938-1.171,1.857,0.549,2.212-0.155c0.122-0.269,0.932-1.741,1.235-1.946
			c1.067-0.613,1.378,0.217,1.528,0.448c-0.461,1.287,0.898,2.138,2.212,1.441c0.128-0.07,0.083-1.057,0.213-1.292
			c1.21-2.086,3.085-3.181,4.993-4.62c0.183-0.134,0.705-0.277,0.777-0.391c0.576-1.134,1.234-2.771,0.024-3.29
			c-1.014-0.421-3.098-0.04-2.664-1.812c0.194-0.83,1.293-1.15,1.914-1.427c2.251-1.043,4.587-2.08,6.929-2.988
			c0.562-0.223,1.526-1.074,2.237-1.125c2.955-0.231,2.264-0.165,5.88,0.46c0.64,0.102,1.875,0.774,2.505,0.985
			c1.914,0.673,4.657,0.454,5.919-1.601c1.254-2.01,0.898-5.413-0.376-7.773c-1.501-2.863-3.811-5.333-5.81-7.297
			c-2.542-2.528-5.847-3.821-6.514-7.29c-0.815-4.242-4.133-9.862-6.016-13.22c-1.979-3.47-3.727-5.781-6.235-8.999
			c-0.589-0.741-4.25-4.434-4.878-5.043c-4.181-4.031-5.983-5.37-10.437-6.956c-2.281-0.805-11.177-0.289-15.809-0.872
			c-1.456-0.19-5.926-0.293-7.142-2.642c-1.091-2.123-2.477-5.163-4.777-6.611c-0.834-0.51-2.103-1.049-2.977-1.491
			c-4.171-2.072-8.487-5.547-12.99-5.368c-1.662,0.058-0.07,1.83,0.355,2.028c2.045,1.062,2.964,2.253,4.089,3.54
			c1.165,1.351,3.695,1.4,5.874,2.29c2.069,0.845,3.783,2.156,5.719,3.162c1.825,0.946,4.269,4.077,2.251,5.363
			c-1.832,1.157-3.759-0.252-6.177,0.349c-0.485,0.13-1.217,0.45-4.025,0.45c-3.738,0.504-5.039-1.274-7.916-3.296
			c-2.879-2.034-4.69-5.153-7.466-7.092c-3.41-2.379-6.857-4.355-10.758-5.714c-0.859-0.299-1.991,0.173-2.756-0.229
			c-1.338-0.744-2.368-2.336-4.062-2.47c-2.886-0.198-2.886-0.436-5.765,0c-0.4,0.083-1.462,1.272-1.812,1.266
			c-1.699-0.064-3.674-0.531-4.533,0.396c-1.313,1.491,0.304,1.326,1.991,2.137c0.95,0.43,2.951,1.506,4.096,1.479
			c4.8-0.089,7.872-0.128,11.631,1.888c0.401,0.231,2.089,1.869,2.18,2.482c-3.565-0.064-9.199-1.458-13.319-1.126
			c6.936-0.555-7.077,0.186-10.13,0.07c-0.919-0.031-0.919,1.824,0.51,2.854c0.376,0.262,2.497-0.122,2.776,0.549
			c1.243-0.651,4.799-0.337,5.828,0.054c1.786,0.625,0.776,0.357,2.335,1.171c0.95,0.498,1.863,1.177,2.977,1.049
			c1.447-0.166,1.538-2.284,2.994-1.607c0.498,0.237,1.611,0.909,1.851,0.896c8.229-0.155,8.416,2.394,12.251,2.335
			c0.996,0,2.473-0.396,3.171,0.077c1.538,1.062,2.988,1.191,5.361,0.244c0,0,5.467,14.545,4.037,41.065
			c-1.423,11.262-2.129,13.387-4.748,22.538c0,0-3.779,14.539-2.373,24.626c1.441,34.031-9.019,62.195-20.384,80.972
			c-4.277,5.157-6.656,7.968-2.375,11.71c9.019,8.224,16.38,10.099,29.163,12.926c4.533,1.402,7.367,1.869,11.624,1.869
			c6.638,0,17.104,2.809,21.833,6.342c4.494,2.354,16.605,6.809,23.947,5.624c6.397,0.475,8.306,0.948,11.412,2.119
			c2.121,0.921,4.275,0.921,6.642,0.229c1.999-1.407,1.062-0.824,3.662-2.702c0.473-1.156,3.913-2.687,3.209-7.389
			c-0.239-3.515-1.664-7.163-2.354-10.438c-2.051-2.899-1.922-5.049-1.21-8.089c2.14-4.236,4.63-6.342,5.944-8.453
			c2.833-3.174,1.191-5.388-2.737-6.464c-1.896-0.812-5.563-0.467-9.365-0.812c-2.018,0-3.683-0.826-6.521-0.244
			c0,0-1.923,1.293-2.964,2.245l-1.443-0.83c0,0,1.326-3.757,4.023-5.983c2.73,0.467,6.729,0.781,8.798,0.244
			c2.451-1.107,5.279-1.562,7.349-2.363c3.57-0.339,5.233-0.113,9.495,0.13c0,0,2.13-9.153-5.336-16.083
			c-1.778-1.627-3.229-3.75-5.795-3.86c-9.059,1.062-14.013-2.577-15.455-3.525c-2.232-0.116-2.93,0.831-4.141,2.245
			c-3.098,5.145-6.76,6.913-6.76,6.913l-1.896-0.238c0,0,1.662-2.809,5.44-7.511c1.695-3.757,4.043-8.443,6.177-10.797
			c1.295-2.226,1.669-7.27,4.859-8.676c1.553,0,1.805-0.359,2.955,0.351c-2.34,2.22-8.998,10.2-2.103,15.122
			c2.836,2.356,7.117,2.356,8.164-0.116c0.519-1.351,1.663-2.22,2.258-2.701c3.564-0.704,6.534,1.057,7.705,2.003
			c2.846,3.29,4.515,4.806,5.919,5.504c1.56,1.185,4.418,0.936,5.822,0.936C524.557,318.462,527.042,315.864,527.876,314.226
			L527.876,314.226z"/>
		<path id="path30" fill="#57211B" d="M478.306,259.181c1.43,0.717,2.012,0.494,4.924,0.903c0,0,2.549,0.405,4.852-1.586
			c0.376-0.32,2.309-1.287,2.245-2.061c-0.248-3.571,0.303,2.323-0.409-3.046c-0.161-1.138-0.104-2.174-0.57-3.385
			c-0.213-0.628-1.217-1.722-2.69-1.216c-0.271,0.103-2.619,1.997-2.665,2.086c-1.295,2.458-3.312,2.747-4.211,4.409
			c-0.776,1.448-1.241,1.811-1.669,2.726C477.948,258.434,477.736,258.875,478.306,259.181z"/>
		<path id="path34" fill="#0C130F" d="M500.135,294.536c4.071-1.318,6.043,0.558,10.539,3.589c0.783,0.524,1.43,1.902,0.298,2.65
			c-0.376,0.25-1.223,0.207-1.481-0.037c-3.94-3.732-5.214-3.763-9.522-4.525C499.755,296.194,499.082,294.876,500.135,294.536z"/>
		<path id="path38" fill="#0C130F" d="M475.934,335.807c-0.622,1.838-1.237,3.47-2.032,5.223c-0.81,1.821-0.428,4.077-1.684,5.714
			c-0.55,0.729-2.069,0.448-2.303-0.411c-0.808-3.206-0.407-6.584,1.138-9.523c0.83-1.516,2.879-2.272,4.641-1.694
			c-0.176,0.37,0.368,0.562,0.24,0.946C475.934,335.968,475.934,335.898,475.934,335.807z"/>
		<path id="path42" fill="#0C130F" d="M435.125,314.226c-1.345-0.44-2.069-1.683-1.888-3.052c0.459,0.128,0.076-0.519,0.478-0.479
			c2.827,0.18,5.473,1.305,8.306,1.369c3.229,0.064,6.463-0.537,9.414-1.921c3.659-1.727,6.823-3.577,10.343-5.894
			c1.571-1.03,3.829-1.644,5.776-2.061c3.073-0.69,2.879-2.398,5.163-3.742c3.35-1.927,3.098-3.354,4.973-2.619
			c0.531,0.212-0.543,1.383-1.119,1.908c-1.26,1.119-2.924,2.241-4.068,4.229c-0.258,0.396-2.018,2.257-2.354,2.534
			c-3.844,2.809-4.702,5.254-7.562,8.703c-1.617,1.966-2.14,4.531-3.214,6.809c-0.641,1.344-1.041,2.738-1.875,3.976
			c-0.352,0.51-1.638,0.26-2.078,0.696c-2.366,2.247-4.632,4.403-6.386,7.328c-0.289,0.473-1.286,0.454-1.429,0.198
			c-1.521-2.885-3.635-5.068-7.245-5.169c-0.641-0.027-1.332-1.454-1.295-2.72c0.026-0.281-0.276-0.799-0.622-0.876
			c-0.56-0.091-0.813-0.609-1.402-0.642c-0.613-0.031-1.104-0.973-1.216-1.37c-0.729-2.278-0.465-4.812-0.938-7.206
			C434.958,314.226,435.047,314.226,435.125,314.226L435.125,314.226z"/>
		<path id="path46" fill="#FFFFFF" d="M382.54,379.364c-0.603-2.349-4.426-2.138-7.168-1.861c-4.16,0.44-7.958,1.144-11.993,3.25
			c2.658-3.982,5.932-4.224,12.142-6.586c1.408-0.537,1.067-2.995,0.167-4.434c-1.047-1.65-2.406-1.735-2.937-1.836
			c-5.122-0.985-6.766,0.186-9.481,0.875c-9.395,2.394-18.631,9.414-23.781,16.134c-1.5,1.966-1.002,4.031-0.692,4.461
			c0.958,1.272,2.445,4.818,2.854,4.389c3.811-4.077,8.428-7.832,13.422-6.654c-2.127,0.677-9.613,4.434-11.986,9.868
			c-0.149,0.345,0.962,2.321,2.373,3.378c1.908,3.166,2.614,4.453,3.686,5.044c0.668-0.066,2.065-1.441,2.445-2.024
			c5.236-6.892,10.469-11.115,24.935-12.99c4.15-0.696,6.52-1.881,6.888-5.638c0,0,0.815-1.869-0.835-5.632 M382.54,379.364
			L382.54,379.364L382.54,379.364z"/>
		<path id="path50" fill="#FFFFFF" d="M365.263,401.172c0.246,3.525-0.271,5.114,0.725,7.41c0.978,2.171,2.995,4.05,3.751,6.297
			c0.595,1.708,2.633,3.892,2.633,5.074c0.977,0.924,1.082,1.762,1.082,1.762c1.254,1.645,5.013,3.616,3.687,4.568
			c-1.553,1.19-6.171,0.352-8.953-0.101c-3.583-0.591-1.514,2.629-0.743,2.955c3.635,1.485,11.269,1.991,13.765,3.354
			c1.515,0.826,3.495,2.073,4.135,3.544c0.479,1.101,1.326,2.061,2.069,3.009c2.4,3.199,3.262,4.581,5.75,6.604
			c1.237,1.004,2.666,2.718,2.232,4.261c-0.517,1.805-1.675,2.189-3.416,1.954c-0.549-0.085-2.282-0.598-3.946-1.308
			c-3.311-1.03-4.023-2.239-6.402-1.03c-1.283,0.652,0.595,2.811,2.051,3.591c5.95,3.129,13.144,3.199,18.926,6.521
			c4.942,2.842,7.957,6.303,7.693,13.618c0,0.134,1.784,1.101,1.888,0.939c1.695-2.629,5.977,0.634,8.061,0
			c0.194-0.064,0.245-1.171-0.039-1.625c-0.983-1.491-3.119-1.537-4.018-2.977c-0.958-1.516,0.42-3.147-0.052-4.479
			c-0.497-1.336-2.8,0.993-3.661,0.109c-3.798-3.903-6.274-8.535-11.392-10.788c2.142-5.855,3.072-12.427,2.594-15.488
			c-1.409-1.164-1.999,0.711-2.354,0.942c-1.171,1.106-0.711,3.519-2.076,5.363c-0.239,0.306-2.075-0.058-2.587-0.506
			c-3.493-2.951-6.754-6.445-8.383-10.63c-0.052-0.153-0.752-1.01-0.907-1.217c-2.561-3.559-2.406-8.523,0.57-12.094
			c0.31-0.391,0.801-2.58,0.498-2.829c-0.537-0.415-1.727,0.429-2.212,0.908c-1.626,1.646-3.021,4.928-5.765,4.635
			c-3.106-0.326-4.283-3.425-6.179-5.454c-0.595-1.989-1.721-3.264-1.43-3.525c-2.606-3.751-2.833-6.804-5.252-11.487
			C367.067,401.998,366.318,401.492,365.263,401.172L365.263,401.172z"/>
		<path id="path54" fill="#57211B" d="M383.289,464.537c3.098,1.562-0.467-2.004-0.467-2.004c-1.19-0.819-3.979-5.08-4.521-6.086
			c-1.334-2.284-2.29-4.05-3.085-5.867c-1.165-2.829-3.48-4.826-7.312-8.479c-1.914-1.83-4.878-5.075-6.08-7.441
			c-1.877-3.674-2.942-10.265-7.447-13.35c-3.474-2.394-2.639-5.114-5.634-9.748c-1.15-1.754-3.498-1.971-5.228-3.712
			c-4.339-4.326-1.59-5.995-5.373-9.971c-1.689-1.734-2.406-2.086-3.85-4.748c-1.89-3.41-0.465-7.883-3.668-9.453
			c-2.84-1.406-5.046-1.906-6.975-2.54c-2.994-0.973-7.749-3.391-10.439-5.465c-2.828-2.181-8.623-6.962-14.821-12.28
			c3.784,28.862-1.45,53.506-30.372,79.322C321.626,432.854,345.103,445.293,383.289,464.537L383.289,464.537z"/>
		<path id="path58" fill="#57211B" d="M403.56,427.7c0.161,2.362,0.978,1.933,2.303,5.177c0.661,1.628,2.524,4.474,3.495,5.281
			c5.491,4.556,9.274,11.588,8.895,18.84c0.265,3.537,0.452,3.32,3.957,5.778c0.595,0.436,0.952,0.473,2.821,2.214
			c0.719,0.595,5.834,5.995,6.54,6.578c-0.123-2.124,0.213-5.694,0.168-6.815c-0.318-11.07,1.844-22.508-1.96-32.189
			c-2.84-7.243-9.244-15.396-11.76-22.979l-1.262-4.142c-1.313-5.88-1.443-12.018-1.443-12.018l-7.931-3.75
			c-6.248-2.47-13.279-4.742-19.568-7.038c0,3.29,0.46,5.62-2.018,8.907c1.668,4,3.066,12.807,4.969,14.917
			c4.146,3.86,7.47,6.912,10.206,16.186C401.588,424.854,403.457,426.05,403.56,427.7L403.56,427.7z"/>
		<path id="path62" fill="#FFFFFF" d="M307.152,177.769c0,0-4.736-0.462-15.894,7.98c-12.324,7.505-28.69,18.302-40.568,32.616
			c-8.641,8.556-20.867,21.586-25.37,30.744c0,0-7.362,11.499-12.104,30.27c0,0,1.675,6.105,6.411-1.875
			c8.28-13.951,39.841-60.911,84.911-95.155l2.154-0.122c-22.316,18.994-51.238,44.593-79.359,88.128
			c-1.047,1.611-2.4,4.485-2.53,4.703c-1.26,2.328,1.962,2.687,0.318,2.29c2.569,0.622,3.513-2.906,5.161-3.602
			c1.016-0.442,1.45,2.571,3.067,1.797c5.744-2.751,9.994-8.621,12.35-12.14c0.128,1.006,1.448,3.994,1.448,3.994
			c2.594,0.71,10.675-10.316,14.938-17.83c1.196,1.395-0.285,4.837,1.281,3.367c4.878-4.55,9.229-9.428,11.819-13.88
			c3.027-5.211,6.359-7.553,7.542-16.698c1.896,1.173,1.857,1.671,2.373,2.1c1.192-1.408,1.268-2.887,3.164-4.985
			c2.044-2.292,2.452-4.077,4.955-5.696c0.9-0.589,2.86-4.254,3.261-6.169c0.375-1.817,4.45-7.712,4.748-9.669
			c3.312-6.105,9.019-9.389,13.042-14.079C318.063,180.59,315.211,174.714,307.152,177.769L307.152,177.769z"/>
		<path id="path66" fill="#FFFFFF" d="M265.407,361.039c1.663,1.881,3.073-0.591,3.073-0.591c2.741-4.102,3.332-5.163,5.231-10.673
			c1.191-3.641,2.606-4.934,3.792-20.171c3.325,4.919,3.796,14.302,3.796,14.302l0.952-0.229c0,0,3.092-8.684,8.298-11.501
			c0,0,0.473-5.861,5.688-11.722c-0.698-3.527-1.191-6.349-1.883-11.98c-2.14-9.382-3.331-25.099-1.196-35.894
			c4.263,22.513,6.76,25.815,6.76,25.815l0.952,0.339c1.785-2.687,2.264-7.379,2.755-11.609c2.103-8.914,5.907-7.974,5.907-9.862
			c-1.191-7.27-3.079-18.771-1.902-28.63c2.381,10.795,3.564,10.097,5.207,14.097c2.135,4.916,2.375-1.191,2.375-1.191
			c-0.461-6.328,4.041-12.67-0.24-27.459c-1.65-10.084-6.397-31.677-4.496-36.611c1.192-6.092-0.952-3.988-0.952-3.988
			s-6.177,1.409-15.415,27.23c-13.513,42.941-25.138,88.696-37.72,125.782c3.786-19.479,23.949-88.236,29.893-113.097
			c0,0-0.834-1.772-2.127,0.217c-1.56,1.768-3.094,3.988-3.928,5.512c0.118-0.091-0.71,0.128-1.648,0.607l-2.988,4.447
			c0,0-5.907,8.205-22.163,24.876c-2.743,4.238-3.916,6.169-6.877,12.908c-1.074,2.464,0.589,2.821,2.369,1.415
			c4.378-4.224,4.618-4.224,10.673-8.806c0.266-0.198,5.142-1.939,5.142-2.022c-0.768,0.973-1.799,1.607-2.172,1.982
			c-1.681,1.568-5.789,6.138-6.902,8.078c-2.77,4.715-5.77,10.578-9.735,17.681c-4.975,8.901-8.752,19.225-8.752,19.225
			c-2.613,7.276-1.902,7.98-1.902,7.98c3.552,1.406,1.617,3.187,1.617,3.187c-1.617,2.918-2.328,5.254,0.409,4.205
			c1.792-0.359,2.736-1.255,3.467-2.164c1.402-1.708,2.58-2.885,3.55-4.069c1.592-1.966,1.28-2.561,3.003-4.494
			c2.206-2.532,3.61-4.645,5.874-5.688c-3.928,5.267-4.153,9.023-4.153,9.023l0.958,1.165l0.686,0.473c0,0-4.023,4.928-5.907,16.101
			c-0.919,5.306-0.729,5.964-1.559,8.91c0.4-0.378,2.743,0,4.826-2.101c-0.906,3.265-1.088,4.909-1.088,4.909
			c-0.4,2.693-0.4,2.226-0.4,5.285c0,2.823,0,1.627,0.946,4.916c4.263-1.875,5.207-1.638,9.229-6.322
			c1.908-1.766,3.364-6.055,3.947-5.76c1.055,0.481,0.161,2.866-0.318,3.917c-0.646,1.477-1.229,2.578-1.462,3.641
			c-0.13,0.543-0.673,1.336,0.194,2.074c0.375,0.333,0.109,0.281,1.326,0.25c0.725-0.021,1.398-1.115,1.398-1.115
			s0.382-0.089,0.756-0.9c0.271-0.692,0.815-1.076,1.287-1.408C263.86,361.518,264.572,360.813,265.407,361.039L265.407,361.039z"/>
		<polygon id="path70" fill="#0C130F" points="155.569,216.488 150.596,216.488 166.961,179.64 146.798,195.241 142.166,171.896 
			131.623,203.703 126.511,199.836 118.814,216.949 113.11,216.949 113.11,235.489 147.981,235.489 		"/>
		<polygon id="path74" fill="#0C130F" points="125.933,234.56 144.427,246.758 146.323,241.354 135.408,234.328 		"/>
		<path id="path78" fill="#0C130F" d="M131.137,231.98l9.955,10.091c0,0-7.819,32.612-6.398,50.46
			c14.477,13.841,25.15,27.218,23.488,57.249c0,0,0.946,0.698-5.213-1.171c3.086,3.29,4.023,5.869,6.638,11.495
			c1.184,9.151,1.915,17.367,1.184,25.815c0,0,0.731,20.882,1.429,27.447c2.852,0.94,1.189,8.453,1.429,18.315
			c0,0-0.24,6.099-1.21,10.795c-5.913-4.696-5.446-4.453-7.102-3.986c1.417,4.672,2.367,4.672,5.227,8.433
			c0,27.935,0.95,56.797,2.84,69.473c0.944,9.153,2.606,19.699,3.319,22.995c1.423,4.217,1.423,7.962,5.691,16.888
			c-1.417,0-5.394,0.115-8.067-3.275c3.798,7.025,3.798,5.63,6.171,7.972l3.312,24.409l-3.784,4.209l5.227,3.284
			c0,0-1.191,11.038,0.231,21.117c0.7,4.698,2.136,9.395,5.467,15.96c-6.89,0.25-8.073-5.382-8.073-5.382
			c-1.896-2.126-5.221-6.828-6.171-6.828c-0.473,6.828,3.325,9.407,4.981,13.396c4.833,11.462,5.473,22.531,1.189,43.867
			c-4.748-4.448-4.979-8.452-8.544-10.553c-0.467,12.185-0.946,15.947-3.312,21.33c-4.981,9.624-6.411,14.584-6.642,23.965
			c-8.307-6.828-10.442-16.202-16.134-21.599c-4.038-3.985-12.09-11.505-14.944-16.427c-0.479,5.849,0,7.986-2.373,13.598
			c-1.902-6.514-2.129-8.44-6.644-13.829c-5.925-8.224-19.217-26.52-22.29-45.999c-0.725-3.29-2.615-12.908-4.742-26.054
			c-1.669,4.474-4.502,7.988-7.354,8.693c-1.429,0.717-1.429-1.165-1.429-1.165c1.184-4.238,1.663-8.922,1.184-12.441
			c-0.698-5.178-2.129-16.664-4.742-19.481l-1.2,0.004c0.24,7.736-2.846,11.265-4.742,13.842c-0.231-6.105,0-10.789-1.423-13.842
			c-0.71-2.131-2.367-3.987-2.846-1.881c-1.183,6.104-1.656,7.275-1.656,12.907c-0.473,8.453-0.473,11.283-1.436,18.309
			c-0.466,5.165-2.129,11.493-6.863,17.821c-0.952-5.611-4.51-10.078-4.51-10.078c0,6.803,1.429,16.89-2.84,22.296
			c-5.233,7.032-5.944,10.552-7.6,15.723c-0.719-6.11-2.606-4.229-3.552-7.52c-3.802,15.941-15.673,28.151-19.936,30.96
			c2.846-6.547,5.228-14.072,5.7-18.763c0,0-0.712-17.36-3.333-27.212c-6.487-30.723-9.632-101.674-4.728-128.615
			c11.844-96.677,62.619-185.387,105.313-265.171L131.137,231.98L131.137,231.98z"/>
		<path id="path82" fill="#FFFFFF" d="M136.125,241.594c0,0-7.361,31.212-5.932,53.04c9.969,8.447,20.643,19.948,21.113,43.645
			c-0.826,0.359-0.944,0.122-1.669-0.473c-2.833-3.616-10.427-4.814-16.119-13.953c0.834,5.754,17.569,28.754,18.746,33.201
			c0.225,14.322,2.361,35.088,1.171,39.19c-4.038-1.991-6.146-6.565-5.694-3.757c3.091,7.858,5.694,14.789,9.374,20.535
			c0,0,0.361,20.293-0.364,17.479h-0.948c-3.319-2.354-6.638-5.163-9.122-7.508c-1.553-0.817-1.785-2.809-4.639-5.528
			c-4.256-3.864-6.638-7.148-8.416-7.858c-4.515-3.153-7.594-4.217-10.202-5.029c-0.822,0-2.489-0.237-2.489-0.237
			s8.544,7.156,13.999,15.25c6.526,7.742,9.25,12.313,11.487,16.991c2.505,4.715,6.062,9.4,8.909,13.387
			c0,6.464-0.479,27.92-0.124,31.563l-1.785-1.293c-4.256-2.58-8.889-8.346-12.809-15.845c-2.129,10.808,9.49,23.465,14.827,27.697
			c1.778,20.067,1.778,29.438,5.109,50.555l-0.24,1.646c-4.754-3.278-9.729-8.453-15.661-16.884
			c-0.471,8.205,7.827,19,16.613,29.324c1.152,1.382,0.84,3.187,1.468,4.748c1.041,2.599,2.082,5.816,3.383,7.571
			c1.074,4.568,1.545,10.68,1.305,13.259l-3.556,6.81l4.742,5.638c0.465,6.099-0.706,7.732,0,14.54c0,0-5.448-0.461-7.833-6.578
			c-4.263,11.749,0.485,24.893,4.275,31.695c2.846,7.974,4.502,12.896,4.023,21.58l-0.944,2.571
			c-2.84-5.624-6.871-10.31-10.913-13.362l-1.648-0.454c3.99,24.689,2.613,32.841-4.969,48.585l-1.202-1.178
			c-4.263-8.229-12.323-14.566-18.009-20.415c-0.958-0.229-10.913-12.676-11.638-22.769l-1.177,0.243
			c-0.479,3.52-1.908,11.041-0.952,12.435l-0.95-0.467c-5.688-2.592-16.012-22.519-17.784-34.013c0,0-0.374-2.246-1.189-6.821
			c-0.364-4.454-2.724-18.066-3.209-19.948c-0.828-5.043-2.995-11.414-3.901-14.776c0.124-1.178-0.704-1.528-1.305-0.581
			c-1.308,1.849-2.363,3.629-3.085,2.458c-0.595-1.167-0.112-3.048,0.361-5.626c-0.952,0.696-3.079,0.991-3.325-0.704
			c-2.612-11.499-4.029-25.815-4.029-37.553c1.19-3.04,4.502-8.665,7.121-14.789l-0.231-1.394c-2.854,1.394-7.602,6.099-8.546,8.663
			l-1.191-1.631c-0.944-4.709-1.888-13.854-1.888-23.466c-0.479-1.766,0.225-2.809,0.95-4.229c1.89-4.448,4.038-9.434,5.686-14.316
			c1.429-4.94,9.374-20.165,11.753-23.705l-1.563,1.408c-4.368,1.537-15.643,15.027-17.065,15.967l-1.068,0.109
			c0.589-13.496,4.387-43.523,6.993-61.959c2.615-6.917,23.017-28.03,18.263-24.279c-9.238,3.288-12.323,6.571-14.231,7.513
			l-2.842,0.94c2.833-13.1,8.728-60.45,14.95-73.218c4.496-7.742,9.011-9.853,12.33-18.3l-2.381,1.165
			c-1.657,1.656-9.017,7.051-13.513,13.156l-1.443,0.231c2.135-6.099,2.854-12.664,7.123-21.119
			c1.177-3.536,3.085-4.938,4.517-7.982c3.544-4.467,4.973-6.113,8.298-7.751c1.65-0.692,4.742-1.869,4.742-1.869
			c-9.469,38.431-12.807,69.671-15.661,112.396c-2.846,68.058,2.924,150.405,26.109,201.346
			c-18.515-59.597-25.629-124.367-23.254-190.076c1.894-56.32,10.421-101.379,28.94-177.405l4.029,2.571V241.594z"/>
		<path id="path86" fill="#FFFFFF" d="M123.545,235.729c-5.925,7.986-46.73,84.021-50.76,97.868
			c-36.037,71.564-57.404,142.9-55.981,213.084c0,30.729,3.332,51.854,7.115,74.374c1.669,8.676,4.029,20.413,3.559,27.914
			l1.196-0.698c1.656-3.053,6.159-12.664,7.594-20.638c0.479-3.053,2.136,0,2.136,0c0.692,2.098,2.129,3.046,2.369,5.152
			c0,1.888,0.93,1.656,1.417,0.229c2.606-5.15,3.325-8.218,2.367-13.605c-0.944-4.453-1.65-22.993,0.479-29.802
			c0-1.888,1.656,0,1.656,0c1.196,2.823,3.092,7.986,7.348,12.209c0,0,1.787,1.165,1.902,0c-0.455-4.927-0.938-37.077,6.65-40.608
			c2.84,0.696,3.085,2.59,5.213,4.696c2.387-2.586,3.331-13.612,2.621-22.059c0.231-13.138-1.668-26.289-2.854-34.488
			c-0.996-2.592,0-3.064,1.425-3.537c0.349-0.25,5.692-6.803,5.692-10.31c-4.488,3.046-5.692,3.75-9.962,6.579
			c-0.471-10.104-4.979-26.053-9.955-38.513c5.221,4.715,8.525,10.1,10.194,14.566c1.896-10.324,2.606-16.441,2.846-21.369
			c-2.6-9.151-7.582-29.085-7.115-43.88c3.085,10.801,5.925,22.531,9.017,29.578c1.425-5.178,2.608-14.329,4.502-22.073
			c2.602-1.876,5.694-3.757,6.638-5.38c-0.95-1.659-4.994,1.406-5.692,1.625c0.471-7.27,1.656-21.349-3.319-44.349l0.698-0.705
			c2.135,0.948,4.742,5.166,5.694,9.633c4.275-4.928,7.121-29.329,8.306-38.947c-4.51,0-6.638,4.919-9.729,4.44
			c0.471-3.052,0.71-1.631,1.894-4.44c1.191-3.296,4.044-6.592,5.229-11.041c2.606-3.757,2.606-8.216,2.846-12.433
			c0-3.994-0.473-9.855,2.84-15.021c0.723,2.092,0.246,3.519,1.887,7.974c0,0,6.659-14.316,10.215-17.592
			c4.729-20.421,16.122-43.42,26.807-58.447 M123.545,235.729L123.545,235.729L123.545,235.729z"/>
		<path id="path90" fill="#FFFFFF" d="M125.689,248.632c-7.833,11.045-13.525,28.401-16.377,40.84
			c3.557-1.882,3.796-1.657,7.121-2.815C117.624,280.784,126.978,246.827,125.689,248.632L125.689,248.632z"/>
		<path id="path94" fill="#F1C817" d="M47.224,516.623c0.143,0.68,1.243,0.257,0.659,0.936c1.425,0,2.906,0.275,4.226-0.128
			c0.665-0.191,1.119-1.223,1.235-1.786c0.388-1.964,1.365-4.467-0.421-5.843c-1.563-1.262-1.292-3.244-2.399-4.211
			c-0.51-0.439-1.597-0.741-2.336-1.471c-0.547-0.558-1.543,0.684-1.537,1.241c0.025,1.537,1.055,3.098,1.028,4.748
			C47.646,512.631,46.462,513.336,47.224,516.623L47.224,516.623z"/>
		<path id="path98" fill="#F1C817" d="M30.097,495.057c-0.161-2.72-1.066-6.553,3.027-5.479c1.289,0.326,1.578,2.214,1.611,3.129
			c0.064,2.458,0.634,4.424,1.689,6.58c0.601,1.223-0.415,2.278-1.035,3.147c-1.586,2.325-4.854,3.637-6.716,1.345
			c-1.138-1.388-2.521-3.474-1.493-5.374c0.808-1.491,1.456-2.305,2.677-3.604 M30.097,495.057L30.097,495.057L30.097,495.057z"/>
		<path id="path102" fill="#F1C817" d="M34.207,522.995c-2.154-3.066-1.146-5.919,1.372-7.736c1.59-1.14,3.517-0.372,3.978,0.973
			c0.88,2.823,1.993,5.178,2.873,7.986c0.898,2.86-2.764,5.632-5.337,4.385C35.254,527.673,35.384,524.672,34.207,522.995
			L34.207,522.995z"/>
		<path id="path106" fill="#F1C817" d="M36.41,534.118c-1.028-0.32-1.125,0.558-1.636,1.012c-1.067,0.9-1.074,2.809-2.005,4.056
			c-1.741,2.317-1.216,5.587-0.531,7.797c0.458,1.516,2.749,3.724,4.697,3.557c3.077-0.254,5.355-5.919,3.007-7.262
			c-3.052-1.793-1.979-6.306-3.104-8.748c-0.085-0.18-0.816-0.064-1.295-0.064 M36.41,534.118L36.41,534.118L36.41,534.118z"/>
		<path id="path110" fill="#F1C817" d="M55.989,528.328c-0.791-1.034-0.822-2.437,0.083-3.102c0.829-0.604,2.272-0.314,3.106,0.402
			c0.252,0.211,1.113,0.767,1.365,0.965c2.548,2.003,4.107,4.686,2.728,7.757c-0.374,0.865-1.888,1.677-2.949,0.896
			c-0.822-0.609-1.966-0.646-2.536-1.689C56.875,531.86,57.243,529.941,55.989,528.328L55.989,528.328z"/>
		<path id="path114" fill="#F1C817" d="M27.947,509.359c-0.458-1.497-1.739-0.76-2.451,0.329c-1.675,2.571-2.516,5.068-2.755,8.822
			c0.473,2.101,3.532,2.503,5.027,1.567c3.396-2.104,0.965-10.186,0.801-9.072C28.672,510.283,27.947,509.201,27.947,509.359
			L27.947,509.359z"/>
		<path id="path118" fill="#F1C817" d="M93.923,532.586c-0.692-0.519-1.836,0-1.902,0.845c-0.258,2.406-0.297,6.977,3.403,6.233
			c1.313-0.25,2.187-1.595,1.875-2.956C96.854,534.761,95.398,533.668,93.923,532.586L93.923,532.586z"/>
		<path id="path122" fill="#F1C817" d="M102.79,541.144c-0.898-0.884-2.491-0.741-3.158-0.243c-1.351,1.036-1.856,3.231-1.377,4.89
			c0.531,1.806,1.152,3.73,2.505,5.126c0.866,0.895,2.67,1.932,3.15,1.285c1.104-1.547,2.139-3.623,1.65-5.861
			C105.104,544.349,104.188,542.577,102.79,541.144z"/>
		<path id="path126" fill="#F1C817" d="M136.72,538.33c-0.659,0.058-1.501,0.146-1.766,0.55c-1.326,2.061,0.122,4.454,1.882,5.312
			c1.844,0.934,4.171-2.144,2.8-3.839c-0.865-1.107-2.243-2.062-3.86-2.022 M136.72,538.33L136.72,538.33L136.72,538.33z"/>
		<path id="path130" fill="#F1C817" d="M120.439,559.92c-0.686-0.345-1.76-2.521-1.235-3.974c0.485-1.299,1.985-1.823,3.259-1.606
			c1.47,0.274,2.414,1.299,3.242,2.375c2.173,2.765,2.788,7.084-0.033,9.395c-1.145,0.96-3.209,0.729-4.017-0.622
			c-1.035-1.688-0.272-3.052-1.062-4.863C120.749,560.63,120.258,559.92,120.439,559.92L120.439,559.92z"/>
		<path id="path134" fill="#F1C817" d="M140.142,561.438c-1.933-1.497-1.132-4.504-3.267-5.849c-1.189-0.774-2.773-0.96-3.875-0.046
			c-1.163,0.998-1.156,2.434-1.454,3.931c-0.163,0.83,0.382,1.567,0.75,2.29c1.559,3.154,5.343,3.257,8.3,5.035
			c0.395,0.237,1.163-0.567,1.456-1.074C142.963,564.151,141.488,562.48,140.142,561.438L140.142,561.438z"/>
		<path id="path138" fill="#F1C817" d="M108.752,558.479c-1.003-1.189-2.724-0.799-3.752-0.107
			c-0.355,0.231-0.704,0.852-0.704,1.318c-0.021,3.052-1.049,6.208,0.076,9.1c0.68,1.74,2.245,3.854,4.277,2.963
			c1.45-0.64,2.354-2.381,1.869-4.05C109.611,564.599,110.952,561.104,108.752,558.479L108.752,558.479z"/>
		<path id="path142" fill="#F1C817" d="M162.43,559.411c-0.615-2.138-4.502,0.031-5.9-1.339c-1.223-1.201-2.697-2.277-2.916-4.171
			c-0.991,2.226-0.2,4.537,0.847,6.509c0.595,1.126,1.973,1.727,2.86,2.727c1.014,1.08,1.37,2.571,1.939,3.928
			c0.725,1.772-1.035,2.797-2.142,3.01c-3.468,0.632-3.571-4.296-4.664-6.676c-0.768-1.71-2.982-2.381-4.153-3.957
			c-0.283-0.356-0.795-0.747-1.059-1.195c-0.985-1.734-2.976-2.964-3.844-4.793c-0.155,0.799,0.118,1.594,0.355,2.305
			c1.656,5.184,4.316,9.758,6.606,14.646c0.646,1.356,1.351,2.695,1.745,4.18c0.349,1.267,0.161,2.784-0.582,3.571
			c-0.731,0.812-2.479-0.939-2.833-0.354c-1.262,2.195,0.706,4.814,1.83,6.956c0.803,1.524,2.22,3.042,1.553,4.787
			c-0.128,0.341-0.607,0.802-1.093,0.936c-1.681,0.448-3.156-0.626-4.05-1.562c-3.499-3.622-6.547-7.263-9.32-11.617
			c-1.068-1.662-0.488-3.833-1.669-5.471c-0.679-0.939-1.974-2.462-3.151-1.427c-0.382,0.359-0.841,0.839-0.925,1.363
			c-0.368,2.138-0.808,4.141-2.121,5.723c-0.376,0.448-1.101,1.177-1.25,1.445c-1.792,3.27-2.193,7.041-2.77,10.874
			c-0.141,0.908-0.374,2.053-1.324,2.52c-0.998,0.524-1.669-0.531-2.214-1.21c-1.442-1.752-2.024-3.846-3.02-5.855
			c-0.597-1.254-0.622-2.784-1.423-4.102c-0.033-0.076-0.273-0.031-0.428-0.031c0.136,0.357-0.188,0.678-0.343,0.9
			c-0.952,1.622-2.505,2.369-4.205,3.003c-0.932,0.357-1.993-0.319-2.193-1.121c-1.145-4.556-4.314-7.794-5.601-12.158
			c-1.968,0.013-3.895,0.454-5.182-1.439c-2.833-4.147-2.266-8.794-2.64-13.344c-0.634,0.545-1.404,0.923-1.863,1.665
			c-4.502,7.16-6.231,14.622-8.158,22.729c-0.382,1.626-0.622,2.229-1.14,3.751c-1.059,3.187,0.597,3.641,2.266,1.53
			c2.91-3.711,2.303-0.652,2.6,0.235c0.725,5.422,3.565,10.797,4.729,19.948c0.969,8.907,2.858,17.829,3.804,22.288
			c2.522,14.655,12.336,29.572,18.267,33.271c-0.704-6.099,1.423-8.396,0.952-13.1l1.202-0.236
			c0.219,8.225,6.392,18.782,13.5,24.657c5.692,6.56,8.786,7.962,13.577,14.769c1.425,2.349,2.557,3.425,3.746,5.3
			c2.606-5.3,7.354-14.674,7.354-25.002c0,0,0,1.875,0,0c0-7.929-0.246-16.896-2.373-23.946c4.275,1.894,9.025,8.69,12.582,14.57
			c2.135-4.478,0.946-16.906-2.367-23.005c-3.325-7.514-8.786-17.836-4.99-33.086c2.369,5.383,4.038,5.151,7.835,6.093
			c0.71-5.638-0.248-13.605,0-14.546c-1.443-2.561-4.735-5.65-4.735-5.65l3.546-6.784c1.663-6.803-1.65-12.21-1.301-13.261
			C164.396,565.291,163.18,561.978,162.43,559.411L162.43,559.411z"/>
		<path id="path146" fill="#F1C817" d="M121.412,521.708c-0.519-1.454-1.962-2.527-1.192-3.976c0.215-0.402,0.996-0.299,1.572-0.434
			c1.689-0.448,3.688-0.186,4.8,0.998c0.88,0.936,1.475,2.042,2.206,3.198c0.737,1.198,0.938,2.632,1.423,3.955
			c0.543,1.46-0.058,3.079-1.21,3.77c-1.338,0.801-1.906,1.491-3.873,0.621c-0.737-0.326-1.191-1.894-1.541-2.501
			c-0.455-0.813-0.421-3.11-1.022-3.866C122.025,522.827,121.728,522.597,121.412,521.708L121.412,521.708z"/>
		<path id="path150" fill="#F1C817" d="M120.136,529.638c-0.576-0.545-1.34-0.521-1.935-0.563c-0.29-0.013-1.124,0.052-1.093,0.576
			c0.194,2.84-3.137,4.178-4.147,6.419c-1.016,2.321,1.068,4.522,2.788,6.093c1.377,1.253,3.559,0.402,5.227-0.104
			c2.757-0.818,3.106-4.639,2.466-7.212C122.948,532.907,121.707,531.166,120.136,529.638z"/>
		<polygon id="path154" fill="#FFFFFF" points="151.655,222.366 119.045,222.366 119.045,229.873 148.816,229.875 		"/>
		<polygon id="path158" fill="#FFFFFF" points="147.979,201.363 149.171,206.879 155.342,195.014 		"/>
		<polygon id="path162" fill="#FFFFFF" points="125.452,216.602 128.764,208.513 138.26,216.6 		"/>
		<polygon id="path166" fill="#FFFFFF" points="136.362,207.687 140.753,192.201 143.82,214.017 		"/>
		<path id="path170" fill="#F1C817" d="M17.513,518.853c0.246,2.106,0.207,0.82,1.241,2.58c0.952,1.58,0.419,3.705,1.145,5.522
			c0.609-0.787,1.78-1.146,1.883-2.336c0.898,3.635-1.76,7.129-0.467,10.782c1.45-1.284,3.598-1.579,4.742-3.296
			c-0.097,1.46-0.504,2.856-0.71,4.27c-0.37,2.444,0.626,4.902,0.919,7.455c0.349,3.22,4.391,5.645,3.24,8.807
			c-1.877,5.158-2.873,10.615-1.177,15.479c0.355,1.024,0.88,2.734,2.076,3.284c0.904,0.408,2.276,0.436,3.164,0
			c0.485-0.244,0.898-1.017,0.989-1.741c0.368-2.264-0.646-4.376-0.233-6.541c0.512-2.809,1.01-5.617,2.815-7.87
			c0.367-0.455,1.753-0.308,2.069,0.396c1.189,2.644,0.71,5.799,2.29,8.229c0.543,0.82,2.413,1.402,3.401,0.492
			c2.212-2.041,1.411-5.228,1.696-7.884c0.473-4.403-1.617-6.764-2.206-11.249c-0.549-4.199,0.239-4.82,1.59-6.553
			c1.425,3.934,1.437,8.217,4.308,11.703c0.615,0.737,1.741,0.763,2.22,0.372c2.076-1.772,1.657-5.632,0.143-8.142
			c-2.303-3.806-4.18-9.828-0.027-13.322c-0.264,1.927-0.239,4.109,0.764,5.543c1.377,1.977,3.933,6.034,4.296,9.932
			c0.143,1.388,2.146,1.945,3.383,0.851c0.213-0.198-0.052-1.128,0.595-1.204c1.991-0.274,2.931,2.055,2.833,3.662
			c0.789,0,1.836,0.269,2.237-0.135c1.915-1.939,1.45-6.561,1.572-9.242c0.208-4.952,1.404-3.064,2.226-3.546
			c0,0,0.355,2.363-0.109,9.16c0.71,8.459-0.233,19.491-2.621,22.059c-2.127-2.101-2.367-3.988-5.207-4.698
			c-7.588,3.533-7.111,35.689-6.65,40.604c-0.109,1.178-1.902,0-1.902,0c-4.254-4.217-6.15-9.389-7.348-12.191
			c0,0-1.656-1.888-1.656,0c-2.127,6.804-1.423,25.337-0.477,29.811c0.95,5.38,0.239,8.432-2.369,13.591
			c-0.479,1.421-1.417,1.658-1.417-0.229c-0.24-2.101-1.675-3.034-2.369-5.166c0,0-1.656-3.033-2.133,0
			c-1.438,7.975-5.939,17.604-7.596,20.657l-1.195,0.704c0.473-7.505-1.89-19.236-3.559-27.927
			c-3.784-22.533-7.586-43.645-7.586-74.388c0-13.855,0.762-28.74,0.762-28.74L17.513,518.853L17.513,518.853z"/>
		<path id="path174" fill="#F1C817" d="M115.912,576.217c3.371,10.578,7.633,24.886,10.494,30.28
			c-0.719-6.099-9.019-30.28-8.786-31.906C117.854,572.939,115.912,576.217,115.912,576.217L115.912,576.217z"/>
		<path id="path178" fill="#FFFFFF" d="M377.443,178.859c-0.713-0.787-3.268-0.378-3.714-1.454
			c-0.304-0.729-0.686-1.574-1.138-1.939c-0.776-0.62-1.882,0.231-2.962,0.405c-1.464,0.223-3.021-0.084-4.502-0.57
			c-2.544,2.897-9.329,0.979-12.532,1.21c-0.4,0.019,2.019,1.375,2.445,1.739c2.245,1.902,5.952,1.735,8.688,1.824
			c0.446,0.021,1.339-0.461,1.688-0.5c2.943-0.395,5.874,0.609,8.979,1.134C375.367,180.875,378.42,179.87,377.443,178.859z"/>
		<path id="path182" fill="#FFFFFF" d="M423.559,182.924l-7.039-3.979c-0.425-0.686-0.969-1.516-1.642-2.138
			c-1.586-1.427-2.421-3.129-4.25-4.269c-2.406-1.537-4.405-3.513-7.065-4.474c-0.289-0.097-0.601,0.013-0.919-0.052
			c-0.2-0.045-0.322-0.223-0.271-0.454c-0.219,0-0.531,0.089-0.674-0.031c-0.354-0.411-0.919-0.64-1.26-0.75
			c-1.379-0.448-2.951,0.359-4.167-0.698c-0.687-0.607-1.493-0.97-2.271-1.445c-2.096-1.343-4.502-0.531-6.753-0.18
			c-0.454,0.064-1.119,0.652-1.593,1.063c-0.853,0.735-2.257-0.583-3.389-0.205c-0.989,0.32-2.088,1.464-1.138,2.394
			c1.028,1.01,2.354,1.714,3.75,2.053c4.077,1.019,8.358,0.019,12.208,1.702c1.113,0.481,2.479,1.039,2.931,2.445
			c-0.389,0.076-0.808,0.429-1.145,0.18c-0.952-0.671-1.974-0.659-2.905-0.729c-6.487-0.527-12.958-1.058-19.444-0.161
			c0,1.631,0.652,3.36,2.16,3.564c2.018,0.262,4.178-0.359,6.113-0.205c2.114,0.147,4.372,1.498,6.486,2.681
			c0.285,0.161,0.783,0.147,1.12,0c0.952-0.382,1.78-1.732,2.827-1.253c0.64,0.32,1.319,0.595,1.993,0.71
			c1.488,0.25,2.555-0.019,3.965,0.186c2.995,0.442,5.558,2.424,8.513,1.997c2.233-0.32,3.253,0.409,4.348,1.4
			c-0.646-0.555,4.087,2.778,4.49,1.952C418.713,183.921,423.507,183.647,423.559,182.924L423.559,182.924z"/>
		<path id="path186" fill="#FFFFFF" d="M440.728,181.487c-1.915-1.19-2.13-3.546-3.151-5.287c-0.783-1.33-1.83-2.404-3.073-3.038
			c-5.576-2.86-12.076-7.833-16.223-7.456c-1.308,0.128-1.836,1.524-1.095,2.247c1.43,1.361,3.946,1.83,4.159,4.068
			c5.558,2.747,15.318,4.583,14.859,10.578C436.174,183.184,439.781,181.365,440.728,181.487z"/>
		<path id="path190" fill="#F1C817" d="M119.045,222.368l34.977-0.058c-1.906,3.75-3.046,7.596-3.046,7.596l-31.925-0.037
			l0.002-7.501H119.045L119.045,222.368z"/>
	</g>
</g>
</svg>
