<?xml version="1.0" encoding="utf-8"?>
<!-- Generator: Adobe Illustrator 16.0.4, SVG Export Plug-In . SVG Version: 6.00 Build 0)  -->
<!DOCTYPE svg PUBLIC "-//W3C//DTD SVG 1.1//EN" "http://www.w3.org/Graphics/SVG/1.1/DTD/svg11.dtd">
<svg version="1.1" id="Layer_1" xmlns="http://www.w3.org/2000/svg" xmlns:xlink="http://www.w3.org/1999/xlink" x="0px" y="0px"
	 width="175.748px" height="114.691px" viewBox="0 0 175.748 114.691" enable-background="new 0 0 175.748 114.691"
	 xml:space="preserve">
<g>
	<path fill="#D1D3D4" d="M68.659,107.185h1.011l0.941,2.679h0.025l0.939-2.679h1.01v3.493h-0.662v-2.917h-0.017l-1.017,2.917h-0.535
		l-1.017-2.917h-0.017v2.917h-0.663V107.185L68.659,107.185L68.659,107.185z M66.276,107.745h-1.049v-0.56h2.765v0.56h-1.053v2.934
		h-0.662V107.745L66.276,107.745z"/>
	<path fill="#D1D3D4" d="M20,55.169c-0.17-0.181,0.348-0.913,0.814-1.396c2.58-2.685,5.735-3.989,9.644-3.989l0.466,0.003
		c0.192,0.003,0.429,0.004,0.684,0.004C25.744,53.784,20.488,55.645,20,55.169L20,55.169L20,55.169z M167.337,62.274
		c-8.147-4.196-12.293-10.606-12.466-10.879c-5.947-9.338-12.377-12.473-15.262-13.466c-2.668-6.184-6.328-10.968-9.766-14.312
		c0.846-0.011,1.723,0.039,1.723,0.039c-1.914-1.866-4.649-3.25-5.099-3.471c0.884-2.329,1.454-5.423,1.454-7.349
		c0-1.833-0.341-3.459-1.084-4.49c-0.573-0.803-2.293-3.178-11.565-0.338c-1.259-0.521-3.03-1.116-4.523-1.59
		c-0.632-0.197-1.359-0.289-2.162-0.318c-2.521-2.32-7.992-6.649-16.76-6.041c0.322,0.655,0.79,1.698,0.79,1.698
		c-6.159-0.139-12.822,1.43-20.525,5.904c-10.289,5.977-19.332,17.649-21.653,21.725c-2.455,4.312-5.116,8.472-7.909,12.372
		c-0.532,0.435-1.227,0.994-2.047,1.64c0.25-1.731-0.512-3.534-1.547-4.647c-0.413-0.443-1.779-1.573-2.725-1.666
		c0.396-0.474,0.766-0.959,1.754-1.66c-6.459-1.106-13.505,0.612-19.067,2.891c-9.108,3.733-13.91,9.889-13.91,17.535
		c0.096,5.902,3.454,13.605,13.32,13.798c-0.023,0.183-0.04,0.355-0.054,0.523c-0.943,0.252-2.393,0.453-2.393,0.453
		c-3.355,2.772-4.672,13.13-4.684,13.223c-0.783,7.379-5.579,11.405-6.581,12.1c-0.273,0.845-0.543,3.075-0.393,3.868
		c-2.122,1.652-4.124,2.308-4.205,2.332c0.693,2.122,5.029,3.437,5.662,3.518c0.065,0.189,0.15,0.404,0.252,0.635
		c-0.464,1.994-1.802,3.266-1.804,3.269c0.924,1.337,5.167,1.585,6.228,1.309c0,0-0.285,1.523-0.836,2.107
		c0,0,3.741,0.752,6.232-0.817c0,0,0.108,1.317-0.148,1.725c3.388-0.561,6.213-2.412,7.122-3.576
		c1.586-0.422,2.909-1.087,3.957-1.986c0.136-0.091,0.267-0.196,0.389-0.318c0.002,0,0.004-0.001,0.006-0.003h-0.002
		c0.41-0.405,0.722-0.968,0.822-1.725l0.097-0.801l0.537-5.18c0.273-2.711,0.591-4.688,0.859-6.051
		c1.766,0.19,4.598,0.002,7.327-1.434c0.406-0.519,6.354-8.046,15.09-14.263c-0.054,0.702-0.16,2.11-0.077,3.006
		c-0.196,0.101-0.712,0.329-2.266,0.101c-0.985,1.286-3.461,6.007-3.461,13.584c0,1.137-0.341,4.747-3.86,7.125
		c-0.183,1.081,0.55,3.227,0.549,3.229c0,0-0.493,2.116-1.516,3.22c0,0,1.183,1.369,4.511,1.23c0,0-0.105,2.165-0.614,3.041
		c0,0,2.78,0.782,5.362-0.324c0,0-0.129,1.147-0.504,1.925c0,0,3.843-0.746,6.11-2.705c0.025,0.586,0.041,1.493-0.077,1.741
		c2.68-1.79,5.177-4.213,5.693-6.509c0.073-0.054,1.082-0.811,1.153-0.865c0.389-1.416,1.084-6.26,1.094-10.716
		c0.841,0.059,2.478,0.203,3.879,0.05c4.064-2.892,6.77-5.702,9.305-9.153c3.563,1.415,7.876,0.738,9.776,0.321
		c0.581,0.237,2.156,0.923,2.889,1.247c0.497-0.073,1.399-0.232,1.712-0.294c0,0,1.203,2.263,1.118,4.595
		c0,0,3.51-1.128,4.596-4.046c0.178,0.445,0.247,1.084,0.145,1.455c0,0,3.319-1.185,3.75-5.041c0,0,0.252,0.753,0.265,1.103
		c0,0,2.018-2.071,2.505-5.46c0,0,0.207,0.554,0.207,0.761c2.213-3.113,2.401-6.055,2.401-7.289c0-0.888-0.139-1.698-0.307-2.381
		c0.271-1.049,0.295-2.274,0.295-2.274s-0.464-1.664-0.753-2.265c0.102-0.045,5.626-2.498,10.429-6.966
		c4.251,1.884,10.017,2.102,12.603,2.093c3.884,3.851,9.251,6.305,12.123,7.431c0.123,1.297,0.594,2.442,1.375,3.367
		c0.008,2.043,0.504,4.825,4.38,6.902c0,0-1.072,1.169-1.869,1.521c0,0,4.428,2.075,8.648,0.415c0,0-1.315,0.968-1.593,1.106
		c0,0,5.119,2.075,8.026,0c0,0-0.208,0.761-0.483,1.038c0,0,4.772,1.176,7.262-1.452c0,0-0.205,0.76-0.346,0.968
		c0,0,4.697,0.026,6.293-4.103c2.073-1.655,3.229-3.966,3.232-6.844C175.5,65.538,169.953,63.006,167.337,62.274L167.337,62.274z"/>
	<path d="M173.021,72.35c-0.261-4.906-4.235-6.738-5.781-7.253c-0.329-0.11-0.65-0.208-0.962-0.299
		c-7.822-3.972-12.449-9.966-13.708-11.941c-7.234-11.362-14.967-12.669-14.967-12.669c-3.864-9.668-9.66-15.117-13.688-17.938
		c1.51-0.071,2.511-0.089,2.511-0.089c-1.048-0.254-2.184-0.409-3.365-0.488c-0.198-0.13-0.393-0.253-0.578-0.369
		c2.663-2.968,3.312-9.741,2.141-11.373c-1.243-1.734-9.533,0.988-9.533,0.988c-0.811-0.522-5.165-1.907-5.165-1.907
		c-0.655-0.201-1.502-0.248-2.438-0.194c-2.025-2.044-6.245-5.492-11.935-5.817c0,0,0.483,0.782,0.797,1.735
		c-0.427-0.063-0.88-0.12-1.368-0.167c-7.467-0.76-14.396,1.394-20.414,4.795c-1.097-0.05-1.981,0.091-2.323,0.568
		c-0.183,0.255-0.318,0.634-0.412,1.102c-9.824,6.435-16.799,15.792-19.023,19.699c-2.782,4.884-5.596,9.195-8.261,12.897
		c-4.563,3.744-21.468,17.082-26.761,13.678c-1.057-0.68-0.832-3.47,1.055-5.431c1.886-1.961,5.429-4.828,11.615-4.828
		c2.035,0,6.813,0.423,7.316-3.92c0.225-1.961-1.282-4.376-6.713-4.149c0,0,0.905-0.981,1.284-1.207c0,0-24.892,2.112-24.629,18.18
		c0.033,1.931,0.795,10.331,9.998,10.938c1.209,0.081,2.678,0.084,4.634-0.432c-1.929,3.143-1.317,5.405-1.317,5.405
		c-0.603,0.806-3.824,1.309-3.824,1.309c-1.609,1.707-3.059,8.542-3.317,10.961c-0.928,8.713-6.825,13.328-6.825,13.328
		c-0.258,1.302-0.196,2.42,0.018,3.356c-0.874,1.339-2.46,1.769-2.46,1.769c1.49,0.604,2.562,0.455,3.23,0.197
		c0.26,0.448,0.523,0.794,0.731,1.031c-0.156,0.158-0.316,0.318-0.487,0.489c0,0,0.211,0.998,0.951,2.002
		c-0.625,1.428-1.419,2.169-1.419,2.169c1.48,0.099,2.497-0.274,3.154-0.68c0.618,0.313,1.371,0.523,2.283,0.548
		c0,0,0.118-0.121,0.292-0.335c0.27,0.188,0.597,0.393,0.969,0.579c-0.341,1.299-1.021,1.95-1.021,1.95
		c1.546-0.108,2.472-0.756,3.003-1.33c0.746,0.087,1.546,0.002,2.357-0.38c-0.091,0.893-0.543,1.542-0.543,1.542
		c1.694-0.619,2.522-1.716,2.907-2.458c1.352-0.234,2.99-0.746,4.124-1.855c0,0-0.005,0.457,0.649-6.029
		c0.653-6.484,1.563-9.057,1.563-9.057s3.367,1.608,7.591-0.351c0,0,8.664-11.1,21.004-17.93c-0.828,1.862-1.542,4.487-1.542,8.011
		c0,0.698,0.031,1.435,0.089,2.201c-0.378,0.35-1.872,1.618-3.372,1.557l-0.179-0.008l-0.092,0.156
		c-0.089,0.147-2.154,3.695-2.154,10.637c0,1.51-0.358,5.334-3.664,8.209l-0.114,0.098l0.01,0.148
		c0.002,0.04,0.06,0.655,0.768,1.422c-0.179,1.431-1.017,2.303-1.017,2.303c1.159-0.026,2.08-0.553,2.701-1.06
		c0.041,0.021,0.075,0.042,0.118,0.062c0.014,0.273,0.071,1.653,0.071,1.653l0.05,0.072c0.023,0.029,0.327,0.454,1.219,0.815
		c-0.052,1.149-0.489,1.922-0.489,1.922c1.095-0.082,2.002-0.819,2.591-1.451c0.349,0.033,0.73,0.052,1.152,0.052h0.098
		c0,0,0.945-0.696,1.296-0.953c0.075,1.12-0.308,2.072-0.308,2.072c1.438-0.704,2.198-1.59,2.597-2.26
		c0.262-0.059,0.545-0.134,0.857-0.23l0.107-0.034c0,0,0.481-0.779,0.838-1.359c0.143,0.802,0.071,1.521,0.071,1.521
		c0.961-0.913,1.477-1.968,1.756-2.822c0.266-0.153,0.537-0.328,0.792-0.523l0.092-0.071l0.021-0.116
		c0.044-0.244,0.838-4.803,0.838-9.154c0-1.085-0.063-2.141-0.185-3.128c0.78,0.223,2.595,0.606,5.761,0.552l0.098-0.003
		l0.079-0.059c3.97-3.008,6.384-5.565,9.374-10.016c3.4,3.138,10.739,1.101,10.739,1.101c0.527,0.152,3.093,1.284,3.093,1.284
		c1.204-0.174,2.168-0.422,2.946-0.706c1.082,1.081,1.086,2.434,1.086,2.434c1.019-1.017,1.019-2.363,0.783-3.419
		c0.658-0.505,0.984-1.015,1.142-1.403c0.253-0.135,0.489-0.274,0.703-0.426c1.09,0.756,1.602,2.325,1.602,2.325
		c0.783-1.757,0.408-3.115,0-3.905c0.521-0.729,0.711-1.311,0.711-1.311c-0.008-0.058-0.021-0.112-0.031-0.169
		c0.171-0.142,0.331-0.29,0.483-0.444c1.178,1.099,1.437,2.421,1.437,2.421c1.037-1.98,0.54-3.549,0.022-4.444
		c0.285-0.532,0.428-0.908,0.428-0.908c0.006-0.287-0.02-0.561-0.062-0.822c0.187-0.19,0.355-0.383,0.514-0.574
		c1.179,1.092,1.175,2.428,1.175,2.428c1.049-1.734,0.599-3.798,0.229-4.89c0.406-1.134,0.406-1.95,0.406-1.95
		c-1.355-6.135-9.951-5.737-9.951-5.737c-3.692,2.097-6.902,2.458-8.365,2.5l-1.234-2.216c1.852-0.186,4.197-0.722,7.096-1.906
		c3.906-1.594,10.244-1.261,13.663,2.157c0,0,5.854-2.56,10.724-7.677c4.461,3.104,14.21,2.696,14.21,2.696
		c4.903,5.506,13.799,8.299,13.799,8.299c-0.461,2.298,0.395,3.496,1.36,4.121c-0.161,1.267-0.133,3.05,0.979,4.176
		c0,0,0.032-1.718,1.278-2.434c0.692,2.39,2.351,3.567,4.11,4.113c-0.275,1.288-1.304,2.188-1.304,2.188
		c2.195,0.314,3.791-0.938,4.576-1.755c1.367-0.018,2.366-0.234,2.366-0.234c0.285,0.304,0.57,0.555,0.846,0.765
		c-0.233,1.409-1.09,2.244-1.09,2.244c2.339,0.608,3.658-0.676,4.174-1.363c0.811-0.12,1.324-0.472,1.324-0.472
		c0.353,0.229,0.699,0.404,1.032,0.538c-0.351,0.912-1.064,1.392-1.064,1.392c1.921,0.395,3.107-0.421,3.742-1.123
		c0.907-0.185,1.456-0.59,1.456-0.59c0.146-0.026,0.302-0.112,0.46-0.219c-0.214,0.561-0.428,0.92-0.428,0.92
		c1.348,0.215,2.417-1.372,2.98-2.457C172.048,76.345,173.138,74.543,173.021,72.35L173.021,72.35z"/>
	<path fill="#FDB813" d="M36.671,51.777c0.256,0.25,0.466,0.612,0.507,1.125c-1.544,1.743-2.915,3.161-4.051,4.245
		c-0.067-0.665-0.362-1.488-1.208-2.268C33.374,54.004,34.956,52.979,36.671,51.777L36.671,51.777z"/>
	<path fill="#FDB813" d="M27.943,57.057c0.635,0.572,1.405,1.559,1.451,2.997c-0.627,0.376-1.209,0.752-1.748,1.125
		c-0.058-0.913-0.374-2.133-1.416-3.333C26.774,57.613,27.344,57.35,27.943,57.057L27.943,57.057z"/>
	<path fill="#FDB813" d="M24.281,41.252c1.378-0.415,2.878-0.776,4.516-1.064c0,0-0.755,0.751-0.905,1.055
		c0,0,1.23-0.294,2.691-0.427c-0.558,0.852-1.444,2.57-0.949,4.31c-1.236,0.08-3.128,0.327-5.179,0.984
		C23.719,44.238,24,42.338,24.281,41.252L24.281,41.252z"/>
	<path fill="#FDB813" d="M14.612,46.443c1.546,2.264,3.098,1.813,3.098,1.813c-0.866-0.952-1.036-2.402-1.022-3.464
		c0.978-0.677,2.087-1.325,3.346-1.923c-0.408,2.024,0.522,3.627,1.298,4.56c-1.783,0.968-3.497,2.321-4.827,4.221
		c-0.162,0.234-0.347,0.528-0.528,0.864c-2.26-0.479-3.359-2.287-3.81-3.311C12.803,48.294,13.609,47.359,14.612,46.443
		L14.612,46.443z"/>
	<path fill="#FDB813" d="M10.704,59.522c-0.625-1.414-0.918-3.205-0.608-5.461c0.035-0.254,0.091-0.532,0.164-0.825
		c1.485,2.121,3.491,2.432,4.69,2.395c-0.086,0.923,0.069,1.837,0.655,2.579C13.969,59.724,11.857,59.689,10.704,59.522
		L10.704,59.522z"/>
	<path fill="#FDB813" d="M21.522,63.891c0.098-1.835-1.323-2.964-1.323-2.964c0.243,0.922-0.608,2.376-1.246,3.295
		c-0.612,0.025-1.23,0.012-1.846-0.053c-0.983-0.099-2.389-0.519-3.695-1.414c2.536-0.964,3.749-2.401,4.288-3.291
		c1.073,0.242,2.909,0.312,5.83-0.604c0.618,0.649,1.59,2.037,1.206,4.068C23.736,63.312,22.652,63.653,21.522,63.891L21.522,63.891
		z"/>
	<path fill="#FDB813" d="M100.568,69.802c0,0-1.702-3.67-6.528-3.67c0,0-3.319,2.488-8.901,2.264c0,0-2.562,0.68-3.77,1.659
		c0,0,0.416-0.995,1.159-1.998c-0.662-2.092-2.385-5.466-4.006-8.418c-4.642-0.521-8.393,4.229-8.393,4.229
		c0.994-4.858,4.775-6.604,6.731-7.19c-1.017-1.771-1.752-2.992-1.752-2.992c0.364-0.849,0.616-1.768,0.776-2.724
		c-6.009-3.185-13.12,2.801-13.12,2.801c3.078-6.834,10.209-7.125,13.328-6.897c-0.031-0.663-0.086-1.325-0.161-1.977
		c-0.027,0.018-0.042,0.03-0.042,0.03c-0.016-0.175-0.021-0.35-0.02-0.527c-0.098-0.728-0.213-1.442-0.347-2.126
		c-2.772,1.185-4.869,2.679-4.869,2.679c-0.148-5.211,0.938-9.601,2.148-12.818c-3.136-0.958-7.221,0.317-7.221,0.317
		c3.94-2.237,6.671-2.883,8.367-2.995c1.001-2.071,1.842-3.219,1.842-3.219c-1.616-0.11-4.338,0.215-4.338,0.215
		c0.627-1.626,2.147-3.304,2.95-4.118c-2.291-0.137-3.958-0.166-3.958-0.166c1.309-0.318,2.751-0.481,4.26-0.533
		c-1.717-1.622-2.688-4.78-2.945-7.46c-0.918,0.661-1.847,1.376-2.788,2.148c1.768,2.35,1.234,3.858,1.234,3.858
		c-0.583-1.431-2.006-2.104-2.941-2.402c-0.661,0.586-1.327,1.2-1.997,1.843c4.69,3.022,2.41,7.981,2.41,7.981
		c-0.778-3.645-3.471-4.827-5.142-5.211c-2.489,2.655-5.029,5.733-7.593,9.287c-1.94,5.053-2.385,11.532-2.385,11.532
		c-0.981-2.293-1.032-4.585-0.87-6.201c-0.782,1.301-1.677,2.771-2.668,4.333c-0.239,4.176,1.804,8.579,1.804,8.579
		c-2.64-1.467-3.696-3.517-4.115-5.048c-0.71,1.051-1.453,2.119-2.228,3.185c1.435,7.583,4.908,11.77,4.908,11.77
		c-4.143-2.249-6.28-5.713-7.381-8.507c-1.926,2.422-3.984,4.73-6.121,6.695c0.27,1.898,1.138,3.541,1.596,4.177
		c3.723,5.173,2.453,7.334,2.453,7.334c-0.143-1.565-1.854-3.228-3.806-4.713c-1.929-1.47-2.977-2.887-3.516-4.127
		c-0.304,0.217-0.612,0.426-0.918,0.624c-1.038,0.67-2.422,1.52-3.766,2.623c1.479,0.771,4.201,2.722,3.872,6.516
		c0,0-2.218-4.033-6.617-3.632c-1.363,1.933-2.208,4.364-1.741,7.468c0,0-3.516,1.406-4.322,0.903c0,0-0.907,1.536-1.777,4.396
		c0.639,3.156,3.082,5.862,3.082,5.862c-2.067-0.518-3.234-1.575-3.895-2.613c-0.108,0.542-0.209,1.107-0.3,1.699
		c1.567,2.779,4.723,4.309,4.723,4.309c-2.857,0.787-4.53-0.087-5.462-1.033c-0.926,3.202-2.811,7.801-6.238,10.701
		c0,0-0.36,2.175,0.843,3.708c0.632-0.703,0.915-1.075,0.915-1.075c0.3,1.809-0.703,3.118-0.703,3.118
		c0.803,1.608,2.628,1.791,2.628,1.791c1.207-0.855,2.314-2.916,2.314-2.916c-0.037,1.109-0.325,2.086-0.68,2.888
		c1.388,1.283,3.192,0.833,3.192,0.833c1.059-0.702,1.712-2.614,1.712-2.614c0.181,0.485,0.204,1.168,0.162,1.845
		c1.371-0.256,2.353-0.99,2.353-0.99c0.353-0.655,0.751-3.157,0.851-4.261c0.112-1.23,0.26-2.392,0.429-3.476
		c-5.052-0.296-5.862-5.276-5.862-5.276c2.765,2.66,5.167,2.688,6.386,2.452c0.874-4.076,1.914-6.524,1.914-6.524
		c0.029,0.014,0.058,0.026,0.086,0.042c-2.495-2.538-2.542-5.767-2.542-5.767c2.043,3.658,5.522,5.131,7.819,5.72
		c0.19-0.376,0.387-0.75,0.587-1.12c-3.629-2.213-4.121-6.135-4.121-6.135c1.512,2.121,3.483,3.342,5.321,4.043
		c0.216-0.358,0.434-0.715,0.655-1.063c-1.084-1.163-2.5-3.125-3.132-5.901c-0.377-1.658-1.207-5.658-4.074-6.863
		c0,0,4.193-0.483,7.391,6.788c0.487,1.105,1.132,1.999,2.126,2.583c3.032-4.144,6.411-7.694,9.614-10.616
		c-4.326-4.909-3.136-11.3-3.136-11.3c1.478,4.375,3.844,7.185,5.875,8.913c3.446-2.874,6.48-4.933,8.359-6.125
		c-1.906-5.309-4.519-5.184-4.519-5.184c0.139-10.612,5.439-19.227,5.439-19.227c-0.453,0.074-1.658,0.453-1.658,0.453
		c2.339-7.393,8.07-10.837,8.07-10.837c-3.319,3.043-4.828,7.668-4.828,7.668c0.679-0.302,3.169-0.905,3.169-0.905
		c-1.999,2.596-3.458,5.896-4.513,9.111c1.889-1.389,7.735-5.27,11.651-3.353c0,0-7.928,1.331-13.452,10.36
		c-0.237,1.208-0.406,2.263-0.526,3.083c1.225-1.98,5.046-7.284,10.508-6.526c0,0-6.394,1.034-8.677,9.666
		c0.724,0.764,1.232,1.728,1.531,2.622c0.524,1.574,1.269,3.041,2.15,4.402c0.497-1.207,2.799-5.956,8.267-5.755
		c0,0-5.081,2.405-5.234,9.107c0.408,0.524,0.911,1.174,1.432,1.847c1.246,1.148,2.526,2.155,3.737,3.021
		c0.505-1.444,1.817-3.85,5.077-4.435c0,0-2.613,2.002-2.224,6.301c1.66,0.997,2.909,1.6,3.308,1.786
		c0.279-0.981,0.654-2.051,1.143-3.223c0,0-3.342,11.263,10.206,9.428c0,0,2.164,1.207,2.616,1.81c0,0,2.792,0,3.896-2.41
		c0,0-0.979-2.265-2.764-3.171c0,0,2.599,0.296,4.595,2.627c0.491-0.515,0.949-1.219,1.188-2.175c0,0,0.477-1.883-2.792-4.072
		c0,0,2.445,0.444,4.176,2.337c0.493-0.575,1.038-1.292,1.354-1.96c0,0-0.376-2.338-3.016-3.997c0,0,2.292,0.612,3.938,2.147
		C100.129,71.314,100.513,70.647,100.568,69.802L100.568,69.802z"/>
	<path fill="#FDB813" d="M100.046,10.238c-2.44-1.69-6.903-1.583-6.903-1.583c0.412,0.294,0.775,0.533,1.07,0.951
		c-2.534-0.582-5.555-1.125-7.268-0.594c0,0-4.358,1.385-5.165,1.907c0,0-1.402-0.459-3.134-0.879
		c3.506-1.677,6.727-2.576,9.562-2.941c6.144-0.734,9.688,0.213,11.604,1.168l-0.356-1.215c0,0,2.537,0.92,3.829,2.414
		C102.069,9.73,100.93,10.023,100.046,10.238L100.046,10.238z"/>
	<path fill="#FDB813" d="M168.267,75.284c0.262-2.23-1.314-3.381-1.314-3.381c1.397,1.971-0.287,4.657-0.287,4.657
		c-1.383,0.703-2.848-0.179-2.848-0.179c1.132-3.513-1.486-5.378-1.486-5.378c1.393,2.032,0.113,5.05,0.113,5.05
		c-2.668,0.864-3.536-0.828-3.536-0.828c1.078-3.578-1.752-4.972-1.752-4.972c2.174,2.141,0.202,4.567,0.202,4.567
		c-2.551,0.935-4.752-0.782-4.752-0.782c-1.033-1.47-1.744-3.18-1.744-3.18c-5.328-2.01-3.956-5.229-3.956-5.229
		c-5.664-0.863-11.191-5.129-13.875-7.483c-0.185-1.931-0.137-4.863,1.338-7.199c0,0-3.296,1.415-4.261,5.648
		c-1.224-0.013-2.37-0.111-3.429-0.28c-1.55-7.108,2.982-11.208,2.982-11.208c-4.975,1.152-6.861,6.198-6.891,10.21
		c-1.925-0.689-3.379-1.525-4.322-2.166c1.221-1.806,2.235-3.831,2.875-6.074c0,0-2.524,3.187-6.53,6.428
		c0.546-1.865,0.365-3.163,0.365-3.163c-1.384,2.422-5.741,6.405-6.935,7.472c-0.079,0.04-0.16,0.078-0.238,0.118
		c2.44-2.573,4.822-6.109,5.217-9.945c2.959,0.499,4.665,1.206,4.665,1.206c0.729-2.795-0.021-5.577-0.021-5.577
		c1.789,0.435,3.135,1.302,3.135,1.302c-0.19-1.042-0.85-3.229-0.85-3.229c3.107,1.216,5.953,3.254,5.953,3.254
		c0.636-10.96-4.832-18.609-4.832-18.609c0.779-0.072,1.665-0.018,2.393,0.058c1.274,0.911,2.439,1.917,3.492,2.975
		c0.892,2.177,2.471,6.988,1.512,11.938c0,0,2.152-1.209,2.424-7.169c2.226,3.236,3.591,6.29,4.241,7.926
		c-1.403,0.93-3.389,3.012-3.768,7.452c0,0,2.622-4.292,6.59-5.426c1.569,0.633,3.09,1.472,4.53,2.443
		c-2.156,1.317-6.521,4.935-5.894,12.36c0,0,2.359-8.881,9.867-9.166c0.707,0.666,1.375,1.353,1.992,2.047
		c-1.453,0.53-4.129,2.004-4.993,5.838c0,0,3.447-3.383,6.88-3.512c0.176,0.24,0.347,0.481,0.509,0.72
		c3.729,5.462,7.25,8.021,9.277,9.148c-1.687,0.087-2.514,0.484-2.514,0.484c8.663,1.781,10.958,4.351,11.451,5.6
		C170.893,74.216,168.267,75.284,168.267,75.284L168.267,75.284z"/>
	<path fill="#FFFFFF" d="M131.71,53.161c-1.272-0.022-3.261-0.105-5.336-0.394c-0.052,1.081,0.026,2.264,0.306,3.548
		c1.059,0.169,2.205,0.268,3.429,0.28C130.439,55.133,131.052,54.008,131.71,53.161L131.71,53.161z"/>
	<path fill="#FFFFFF" d="M167.264,67.889c2.037,3.689-12.275,1.184-17.635-4.309c0,0-6.748-2.271-12.243-6.383
		c-0.425,1.002-0.612,1.693-0.612,1.693c-0.062-0.772-0.071-1.501-0.038-2.193c-1.256-0.994-2.426-2.086-3.408-3.273
		c-0.437,1.703-0.419,3.436-0.296,4.721c2.684,2.354,8.211,6.62,13.875,7.483c0,0-1.372,3.22,3.956,5.229c0,0,0.711,1.71,1.744,3.18
		c0,0,2.201,1.717,4.752,0.782c0,0,1.972-2.427-0.202-4.567c0,0,2.83,1.394,1.752,4.972c0,0,0.868,1.692,3.536,0.828
		c0,0,1.279-3.018-0.113-5.05c0,0,2.618,1.865,1.486,5.378c0,0,1.465,0.882,2.848,0.179c0,0,1.685-2.687,0.287-4.657
		c0,0,1.576,1.15,1.314,3.381c0,0,2.626-1.067,0.977-5.232C169.033,69.516,168.49,68.74,167.264,67.889L167.264,67.889z"/>
	<path fill="#FFFFFF" d="M123.174,52.137c-1.252-0.339-2.408-0.786-3.312-1.377c-0.427,0.834-0.9,1.633-1.413,2.392
		c0.943,0.64,2.397,1.477,4.322,2.166C122.777,54.297,122.908,53.209,123.174,52.137L123.174,52.137z"/>
	<path fill="#FFFFFF" d="M82.507,77.953c-5.107,0.004-6.244-2.33-6.475-3.659c0.093,3.185,1.77,7.513,10.564,6.32
		c0,0,2.164,1.207,2.616,1.81c0,0,2.792,0,3.896-2.41c0,0-0.979-2.265-2.764-3.171c0,0,2.599,0.296,4.595,2.627
		c0.491-0.515,0.949-1.219,1.188-2.175c0,0,0.477-1.883-2.792-4.072c0,0,2.445,0.444,4.176,2.337
		c0.493-0.575,1.038-1.292,1.354-1.96c0,0-0.376-2.338-3.016-3.997c0,0,2.292,0.612,3.938,2.147c0.341-0.436,0.725-1.103,0.78-1.947
		c0,0-1.593-3.433-6.064-3.657l-0.464-0.013C94.51,68.292,91.285,74.858,82.507,77.953L82.507,77.953z"/>
	<path fill="#FFFFFF" d="M10.558,97.24c-0.408,0.447-0.839,0.872-1.303,1.264c0,0-0.36,2.175,0.843,3.708
		c0.632-0.703,0.915-1.075,0.915-1.075c0.3,1.809-0.703,3.118-0.703,3.118c0.803,1.608,2.628,1.791,2.628,1.791
		c1.207-0.855,2.314-2.916,2.314-2.916c-0.037,1.109-0.325,2.086-0.68,2.888c1.388,1.283,3.192,0.833,3.192,0.833
		c1.059-0.702,1.712-2.614,1.712-2.614c0.181,0.485,0.204,1.168,0.162,1.845c1.371-0.256,2.353-0.99,2.353-0.99
		c0.254-0.473,0.534-1.912,0.705-3.09C16.405,102.646,12.539,99.759,10.558,97.24L10.558,97.24z"/>
	<path fill="#FFFFFF" d="M45.907,65.008c0.763,0.929,1.541,1.696,2.272,2.32c3.446-2.874,6.48-4.933,8.359-6.125
		c-0.614-1.709-1.302-2.854-1.95-3.623C51.18,60.01,48.315,62.517,45.907,65.008L45.907,65.008z"/>
	<path fill="#FFFFFF" d="M45.439,69.715c-0.678-0.77-1.218-1.573-1.652-2.387c-4.02,4.66-6.521,9.17-8.074,12.93
		c0.038,0.025,0.073,0.052,0.112,0.073C38.857,76.188,42.236,72.637,45.439,69.715L45.439,69.715z"/>
	<path fill="#FDB813" d="M78.216,21.689c1.755,0.11,3.527,0.329,5.221,0.598c0.419-0.5,0.899-0.966,1.413-1.397
		c-1.849-0.478-3.858-0.837-5.329-1.068C79.104,20.41,78.649,21.056,78.216,21.689L78.216,21.689z"/>
	<path fill="#FDB813" d="M121.788,12.016c-2.822,0.26-7.759,2.947-7.759,2.947c-2.073-2.08-4.688-3.207-4.688-3.207
		c-4.147-1.302-10.909,1.491-10.909,1.491s-6.759-2.793-10.906-1.491c0,0-3.155,1.561-5.312,3.902l-0.291-1.562
		c-1.715-0.815-3.828-1.562-5.681-1.732c0,0,2.737,1.617,4.978,5.115c0,0-0.603,0.809-1.388,1.906
		c2.167-0.006,4.268,0.266,6.135,0.646c0.476-0.334,0.961-0.64,1.433-0.917c-1.433-0.411-2.62-1.138-3.028-1.961l-1.322,0.058
		c-0.12,0.053-0.193,0.07-0.17,0.007c0.703-2.074,3.981-3.901,4.935-4.276c2.293-0.897,9.332,1.126,9.332,3.044l-2.227,1.577h7.067
		l-2.224-1.577c0-1.917,7.035-3.941,9.33-3.044c0.955,0.375,4.231,2.202,4.935,4.276c0.021,0.063-0.052,0.046-0.172-0.007
		l-1.322-0.058c-0.416,0.842-1.647,1.583-3.129,1.989c0.414,0.284,0.811,0.602,1.175,0.956c1.946-0.415,4.158-0.719,6.453-0.713
		c-0.785-1.098-1.388-1.906-1.388-1.906c3.07-2.341,4.15-2.254,4.15-2.254c0.247,1.299-0.086,4.171-0.086,4.171
		C122.448,16.619,121.788,12.016,121.788,12.016L121.788,12.016z"/>
	<path fill="#FDB813" d="M111.403,21.054c0.312,0.441,0.565,0.924,0.739,1.452c2.071-0.371,4.305-0.678,6.509-0.816
		c-0.433-0.634-0.885-1.279-1.306-1.867C115.71,20.08,113.407,20.498,111.403,21.054L111.403,21.054z"/>
	<path fill="#FFFFFF" d="M121.788,12.016c0,0,0.66,4.603-2.077,7.381c0,0,0.333-2.872,0.086-4.171c0,0-1.08-0.087-4.15,2.254
		C115.646,17.479,117.474,14.313,121.788,12.016L121.788,12.016z"/>
	<path fill="#FFFFFF" d="M117.127,24.431c1.671-0.3,3.092-0.306,3.092-0.306c-0.254-0.439-0.595-0.977-0.977-1.554
		c-2.414,0.226-4.967,0.569-6.861,1.09c0.113,1.281-0.227,2.778-1.261,4.509c0,0,1.12,1.172,1.244,2.472
		c0,0-5.604,3.025-3.095,8.783c0,0-2.183-0.405-2.818-0.389c0,0-0.052,3.284,0.172,4.39c0.221,1.104,1.673,7.914-3.42,9.245
		c-0.746,0.196-1.184-0.129-1.619-0.26c-0.433-0.129-1.885-0.558-3.151-0.558c-1.265,0-2.716,0.428-3.151,0.558
		c-0.435,0.131-0.87,0.456-1.617,0.26c-5.094-1.331-3.621-9.019-3.402-10.124c-1.495-0.781-5.388,0.259-5.388,0.259
		c0.262-2.942,0.918-5.555,0.918-5.555c-2.953,0.585-4.855,1.12-4.855,1.12c0.722-2.927,1.049-4.23,1.049-4.23
		c-3.498,0.867-4.723,1.991-4.723,1.991c1.488-5.378,4.909-8.505,4.909-8.505c-0.541-1.617-0.216-3.083,0.566-4.367
		c-1.581-0.305-3.384-0.528-5.115-0.688c-0.381,0.576-0.72,1.115-0.974,1.554c0,0,2.191-0.289,3.758,0.306
		c0,0-5.258,4.411-5.788,15.112c0,0,2.029-1.503,4.656-2.001c0,0-1.052,2.823-0.788,3.816c0,0,3.498-1.327,5.404-1.577
		c0,0-1.267,3.435-0.508,5.43c0,0,2.938-1.03,5.171-0.741c0,0-1.299,7.901,2.104,9.186c1.574,0.646,4.116,1.611,7.773,1.611
		c3.658,0,6.465-1.006,7.776-1.611c3.631-1.656,2.116-9.186,2.116-9.186c3.764-0.298,5.806,0.741,5.806,0.741
		c0.759-1.995-0.494-5.43-0.494-5.43c1.447,0.051,4.332,0.78,4.332,0.78c-0.097-0.78-0.659-2.167-0.659-2.167
		c3.141,0.018,5.438,1.308,5.438,1.308C123.066,33.347,117.127,24.431,117.127,24.431L117.127,24.431z"/>
	<path fill="#FFFFFF" d="M110.129,17.047l-1.662,0.764c0.018-0.108-0.004-0.228-0.064-0.35c-0.18-0.344-0.616-0.577-0.979-0.523
		c-0.362,0.057-0.512,0.383-0.335,0.724c0.121,0.239,0.345,0.428,0.604,0.501c0.573,0.261,1.147,0.592,1.713,0.979
		c1.481-0.406,2.713-1.146,3.129-1.989L110.129,17.047L110.129,17.047z"/>
	<path fill="#FFFFFF" d="M93.168,16.786l3.979-0.799c0-1.917-7.039-3.941-9.332-3.044c-0.953,0.375-4.232,2.202-4.935,4.276
		l4.563-2.905L93.168,16.786L93.168,16.786z"/>
	<path fill="#FFFFFF" d="M109.095,12.943c-2.295-0.897-9.33,1.126-9.33,3.044l3.978,0.799l5.725-2.472l4.562,2.905
		C113.326,15.145,110.05,13.318,109.095,12.943L109.095,12.943z"/>
	<path fill="#FFFFFF" d="M89.193,18.154c0.021-0.005,0.043-0.018,0.065-0.026c0.066-0.031,0.13-0.061,0.192-0.09
		c0.154-0.092,0.289-0.22,0.37-0.375c0.176-0.341,0.027-0.667-0.335-0.724c-0.364-0.054-0.799,0.179-0.977,0.523
		c-0.064,0.122-0.084,0.243-0.068,0.35l-1.664-0.764l-2.404,0.107c0.408,0.823,1.596,1.55,3.028,1.961
		c0.639-0.375,1.257-0.696,1.798-0.958L89.193,18.154L89.193,18.154z"/>
	<path fill="#FFFFFF" d="M91.153,19.688c-0.729,0.285-1.558,0.623-2.3,1.048c2.668,0.767,4.402,1.574,4.402,1.574L88.2,21.819
		l-0.549-0.035c-0.041-0.016-0.083-0.033-0.125-0.049c-0.327,0.346-0.576,0.735-0.703,1.177c4.328,0.897,7.536,1.93,7.536,1.93
		l-7.255,0.188c0.32,0.672,0.863,1.423,1.696,2.27l7.64-1.394l1.07-2.451C96.31,21.793,91.153,19.688,91.153,19.688L91.153,19.688z"
		/>
	<path fill="#FFFFFF" d="M102.509,24.842c0,0,3.284-1.058,7.691-1.963c-0.135-0.449-0.396-0.843-0.741-1.192
		c-0.081,0.031-0.164,0.064-0.243,0.097l-0.549,0.035l-5.054,0.491c0,0,1.785-0.83,4.516-1.605c-0.73-0.411-1.535-0.739-2.247-1.018
		c0,0-5.156,2.105-6.359,3.768l1.068,2.451l7.64,1.394c0.832-0.845,1.375-1.595,1.696-2.266L102.509,24.842L102.509,24.842z"/>
	<path fill="#FFFFFF" d="M104.215,27.953c0,0,2.291,4.437,0.171,8.008c0,0,3.375-1.41,3.14-7.066
		C107.525,28.894,105.91,27.624,104.215,27.953L104.215,27.953z"/>
	<path fill="#FFFFFF" d="M92.651,27.953c0,0-2.287,4.437-0.169,8.008c0,0-3.377-1.41-3.143-7.066
		C89.34,28.894,90.955,27.624,92.651,27.953L92.651,27.953z"/>
	<path fill="#FFFFFF" d="M98.433,48.102l0.739,0.65l0.945-0.65l0.982,0.65c0,0,2.511-1.512,3.494-4.278c0,0,1.124,3.057-1.748,5.758
		l-1.783-0.489c0,0-1.005,0.489-2.63,0.489s-2.628-0.489-2.628-0.489l-1.782,0.489c-2.872-2.701-1.748-5.758-1.748-5.758
		c0.983,2.766,3.494,4.278,3.494,4.278l0.981-0.65l0.947,0.65L98.433,48.102L98.433,48.102z"/>
	<polygon fill="#FFFFFF" points="102.844,18.958 98.433,20.206 94.026,18.958 102.844,18.958 	"/>
	<path d="M119.533,35.377c0,0-1.938-6.803-5.658-9.797c1.137,2.242,1.639,6.159,1.538,6.794c0,0-0.922-0.11-2.718,0.118
		c0,0,0.72,2.161,0.635,3.069c0,0-2.23-0.231-3.021,0.1c0,0,1.919,3.552,2.093,6.912c0,0,0.226-4.026-0.079-5.187
		c1.4-0.084,3.76,0.374,3.76,0.374c0-0.79-0.531-2.715-0.531-2.715C116.804,35.036,118.484,35.128,119.533,35.377L119.533,35.377z"
		/>
	<path fill="#FFFFFF" d="M94.417,27.626l1.669,0.91h4.697l1.668-0.91c0,0,1.205,1.041-0.279,2.473l-1.298-0.555l-0.801,0.486
		l-0.836-0.486l-0.805,0.486l-0.801-0.486l-0.835,0.486l-0.806-0.486l-1.295,0.555C93.212,28.667,94.417,27.626,94.417,27.626
		L94.417,27.626z"/>
	<path fill="#B0101A" d="M95.353,38.861c1.617-2.676-0.424-6.736-0.424-6.736c3.177-1.186,3.481,4.045,3.504,5.541
		c0.025-1.496,0.329-6.727,3.508-5.541c0,0-2.042,4.06-0.423,6.736c1.546,2.558,0.223,6.617-0.729,6.921
		c-0.546,0.183-1.076,0.227-2.356,0.227c-1.278,0-1.808-0.044-2.354-0.227C95.127,45.478,93.805,41.418,95.353,38.861L95.353,38.861
		z"/>
	<polygon points="95.095,14.853 93.104,15.847 89.932,13.544 95.095,14.853 	"/>
	<polygon points="101.815,14.853 103.807,15.847 106.979,13.544 101.815,14.853 	"/>
</g>
</svg>
