<?xml version="1.0" encoding="utf-8"?>
<!-- Generator: Adobe Illustrator 16.0.4, SVG Export Plug-In . SVG Version: 6.00 Build 0)  -->
<!DOCTYPE svg PUBLIC "-//W3C//DTD SVG 1.1//EN" "http://www.w3.org/Graphics/SVG/1.1/DTD/svg11.dtd">
<svg version="1.1" id="Layer_1" xmlns="http://www.w3.org/2000/svg" xmlns:xlink="http://www.w3.org/1999/xlink" x="0px" y="0px"
	 width="477.235px" height="477.201px" viewBox="0 0 477.235 477.201" enable-background="new 0 0 477.235 477.201"
	 xml:space="preserve">
<path fill-rule="evenodd" clip-rule="evenodd" stroke="#FFFFFF" stroke-width="2" stroke-miterlimit="10" d="M152.859,443.278
	c-15.937-2.095-30.042-3.944-48.115-6.313c6.495-4.327,10.363-6.908,15.996-10.667c-17.056-5.594-30.932-10.149-46.969-15.414
	c5.765-3.681,9.401-6.002,13.957-8.906c-13.646-7.386-26.602-14.4-41.002-22.188c5.909-2.61,9.965-4.402,14.949-6.605
	c-12.036-9.462-23.568-18.526-36.909-29.018c6.637-1.512,10.982-2.502,16.224-3.697c-10.38-11.617-19.984-22.367-31.012-34.712
	c6.678-0.382,10.947-0.627,16.466-0.938c-8.064-12.983-15.667-25.222-24.586-39.58c6.628,0.568,11.059,0.945,16.232,1.388
	c-5.675-14.092-11.096-27.55-17.255-42.847c6.116,1.588,10.579,2.749,15.739,4.09c-3.114-14.857-6.15-29.331-9.519-45.386
	c5.813,2.686,9.685,4.473,14.318,6.614c0-15.288,0-29.433,0-45.063c4.378,3.08,7.861,5.528,12.268,8.629
	c2.159-15.056,4.231-29.521,6.306-43.983c0.938-0.519,1.873-1.041,2.81-1.562c2.401,4.105,4.803,8.208,8.051,13.759
	c5.752-17.32,10.387-31.279,15.573-46.892c3.684,5.723,6.037,9.374,8.941,13.884c7.282-13.635,14.103-26.402,21.85-40.902
	c2.743,5.909,4.674,10.068,6.858,14.776c9.379-11.885,18.581-23.544,28.932-36.66c1.564,6.696,2.611,11.182,3.785,16.202
	c11.573-10.389,22.367-20.077,35.014-31.426c0.449,6.915,0.725,11.152,1.069,16.416c13.041-8.076,25.339-15.691,39.202-24.275
	c-0.555,6.554-0.946,11.188-1.371,16.217c14.241-5.707,27.679-11.091,43.335-17.364c-2.028,6.483-3.292,10.527-4.972,15.897
	c15.45-3.22,29.889-6.229,45.714-9.528c-2.699,5.695-4.688,9.892-6.872,14.5c15.328,0,29.72,0,45.591,0
	c-3.43,4.479-6.034,7.883-9.21,12.034c15.405,2.21,29.653,4.253,46.076,6.61c-5.392,3.876-9.114,6.553-14.467,10.404
	c17.562,5.857,31.547,10.518,47.164,15.727c-5.572,3.605-9.243,5.977-13.894,8.984c13.683,7.278,26.417,14.053,41.162,21.898
	c-5.953,2.734-10.047,4.611-14.874,6.825c11.935,9.406,23.574,18.581,36.346,28.647c-6.334,1.739-10.796,2.963-15.718,4.317
	c10.191,11.31,19.919,22.104,31.22,34.644c-6.669,0.453-10.897,0.743-16.391,1.114c8.032,13.032,15.706,25.488,24.209,39.281
	c-6.316-0.527-10.627-0.89-16.016-1.34c5.717,14.381,11.109,27.95,17.307,43.542c-6.562-2.203-10.681-3.582-16.058-5.387
	c3.229,15.354,6.26,29.766,9.666,45.954c-5.639-2.795-9.493-4.705-14.439-7.158c0,15.136,0,29.683,0,45.523
	c-4.797-3.351-8.276-5.782-12.266-8.572c-2.15,15.235-4.166,29.495-6.179,43.758c-0.845,0.478-1.688,0.96-2.532,1.437
	c-2.353-4.096-4.704-8.188-8.144-14.176c-5.946,17.842-10.579,31.742-15.835,47.509c-3.73-5.884-6.048-9.546-8.878-14.005
	c-7.291,13.701-14.099,26.493-21.885,41.12c-2.728-5.87-4.648-10.001-6.9-14.846c-9.344,11.871-18.462,23.458-28.894,36.714
	c-1.485-6.339-2.447-10.438-3.735-15.937c-11.742,10.359-22.7,20.027-35.492,31.312c0-7.058,0-11.333,0-17.036
	c-13.414,8.332-25.611,15.914-39.06,24.269c0-6.12,0-10.352,0-15.478c-13.757,5.511-27.16,10.878-42.325,16.949
	c1.636-6.037,2.818-10.404,4.264-15.734c-14.874,3.136-28.967,6.106-45.149,9.515c2.642-5.831,4.341-9.594,6.473-14.299
	c-15.28,0-29.882,0-45.74,0C146.854,451.146,149.495,447.685,152.859,443.278z"/>
<path fill="none" stroke="#C72035" stroke-width="5" stroke-miterlimit="10" d="M421.417,237.654
	c0,99.972-81.038,181.005-181.001,181.005c-99.965,0-181.013-81.033-181.013-181.005c0-99.969,81.048-181.012,181.013-181.012
	C340.38,56.643,421.417,137.686,421.417,237.654z"/>
<rect x="115.381" y="88.567" fill="#010101" width="286.542" height="158.789"/>
<rect x="84.725" y="224.852" fill="#010101" width="312.357" height="158.788"/>
<g>
	<defs>
		<rect id="SVGID_1_" x="95.149" y="98.587" width="288.479" height="265.243"/>
	</defs>
	<clipPath id="SVGID_2_">
		<use xlink:href="#SVGID_1_"  overflow="visible"/>
	</clipPath>
	<g clip-path="url(#SVGID_2_)">
		<g>
			<path fill="#FFFFFF" d="M-80.556,504.138c0-171.754,0-343.509,0-515.264c204.9,0,409.801,0,614.701,0
				c0,171.755,0,343.51,0,515.264C329.246,504.138,124.344,504.138-80.556,504.138z M156.982,442.491
				c-3.363,4.415-5.997,7.87-9.578,12.568c15.851,0,30.458,0,45.726,0c-2.121,4.701-3.825,8.479-6.45,14.295
				c16.186-3.409,30.278-6.379,45.133-9.508c-1.431,5.338-2.602,9.704-4.216,15.725c15.159-6.073,28.546-11.438,42.303-16.949
				c0,5.159,0,9.382,0,15.471c13.449-8.354,25.635-15.925,39.065-24.268c0,5.744,0,10.008,0,17.103
				c12.714-11.302,23.542-20.928,35.302-31.38c1.252,5.032,2.332,9.371,3.951,15.876c10.381-13.188,19.494-24.765,28.826-36.62
				c2.278,4.877,4.189,8.968,6.925,14.827c7.799-14.666,14.597-27.453,21.862-41.119c2.836,4.457,5.165,8.116,8.896,13.976
				c5.26-15.775,9.889-29.658,15.883-47.635c3.461,6.124,5.786,10.236,8.111,14.348c0.836-0.493,1.674-0.988,2.511-1.483
				c2.012-14.26,4.023-28.521,6.172-43.751c4.019,2.826,7.491,5.269,12.312,8.658c0-15.927,0-30.473,0-45.558
				c4.912,2.438,8.751,4.345,14.393,7.144c-3.414-16.223-6.445-30.625-9.677-45.983c5.396,1.816,9.511,3.2,16.069,5.407
				c-6.201-15.599-11.594-29.164-17.311-43.545c5.396,0.447,9.703,0.805,16.006,1.328c-8.498-13.787-16.171-26.24-24.201-39.27
				c5.491-0.375,9.736-0.664,16.387-1.117c-11.295-12.534-21.021-23.327-31.221-34.643c4.929-1.352,9.393-2.576,15.72-4.312
				c-12.761-10.062-24.397-19.238-36.332-28.647c4.827-2.222,8.924-4.107,14.854-6.837c-14.727-7.833-27.461-14.606-41.16-21.893
				c4.651-3.005,8.323-5.376,13.901-8.979c-15.607-5.207-29.592-9.873-47.192-15.746c5.353-3.851,9.075-6.529,14.441-10.391
				c-16.363-2.35-30.607-4.396-46.006-6.607c3.175-4.157,5.759-7.539,9.189-12.03c-15.844,0-30.24,0-45.562,0
				c2.173-4.618,4.149-8.817,6.822-14.498c-15.768,3.289-30.208,6.301-45.658,9.523c1.663-5.351,2.92-9.395,4.942-15.901
				c-15.663,6.277-29.096,11.663-43.347,17.374c0.436-5.051,0.834-9.656,1.402-16.232c-13.874,8.591-26.176,16.209-39.233,24.295
				c-0.329-5.255-0.594-9.482-1.03-16.451c-12.656,11.363-23.441,21.046-35.034,31.453c-1.178-5.009-2.228-9.475-3.806-16.181
				C126.758,37.401,117.562,49.05,108.131,61c-2.15-4.71-4.061-8.894-6.793-14.879c-7.756,14.525-14.575,27.296-21.854,40.926
				c-3.006-4.5-5.475-8.197-9.215-13.793c-5.181,15.995-9.635,29.743-14.659,45.253c-3.414-4.36-6.288-8.029-11.017-14.068
				c-2.583,17.899-4.67,32.369-6.846,47.453c-4.342-3.056-7.829-5.511-12.708-8.944c0,16.063,0,30.375,0,45.45
				c-4.671-2.317-8.261-4.098-13.884-6.888c3.392,16.191,6.425,30.662,9.549,45.574c-5.107-1.331-9.566-2.493-15.734-4.101
				c6.157,15.293,11.574,28.751,17.251,42.856c-5.125-0.438-9.59-0.822-16.233-1.392c8.911,14.353,16.515,26.601,24.591,39.611
				c-5.493,0.299-9.77,0.531-16.437,0.895c11.071,12.475,20.751,23.382,31.022,34.954c-5.711,1.204-9.839,2.073-16.311,3.438
				c13.388,10.529,24.917,19.598,36.95,29.062c-4.966,2.193-9.023,3.983-14.941,6.596c14.394,7.791,27.351,14.805,41.003,22.194
				c-4.546,2.899-8.185,5.219-13.96,8.901c16.038,5.266,29.906,9.818,47.977,15.752c-6.506,3.578-10.651,5.858-14.796,8.139
				c0.583,0.903,1.167,1.807,1.751,2.711C126.942,438.55,141.045,440.4,156.982,442.491z"/>
			<path fill-rule="evenodd" clip-rule="evenodd" d="M156.982,442.491c-15.937-2.091-30.04-3.941-44.144-5.791
				c-0.583-0.904-1.167-1.808-1.751-2.711c4.146-2.28,8.29-4.561,14.796-8.139c-18.071-5.934-31.939-10.486-47.977-15.752
				c5.775-3.683,9.414-6.002,13.96-8.901c-13.652-7.39-26.609-14.403-41.003-22.194c5.918-2.612,9.975-4.402,14.941-6.596
				c-12.033-9.465-23.562-18.533-36.95-29.062c6.471-1.364,10.599-2.233,16.311-3.438c-10.271-11.572-19.951-22.479-31.022-34.954
				c6.667-0.363,10.943-0.596,16.437-0.895c-8.077-13.011-15.681-25.259-24.591-39.611c6.643,0.569,11.108,0.953,16.233,1.392
				c-5.677-14.105-11.094-27.563-17.251-42.856c6.167,1.607,10.627,2.77,15.734,4.101c-3.124-14.912-6.157-29.383-9.549-45.574
				c5.624,2.79,9.213,4.57,13.884,6.888c0-15.074,0-29.387,0-45.45c4.878,3.433,8.365,5.888,12.708,8.944
				c2.176-15.084,4.264-29.554,6.846-47.453c4.729,6.039,7.603,9.708,11.017,14.068c5.024-15.51,9.478-29.258,14.659-45.253
				c3.74,5.597,6.209,9.293,9.215,13.793c7.279-13.63,14.097-26.401,21.854-40.926c2.732,5.985,4.643,10.169,6.793,14.879
				c9.432-11.95,18.627-23.599,28.944-36.672c1.578,6.707,2.628,11.172,3.806,16.181c11.593-10.407,22.378-20.09,35.034-31.453
				c0.436,6.969,0.701,11.196,1.03,16.451c13.057-8.086,25.359-15.704,39.233-24.295c-0.568,6.576-0.966,11.181-1.402,16.232
				c14.25-5.711,27.684-11.097,43.347-17.374c-2.022,6.506-3.279,10.55-4.942,15.901c15.45-3.222,29.89-6.234,45.658-9.523
				c-2.672,5.681-4.649,9.879-6.822,14.498c15.322,0,29.718,0,45.562,0c-3.431,4.491-6.015,7.874-9.189,12.03
				c15.399,2.211,29.644,4.257,46.006,6.607c-5.366,3.861-9.088,6.54-14.441,10.391c17.6,5.873,31.584,10.539,47.192,15.746
				c-5.578,3.603-9.25,5.974-13.901,8.979c13.699,7.287,26.434,14.061,41.16,21.893c-5.93,2.73-10.026,4.615-14.854,6.837
				c11.935,9.41,23.571,18.585,36.332,28.647c-6.327,1.736-10.791,2.959-15.72,4.312c10.199,11.315,19.926,22.108,31.221,34.643
				c-6.65,0.453-10.896,0.742-16.387,1.117c8.03,13.029,15.703,25.482,24.201,39.27c-6.303-0.523-10.61-0.881-16.006-1.328
				c5.717,14.381,11.109,27.946,17.311,43.545c-6.559-2.207-10.674-3.591-16.069-5.407c3.231,15.358,6.263,29.761,9.677,45.983
				c-5.642-2.799-9.48-4.705-14.393-7.144c0,15.085,0,29.631,0,45.558c-4.821-3.39-8.294-5.832-12.312-8.658
				c-2.148,15.23-4.16,29.491-6.172,43.751c-0.837,0.495-1.675,0.99-2.511,1.483c-2.325-4.111-4.65-8.224-8.111-14.348
				c-5.994,17.977-10.623,31.859-15.883,47.635c-3.73-5.859-6.06-9.519-8.896-13.976c-7.266,13.666-14.063,26.453-21.862,41.119
				c-2.736-5.859-4.647-9.95-6.925-14.827c-9.332,11.855-18.445,23.432-28.826,36.62c-1.619-6.505-2.698-10.844-3.951-15.876
				c-11.761,10.452-22.588,20.078-35.302,31.38c0-7.095,0-11.358,0-17.103c-13.431,8.343-25.616,15.914-39.065,24.268
				c0-6.089,0-10.312,0-15.471c-13.757,5.512-27.145,10.876-42.303,16.949c1.614-6.021,2.785-10.387,4.216-15.725
				c-14.855,3.129-28.948,6.099-45.133,9.508c2.625-5.816,4.329-9.594,6.45-14.295c-15.268,0-29.875,0-45.726,0
				C150.985,450.361,153.619,446.906,156.982,442.491z M324.908,257.37c25.323-8.704,42.451-24.433,49.037-49.042
				c4.335-16.201,7.773-33.053,8.436-49.739c1.34-33.683-14.817-52.831-48.36-53.957c-62.43-2.097-124.946-1.623-187.427-2.176
				c-0.676-0.005-1.357,0.548-2.969,1.244c-3.119,17.435-6.332,35.404-9.766,54.603c36.081,0,71.042,0,106.004,0
				c34.608,0,69.217,0,103.825,0c-7.258,4.541-14.58,7.484-22.187,8.995c-9.725,1.933-13.399,6.267-14.572,16.914
				c-3.382,30.697-12.158,37.409-43.247,37.412c-13.426,0-26.851,0-41.671,0c2.252,4.606,3.731,7.943,5.47,11.14
				c12.038,22.124,24.433,44.062,35.964,66.445c2.492,4.838,3.213,11.399,2.541,16.896c-1.767,14.441-4.75,28.735-7.529,44.696
				c35.097,0,69.209,0.07,103.318-0.208c1.708-0.013,4.543-2.822,4.907-4.706c3.092-16.009,5.732-32.103,8.715-49.373
				c-6.071,0-10.671,0.676-14.954-0.197c-3.951-0.807-9.237-2.249-11.04-5.188C340.978,287.404,333.556,273.064,324.908,257.37z
				 M98.608,358.748c1.261,0.891,1.854,1.674,2.451,1.677c36.876,0.188,73.753,0.391,110.628,0.23
				c2.047-0.008,5.5-2.792,5.897-4.768c3.211-15.979,5.849-32.072,8.778-48.803c-8.123-0.405-14.791-0.738-22.991-1.147
				c7.4-42.641,14.666-84.51,22.151-127.642c-23.247,4.052-44.242,8.118-65.383,11.167c-7.085,1.021-9.204,3.998-10.301,10.538
				c-5.895,35.168-12.258,70.259-18.552,105.905c-8.169,0.455-15.873,0.884-23.641,1.315
				C104.482,325.262,101.516,342.167,98.608,358.748z"/>
			<path fill-rule="evenodd" clip-rule="evenodd" fill="#FFFFFF" d="M324.908,257.37c8.648,15.694,16.07,30.034,24.495,43.759
				c1.803,2.938,7.089,4.381,11.04,5.188c4.283,0.873,8.882,0.197,14.954,0.197c-2.983,17.271-5.624,33.364-8.715,49.373
				c-0.364,1.884-3.199,4.693-4.907,4.706c-34.109,0.278-68.221,0.208-103.318,0.208c2.778-15.961,5.762-30.255,7.529-44.696
				c0.672-5.497-0.049-12.059-2.541-16.896c-11.531-22.383-23.926-44.321-35.964-66.445c-1.739-3.196-3.218-6.533-5.47-11.14
				c14.82,0,28.245,0,41.671,0c31.088-0.003,39.864-6.715,43.247-37.412c1.173-10.647,4.847-14.981,14.572-16.914
				c7.606-1.511,14.928-4.454,22.187-8.995c-34.608,0-69.217,0-103.825,0c-34.961,0-69.923,0-106.004,0
				c3.434-19.199,6.647-37.167,9.766-54.603c1.612-0.695,2.293-1.249,2.969-1.244c62.481,0.554,124.997,0.08,187.427,2.176
				c33.543,1.126,49.7,20.274,48.36,53.957c-0.663,16.687-4.101,33.538-8.436,49.739C367.358,232.938,350.23,248.666,324.908,257.37
				z"/>
			<path fill-rule="evenodd" clip-rule="evenodd" fill="#FFFFFF" d="M98.608,358.748c2.908-16.581,5.874-33.486,9.038-51.526
				c7.769-0.432,15.472-0.86,23.641-1.315c6.294-35.646,12.657-70.737,18.552-105.905c1.097-6.54,3.215-9.518,10.301-10.538
				c21.142-3.049,42.136-7.115,65.383-11.167c-7.485,43.132-14.751,85.001-22.151,127.642c8.2,0.409,14.868,0.742,22.991,1.147
				c-2.93,16.73-5.567,32.824-8.778,48.803c-0.397,1.976-3.85,4.76-5.897,4.768c-36.875,0.16-73.752-0.043-110.628-0.23
				C100.462,360.422,99.869,359.639,98.608,358.748z"/>
		</g>
	</g>
</g>
</svg>
