<?xml version="1.0" encoding="utf-8"?>
<!-- Generator: Adobe Illustrator 12.0.0, SVG Export Plug-In . SVG Version: 6.00 Build 51448)  -->
<!DOCTYPE svg PUBLIC "-//W3C//DTD SVG 1.1//EN" "http://www.w3.org/Graphics/SVG/1.1/DTD/svg11.dtd" [
	<!ENTITY ns_svg "http://www.w3.org/2000/svg">
	<!ENTITY ns_xlink "http://www.w3.org/1999/xlink">
]>
<svg  version="1.1" id="Layer_1" xmlns="&ns_svg;" xmlns:xlink="&ns_xlink;" width="200" height="125.437"
	 viewBox="157.5 98.782 200 125.437" overflow="visible" enable-background="new 157.5 98.782 200 125.437" xml:space="preserve">
<g>
	<g>
		<g>
			<path fill="#FFFFFF" d="M321.646,177.416l-6.108,3.953c-0.138,0.086-0.314,0.099-0.446,0.023
				c-0.133-0.075-0.231-0.227-0.231-0.385l-0.04-7.292l2.799-5.211V166.8l-6.307,11.681c-0.078,0.13-0.116,0.277-0.116,0.428
				l0.078,8.718l-2.18,4.008c-0.096,0.202-0.019,0.448,0.174,0.566c0.193,0.106,0.444,0.032,0.56-0.17l2.157-4.021l7.327-4.732
				c0.115-0.084,0.215-0.191,0.29-0.319l5.169-9.582l-1.445,0.937L321.646,177.416"/>
			<path fill="#FFFFFF" d="M330.496,161.033l-6.129,3.953c-0.138,0.099-0.289,0.099-0.444,0.023
				c-0.134-0.075-0.232-0.225-0.232-0.385l-0.04-7.28l2.816-5.222l-0.018-1.706l-6.308,11.681c-0.076,0.139-0.114,0.278-0.094,0.429
				l0.057,8.718l-2.18,4.007c-0.096,0.203-0.017,0.46,0.174,0.568c0.194,0.105,0.446,0.032,0.562-0.171l2.156-4.019l7.327-4.733
				c0.116-0.085,0.213-0.191,0.289-0.318l5.17-9.574l-1.448,0.928L330.496,161.033"/>
			<path fill="#FFFFFF" d="M339.329,144.649l-6.114,3.953c-0.133,0.099-0.306,0.099-0.462,0.024
				c-0.137-0.076-0.215-0.226-0.231-0.385l-0.04-7.281l2.815-5.21l-0.018-1.717l-6.306,11.692c-0.058,0.128-0.095,0.267-0.095,0.417
				l0.057,8.717l-2.159,4.019c-0.116,0.192-0.038,0.448,0.154,0.556c0.213,0.106,0.444,0.031,0.56-0.171l2.157-4.008l7.328-4.745
				c0.114-0.075,0.23-0.191,0.287-0.318l5.168-9.574l-1.445,0.928L339.329,144.649"/>
			<path fill="#FFFFFF" d="M349.258,126.219c-5.229,1.738-8.93,4.167-11.532,6.48l0.041,5.777l-2.159,4.019
				c-0.116,0.203-0.038,0.448,0.152,0.556c0.214,0.107,0.463,0.032,0.56-0.171l2.179-4.007l4.687-3.05l-0.04-6
				c1.718-0.992,3.568-1.833,5.552-2.547L349.258,126.219"/>
			<path fill="#FFFFFF" d="M187.725,177.405l-6.131,3.964c-0.135,0.086-0.29,0.099-0.444,0.023
				c-0.135-0.075-0.232-0.227-0.232-0.385l-0.038-7.292l1.659-3.099v-1.707l-5.167,9.57c-0.078,0.13-0.097,0.277-0.097,0.428
				l0.058,8.718l-2.179,4.008c-0.096,0.202-0.019,0.448,0.174,0.566c0.192,0.106,0.444,0.032,0.559-0.17l2.159-4.021l7.328-4.732
				c0.115-0.084,0.211-0.191,0.289-0.319l7.018-13.014l-1.446,0.937L187.725,177.405"/>
			<path fill="#FFFFFF" d="M199.736,155.117l-3.509,6.535l-6.132,3.953c-0.134,0.087-0.289,0.096-0.443,0.023
				c-0.136-0.075-0.23-0.226-0.23-0.385l-0.039-7.293l1.658-3.09v-1.715l-5.168,9.571c-0.078,0.128-0.115,0.277-0.097,0.428
				l0.058,8.718l-2.178,4.008c-0.097,0.203-0.019,0.447,0.172,0.567c0.195,0.103,0.445,0.032,0.56-0.171l2.16-4.019l7.327-4.734
				c0.114-0.084,0.211-0.19,0.288-0.319l7.02-13.004L199.736,155.117"/>
			<path fill="#FFFFFF" d="M192.332,160.669c0.194,0.106,0.444,0.031,0.56-0.171l2.16-4.016l7.327-4.733
				c0.115-0.086,0.212-0.194,0.289-0.321l7.018-13.003l-1.447,0.929l-3.508,6.531l-6.131,3.956c-0.136,0.084-0.289,0.096-0.443,0.02
				c-0.136-0.072-0.232-0.222-0.232-0.38l-0.04-7.292l1.659-3.091v-1.714l-5.167,9.571c-0.077,0.139-0.097,0.277-0.097,0.425
				l0.059,8.721l-2.179,4.007C192.063,160.308,192.14,160.565,192.332,160.669"/>
			<path fill="#FFFFFF" d="M200.643,143.773c0.212,0.107,0.462,0.032,0.56-0.17l2.157-4.017l4.705-3.039l-0.037-5.865
				c1.58-0.969,3.411-1.873,5.532-2.663l0.579-1.066c-5.32,1.833-9.023,4.436-11.53,6.908l0.039,5.341l-2.16,4.007
				C200.372,143.412,200.45,143.67,200.643,143.773"/>
			<path fill="#FFFFFF" d="M303.444,115.72c0,0-3.219,5.627-9.443,5.627c-8.389,0-9.952-5.04-23.717-5.04
				c-12.938,0-29.519,6.766-29.519,23.046c0,18.311,19.127,31.303,19.127,46.365c0,8.091-6.885,19.711-21.093,19.711
				c-14.19,0-19.068-10.788-18.413-14.541h-8.695l-13.65,25.326h8.542c3.296-6.106,6.033-11.126,12.802-11.126
				c8.366,0,12.01,4.488,23.039,4.488c24.102,0,39.988-17.097,39.988-32.949c0-17.014-18.662-30.517-18.662-41.773
				c0-7.772,6.534-12.642,14.267-12.642c15.114,0,15.984,12.642,15.984,12.642h8.171l10.316-19.133L303.444,115.72"/>
			<path fill="#C7C7C7" d="M255.727,179.793c-0.328-0.972-0.733-1.939-1.195-2.921h-37.057l1.581-2.911H195.61l4.57-8.483h47.642
				c-0.617-0.96-1.234-1.929-1.851-2.92h-28.535l1.562-2.912h-15.675l4.569-8.484h32.161c-0.368-0.96-0.695-1.929-0.984-2.909
				h-21.382l1.562-2.92h-8.213l5.688-10.575c0.136-0.226,3.721-6.289,14.539-6.289h9.042c0.521-0.991,1.098-1.939,1.755-2.836
				h-10.796c-12.822,0-17.007,7.792-17.007,7.792l-37.192,68.978h24.969l1.523-2.838h-21.749l10.663-19.771H255.727"/>
			<path fill="#C7C7C7" d="M310.619,125.632l-1.543,2.836h24.122l-9.085,16.864h-52.846c0.616,0.948,1.252,1.917,1.927,2.92h26.049
				l-1.582,2.909h23.312l-4.569,8.484h-35.998c0.519,0.959,1.023,1.932,1.486,2.912h17.198l-1.562,2.92h15.729l-4.586,8.483h-23.369
				c0.097,0.886,0.156,1.77,0.156,2.666c0,0.084,0,0.16,0,0.245h14.188l-1.58,2.921h7.463l-7.25,13.472
				c-0.136,0.234-3.725,6.3-14.538,6.3h-8.368c-0.982,0.992-2.023,1.929-3.123,2.826h11.491c12.822,0,17.005-7.781,17.005-7.781
				l37.193-68.977H310.619"/>
			<path fill="#009560" d="M217.687,148.253h21.382c-0.849-2.848-1.351-5.801-1.351-8.9c0-4.146,0.947-7.772,2.584-10.884h-9.041
				c-10.817,0-14.403,6.063-14.539,6.289l-5.688,10.575h8.213L217.687,148.253"/>
			<path fill="#009560" d="M309.076,128.469l-5.071,9.444l-12.82-0.032c-0.231-2.944-0.31-12.633-13.169-12.633
				c-7.789,0-11.221,5.086-11.221,9.605c0,2.941,1.888,6.471,4.473,10.479h52.846l9.085-16.863L309.076,128.469"/>
			<path fill="#009560" d="M217.475,176.872h37.057c-1.716-3.665-4.184-7.439-6.709-11.395H200.18l-4.57,8.483h23.446
				L217.475,176.872"/>
			<path fill="#009560" d="M299.091,162.558h-17.199c1.717,3.634,3.007,7.45,3.412,11.403h23.368l4.586-8.483h-15.729
				L299.091,162.558"/>
			<path fill="#009560" d="M299.243,148.253h-26.049c2.354,3.507,4.995,7.321,7.211,11.393h35.998l4.569-8.484h-23.312
				L299.243,148.253"/>
			<path fill="#009560" d="M217.437,162.558h28.535c-2.236-3.604-4.376-7.388-5.918-11.396h-32.161l-4.569,8.484h15.675
				L217.437,162.558"/>
			<path fill="#009560" d="M299.646,176.872H285.46c-0.081,8.39-3.821,16.393-10.087,22.692h8.368c10.814,0,14.402-6.065,14.538-6.3
				l7.25-13.472h-7.463L299.646,176.872"/>
			<path fill="#009560" d="M192.469,179.793l-10.663,19.771h21.749l6.324-11.725h14.171c-2.661,7.452,4.549,14.519,14.75,14.519
				c13.766,0,18.046-11.661,18.046-16.641c0-1.961-0.424-3.933-1.119-5.925H192.469"/>
			<path d="M317.886,189.622l36.016-66.803h-41.76l5.457-10.149H301.71c0,0-2.582,5.618-7.709,5.618
				c-7.021,0-10.334-5.051-23.718-5.051c-9.021,0-19.261,3.036-25.796,9.582h-13.67c-25.277,0-32.486,13.345-33.701,15.605
				l-36.017,66.811h39.39l-7.557,14.028h15.48l1.64-3.049c1.659-2.845,3.991-8.091,9.333-8.091c6.94,0,12.261,4.5,23.04,4.5
				c9.872,0,18.799-2.805,25.933-7.389h15.83C309.462,205.234,316.674,191.879,317.886,189.622 M328.433,166.576
				c-0.076,0.127-0.173,0.234-0.289,0.318l-7.327,4.733l-2.156,4.019c-0.115,0.203-0.367,0.277-0.562,0.171
				c-0.19-0.108-0.27-0.364-0.174-0.567l2.18-4.008l-0.057-8.718c-0.021-0.15,0.018-0.289,0.094-0.429l6.308-11.681l0.018,1.707
				l-2.816,5.222l0.04,7.28c0,0.16,0.099,0.311,0.232,0.386c0.155,0.074,0.307,0.074,0.444-0.024l6.129-3.952l1.658-3.103
				l1.448-0.928L328.433,166.576z M337.263,150.193c-0.057,0.127-0.173,0.243-0.287,0.318l-7.328,4.745l-2.157,4.008
				c-0.116,0.202-0.348,0.277-0.56,0.171c-0.192-0.107-0.27-0.364-0.154-0.556l2.159-4.019l-0.057-8.717
				c0-0.151,0.037-0.29,0.095-0.417l6.306-11.692l0.018,1.717l-2.815,5.21l0.04,7.281c0.017,0.159,0.095,0.309,0.231,0.385
				c0.156,0.075,0.329,0.075,0.462-0.024l6.114-3.953l1.656-3.103l1.445-0.928L337.263,150.193z M348.696,127.275
				c-1.983,0.714-3.834,1.556-5.551,2.547l0.039,6l-4.687,3.05l-2.179,4.007c-0.097,0.203-0.346,0.278-0.56,0.171
				c-0.19-0.107-0.268-0.353-0.152-0.556l2.159-4.019l-0.04-5.777c2.603-2.314,6.303-4.742,11.531-6.48L348.696,127.275z
				 M200.488,143.21l2.16-4.007l-0.039-5.341c2.507-2.472,6.209-5.074,11.529-6.908l-0.579,1.066
				c-2.121,0.79-3.952,1.695-5.532,2.663l0.037,5.865l-4.705,3.039l-2.157,4.017c-0.098,0.202-0.348,0.277-0.56,0.17
				C200.45,143.67,200.372,143.412,200.488,143.21z M192.16,160.105l2.178-4.007l-0.059-8.721c0-0.148,0.021-0.287,0.097-0.425
				l5.167-9.571v1.714l-1.659,3.091l0.04,7.292c0,0.159,0.096,0.309,0.232,0.38c0.154,0.076,0.308,0.064,0.443-0.02l6.131-3.955
				l3.508-6.531l1.448-0.929l-7.019,13.003c-0.077,0.127-0.173,0.234-0.289,0.321l-7.326,4.733l-2.16,4.016
				c-0.116,0.203-0.365,0.278-0.559,0.171C192.14,160.565,192.063,160.308,192.16,160.105z M183.657,175.869l2.179-4.008
				l-0.058-8.718c-0.019-0.15,0.019-0.3,0.097-0.428l5.167-9.571v1.715l-1.658,3.09l0.04,7.293c0,0.159,0.094,0.31,0.23,0.385
				c0.154,0.072,0.309,0.063,0.443-0.023l6.132-3.953l3.509-6.535l1.447-0.929l-7.02,13.004c-0.076,0.13-0.174,0.236-0.288,0.319
				l-7.326,4.734l-2.161,4.019c-0.115,0.203-0.365,0.274-0.559,0.171C183.638,176.316,183.56,176.072,183.657,175.869z
				 M175.328,192.2c-0.192-0.118-0.27-0.364-0.174-0.566l2.179-4.008l-0.058-8.718c0-0.15,0.019-0.298,0.097-0.428l5.167-9.57v1.706
				l-1.658,3.1l0.037,7.292c0,0.158,0.097,0.31,0.232,0.385c0.154,0.074,0.309,0.063,0.444-0.024l6.131-3.964l3.508-6.524
				l1.447-0.936l-7.018,13.014c-0.077,0.128-0.174,0.235-0.289,0.319l-7.328,4.732l-2.158,4.021
				C175.771,192.232,175.52,192.307,175.328,192.2z M177.063,202.402l37.192-68.978c0,0,4.185-7.792,17.007-7.792h10.796
				c-0.657,0.897-1.234,1.845-1.755,2.836c-1.638,3.112-2.584,6.738-2.584,10.884c0,3.099,0.502,6.052,1.351,8.9
				c0.289,0.979,0.616,1.948,0.984,2.909c1.542,4.008,3.682,7.792,5.918,11.396c0.617,0.991,1.234,1.96,1.851,2.92
				c2.525,3.955,4.994,7.729,6.709,11.395c0.462,0.981,0.868,1.949,1.195,2.921c0.694,1.992,1.119,3.964,1.119,5.925
				c0,4.979-4.28,16.641-18.046,16.641c-10.2,0-17.41-7.065-14.75-14.519h-14.171l-6.324,11.725l-1.523,2.838H177.063
				L177.063,202.402z M242.424,209.576c-11.029,0-14.673-4.488-23.04-4.488c-6.769,0-9.505,5.02-12.802,11.126h-8.542l13.65-25.326
				h8.695c-0.655,3.753,4.223,14.541,18.414,14.541c14.208,0,21.093-11.621,21.093-19.712c0-15.061-19.127-28.053-19.127-46.364
				c0-16.28,16.581-23.045,29.518-23.045c13.765,0,15.329,5.04,23.718,5.04c6.225,0,9.443-5.627,9.443-5.627h9.044l-10.317,19.133
				h-8.17c0,0-0.87-12.642-15.985-12.642c-7.732,0-14.266,4.869-14.266,12.642c0,11.256,18.662,24.76,18.662,41.773
				C282.412,192.479,266.525,209.576,242.424,209.576z M283.741,202.391H272.25c1.1-0.897,2.141-1.834,3.123-2.826
				c6.266-6.3,10.006-14.303,10.087-22.692c0-0.085,0-0.161,0-0.245c0-0.896-0.06-1.78-0.156-2.666
				c-0.405-3.953-1.696-7.769-3.412-11.403c-0.462-0.98-0.967-1.953-1.486-2.912c-2.215-4.072-4.856-7.886-7.211-11.393
				c-0.674-1.003-1.31-1.973-1.927-2.92c-2.584-4.008-4.473-7.538-4.473-10.479c0-4.52,3.432-9.605,11.222-9.605
				c12.859,0,12.937,9.689,13.168,12.634l12.821,0.032l5.07-9.444l1.544-2.836h27.32l-37.193,68.976
				C300.746,194.609,296.563,202.391,283.741,202.391z M309.828,192.03c-0.115,0.202-0.366,0.276-0.56,0.17
				c-0.192-0.118-0.27-0.364-0.174-0.566l2.18-4.008l-0.078-8.718c0-0.15,0.038-0.298,0.116-0.428l6.307-11.681v1.705l-2.799,5.211
				l0.04,7.292c0,0.158,0.099,0.31,0.231,0.385s0.309,0.063,0.446-0.023l6.108-3.953l1.68-3.103l1.445-0.937l-5.169,9.582
				c-0.075,0.128-0.175,0.234-0.29,0.319l-7.327,4.731L309.828,192.03z"/>
		</g>
	</g>
</g>
</svg>
