<?xml version="1.0" encoding="UTF-8"?>
<!DOCTYPE svg PUBLIC "-//W3C//DTD SVG 1.1//EN" "http://www.w3.org/Graphics/SVG/1.1/DTD/svg11.dtd">
<!-- Creator: CorelDRAW -->
<svg xmlns="http://www.w3.org/2000/svg" xml:space="preserve" width="2374px" height="1226px" shape-rendering="geometricPrecision" text-rendering="geometricPrecision" image-rendering="optimizeQuality" fill-rule="evenodd" clip-rule="evenodd"
viewBox="0 0 2373.73 1226.44"
 xmlns:xlink="http://www.w3.org/1999/xlink">
 <g id="Ebene_x0020_1">
  <metadata id="CorelCorpID_0Corel-Layer"/>
  <path fill="white" d="M1837.03 858.253l38.4796 31.163 -225.991 45.4914 -160.916 271.523 -176.616 0 0 -174.122 -175.908 10.3979 -97.5577 163.724 -252.571 0 0 -142.996 -696.211 41.196 696.211 -263.786 0 -571.759 -83.0781 0 0 -248.99 542.396 0 0 216.349 127.687 -216.349 315.239 0 0 284.31c14.9378,-2.4672 30.1662,-4.56237 45.5694,-6.2548l16.407 -29.0655 -33.4743 0 0 -248.99 454.295 0 0 248.99 -126.741 0 -28.9639 48.9294c234.789,60.943 336.601,214.742 336.601,214.742 0,0 -66.7183,233.766 -514.858,325.497zm536.702 -328.919c0,0 -99.9469,-154.284 -328.068,-223.228l9.98099 -16.9326 135.3 0 0 -289.174 -829.374 0 -96.3636 163.11 0 -163.11 -582.509 0 0 289.174 83.0663 0 0 538.292 -765.765 295.706 765.765 -42.4479 0 145.714 284.144 0 99.4556 -166.899 142.446 -8.00865 0 174.908 208.162 0 162.332 -273.623 258.986 -52.2635 -39.1634 -31.6248c440.09,-105.608 491.606,-339.592 491.606,-339.592z"/>
  <polygon fill="white" points="1165.74,371.377 1226.05,269.085 1165.74,269.085 "/>
  <path fill="white" d="M2025.03 737.076c-15.4138,-23.7874 -44.8619,-79.829 -44.8619,-159.535 0.00354313,-29.5851 4.50332,-56.305 11.1609,-79.9956 148.589,11.3014 261.097,36.2131 288.865,42.6852 -13.2737,24.424 -75.0057,121.17 -255.164,196.846zm-292.684 76.9178c-25.6558,-30.0611 -91.3761,-119.112 -91.3761,-248.744 0,-18.8825 1.41725,-36.6525 3.8065,-53.4587 18.9569,-3.9376 39.3878,-7.36144 60.5107,-10.3081 -2.15422,12.5143 -3.58328,23.061 -4.24231,29.1836 4.45135,-0.487771 11.8305,-1.33222 21.5588,-2.43413 0.7476,-6.14851 2.15068,-16.8169 4.29073,-29.4363 6.63156,-0.733428 13.2891,-1.4704 19.9431,-2.10344 -2.15068,12.2628 -3.79233,22.9359 -4.5293,29.7009 6.66935,-0.517297 13.7733,-1.10546 21.3981,-1.61803 0.685005,-6.84769 2.11407,-17.5172 4.46552,-29.9099 6.90792,-0.487771 14.0343,-0.986171 21.1489,-1.3582 -2.86167,12.5037 -4.73716,23.4343 -5.92057,30.0587 6.85477,-0.37321 14.2056,-0.736971 21.8339,-1.109 1.17986,-6.98941 2.84749,-17.6625 5.45996,-29.8095 6.39298,-0.245657 13.2856,-0.360218 19.9171,-0.47596 -2.82151,12.3667 -4.9651,23.2961 -6.17095,29.8013 6.90674,-0.138182 14.2717,-0.2492 21.6214,-0.2492 1.19522,-7.24215 3.06008,-17.7818 5.66074,-29.6902 6.91855,-0.00354313 13.7958,0.138182 20.6612,0.138182 -3.04355,12.7458 -5.19895,23.4118 -6.16977,29.6631 6.92209,0 14.0072,0.2492 21.123,0.513754 0.736971,-6.25126 2.39279,-16.9397 5.24029,-29.7009 22.7929,0.487771 45.0804,1.47394 66.7065,2.83214 -7.5882,24.4051 -12.3407,51.8844 -12.3407,82.0612 0,78.113 33.9361,140.158 53.3914,169.475 -71.1791,27.49 -159.233,51.3706 -267.988,66.9781zm-274.386 96.3896l43.9171 50.414 -999.818 73.2046 794.015 -136.994 -41.0779 -62.5575 300.73 -53.9453 -160.205 -181.882c45.5694,-19.7577 115.373,-55.085 216.972,-79.5905 -2.13651,14.9343 -3.31991,30.3965 -3.31991,46.2166 0,188.763 124.84,289.431 124.84,289.431l-276.053 55.7027zm93.9744 67.8379l-44.1509 -50.9018 84.506 -16.9362 -40.3551 67.8379zm-98.5037 166.281l-79.7688 0 0 -148.783 174.964 -11.7372 -95.1956 160.52zm-450.055 0l-155.72 0 0 -113.456 232.638 -15.6748 -76.9178 129.13zm64.0976 -341.93l-40.3515 -50.3998 293.384 -86.1063 -76.9036 -69.2823c0,0 172.072,-167.896 418.267,-223.576 -16.3964,30.5382 -34.4345,71.3539 -44.6505,118.338 -131.519,28.4466 -217.666,76.2812 -269.421,103.281l154.079 167.375 -296.253 53.8532 43.6856 60.5887 -868.323 166.181 686.486 -240.252zm-302.881 -595.308l0 -125.364 418.719 0 0 125.364 -79.5243 0 0 390.364 304.537 -515.728 218.166 0 0 272.543c-251.855,67.0797 -421.814,243.07 -421.814,243.07l62.9224 56.5247 -285.817 83.7844 41.7688 52.1336 -175.894 63.9865 0 -646.679 -83.0627 0zm1051.77 148.285c76.9213,0 145.292,11.886 204.385,29.6607 -16.3456,19.0231 -37.9812,48.8279 -53.656,87.8294 -22.069,-1.73023 -45.0969,-2.94434 -68.5832,-3.68131 2.34909,-8.46217 5.23674,-17.0661 8.78342,-25.3877 -6.43432,-0.372028 -12.6053,-0.624772 -18.775,-0.877515 -3.79233,8.45863 -6.85477,17.1818 -9.70227,25.644 -6.87721,-0.111018 -14.0225,-0.2492 -21.1371,-0.372028 2.36327,-8.94286 5.23911,-17.77 8.53303,-25.7526 -6.86658,-0.114561 -13.5194,-0.252743 -19.9277,-0.252743 -3.55848,8.09369 -6.64337,17.0625 -9.25583,26.0054 -7.12641,0 -13.9965,0.122828 -20.8879,0.372028 2.35146,-9.09167 4.98991,-18.0333 8.07479,-26.1247 -7.12996,0.115742 -14.0225,0.368485 -20.4273,0.480684 -3.32227,8.23187 -6.18394,17.1818 -8.55902,26.2652 -7.32719,0.223217 -14.4571,0.596427 -21.5576,1.10191 2.3739,-8.96884 4.98991,-17.9117 8.28383,-26.3739 -7.60001,0.361399 -14.704,0.733428 -21.3615,1.21293 -3.0589,8.61216 -5.94655,17.6625 -8.07125,26.642 -6.89257,0.472417 -13.5348,1.09837 -20.1781,1.68653 2.3739,-8.93577 4.97573,-18.142 8.32163,-26.8546 -8.5602,0.617685 -15.6748,1.24364 -21.3722,1.83534 -3.32345,8.83066 -6.15914,18.1715 -8.29919,27.3707 -21.6214,2.57467 -42.2719,5.63003 -61.7426,9.19914 11.6593,-56.1787 33.2546,-97.0215 46.7787,-118.847 38.6874,-6.87367 78.8193,-10.7817 120.333,-10.7817zm39.6476 -148.285l-77.35 0 0 -125.364 330.4 0 0 125.364 -99.9457 0 -77.1162 130.001c-35.8671,-5.26863 -74.3207,-8.34997 -115.636,-8.34997 -9.95147,0 -19.6903,0.2492 -29.4068,0.624772l69.0544 -122.276zm414.215 314.938c-33.4483,-8.93813 -135.513,-34.0802 -271.77,-46.5886 13.9812,-38.156 33.2251,-66.2305 46.526,-82.6754 119.167,40.583 196.543,103.136 225.244,129.264zm-310.238 -180.155l64.12 -108.297 111.539 0 0 -178.343 -383.613 0 0 178.343 58.6577 0 -55.3082 97.8813c-35.3947,3.05536 -69.58,8.69366 -102.533,16.2996l0 -292.524 -259.708 0 -262.771 445.342 0 -266.998 79.5456 0 0 -178.343 -471.912 0 0 178.343 83.0769 0 0 629.764 -571.129 207.773 571.129 -38.3874 0 138.11 197.489 0 94.0039 -157.752 234.778 -15.8189 0 173.571 121.029 0 158.802 -267.609 167.598 -33.8605 -39.8862 -32.1385c427.987,-67.4659 536.453,-256.806 555.924,-299.606 -22.0796,-28.2198 -132.465,-154.537 -350.831,-195.748z"/>
  <path fill="#857946" d="M1226.05 269.085l-60.31 102.291 0 -102.291 60.31 0zm528.85 568.317l39.8862 32.1385 -167.598 33.8605 -158.802 267.609 -121.029 0 0 -173.571 -234.778 15.8189 -94.0039 157.752 -197.489 0 0 -138.11 -571.129 38.3874 571.129 -207.773 0 -629.764 -83.0769 0 0 -178.343 471.912 0 0 178.343 -79.5456 0 0 266.998 262.771 -445.342 259.708 0 0 292.524c32.9535,-7.61064 67.1387,-13.2407 102.533,-16.2996l55.3082 -97.8813 -58.6577 0 0 -178.343 383.613 0 0 178.343 -111.539 0 -64.12 108.297c218.367,41.2113 328.748,167.529 350.831,195.748 -19.4671,42.7998 -127.936,232.14 -555.924,299.606zm596.99 -304.645c0,0 -101.812,-153.795 -336.601,-214.742l28.9639 -48.9294 126.741 0 0 -248.99 -454.295 0 0 248.99 33.4743 0 -16.407 29.0655c-15.3996,1.69243 -30.6315,3.7876 -45.5694,6.2548l0 -284.31 -315.239 0 -127.687 216.349 0 -216.349 -542.396 0 0 248.99 83.0781 0 0 571.759 -696.211 263.786 696.211 -41.196 0 142.996 252.571 0 97.5577 -163.724 175.908 -10.3979 0 174.122 176.616 0 160.916 -271.523 225.991 -45.4914 -38.4796 -31.163c448.14,-91.7304 514.858,-325.497 514.858,-325.497z"/>
  <path fill="#857946" d="M1243.6 596.784l76.9036 69.2823 -293.384 86.1063 40.3515 50.3998 -686.486 240.252 868.323 -166.181 -43.6856 -60.5887 296.253 -53.8532 -154.075 -167.375c51.7509,-26.9998 137.899,-74.8344 269.417,-103.281 10.216,-46.9842 28.2541,-87.7964 44.6505,-118.338 -246.195,55.6803 -418.271,223.576 -418.267,223.576z"/>
  <path fill="#857946" d="M1998.46 475.614c136.26,12.5049 238.318,37.6505 271.77,46.5886 -28.6958,-26.1282 -106.077,-88.6774 -225.244,-129.264 -13.2974,16.4448 -32.5448,44.5194 -46.526,82.6754z"/>
  <path fill="#857946" d="M1816.36 355.549c-41.5089,0 -81.6455,3.90807 -120.333,10.7817 -13.5241,21.8257 -35.1195,62.6685 -46.7787,118.847 19.4707,-3.56911 40.1212,-6.61975 61.7426,-9.19914 2.14359,-9.19914 4.97573,-18.5365 8.29919,-27.3707 5.69735,-0.591702 12.812,-1.21766 21.3722,-1.83534 -3.34589,8.71255 -5.94773,17.9188 -8.32163,26.8546 6.64337,-0.591702 13.2856,-1.21411 20.1781,-1.68653 2.1247,-8.98301 5.01235,-18.0298 8.07125,-26.642 6.65754,-0.479503 13.758,-0.851532 21.3615,-1.21293 -3.29393,8.46217 -5.90994,17.405 -8.28383,26.3739 7.10043,-0.505486 14.2304,-0.878696 21.5576,-1.10191 2.37508,-9.0834 5.23674,-18.0333 8.55902,-26.2652 6.4048,-0.112199 13.2974,-0.364942 20.4273,-0.480684 -3.08488,8.09132 -5.72333,17.033 -8.07479,26.1247 6.89493,-0.2492 13.758,-0.372028 20.8879,-0.372028 2.61247,-8.94286 5.69735,-17.9117 9.25583,-26.0054 6.40834,0 13.0612,0.138182 19.9277,0.252743 -3.29393,7.98267 -6.16977,16.8098 -8.53303,25.7526 7.1146,0.122828 14.2564,0.264554 21.1371,0.372028 2.85104,-8.46217 5.9064,-17.1854 9.70227,-25.644 6.16977,0.252743 12.3407,0.51021 18.775,0.877515 -3.54667,8.32163 -6.43432,16.9255 -8.78342,25.3877 23.4862,0.736971 46.5142,1.95108 68.5832,3.68131 15.6748,-39.0051 37.3103,-68.8028 53.656,-87.8294 -59.0935,-17.7782 -127.464,-29.6607 -204.385,-29.6607z"/>
  <polygon fill="#00264B" points="1373.66,1144.5 1453.43,1144.5 1548.63,983.982 1373.66,995.719 "/>
  <polygon fill="#00264B" points="1507.78,927.319 1551.93,978.221 1592.29,910.383 "/>
  <polygon fill="#00264B" points="847.655,1144.5 1003.38,1144.5 1080.29,1015.37 847.655,1031.05 "/>
  <path fill="#00264B" d="M847.655 853.944l175.894 -63.9865 -41.7688 -52.1336 285.817 -83.7844 -62.9224 -56.5247c0,0 169.959,-175.991 421.814,-243.07l0 -272.543 -218.166 0 -304.537 515.728 0 -390.364 79.5243 0 0 -125.364 -418.719 0 0 125.364 83.0627 0 0 646.679z"/>
  <path fill="#00264B" d="M1786.96 329.54c9.71644,-0.375572 19.4553,-0.624772 29.4068,-0.624772 41.3152,0 79.7688,3.08134 115.636,8.34997l77.1162 -130.001 99.9457 0 0 -125.364 -330.4 0 0 125.364 77.35 0 -69.0544 122.276z"/>
  <path fill="#00264B" d="M1609.17 565.249c0,-15.8201 1.17986,-31.2823 3.31991,-46.2166 -101.599,24.5055 -171.402,59.8328 -216.972,79.5905l160.205 181.882 -300.73 53.9453 41.0779 62.5575 -794.015 136.994 999.818 -73.2046 -43.9171 -50.414 276.053 -55.7027c0,0 -124.84,-100.669 -124.84,-289.431z"/>
  <path fill="#00264B" d="M1959.28 495.479c-21.6214,-1.3582 -43.9171,-2.34437 -66.7065,-2.83214 -2.84749,12.7612 -4.50332,23.4496 -5.24029,29.7009 -7.11224,-0.264554 -14.2044,-0.513754 -21.123,-0.513754 0.975541,-6.25126 3.12622,-16.9173 6.16977,-29.6631 -6.8654,0 -13.7426,-0.138182 -20.6612,-0.138182 -2.60066,11.9085 -4.46552,22.4481 -5.66074,29.6902 -7.34963,0 -14.7146,0.111018 -21.6214,0.2492 1.20939,-6.50518 3.34589,-17.4346 6.17095,-29.8013 -6.62801,0.115742 -13.5241,0.230303 -19.9171,0.47596 -2.61247,12.147 -4.2801,22.8201 -5.45996,29.8095 -7.62836,0.372028 -14.9792,0.73579 -21.8339,1.109 1.1834,-6.62447 3.0589,-17.555 5.92057,-30.0587 -7.1146,0.372028 -14.2446,0.870429 -21.1489,1.3582 -2.35146,12.3927 -3.78052,23.0622 -4.46552,29.9099 -7.62481,0.512573 -14.7288,1.10428 -21.3981,1.61803 0.736971,-6.76501 2.37862,-17.4381 4.5293,-29.7009 -6.654,0.633039 -13.3115,1.37355 -19.9431,2.10344 -2.13651,12.6194 -3.54313,23.2878 -4.29073,29.4363 -9.72825,1.10191 -17.1074,1.94636 -21.5588,2.43413 0.659022,-6.12253 2.08808,-16.6645 4.24231,-29.1836 -21.123,2.9467 -41.5538,6.37054 -60.5107,10.3081 -2.38925,16.8062 -3.8065,34.5762 -3.8065,53.4587 0,129.632 65.7203,218.683 91.3761,248.748 108.755,-15.611 196.804,-39.4917 267.988,-66.9817 -19.4553,-29.317 -53.3914,-91.3572 -53.3914,-169.475 0,-30.1768 4.75252,-57.6561 12.3407,-82.0612z"/>
  <path fill="#00264B" d="M1991.33 497.545c-6.654,23.6905 -11.1609,50.4105 -11.1609,79.9956 0.00354313,79.7062 29.4481,135.748 44.8619,159.535 180.159,-75.6753 241.891,-172.422 255.164,-196.846 -27.7651,-6.47566 -140.28,-31.3839 -288.865,-42.6852z"/>
 </g>
</svg>
